<svg xmlns="http://www.w3.org/2000/svg" viewBox="0 0 2000 2000" width="300" height="300" fill="none"><defs><style>.cls-chr51{fill:#991714}.cls-chr52{fill:#ce5d5d}.cls-chr53{fill:#a8241d}.cls-chr54{fill:#265447}.cls-chr55{fill:#6d0f0c}.cls-chr56{fill:#467c6e}</style></defs><path d="M1030.17 1822.01c-4.98 0-9.93-.04-14.91-.13-111.1-1.98-220.36-25.59-324.75-70.17-102.17-43.64-194.41-105.04-274.17-182.5-81.11-78.78-144.89-169.96-189.58-271.02-46.98-106.25-70.8-219.2-70.81-335.7 0-117.37 24.18-231.15 71.86-338.16 45.18-101.4 109.56-192.84 191.35-271.78 80.14-77.36 172.51-138.47 274.53-181.65 104.04-44.03 212.25-66.85 321.61-67.81 64.51-.56 129.26 6.69 192.5 21.58 61 14.36 121.06 35.92 178.5 64.08 110.88 54.35 212.92 134.17 295.1 230.83 81.64 96.03 143.64 208.61 179.29 325.57 18.38 60.3 29.92 121.98 34.31 183.32 4.54 63.45 1.44 126.99-9.2 188.86l-5.42-.93 5.42.93c-33.46 194.51-141.08 374.05-303.04 505.57-158.5 128.71-354.21 199.12-552.6 199.12Zm-7.83-1707.95c-2.32 0-4.61.01-6.93.03-459.91 4.04-848.45 392.55-848.44 848.39 0 459.48 380.64 840.06 848.49 848.39 4.87.09 9.78.13 14.65.13 407.87.02 777.31-302.91 844.85-695.54 41.03-238.51-32.57-489.56-201.93-688.76-169.15-198.95-405.98-312.64-650.68-312.64Z" class="cls-chr53"/><path d="M1065.51 1814.61c-115.04 0-226.63-22.53-331.69-66.97-101.47-42.92-192.6-104.36-270.86-182.62s-139.7-169.39-182.62-270.86c-44.44-105.06-66.97-216.66-66.97-331.69s22.53-226.63 66.97-331.69c42.92-101.47 104.36-192.6 182.62-270.86s169.39-139.7 270.86-182.62c105.06-44.44 216.66-66.97 331.69-66.97s226.63 22.53 331.69 66.97c101.47 42.92 192.6 104.36 270.86 182.62s139.7 169.39 182.62 270.86c44.44 105.06 66.97 216.66 66.97 331.69s-22.53 226.63-66.97 331.69c-42.92 101.47-104.36 192.6-182.62 270.86s-169.39 139.7-270.86 182.62c-105.06 44.44-216.66 66.97-331.69 66.97m0-1693.36c-463.85 0-841.22 377.37-841.22 841.22s377.37 841.23 841.22 841.23 841.23-377.37 841.23-841.23-377.37-841.22-841.23-841.22" class="cls-chr53"/><path d="M1068.75 1827.56c-112.86 0-222.35-22.11-325.44-65.71-99.56-42.11-188.97-102.39-265.74-179.17-76.78-76.78-137.06-166.19-179.17-265.75-43.6-103.08-65.71-212.57-65.71-325.43s22.11-222.35 65.71-325.43c42.11-99.56 102.39-188.97 179.17-265.75s166.19-137.06 265.74-179.17c103.08-43.6 212.58-65.71 325.44-65.71s222.35 22.11 325.44 65.71c99.56 42.11 188.97 102.39 265.74 179.17 76.78 76.78 137.06 166.19 179.17 265.75 43.6 103.08 65.71 212.57 65.71 325.43s-22.11 222.35-65.71 325.43c-42.11 99.56-102.39 188.97-179.17 265.75s-166.19 137.06-265.74 179.17c-103.08 43.6-212.58 65.71-325.44 65.71m0-1642.15c-444.48 0-806.09 361.61-806.09 806.09s361.61 806.09 806.09 806.09 806.09-361.61 806.09-806.09-361.61-806.08-806.09-806.08Z" style="fill:#0d372d"/><path d="M1541.56 1703.11c2.47.62 4.93 1.27 7.41 1.83 2.47.62 4.95 1.15 7.43 1.71 4.97 1.05 9.96 2.02 14.98 2.81 10.02 1.67 20.1 2.83 30.21 3.53 10.11.66 20.25.91 30.37.6 10.12-.32 20.22-1.14 30.26-2.45l7.52-1.03 7.48-1.28c2.5-.39 4.97-.96 7.45-1.46l3.72-.77c1.24-.26 2.46-.58 3.7-.86 2.46-.6 4.94-1.12 7.38-1.79l7.33-1.98 7.27-2.19c2.42-.74 4.82-1.57 7.23-2.35 19.18-6.54 37.79-14.86 55.51-24.91-8.52 5.57-17.42 10.6-26.54 15.18-9.15 4.53-18.54 8.57-28.15 12.07-19.19 7.07-39.22 11.83-59.5 14.53-10.15 1.26-20.36 2.08-30.59 2.3-10.23.14-20.46-.18-30.64-1.14-20.36-1.84-40.49-5.98-59.83-12.35m24.29 9.02c12.68 1.5 25.19 4.95 36.99 10.09 11.82 5.1 22.86 11.99 32.81 20.19 9.91 8.25 18.67 17.88 25.9 28.52 7.2 10.65 13 22.26 16.82 34.45a171.4 171.4 0 0 0-18.84-33.02c-3.74-5.1-7.8-9.96-12.12-14.55-4.27-4.65-8.94-8.91-13.77-12.96-4.83-4.06-9.96-7.75-15.27-11.16-5.3-3.43-10.84-6.48-16.54-9.23-11.41-5.47-23.51-9.53-35.96-12.33Z" class="cls-chr54"/><path d="M1519.08 1710.25c79.46-5.96 159.46 19.95 220.42 71.24 25.53 21.48 47.88 46.87 65.5 75.2-7.96-11.52-16.55-22.61-25.8-33.13-65.67-75.41-160.17-116.51-260.12-113.31" class="cls-chr54"/><path d="M1545.75 1702.53c90.75 23.25 185.28 31.53 278.65 23.6 13.35-1.03 26.66-2.53 39.96-4.16-26.42 4.65-53.14 7.52-79.93 8.98-80.37 4.31-161.62-5.13-238.69-28.42Z" class="cls-chr54"/><path d="M1359.51 1826.31c51.85-49.78 68.49-76.62 73.62-75.26 5.77 1.53-5.39 38.17-38.06 70.48-32.02 31.67-76.8 51.38-80.51 48.3-2.44-2.02 13.48-13.3 44.96-43.52Zm-59.83 12.81c58.99-45.46 79.79-71.06 84.54-69.19 5.34 2.1-11.84 38.13-49.17 67.73-36.58 29.02-83.5 44.71-86.58 41.24-2.02-2.28 15.39-12.18 51.21-39.78m-60.21 5.91c65.46-40.14 90.29-63.97 94.56-61.61 4.8 2.66-18.41 37.42-59.99 63.67-40.75 25.72-89.1 36.93-91.45 33.1-1.54-2.51 17.14-10.79 56.88-35.16m-61.01 1.36c72.05-32.27 101.38-53.24 104.92-50.3 3.98 3.31-26.35 35.54-72.28 56.81-45.02 20.84-93.95 26-95.31 21.82-.89-2.74 18.93-8.74 62.68-28.33Zm-61-6.47c76.33-24.01 109.12-41.71 111.87-38.31 3.1 3.83-33.11 32.83-81.93 48.83-47.84 15.68-96 15.02-96.4 10.63-.26-2.88 20.11-6.57 66.45-21.15Zm38.77-90.54c67.88 21.65 94.3 38.38 98.33 34.86 4.54-3.96-21.13-31.94-64.3-46.43-42.31-14.21-91.01-11.96-93.04-7.52-1.33 2.91 17.8 5.95 59.01 19.09m52.05-17.53c61.52 29.08 83.87 48.81 88.45 45.68 5.15-3.53-14.31-34.57-53.3-53.81-38.21-18.85-85.76-21.71-88.57-17.43-1.85 2.81 16.08 7.9 53.43 25.56Zm54.41-15.25c56.91 33.45 76.48 54.86 81.35 52 5.48-3.22-9.89-35.87-45.86-57.89-35.25-21.57-81.6-27.61-84.87-23.47-2.15 2.71 14.83 9.05 49.38 29.36m45-17.29c56.91 33.45 76.48 54.86 81.35 52 5.48-3.22-9.89-35.87-45.86-57.89-35.25-21.57-81.6-27.61-84.87-23.47-2.15 2.71 14.83 9.05 49.38 29.36m44.82-15.08c56.91 33.45 76.48 54.86 81.35 52 5.48-3.22-9.89-35.87-45.86-57.89-35.25-21.57-81.6-27.61-84.87-23.47-2.15 2.71 14.83 9.05 49.38 29.36m-247.11 98.2c77.45 2.41 111.35 10.75 113.78 6.62 2.74-4.65-35.49-23.19-85.08-25.38-48.6-2.14-96.13 11.96-96.15 16.41-.01 2.92 20.43.88 67.45 2.34Zm-30.7 26.12c78.9-5.83 115.99-15.72 116.99-11.66 1.12 4.57-43.93 24.93-94.67 29.3-49.73 4.29-92.66-7.84-91.11-12.32 1.02-2.94 20.89-1.78 68.8-5.32Z" class="cls-chr56"/><path d="M1466.85 1728.65c-83.16 42.09-176.01 65.94-269.21 68.54 92.59-9.49 183.3-32.75 269.21-68.54" class="cls-chr56"/><path d="M264.69 1265.76c-10.61 49.86-3.79 103.17 19.87 148.4 3.27 6.51 7 12.78 10.89 18.97-4.31-5.9-8.25-12.08-11.87-18.44-25.26-44.69-32.43-99.36-18.89-148.93" class="cls-chr54"/><path d="M259.14 1283.49c-2.25 36.99-27.85 71.24-62.56 84.1 2.05-1.02 4.06-2.1 6.07-3.2 5.93-3.37 11.6-7.24 16.88-11.54 21.27-17.19 35.3-42.44 39.62-69.36Z" class="cls-chr54"/><path d="M258.72 1249.92c6.07 47.54-3.9 97.08-28.15 138.45-16.38 28.36-39.17 53.1-65.99 71.87 23.86-18.34 44.53-40.85 60.32-66.47 26.53-42.72 38.04-93.78 33.82-143.84Z" class="cls-chr54"/><path d="M265.26 1268.74c-13.24 65.88-15.65 133.91-6.42 200.49 1.24 9.52 2.82 19 4.48 28.47-2.17-9.37-3.97-18.82-5.59-28.3-10.84-66.48-8.57-135.21 7.53-200.65Z" class="cls-chr54"/><circle cx="147.99" cy="1469.6" r="11.82" class="cls-chr54"/><circle cx="196.62" cy="1467.04" r="11.82" class="cls-chr54"/><circle cx="226.22" cy="1428.94" r="11.82" class="cls-chr54"/><circle cx="170.64" cy="1423.16" r="11.82" class="cls-chr56"/><circle cx="200.31" cy="1389.02" r="11.82" class="cls-chr56"/><circle cx="267.56" cy="1519.03" r="11.82" class="cls-chr54"/><circle cx="281.5" cy="1475.98" r="11.82" class="cls-chr56"/><circle cx="236.64" cy="1492.83" r="11.82" class="cls-chr56"/><circle cx="313.92" cy="1449.04" r="11.82" class="cls-chr54"/><circle cx="271" cy="1429.73" r="11.82" class="cls-chr54"/><circle cx="164.41" cy="1361.65" r="11.82" class="cls-chr54"/><path d="M1702.21 1644.7c-78.12 26.2-113.81 27.33-115.4 34.12-1.79 7.65 40.34 19.35 90.49 3.48 49.15-15.55 93.89-53.75 92.99-60.08-.59-4.15-20.65 6.57-68.08 22.47Zm46.57-60.08c-77.97 37.27-114.81 44.03-115.69 50.72-.99 7.54 43.97 11.92 94.12-11.1 49.16-22.57 91.2-65.91 89.55-71.76-1.08-3.84-20.65 9.52-67.99 32.15Zm40.05-65.16c-76.46 48.27-113.86 60.81-113.98 67.29-.13 7.29 47.02 3.91 96.32-26.24 48.31-29.55 86.78-77.54 84.38-82.8-1.57-3.45-20.3 12.45-66.71 41.75Zm36.06-69.1c-72.53 61.09-109.7 80.72-108.84 86.75.97 6.78 49.7-6.45 96.62-44.94 45.98-37.72 78.87-90.41 75.57-94.77-2.17-2.86-19.31 15.88-63.35 52.97Zm28.42-74.33c-66.9 71.53-102.85 97.31-101.09 102.75 1.98 6.12 50.9-16.03 94.32-61.34 42.55-44.41 69.33-100.12 65.26-103.52-2.67-2.23-17.86 18.68-58.48 62.11Zm-110.48-16.09c-17.51 92.39-16.21 133.9-21.94 136.18-6.45 2.56-19.15-45.62-8.73-104.86 10.22-58.06 40.14-112.45 45.63-111.81 3.6.42-4.32 24.4-14.95 80.49Zm-46.75 47.99c-6.63 90.06-.09 128.91-5.75 132.07-6.38 3.55-25.61-39.56-22.19-97.17 3.35-56.46 27.63-112.95 33.41-113.31 3.79-.24-1.44 23.74-5.46 78.42Zm-45.87 52.24c.27 87.69 10.03 124.48 4.46 128.16-6.27 4.14-29.4-35.36-30.41-91.37-.99-54.89 19.5-112.12 25.4-113.11 3.87-.65.39 23.08.55 76.32m-42.5 40.08c.27 87.69 10.03 124.48 4.46 128.16-6.27 4.14-29.4-35.36-30.41-91.37-.99-54.89 19.5-112.12 25.4-113.11 3.87-.65.39 23.08.55 76.32m-40.24 41.34c.27 87.69 10.03 124.48 4.46 128.16-6.27 4.14-29.4-35.36-30.41-91.37-.99-54.89 19.5-112.12 25.4-113.11 3.87-.65.39 23.08.55 76.32m236.57-217.87c-41.74 90.5-52.9 134.98-58.32 135.01-6.1.03-2.44-56.25 23.66-114.62 25.58-57.21 66.41-102.32 70.77-99.36 2.86 1.94-10.77 24.03-36.11 78.98Zm42.98-17.75c-50.61 86.64-81.38 122.59-77.99 126.45 3.82 4.34 49.35-33.73 82.5-89.03 32.5-54.2 45.1-111.59 39.84-112.81-3.45-.8-13.63 22.79-44.36 75.39Z" class="cls-chr56"/><path d="M1545.75 1702.53c85.99-76.3 159.42-165.61 220.18-263.08-24.82 47.92-55.06 93.14-89.06 135.06-38.56 47.42-82.34 91.16-131.12 128.03ZM199.44 1273.8c43.56 14.6 63.46 15.23 64.35 19.02 1 4.26-22.49 10.79-50.46 1.94-27.41-8.67-52.36-29.96-51.85-33.49.33-2.31 11.52 3.66 37.97 12.53Zm-25.97-33.49c43.48 20.78 64.02 24.54 64.51 28.27.55 4.2-24.52 6.65-52.49-6.19-27.41-12.58-50.85-36.74-49.94-40 .6-2.14 11.52 5.3 37.91 17.92Zm-22.33-36.32c42.63 26.91 63.49 33.9 63.56 37.51.07 4.06-26.22 2.18-53.71-14.63-26.94-16.47-48.39-43.22-47.05-46.15.88-1.92 11.32 6.94 37.2 23.27m-20.11-38.52c40.45 34.05 61.17 45 60.69 48.35-.54 3.78-27.72-3.6-53.88-25.05-25.64-21.03-43.98-50.4-42.14-52.83 1.21-1.59 10.77 8.85 35.32 29.53Zm-15.84-41.43c37.31 39.87 57.35 54.24 56.37 57.27-1.1 3.41-28.38-8.94-52.59-34.19-23.73-24.75-38.66-55.81-36.39-57.7 1.49-1.24 9.96 10.41 32.61 34.62m61.6-8.97c9.76 51.5 9.04 74.64 12.24 75.91 3.59 1.43 10.68-25.43 4.87-58.45-5.7-32.37-22.38-62.68-25.44-62.32-2.01.23 2.41 13.6 8.34 44.87Zm26.07 26.75c3.7 50.2.05 71.86 3.21 73.62 3.56 1.98 14.28-22.05 12.37-54.16-1.87-31.47-15.41-62.96-18.63-63.16-2.11-.13.8 13.23 3.05 43.71Zm25.57 29.12c-.15 48.88-5.59 69.39-2.49 71.43 3.49 2.31 16.39-19.71 16.96-50.93.55-30.6-10.87-62.49-14.16-63.05-2.16-.36-.22 12.86-.31 42.54Zm23.7 22.34c-.15 48.88-5.59 69.39-2.49 71.43 3.49 2.31 16.39-19.71 16.96-50.93.55-30.6-10.87-62.49-14.16-63.05-2.16-.36-.22 12.86-.31 42.54Zm22.44 23.04c-.15 48.88-5.59 69.39-2.49 71.43 3.49 2.31 16.39-19.71 16.96-50.93.55-30.6-10.87-62.49-14.16-63.05-2.16-.36-.22 12.86-.31 42.54Zm-131.91-121.44c23.27 50.45 29.5 75.24 32.52 75.25 3.4.02 1.36-31.36-13.19-63.89-14.26-31.89-37.03-57.03-39.46-55.38-1.59 1.08 6.01 13.39 20.14 44.02Zm-23.97-9.89c28.22 48.3 45.38 68.33 43.49 70.49-2.13 2.42-27.52-18.8-46.01-49.63-18.12-30.21-25.15-62.2-22.22-62.88 1.93-.45 7.6 12.7 24.74 42.02" class="cls-chr56"/><path d="M286.68 1306.03c-51.02-38.99-92.93-89.87-122.78-146.64l6.48 10.13c32.48 50.45 71.42 96.64 116.3 136.51m53.98-19.16c-28 8.28-40.79 8.64-41.36 10.79-.64 2.42 14.46 6.12 32.43 1.1 17.61-4.92 33.65-16.99 33.33-18.99-.21-1.31-7.4 2.08-24.4 7.1m16.69-18.99c-27.94 11.78-41.14 13.92-41.46 16.03-.36 2.38 15.76 3.77 33.73-3.51 17.62-7.13 32.68-20.83 32.09-22.69-.39-1.21-7.4 3.01-24.37 10.16Zm14.35-20.59c-27.4 15.26-40.81 19.22-40.85 21.27-.05 2.3 16.85 1.24 34.52-8.3 17.31-9.34 31.1-24.51 30.24-26.18-.56-1.09-7.27 3.94-23.91 13.2Zm12.92-21.85c-25.99 19.31-39.31 25.52-39.01 27.42.35 2.14 17.81-2.04 34.63-14.21 16.48-11.93 28.27-28.58 27.08-29.96-.78-.9-6.92 5.02-22.7 16.74Zm10.19-23.5c-23.98 22.61-36.86 30.76-36.23 32.48.71 1.93 18.24-5.07 33.8-19.39 15.25-14.04 24.84-31.65 23.39-32.72-.96-.7-6.4 5.91-20.96 19.63m-39.6-5.08c-6.27 29.21-5.81 42.33-7.86 43.05-2.31.81-6.86-14.42-3.13-33.15 3.66-18.36 14.39-35.55 16.35-35.34 1.29.13-1.55 7.71-5.36 25.45Zm-16.75 15.17c-2.38 28.47-.03 40.75-2.06 41.75-2.29 1.12-9.18-12.51-7.95-30.72 1.2-17.85 9.9-35.7 11.97-35.82 1.36-.08-.52 7.5-1.96 24.79m-16.44 16.51c.1 27.72 3.59 39.35 1.6 40.51-2.25 1.31-10.53-11.18-10.9-28.88-.36-17.35 6.99-35.44 9.1-35.76 1.39-.21.14 7.3.2 24.13m-15.23 12.67c.1 27.72 3.59 39.35 1.6 40.51-2.25 1.31-10.53-11.18-10.9-28.88-.36-17.35 6.99-35.44 9.1-35.76 1.39-.21.14 7.3.2 24.13m-14.42 13.07c.1 27.72 3.59 39.35 1.6 40.51-2.25 1.31-10.53-11.18-10.9-28.88-.36-17.35 6.99-35.44 9.1-35.76 1.39-.21.14 7.3.2 24.13m84.78-68.87c-14.96 28.61-18.96 42.67-20.9 42.68-2.19 0-.87-17.78 8.48-36.23 9.17-18.08 23.8-32.35 25.36-31.41 1.02.61-3.86 7.6-12.94 24.97Zm15.4-5.62c-18.14 27.39-29.16 38.75-27.95 39.97 1.37 1.37 17.69-10.66 29.57-28.15 11.65-17.13 16.16-35.28 14.28-35.66-1.24-.25-4.89 7.2-15.9 23.83Z" class="cls-chr56"/><path d="M284.59 1305.16c30.22-23.7 56.81-51.76 78.91-83.17-19.76 33.01-46.97 61.71-78.91 83.17" class="cls-chr56"/><path d="M1513.81 1675.65c-13.97.99-27.94 1.99-41.9 2.98-7.81-4.54-16.69-11.64-22.95-22.87-25.58-45.94 10.21-129.89 37.91-130.52 26.67-.61 62.86 75.63 42.9 126.06-4.4 11.13-10.78 19.08-15.96 24.35" class="cls-chr53"/><path d="m1543.69 1715.8-27.6-31.68c-.99-9.02-.54-20.47 4.86-32.35 22.09-48.59 112.03-71.41 129.18-49.65 16.51 20.95-23.9 96.58-77 111.52-11.72 3.3-22.03 3.07-29.44 2.16m-72.72 1.83c11.72 7.67 23.44 15.34 35.15 23.02 3.33 8.5 5.89 19.76 3.75 32.84-8.75 53.49-90.26 101.08-112.65 84.76-21.56-15.71-2.08-100.68 45.67-130.21 10.54-6.51 20.63-9.2 28.08-10.41" class="cls-chr53"/><path d="m1471.62 1666.98 2.76 41.93c-4.87 7.76-12.44 16.58-24.37 22.73-48.75 25.13-137.11-11.46-137.52-39.17-.4-26.67 80.46-62.13 133.55-41.69 11.71 4.51 20.05 10.96 25.58 16.2m35.96 78.2c8.86-10.85 17.71-21.7 26.57-32.56 8.84-2.38 20.37-3.69 33.24-.09 52.65 14.69 92.09 101.43 73.5 121.98-17.89 19.79-100.97-9.14-125.71-60.12-5.46-11.25-7.14-21.63-7.6-29.21" class="cls-chr53"/><path d="m1549.61 1709.72.92-.24c39.06-10.99 68.78-66.62 56.63-82.02-10.76-13.65-60.46-3.45-84.93 22.02 4.75-35.67-17.91-78.97-35.15-78.57-19.69.45-44.93 58.13-29.63 92.5-.13-.05-.26-.11-.4-.16-39.05-15.04-98.52 11.04-98.22 30.66.26 17.75 49.6 40.46 86.02 33.8-27.79 26.05-37.97 77.72-23.7 88.13 16.47 12.01 76.43-23 82.86-62.34.45-2.77.61-5.42.56-7.95.81 2.75 1.89 5.64 3.34 8.62 18.2 37.5 79.31 58.77 92.47 44.22 13.28-14.68-13.71-75.29-50.76-88.66Zm-27.75-.99c-6.49 7.95-12.98 15.9-19.47 23.86-.36-1.13-.74-2.22-1.15-3.25-8.62-5.64-17.24-11.29-25.86-16.93-.86.14-1.77.31-2.71.51 2.09-2.32 3.81-4.68 5.22-6.92l-1.47-22.29 30.47-2.16c.46-.47.94-.97 1.42-1.5-.13 2.76 0 5.36.25 7.73l17.45 20.03c-1.46.27-2.85.59-4.16.94Z" class="cls-chr51"/><ellipse cx="1498.97" cy="1703.11" class="cls-chr55" rx="42.6" ry="42.4"/><path d="M1493.9 1652.72c-8.6-14.49-10-33.85-3.54-49.42.06 7.3.02 17.64.61 24.79.42 7.12 1.95 17.45 2.93 24.62Zm45.74 31.49c9.75-13.7 26.97-22.83 43.78-23.18-6.65 3-16.13 7.14-22.44 10.56-6.35 3.26-15.17 8.83-21.35 12.62Zm-4.11 53.19c16.13 4.74 30.39 18.02 36.23 33.8-5.01-5.31-12.02-12.91-17.32-17.75-5.16-4.93-13.3-11.46-18.91-16.05m-60.01 11.45c-3.07 16.53-14.84 32.07-29.94 39.47 4.77-5.52 11.62-13.28 15.9-19.03 4.38-5.63 10.04-14.4 14.04-20.44m-25.37-54.28c-14.49 8.6-33.85 10-49.42 3.54 7.3-.06 17.64-.02 24.79-.61 7.12-.42 17.45-1.95 24.63-2.93" class="cls-chr52"/><path d="M294.14 1287.34c2.69-8.44 5.38-16.88 8.06-25.33 4.5-3.52 10.75-7.09 18.82-8.13 32.99-4.27 73.96 36.43 67.84 52.86-5.89 15.82-59.18 19.23-84.14-4.31-5.51-5.2-8.69-10.81-10.58-15.09" class="cls-chr53"/><path d="M263.54 1295.5c8.36-2.93 16.72-5.87 25.08-8.8 5.53 1.53 12.16 4.48 17.88 10.43 23.38 24.36 15.73 82.57-1.08 87.56-16.18 4.8-51.17-36.67-47.51-71.38.81-7.66 3.36-13.67 5.63-17.81m15.96-43.17c-7.25 5.09-14.51 10.18-21.76 15.27-5.77-.04-12.99-1.16-20.18-5.49-29.39-17.67-38.27-76.73-23.43-86.07 14.28-8.99 59.67 22.36 65.83 57.34 1.36 7.72.58 14.28-.46 18.94Z" class="cls-chr53"/><path d="M309.12 1264.58c-8.43-2.73-16.86-5.46-25.29-8.2-3.42-4.68-6.83-11.2-7.65-19.64-3.35-34.54 38.85-77.91 55.23-71.66 15.77 6.01 17.67 61.84-6.78 88.26-5.4 5.83-11.14 9.22-15.51 11.24m-54.39 2.82c4.3 7.75 8.61 15.49 12.91 23.24-.67 5.75-2.6 12.83-7.73 19.56-20.97 27.51-81.19 30.37-88.91 14.63-7.44-15.15 29.02-57.21 64.78-59.81 7.89-.57 14.39.87 18.95 2.38" class="cls-chr53"/><path d="M265.73 1300.41c-.02.2-.05.4-.07.6-2.69 25.53 23.04 56.03 34.95 52.5 10.54-3.13 16.19-34.73 6.95-55.08 19.86 11.15 50.61 7.97 54.42-2.26 4.35-11.68-23.64-40.02-47.43-39.08.06-.07.13-.13.19-.2 17.98-19.43 16.58-60.49 4.99-64.92-10.5-4-35.4 19.68-40.02 42.64-8.81-22.44-36.79-40.53-46.25-34.57-10.91 6.87-4.38 50.31 17.24 63.3 1.52.91 3.04 1.63 4.54 2.19-1.8-.17-3.76-.21-5.85-.06-26.3 1.91-53.12 32.85-47.65 43.99 5.52 11.24 47.47 9.58 64-9.07Zm7.08-16.08c-3.15-5.68-6.31-11.35-9.46-17.03.75.05 1.48.08 2.18.09 5.34-3.74 10.67-7.49 16.01-11.23.12-.54.23-1.11.34-1.71.87 1.77 1.86 3.34 2.84 4.69 4.48 1.45 8.97 2.91 13.45 4.36-1.95 6.14-3.91 12.28-5.86 18.41.17.38.35.78.55 1.19-1.59-.72-3.15-1.26-4.6-1.66-5.29 1.86-10.57 3.71-15.86 5.57.19-.92.32-1.81.42-2.67Z" class="cls-chr51"/><ellipse cx="281.48" cy="1272.19" class="cls-chr55" rx="26.95" ry="26.83" transform="rotate(-68.27 281.511 1272.222)"/><path d="M312.28 1281.01c10.62-1.64 22.15 2.01 29.88 9.49-4.3-1.69-10.38-4.12-14.71-5.45-4.29-1.42-10.71-2.95-15.16-4.04Zm-29.22 19.51c5.79 9.06 7.1 21.08 3.37 31.17-.19-4.61-.42-11.16-.95-15.66-.43-4.49-1.62-10.99-2.42-15.5Zm-30.3-14.87c-6.67 8.43-17.6 13.6-28.35 13.38 4.3-1.69 10.41-4.04 14.49-6.02 4.11-1.88 9.85-5.13 13.86-7.35Zm7.32-37.96c-9.07-5.78-15.32-16.13-16.19-26.84 2.12 4.1 5.08 9.94 7.46 13.8 2.28 3.89 6.1 9.28 8.73 13.04m37.85-2.2c-1.64-10.62 2.01-22.15 9.49-29.88-1.69 4.3-4.12 10.38-5.45 14.71-1.42 4.29-2.95 10.71-4.04 15.16Z" class="cls-chr52"/><path d="M1581.58 1504.74c-1.63 6.55-3.25 13.1-4.88 19.65-3.24 2.9-7.82 5.92-13.9 7.11-24.86 4.88-58.01-24.02-54.17-36.81 3.69-12.31 44.02-17.55 64.16-.89 4.44 3.68 7.14 7.78 8.78 10.94Z" class="cls-chr53"/><path d="M1604.43 1497.03c-6.21 2.64-12.42 5.29-18.63 7.93-4.28-.89-9.46-2.8-14.1-7.05-18.98-17.36-16.04-61.97-3.52-66.6 12.06-4.45 40.7 25.33 39.64 51.89-.23 5.86-1.87 10.55-3.4 13.81Zm-9.99 33.6c5.26-4.23 10.52-8.46 15.78-12.68 4.39-.26 9.93.24 15.61 3.17 23.21 11.97 32.88 56.42 22.07 64.25-10.41 7.54-46.45-14.04-52.87-40.32-1.42-5.8-1.15-10.82-.59-14.42" class="cls-chr53"/><path d="M1571.32 1522.79c6.54 1.66 13.08 3.32 19.63 4.98 2.83 3.39 5.75 8.17 6.79 14.55 4.26 26.09-25.67 61.13-38.43 57.19-12.28-3.79-16.49-46.12.78-67.41 3.81-4.7 8.01-7.56 11.23-9.31m41.2-4.84-10.96-17.02c.23-4.4 1.34-9.88 4.91-15.25 14.57-21.94 60.2-27.1 66.85-15.52 6.4 11.15-19.22 44.91-46.27 48.66-5.97.83-10.98.05-14.52-.87Z" class="cls-chr53"/><path d="M1602.52 1493.41c0-.15.02-.3.03-.46.78-19.54-20.29-41.44-29.16-38.17-7.86 2.9-10.58 27.2-2.55 42.2-15.64-7.49-38.85-3.55-41.24 4.41-2.73 9.09 19.95 29.25 37.98 27.35-.04.05-.09.1-.13.16-12.71 15.66-9.61 46.79-.57 49.58 8.17 2.52 25.93-16.71 28.3-34.39 7.8 16.61 29.97 28.98 36.86 23.99 7.95-5.76.84-38.45-16.23-47.26-1.2-.62-2.39-1.09-3.56-1.44 1.38.04 2.87-.03 4.45-.25 19.9-2.76 38.74-27.59 34.03-35.79-4.75-8.27-36.55-4.93-48.19 10.06Zm-4.59 12.57c2.68 4.16 5.36 8.32 8.03 12.47-.57 0-1.13 0-1.66.04l-11.61 9.33c-.06.41-.12.85-.17 1.32-.75-1.3-1.58-2.44-2.39-3.42-3.48-.88-6.96-1.76-10.44-2.65l3.54-14.28c-.15-.28-.31-.57-.48-.88 1.25.47 2.46.8 3.58 1.03 3.93-1.67 7.85-3.34 11.78-5.01-.1.71-.16 1.4-.19 2.05Z" class="cls-chr51"/><ellipse cx="1591.95" cy="1515.64" class="cls-chr55" rx="20.53" ry="20.43" transform="rotate(-72 1591.939 1515.633)"/><path d="M1568.11 1510.45c-7.99 1.77-16.93-.44-23.17-5.74 3.35 1.07 8.09 2.62 11.45 3.41 3.33.87 8.28 1.71 11.72 2.32Zm21.24-16.27c-4.84-6.6-6.44-15.67-4.1-23.52.37 3.5.87 8.46 1.5 11.86.55 3.4 1.78 8.27 2.61 11.66Zm23.76 9.8c4.65-6.73 12.7-11.2 20.88-11.57-3.18 1.5-7.71 3.59-10.71 5.29-3.03 1.63-7.23 4.38-10.17 6.28m-3.69 29.21c7.17 3.94 12.44 11.5 13.63 19.6-1.81-3.01-4.35-7.3-6.36-10.12-1.93-2.85-5.1-6.75-7.28-9.48Zm-28.65 3.55c1.77 7.99-.44 16.93-5.74 23.17 1.07-3.35 2.62-8.09 3.41-11.45.87-3.33 1.71-8.28 2.32-11.72Z" class="cls-chr52"/><circle cx="1816.82" cy="1880.47" r="16.48" class="cls-chr54"/><circle cx="1816.82" cy="1812.58" r="16.48" class="cls-chr54"/><circle cx="1765.94" cy="1768.59" r="16.48" class="cls-chr54"/><circle cx="1753.82" cy="1845.55" r="16.48" class="cls-chr56"/><circle cx="1708.47" cy="1801.75" r="16.48" class="cls-chr56"/><circle cx="1894.38" cy="1717.63" r="16.48" class="cls-chr54"/><circle cx="1835.47" cy="1695.07" r="16.48" class="cls-chr56"/><circle cx="1855.65" cy="1758.75" r="16.48" class="cls-chr56"/><circle cx="1800.34" cy="1647.96" r="16.48" class="cls-chr54"/><circle cx="1770.31" cy="1706.31" r="16.48" class="cls-chr54"/><circle cx="1667.73" cy="1849.72" r="16.48" class="cls-chr54"/></svg>