<svg fill="none" xmlns="http://www.w3.org/2000/svg" width="300" height="300" viewBox="0 0 300 300"><g transform="translate(10 10)"><circle cx="138" cy="167.682" r="99.318" fill="#fff" stroke="#F89941" stroke-width="20"/><path fill="url(#a)" d="M81 124.097h113v110.806H81z"/><ellipse cx="167.989" cy="67.895" rx="35.445" ry="48.442" fill="#F89941"/><path d="M187.937 69.076c0 13.581-3.845 25.77-9.932 34.494-6.093 8.734-14.269 13.811-23.013 13.811s-16.92-5.077-23.013-13.811c-6.088-8.725-9.932-20.913-9.932-34.494s3.844-25.768 9.932-34.494c6.093-8.733 14.268-13.81 23.013-13.81 8.744 0 16.92 5.077 23.013 13.81 6.087 8.725 9.932 20.913 9.932 34.494Z" fill="#F89941" stroke="#E78249" stroke-width="5"/><ellipse cx="154.072" cy="69.487" rx="34.051" ry="50.661" fill="#F89941"/><path d="M171.396 69.667c0 13.072-3.834 24.805-9.908 33.207-6.076 8.405-14.253 13.326-23.037 13.326-8.785 0-16.962-4.921-23.038-13.326-6.073-8.402-9.907-20.135-9.907-33.207s3.834-24.805 9.907-33.207c6.076-8.405 14.253-13.326 23.038-13.326s16.961 4.921 23.037 13.326c6.074 8.402 9.908 20.135 9.908 33.207Z" fill="#F89941" stroke="#E78249" stroke-width="5"/><ellipse cx="134.316" cy="70.849" rx="33.673" ry="47.851" fill="#F89941"/><ellipse rx="35.445" ry="48.442" transform="matrix(-1 0 0 1 106.743 68.448)" fill="#F89941"/><path d="M86.794 69.63c0 13.581 3.845 25.769 9.932 34.494 6.093 8.734 14.269 13.811 23.013 13.811s16.92-5.077 23.014-13.811c6.087-8.725 9.932-20.913 9.932-34.494s-3.845-25.769-9.932-34.494c-6.094-8.734-14.269-13.81-23.014-13.81s-16.92 5.076-23.013 13.81c-6.087 8.725-9.932 20.913-9.932 34.494Z" fill="#F89941" stroke="#E78249" stroke-width="5"/><ellipse rx="32.944" ry="50.385" transform="matrix(-1 0 0 1 119.744 69.763)" fill="#F89941"/><path d="M103.335 70.22c0 13.073 3.834 24.805 9.908 33.207 6.076 8.406 14.253 13.326 23.038 13.326s16.961-4.92 23.037-13.326c6.074-8.402 9.908-20.134 9.908-33.206s-3.834-24.805-9.908-33.207c-6.076-8.405-14.253-13.326-23.037-13.326-8.785 0-16.962 4.92-23.038 13.326-6.074 8.402-9.908 20.134-9.908 33.207Z" fill="#F89941" stroke="#E78249" stroke-width="5"/><ellipse rx="32.39" ry="47.616" transform="matrix(-1 0 0 1 139.677 70.87)" fill="#F89941"/><ellipse rx="33.221" ry="47.616" transform="matrix(-1 0 0 1 134.971 71.424)" fill="#F89941"/><path d="M158.85 46.678c6.36-4.426 7.688-6.045 9.017-7.664 0 0 1.939 4.81 2.013 7.343s-.168 3.79-2.632 5.29-11.842 1.398-17.165 1.328c-.773-.475.637-.638 8.767-6.297m-43.085-.166c-6.373-4.37-7.707-5.965-9.041-7.558 0 0-1.941 6.882-1.966 7.868s-.101 3.983 3.489 5.177c3.59 1.195 10.987.773 16.304.728.771-.462-.639-.628-8.786-6.215M160 90.5c7.156-7.34 9.5-12.217 11.351-17.565.889-2.568-8.442-.892-13.351 0-.724.131-2.249 3.98-3 4.065-.818.093-3.159-3.924-4-3.914-1.275.015-3.273 0-5.125.343-.53.936.492 4.146 0 4.854-.554 0-4.079-1.023-4.633-1.853-.553-1.938-.293-3.067-1.124-3.898-2.563.376-2.095.125-4.706.554-.644.106-2.322 4.635-2.971 4.734-.826.125-3.797-3.811-4.632-3.706-1.062.133-2.988.354-4.169.463-.514.047-.086 2.925-.463 3.706-.279.579-3.751-.39-4.677-.783-.463-.998-.656-2.942-1.5-2.923-6-.463-7.6-.734-13.425-3.706 0 0-1.075 9.129 7.425 18.129s36.127 14.706 49 1.5" fill="#000"/><path d="M135.238 7.252c1.954-5.52 7.44-6.889 10.697-7.252l2.442 1.816c.781.581 1.465.593 1.954 1.44 0 .97-3.994 2.164-7.902 3.326-4.884 1.453-2.947 10.471 0 12.7.972.733 1.095.682 3.537.682 2.063 0 4.421-1.717 5.6-2.611 0 0 .295 2.904-1.768 4.125-2.063 1.22-6.22.38-6.19.488.885 1.952 3.282.523 4.421 1.37-.683 0-1.473.953-3.831 1.197-1.526.047-2.063 0-3.242-.615-1.179-.614-1.474-1.048-2.063-1.778-2.063 1.22 0 3.29 0 3.29s-4.421.421-5.306-1.512c-.323-.706.295-1.778 0-1.952-1.768.488-2.652 1.515-6.214.904-3.061-.526-2.271-4.549-2.922-5.517 2.93.726.68 2.686 4.876 2.61 11.511-.205 3.469-5.81 5.911-12.711" fill="#5D725F"/><defs><pattern id="a" patternContentUnits="objectBoundingBox" width="1" height="1"/></defs></g></svg>