<svg fill="none" xmlns="http://www.w3.org/2000/svg" width="300" height="300" viewBox="0 0 300 300"><g transform="translate(10 5)"><path d="M179.159 63.786c-9.165.948-18.962 0-24.098-1.185 11.457 6.716 43.298 11.772 60.048 20.937 28.838 15.78 32.394 56.493 32.394 23.308 0-16.197.617-27.447-12.247-37.925-15.715-12.8-44.64-6.32-56.097-5.135m-82.165 0c9.165.948 18.962 0 24.098-1.185-11.457 6.716-43.298 11.772-60.048 20.937-28.839 15.78-32.394 56.493-32.394 23.308 0-16.197-.618-27.447 12.246-37.925 15.716-12.8 44.641-6.32 56.098-5.135" fill="#4C3ABD"/><path d="M106.47 69.788h33.974l-2.37-29.628h-13.037l-3.95 20.937z" fill="#897CDB"/><path d="M169.283 69.788h-33.974l2.37-29.628h13.037l3.95 20.937z" fill="#897CDB"/><rect x="125.827" y="16.852" width="24.493" height="44.246" rx="12.247" fill="#FFDFD9"/><path d="m136.099 44.505-12.642-3.555L127.013 5c1.185 5.53 2.765 13.432 2.765 13.432s3.555-3.16 8.691-3.16 7.506 2.238 9.086 3.16L149.926 5l3.16 35.95-12.247 3.555-2.37 3.16z" fill="#4C3ABD"/><path d="m142.025 35.814 7.11-1.58-1.58 2.37zm-6.716 0-7.111-1.58 1.58 2.37z" fill="#fff"/><path d="m236.613 122.117 3.38-1.846-1.513 3.132.271 1.353-6.878 5.205-.767-.567-1.487.098-.286-.529c1.722-.043.407-.798 1.319-1.539.569-.463.993-1.167 1.15-2.024.344-1.886-1.706-2.975-2.568-2.732-.186.052 1.162-.667.185-2.371-.702-.915-1.865-.943-2.306-.942.224-.38 1.262-1.203.791-2.467-.47-1.263-1.826-1.468-2.548-1.557.415-.238 1.346-1.024 1.092-2.136-.328-1.436-1.252-1.798-2.683-1.984 1.552-1.141 3.836-2.39 6.993.267 4.266 3.591 3.407 8.985 4.082 10.209.54.979 1.407.695 1.773.43" fill="#4C3ABD"/><path d="m239.907 127.873 3.184-2.586-3.141.293-1.533-1.134-7.802 4.475.597 1.041-.725 1.045.218.379c.308-.239.446-.76 1.92-.316.747.225 1.466-.413 2.298-.19 1.831.489 1.928 2.832 1.344 3.518-.126.147 1.091-.78 2.195.842.519 1.033.047 2.111-.142 2.514.434-.043 1.613-.643 2.54.328.927.97.532 2.299.303 2.999.39-.279 1.488-.796 2.373-.089 1.143.913 1.072 1.914.627 3.303 1.682-.934 3.669-2.477 2.746-6.518-1.339-5.86-6.57-6.955-7.374-8.096-.644-.912-.02-1.585.372-1.808m-4.751 83.681 3.692-1.096-2.137 2.745-.019 1.38-7.818 3.644-.631-.716-1.475-.215-.168-.578c1.693.32.565-.695 1.612-1.228.654-.333 1.217-.932 1.55-1.738.732-1.771-1.043-3.266-1.937-3.21-.192.012 1.276-.407.678-2.279-.493-1.042-1.625-1.313-2.056-1.405.298-.324 1.487-.911 1.292-2.245s-1.478-1.82-2.165-2.058c.456-.146 1.531-.718 1.516-1.859-.019-1.473-.846-2.021-2.206-2.503 1.757-.791 4.252-1.532 6.78 1.729 3.417 4.407 1.445 9.5 1.848 10.838.322 1.071 1.23.975 1.644.794" fill="#4C3ABD"/><path d="m237.167 217.872 3.656-1.859-3.133-.374-1.26-1.43-8.568 2.737.365 1.143-.927.87.132.416c.352-.169.597-.649 1.944.094.684.377 1.52-.095 2.287.297 1.687.863 1.29 3.174.575 3.722-.154.117 1.23-.534 1.969 1.284.291 1.119-.397 2.073-.667 2.428.434.049 1.712-.29 2.415.854s.037 2.36-.333 2.996c.44-.191 1.622-.466 2.339.411.925 1.133.645 2.096-.081 3.362 1.84-.561 4.107-1.652 4.053-5.797-.078-6.011-4.962-8.18-5.51-9.464-.437-1.027.314-1.554.744-1.69" fill="#4C3ABD"/><path d="m236.655 159.655 2.893-.796-2.543-.936-.582-.905-6.672.811-.122.732-.887.751.127.451c.988-.909.66.227 1.572.148.57-.049 1.189.115 1.741.511 1.214.87.655 2.59.041 2.921-.132.071 1.012-.256 1.387 1.228.104.893-.533 1.538-.781 1.776.331.092 1.359-.009 1.779.954.421.962-.228 1.812-.584 2.253.362-.092 1.309-.156 1.769.605.594.982.272 1.685-.428 2.564 1.487-.201 3.443-.739 3.772-3.937.445-4.322-2.958-6.878-3.242-7.929-.228-.841.412-1.152.76-1.202" fill="#897CDB"/><path d="m235.383 154.647 3.184-.277-1.918 1.538-.245 1.465-6.794 1.719-.23-.906-.972-.193-.083-.33c.302-.034.662.183 1.247-.863.297-.531 1.044-.563 1.39-1.139.761-1.265-.454-2.63-1.153-2.698-.15-.014 1.034-.154.774-1.661-.269-.859-1.117-1.207-1.441-1.331.266-.211 1.251-.513 1.245-1.559s-.948-1.577-1.454-1.845c.369-.055 1.265-.36 1.377-1.235.146-1.13-.436-1.653-1.438-2.19 1.448-.388 3.397-.6 5.069 2.164 2.424 4.008.087 7.454.254 8.529.133.86.847.899 1.188.812" fill="#897CDB"/><path d="m227.045 249.993-2.038-2.203.34 2.689-.536.932 3.789 5.551.707-.228 1.074.442.343-.32c-1.262-.459-.103-.691-.592-1.464-.306-.483-.445-1.109-.348-1.781.214-1.478 1.999-1.774 2.575-1.381.124.085-.693-.78.452-1.796.745-.503 1.611-.234 1.936-.124-.07-.336-.633-1.202.028-2.018.661-.817 1.714-.632 2.269-.518-.248-.28-.74-1.09-.276-1.849.598-.98 1.371-1.018 2.473-.8-.863-1.228-2.24-2.717-5.231-1.538-4.042 1.594-4.746 5.791-5.548 6.528-.642.589-1.212.164-1.417-.122" fill="#4C3ABD"/><path d="m223.184 253.427-1.71-2.7 2.248.995 1.413-.457 4.652 5.242-.699.62.276.952-.255.226c-.168-.253-.141-.672-1.339-.71-.608-.019-.981-.668-1.651-.71-1.474-.093-2.127 1.613-1.865 2.265.056.14-.613-.847-1.831.077-.639.634-.558 1.547-.519 1.892-.31-.139-1.031-.875-1.957-.388-.926.486-.964 1.567-.968 2.14-.219-.303-.902-.958-1.731-.655-1.071.391-1.266 1.148-1.283 2.285-1.01-1.107-2.095-2.74-.41-5.496 2.442-3.997 6.578-3.508 7.455-4.15.702-.514.409-1.166.174-1.428m19.648-70.361 2.254.62-1.982.729-.453.705-5.199-.632-.095-.571-.691-.584.098-.352c.771.708.515-.177 1.226-.115.444.038.926-.09 1.356-.399.946-.678.511-2.018.032-2.276-.103-.055.789.2 1.081-.957.081-.695-.416-1.198-.608-1.384.257-.071 1.058.008 1.386-.743.328-.75-.178-1.412-.455-1.755.282.071 1.019.121 1.378-.472.463-.765.212-1.313-.334-1.998 1.159.157 2.684.576 2.94 3.068.347 3.368-2.305 5.36-2.527 6.179-.177.655.321.897.593.937" fill="#4C3ABD"/><path d="m241.84 186.968 2.482.215-1.495-1.198-.191-1.142-5.294-1.339-.179.706-.757.151-.065.256c.235.027.515-.142.971.673.232.414.814.439 1.084.887.592.986-.354 2.05-.899 2.103-.117.011.806.12.603 1.294-.209.67-.87.941-1.123 1.037.208.165.975.4.971 1.215s-.739 1.229-1.134 1.437c.288.043.986.281 1.074.963.113.881-.34 1.288-1.121 1.707 1.128.302 2.647.467 3.95-1.687 1.889-3.123.068-5.808.198-6.646.104-.67.66-.701.925-.632" fill="#4C3ABD"/><path d="m200.985 253.726-.497-2.285 1.565 1.418.835.074 1.853 4.898-.461.349-.198.884-.357.076c.27-1.011-.395-.374-.671-1.032a2.04 2.04 0 0 0-.982-1.017c-1.039-.524-2.025.484-2.031 1.028-.001.117-.189-.791-1.349-.514-.654.252-.869.925-.944 1.182-.183-.196-.485-.942-1.301-.884-.817.058-1.169.812-1.344 1.218-.068-.283-.366-.96-1.057-1.002-.893-.055-1.262.421-1.616 1.222-.399-1.099-.735-2.644 1.354-4.027 2.823-1.87 5.817-.445 6.646-.629.663-.147.646-.701.555-.959" fill="#897CDB"/><path d="m204.902 252.794-.961-2.298-.368 1.88-.923.698 1.27 5.312.709-.17.484.601.258-.061c-.086-.221-.366-.391.145-1.173.26-.397.011-.924.283-1.371.599-.983 1.98-.638 2.28-.18.064.098-.268-.769.867-1.135.69-.125 1.237.335 1.439.514.05-.26-.097-1.05.627-1.424s1.43.085 1.799.338c-.096-.275-.209-1.004.354-1.398.728-.509 1.299-.296 2.032.201-.256-1.14-.814-2.562-3.327-2.716-3.642-.225-5.176 2.635-5.979 2.908-.641.219-.927-.26-.989-.526" fill="#897CDB"/><path d="m39.247 122.117-3.38-1.846 1.513 3.132-.271 1.353 6.878 5.205.767-.567 1.488.098.286-.529c-1.723-.043-.407-.798-1.32-1.539-.569-.463-.993-1.167-1.15-2.025-.344-1.885 1.707-2.974 2.568-2.731.186.052-1.162-.667-.184-2.371.7-.915 1.864-.943 2.305-.942-.223-.38-1.262-1.203-.791-2.467.47-1.263 1.827-1.468 2.548-1.557-.415-.238-1.346-1.024-1.091-2.136.327-1.436 1.252-1.798 2.682-1.984-1.552-1.142-3.836-2.39-6.992.267-4.267 3.591-3.408 8.985-4.083 10.209-.54.978-1.407.695-1.773.43" fill="#4C3ABD"/><path d="m35.953 127.873-3.184-2.586 3.142.293 1.532-1.134 7.803 4.475-.597 1.041.724 1.045-.217.379c-.31-.239-.447-.76-1.92-.316-.748.225-1.466-.413-2.299-.19-1.83.489-1.928 2.832-1.343 3.518.125.147-1.091-.78-2.196.842-.518 1.033-.046 2.111.143 2.514-.435-.043-1.613-.643-2.54.327-.928.971-.532 2.3-.304 3-.39-.279-1.488-.796-2.373-.089-1.143.913-1.071 1.914-.627 3.303-1.681-.934-3.669-2.477-2.745-6.518 1.338-5.86 6.569-6.955 7.373-8.096.644-.912.02-1.585-.372-1.808m4.752 83.681-3.692-1.096 2.137 2.745.019 1.38 7.818 3.644.63-.716 1.475-.215.169-.578c-1.693.32-.566-.695-1.613-1.228-.654-.333-1.217-.932-1.55-1.738-.732-1.771 1.044-3.266 1.938-3.21.192.012-1.277-.407-.679-2.279.493-1.042 1.625-1.313 2.056-1.405-.298-.324-1.486-.911-1.291-2.245s1.477-1.82 2.165-2.058c-.457-.146-1.531-.718-1.517-1.859.02-1.473.847-2.021 2.206-2.503-1.756-.791-4.252-1.532-6.78 1.729-3.417 4.407-1.445 9.5-1.847 10.838-.323 1.071-1.23.975-1.644.794" fill="#4C3ABD"/><path d="m38.694 217.872-3.657-1.859 3.133-.374 1.26-1.43 8.57 2.737-.366 1.143.928.87-.133.416c-.352-.169-.596-.649-1.944.094-.683.377-1.52-.095-2.287.297-1.687.863-1.29 3.174-.574 3.722.154.117-1.23-.534-1.97 1.284-.29 1.119.398 2.073.667 2.428-.434.049-1.712-.29-2.415.854s-.037 2.36.334 2.996c-.44-.191-1.623-.466-2.34.411-.925 1.133-.645 2.096.081 3.362-1.84-.561-4.107-1.652-4.053-5.797.079-6.011 4.963-8.18 5.51-9.464.438-1.027-.313-1.554-.743-1.69" fill="#4C3ABD"/><path d="m39.205 159.655-2.893-.796 2.544-.936.581-.905 6.672.811.122.732.887.751-.126.451c-.989-.909-.66.227-1.573.148-.57-.049-1.188.115-1.74.511-1.215.87-.656 2.59-.042 2.921.133.071-1.011-.256-1.387 1.228-.103.893.534 1.538.781 1.776-.33.092-1.358-.009-1.78.954-.42.962.229 1.812.585 2.253-.362-.092-1.308-.156-1.768.605-.595.982-.273 1.685.428 2.564-1.488-.201-3.444-.739-3.773-3.937-.445-4.322 2.958-6.878 3.243-7.929.227-.841-.412-1.152-.76-1.202" fill="#897CDB"/><path d="m40.478 154.647-3.184-.277 1.918 1.538.244 1.465 6.795 1.719.23-.906.97-.193.084-.33c-.302-.034-.661.183-1.246-.863-.297-.531-1.045-.563-1.39-1.139-.761-1.265.453-2.63 1.152-2.698.15-.014-1.034-.154-.774-1.661.27-.859 1.117-1.207 1.442-1.331-.267-.211-1.252-.513-1.246-1.559s.948-1.577 1.455-1.845c-.37-.055-1.265-.36-1.378-1.235-.145-1.13.437-1.653 1.438-2.19-1.448-.388-3.397-.6-5.068 2.164-2.424 4.008-.087 7.454-.254 8.529-.134.86-.848.899-1.188.812" fill="#897CDB"/><path d="m48.816 249.993 2.038-2.203-.34 2.689.536.932-3.79 5.551-.707-.228-1.074.442-.343-.32c1.262-.459.103-.691.593-1.464.305-.483.444-1.109.347-1.781-.214-1.478-1.998-1.774-2.575-1.381-.124.085.693-.78-.451-1.796-.745-.503-1.612-.234-1.937-.124.07-.336.634-1.202-.028-2.018-.66-.817-1.713-.632-2.269-.518.248-.28.74-1.09.277-1.849-.599-.98-1.371-1.018-2.474-.8.863-1.228 2.24-2.717 5.231-1.538 4.043 1.594 4.746 5.791 5.549 6.528.641.589 1.212.164 1.417-.122" fill="#4C3ABD"/><path d="m52.676 253.427 1.71-2.7-2.247.995-1.414-.457-4.652 5.242.7.62-.276.952.254.226c.169-.253.142-.672 1.34-.71.608-.019.98-.668 1.65-.71 1.474-.093 2.127 1.613 1.866 2.265-.056.14.612-.847 1.83.077.64.634.559 1.547.519 1.892.31-.139 1.032-.875 1.958-.388.925.486.963 1.567.968 2.14.219-.303.902-.958 1.73-.655 1.071.391 1.267 1.148 1.284 2.285 1.01-1.107 2.095-2.74.41-5.496-2.443-3.997-6.578-3.508-7.456-4.15-.702-.514-.408-1.166-.174-1.428m-19.647-70.361-2.255.62 1.982.729.453.705 5.2-.632.094-.571.691-.584-.098-.352c-.77.708-.515-.177-1.225-.115a2.04 2.04 0 0 1-1.357-.399c-.946-.678-.51-2.018-.032-2.276.103-.055-.788.2-1.081-.957-.08-.695.416-1.198.609-1.384-.258-.071-1.059.008-1.387-.743-.328-.75.178-1.412.455-1.755-.282.071-1.02.121-1.378-.472-.463-.765-.212-1.313.334-1.998-1.16.157-2.683.576-2.94 3.068-.346 3.368 2.305 5.36 2.527 6.179.177.655-.321.897-.593.937" fill="#4C3ABD"/><path d="m34.02 186.968-2.481.215 1.494-1.198.191-1.142 5.295-1.339.178.706.757.151.065.256c-.235.027-.515-.142-.971.673-.231.414-.814.439-1.083.887-.593.986.353 2.05.898 2.103.117.011-.806.12-.603 1.294.21.67.87.941 1.123 1.037-.208.165-.975.4-.97 1.215.004.815.738 1.229 1.133 1.437-.288.043-.986.281-1.074.963-.113.881.34 1.288 1.121 1.707-1.128.302-2.647.467-3.95-1.687-1.888-3.123-.067-5.808-.197-6.646-.104-.67-.66-.701-.926-.632" fill="#4C3ABD"/><path d="m74.875 253.726.497-2.285-1.565 1.418-.835.074-1.853 4.898.462.35.197.883.357.076c-.27-1.011.395-.374.67-1.032a2.04 2.04 0 0 1 .983-1.017c1.04-.524 2.025.484 2.031 1.028.002.117.19-.791 1.35-.514.653.252.868.925.943 1.182.183-.196.485-.942 1.302-.884.816.058 1.168.813 1.343 1.218.068-.283.366-.96 1.058-1.002.892-.055 1.261.421 1.615 1.222.399-1.099.735-2.644-1.354-4.027-2.823-1.87-5.817-.445-6.646-.629-.663-.147-.646-.701-.555-.959" fill="#897CDB"/><path d="m70.959 252.794.96-2.298.368 1.88.923.698-1.27 5.312-.709-.169-.484.6-.258-.061c.086-.221.366-.391-.145-1.173-.26-.397-.01-.924-.283-1.371-.599-.983-1.98-.638-2.28-.18-.064.099.268-.769-.866-1.135-.69-.125-1.238.335-1.44.514-.05-.26.098-1.05-.626-1.423-.725-.374-1.431.084-1.8.337.096-.275.21-1.004-.354-1.398-.728-.509-1.299-.296-2.032.201.256-1.14.815-2.562 3.327-2.716 3.643-.224 5.177 2.635 5.979 2.908.642.219.927-.26.99-.526" fill="#897CDB"/><path d="m142.526 263.627-.228-3.844-1.852 2.944-1.291.488-.762 8.592.887.349.706 1.313.601-.038c-.878-1.483.46-.769.604-1.935.091-.728.462-1.461 1.106-2.049 1.416-1.292 3.426-.132 3.678.727.054.185-.052-1.338 1.911-1.414 1.148.108 1.789 1.08 2.022 1.454.203-.391.35-1.708 1.671-1.979s2.214.769 2.672 1.334c-.018-.479.154-1.684 1.232-2.059 1.391-.484 2.188.107 3.105 1.221.144-1.921-.01-4.52-3.936-5.786-5.308-1.71-9.424 1.88-10.82 1.957-1.116.062-1.336-.824-1.306-1.275" fill="#4C3ABD"/><path d="m135.9 263.889.502-4.071 1.419 2.818 1.774.698.347 8.988-1.199.046-.502 1.168-.436.017c.038-.388.407-.782-.751-1.795-.588-.514-.428-1.461-1.059-2.049-1.386-1.292-3.423-.132-3.694.728-.059.185.082-1.339-1.879-1.414-1.151.108-1.814 1.08-2.055 1.454-.195-.391-.311-1.708-1.626-1.979s-2.231.769-2.703 1.334c.03-.479-.115-1.684-1.184-2.059-1.38-.484-2.191.108-3.133 1.222-.1-1.921.154-4.424 4.069-5.786 5.677-1.975 9.381 1.878 10.775 1.955 1.114.062 1.354-.824 1.335-1.275m35.584-8.354.574-2.159-1.556 1.285-.799.034-1.983 4.593.425.353.15.852.338.088c-.214-.977.393-.34.685-.956.182-.384.52-.72.981-.927 1.015-.454 1.911.551 1.893 1.07-.004.111.215-.747 1.31-.431.613.268.789.92.849 1.168.183-.178.503-.877 1.28-.786s1.079.827 1.229 1.221c.077-.267.391-.899 1.053-.91.854-.013 1.185.457 1.487 1.237.429-1.031.818-2.49-1.115-3.902-2.611-1.907-5.531-.679-6.314-.89-.626-.17-.585-.697-.487-.94" fill="#4C3ABD"/><path d="m167.788 254.474 1.017-2.151.268 1.81.851.707-1.445 5.013-.668-.193-.489.552-.243-.07c.091-.207.366-.356-.088-1.125-.23-.39.031-.883-.21-1.321-.528-.964-1.861-.695-2.167-.271-.065.091.289-.722-.777-1.121-.653-.149-1.195.265-1.396.427-.036-.25.139-.997-.536-1.385-.674-.389-1.368.018-1.731.243.103-.259.243-.949-.277-1.349-.672-.518-1.226-.34-1.948.102.295-1.076.89-2.408 3.294-2.446 3.485-.054 4.824 2.741 5.577 3.037.603.237.896-.207.968-.459M105 257.115l-.574-2.158 1.556 1.284.8.034 1.982 4.593-.425.353-.149.852-.338.088c.213-.976-.394-.339-.685-.955a1.95 1.95 0 0 0-.982-.928c-1.015-.454-1.911.551-1.893 1.07.004.112-.215-.747-1.31-.431-.612.268-.788.92-.848 1.169-.184-.179-.504-.877-1.281-.787-.777.091-1.079.827-1.229 1.221-.077-.267-.39-.899-1.052-.91-.855-.013-1.186.457-1.488 1.238-.429-1.032-.817-2.491 1.115-3.902 2.612-1.908 5.532-.68 6.314-.891.626-.169.586-.697.487-.94" fill="#4C3ABD"/><path d="m108.697 256.054-1.017-2.15-.269 1.81-.85.707 1.444 5.012.669-.193.489.553.243-.07c-.092-.207-.366-.357.087-1.126.23-.39-.03-.882.21-1.321.528-.963 1.861-.695 2.167-.271.066.091-.289-.722.777-1.12.654-.15 1.196.265 1.397.427.036-.251-.14-.998.535-1.386.674-.389 1.369.018 1.731.243-.103-.258-.243-.948.278-1.349.672-.518 1.226-.339 1.947.103-.294-1.076-.889-2.409-3.293-2.446-3.486-.055-4.824 2.74-5.578 3.036-.602.237-.896-.207-.967-.459" fill="#4C3ABD"/></g></svg>