<svg fill="none" xmlns="http://www.w3.org/2000/svg" width="300" height="300" viewBox="0 0 300 300"><g transform="translate(10 15)"><path d="M188.708 263.649C188.708 271.25 170 276 140.954 276c-21.662 0-47.754-3.8-47.754-11.401s6.955-24.227 45.292-24.227 50.216 15.676 50.216 23.277" fill="#8859C2"/><path d="M170.962 250.348c0 .013 0 .15-.253.429-.261.289-.718.64-1.431 1.022-1.423.761-3.581 1.492-6.376 2.124-5.564 1.259-13.325 2.05-21.948 2.05s-16.384-.791-21.949-2.05c-2.794-.632-4.952-1.363-6.376-2.124-.712-.382-1.169-.733-1.43-1.022-.253-.279-.253-.416-.253-.429s0-.151.253-.43c.261-.289.718-.64 1.43-1.021 1.424-.761 3.582-1.493 6.376-2.125 5.565-1.258 13.325-2.05 21.949-2.05 8.623 0 16.384.792 21.948 2.05 2.795.632 4.953 1.364 6.376 2.125.713.381 1.17.732 1.431 1.021.253.279.253.416.253.43Z" fill="#8859C2" stroke="#AA80F9" stroke-width="3"/><path d="M170.962 243.697c0 .013 0 .151-.253.43-.261.289-.718.64-1.431 1.021-1.423.761-3.581 1.493-6.376 2.125-5.564 1.258-13.325 2.05-21.948 2.05s-16.384-.792-21.949-2.05c-2.794-.632-4.952-1.364-6.376-2.125-.712-.381-1.169-.732-1.43-1.021-.253-.279-.253-.417-.253-.43s0-.151.253-.43c.261-.289.718-.64 1.43-1.021 1.424-.761 3.582-1.493 6.376-2.124 5.565-1.259 13.325-2.051 21.949-2.051 8.623 0 16.384.792 21.948 2.051 2.795.631 4.953 1.363 6.376 2.124.713.381 1.17.732 1.431 1.021.253.279.253.417.253.43Z" fill="#8859C2" stroke="#AA80F9" stroke-width="3"/><path d="M170.962 237.046v.001c0 .013 0 .15-.253.429-.261.289-.718.64-1.431 1.021-1.423.761-3.581 1.493-6.376 2.125-5.564 1.258-13.325 2.05-21.948 2.05s-16.384-.792-21.949-2.05c-2.794-.632-4.952-1.364-6.376-2.125-.712-.381-1.169-.732-1.43-1.021-.253-.279-.253-.416-.253-.429v-.001c0-.013 0-.15.253-.429.261-.289.718-.64 1.43-1.021 1.424-.761 3.582-1.493 6.376-2.125 5.565-1.258 13.325-2.05 21.949-2.05 8.623 0 16.384.792 21.948 2.05 2.795.632 4.953 1.364 6.376 2.125.713.381 1.17.732 1.431 1.021.253.279.253.416.253.429Z" fill="#8859C2" stroke="#AA80F9" stroke-width="3"/><path d="M10.995 100.339C3.465 45.389 39.626-.762 87.475.009s65.499 17.751 65.499 17.751c11.636 75.119 25.038 230.401-9.163 231.636-42.75 1.543-55.665-37.879-63.51-47.14s-59.893-33.229-69.306-101.917" fill="url(#a)"/><path d="M265.003 100.34C272.549 45.39 236.311-.762 188.36.01c-47.95.771-65.637 17.75-65.637 17.75-11.66 75.12-18.011 230.403 16.262 231.638 42.841 1.543 54.616-39.038 62.477-48.299s54.108-32.071 63.541-100.759" fill="url(#b)"/><path d="M137 229.921h8.8" stroke="#000" stroke-width="2" stroke-linecap="round"/><path d="M163.017 191.453c6.683-7.358 18.054-13.719 23.871-14.751 4.847-.861 8.998-1.051 10.23 4.167 1.541 6.522-6.927 23.505-19.219 27.575s-29.547-.846-14.882-16.991m-43.701 0c-6.683-7.358-18.054-13.719-23.87-14.751-4.848-.861-8.999-1.051-10.231 4.167-1.54 6.522 6.927 23.505 19.219 27.575s29.548-.846 14.882-16.991" fill="#000"/><ellipse cx="143.908" cy="211.394" rx=".985" ry="7.126" fill="#000"/><ellipse cx="138" cy="211.394" rx=".985" ry="7.126" fill="#000"/><path d="M138 175.5c44.366 0 80.5-34.606 80.5-77.5S182.366 20.5 138 20.5 57.5 55.106 57.5 98s36.134 77.5 80.5 77.5Z" fill="#fff" stroke="#B8E33D" stroke-width="5"/><circle cx="175" cy="191" r="4" fill="#fff"/><circle cx="106" cy="191" r="4" fill="#fff"/><defs><linearGradient id="a" x1="138" y1="0" x2="141" y2="375" gradientUnits="userSpaceOnUse"><stop offset=".293" stop-color="#D6FF62"/><stop offset="1" stop-color="#B9E242"/></linearGradient><linearGradient id="b" x1="138" y1="0" x2="141" y2="375" gradientUnits="userSpaceOnUse"><stop offset=".293" stop-color="#D6FF62"/><stop offset="1" stop-color="#B9E242"/></linearGradient></defs></g></svg>