<svg fill="none" xmlns="http://www.w3.org/2000/svg" width="300" height="300" viewBox="0 0 300 300"><g transform="translate(10 5)"><circle cx="137.615" cy="155.05" r="108.486" stroke="#000" stroke-width="23.499"/><path d="M208.298 63.768c-4.984 9.005-11.259 1.352-20.701-3.873s-18.474-6.045-13.49-15.05c4.983-9.004 16.677-12.068 26.119-6.842 9.441 5.225 13.055 16.76 8.072 25.765" fill="#000"/><path d="M216.336 22.674c-2.742-1.175-9.008-1.567-12.141 3.329-4.034 6.302 1.175 11.553-10.575 16.645" stroke="#000" stroke-width="7.833"/><path d="M198.712 7.008 209.669 18l-.835 9.697 8.194-3.075 12.062 8.171-5.011-13.465 8.706-5.115-11.803-3.208L218.761.932l-5.119 7.556z" fill="#FFC444"/><path d="m202.243 18 8.635 4.2 5.51 10.894 5.741-10.876 8.348-.018-4.644-7.987L232.785 4l-15.087 4.598L210.401 4l-.294 9.979z" fill="#FFC444"/><path d="m205.806 10.571 6.311 6.33-.481 5.585 4.719-1.77 6.947 4.705-2.887-7.755 5.014-2.946-6.797-1.847-1.279-5.801-2.948 4.351z" fill="#F36F56"/><path d="m207.84 16.902 4.973 2.418 3.173 6.275 3.307-6.264 4.807-.01-2.674-4.6 4.003-5.882-8.689 2.648-4.202-2.648-.169 5.747z" fill="#F36F56"/></g></svg>