<svg fill="none" xmlns="http://www.w3.org/2000/svg" width="300" height="300" viewBox="0 0 300 300"><g transform="translate(12 12)"><ellipse cx="63.759" cy="228.759" rx="5.577" ry="24.336" fill="#E5F0FF"/><circle cx="63.759" cy="258.672" r="7.605" fill="#8859C2"/><ellipse rx="5.577" ry="24.336" transform="scale(-1 1)rotate(45.815 -319.251 -194.308)" fill="#E5F0FF"/><circle r="7.605" transform="scale(-1 1)rotate(45.815 -354.646 -209.265)" fill="#8859C2"/><ellipse rx="5.577" ry="24.336" transform="scale(-1 1)rotate(23.857 -618.846 -279.667)" fill="#E5F0FF"/><circle r="7.605" transform="scale(-1 1)rotate(23.857 -689.645 -294.622)" fill="#8859C2"/><path d="M252.238 124.063c15.044 28.242-29.164 87.411-85.651 106.833-69.75 23.983-147.18-.982-151.627-25.713-4.447-24.73 42.374-53.403 107.778-75.892 65.405-22.488 121.542-20.169 129.5-5.228" fill="#7A6FF7"/><path d="M248.309 116.203c15.043 28.243-34.568 85.309-88.599 103.887-62.873 21.618-145.177-3.289-148.68-22.766-3.502-19.477 42.374-53.404 107.779-75.892 65.404-22.489 123.351-16.773 129.5-5.229" fill="#AA80F9"/><path d="M23.92 94.836c0-49.102 39.805-88.907 88.907-88.907s88.906 39.805 88.906 88.907-39.805 88.906-88.906 88.906-88.906-39.805-88.906-88.906Z" fill="#fff" stroke="#E5F0FF" stroke-width="7.859"/><circle cx="221.944" cy="127.833" r="3.549" fill="#FFC444"/><circle cx="208.541" cy="160.06" r="3.549" fill="#FFC444"/><circle cx="177.075" cy="190.196" r="3.549" fill="#FFC444"/><circle cx="130.684" cy="205.374" r="3.549" fill="#FFC444"/><circle cx="84.166" cy="204.518" r="3.549" fill="#FFC444"/><circle cx="43.605" cy="190.607" r="3.549" fill="#FFC444"/></g></svg>