<svg xmlns="http://www.w3.org/2000/svg" viewBox="0 0 1500 1500" width="300" height="300" fill="none"><defs><style>.cls-5wed1{fill:#6d6875}.cls-5wed3{fill:#ffb4a2}.cls-5wed4{fill:#e5989b}</style></defs><path d="M355.92 376.93c2.82.07 5.96.14 9.38.21.07-3.26.13-6.53.2-9.79zm889.98-9.58c.02 6.24.07 12.48.1 18.72 6.2 0 12.41 0 18.61-.01l-18.7-18.7Zm-875.39 908.7c-.08-4.92-.17-9.84-.26-14.75-4.78.05-9.56.1-14.34.16l14.6 14.6Zm902.39-787.16h-16.54c-5.42 0-9.8 4.42-9.75 9.84 1.4 152.96 4.51 305.59 8.39 458.47.13 5.24 4.38 9.43 9.62 9.5 5.34.07 9.74-4.16 9.87-9.5 3.85-152.74 6.83-305.76 8.17-458.48.05-5.42-4.33-9.83-9.75-9.83Zm-124.91 787.21a4.817 4.817 0 0 0-4.69-4.76c-230.67-6.49-460.01-11.64-690.46-10.65a4.82 4.82 0 0 0-4.8 4.99l.74 21.08a4.833 4.833 0 0 0 4.8 4.66c229.59.99 460.49-3.81 689.73-10.44a4.826 4.826 0 0 0 4.68-4.88M361.21 708.11c.02-41.81.29-83.88.73-126.02.04-3.32-2.62-6.03-5.93-6.08a6.017 6.017 0 0 0-6.09 6.08c.24 23.16.42 46.26.52 69.23 1.67 160.62-2.53 321.24-6.16 481.82-.08 3.37 2.64 6.15 6.01 6.15h11.28c3.38 0 6.09-2.78 6.01-6.15-3.28-141.66-7.13-283.33-6.38-425.03Zm394.87-340.62c.08 8.98 7.33 16.26 16.31 16.35 114.11 1.22 228.24 1.98 342.33 2.18 9.36.02 16.86-7.76 16.51-17.11l-.16-4.36c-.33-8.87-7.63-15.89-16.5-15.88-114.04.18-228.11.95-342.17 2.18-9.09.1-16.39 7.54-16.31 16.63Z" style="fill:#ffcdb2"/><path d="M278.83 331.55c-5.69 0-11.06-1.05-16.12-3.14-5.06-2.1-9.14-5.29-12.25-9.59s-4.66-9.67-4.66-16.12q0-8.385 3.24-13.05c2.16-3.11 4.82-5.32 7.98-6.61s6.16-1.93 9.01-1.93c-2.84 3.12-5 6.55-6.48 10.31s-2.21 7.52-2.21 11.28c0 3.98.87 7.68 2.61 11.12s4.4 6.2 7.98 8.3 8.11 3.14 13.59 3.14c4.74 0 9.37-.89 13.9-2.66s8.24-4.41 11.14-7.9 4.34-7.82 4.34-12.97c0-4.62-1.16-8.59-3.48-11.93-2.32-3.33-5.29-6.29-8.93-8.86q-5.445-3.87-11.61-7.41c-4.11-2.36-7.98-4.86-11.61-7.49s-6.61-5.67-8.93-9.11-3.48-7.57-3.48-12.41c0-4.51 1.05-9.24 3.16-14.18s5.14-9.61 9.08-14.02c3.95-4.4 8.69-7.98 14.22-10.72s11.72-4.11 18.56-4.11q9.315 0 12.96 4.59 3.63 4.59 3.63 11.52c0 3.87-.66 8.03-1.97 12.49-1.32 4.46-2.92 8.7-4.82 12.73q-2.85 6.045-5.37 10.23c-1.9-.43-3.24-1.26-4.03-2.5-.79-1.23-1.19-2.71-1.19-4.43 0-2.26.47-4.83 1.42-7.74q1.425-4.35 3.24-9.03c1.21-3.11 2.29-6.15 3.24-9.11.95-2.95 1.42-5.61 1.42-7.98 0-2.15-.63-3.84-1.9-5.08-1.26-1.23-3.58-1.85-6.95-1.85-4.95 0-9.53 1.18-13.75 3.55-4.21 2.36-7.9 5.4-11.06 9.11s-5.61 7.6-7.35 11.68-2.61 7.79-2.61 11.12c0 3.98 1.13 7.39 3.4 10.23 2.26 2.85 5.19 5.43 8.77 7.74q5.37 3.465 11.46 6.93a96 96 0 0 1 11.46 7.66c3.58 2.8 6.5 6.1 8.77 9.91 2.26 3.81 3.4 8.46 3.4 13.94s-1.21 10.5-3.63 14.75-5.66 7.82-9.72 10.72-8.51 5.1-13.35 6.61c-4.85 1.5-9.69 2.26-14.54 2.26Zm56.09-6.44c-3.27 0-6.03-1.1-8.29-3.3s-3.4-5.56-3.4-10.07c0-3.87.84-8.03 2.53-12.49 1.68-4.46 4-8.86 6.95-13.22 2.95-4.35 6.29-8.32 10.03-11.93 3.74-3.6 7.69-6.47 11.85-8.62s8.29-3.22 12.4-3.22 7.53 1.1 10.27 3.3 4.11 5.13 4.11 8.78c0 2.69-.71 4.51-2.13 5.48s-3.29 1.45-5.61 1.45c.21-.86.4-1.8.55-2.82q.24-1.53.24-2.82c0-2.47-.58-4.59-1.74-6.37-1.16-1.77-3.16-2.66-6-2.66s-5.95 1.05-9.01 3.14c-3.06 2.1-6 4.89-8.85 8.38a73 73 0 0 0-7.58 11.36c-2.21 4.08-3.95 8.11-5.21 12.09s-1.9 7.52-1.9 10.64c0 4.19 1.42 6.29 4.27 6.29 2.42 0 5.06-1.15 7.9-3.46s5.77-5.26 8.77-8.86 5.87-7.33 8.61-11.2 5.16-7.41 7.27-10.64c.42-.64.68-.97.79-.97.63.11 1.45.32 2.45.64q1.5.48 2.61 1.29t1.11 2.1c0 .97-.47 2.28-1.42 3.95s-2 3.57-3.16 5.72a83 83 0 0 0-3.16 6.53c-.95 2.2-1.42 4.27-1.42 6.2 0 1.61.42 3.2 1.26 4.75q1.26 2.34 4.11 2.34c2.84 0 6.58-2.12 11.22-6.37 4.63-4.24 9.32-10.61 14.06-19.1l1.58 1.61c-2.21 5.8-5.06 10.91-8.53 15.31-3.48 4.41-7.19 7.84-11.14 10.31s-7.82 3.71-11.61 3.71-6.77-1.18-8.61-3.55c-1.84-2.36-2.77-4.94-2.77-7.74 0-.64.05-1.37.16-2.18.1-.81.21-1.64.32-2.5-4.53 6.23-8.67 10.91-12.4 14.02-3.74 3.11-7.56 4.67-11.46 4.67Z" class="cls-5wed1"/><path d="M402.38 323.82c-3.27 0-5.53-1.64-6.79-4.92s-1.9-7.55-1.9-12.81c0-.21.05-1.91.16-5.08.1-3.17.37-8.51.79-16.04.21-2.9.53-4.89.95-5.96s1.79-1.61 4.11-1.61c1.79 0 2.92.35 3.4 1.05.47.7.71 2.07.71 4.11 0 3.55-.24 7.71-.71 12.49s-.71 9.27-.71 13.46c0 3.12.26 5.4.79 6.85s1.47 2.18 2.84 2.18c1.9 0 4-1.1 6.32-3.3q3.48-3.3 7.11-8.7t6.87-11.52c2.16-4.08 4.08-8 5.77-11.76.21-7.31.97-12.17 2.29-14.58 1.32-2.42 2.97-3.63 4.98-3.63s3.45.73 4.34 2.18 1.34 2.77 1.34 3.95c0 1.4-.45 2.85-1.34 4.35-.9 1.51-1.82 3.55-2.77 6.12-.95 2.58-1.42 6.29-1.42 11.12 0 1.72.16 3.55.47 5.48s1 3.55 2.05 4.83c1.05 1.29 2.69 1.93 4.9 1.93s4.34-.89 6.4-2.66c2.05-1.77 4.08-4.86 6.08-9.27l2.05 1.61c-2.32 5.37-4.87 8.97-7.66 10.8s-5.45 2.74-7.98 2.74c-3.48 0-6.37-1.29-8.69-3.87s-3.85-6.5-4.58-11.76a108.4 108.4 0 0 1-8.93 15.23c-3.42 4.89-6.98 8.94-10.67 12.17q-5.535 4.83-10.59 4.83Z" class="cls-5wed1"/><path d="M469.37 324.62q-9.645 0-14.46-5.4c-3.21-3.6-4.82-8.03-4.82-13.3 0-4.83 1.19-9.94 3.55-15.31q3.555-8.055 9.48-15.15c5.925-7.095 8.29-8.57 13.03-11.52s9.43-4.43 14.06-4.43c2.42 0 4.66.64 6.71 1.93s3.08 3.92 3.08 7.9-1.19 7.92-3.55 11.52c-2.37 3.6-5.48 6.8-9.32 9.59-3.85 2.8-8.06 5.08-12.64 6.85s-9.14 2.88-13.67 3.3c-.21 1.08-.37 2.1-.47 3.06-.11.97-.16 1.88-.16 2.74 0 1.61.18 3.22.55 4.83s1.03 3.09 1.98 4.43 2.24 2.39 3.87 3.14 3.66 1.13 6.08 1.13c4.53 0 9.01-1.32 13.43-3.95s8.53-6.1 12.32-10.39c3.79-4.3 7-9.03 9.64-14.18l1.9 1.45c-2.84 6.45-6.45 12.03-10.82 16.76q-6.555 7.095-14.22 11.04c-5.11 2.63-10.3 3.95-15.56 3.95Zm-7.74-27.07c2.84-.97 6.06-2.39 9.64-4.27q5.37-2.82 10.35-6.69c3.32-2.58 6.06-5.42 8.22-8.54 2.16-3.11 3.24-6.39 3.24-9.83 0-1.18-.21-2.1-.63-2.74s-1.32-.97-2.69-.97c-2.53 0-5.21.99-8.06 2.98-2.84 1.99-5.58 4.59-8.22 7.82-2.63 3.22-5 6.77-7.11 10.64s-3.69 7.74-4.74 11.6m-23.78 223.42c-3.27 0-6.37-.46-9.32-1.37s-5.48-2.88-7.58-5.88q1.575-7.74 3.87-16.68c1.53-5.96 3.18-12.09 4.98-18.37 1.79-6.29 3.61-12.46 5.45-18.53a1201 1201 0 0 1 5.29-17c1.68-5.26 3.21-9.88 4.58-13.86 1.37-3.97 2.42-6.98 3.16-9.02.32-.86.84-2.12 1.58-3.79.74-1.66 1.63-3.36 2.69-5.08 1.05-1.72 2.26-3.2 3.63-4.43s2.84-1.85 4.42-1.85c1.47 0 2.95.54 4.42 1.61-3.27 7.74-6.56 16.28-9.88 25.62-3.32 9.35-6.51 18.99-9.56 28.93-3.06 9.94-5.85 19.64-8.37 29.09-2.53 9.46-4.64 18.05-6.32 25.79 1.47.21 2.71.38 3.71.48 1 .11 2.03.16 3.08.16 6.74 0 13.24-1.59 19.51-4.75 6.27-3.17 12.11-7.52 17.54-13.05 5.42-5.53 10.19-11.87 14.3-19.02 4.11-7.14 7.29-14.72 9.56-22.72 2.26-8 3.4-15.98 3.4-23.93q0-13.05-4.11-21.51c-2.74-5.64-6.53-9.8-11.38-12.49-4.85-2.68-10.48-4.03-16.91-4.03-6.85 0-13.01 1.4-18.49 4.19-5.48 2.8-9.8 6.55-12.96 11.28s-4.74 10.05-4.74 15.95c0 1.29.08 2.42.24 3.38.16.97.34 1.83.55 2.58-3.48 0-5.93-.89-7.35-2.66s-2.13-3.89-2.13-6.37c0-3.76 1.29-7.55 3.87-11.36q3.87-5.715 10.74-10.56c6.87-4.845 9.88-5.83 15.88-7.82s12.38-2.98 19.12-2.98q14.22 0 22.83 5.88c5.74 3.92 9.93 9.21 12.56 15.87s3.95 14.13 3.95 22.4c0 9.35-1.42 18.29-4.27 26.83-2.84 8.54-6.77 16.39-11.77 23.53-5 7.15-10.72 13.38-17.14 18.69-6.43 5.32-13.3 9.45-20.62 12.41-7.32 2.95-14.67 4.43-22.04 4.43Zm79.32-6.45c-3.27 0-6.03-1.1-8.29-3.3s-3.4-5.56-3.4-10.07c0-3.87.84-8.03 2.53-12.49 1.68-4.46 4-8.86 6.95-13.22 2.95-4.35 6.29-8.32 10.03-11.93 3.74-3.6 7.69-6.47 11.85-8.62s8.29-3.22 12.4-3.22 7.53 1.1 10.27 3.3 4.11 5.13 4.11 8.78c0 2.69-.71 4.51-2.13 5.48s-3.29 1.45-5.61 1.45c.21-.86.4-1.8.55-2.82q.24-1.53.24-2.82c0-2.47-.58-4.59-1.74-6.37-1.16-1.77-3.16-2.66-6-2.66s-5.95 1.05-9.01 3.14-6 4.89-8.85 8.38a73 73 0 0 0-7.58 11.36c-2.21 4.08-3.95 8.11-5.21 12.09s-1.9 7.52-1.9 10.64c0 4.19 1.42 6.29 4.27 6.29 2.42 0 5.06-1.15 7.9-3.46s5.77-5.26 8.77-8.86 5.87-7.33 8.61-11.2 5.16-7.41 7.27-10.64c.42-.64.68-.97.79-.97.63.11 1.45.32 2.45.64q1.5.48 2.61 1.29t1.11 2.1c0 .97-.47 2.28-1.42 3.95s-2 3.57-3.16 5.72a83 83 0 0 0-3.16 6.53c-.95 2.2-1.42 4.27-1.42 6.2 0 1.61.42 3.2 1.26 4.75q1.26 2.34 4.11 2.34c2.84 0 6.58-2.12 11.22-6.37 4.63-4.24 9.32-10.61 14.06-19.1l1.58 1.61c-2.21 5.8-5.06 10.91-8.53 15.31-3.48 4.41-7.19 7.84-11.14 10.31s-7.82 3.71-11.61 3.71-6.77-1.18-8.61-3.55c-1.84-2.36-2.77-4.94-2.77-7.74 0-.64.05-1.37.16-2.18.1-.81.21-1.64.32-2.5-4.53 6.23-8.67 10.91-12.4 14.02-3.74 3.11-7.56 4.67-11.46 4.67Z" class="cls-5wed1"/><path d="M587.79 514.36c-4.53 0-8.01-1.34-10.43-4.03s-3.63-6.66-3.63-11.93q0-7.095 2.61-17.49c1.74-6.93 3.92-14.05 6.56-21.35-1.05-.21-2.05-.4-3-.56s-1.84-.4-2.69-.73v-2.9c.84.11 1.84.22 3 .32 1.16.11 2.47.22 3.95.32 2.21-5.8 4.58-11.41 7.11-16.84 2.53-5.42 5.03-10.26 7.51-14.5 2.47-4.24 4.84-7.63 7.11-10.15 2.26-2.52 4.19-3.79 5.77-3.79.84 0 1.6.3 2.29.89.68.59 1.03 1.48 1.03 2.66 0 1.83-1.11 4.81-3.32 8.94-2.21 4.14-4.95 9.05-8.22 14.75s-6.43 11.87-9.48 18.53h5.85c3.48 0 7.13-.05 10.98-.16q5.76-.165 11.61-.81v2.9c-5.79.64-10.98 1.13-15.56 1.45s-8.67.48-12.25.48h-2.37c-2.42 5.7-4.48 11.55-6.16 17.57-1.69 6.02-2.53 11.87-2.53 17.57 0 4.62.68 7.92 2.05 9.91s3.63 2.98 6.79 2.98c5.48 0 10.85-2.47 16.12-7.41s9.9-11.66 13.9-20.15l2.05 1.61c-2.53 6.02-5.72 11.44-9.56 16.28-3.85 4.83-8.08 8.65-12.72 11.44s-9.43 4.19-14.38 4.19Z" class="cls-5wed1"/><path d="M632.35 514.04q-9.645 0-14.46-5.4c-3.21-3.6-4.82-8.03-4.82-13.3 0-4.83 1.19-9.94 3.55-15.31q3.555-8.055 9.48-15.15c5.925-7.095 8.29-8.57 13.03-11.52s9.43-4.43 14.06-4.43c2.42 0 4.66.64 6.71 1.93s3.08 3.92 3.08 7.9-1.19 7.92-3.55 11.52c-2.37 3.6-5.48 6.8-9.32 9.59-3.85 2.8-8.06 5.08-12.64 6.85s-9.14 2.88-13.67 3.3c-.21 1.08-.37 2.1-.47 3.06-.11.97-.16 1.88-.16 2.74 0 1.61.18 3.22.55 4.83s1.03 3.09 1.98 4.43 2.24 2.39 3.87 3.14 3.66 1.13 6.08 1.13c4.53 0 9.01-1.32 13.43-3.95s8.53-6.1 12.32-10.39c3.79-4.3 7-9.03 9.64-14.18l1.9 1.45c-2.84 6.45-6.45 12.03-10.82 16.76q-6.555 7.095-14.22 11.04c-5.11 2.63-10.3 3.95-15.56 3.95Zm-7.74-27.07c2.84-.97 6.06-2.39 9.64-4.27q5.37-2.82 10.35-6.69c3.32-2.58 6.06-5.42 8.22-8.54 2.16-3.11 3.24-6.39 3.24-9.83 0-1.18-.21-2.1-.63-2.74s-1.32-.97-2.69-.97c-2.53 0-5.21.99-8.06 2.98-2.84 1.99-5.58 4.59-8.22 7.82-2.63 3.22-5 6.77-7.11 10.64s-3.69 7.74-4.74 11.6m-290.58-79.5c-2.84 0-5.02-.84-6.53-2.52q-2.28-2.52-2.28-7.47c0-2.02.28-4.44.84-7.27s1.32-5.84 2.28-9.04 2-6.31 3.12-9.34c-.66-.13-1.29-.35-1.88-.66-.59-.3-1.16-.56-1.68-.76v-1.82c.53.07 1.15.24 1.88.5.73.27 1.55.44 2.47.5 1.85-4.85 3.81-9.32 5.89-13.43s4.07-7.4 5.99-9.9c1.91-2.49 3.53-3.74 4.85-3.74.53 0 1.01.19 1.44.56s.64.93.64 1.67c0 .67-.26 1.63-.79 2.88s-1.25 2.71-2.18 4.39-1.95 3.53-3.07 5.55-2.31 4.17-3.56 6.46-2.44 4.68-3.56 7.17c1.65.27 3.25.5 4.8.71q2.325.3 4.8.3c1.78 0 3.7-.13 5.74-.4s4.39-.67 7.03-1.21c1.72-4.78 3.65-9.53 5.79-14.24s4.32-9 6.53-12.88c2.21-3.87 4.32-6.97 6.34-9.29 2.01-2.32 3.75-3.48 5.2-3.48 1.19 0 2.03.72 2.52 2.17s.74 2.84.74 4.19c0 2.36-.58 5.13-1.73 8.33-1.16 3.2-2.72 6.5-4.7 9.9a58.4 58.4 0 0 1-6.88 9.49c-2.61 2.93-5.36 5.3-8.27 7.12-1.06 2.56-2 5.52-2.82 8.89a72 72 0 0 0-1.73 9.95c-.33 3.27-.36 5.98-.1 8.13 1.58-4.65 3.37-8.95 5.35-12.93 1.98-3.97 4.21-7.17 6.68-9.59 2.48-2.42 5.16-3.64 8.07-3.64q4.065 0 5.79 2.88c1.15 1.92 1.73 3.99 1.73 6.21 0 2.09-.35 4.11-1.04 6.06s-1.4 3.84-2.13 5.66-1.09 3.57-1.09 5.25c0 1.35.28 2.32.84 2.93s1.27.91 2.13.91q2.28 0 5.1-2.22c1.88-1.48 3.74-3.45 5.59-5.91s3.43-5.13 4.75-8.03l1.29 1.21c-1.39 3.3-3.07 6.28-5.05 8.94s-4.16 4.76-6.53 6.31-4.85 2.32-7.42 2.32c-2.24 0-3.94-.61-5.1-1.82s-1.73-2.73-1.73-4.54c0-1.41.26-2.99.79-4.75.53-1.75 1.04-3.53 1.53-5.35.5-1.82.74-3.53.74-5.15 0-1.75-.36-2.99-1.09-3.74q-1.095-1.11-2.67-1.11c-1.65 0-3.14.67-4.46 2.02s-2.52 3.08-3.61 5.2a84 84 0 0 0-3.07 6.72c-.96 2.36-1.87 4.59-2.72 6.72-.86 2.12-1.72 3.85-2.57 5.2-.86 1.35-1.75 2.02-2.67 2.02q-1.095 0-1.98-1.11c-.59-.74-1.07-1.78-1.44-3.13-.36-1.35-.58-2.91-.64-4.7-.07-1.78.03-3.69.3-5.71-2.51 4.51-5.59 8.21-9.26 11.11-3.66 2.89-7.51 4.34-11.53 4.34Zm2.87-3.74c3.43 0 6.8-1.55 10.1-4.65s6.2-7.3 8.71-12.62q.69-3.33 1.44-6.36c.49-2.02 1.17-4.27 2.03-6.77q-3.36.81-6.39 1.11-3.015.3-5.79.3c-2.775 0-3.6-.12-5.25-.35-1.65-.24-3.3-.49-4.95-.76a89 89 0 0 0-3.86 11.01c-1.06 3.77-1.58 7.44-1.58 11.01q0 4.35 1.29 6.21c.86 1.24 2.28 1.87 4.26 1.87Zm30.19-35.75c2.31-1.88 4.47-4.16 6.48-6.82s3.81-5.39 5.4-8.18c1.58-2.79 2.82-5.39 3.71-7.78s1.34-4.22 1.34-5.5c0-.54-.13-.81-.4-.81q-.69 0-2.67 2.22c-1.32 1.48-2.82 3.53-4.5 6.16s-3.35 5.71-5 9.24-3.1 7.36-4.36 11.46Z" class="cls-5wed1"/><path d="M409.17 407.27c-4.03 0-7.05-1.13-9.06-3.38s-3.02-5.03-3.02-8.33c0-3.03.74-6.23 2.23-9.59 1.49-3.37 3.47-6.53 5.94-9.49s5.2-5.37 8.17-7.22 5.91-2.78 8.81-2.78c1.52 0 2.92.4 4.21 1.21s1.93 2.46 1.93 4.95-.74 4.97-2.23 7.22c-1.48 2.26-3.43 4.26-5.84 6.01a34.7 34.7 0 0 1-7.92 4.29c-2.87 1.11-5.73 1.8-8.56 2.07q-.195 1.005-.3 1.92c-.07.61-.1 1.18-.1 1.72 0 1.01.11 2.02.35 3.03.23 1.01.64 1.94 1.24 2.78.59.84 1.4 1.5 2.43 1.97 1.02.47 2.29.71 3.81.71 2.84 0 5.64-.83 8.42-2.47 2.77-1.65 5.35-3.82 7.72-6.51 2.38-2.69 4.39-5.66 6.04-8.89l1.19.91q-2.67 6.06-6.78 10.5c-4.11 4.44-5.71 5.27-8.91 6.92s-6.45 2.47-9.75 2.47Zm-4.85-16.96c1.78-.61 3.79-1.5 6.04-2.68 2.24-1.18 4.41-2.57 6.48-4.19 2.08-1.62 3.79-3.4 5.15-5.35 1.35-1.95 2.03-4 2.03-6.16 0-.74-.13-1.31-.4-1.72-.26-.4-.83-.61-1.68-.61-1.58 0-3.27.62-5.05 1.87s-3.5 2.88-5.15 4.9a43 43 0 0 0-4.46 6.66c-1.32 2.42-2.31 4.85-2.97 7.27Zm869.33 879.39c1.36 0 2.61-.86 3.01-2.18 6.65-22.03 7.76-45.32 3.2-67.36-3.05-14.78-8.58-29.01-16.42-42.3-.86-1.46-2.77-1.96-4.28-1.13s-2.03 2.68-1.17 4.14c7.51 12.72 12.8 26.34 15.72 40.48 4.35 21.09 3.29 43.38-3.07 64.47-.48 1.61.47 3.29 2.13 3.76.29.08.59.12.88.12" class="cls-5wed1"/><path d="M1260.72 1159.36c.46-.2.98-.76 1.28-2.29 5.42-14.57 12.64-41.06 3.42-66.53-4.37-12.08-13.52-26.9-19.71-25.48-3.15.72-4.69 5.47-8.35 4.98-3.3-.44-4.27-4.61-8.26-5.01-2.24-.23-4.15.87-4.8 1.36-6 4.61 2.82 29.85 5.17 36.38 9.91 27.49 26.25 58.81 31.24 56.6Z" class="cls-5wed4"/><path d="M1261.32 1159.08c-.3.44-.92.85-2.35.78-14.26 2.09-39.52 3.11-59.76-13.03-9.6-7.65-20.43-21.05-17.63-27.24 1.43-3.16 6.02-3.6 6.5-7.59.44-3.61-3.01-5.67-2.37-10 .36-2.43 1.81-4.18 2.41-4.74 5.58-5.2 25.72 10.45 30.91 14.58 21.86 17.37 45.5 42.51 42.29 47.24" class="cls-5wed4"/><path d="M1261.59 1159.78c-1.13.94-3.06.16-4.17-.37-19.18-9.11-33.02-23.99-33.02-23.99-13.14-14.13-24.63-27.51-26.67-39.11-.42-2.39-1.26-7.19 1.14-10.63 1.93-2.75 4.89-2.2 6.86-5.33 2.09-3.34.37-6.27 2.81-10.08.8-1.32 2.03-2.83 3.84-3.49 8.64-3.15 21.54 16.28 28.38 26.58 0 0 13.87 20.89 21.4 60.57.33 1.76.78 4.75-.56 5.86Z" class="cls-5wed3"/><path d="M1267.04 1140.36c-.85-.5-2.44.81-4.05 2.13-2.34 1.93-2.18 2.87-3.68 3.58-2.46 1.17-3.78-.96-6.07.15-1.56.76-2.32 2.42-3.59 5.2-1.56 3.41-1.29 4.92-2.73 5.78-1.26.75-2.04-.06-3.72.82-1.05.55-2.68 1.87-2.53 2.96.35 2.46 9.76 2.38 15.78 2.32 2.81-.02 4.27-.17 5.65-1.27 1.6-1.27 2.13-3.06 3.31-8.54 2.56-11.87 2.1-12.84 1.62-13.13Z" class="cls-5wed1"/><circle cx="1173.46" cy="1107.19" r="5.81" class="cls-5wed3"/><circle cx="1190.01" cy="1066.43" r="5.81" class="cls-5wed3"/><circle cx="1237.9" cy="1054.81" r="5.81" class="cls-5wed3"/><path d="M1273.76 1268.62c-1.01 0-1.94-.69-2.23-1.76-4.93-17.74-5.75-36.51-2.38-54.26 2.26-11.91 6.36-23.37 12.18-34.07.64-1.17 2.06-1.58 3.17-.91s1.5 2.16.87 3.33a111.8 111.8 0 0 0-11.65 32.61c-3.23 16.98-2.44 34.94 2.28 51.94.36 1.29-.35 2.65-1.58 3.03-.22.07-.44.1-.65.1Z" class="cls-5wed1"/><path d="M1283.35 1179.74c-.34-.16-.73-.61-.95-1.85-4.02-11.74-9.37-33.08-2.54-53.59 3.24-9.73 10.03-21.67 14.61-20.52 2.34.58 3.48 4.4 6.19 4.01 2.45-.35 3.16-3.71 6.13-4.04 1.66-.18 3.08.7 3.56 1.1 4.45 3.71-2.09 24.04-3.84 29.3-7.35 22.15-19.46 47.37-23.16 45.59" class="cls-5wed4"/><path d="M1282.9 1179.51c.22.35.68.68 1.74.63 10.57 1.69 29.3 2.5 44.31-10.49 7.12-6.17 15.15-16.95 13.07-21.94-1.06-2.54-4.46-2.9-4.82-6.12-.32-2.9 2.23-4.57 1.76-8.06-.27-1.96-1.34-3.37-1.79-3.82-4.14-4.19-19.07 8.42-22.92 11.74-16.21 14-33.73 34.24-31.35 38.05Z" class="cls-5wed4"/><path d="M1282.7 1180.07c.84.76 2.27.13 3.09-.3 14.22-7.34 24.48-19.33 24.48-19.33 9.74-11.38 18.26-22.16 19.77-31.5.31-1.92.94-5.79-.85-8.56-1.43-2.22-3.63-1.77-5.08-4.29-1.55-2.69-.28-5.05-2.08-8.12-.59-1.06-1.5-2.28-2.85-2.81-6.41-2.54-15.97 13.11-21.04 21.41 0 0-10.28 16.83-15.87 48.79-.25 1.42-.58 3.82.42 4.72Z" class="cls-5wed3"/><path d="M1278.66 1164.43c.63-.4 1.81.65 3 1.71 1.74 1.55 1.62 2.31 2.72 2.89 1.82.94 2.81-.77 4.5.12 1.16.61 1.72 1.95 2.66 4.19 1.16 2.75.95 3.96 2.02 4.66.93.61 1.52-.05 2.76.66.78.44 1.99 1.51 1.87 2.38-.26 1.98-7.24 1.91-11.7 1.87-2.08-.02-3.17-.14-4.19-1.02-1.19-1.02-1.58-2.46-2.46-6.88-1.9-9.56-1.56-10.35-1.2-10.57Z" class="cls-5wed1"/><ellipse cx="1348.04" cy="1137.71" class="cls-5wed3" rx="4.31" ry="4.68"/><ellipse cx="1335.77" cy="1104.88" class="cls-5wed3" rx="4.31" ry="4.68"/><ellipse cx="1300.27" cy="1095.52" class="cls-5wed3" rx="4.31" ry="4.68"/><path d="M1282.4 1083.1c-.29-.06-.66-.33-1.05-1.22-5.18-8.13-13.12-23.27-11.71-40.02.67-7.94 3.61-18.2 7.29-18.17 1.87.01 3.43 2.69 5.41 1.9 1.78-.72 1.71-3.38 3.89-4.17 1.22-.44 2.45-.04 2.89.18 4.04 1.99 2.81 18.54 2.46 22.83-1.51 18.07-6.05 39.34-9.17 38.67Z" class="cls-5wed3"/><path d="M1282.02 1083.01c.23.23.64.39 1.43.16 8.29-.66 22.59-3.46 31.55-16.02 4.25-5.96 8.34-15.57 5.86-18.96-1.26-1.73-3.9-1.38-4.76-3.74-.77-2.14.85-3.86-.14-6.41-.56-1.43-1.63-2.3-2.05-2.56-3.89-2.41-12.87 9.84-15.17 13.06-9.69 13.53-19.23 32.03-16.73 34.47Z" class="cls-5wed3"/><path d="M1281.97 1083.47c.77.42 1.74-.32 2.28-.79 9.4-8.14 14.96-19.07 14.96-19.07 5.28-10.38 9.74-20.07 9.18-27.41-.12-1.51-.35-4.55-2.2-6.31-1.49-1.41-3.06-.67-4.62-2.32-1.66-1.75-1.13-3.76-3.06-5.76-.64-.69-1.55-1.45-2.67-1.61-5.3-.75-9.67 12.82-11.98 20.01 0 0-4.69 14.59-3.07 39.75.07 1.12.26 2.99 1.18 3.49Z" class="cls-5wed4"/><path d="M1276.06 1072.39c.4-.42 1.49.16 2.58.75 1.6.86 1.64 1.45 2.59 1.68 1.55.38 1.98-1.09 3.42-.73.99.25 1.66 1.16 2.78 2.68 1.38 1.87 1.44 2.82 2.38 3.15.82.29 1.14-.31 2.2 0 .67.19 1.78.78 1.85 1.46.16 1.54-5.12 2.77-8.49 3.55-1.57.36-2.42.47-3.35 0-1.09-.56-1.64-1.57-3.11-4.75-3.18-6.87-3.07-7.53-2.84-7.77Z" class="cls-5wed1"/><ellipse cx="1323.58" cy="1039.53" class="cls-5wed3" rx="3.35" ry="3.64" transform="rotate(-13.6 1323.197 1039.291)"/><ellipse cx="1308.32" cy="1016.97" class="cls-5wed3" rx="3.35" ry="3.64" transform="rotate(-13.6 1307.9 1016.714)"/><ellipse cx="1279.79" cy="1016.39" class="cls-5wed3" rx="3.35" ry="3.64" transform="rotate(-13.6 1279.387 1016.163)"/><path d="M201.24 295.02c-1.34-6.33-8.66-13.15-16.59-11.55-5.01 1.01-9.09 5.15-10.66 10.5-1.37-5.47-5.58-9.64-10.66-10.5-7.18-1.22-13.3 4.62-15.06 9.95-.17.52-.65 2.07-.61 4.17.11 6.5 4.97 11.24 8.21 14.49 4.63 4.65 10.5 10.83 18.13 19.47 4.07-3.85 7.59-7.49 10.61-10.78 4.83-5.27 3.45-4.31 7.52-8.69 5.59-6.02 8.41-8.08 9.17-12.56.39-2.32.03-4.13-.05-4.5Zm570.96 181.5c-1.34-6.33-8.66-13.15-16.59-11.55-5.01 1.01-9.09 5.15-10.66 10.5-1.37-5.47-5.58-9.64-10.66-10.5-7.18-1.22-13.3 4.62-15.06 9.95-.17.52-.65 2.07-.61 4.17.11 6.5 4.97 11.24 8.21 14.49 4.63 4.65 10.5 10.83 18.13 19.47 4.07-3.85 7.59-7.49 10.61-10.78 4.83-5.27 3.45-4.31 7.52-8.69 5.59-6.02 8.41-8.08 9.17-12.56.39-2.32.03-4.13-.05-4.5Zm-392.26 761.5c-4.42-7.48-16.67-13.02-26.08-7.58-5.95 3.44-9.36 10.46-9.06 17.95-4.09-6.38-11.24-9.87-18.08-8.79-9.67 1.53-14.94 11.59-14.9 19.13 0 .74.07 2.91 1.02 5.57 2.93 8.22 11.15 12.17 16.67 14.92 7.88 3.93 18.02 9.27 31.44 17 3.52-6.65 6.45-12.8 8.87-18.28 3.88-8.78 2.54-6.97 5.84-14.3 4.53-10.07 7.23-13.9 6.27-19.92-.5-3.12-1.73-5.27-1.99-5.71Z" class="cls-5wed4"/><path d="M411.68 1194.66c.5-5.5-3.77-12.92-10.65-13.6-4.35-.43-8.72 1.92-11.35 5.9.26-4.82-2.14-9.27-6.07-11.26-5.56-2.8-12.02.43-14.81 4.34-.27.38-1.05 1.53-1.55 3.26-1.54 5.34 1.23 10.43 3.06 13.9 2.61 4.96 5.86 11.49 9.92 20.46 4.29-2.13 8.09-4.21 11.37-6.14 5.27-3.09 3.9-2.65 8.33-5.21 6.08-3.52 8.9-4.49 10.64-7.96.9-1.8 1.06-3.36 1.09-3.69Z" class="cls-5wed3"/><path d="M1283.7 357.64c-6.35-10.76-23.98-18.73-37.51-10.9-8.55 4.95-13.46 15.05-13.03 25.81-5.89-9.18-16.17-14.19-26-12.64-13.9 2.2-21.49 16.67-21.44 27.52 0 1.06.09 4.19 1.46 8.02 4.22 11.83 16.04 17.51 23.98 21.46 11.34 5.65 25.92 13.34 45.22 24.45 5.06-9.57 9.27-18.41 12.76-26.29 5.58-12.63 3.66-10.02 8.4-20.56 6.51-14.48 10.4-20 9.02-28.66-.72-4.49-2.49-7.58-2.87-8.21Z" class="cls-5wed4"/><path d="M1329.35 295.28c.72-7.92-5.42-18.58-15.32-19.57-6.26-.62-12.54 2.77-16.32 8.49.37-6.93-3.07-13.34-8.73-16.19-8-4.03-17.29.62-21.3 6.24-.39.55-1.51 2.2-2.23 4.68-2.22 7.67 1.77 15 4.41 19.99 3.76 7.13 8.43 16.52 14.27 29.43a262 262 0 0 0 16.36-8.84c7.58-4.45 5.61-3.81 11.98-7.5 8.75-5.06 12.8-6.46 15.31-11.45 1.3-2.59 1.53-4.84 1.57-5.31Z" class="cls-5wed3"/></svg>