<svg xmlns="http://www.w3.org/2000/svg" viewBox="0 0 1500 1500" width="300" height="300" fill="none"><defs><style>.cls-6wed1{fill:#cedae0}</style></defs><path d="M1134.28 160.72H312.43c-54.39 0-98.48 44.09-98.48 98.48v1005.36c0 54.39 44.09 98.48 98.48 98.48h821.85c54.39 0 98.48-44.09 98.48-98.48V259.2c0-54.39-44.09-98.48-98.48-98.48m18.95 866.21c0 46.31-37.53 83.84-83.83 83.84H377.32c-46.31 0-83.84-37.53-83.84-83.84V334.85c0-46.3 37.53-83.83 83.84-83.83h692.08c46.3 0 83.83 37.53 83.83 83.83z" style="fill:#89a3b2"/><path d="M534.63 1309.97q-.285.18-2.61 1.26c-2.325 1.08-3.58 1.5-6.09 2.34s-5.38 1.6-8.6 2.29-6.57 1.03-10.05 1.03c-5.67 0-10.76-.93-15.27-2.78-4.51-1.86-8.33-4.48-11.45-7.86-3.13-3.38-5.53-7.46-7.2-12.22-1.68-4.76-2.51-10.05-2.51-15.85s.74-11.69 2.22-18.37 3.41-13.55 5.8-20.62c2.38-7.07 5.07-14.13 8.07-21.2s6.02-13.79 9.09-20.17c3.06-6.38 5.98-12.22 8.75-17.52s5.15-9.72 7.15-13.25c-3.61 3.83-7.73 8.25-12.37 13.25s-9.59 10.48-14.84 16.44-10.71 12.31-16.38 19.04a930 930 0 0 0-17.16 21.02 888 888 0 0 0-17.16 22.37 572 572 0 0 0-16.24 23.04l-4.64-1.44c.97-9.76 2.56-19.45 4.78-29.06s4.74-18.86 7.54-27.76c2.8-8.89 5.77-17.25 8.89-25.06q4.68-11.73 8.94-20.97c-4.32 5.51-8.62 11.48-12.9 17.92-4.29 6.44-8.62 13.06-13 19.85-4.38 6.8-8.89 13.62-13.53 20.48s-9.47 13.44-14.5 19.76a196 196 0 0 1-15.9 17.7c-5.57 5.48-11.5 10.24-17.78 14.28a87.5 87.5 0 0 1-20.1 9.57c-7.12 2.34-14.74 3.5-22.86 3.5q-9.375 0-17.01-2.61c-5.09-1.74-9.46-4.12-13.1-7.14s-6.44-6.57-8.41-10.64c-1.96-4.07-2.95-8.47-2.95-13.2s.79-8.79 2.37-12.53 3.69-7.07 6.33-9.97 5.72-5.42 9.23-7.55q5.265-3.195 11.07-5.25c3.87-1.38 7.78-2.39 11.74-3.05s7.75-.99 11.36-.99c7.47 0 14.63.82 21.46 2.47s13.4 4.57 19.72 8.76l-3.38 3.5c-.06-.06-.9-.61-2.51-1.66s-3.93-2.2-6.96-3.46-6.78-2.39-11.26-3.41-9.59-1.53-15.32-1.53-10.91.69-16.09 2.07c-5.19 1.38-9.76 3.46-13.72 6.24a31.76 31.76 0 0 0-9.52 10.51c-2.38 4.22-3.58 9.18-3.58 14.87 0 4.07.85 7.85 2.56 11.32s4.07 6.48 7.1 9.03c3.03 2.54 6.67 4.54 10.92 5.97 4.25 1.44 8.96 2.16 14.11 2.16 7.73 0 15.14-1.53 22.23-4.58s13.92-7.19 20.49-12.4q9.855-7.815 18.99-18.24a316 316 0 0 0 17.59-22.01c5.64-7.73 11.1-15.66 16.38-23.8s10.41-16 15.37-23.58 9.79-14.67 14.5-21.29c4.7-6.62 9.31-12.32 13.82-17.11l4.35 2.43c-2.84 8.03-5.28 15.08-7.35 21.15-2.06 6.08-3.85 11.42-5.36 16.03s-2.8 8.59-3.87 11.95c-1.06 3.35-1.98 6.35-2.75 8.98-.77 2.64-1.47 5.02-2.08 7.14-.61 2.13-1.22 4.24-1.84 6.33-.61 2.1-1.3 4.31-2.08 6.65-.77 2.34-1.71 5.05-2.8 8.13-1.1 3.09-2.38 6.65-3.87 10.69-1.48 4.04-3.29 8.82-5.41 14.33 5.41-7.6 10.97-15.09 16.67-22.46s11.39-14.49 17.06-21.38 11.23-13.47 16.67-19.76 10.6-12.13 15.46-17.52 9.34-10.29 13.43-14.69 7.65-8.16 10.68-11.27 5.4-5.54 7.1-7.28c1.71-1.74 2.59-2.63 2.66-2.69l4.06 2.78c-3.8 8.74-7.57 17.5-11.31 26.27s-7.33 17.32-10.78 25.65c-3.45 8.32-6.65 16.35-9.62 24.07-2.96 7.73-5.54 14.96-7.73 21.69-2.19 6.74-3.91 12.88-5.17 18.41-1.26 5.54-1.88 10.29-1.88 14.24 0 4.67.6 8.89 1.79 12.67 1.19 3.77 2.91 6.98 5.17 9.61 2.25 2.63 5.04 4.66 8.36 6.06 3.32 1.41 7.07 2.11 11.26 2.11 3.16 0 6.23-.33 9.23-.99s5.65-1.38 7.97-2.16q3.48-1.17 5.61-2.16t2.22-.99l2.51 4.04Z" class="cls-6wed1"/><path d="M574.04 1247.99c-.97 1.32-2.11 3.1-3.43 5.34-1.32 2.25-2.85 4.67-4.59 7.28s-3.66 5.25-5.75 7.95a51.6 51.6 0 0 1-6.86 7.28 35.4 35.4 0 0 1-8.07 5.3c-2.9 1.38-5.99 2.07-9.28 2.07-1.8 0-3.51-.26-5.12-.76-1.61-.51-3.03-1.3-4.25-2.38s-2.19-2.41-2.9-4-1.06-3.46-1.06-5.61c0-2.93.63-6 1.88-9.21 1.26-3.2 2.72-6.3 4.4-9.3 1.67-2.99 3.35-5.73 5.03-8.22 1.67-2.48 2.9-4.48 3.67-5.97.77-1.5 1.16-2.78 1.16-3.86 0-.78-.27-1.47-.82-2.07s-1.22-1.18-2.03-1.75-1.64-1.17-2.51-1.8a8.5 8.5 0 0 1-2.17-2.29c-1.61 2.4-3.25 4.82-4.93 7.28q-2.22 3.15-4.83 7.05c-1.74 2.61-3.42 5.17-5.03 7.68l-3.48-2.52 20.68-30.09 2.8 1.35q-.195.54-.63 1.71c-.29.78-.43 1.62-.43 2.52 0 .66.11 1.3.34 1.93s.69 1.21 1.4 1.75c2.58 2.16 4.61 3.82 6.09 4.99s2.56 2.1 3.24 2.78c.68.69 1.09 1.26 1.26 1.71.16.45.24 1.03.24 1.75s-.13 1.59-.39 2.61-.69 2.25-1.3 3.68c-.61 1.44-1.45 3.13-2.51 5.08s-2.4 4.21-4.01 6.78c-.97 1.56-1.92 3.13-2.85 4.72s-1.77 3.19-2.51 4.81a33 33 0 0 0-1.79 4.85c-.45 1.62-.68 3.17-.68 4.67 0 1.14.18 2.05.53 2.74s.82 1.21 1.4 1.57 1.21.6 1.88.72q1.02.18 1.98.18c2.13 0 4.24-.58 6.33-1.75s4.16-2.68 6.19-4.54 3.99-3.97 5.9-6.33q2.85-3.54 5.46-7.23c1.74-2.45 3.35-4.81 4.83-7.05q2.22-3.375 3.96-5.88l3.58 2.52Zm159.14 4.04c3.09-.54 6.22-.81 9.38-.81 3.99 0 7.89.54 11.69 1.62s7.2 2.62 10.2 4.63q4.5 3.015 7.2 7.41c1.8 2.93 2.71 6.26 2.71 9.97 0 3.29-.79 6.29-2.37 8.98s-3.75 5.01-6.52 6.96-6.06 3.44-9.86 4.49-7.93 1.57-12.37 1.57c-5.16 0-10.1-.52-14.84-1.57s-9.25-2.5-13.53-4.36a77.6 77.6 0 0 1-12.27-6.69c-3.9-2.61-7.52-5.49-10.87-8.67-4.7 2.04-9.65 3.64-14.84 4.81s-10.58 1.75-16.19 1.75c-6.9 0-12.79-.67-17.69-2.02s-8.89-3.17-11.98-5.48c-3.09-2.3-5.36-4.99-6.81-8.04s-2.17-6.32-2.17-9.79c0-4.49 1.11-8.49 3.33-11.99s5.2-6.62 8.94-9.34 8.05-5.17 12.95-7.32c4.9-2.16 10.02-4.16 15.37-6.02-.39-2.75-.58-5.48-.58-8.17 0-6.17 1.22-11.77 3.67-16.8s5.65-9.31 9.62-12.85a44.5 44.5 0 0 1 13.34-8.22c4.93-1.95 9.87-2.92 14.84-2.92 3.16 0 6.02.42 8.6 1.26s4.77 1.99 6.57 3.46 3.2 3.19 4.2 5.17 1.5 4.07 1.5 6.29c0 3.11-.69 5.91-2.08 8.4q-2.085 3.735-5.7 6.78c-2.42 2.04-5.25 3.89-8.51 5.57-3.25 1.68-6.77 3.23-10.54 4.67s-7.68 2.83-11.74 4.18-8.12 2.71-12.18 4.09c.77 3.35 1.85 6.92 3.24 10.69 1.38 3.77 3.04 7.59 4.98 11.45 1.93 3.86 4.14 7.71 6.62 11.54s5.17 7.49 8.07 10.96c3.67-2.04 7.04-4.34 10.1-6.92 3.06-2.57 5.7-5.31 7.93-8.22q3.33-4.35 5.22-9.03c1.26-3.11 1.88-6.26 1.88-9.43 0-2.39-.23-4.31-.68-5.75s-.71-2.36-.77-2.78l4.93-1.26c.26.66.6 1.86 1.01 3.59.42 1.74.63 3.83.63 6.29 0 3.29-.64 6.65-1.93 10.06s-3.11 6.74-5.46 9.97-5.19 6.32-8.51 9.25-7.01 5.6-11.07 7.99c2.83 3.11 5.85 5.99 9.04 8.62s6.52 4.91 10 6.83a52.8 52.8 0 0 0 10.78 4.49c3.7 1.08 7.52 1.62 11.45 1.62 3.22 0 6.31-.39 9.28-1.17 2.96-.78 5.57-1.96 7.83-3.55 2.25-1.59 4.06-3.62 5.41-6.11s2.03-5.43 2.03-8.85c0-3.05-.68-5.73-2.03-8.04-1.35-2.3-3.16-4.25-5.41-5.84-2.26-1.59-4.82-2.78-7.68-3.59-2.87-.81-5.85-1.21-8.94-1.21-1.35 0-2.66.06-3.91.18-1.26.12-2.43.27-3.53.45l-.97-3.23Zm-69.78-25.33c-4.06 1.62-7.88 3.35-11.45 5.21q-5.37 2.79-9.33 6.24c-2.64 2.31-4.74 4.9-6.28 7.77s-2.32 6.11-2.32 9.7q0 4.575 1.59 8.49c1.06 2.61 2.74 4.88 5.03 6.83s5.2 3.46 8.75 4.54c3.54 1.08 7.8 1.62 12.76 1.62q6.57 0 13.14-1.35c4.38-.9 8.6-2.19 12.66-3.86-3.22-3.29-6.15-6.8-8.8-10.51-2.64-3.71-4.99-7.5-7.06-11.36-2.06-3.86-3.83-7.75-5.32-11.68-1.48-3.92-2.61-7.8-3.38-11.63Zm55.57-37.28c0-1.38-.31-2.75-.92-4.13s-1.55-2.61-2.8-3.68-2.87-1.95-4.83-2.61c-1.97-.66-4.27-.99-6.91-.99-3.61 0-7.27.64-10.97 1.93-3.71 1.29-7.06 3.32-10.05 6.11s-5.45 6.38-7.35 10.78-2.85 9.69-2.85 15.85c0 .96.03 1.95.1 2.96.06 1.02.19 2.07.39 3.14 5.86-1.92 11.57-3.82 17.11-5.7 5.54-1.89 10.47-3.95 14.79-6.2s7.78-4.77 10.39-7.59c2.61-2.81 3.91-6.11 3.91-9.88Zm368.39 120.55q-.285.18-2.61 1.26t-6.09 2.34c-2.51.84-5.38 1.6-8.6 2.29s-6.57 1.03-10.05 1.03c-5.67 0-10.76-.93-15.27-2.78-4.51-1.86-8.33-4.48-11.45-7.86-3.13-3.38-5.53-7.46-7.2-12.22-1.68-4.76-2.51-10.05-2.51-15.85s.74-11.69 2.22-18.37 3.41-13.55 5.8-20.62c2.38-7.07 5.07-14.13 8.07-21.2s6.02-13.79 9.09-20.17c3.06-6.38 5.98-12.22 8.75-17.52s5.15-9.72 7.15-13.25c-3.61 3.83-7.73 8.25-12.37 13.25s-9.59 10.48-14.84 16.44-10.71 12.31-16.38 19.04a930 930 0 0 0-17.16 21.02 888 888 0 0 0-17.16 22.37 572 572 0 0 0-16.24 23.04l-4.64-1.44c.97-9.76 2.56-19.45 4.78-29.06s4.74-18.86 7.54-27.76c2.8-8.89 5.77-17.25 8.89-25.06q4.68-11.73 8.94-20.97c-4.32 5.51-8.62 11.48-12.9 17.92-4.29 6.44-8.62 13.06-13 19.85-4.38 6.8-8.89 13.62-13.53 20.48s-9.47 13.44-14.5 19.76a196 196 0 0 1-15.9 17.7c-5.57 5.48-11.5 10.24-17.78 14.28a87.5 87.5 0 0 1-20.1 9.57c-7.12 2.34-14.74 3.5-22.86 3.5q-9.375 0-17.01-2.61c-5.09-1.74-9.46-4.12-13.1-7.14s-6.44-6.57-8.41-10.64c-1.96-4.07-2.95-8.47-2.95-13.2s.79-8.79 2.37-12.53 3.69-7.07 6.33-9.97 5.72-5.42 9.23-7.55q5.265-3.195 11.07-5.25c3.87-1.38 7.78-2.39 11.74-3.05s7.75-.99 11.36-.99c7.47 0 14.63.82 21.46 2.47s13.4 4.57 19.72 8.76l-3.38 3.5c-.06-.06-.9-.61-2.51-1.66s-3.93-2.2-6.96-3.46-6.78-2.39-11.26-3.41-9.59-1.53-15.32-1.53-10.91.69-16.09 2.07c-5.19 1.38-9.76 3.46-13.72 6.24a31.76 31.76 0 0 0-9.52 10.51c-2.38 4.22-3.58 9.18-3.58 14.87 0 4.07.85 7.85 2.56 11.32s4.07 6.48 7.1 9.03c3.03 2.54 6.67 4.54 10.92 5.97 4.25 1.44 8.96 2.16 14.11 2.16 7.73 0 15.14-1.53 22.23-4.58s13.92-7.19 20.49-12.4q9.855-7.815 18.99-18.24a316 316 0 0 0 17.59-22.01c5.64-7.73 11.1-15.66 16.38-23.8s10.41-16 15.37-23.58 9.79-14.67 14.5-21.29c4.7-6.62 9.31-12.32 13.82-17.11l4.35 2.43c-2.84 8.03-5.28 15.08-7.35 21.15-2.06 6.08-3.85 11.42-5.36 16.03s-2.8 8.59-3.87 11.95c-1.06 3.35-1.98 6.35-2.75 8.98-.77 2.64-1.47 5.02-2.08 7.14-.61 2.13-1.22 4.24-1.84 6.33-.61 2.1-1.3 4.31-2.08 6.65s-1.71 5.05-2.8 8.13c-1.1 3.09-2.38 6.65-3.87 10.69-1.48 4.04-3.29 8.82-5.41 14.33 5.41-7.6 10.97-15.09 16.67-22.46s11.39-14.49 17.06-21.38 11.23-13.47 16.67-19.76 10.6-12.13 15.46-17.52 9.34-10.29 13.43-14.69 7.65-8.16 10.68-11.27 5.4-5.54 7.1-7.28c1.71-1.74 2.59-2.63 2.66-2.69l4.06 2.78c-3.8 8.74-7.57 17.5-11.31 26.27s-7.33 17.32-10.78 25.65c-3.45 8.32-6.65 16.35-9.62 24.07-2.96 7.73-5.54 14.96-7.73 21.69-2.19 6.74-3.91 12.88-5.17 18.41-1.26 5.54-1.88 10.29-1.88 14.24 0 4.67.6 8.89 1.79 12.67 1.19 3.77 2.91 6.98 5.17 9.61 2.25 2.63 5.04 4.66 8.36 6.06 3.32 1.41 7.07 2.11 11.26 2.11 3.16 0 6.23-.33 9.23-.99s5.65-1.38 7.97-2.16q3.48-1.17 5.61-2.16t2.22-.99l2.51 4.04Z" class="cls-6wed1"/><path d="M1126.77 1247.99c-.97 1.32-2.11 3.1-3.43 5.34-1.32 2.25-2.85 4.67-4.59 7.28s-3.66 5.25-5.75 7.95a51.6 51.6 0 0 1-6.86 7.28 35.4 35.4 0 0 1-8.07 5.3c-2.9 1.38-5.99 2.07-9.28 2.07-1.8 0-3.51-.26-5.12-.76-1.61-.51-3.03-1.3-4.25-2.38s-2.19-2.41-2.9-4-1.06-3.46-1.06-5.61c0-2.93.63-6 1.88-9.21 1.26-3.2 2.72-6.3 4.4-9.3 1.67-2.99 3.35-5.73 5.03-8.22 1.67-2.48 2.9-4.48 3.67-5.97.77-1.5 1.16-2.78 1.16-3.86 0-.78-.27-1.47-.82-2.07s-1.22-1.18-2.03-1.75-1.64-1.17-2.51-1.8-1.59-1.39-2.17-2.29c-1.61 2.4-3.25 4.82-4.93 7.28q-2.22 3.15-4.83 7.05c-1.74 2.61-3.42 5.17-5.03 7.68l-3.48-2.52 20.68-30.09 2.8 1.35q-.195.54-.63 1.71c-.29.78-.43 1.62-.43 2.52 0 .66.11 1.3.34 1.93s.69 1.21 1.4 1.75c2.58 2.16 4.61 3.82 6.09 4.99s2.56 2.1 3.24 2.78c.68.69 1.09 1.26 1.26 1.71.16.45.24 1.03.24 1.75s-.13 1.59-.39 2.61-.69 2.25-1.3 3.68c-.61 1.44-1.45 3.13-2.51 5.08s-2.4 4.21-4.01 6.78c-.97 1.56-1.92 3.13-2.85 4.72s-1.77 3.19-2.51 4.81a33 33 0 0 0-1.79 4.85c-.45 1.62-.68 3.17-.68 4.67 0 1.14.18 2.05.53 2.74s.82 1.21 1.4 1.57 1.21.6 1.88.72q1.02.18 1.98.18c2.13 0 4.24-.58 6.33-1.75s4.16-2.68 6.19-4.54 3.99-3.97 5.9-6.33q2.85-3.54 5.46-7.23c1.74-2.45 3.35-4.81 4.83-7.05q2.22-3.375 3.96-5.88l3.58 2.52Z" class="cls-6wed1"/><path d="M1147.82 1210.22c-.52.63-1.01 1.35-1.5 2.16-.48.81-.9 1.75-1.26 2.83-.35 1.08-.53 2.37-.53 3.86 0 1.26.34 2.96 1.01 5.12.68 2.16 1.4 4.63 2.17 7.41s1.5 5.81 2.17 9.07c.68 3.26 1.01 6.63 1.01 10.11q0 7.635-2.22 13.47c-1.48 3.89-3.45 7.22-5.9 9.97 5.03-2.52 9.96-6.12 14.79-10.82s9.7-10.67 14.59-17.92l3.29 2.69c-2.77 4.25-5.91 8.46-9.42 12.62s-7.36 7.9-11.55 11.23c-4.19 3.32-8.7 6.02-13.53 8.08s-9.96 3.1-15.37 3.1c-4.83 0-8.91-1.06-12.23-3.19s-5.36-5.31-6.14-9.57l3.48-.63c0 .36.18.94.53 1.75s.92 1.6 1.69 2.38 1.82 1.47 3.14 2.07 2.95.9 4.88.9c2.58 0 4.86-.55 6.86-1.66s3.74-2.56 5.22-4.36 2.74-3.85 3.77-6.15 1.85-4.69 2.46-7.14 1.05-4.85 1.3-7.19c.26-2.34.39-4.46.39-6.38s-.08-4.04-.24-6.38-.34-4.57-.53-6.69c-.19-2.13-.37-3.98-.53-5.57s-.24-2.62-.24-3.1v-.18c-.84.84-1.84 2.07-3 3.68s-2.4 3.38-3.72 5.3-2.64 3.86-3.96 5.84-2.51 3.77-3.58 5.39-1.93 2.95-2.61 4-1.01 1.6-1.01 1.66l-3.48-2.52c.06-.06.87-1.35 2.42-3.86 1.55-2.52 3.59-5.7 6.14-9.57 2.54-3.86 5.43-8.14 8.65-12.85a298 298 0 0 1 9.96-13.7l3.87 2.96c-.32.54-.74 1.12-1.26 1.75Zm-14.66-878.46c-18.01 7.49-38.98 7.67-57.98-1.26-35.75-16.81-51.16-59.57-34.35-95.32 14.32-30.46 47.48-46.13 79.09-39.72 4.78-9.16 11.9-16.9 20.4-22.96-47.91-17.86-102.48 3.79-124.62 50.87-23.32 49.6-1.95 108.94 47.66 132.26 32.63 15.35 69.48 11.34 97.51-7.32-10.2-3.81-19.75-9.33-27.72-16.54Zm49.45-129.01c-9.16 2.9-17.99 7.12-26.13 12.43 20.59 20.77 27.18 53 14.03 80.97-1.3 2.77-2.78 5.41-4.38 7.93 9.06 3.66 18.66 5.69 28.38 6.2.38-.77.76-1.54 1.13-2.32 16.8-35.72 10.39-76.48-13.02-105.21Z" class="cls-6wed1"/><path d="M1257.11 190.02c-2.99 1.77-6.62 3.71-10.92 6-6.03 3.21-11.68 5.69-16.65 7.61 26.03 16.75 36.31 50.7 22.78 79.46-14.73 31.32-52.19 44.82-83.51 30.09s-44.82-52.19-30.09-83.51c13.63-28.98 46.73-42.7 76.41-32.92-1.61-5.11-3.21-10.97-4.57-17.49-1.01-4.86-1.87-9.01-2.45-12.55-38.25-5.34-77.23 14.39-94.51 51.14-21.24 45.18-1.77 99.21 43.4 120.45 45.18 21.24 99.21 1.77 120.45-43.4 17.17-36.51 7.74-78.79-20.34-104.88" class="cls-6wed1"/><path d="M1272.2 168.8c1.57-13-22.29-24.95-23.31-25.45-8.48-4.14-26.93-10.42-34.4-2.82-4.43 4.5-2.81 12.77.59 29.11 1.99 9.54 4.5 17.69 6.79 24.09.79 2.2 3.3 3.41 5.52 2.67 6.25-2.08 14.38-5.24 23.33-10 13.78-7.34 20.69-11.03 21.48-17.6" class="cls-6wed1"/></svg>