<svg xmlns="http://www.w3.org/2000/svg" viewBox="0 0 2000 2000" width="300" height="300" fill="none"><defs><style>.clse5-1{fill:#83c4da}.clse5-2{fill:#fe8671}.clse5-3{fill:#f7eed1}.clse5-4{fill:#feca6e}.clse5-5{fill:#7a3b33}</style></defs><path class="clse5-1" d="M586.43 1496.64a79.5 79.5 0 0 1-29.66-5.71l-2-1.2-.2.28a78.6 78.6 0 0 1-15.11-8.7 79.7 79.7 0 0 1-27.57-36.24c-.54-1.41-1-2.85-1.49-4.31a79.6 79.6 0 0 1-3.6-23.74V1159c-.3-.17-.61-.33-.92-.49q-2.5-1.32-5.07-2.58c-.47-.23-.95-.47-1.43-.69a172 172 0 0 0-31.38-11.75c-1.12-.29-2.23-.57-3.35-.83a126.5 126.5 0 0 0-34.28-3.43 113.3 113.3 0 0 0-23 3.34 111 111 0 0 0-14.87 4.91 119.5 119.5 0 0 0-28.88 17c-.74.58-1.48 1.17-2.2 1.76a152 152 0 0 0-17.19 16.64c-1.61 1.82-3.2 3.67-4.73 5.56-.67.82-1.34 1.65-2 2.48a220 220 0 0 0-17.27 25.61 320.5 320.5 0 0 0-22.48 48.29c-1.86 5-3.55 9.8-5.08 14.38-.81 2.43-1.57 4.79-2.3 7.08-1 3.28-2 6.4-2.84 9.33s-1.6 5.45-2.28 7.88-1.23 4.39-1.76 6.29c-14.86 53.46-21.92 128.75-9.16 199.36.31 1.69.62 3.37.95 5.06a326.5 326.5 0 0 0 15.2 53.89q3.67 9.6 8 18.83c12 25.46 28 48.5 48.78 67.36q6.15 5.6 12.87 10.68a184.4 184.4 0 0 0 22.41 14.54q5.81 3.18 12 6l.34.16c80.68 37.1 189 19.73 252-43.09q6.3-6.27 11.81-13 4.14-5 7.85-10.23a179 179 0 0 0 13.46-22.08q3.75-7.27 6.83-14.85c10.9-26.7 15.75-55.81 15.81-85.77Z"/><path class="clse5-2" d="M539.47 1481.31a78.6 78.6 0 0 0 15.11 8.7l-44.11 62.91-66.09-39.87-44.32 63.19-66.06-39.87-35.47 50.55q-4.35-9.21-8-18.83l38.56-55 66.05 39.91 44.33-63.19 66.08 39.87ZM644 1496.64l-23.12 33-64.1-38.67a79.5 79.5 0 0 0 29.66 5.71h13.45l16.08 9.7 6.8-9.7ZM506.81 1237v20.31l-13.52-8.16-44.29 63.17-66.09-39.87-44.32 63.19-53.29-32.15c.68-2.43 1.45-5.07 2.28-7.88s1.81-6 2.84-9.33l43.26 26.1 44.32-63.19 66.09 39.87 44.31-63.19Z"/><path class="clse5-3" d="m511.9 1445.07-24.75 35.28-66.09-39.87-44.32 63.18-66.08-39.86-35.36 50.4c-.33-1.69-.64-3.37-.95-5.06l35.26-50.28 66.09 39.87 44.3-63.18 66.08 39.86 24.31-34.65c.48 1.46.97 2.9 1.51 4.31"/><circle class="clse5-2" cx="352.35" cy="1386.49" r="22.15"/><circle class="clse5-2" cx="462.42" cy="1363.25" r="22.15"/><circle class="clse5-3" cx="412.48" cy="1399.01" r="12.91"/><circle class="clse5-3" cx="303.56" cy="1422.02" r="12.91"/><path class="clse5-3" d="M686.83 1582.41q-3.08 7.56-6.83 14.85c-48.35 10-96.82 20.11-144.82 30.24l-1.07.23c-57.72 12.19-116 24.67-173.95 37.23-4.49-3.38-8.77-7-12.88-10.68 61.25-13.3 123-26.53 184.11-39.43l1.07-.23c51.16-10.8 102.85-21.62 154.37-32.21m-20.29 37q-3.7 5.22-7.85 10.23c-39.38 8.16-78.77 16.4-117.85 24.65l-.86.18c-48.27 10.2-97 20.6-145.45 31.07q-6.16-2.85-12-6c51.88-11.22 104-22.36 155.67-33.27l.86-.18c42.3-8.96 84.94-17.87 127.48-26.68"/><path class="clse5-2" d="M1887.11 1023.43c-.64-2.8-1.43-6.2-2.38-10.15-.31-1.3-.64-2.66-1-4.07-1.8-7.38-4.08-16.28-6.91-26.32L1876 980c-3-10.5-6.57-22.16-10.79-34.57-9.27-27.23-21.66-58.13-38-88.45a426 426 0 0 0-22.89-37.9 348 348 0 0 0-5.76-8.23l-1.64-2.26a305.3 305.3 0 0 0-39.2-44.31c-1.5-1.38-3-2.74-4.53-4.08a223.3 223.3 0 0 0-50.53-33.79 199 199 0 0 0-38.52-13.86 196.5 196.5 0 0 0-27.23-4.71 212 212 0 0 0-59.09 2.49c-1.63.29-3.27.6-4.89.93a266 266 0 0 0-40.58 11.64c-4 1.48-8 3.06-12 4.72-1.73.72-3.46 1.46-5.17 2.21a371 371 0 0 0-33.64 16.93v597.74a79.63 79.63 0 0 1-79.62 79.62h-266.7a337 337 0 0 0 10.48 35.36q5 13.82 11.18 27.32a326 326 0 0 0 22.84 41.24q6.38 9.78 13.6 19.33l.4.54c94.83 124.75 277.91 187.63 428.18 142.12q15-4.54 29.17-10.4 10.61-4.35 20.72-9.41a317 317 0 0 0 39.34-23.31q11.89-8.22 23-17.45c42.48-35.31 76.21-81 102.06-132.48q8.3-16.55 15.52-33.84a620 620 0 0 0 24.71-71.26q1.21-4.34 2.38-8.7c32.5-121.52 32.53-255.49 8.31-359.75"/><path class="clse5-1" d="M1851.71 1463.14q-7.21 17.28-15.52 33.84l-39.46-66.11-121.47 61.59-69.81-116.94-121.45 61.59-23.24-38.92a79.24 79.24 0 0 0 17.43-30.63l17.47 29.26 121.46-61.6 69.81 117 121.48-61.6Zm33.02-449.86-105.48 53.48-69.81-116.94-121.44 61.59-69.81-116.94-36.61 18.53v-34.37l48.25-24.46 69.81 116.94 121.46-61.6 69.81 117 85.92-43.57c2.83 10 5.11 18.94 6.91 26.32.35 1.36.68 2.74.99 4.02"/><path class="clse5-3" d="M1878.8 1383.18q-1.17 4.36-2.38 8.7l-55.75-93.37-121.47 61.59-69.8-116.94-121.47 61.59-26.35-44.14v-12.69l28.82 48.28 121.47-61.59 69.8 116.94 121.48-61.55Z"/><circle class="clse5-1" cx="1566.64" cy="1101.88" r="39.09"/><circle class="clse5-1" cx="1757.75" cy="1157.18" r="39.09"/><circle class="clse5-3" cx="1839.61" cy="1226.2" r="22.79"/><circle class="clse5-3" cx="1650.09" cy="1171.36" r="22.79"/><path class="clse5-3" d="M1481.58 1120.36v-8.54a22.7 22.7 0 0 1 0 8.54m252.55 509.09q-11.07 9.22-23 17.46c-83.58-24.59-167.46-49.08-250.62-73.14l-1.85-.54c-100-28.93-201.17-57.91-301.78-86.43q-6.27-13.5-11.19-27.32c106.41 30.14 213.59 60.81 319.42 91.44l1.86.53a57496 57496 0 0 1 267.16 78m-62.3 40.77q-10.11 5.05-20.72 9.41c-68.09-20-136.27-39.85-204-59.45l-1.48-.43c-83.63-24.2-168.06-48.42-252.29-72.39q-7.23-9.52-13.6-19.32c90.1 25.6 180.53 51.53 270 77.43l1.49.43c73.24 21.19 146.99 42.7 220.6 64.32"/><path class="clse5-4" d="m1462 1342.06-44.58-27.2a15.05 15.05 0 0 0-18.47 2.21l-100.15 100.15a15 15 0 0 1-20.88.37l-94.33-87.9a15 15 0 0 0-21.43.94q-49.36 54.87-98.74 109.72a15.05 15.05 0 0 1-21 1.38l-105.76-90.35a15 15 0 0 0-19.56 0L864 1397a15 15 0 0 1-20.24-.59l-85.62-82.67a15 15 0 0 0-21.15.25l-105.3 106.76a15 15 0 0 1-21.31.09l-119.56-119.1c-10.58-10.53-28.35-.88-25.33 13.74 25.26 122.51 83.81 234.11 191.05 313.81 180.29 134 457.43 147.61 646.22 25.08 111.79-72.57 177.46-183.06 208.83-308.52 4.32-17.3-19.62-26.48-27.89-10.68l-.54 1a15 15 0 0 1-21.16 5.89"/><path class="clse5-4" d="M1399.25 1491.28H587a87.22 87.22 0 0 1-87.13-87.12V475A87.23 87.23 0 0 1 587 387.9h812.21a87.22 87.22 0 0 1 87.16 87.1v929.13a87.22 87.22 0 0 1-87.12 87.15M587 402.9a72.21 72.21 0 0 0-72.09 72.1v929.13a72.2 72.2 0 0 0 72.09 72.15h812.21a72.2 72.2 0 0 0 72.12-72.12V475a72.21 72.21 0 0 0-72.12-72.13Z"/><circle class="clse5-5" cx="674.07" cy="1500.95" r="41.21"/><circle class="clse5-5" cx="998.42" cy="1593.82" r="41.21"/><circle class="clse5-3" cx="821.39" cy="1577.46" r="23.43"/><circle class="clse5-3" cx="1175.44" cy="1577.46" r="23.43"/><circle class="clse5-5" cx="1322.77" cy="1500.95" r="41.21"/><path d="M557.37 1478.07c-.74-.29-1.47-.6-2.19-.92l.2-.28Z" style="fill:#fff"/></svg>