<svg xmlns="http://www.w3.org/2000/svg" viewBox="0 0 2000 2000" width="300" height="300" fill="none"><defs><style>.clse2-2{fill:#7cc3b4}.clse2-3{fill:#2e6062}.clse2-4{fill:#dc582e}.clse2-5{fill:#febe5d}.clse2-6{fill:#191c38}.clse2-7{fill:#75a8a7}</style></defs><path d="M1608.23 1869H314.55a111.48 111.48 0 0 1-111.36-111.36V463.94a111.49 111.49 0 0 1 111.36-111.36h1293.68a111.48 111.48 0 0 1 111.36 111.36v1293.68A111.48 111.48 0 0 1 1608.23 1869M314.55 406.22a57.78 57.78 0 0 0-57.72 57.72v1293.68a57.79 57.79 0 0 0 57.72 57.73h1293.68a57.8 57.8 0 0 0 57.73-57.73V463.94a57.79 57.79 0 0 0-57.73-57.72Z" style="fill:#a3e3dd"/><path class="clse2-2" d="M1441.36 1617c38.74 10 64.66 36.11 78.62 53.13-17.75 11.28-53 29.74-94.23 23.68-44.52-6.54-88.67-40.55-84.25-59.94s58.31-27.64 99.86-16.87m-44.57-98.58c29 7.52 48.38 27 58.82 39.74-13.28 8.45-39.62 22.25-70.49 17.72-33.31-4.89-66.33-30.33-63-44.84s43.59-20.69 74.67-12.62m-37.22-103.31c22 5.69 36.64 20.45 44.54 30.1-10 6.39-30 16.85-53.38 13.41-25.22-3.7-50.23-23-47.73-33.95s33-15.67 56.57-9.56m114.91-42.7c-11.08 27.27-32.58 43.66-46.33 52.19-6.51-14-16.57-41.49-8.16-71 9.07-31.82 38.13-60.72 51.84-55.63s14.53 45.2 2.65 74.44m76.35 96.92c-21 29.17-51.23 42.41-70 48.56-3.68-18.52-7.69-54 10.79-86.57 19.94-35.15 62.74-61.06 77.54-51.06s4.19 57.8-18.33 89.07m76.74 93.91c-27.43 38.09-66.91 55.38-91.43 63.41-4.81-24.19-10.05-70.52 14.08-113.05 26-45.89 81.94-79.73 101.26-66.67s5.52 75.47-23.91 116.31m-247.18-265.15c10.61 26.29 6.71 52 2.9 67.15-13.91-5.35-39.26-17.61-53.2-43.66-15-28.1-14.29-67.56-1.39-73.22s40.3 21.53 51.69 49.73"/><path class="clse2-3" d="m1548.35 1709.97-154.24-314.88 170.45 306.41z"/><path class="clse2-4" d="M1850.09 1748a194 194 0 0 1-11.43 30.12 186.4 186.4 0 0 1-35.14 50.31 180.6 180.6 0 0 1-21.47 18.71c-40.16 29.7-91.24 41.29-140.61 27.1s-86.49-51.14-104.74-97.63a179.5 179.5 0 0 1-8.27-27.25 186.4 186.4 0 0 1-3-61.3 194 194 0 0 1 6.3-31.59c.25-.86.51-1.74.78-2.62 12.07-40 40.38-90.29 75.61-133.36q7.37-9 15.1-17.54c16-17.6 33-33.38 50.35-45.94 14.38-10.43 29-18.63 43.35-23.79 18.08-6.5 35.82-8.18 52.33-3.43s30.66 15.59 42.53 30.7c9.44 12 17.45 26.7 24.1 43.18 8 19.84 14.07 42.26 18.27 65.66q2 11.32 3.48 22.88c7 55.2 4.24 112.87-6.76 153.16-.28.84-.53 1.72-.78 2.63"/><path class="clse2-5" d="M1850.09 1748a194 194 0 0 1-11.43 30.12L1525.38 1688a194 194 0 0 1 6.3-31.59c.25-.86.51-1.74.78-2.62l318.36 91.52c-.23.9-.48 1.78-.73 2.69m-46.57 80.39a180.6 180.6 0 0 1-21.47 18.71l-245.35-70.53a179.5 179.5 0 0 1-8.27-27.25Zm32.31-324.76L1673.52 1457c14.38-10.43 29-18.63 43.35-23.79l94.86 27.27c9.44 11.97 17.45 26.67 24.1 43.15m21.75 88.54c-.95.73-1.91 1.45-2.88 2.17l-245.35-70.53c-.44-1.12-.87-2.24-1.28-3.36q7.37-9 15.1-17.54l230.93 66.38q2.03 11.32 3.48 22.88"/><path class="clse2-6" d="M1647.85 1714a131 131 0 0 1 7.15 20.58 126.3 126.3 0 0 1 3.62 41.35 123 123 0 0 1-3 19c-7.93 32.84-29.39 61-61.15 75.11s-67.06 11-96.71-5.16a121.6 121.6 0 0 1-16.12-10.54 126.5 126.5 0 0 1-28.2-30.46 130 130 0 0 1-10.44-19.12c-.25-.56-.49-1.12-.74-1.69-11.09-26-18.26-64.36-18.69-102q-.09-7.87.21-15.65a226.4 226.4 0 0 1 6.17-45.69c2.93-11.65 6.94-22.24 12.15-31.16 6.56-11.22 15-19.79 25.65-24.5s22.66-5.23 35.38-2.54c10.11 2.12 20.65 6.27 31.25 11.92a226.5 226.5 0 0 1 38 26.12q6 5 11.74 10.36c27.59 25.6 51.21 56.69 63 82.35Z"/><path class="clse2-7" d="M1647.85 1714a131 131 0 0 1 7.15 20.58l-201.57 89.32a130 130 0 0 1-10.44-19.12c-.25-.56-.49-1.12-.74-1.69l204.84-90.78Zm10.77 61.89a123 123 0 0 1-3 19l-157.86 69.95a121.6 121.6 0 0 1-16.12-10.54Zm-124.25-182.45-104.43 46.28c2.93-11.65 6.94-22.24 12.15-31.16l61-27c10.14 2.08 20.68 6.23 31.28 11.88m49.72 36.48c-.17.79-.36 1.58-.55 2.37l-157.85 70c-.72-.39-1.43-.78-2.13-1.18q-.09-7.87.21-15.65l148.58-65.85q5.97 4.95 11.74 10.31"/><path class="clse2-2" d="M428.17 374.44c-26.71 6.94-44.58 24.9-54.2 36.63 12.23 7.78 36.51 20.51 65 16.33 30.69-4.51 61.13-28 58.08-41.33s-40.24-19.07-68.88-11.63m30.72-67.97c-20 5.19-33.35 18.62-40.54 27.4 9.15 5.82 27.31 15.34 48.59 12.21 23-3.37 45.73-20.91 43.45-30.91s-30.07-14.26-51.5-8.7m25.66-71.22c-15.13 3.93-25.25 14.1-30.7 20.75 6.93 4.41 20.68 11.62 36.8 9.25 17.39-2.56 34.63-15.84 32.9-23.41s-22.77-10.84-39-6.59m-79.21-29.43c7.63 18.8 22.45 30.09 31.94 36 4.49-9.67 11.42-28.6 5.62-48.94-6.25-21.94-26.29-41.86-35.74-38.34s-10.01 31.11-1.82 51.28m-52.64 66.81c14.48 20.11 35.3 29.23 48.3 33.48 2.54-12.77 5.3-37.23-7.43-59.69-13.75-24.22-43.26-42.09-53.46-35.19s-2.93 39.84 12.59 61.4m-52.9 64.74c18.91 26.26 46.12 38.18 63 43.72 3.31-16.68 6.93-48.62-9.71-77.94-17.95-31.64-56.49-55-69.81-46s-3.76 52.07 16.52 80.22m170.4-182.79c-7.31 18.12-4.62 35.87-2 46.29 9.59-3.69 27.07-12.14 36.68-30.1 10.37-19.37 9.85-46.58 1-50.48S478 135.14 470.2 154.58"/><path class="clse2-3" d="m340.72 431.37 120.02-209.92-103.81 218.39z"/><path class="clse2-4" d="M146.39 464.71a134.3 134.3 0 0 0 7.88 20.77 128.7 128.7 0 0 0 24.23 34.68 124 124 0 0 0 14.8 12.9c27.68 20.47 62.9 28.47 96.93 18.68s59.63-35.25 72.21-67.3a123 123 0 0 0 5.7-18.79 128.6 128.6 0 0 0 2.11-42.26 133 133 0 0 0-4.35-21.77c-.17-.6-.35-1.21-.53-1.81-8.33-27.56-27.84-62.25-52.13-91.94q-5.07-6.21-10.41-12.09a230 230 0 0 0-34.71-31.67c-9.91-7.19-20-12.85-29.88-16.4-12.47-4.48-24.7-5.64-36.08-2.37s-21.16 10.75-29.32 21.17c-6.51 8.27-12 18.41-16.61 29.76a231 231 0 0 0-12.6 45.27c-.93 5.2-1.73 10.47-2.4 15.77-4.81 38.06-2.92 77.82 4.66 105.59.16.61.33 1.22.5 1.81"/><path class="clse2-5" d="M146.39 464.71a134.3 134.3 0 0 0 7.88 20.77l216-62.09a133 133 0 0 0-4.35-21.77c-.17-.6-.35-1.21-.53-1.81l-219.5 63.09c.16.61.33 1.22.5 1.81m32.11 55.45a124 124 0 0 0 14.8 12.9l169.14-48.62a123 123 0 0 0 5.7-18.79Zm-22.27-223.89 111.89-32.16c-9.91-7.19-20-12.85-29.88-16.4l-65.4 18.8c-6.51 8.27-12.03 18.41-16.61 29.76m-15 61.04c.66.51 1.32 1 2 1.5l169.14-48.62c.3-.77.6-1.54.88-2.32q-5.07-6.21-10.41-12.09l-159.2 45.76c-.94 5.2-1.74 10.46-2.41 15.77"/><path class="clse2-6" d="M285.82 441.27a90 90 0 0 0-4.93 14.19 87 87 0 0 0-2.5 28.51 84 84 0 0 0 2.08 13.11c5.46 22.64 20.26 42.08 42.15 51.78s46.23 7.61 66.67-3.55a85 85 0 0 0 11.12-7.31 87.2 87.2 0 0 0 19.44-21 91 91 0 0 0 7.2-13.18c.17-.39.34-.78.5-1.17 7.65-17.91 12.59-44.37 12.89-70.31 0-3.62 0-7.22-.15-10.79a156 156 0 0 0-4.24-31.49 83 83 0 0 0-8.38-21.48c-4.52-7.74-10.36-13.65-17.69-16.9s-15.62-3.6-24.39-1.75a82.7 82.7 0 0 0-21.54 8.22 156.5 156.5 0 0 0-26.19 18c-2.74 2.29-5.44 4.68-8.09 7.14-19 17.64-35.3 39.08-43.43 56.77-.18.44-.34.83-.52 1.21"/><path class="clse2-7" d="M285.82 441.27a90 90 0 0 0-4.93 14.19l139 61.58a91 91 0 0 0 7.2-13.18c.17-.39.34-.78.5-1.17l-141.25-62.58c-.18.39-.34.78-.52 1.16M278.39 484a84 84 0 0 0 2.08 13.11l108.82 48.23a85 85 0 0 0 11.12-7.34Zm85.66-125.81 72 31.91a83 83 0 0 0-8.38-21.48L385.59 350a82.7 82.7 0 0 0-21.54 8.19m-34.28 25.15c.12.54.25 1.09.38 1.63L439 433.2c.49-.27 1-.54 1.46-.82 0-3.62 0-7.22-.15-10.79L337.86 376.2c-2.74 2.29-5.44 4.68-8.09 7.14"/></svg>