<svg xmlns="http://www.w3.org/2000/svg" viewBox="0 0 2000 2000" width="300" height="300" fill="none"><defs><style>.cls-4th1{fill:#b23518}.cls-4th6{fill:#8c210c}.cls-4th8{fill:#c45e0a}.cls-4th9{fill:#5a8431}.cls-4th10{fill:#961f08}.cls-4th11{fill:#4e772b}.cls-4th12{fill:#e0862b}.cls-4th13{fill:#d66f12}.cls-4th14{fill:#b74e06}.cls-4th15{fill:#395919}</style></defs><path d="M1725.21 633.31h-1.01c-16.49-.04-41.98-2.17-69.93-12.98-1.15-.45-2.31-.91-3.48-1.39-8.59-3.52-17.39-7.87-26.2-13.26-22.01-13.45-37.49-29.23-47.74-41.84a2.4 2.4 0 0 1-.42-.74c-.55-1.54.58-3.33 2.38-3.3 3.28.04 6.64 0 10.05-.17 9.98-.46 20.43-1.91 30.69-4.96 10.99-3.27 21.77-8.39 31.5-16.17 27.58-22 29.56-55.42 55.35-62.08 9.56-2.47 19.07-.5 27.32 2.91 2.8 1.15 5.45 2.47 7.91 3.84.01 0 .03.02.04.02 1.08.59 2.11 1.2 3.11 1.81.44.28.78.67.99 1.14l3.27 7.56c.94 2.18-1.43 4.34-3.48 3.17-.02 0-.03-.02-.05-.03-3.84-2.18-8.27-3.82-13.19-4.12-.28-.02-.56-.03-.84-.04-2.72-.08-5.4.26-8.01.96-19.81 5.31-35.71 31.41-39.47 51.77-5.35 29.04 11.26 61.13 41.95 82.9l.69.48c1.98 1.39.99 4.51-1.43 4.52" class="cls-4th11"/><path d="m1726.64 628.8-.69-.48c-30.69-21.77-47.29-53.87-41.95-82.9 3.76-20.36 19.66-46.47 39.47-51.77 2.61-.7 5.28-1.04 8.01-.96.28.01.56.02.84.04 4.92.3 9.34 1.94 13.19 4.12.02 0 .03.02.05.03 2.06 1.17 4.43-.99 3.48-3.17l-3.27-7.56c-.21-.47-.54-.87-.99-1.14-1-.6-2.03-1.22-3.11-1.81-.01 0-.03-.02-.04-.02a74 74 0 0 0-7.91-3.84c-1.53-.63-3.1-1.22-4.71-1.73 7.03 4.5 14.92 9.95 14.13 11.6-.82 1.71-9.61-3.59-18.97-3.1-22.54 1.17-47.4 35.86-47.9 67.8-.19 12.45 3.27 27.12-.05 28.14-1.47.45-2.68-2.27-5.62-4.86-13.32-11.71-39.35.24-43.59-8.57-1.22-2.54-.35-5.67-3.27-8.49-1.97-1.91-4.62-2.66-5.66-2.95-2.6-.74-4.85-.66-6.23-.51-7.89 1.15-15.78 2.31-23.67 3.46-.92-.4-6.05-2.58-9.37-.32-.27.18-2.87 1.87-2.38 3.3.09.26.23.51.42.74 10.26 12.61 25.74 28.39 47.74 41.84 8.81 5.39 17.61 9.74 26.2 13.26 1.16.48 2.33.94 3.48 1.39 27.94 10.81 53.44 12.94 69.93 12.98h1.01c2.42 0 3.41-3.13 1.43-4.52" class="cls-4th15"/><path d="M1781.07 701.17c.22 16.46-3.39 35.57-9.97 55.13-1.79 5.31-3.79 10.67-6.01 16.01-.31.77-.63 1.53-.96 2.3-.65 1.52-1.31 3.04-1.99 4.55-9.86 22.05-23.05 43.58-38.32 61.45-13.44 15.72-45.88 53.67-87.24 50.58-8.87-.66-16.1-3.06-21.01-5.12a72.02 72.02 0 0 1-54.12-10.89c-.3-.2-.59-.4-.87-.59-2.44-.2-5.22-.52-8.26-1.04-2.83-.48-5.89-1.13-9.14-2V555.34c1.67-.73 4.86-2 9.14-3.06 2.65-.66 5.73-1.24 9.13-1.56 7.74-.72 17.12-.06 26.93 4.12 2.84 1.21 5.43 2.6 7.79 4.09.07.05.15.1.22.14 12.79 8.2 18.77 19.55 20.48 23.06.82-.25 1.73-.5 2.7-.75.16-.04.32-.09.48-.12.26-.06.51-.13.77-.18.27-.06.53-.13.82-.18.47-.11.95-.21 1.46-.31 4.59-.93 10.95-1.76 18.33-1.45h.02c.28 0 .55.02.82.04l1.04.06c.65.04 1.28.1 1.91.16 5.47.5 11.41 1.69 17.52 3.96 2.17.78 3.92 1.53 5.22 2.12.29.13.55.26.78.36.12.05.24.11.34.16 1.38.66 2.69 1.36 3.97 2.07.31.17.62.35.92.52.73.43 1.44.85 2.14 1.3.87.56 1.7 1.11 2.52 1.68.77.54 1.53 1.09 2.26 1.64.03.02.07.05.11.09.38.3.76.59 1.12.88.37.3.74.59 1.09.89.41.32.8.65 1.19.99.38.33.77.67 1.13 1 2.48 2.22 4.61 4.46 6.41 6.56.33.37.64.75.94 1.12.63.75 1.21 1.48 1.74 2.17.35.47.69.93 1.03 1.37.34.47.66.92.96 1.36.02.02.03.05.05.07.04.05.07.12.12.17.02.03.04.06.06.1.1.12.17.24.24.34l.02.02s.04.06.06.1.05.09.09.13c.21.32.43.64.62.94.13.01.26.03.4.04 1.23.14 2.79.35 4.61.72.5.11 1.03.21 1.56.33.8.18 1.66.4 2.53.64.59.16 1.2.34 1.82.52.07.02.15.05.24.08q.21.075.45.15l.38.13c.71.24 1.43.49 2.17.77.34.13.68.27 1.04.41q1.035.42 2.13.9c.35.16.72.33 1.08.5s.73.35 1.09.53.74.37 1.1.57c.37.19.74.4 1.11.61a32 32 0 0 1 1.79 1.05c.42.26.84.51 1.26.79.41.26.81.53 1.22.81a39 39 0 0 1 1.02.71c.49.35.97.72 1.46 1.09 1.25.96 2.43 1.95 3.53 2.95.35.32.71.64 1.05.97.41.4.8.78 1.19 1.18.38.4.76.78 1.12 1.18q.555.6 1.08 1.2c.35.4.68.8 1.02 1.2.28.32.53.65.79.98.65.81 1.25 1.61 1.81 2.42.24.33.47.67.69 1.01.24.33.45.66.65.99.32.49.63.98.92 1.46.3.49.59.97.84 1.44.2.38.42.76.62 1.12.81 1.52 1.49 2.94 2.04 4.22.11.26.21.51.32.76s.2.49.3.73c.07.19.15.37.22.56.14.36.27.71.38 1.03.06.16.12.33.17.48.07.21.15.42.21.61.01.03.02.06.03.1.05.16.11.32.16.47.12.36.22.69.32.99 6.24 1.1 14.03 3.54 20.6 9.44 1.39 1.25 2.67 2.61 3.84 4.07.02.03.04.05.06.09.25.3.48.6.71.91.5.65.97 1.31 1.41 2 .02.04.05.07.07.12.15.23.3.46.44.69.19.29.37.58.53.88.77 1.29 1.46 2.64 2.12 4.05.5 1.07.96 2.17 1.37 3.3a54 54 0 0 1 2.13 7.13c.1.42.19.83.28 1.25.09.43.18.85.26 1.27.09.43.16.87.24 1.29.07.44.15.87.21 1.3.21 1.34.38 2.69.53 4.07.07.78.15 1.56.2 2.35.12 1.51.19 3.05.24 4.6.02.48.02.96.03 1.45Z" class="cls-4th12"/><path d="M1781.07 701.17c.22 16.46-3.39 35.57-9.97 55.13-1.79 5.31-3.79 10.67-6.01 16.01-.31.77-.63 1.53-.96 2.3-.65 1.52-1.31 3.04-1.99 4.55-9.86 22.05-23.05 43.58-38.32 61.45-13.44 15.72-45.88 53.67-87.24 50.58-8.87-.66-16.1-3.06-21.01-5.12a72.02 72.02 0 0 1-54.12-10.89c-.3-.2-.59-.4-.87-.59-2.44-.2-5.22-.52-8.26-1.04-2.83-.48-5.89-1.13-9.14-2v-152.4c1.25-2.24 2.58-4.5 3.97-6.74 1.65-2.66 3.38-5.32 5.17-7.94 2.89-4.22 5.95-8.36 9.13-12.36 21.03-26.5 46.85-46.73 57.87-40.74 26.89 14.61-48.93 177.26-22.09 191.59 13.97 7.46 48.05-29.37 63.38-48.52 49.77-62.14 54.76-128.47 56.47-128.05 1.97.48 2.99 90.89-56.14 159.55-17.32 20.1-38.88 37.28-35.56 42.15 3.51 5.15 33.13-6.32 56.85-21.56 7.67-4.93 84.54-56.03 90-144.86a164.5 164.5 0 0 0-1.98-37.27c.02.03.04.05.06.09.25.3.48.6.71.91.49.64.96 1.31 1.41 2 .02.04.05.07.07.12.15.23.3.46.44.69.19.29.37.58.53.88.77 1.29 1.46 2.64 2.12 4.05.49 1.07.94 2.17 1.37 3.3.42 1.13.8 2.29 1.17 3.47a70 70 0 0 1 1.24 4.91c.09.43.18.85.26 1.27.09.43.16.87.24 1.29.07.44.15.87.21 1.3.21 1.34.38 2.69.53 4.07.07.78.15 1.56.2 2.35.12 1.51.19 3.05.24 4.6.02.48.02.96.03 1.45Z" class="cls-4th13"/><path d="M1616.87 582.14c-7.64-5.49-20.68-13.24-37.45-15.22h-.01c-2.1-.26-4.25-.42-6.47-.47-3.95-.1-7.78.16-11.49.71-3.13.46-6.18 1.12-9.13 1.98-3.15.9-6.2 2-9.14 3.26v-17.04c1.67-.73 4.86-2 9.14-3.06 2.65-.66 5.73-1.24 9.13-1.56 7.74-.72 17.12-.06 26.93 4.12 2.84 1.21 5.43 2.6 7.79 4.09.07.05.15.1.22.14 12.79 8.2 18.77 19.55 20.48 23.06Z" class="cls-4th8"/><path d="M1623.11 580.6c-.51.1-.99.21-1.46.31-1.25 1.48-2.48 2.98-3.7 4.48.49.09.98.19 1.47.27 1.23-1.68 2.46-3.37 3.69-5.06m73.51 29.06c-.35.47-.69.94-1.04 1.41.56-.16 1.12-.32 1.68-.49-.2-.29-.42-.61-.64-.92" class="cls-4th13"/><path d="M1696.5 707.54c-18.7 72.33-72.88 112.74-74.76 111.22-2.29-1.85 73.7-64.87 71.05-149.81-.12-3.91-.64-21.6-6.12-39.31-4.74-15.29-13.19-30.59-28.28-37.04-15.12-6.47-32.96-1.67-46.67 4.45-9.33 4.16-16.75 8.91-20.11 11.15-11.55 7.69-21.54 16.8-30.16 26.84-3.23 3.75-6.27 7.63-9.13 11.62-3.28 4.56-6.32 9.26-9.14 14.03v-10.36c.32-.51.65-1.03.98-1.54s.66-1.03 1-1.54c.07-.12.15-.24.24-.35.72-1.09 1.44-2.18 2.19-3.26.76-1.11 1.53-2.21 2.32-3.31.32-.46.66-.92.99-1.37.33-.46.67-.92 1-1.37.14-.18.27-.36.41-.55 2.88-3.85 5.91-7.63 9.13-11.33 6.37-7.32 13.43-14.31 21.24-20.84 7.19-6.01 14.11-10.86 20.2-14.72 5.45-3.43 10.25-6.08 13.98-8.02.82-.25 1.73-.5 2.7-.75.16-.04.32-.09.48-.12.26-.06.51-.13.77-.18a73 73 0 0 1 20.62-1.95h.02c.28 0 .55.02.82.04.17 0 .33.01.5.02.18.01.36.02.53.04.65.04 1.28.1 1.91.16 7.19.73 13.19 2.39 17.52 3.96a69 69 0 0 1 6 2.48c.12.05.24.11.34.16 1.38.66 2.69 1.36 3.97 2.07.31.17.62.35.92.52.73.43 1.44.85 2.14 1.3.87.56 1.7 1.11 2.52 1.68.77.54 1.53 1.09 2.26 1.64.03.02.07.05.11.09.38.3.76.59 1.12.88.37.3.74.59 1.09.89.41.32.8.65 1.19.99.38.33.77.67 1.13 1 2.48 2.22 4.61 4.46 6.41 6.56.33.37.64.75.94 1.12.63.75 1.21 1.48 1.74 2.17.35.47.69.93 1.03 1.37.34.47.66.92.96 1.36.02.02.03.05.05.07.04.05.07.12.12.17.02.03.04.06.06.1.07.12.15.22.22.33h.01s.01.02.02.03c.01.03.04.06.06.1s.05.09.09.13c.21.32.43.64.62.94 1.25 5.79 2.5 12.65 3.44 20.39 2.44 20.24 2.69 46.56-4.82 75.62Z" class="cls-4th8"/><path d="M1643.26 861.42c2.43 1.98 90.82-67.8 101.49-177.65 1.26-13 1.23-24.48.74-33.86-1.58-4.79-6.4-17.24-19.16-27.04-11.5-8.84-23.3-10.79-28.45-11.34-.19-.3-.41-.62-.63-.95 12.02 11.56 28.17 30.57 34.94 57.2 23.83 93.79-91.77 191.33-88.94 193.63Z" class="cls-4th8"/><path d="M1684.2 654.03c-.57 12.9-5.13 32.82-12.59 33.42-12.32.98-13.94-52.25-42.21-61.52-24.56-8.05-51.77 22.83-54.41 19.42-2.51-3.25 21.47-32.11 57.43-43.19 9.85-3.03 18.11-5.46 27.07-2.08 19.42 7.32 25.53 35.69 24.72 53.95Zm-107.71-63.2c-.01 6.68-6.35 10.56-15.04 16.55-2.83 1.96-5.93 4.14-9.13 6.71-.35.29-.72.59-1.08.89-3 2.49-5.68 5-8.06 7.47v-25.23c2.9-4.24 5.98-8.1 9.14-11.3.62-.62 1.24-1.22 1.86-1.79 2.91-2.65 5.31-4.18 7.27-5.03 2.84-1.26 4.76-1.09 5.9-.83 5 1.14 9.15 7.15 9.14 12.56" style="fill:#e59042"/><path d="M1673.31 519.71c1.32.84-4.63 13.85-13.76 26.13-5.62 7.56-17.03 22.9-24.83 20.32-3.35-1.11-5.85-5.46-5.29-8.92.88-5.43 8.99-6.57 17.89-11.41 18.26-9.93 24.51-27.06 25.99-26.12" class="cls-4th9"/><path d="M178.56 1458.09h.84c13.65-.04 34.77-1.82 57.91-10.89.95-.38 1.92-.76 2.88-1.16 7.12-2.95 14.4-6.61 21.7-11.13 18.22-11.29 31.04-24.53 39.54-35.11.16-.2.27-.4.35-.62.46-1.29-.48-2.8-1.97-2.77-2.71.03-5.5 0-8.33-.14-8.26-.39-16.91-1.6-25.41-4.17-9.1-2.74-18.03-7.04-26.08-13.57-22.84-18.46-24.48-46.51-45.84-52.1-7.92-2.08-15.79-.42-22.63 2.45-2.32.96-4.51 2.07-6.55 3.23-.01 0-.02.02-.03.02-.89.5-1.75 1.01-2.58 1.52-.37.23-.65.56-.82.96l-2.71 6.35c-.78 1.83 1.18 3.64 2.89 2.66.02 0 .03-.02.05-.03 3.18-1.83 6.85-3.2 10.92-3.46l.69-.03c2.26-.07 4.47.22 6.63.8 16.4 4.46 29.57 26.36 32.69 43.45 4.43 24.37-9.32 51.3-34.74 69.57-.19.13-.38.27-.57.4-1.64 1.16-.82 3.79 1.18 3.79Z" class="cls-4th11"/><path d="M177.38 1454.3c.19-.13.38-.27.57-.4 25.41-18.27 39.16-45.2 34.74-69.57-3.11-17.09-16.28-38.99-32.69-43.45-2.16-.59-4.38-.87-6.63-.8-.23 0-.46.02-.69.03-4.07.25-7.74 1.63-10.92 3.46-.02 0-.03.02-.05.03-1.7.99-3.67-.83-2.89-2.66l2.71-6.35c.17-.4.45-.73.82-.96.83-.51 1.68-1.02 2.58-1.52.01 0 .02-.02.03-.02 2.04-1.16 4.24-2.26 6.55-3.23a50 50 0 0 1 3.9-1.45c-5.82 3.77-12.36 8.35-11.7 9.73.68 1.43 7.96-3.01 15.71-2.6 18.66.98 39.25 30.09 39.66 56.9.16 10.45-2.71 22.76.04 23.62 1.22.38 2.22-1.91 4.65-4.08 11.03-9.82 32.59.2 36.1-7.19 1.01-2.13.29-4.76 2.71-7.13 1.63-1.6 3.83-2.23 4.69-2.48 2.16-.62 4.02-.56 5.16-.43l19.6 2.91c.76-.34 5.01-2.17 7.76-.27.22.15 2.37 1.57 1.97 2.77-.07.22-.19.43-.35.62-8.49 10.58-21.31 23.83-39.54 35.11a152 152 0 0 1-24.58 12.29c-23.14 9.07-44.25 10.86-57.91 10.89h-.84c-2 0-2.82-2.63-1.18-3.79Z" class="cls-4th15"/><path d="M434.61 1597.88c-.25.35-.5.69-.75 1.04a84 84 0 0 1-5.42 6.63 82 82 0 0 1-7.31 7.09c-8.85 7.59-17.69 11.96-23.39 14.36-.32.37-.68.79-1.09 1.24s-.87.92-1.37 1.42a43.2 43.2 0 0 1-6.94 5.65c-.82.55-1.7 1.08-2.62 1.6-.46.26-.94.51-1.43.77-.97.5-2 .98-3.07 1.43h-.01c-9.32 3.89-17.58 3.52-21.52 3.08a81.7 81.7 0 0 1-18.06 11.37 80.4 80.4 0 0 1-26.75 7.01 59.5 59.5 0 0 1-21.25 9.38c-10.5 2.33-19.27 1.25-24.29.26-4.07 1.72-10.05 3.74-17.4 4.3-24.48 1.85-45.17-13.87-59.06-27.83-.59-.59-1.15-1.16-1.72-1.75-1.11-1.15-2.18-2.29-3.21-3.4-.42-.45-.82-.9-1.22-1.34-.79-.88-1.55-1.73-2.28-2.57-.67-.78-1.33-1.53-1.95-2.24-1.03-1.2-1.97-2.32-2.81-3.32-.92-1.09-1.83-2.2-2.74-3.32a199 199 0 0 1-5.29-6.91c-.87-1.19-1.72-2.37-2.55-3.58-1.12-1.6-2.22-3.23-3.3-4.87q-1.305-1.965-2.55-3.99c-.83-1.34-1.67-2.69-2.48-4.05s-1.6-2.74-2.39-4.12c-.35-.61-.69-1.23-1.04-1.85-1.37-2.47-2.69-4.96-3.98-7.47-.95-1.88-1.88-3.77-2.79-5.68-.9-1.9-1.77-3.81-2.62-5.72s-1.66-3.84-2.45-5.75c-.52-1.29-1.03-2.58-1.53-3.85-.49-1.28-.97-2.55-1.44-3.84-.46-1.28-.91-2.57-1.36-3.84a191 191 0 0 1-1.27-3.83c-.81-2.54-1.57-5.08-2.27-7.6-.34-1.26-.67-2.5-.99-3.75-.31-1.25-.61-2.5-.9-3.74a131 131 0 0 1-1.49-7.35c-.21-1.2-.42-2.39-.6-3.58-.91-5.97-1.39-11.73-1.39-17.15 0-.76.01-1.51.03-2.24 0-.19.01-.39.01-.57.02-.59.04-1.16.07-1.74.05-.88.11-1.74.18-2.59.06-.78.14-1.54.24-2.29.09-.72.18-1.42.29-2.12l.03-.22c.11-.68.21-1.36.34-2.02l.03-.16c.27-1.4.58-2.76.94-4.07.18-.67.37-1.35.59-2 .2-.65.43-1.28.65-1.91.01-.01.01-.02.02-.04.22-.62.47-1.24.73-1.84.24-.57.48-1.1.73-1.64.04-.08.09-.16.12-.24.25-.5.49-.99.76-1.47.05-.11.12-.21.17-.31.28-.51.58-1.02.89-1.51.33-.53.67-1.07 1.04-1.57.36-.52.74-1.02 1.12-1.5.97-1.23 2.03-2.37 3.19-3.42 5.43-4.96 11.88-7 17.05-7.92.07-.26.16-.53.27-.83.3-.94.75-2.22 1.4-3.74.13-.3.26-.6.4-.91.01-.03.02-.06.04-.1.19-.43.41-.88.62-1.34.36-.76.78-1.55 1.24-2.37.15-.27.3-.53.46-.8s.32-.55.48-.81c.34-.54.69-1.1 1.06-1.67.19-.28.38-.56.58-.83.2-.29.41-.57.61-.85s.42-.57.64-.86c.21-.29.44-.57.67-.85.43-.53.88-1.07 1.35-1.6.25-.29.5-.58.76-.86l.64-.67c.33-.35.67-.69 1.03-1.04.35-.35.72-.7 1.09-1.04.59-.53 1.2-1.06 1.83-1.58.32-.27.64-.52.97-.78.78-.61 1.56-1.18 2.34-1.7.38-.27.77-.52 1.17-.77.04-.03.09-.05.12-.07.25-.16.5-.32.75-.47.1-.06.19-.12.29-.17.31-.18.61-.36.92-.53.58-.32 1.14-.63 1.72-.92.57-.3 1.12-.58 1.68-.82.37-.17.74-.33 1.1-.49.3-.13.59-.25.88-.36.29-.13.58-.23.87-.34.28-.11.56-.21.83-.31.56-.21 1.1-.4 1.64-.57.09-.03.16-.05.24-.08.38-.12.77-.23 1.14-.34.36-.11.73-.2 1.08-.3.51-.14 1-.26 1.49-.36.4-.09.79-.17 1.17-.25.15-.03.29-.05.43-.09.48-.1.94-.18 1.38-.25.21-.04.43-.07.63-.1s.41-.06.59-.09c.25-.03.48-.06.69-.1.04 0 .09 0 .13-.01l.31-.03c.16-.25.34-.5.51-.78.01 0 .01-.01.01-.01.07-.13.16-.26.26-.38.09-.13.17-.26.27-.38a61.6 61.6 0 0 1 6.35-7.81c.95-1 2.01-2.04 3.15-3.06.46-.42.93-.83 1.42-1.24.35-.31.71-.6 1.08-.89.53-.43 1.08-.86 1.65-1.27 0 0 0-.01.01-.01.57-.42 1.14-.83 1.73-1.25h.01c.6-.42 1.21-.82 1.84-1.23s1.28-.8 1.96-1.19c1.14-.66 2.34-1.3 3.59-1.91.27-.13.58-.28.93-.44.12-.06.25-.12.37-.17l1.36-.6c.69-.29 1.48-.6 2.34-.92.35-.14.71-.27 1.06-.38.1-.03.19-.06.3-.1.71-.25 1.46-.48 2.26-.72.34-.11.69-.2 1.06-.31.27-.07.53-.15.81-.21 1.85-.51 3.66-.89 5.41-1.17.32-.05.65-.11.98-.16.3-.04.6-.09.91-.13.4-.05.8-.11 1.21-.15.47-.05.96-.11 1.45-.15l.82-.06.98-.06c.4-.03.79-.04 1.19-.05 4.9-.16 9.21.28 12.65.85.43.07.86.15 1.26.24.25.04.49.1.74.15.21.03.42.09.62.13.2.03.4.08.59.13.15.03.3.06.44.1.3.06.59.14.88.21.28.07.53.14.79.2.37.1.73.19 1.08.3.17.04.35.1.51.15.09.02.17.05.26.07 1.42-2.94 6.37-12.47 16.96-19.35.06-.03.13-.08.19-.12 1.96-1.25 4.09-2.42 6.45-3.43.09-.03.17-.07.26-.11 3.11-1.33 6.18-2.21 9.13-2.77 3.2-.61 6.27-.82 9.14-.78v40.7c0 1.49.02 2.96.05 4.44.13 5.01.46 9.98 1 14.9.33 3.09.75 6.16 1.25 9.19 5.33 32.69 19.68 62.39 40.39 86.45a157 157 0 0 0 4.87 5.43c4.28 4.59 8.8 8.94 13.53 13.04 6.51 5.63 13.44 10.81 20.73 15.45 2.29 1.46 4.62 2.88 6.98 4.23 11.1 6.38 22.96 11.6 35.4 15.46Z" style="fill:#d66213"/><path d="M434.61 1597.88c-.25.35-.5.69-.75 1.04a84 84 0 0 1-5.42 6.63 82 82 0 0 1-7.31 7.09c-8.85 7.59-17.69 11.96-23.39 14.36-.32.37-.68.79-1.09 1.24s-.87.92-1.37 1.42a43.2 43.2 0 0 1-6.94 5.65c-.82.55-1.7 1.08-2.62 1.6-.46.26-.94.51-1.43.77-.97.5-2 .98-3.07 1.43h-.01c-9.32 3.89-17.58 3.52-21.52 3.08a81.7 81.7 0 0 1-18.06 11.37 80.4 80.4 0 0 1-26.75 7.01 59.5 59.5 0 0 1-21.25 9.38c-10.5 2.33-19.27 1.25-24.29.26-4.07 1.72-10.05 3.74-17.4 4.3-24.48 1.85-45.17-13.87-59.06-27.83-.59-.59-1.15-1.16-1.72-1.75-1.12-1.15-2.19-2.29-3.21-3.4-.42-.45-.82-.9-1.22-1.34-.79-.88-1.55-1.73-2.28-2.57-.68-.78-1.34-1.53-1.95-2.24-1.04-1.2-1.98-2.32-2.82-3.32a179 179 0 0 1-5.4-6.73c-.88-1.15-1.75-2.31-2.62-3.5s-1.72-2.37-2.55-3.58c-1.12-1.6-2.22-3.23-3.3-4.87q-1.305-1.965-2.55-3.99c-.83-1.34-1.67-2.69-2.48-4.05s-1.6-2.74-2.39-4.12c-.35-.61-.69-1.23-1.04-1.85-1.38-2.46-2.7-4.96-3.98-7.47-.95-1.88-1.88-3.77-2.79-5.68-.9-1.9-1.77-3.81-2.62-5.72s-1.66-3.84-2.45-5.75c-.52-1.29-1.03-2.58-1.53-3.85-.49-1.28-.97-2.55-1.44-3.84-.46-1.28-.91-2.57-1.36-3.84a191 191 0 0 1-1.27-3.83c-.81-2.54-1.57-5.08-2.27-7.6-.34-1.26-.67-2.5-.99-3.75-.31-1.25-.61-2.5-.9-3.74a131 131 0 0 1-1.49-7.35c-.21-1.2-.42-2.39-.6-3.58-.91-5.97-1.39-11.73-1.39-17.15 0-.76.01-1.51.03-2.24 0-.19.01-.39.01-.57.02-.59.04-1.16.07-1.74.05-.88.11-1.74.18-2.59.06-.78.14-1.54.24-2.29.09-.72.18-1.42.29-2.12l.03-.22c.11-.68.21-1.36.34-2.02l.03-.16c.27-1.4.58-2.76.94-4.07.18-.67.37-1.35.59-2 .2-.65.43-1.28.65-1.91.01-.01.01-.02.02-.04.22-.62.47-1.24.73-1.84.24-.57.48-1.1.73-1.64.04-.08.09-.16.12-.24.25-.5.49-.99.76-1.47.05-.11.12-.21.17-.31.28-.51.58-1.02.89-1.51.33-.53.67-1.07 1.04-1.57.36-.52.74-1.02 1.12-1.5-1.22 7.39-2.43 18.26-1.64 31.28 4.51 74.53 68.17 117.43 74.52 121.57 19.66 12.78 44.18 22.41 47.09 18.09 2.74-4.08-15.11-18.5-29.45-35.37-48.97-57.62-48.12-133.48-46.49-133.89 1.41-.35 5.55 55.32 46.75 107.47 12.7 16.05 40.92 46.97 52.48 40.7 22.23-12.03-40.56-148.51-18.3-160.77 7.33-4.04 22.59 6.12 37.33 21.82 8.1 8.62 16.04 18.9 22.45 29.39 7.16 11.77 12.24 23.57 15.89 34.74 11.97 36.54 8.81 66.38 14.13 66.55 4 .13 10.46-16.46 13.68-40.99.44-3.39.82-6.92 1.12-10.58.31-3.69.53-7.51.66-11.44 6.51 5.63 13.44 10.81 20.73 15.45-.26 3.89-.59 7.34-.89 10.29-.48 4.53-.92 7.9-1 9.91-.06 1.38.03 2.13.38 2.17.29.03.73-.38 1.29-1.22 1-1.49 2.39-4.28 3.98-8.16 1.02-2.49 2.11-5.43 3.22-8.77 11.1 6.38 22.96 11.6 35.4 15.46Z" style="fill:#cc5a0d"/><path d="M310.4 1388.59v13.55c-1.88-.15-3.79-.2-5.74-.16-1.15.03-2.29.09-3.4.18-.66.05-1.31.13-1.97.2-2.49.3-4.87.76-7.16 1.34-10.44 2.61-18.66 7.65-23.86 11.44 1.42-2.94 6.37-12.47 16.96-19.35.06-.03.13-.08.19-.12 1.96-1.25 4.09-2.42 6.45-3.43.09-.03.17-.07.26-.11 3.11-1.33 6.18-2.21 9.13-2.77 3.2-.61 6.27-.82 9.14-.78Z" class="cls-4th14"/><path d="M263.11 1413.85c.42.09.82.17 1.21.26 1.03 1.24 2.05 2.5 3.06 3.76-.41.08-.81.16-1.22.22-1.02-1.41-2.03-2.83-3.05-4.25Zm-60.88 24.39.86 1.19c-.46-.14-.93-.27-1.39-.41.16-.25.34-.51.53-.78" class="cls-4th13"/><path d="M312.7 1457.83c-3.3-3.75-6.83-7.34-10.6-10.72a117 117 0 0 0-9.72-7.86c-1.05-.76-2.12-1.51-3.2-2.23-2.78-1.87-8.91-5.87-16.64-9.36h-.01c-11.35-5.12-26.11-9.15-38.64-3.72-12.51 5.42-19.5 18.26-23.42 31.08-4.54 14.86-4.97 29.7-5.08 32.99-2.19 71.28 60.73 124.16 58.84 125.71-1.56 1.28-46.42-32.62-61.91-93.33-6.22-24.38-6.01-46.47-4-63.46.78-6.51 1.82-12.27 2.85-17.12.16-.25.34-.5.51-.78.01 0 .01-.01.01-.01.07-.13.16-.26.26-.38.09-.13.17-.26.27-.38a61.6 61.6 0 0 1 6.35-7.81c.95-1 2.01-2.04 3.15-3.06.46-.42.93-.83 1.42-1.24.35-.31.71-.6 1.08-.89.53-.43 1.08-.86 1.65-1.27 0 0 0-.01.01-.01.57-.42 1.14-.83 1.73-1.25h.01c.6-.43 1.21-.83 1.84-1.23.63-.41 1.28-.8 1.96-1.19 1.14-.66 2.34-1.3 3.59-1.91.27-.13.58-.28.93-.44.12-.06.25-.12.37-.17l1.36-.6c.69-.29 1.48-.6 2.34-.92.35-.14.71-.27 1.06-.38.1-.03.19-.06.3-.1.71-.25 1.46-.48 2.26-.72.34-.11.69-.2 1.06-.31.27-.07.53-.15.81-.21 1.66-.44 3.46-.83 5.41-1.17.32-.05.65-.11.98-.16.3-.04.6-.09.91-.13.4-.05.8-.11 1.21-.15.47-.05.96-.11 1.45-.15l.82-.06c.17-.02.34-.03.51-.04.16-.01.31-.02.47-.02.4-.03.79-.04 1.19-.05 4.78-.19 9.05.21 12.65.85.43.07.86.15 1.26.24.25.04.49.1.74.15.21.03.42.09.62.13.2.03.4.08.59.13.15.03.3.06.44.1.3.06.59.14.88.21.28.07.53.14.79.2.37.1.73.19 1.08.3.17.04.35.1.51.15.09.02.17.05.26.07 3.1 1.63 7.07 3.84 11.59 6.73 3.77 2.42 7.93 5.31 12.28 8.72 1.45 1.15 2.94 2.36 4.44 3.62 1.68 1.42 3.32 2.88 4.92 4.35 3.52 3.24 6.83 6.6 9.96 10.06.33 3.09.75 6.16 1.25 9.19Zm48.46 143.5c-.5.1-.72-10.08-2.65-25.7-.53-4.36-1.21-9.15-2.06-14.26-.9-5.38-2-11.12-3.35-17.09a157 157 0 0 0 4.87 5.43c.96 5.39 1.71 10.52 2.27 15.31.57 4.73.95 9.15 1.2 13.14.92 14.14.19 23.09-.28 23.17" class="cls-4th14"/><path d="M246.42 1649.51c-2.02 1.66-75.21-56.89-84.05-149.08a192 192 0 0 1-.61-28.42c1.31-4.02 5.3-14.47 15.87-22.69 9.52-7.42 19.3-9.06 23.56-9.51.16-.25.34-.52.52-.79-9.95 9.7-23.33 25.65-28.94 48-19.74 78.71 76 160.56 73.65 162.5Z" class="cls-4th14"/><path d="M212.52 1475.48c.47 10.82 4.25 27.55 10.43 28.04 10.21.82 11.54-43.85 34.95-51.62 20.34-6.76 42.87 19.16 45.06 16.3 2.08-2.72-17.78-26.94-47.55-36.24-8.15-2.55-15-4.58-22.41-1.75-16.08 6.14-21.14 29.95-20.47 45.28Zm97.93-41.75c-5.22-3.69-8.72-6.7-8.73-11.29-.01-4.54 3.43-9.59 7.57-10.54.31-.07.67-.14 1.11-.15v17.54c0 1.49.02 2.96.05 4.44" style="fill:#e2752b"/><path d="M221.54 1362.76c-1.09.71 3.83 11.62 11.39 21.93 4.66 6.34 14.11 19.21 20.56 17.05 2.78-.93 4.84-4.58 4.38-7.49-.73-4.56-7.44-5.51-14.81-9.57-15.12-8.33-20.3-22.71-21.52-21.92" class="cls-4th9"/><path d="M1575.02 1025.92c-1.36 8.62-4.17 16.13-7.43 22.45-2.26-1.11-4.3-2.3-6.15-3.53a49.3 49.3 0 0 1-9.13-7.79c-1.19-1.3-2.2-2.57-3.07-3.72-2.43-3.26-4.45-6.83-6.07-10.66-6.76-15.92-6.57-36.2 0-56.62 1.43-4.45 3.17-8.9 5.21-13.33.75.76 2.15 2.22 3.93 4.31 2.52 2.93 5.81 7.1 9.13 12.29 8.52 13.31 17.22 33.36 13.58 56.6m31.49-46.46c-6.01-3.81-9.44-8.28-11.42-11.6-8.67-14.57-6.45-35.82 4.68-54.91 2.72 3.45 19.85 25.88 13.22 51.8-1.48 5.76-3.87 10.67-6.48 14.72Zm18.66 185.59c-8.45 21.87-20.81 40.3-35.42 53.21-8.74 7.74-18.3 13.51-28.3 16.87-3 1-6.05 1.8-9.13 2.35-1.87.34-3.74.6-5.63.77-.22.02-.46.04-.69.05-.89.06-1.83.12-2.81.15v-9.68c-2.62-11.43-3.05-23.94-1.28-36.86.43-.38.84-.77 1.28-1.13 2.96-2.57 6.02-4.88 9.14-6.97 3-2.01 6.06-3.82 9.13-5.42 1.07-.57 2.15-1.1 3.22-1.61 27.03-12.99 54.67-12.01 60.51-11.73Zm-66.45-53.33c9.51 4.17 17.55 4.58 23.03 4.17 24.04-1.8 46.29-22.84 58.41-53.1-6.26-.4-46.53-2.33-70.28 28.22-5.28 6.8-8.8 13.98-11.16 20.71m46.39-94.96c6.49 2.82 11.97 3.09 15.71 2.8 16.39-1.27 31.52-15.66 39.74-36.3-4.27-.26-31.73-1.5-47.87 19.37-3.59 4.64-5.98 9.55-7.57 14.14Zm36.14-78.56c-.85-6.72.15-11.93 1.21-15.37 4.64-15.11 19.58-26.16 38.05-29.32-.73 4.07-5.79 30.14-26.18 40.7-4.54 2.35-9.02 3.51-13.08 4Z" class="cls-4th10"/><path d="M1635.16 948.68c-10.97 17.74-21.55 35.72-31.53 54.03a1131 1131 0 0 0-42.18 85.48c-3.12 7.04-6.17 14.13-9.13 21.25-3.13 7.51-6.18 15.05-9.14 22.63v-11.42c2.95-7.34 6-14.63 9.14-21.89 2.96-6.84 6.01-13.64 9.13-20.41 17.39-37.61 37.33-74.03 59.78-108.86a686 686 0 0 1 13.93-20.82Z" class="cls-4th6"/><path d="M281.82 1293.73c-19.55-49.09-40.45-62.52-56.38-65.3-20.84-3.65-39.98 9.72-82.39 5.62-9.73-.94-17.61-2.51-22.64-3.65 3.48 46.93 36.7 84.33 78.16 91.4 45.56 7.78 79.81-24.69 83.26-28.07Zm-35.63-124.76c-11.85-40.01-27.33-52.07-39.66-55.41-16.13-4.36-32.14 4.78-65.21-1.5-7.59-1.44-13.67-3.23-17.54-4.49-.63 37.16 22.82 68.96 54.91 77.5 35.27 9.39 64.54-13.69 67.5-16.1m-15.94-104.61c-2.9-33.3-13.12-45.24-22.27-49.83-11.96-6-25.99-1.39-50.94-11.6-5.73-2.34-10.21-4.72-13.05-6.33-6.43 29.06 6.88 57.77 30.71 69.6 26.18 13 52.84-.43 55.54-1.84Zm80.15 87.03v76.24c-3.25.19-6.32.18-9.14.06-3.47-.16-6.55-.49-9.13-.87-4.16-.6-6.97-1.3-7.87-1.54-.66-4.73-1.12-9.15-1.41-13.28-1.77-25.19 2.93-39.51 9.28-47.96 1.69-2.26 3.5-4.09 5.33-5.61 1.22-1 2.48-1.9 3.79-2.7 2.8-1.73 5.84-3.1 9.14-4.35Zm0-105.98v61.43a54 54 0 0 1-9.14 2.94c-3.11.72-6.17 1.13-9.13 1.35-7.24.51-13.81-.28-18.84-1.28-5.22-1.05-8.78-2.35-9.69-2.69-.83-24.24 3.53-37.79 9.25-45.56 2.16-2.93 4.51-5.04 6.84-6.6 3.72-2.46 7.79-3.78 12.45-4.94 2.81-.69 5.85-1.34 9.13-2.12 2.84-.68 5.88-1.49 9.14-2.53Zm-73.97-93.91c-3.24-27.48-12-37.11-19.68-40.68-10.05-4.67-21.54-.5-42.45-8.32-4.8-1.8-8.57-3.65-10.96-4.91-4.6 24.22 7.15 47.63 27.16 56.83 21.99 10.11 43.72-1.68 45.92-2.92Zm73.97-.76v44.52c-2.5 1.87-5.21 3.48-8.07 4.8-.35.16-.72.32-1.07.47a44.5 44.5 0 0 1-9.13 2.78c-18.11 3.43-33.87-5.12-35.73-6.17 3.24-27.48 12-37.11 19.68-40.68 4.75-2.2 9.82-2.43 16.05-2.89 2.78-.2 5.8-.46 9.13-.95 2.81-.41 5.84-.99 9.14-1.88m-54.82-63.18c20.51-6.07 26.69-14.01 28.4-20.33 2.24-8.27-2.45-16.47.77-33.42.74-3.89 1.66-7.01 2.3-8.99-19.05-.32-35.34 11.69-39.72 28.14-4.81 18.08 7.02 33.08 8.25 34.59Z" class="cls-4th9"/><path d="M310.4 1299.13v4.94c-3.15-6.41-6.2-12.87-9.14-19.38-3.16-7.01-6.21-14.09-9.13-21.21a641 641 0 0 1-12.14-32.05c-1.06-2.99-2.08-5.99-3.09-8.99-.99-3-1.98-6.01-2.94-9.02a668 668 0 0 1-11.41-40.24c-3.81-15.18-7.07-30.5-9.79-45.91a661 661 0 0 1-6.81-49.36 655 655 0 0 1-3.01-46.88 649 649 0 0 1-.13-32.12c.73-35.12 4.31-70.18 10.83-104.72-.61 4.84-1.27 9.68-1.8 14.54-.61 4.84-1.09 9.71-1.61 14.56-5.22 50.45-5.02 101.31.3 151.6 1.77 16.78 4.13 33.48 7.03 50.09 2.26 12.92 4.86 25.79 7.8 38.59 3.81 16.58 8.17 33.03 13.1 49.31 2.04 6.8 4.19 13.58 6.45 20.31.83 2.51 1.68 5.02 2.54 7.51a747 747 0 0 0 13.8 36.84c2.93 7.25 5.98 14.45 9.14 21.6Zm-24.3-34.59c-25.63-31.71-44.1-36.83-56.48-35.24-16.19 2.08-27.24 16.3-59.44 22.97a141 141 0 0 1-17.52 2.49c13.3 33.79 46.33 53.76 78.5 49.5 35.35-4.68 53.18-36.44 54.94-39.72m-54.78-83.81c-17.88-26.78-32.05-32.13-41.9-31.77-12.88.47-22.6 10.87-48.4 13.8-5.92.67-10.81.74-13.96.7 8.03 27.53 32.58 45.61 58.19 44.57 28.14-1.15 44.44-24.85 46.07-27.29Zm-35.66-73.46c-9.75-23.88-20.01-30.34-27.8-31.63-10.19-1.69-19.47 4.92-40.19 3.09-4.76-.42-8.61-1.15-11.06-1.68 1.9 22.89 18.28 41 38.54 44.28 22.27 3.6 38.85-12.39 40.52-14.06Z" class="cls-4th15"/><path d="M310.4 1116.94v81.6c-2.94 2.58-6.04 4.71-9.14 6.49a66 66 0 0 1-9.13 4.24 71 71 0 0 1-9.28 2.75c-1.59.36-3.07.64-4.38.84-1.87.3-3.41.47-4.51.56-.81.07-1.39.11-1.7.12-8.73-18.6-10.79-31.39-9.71-40.36.45-3.87 1.49-7.02 2.81-9.62.42-.82.87-1.58 1.34-2.3 5.31-8.11 14.48-11.79 25.43-21.84 2.93-2.68 5.99-5.83 9.13-9.63.75-.91 1.51-1.86 2.27-2.84 2.99-3.88 5.27-7.38 6.87-10Zm-80.39 14.25c-8.47-24.36-5.05-35.99-.06-42.11 6.52-8 17.86-9.19 32.2-24.26 3.29-3.46 5.7-6.55 7.19-8.58 13.71 18.43 13.4 42.84.37 58.7-14.32 17.43-37.34 16.39-39.69 16.25Zm-55.59-108.51c-8.67-19.51-17.32-24.61-23.8-25.48-8.47-1.14-15.99 4.56-33.19 3.57a74 74 0 0 1-9.2-1.11c2.15 18.9 16.16 33.47 33.01 35.68 18.52 2.42 31.84-11.23 33.18-12.65Zm25.15 29.07c-3.9-21 .36-30.09 5.2-34.48 6.34-5.74 15.76-5.29 29.38-15.84a73 73 0 0 0 6.95-6.12c8.92 16.8 5.62 36.74-7.03 48.09-13.9 12.48-32.61 8.76-34.51 8.34Zm-25.65-80.57c13.73-9.16 16.47-16.42 16.28-21.47-.24-6.6-5.57-11.58-7.07-24.81-.35-3.04-.38-5.54-.36-7.15-14.11 4.12-23.37 16.7-22.84 29.82.59 14.42 12.73 22.78 13.99 23.61" class="cls-4th15"/><path d="M310.4 1264.22v2.31c-3.1-3.25-6.14-6.54-9.14-9.87-3.09-3.43-6.14-6.91-9.13-10.42-1.57-1.84-3.13-3.69-4.67-5.55-2.52-3.06-5.02-6.14-7.47-9.26a510 510 0 0 1-39.73-58.2 511 511 0 0 1-29.3-58.13 510 510 0 0 1-16.27-43.45c-6.61-20.46-11.91-41.33-15.8-62.48a486 486 0 0 1-4.9-32.68c.66 3.72 1.28 7.43 2 11.13 1.34 7.3 2.81 14.57 4.45 21.8.84 3.78 1.74 7.57 2.68 11.33 4.15 17.26 9.13 34.3 14.91 51.05 5.4 15.67 11.5 31.09 18.28 46.21a570 570 0 0 0 27.12 53.06 582 582 0 0 0 48.71 71.34c2.99 3.76 6.04 7.48 9.13 11.17 3 3.58 6.05 7.13 9.14 10.64Z" class="cls-4th15"/><path d="M1738.72 1409.89c-36.98 70.23-98.6 115.18-161.35 112.77-9.53-.36-21.96-1.93-36.27-6.74-2.77-.93-5.62-1.99-8.54-3.19-2.75-1.12-5.55-2.37-8.41-3.75 5.02-9.9 9.15-20.33 12.25-31.19-.32-.25-.65-.49-.96-.74.6-.82 1.22-1.65 1.85-2.47 3.75-4.93 7.91-9.78 12.5-14.52l1.29-1.32c2.8-2.82 5.68-5.5 8.6-8.04.21-.19.43-.37.65-.56 12.34-10.6 25.63-18.75 39.22-24.97 2.05-.94 4.12-1.84 6.18-2.69h.01c58.66-24.3 120.79-14.68 132.98-12.6Zm-144.94-62.82c17.35 7.42 31.94 8.41 41.87 7.92 43.57-2.16 83.46-37.02 104.77-87.87-11.37-.91-84.46-5.67-126.86 45.24-9.43 11.33-15.65 23.38-19.78 34.71m39.82-132.03c13.19 4.35 23.95 4.16 31.21 3.18 31.82-4.32 58.9-32.39 71.33-71.03-8.4.04-62.31 1.14-90.21 41.15-6.21 8.9-10.01 18.13-12.33 26.7m21.96-96.53c9.25 2.03 16.53 1.15 21.38-.02 21.28-5.15 37.68-26.08 43.41-53.15-5.69.62-42.17 5.13-58.3 34.21-3.59 6.47-5.52 12.99-6.49 18.97Zm-61.49 132.46c-.74 10.82-3.56 20.39-7.13 28.53-12.34-4.62-20.39-11.05-25.49-16.25-.28-.29-.56-.57-.81-.84a66 66 0 0 1-8.32-10.89c-2.54-4.13-4.65-8.55-6.33-13.21a81 81 0 0 1-2.81-9.53c-2.62-11.43-3.05-23.94-1.28-36.86.34-2.51.77-5.03 1.28-7.58 1.45-7.28 3.59-14.64 6.4-21.98.62.5 1.55 1.27 2.74 2.31 2.29 1.97 5.49 4.9 9.13 8.67 1.05 1.08 2.12 2.22 3.22 3.44 8.88 9.82 19.28 24.05 25.09 41.48 3.31 9.93 5.13 20.91 4.32 32.71Zm30.25-97.97c-8.86-3.35-14.48-8.06-17.9-11.69-15.02-15.93-17.33-42.42-7.36-68.23 4.43 3.62 32.54 27.32 30.18 60.48-.53 7.38-2.46 13.9-4.91 19.44Zm33.13-102.62c6.71-5.22 10.28-10.76 12.25-14.79 8.65-17.65 3.6-40.99-11.81-60.48-2.84 4.28-20.66 32.07-9.82 59.9 2.41 6.19 5.81 11.27 9.37 15.37Z" class="cls-4th1"/><path d="M1654.28 1065.22c-2.61 20.66-6.04 41.21-9.91 61.68-17.02 86.89-45.13 171.6-82.93 251.73-.34.73-.68 1.45-1.03 2.17-2.65 5.59-5.34 11.16-8.1 16.71-2.99 6.05-6.04 12.07-9.14 18.05v-9.97c3.1-6.36 6.15-12.73 9.14-19.13 1.95-4.13 3.86-8.26 5.74-12.42 1.14-2.49 2.27-4.98 3.39-7.48 9.12-20.32 17.71-40.87 25.75-61.63 22.4-57.95 40.68-118.03 54.56-178.57 4.71-20.26 8.76-40.66 12.53-61.12Z" class="cls-4th1"/><path d="M1560.52 1448.44c-.16.48-.34.95-.51 1.43-.11.28-.2.56-.32.83-3.44 9.12-8.01 17.18-13.01 24.2-1.62 2.28-3.29 4.45-4.98 6.5-1.88-1.2-3.63-2.41-5.29-3.62-.32-.25-.65-.49-.96-.74.6-.82 1.22-1.65 1.85-2.47 3.85-14.45 5.89-29.63 5.89-45.28v-84.47c2.76 4.23 5.99 9.64 9.14 16.02 1.99 4.03 3.95 8.44 5.74 13.18.83 2.19 1.61 4.45 2.36 6.77.35 1.12.69 2.26 1.03 3.41 5.38 18.61 7.26 40.93-.93 64.24Zm52.24-54.62c-9.06-7-13.64-14.45-16.08-19.88-10.73-23.79-1.56-55.4 21.95-81.92 3.65 5.77 26.5 43.17 8.74 80.92-3.95 8.4-9.2 15.3-14.61 20.88m65.31-60.63c-6.14-5.71-8.99-11.48-10.42-15.63-6.25-18.2 2.52-40.97 21.42-59.12 2.28 4.47 16.47 33.44 1.03 60.22-3.43 5.96-7.72 10.74-12.03 14.53m49.72-40.51c-3.72-4.31-5.21-8.44-5.86-11.37-2.87-12.84 4.71-27.81 18.76-38.95 1.21 3.21 8.63 23.94-3.73 41.2-2.75 3.84-5.99 6.82-9.17 9.12m-141.75 162.25c8.79 7.29 17.34 10.35 23.41 11.75 26.65 6.14 58.28-7.49 82.25-33.64-6.63-2.47-49.5-17.67-86.15 4.94-8.15 5.03-14.54 11.03-19.51 16.96Zm67.63-77.68c6.39 5.45 12.65 7.78 17.1 8.87 19.54 4.77 42.94-4.99 60.83-24.04-4.85-1.88-36.22-13.47-63.41 2.85-6.05 3.63-10.8 7.99-14.52 12.32m62.79-57.67c4.37 3.71 8.64 5.28 11.68 6.02 13.33 3.22 29.27-3.47 41.43-16.48-3.31-1.27-24.72-9.12-43.23 2.05-4.12 2.48-7.35 5.46-9.88 8.42Zm50.16-48.27c1.17-5.13 3.39-8.68 5.17-10.93 7.82-9.87 22.68-14.17 38.18-11.81-1.69 2.79-12.85 20.56-31.9 23.12-4.24.57-8.11.28-11.45-.39Z" class="cls-4th10"/><path d="M1540.68 1510.26c44.45-74.89 102.16-142.09 169.89-196.87 15.46-12.7 31.78-24.78 48.35-35.96-85.85 63.93-159.68 143.3-218.24 232.83" class="cls-4th6"/><path d="M737.97 1613.76c0 .4-.03.79-.1 1.18-.5 3.19-3.03 6.25-7.29 9.13-7.92 5.36-21.83 10.06-39.87 13.69 22.16 19.52 33.71 36.11 28.92 44.41-4.79 8.29-24.95 6.58-52.92-2.84 9.43 27.97 11.14 48.13 2.84 52.92-8.31 4.8-24.91-6.77-44.41-28.92-5.83 28.95-14.42 47.26-24 47.26s-18.18-18.31-24.01-47.26c-19.51 22.16-36.11 33.72-44.41 28.92-8.29-4.79-6.58-24.95 2.85-52.92-27.98 9.43-48.14 11.14-52.93 2.84-4.79-8.31 6.77-24.89 28.92-44.41-18.79-3.78-33.1-8.73-40.83-14.36-4.17-3.05-6.42-6.29-6.42-9.64v-.19c.07-2.98 1.92-5.87 5.32-8.6 5.68.56 11.44.83 17.25.83h246.73c2.83 2.54 4.34 5.22 4.34 7.96Z" class="cls-4th13"/><path d="M689.93 1641.61c-1.96 6.22-15.58 8.07-35.55 5.94 10.4 17.18 14.53 30.3 9.73 34.72-4.8 4.4-17.53-.8-33.77-12.62.43 20.07-2.57 33.5-8.93 34.92-6.37 1.42-14.78-9.46-22.94-27.81-9.66 17.61-18.97 27.74-25.19 25.78s-8.06-15.58-5.94-35.55c-17.18 10.4-30.3 14.53-34.72 9.73-4.4-4.8.81-17.53 12.62-33.77-20.07.43-33.5-2.57-34.92-8.92-.66-2.95 1.34-6.35 5.49-9.96 3.4-2.95 8.24-6.03 14.27-9.13 2.48-1.28 5.17-2.57 8.05-3.84-3.25-1.78-6.24-3.56-8.95-5.3h154.3c-4.1 2.99-9.55 6.07-16.09 9.14-1.06.5-2.14.99-3.25 1.49 4.71 2.59 8.89 5.15 12.45 7.64 9.72 6.79 14.75 13 13.33 17.55Z" class="cls-4th12"/><path d="M641.28 1624.06c-1.95.38-4.12.71-6.49.96 7.12 7.54 10.62 13.71 8.69 16.46-1.95 2.75-8.94 1.51-18.42-2.69 2.39 10.09 2.34 17.19-.71 18.6-3.06 1.41-8.5-3.17-14.6-11.54-2.97 9.93-6.56 16.05-9.92 15.74-3.35-.3-5.76-6.98-6.86-17.29-7.54 7.12-13.71 10.64-16.46 8.69s-1.51-8.94 2.69-18.42c-10.09 2.39-17.19 2.35-18.6-.71-1.03-2.22 1.12-5.71 5.6-9.8 1.67-1.53 3.67-3.13 5.94-4.8-4.49-1.35-8.21-2.81-10.89-4.33-3.26-1.84-5.02-3.75-4.85-5.58.12-1.35 1.27-2.54 3.27-3.56h79.85c-.98.8-2.05 1.62-3.19 2.45 6.79 2.03 11.8 4.35 14.18 6.69 1.11 1.08 1.66 2.17 1.56 3.23-.24 2.58-4.25 4.61-10.81 5.9Z" class="cls-4th8"/><path d="M250.75 736.02c0-5.38-10.27-10.2-26.51-13.46 12.43-10.95 18.92-20.26 16.23-24.91-2.69-4.66-13.99-3.7-29.69 1.6 5.29-15.7 6.25-27 1.6-29.69-4.66-2.69-13.97 3.8-24.91 16.23-3.26-16.24-8.09-26.51-13.46-26.51s-10.2 10.27-13.46 26.51c-10.95-12.43-20.26-18.92-24.91-16.23-4.66 2.69-3.7 13.99 1.6 29.69-15.7-5.29-27-6.25-29.69-1.6-2.69 4.66 3.8 13.97 16.23 24.91-16.24 3.27-26.51 8.09-26.51 13.46s10.27 10.2 26.51 13.46c-12.43 10.95-18.92 20.26-16.23 24.91 2.69 4.66 13.99 3.7 29.69-1.6-5.29 15.7-6.25 27-1.6 29.69 4.66 2.69 13.97-3.8 24.91-16.23 3.27 16.24 8.09 26.51 13.46 26.51s10.2-10.27 13.46-26.51c10.95 12.43 20.26 18.92 24.91 16.23 4.66-2.69 3.7-13.99-1.6-29.69 15.7 5.29 27 6.25 29.69 1.6 2.69-4.66-3.8-13.97-16.23-24.91 16.24-3.27 26.51-8.09 26.51-13.46" class="cls-4th13"/><path d="M223.8 751.65c1.09-3.49-4.59-8.71-14.46-14.13 10.29-4.57 16.4-9.29 15.6-12.86s-8.33-5.25-19.59-5.01c6.63-9.11 9.55-16.25 7.08-18.94s-9.84-.38-19.47 5.46c1.19-11.2.15-18.85-3.34-19.94s-8.71 4.59-14.13 14.46c-4.57-10.29-9.29-16.4-12.86-15.6s-5.25 8.33-5.01 19.59c-9.11-6.63-16.25-9.55-18.94-7.08s-.38 9.84 5.46 19.47c-11.2-1.19-18.85-.15-19.94 3.34s4.59 8.71 14.46 14.13c-10.29 4.57-16.4 9.29-15.6 12.86s8.33 5.25 19.59 5.01c-6.63 9.11-9.55 16.25-7.08 18.94s9.84.38 19.47-5.46c-1.19 11.2-.15 18.85 3.34 19.94s8.71-4.59 14.13-14.46c4.57 10.29 9.29 16.4 12.86 15.6s5.25-8.33 5.01-19.59c9.11 6.63 16.25 9.55 18.94 7.08s.38-9.84-5.46-19.47c11.2 1.19 18.85.15 19.94-3.34" class="cls-4th12"/><path d="M197.75 751.58c1.09-1.54-.88-5.01-4.87-9.23 5.78-.62 9.53-1.97 9.7-3.85s-3.26-3.9-8.84-5.56c4.7-3.43 7.27-6.47 6.48-8.19-.79-1.71-4.77-1.74-10.43-.4 2.36-5.32 3.06-9.24 1.51-10.33s-5.01.88-9.23 4.87c-.62-5.78-1.97-9.53-3.85-9.7s-3.9 3.26-5.56 8.84c-3.43-4.7-6.47-7.27-8.19-6.48-1.71.79-1.74 4.77-.4 10.43-5.32-2.36-9.24-3.06-10.33-1.51-1.09 1.54.88 5.01 4.87 9.23-5.78.62-9.53 1.97-9.7 3.85s3.26 3.9 8.84 5.56c-4.7 3.43-7.27 6.47-6.48 8.19.79 1.71 4.77 1.74 10.43.4-2.36 5.32-3.06 9.24-1.51 10.33s5.01-.88 9.23-4.87c.62 5.78 1.97 9.53 3.85 9.7s3.9-3.26 5.56-8.84c3.43 4.7 6.47 7.27 8.19 6.48 1.71-.79 1.74-4.77.4-10.43 5.32 2.36 9.24 3.06 10.33 1.51" class="cls-4th8"/><path d="M1902.75 1084.58c0-5.38-10.27-10.2-26.51-13.46 12.43-10.95 18.92-20.26 16.23-24.91-2.69-4.66-13.99-3.7-29.69 1.6 5.29-15.7 6.25-27 1.6-29.69-4.66-2.69-13.97 3.8-24.91 16.23-3.26-16.24-8.09-26.51-13.46-26.51s-10.2 10.27-13.46 26.51c-10.95-12.43-20.26-18.92-24.91-16.23-4.66 2.69-3.7 13.99 1.6 29.69-15.7-5.29-27-6.25-29.69-1.6-2.69 4.66 3.8 13.97 16.23 24.91-16.24 3.27-26.51 8.09-26.51 13.46s10.27 10.2 26.51 13.46c-12.43 10.95-18.92 20.26-16.23 24.91 2.69 4.66 13.99 3.7 29.69-1.6-5.29 15.7-6.25 27-1.6 29.69 4.66 2.69 13.97-3.8 24.91-16.23 3.27 16.24 8.09 26.51 13.46 26.51s10.2-10.27 13.46-26.51c10.95 12.43 20.26 18.92 24.91 16.23 4.66-2.69 3.7-13.99-1.6-29.69 15.7 5.29 27 6.25 29.69 1.6 2.69-4.66-3.8-13.97-16.23-24.91 16.24-3.27 26.51-8.09 26.51-13.46" class="cls-4th13"/><path d="M1875.81 1100.21c1.09-3.49-4.59-8.71-14.46-14.13 10.29-4.57 16.4-9.29 15.6-12.86s-8.33-5.25-19.59-5.01c6.63-9.11 9.55-16.25 7.08-18.94s-9.84-.38-19.47 5.46c1.19-11.2.15-18.85-3.34-19.94s-8.71 4.59-14.13 14.46c-4.57-10.29-9.29-16.4-12.86-15.6s-5.25 8.33-5.01 19.59c-9.11-6.63-16.25-9.55-18.94-7.08s-.38 9.84 5.46 19.47c-11.2-1.19-18.85-.15-19.94 3.34s4.59 8.71 14.46 14.13c-10.29 4.57-16.4 9.29-15.6 12.86s8.33 5.25 19.59 5.01c-6.63 9.11-9.55 16.25-7.08 18.94s9.84.38 19.47-5.46c-1.19 11.2-.15 18.85 3.34 19.94s8.71-4.59 14.13-14.46c4.57 10.29 9.29 16.4 12.86 15.6s5.25-8.33 5.01-19.59c9.11 6.63 16.25 9.55 18.94 7.08s.38-9.84-5.46-19.47c11.2 1.19 18.85.15 19.94-3.34" class="cls-4th12"/><path d="M1849.75 1100.14c1.09-1.54-.88-5.01-4.87-9.23 5.78-.62 9.53-1.97 9.7-3.85s-3.26-3.9-8.84-5.56c4.7-3.43 7.27-6.47 6.48-8.19-.79-1.71-4.77-1.74-10.43-.4 2.36-5.32 3.06-9.24 1.51-10.33s-5.01.88-9.23 4.87c-.62-5.78-1.97-9.53-3.85-9.7s-3.9 3.26-5.56 8.84c-3.43-4.7-6.47-7.27-8.19-6.48-1.71.79-1.74 4.77-.4 10.43-5.32-2.36-9.24-3.06-10.33-1.51s.88 5.01 4.87 9.23c-5.78.62-9.53 1.97-9.7 3.85s3.26 3.9 8.84 5.56c-4.7 3.43-7.27 6.47-6.48 8.19.79 1.71 4.77 1.74 10.43.4-2.36 5.32-3.06 9.24-1.51 10.33 1.54 1.09 5.01-.88 9.23-4.87.62 5.78 1.97 9.53 3.85 9.7s3.9-3.26 5.56-8.84c3.43 4.7 6.47 7.27 8.19 6.48 1.71-.79 1.74-4.77.4-10.43 5.32 2.36 9.24 3.06 10.33 1.51" class="cls-4th8"/><path d="M301.26 1205.03v48.55c3 3.58 6.05 7.13 9.14 10.64v-65.67c-2.94 2.58-6.04 4.71-9.14 6.49Zm0 0v48.55c3 3.58 6.05 7.13 9.14 10.64v-65.67c-2.94 2.58-6.04 4.71-9.14 6.49Zm0 0v48.55c3 3.58 6.05 7.13 9.14 10.64v-65.67c-2.94 2.58-6.04 4.71-9.14 6.49Zm0 0v48.55c3 3.58 6.05 7.13 9.14 10.64v-65.67c-2.94 2.58-6.04 4.71-9.14 6.49Zm1241.41-714.74c-4-11.91-9.17-23.27-15.39-33.96a186.4 186.4 0 0 0-33.86-42.47c-17.22-16.11-37.51-28.97-59.9-37.6h-.01a184.2 184.2 0 0 0-52.16-11.81h-.01q-4.83-.39-9.72-.51c-1.64-.04-3.28-.06-4.93-.06h-879.8c-102.53 0-185.64 83.11-185.64 185.64v879.79c0 3.11.07 6.2.24 9.28.13 2.86.34 5.71.61 8.53 4.24 44.56 24.23 84.52 54.34 114.27 1.25 1.24 2.51 2.45 3.79 3.65 3.41 3.2 6.95 6.25 10.6 9.17 6.49 5.22 13.34 9.99 20.5 14.3q2.31 1.395 4.65 2.7a185.3 185.3 0 0 0 32.45 14.36 184.5 184.5 0 0 0 35.87 8.02c7.4.91 14.93 1.37 22.58 1.37h879.79c72.52 0 135.33-41.58 165.88-102.21 6.01-11.93 10.76-24.6 14.11-37.82 1.23-4.87 2.27-9.82 3.11-14.85 1.67-10.01 2.53-20.29 2.53-30.76V549.53c0-20.7-3.39-40.62-9.65-59.22Zm.51 475.76c-6.57 20.42-6.76 40.7 0 56.62v161.67c-.51 2.54-.94 5.07-1.28 7.58-1.76 12.91-1.34 25.43 1.28 36.86v200.53c0 15.65-2.04 30.83-5.89 45.28-.63.82-1.25 1.65-1.85 2.47.31.25.64.49.96.74a175.5 175.5 0 0 1-12.25 31.19c-29.16 57.4-88.79 96.82-157.47 96.82H486.89c-5.81 0-11.58-.28-17.25-.83a175 175 0 0 1-35.03-7.08 175 175 0 0 1-35.4-15.46c-2.36-1.36-4.69-2.77-6.98-4.23-7.29-4.64-14.22-9.81-20.73-15.45-4.74-4.1-9.26-8.46-13.53-13.04-1.67-1.77-3.29-3.58-4.87-5.43-20.72-24.06-35.06-53.77-40.39-86.45-.5-3.04-.92-6.1-1.25-9.19-.55-4.92-.88-9.89-1-14.9-.03-1.47-.05-2.95-.05-4.44V549.52c0-97.32 79.17-176.5 176.5-176.5h857.62c-7.97 4.03-12.43 8.52-12.43 13.24 0 9.59 18.32 18.18 47.27 24-22.16 19.52-33.72 36.12-28.94 44.41 4.8 8.31 24.95 6.6 52.93-2.84-9.44 27.98-11.15 48.13-2.84 52.93 8.29 4.79 24.89-6.78 44.41-28.93 5.81 28.95 14.41 47.27 24 47.27s18.18-18.32 24-47.27c19.52 22.16 36.12 33.72 44.41 28.93.03-.02.06-.03.09-.06 3.77 14.31 5.77 29.34 5.77 44.82v416.54ZM301.26 1205.03v48.55c3 3.58 6.05 7.13 9.14 10.64v-65.67c-2.94 2.58-6.04 4.71-9.14 6.49Zm0 0v48.55c3 3.58 6.05 7.13 9.14 10.64v-65.67c-2.94 2.58-6.04 4.71-9.14 6.49Zm0 0v48.55c3 3.58 6.05 7.13 9.14 10.64v-65.67c-2.94 2.58-6.04 4.71-9.14 6.49Z" style="fill:#fff"/><path d="M1543.18 572.39v77.94c.32-.51.65-1.03.98-1.54s.66-1.03 1-1.54c.07-.12.15-.24.24-.35.72-1.09 1.44-2.18 2.19-3.26.76-1.11 1.53-2.21 2.32-3.31.32-.46.66-.92.99-1.37.33-.46.67-.92 1-1.37.14-.18.27-.36.41-.55v-67.92c-3.15.9-6.2 2-9.14 3.26ZM301.26 1205.03v48.55c3 3.58 6.05 7.13 9.14 10.64v-65.67c-2.94 2.58-6.04 4.71-9.14 6.49Zm1241.92-632.64v77.94c.32-.51.65-1.03.98-1.54s.66-1.03 1-1.54c.07-.12.15-.24.24-.35.72-1.09 1.44-2.18 2.19-3.26.76-1.11 1.53-2.21 2.32-3.31.32-.46.66-.92.99-1.37.33-.46.67-.92 1-1.37.14-.18.27-.36.41-.55v-67.92c-3.15.9-6.2 2-9.14 3.26ZM301.26 1205.03v48.55c3 3.58 6.05 7.13 9.14 10.64v-65.67c-2.94 2.58-6.04 4.71-9.14 6.49Zm1241.92-632.64v77.94c.32-.51.65-1.03.98-1.54s.66-1.03 1-1.54c.07-.12.15-.24.24-.35.72-1.09 1.44-2.18 2.19-3.26.76-1.11 1.53-2.21 2.32-3.31.32-.46.66-.92.99-1.37.33-.46.67-.92 1-1.37.14-.18.27-.36.41-.55v-67.92c-3.15.9-6.2 2-9.14 3.26ZM301.26 1205.03v48.55c3 3.58 6.05 7.13 9.14 10.64v-65.67c-2.94 2.58-6.04 4.71-9.14 6.49Zm0 0v48.55c3 3.58 6.05 7.13 9.14 10.64v-65.67c-2.94 2.58-6.04 4.71-9.14 6.49Zm1234.03-752.94c-.48-.82-.96-1.65-1.45-2.46a195.5 195.5 0 0 0-26.01-34.19c-20.13-21.17-44.94-37.84-72.76-48.29h-.01a193.3 193.3 0 0 0-52.65-11.77c-3.7-.3-7.42-.49-11.16-.58-1.52-.03-3.04-.05-4.56-.05h-879.8c-107.39 0-194.76 87.37-194.76 194.76v879.79c0 .44 0 .87.01 1.3.01 2.9.1 5.78.25 8.65.27 5.33.75 10.61 1.44 15.82.4 3 .87 6 1.4 8.96 1.93 10.68 4.74 21.06 8.34 31.05 8.58 23.88 21.72 45.61 38.34 64.13 5.21 5.8 10.74 11.29 16.6 16.42.96.86 1.95 1.7 2.93 2.52 2.69 2.29 5.46 4.49 8.28 6.62 6.56 4.97 13.45 9.52 20.62 13.63.56.32 1.11.64 1.68.95 9.27 5.2 18.99 9.65 29.12 13.29 15.7 5.65 32.34 9.34 49.61 10.76 5.32.44 10.71.66 16.15.66h879.79c76.3 0 142.5-44.1 174.42-108.15 2.95-5.91 5.61-11.99 7.95-18.24.35-.92.69-1.85 1-2.78 0-.01.01-.02.01-.03h.01s.01-.02.01-.03a193 193 0 0 0 10.24-44.68c.06-.57.12-1.13.18-1.71.61-6.3.93-12.69.93-19.14V549.51c0-35.47-9.52-68.74-26.16-97.42Zm7.89 977.21c0 15.65-2.04 30.83-5.89 45.28-.28 1.08-.58 2.14-.89 3.21a175.5 175.5 0 0 1-12.25 31.19c-29.16 57.4-88.79 96.82-157.47 96.82H486.89c-5.81 0-11.58-.28-17.25-.83a175 175 0 0 1-35.03-7.08 175 175 0 0 1-35.4-15.46c-2.36-1.36-4.69-2.77-6.98-4.23-7.29-4.64-14.22-9.81-20.73-15.45-4.74-4.1-9.26-8.46-13.53-13.04-1.67-1.77-3.29-3.58-4.87-5.43-20.72-24.06-35.06-53.77-40.39-86.45-.5-3.04-.92-6.1-1.25-9.19-.55-4.92-.88-9.89-1-14.9-.03-1.47-.05-2.95-.05-4.44V549.51c0-97.32 79.17-176.5 176.5-176.5h879.79c8.54 0 16.95.61 25.17 1.8 11.16 1.59 21.99 4.24 32.38 7.84 26.74 9.26 50.59 24.76 69.77 44.77 7.3 7.6 13.91 15.83 19.76 24.64a175.6 175.6 0 0 1 23.64 52.64c3.77 14.31 5.77 29.34 5.77 44.82v879.79ZM301.26 1205.03v48.55c3 3.58 6.05 7.13 9.14 10.64v-65.67c-2.94 2.58-6.04 4.71-9.14 6.49Zm0 0v48.55c3 3.58 6.05 7.13 9.14 10.64v-65.67c-2.94 2.58-6.04 4.71-9.14 6.49Zm1241.92-632.64v77.94c.32-.51.65-1.03.98-1.54s.66-1.03 1-1.54c.07-.12.15-.24.24-.35.72-1.09 1.44-2.18 2.19-3.26.76-1.11 1.53-2.21 2.32-3.31.32-.46.66-.92.99-1.37.33-.46.67-.92 1-1.37.14-.18.27-.36.41-.55v-67.92c-3.15.9-6.2 2-9.14 3.26ZM301.26 1205.03v48.55c3 3.58 6.05 7.13 9.14 10.64v-65.67c-2.94 2.58-6.04 4.71-9.14 6.49Zm1241.92-632.64v77.94c.32-.51.65-1.03.98-1.54s.66-1.03 1-1.54c.07-.12.15-.24.24-.35.72-1.09 1.44-2.18 2.19-3.26.76-1.11 1.53-2.21 2.32-3.31.32-.46.66-.92.99-1.37.33-.46.67-.92 1-1.37.14-.18.27-.36.41-.55v-67.92c-3.15.9-6.2 2-9.14 3.26ZM301.26 1109.78v95.25a66 66 0 0 1-9.13 4.24v33.14c2.99 3.76 6.04 7.48 9.13 11.17v23.94c2.93 7.25 5.98 14.45 9.14 21.6v-192.28a54 54 0 0 1-9.14 2.94m9.19 323.95c-.03-1.47-.05-2.95-.05-4.44v-27.15c-1.88-.15-3.79-.2-5.74-.16-1.15.03-2.29.09-3.4.18v27.13c0 3.11.07 6.2.24 9.28 3.52 3.24 6.83 6.6 9.96 10.06-.55-4.92-.88-9.89-1-14.9Zm47.52 115.98c.96 5.39 1.71 10.52 2.27 15.31 3.41 3.2 6.95 6.25 10.6 9.17.31-3.69.53-7.51.66-11.44-4.74-4.1-9.26-8.46-13.53-13.04m34.26 28.49c-.26 3.89-.59 7.34-.89 10.29q2.31 1.395 4.65 2.7c1.02-2.49 2.11-5.43 3.22-8.77-2.36-1.36-4.69-2.77-6.98-4.23ZM1543.18 572.4v77.94c.65-1.03 1.31-2.05 1.99-3.08.07-.12.15-.24.24-.35.72-1.09 1.44-2.18 2.19-3.26.76-1.11 1.53-2.21 2.32-3.31.32-.46.66-.92.99-1.37.33-.46.67-.92 1-1.37.14-.18.27-.36.41-.55v-67.92c-3.15.9-6.2 2-9.14 3.26Z" class="cls-4th12"/><path d="M1558.48 410.25c22.16 19.52 33.72 36.12 28.94 44.41-4.76 8.22-24.56 6.63-52.12-2.58-.27-.09-.55-.17-.81-.27 5.31 15.76 8.18 29.02 8.19 38.47 0 7.28-1.69 12.28-5.26 14.4-.02.03-.05.04-.09.06-8.29 4.79-24.89-6.78-44.41-28.93-5.81 28.95-14.41 47.27-24 47.27s-18.18-18.32-24-47.27c-19.52 22.16-36.12 33.72-44.41 28.93-8.31-4.8-6.6-24.95 2.84-52.93-27.98 9.44-48.13 11.15-52.93 2.84-4.79-8.29 6.78-24.89 28.94-44.41-28.95-5.81-47.27-14.41-47.27-24 0-4.72 4.46-9.21 12.43-13.24 6.72-3.39 15.94-6.46 27.1-9.07q3.735-.87 7.74-1.68c-2.89-2.54-5.59-5.03-8.1-7.46-16.79-16.24-25-29.74-20.83-36.95 4.8-8.31 24.95-6.6 52.93 2.84-9.44-27.98-11.15-48.13-2.84-52.93 8.29-4.79 24.89 6.78 44.41 28.93 5.81-28.95 14.41-47.27 24-47.27s18.18 18.32 24 47.27c19.52-22.16 36.12-33.72 44.41-28.93 8.31 4.8 6.6 24.95-2.84 52.93 27.98-9.44 48.13-11.15 52.93-2.84 4.79 8.29-6.78 24.89-28.94 44.41 28.95 5.81 47.27 14.41 47.27 24s-18.32 18.18-47.27 24Z" class="cls-4th13"/><path d="M1557.7 414.11c1.95-6.22-8.18-15.52-25.78-25.19 18.35-8.15 29.23-16.57 27.81-22.93s-14.85-9.35-34.92-8.93c11.82-16.24 17.03-28.97 12.62-33.77s-17.53-.68-34.71 9.73c2.12-19.97.27-33.6-5.95-35.55s-15.52 8.18-25.2 25.78c-8.15-18.35-16.57-29.23-22.93-27.81s-9.35 14.85-8.93 34.92c-16.24-11.82-28.97-17.03-33.77-12.62s-.68 17.53 9.73 34.71c-19.97-2.12-33.6-.27-35.55 5.95s8.18 15.52 25.78 25.19c-18.35 8.15-29.23 16.57-27.81 22.93s14.85 9.35 34.92 8.93c-11.82 16.24-17.03 28.97-12.62 33.77s17.53.68 34.71-9.73c-2.12 19.97-.27 33.6 5.95 35.55s15.52-8.18 25.2-25.78c8.15 18.35 16.57 29.23 22.93 27.81s9.35-14.85 8.93-34.92c16.24 11.82 28.97 17.03 33.77 12.62s.68-17.53-9.73-34.71c19.97 2.12 33.6.27 35.55-5.95" class="cls-4th12"/><path d="M1511.25 413.99c1.94-2.75-1.57-8.92-8.69-16.46 10.31-1.1 16.99-3.52 17.3-6.87s-5.82-6.95-15.75-9.91c8.38-6.11 12.95-11.54 11.54-14.6s-8.51-3.11-18.6-.71c4.2-9.48 5.45-16.47 2.7-18.42-2.75-1.94-8.92 1.57-16.46 8.69-1.1-10.31-3.52-16.99-6.87-17.3s-6.95 5.82-9.91 15.75c-6.11-8.38-11.54-12.95-14.6-11.54s-3.11 8.51-.71 18.6c-9.48-4.2-16.47-5.45-18.42-2.7-1.94 2.75 1.57 8.92 8.69 16.46-10.31 1.1-16.99 3.52-17.3 6.87s5.82 6.95 15.75 9.91c-8.38 6.11-12.95 11.54-11.54 14.6s8.51 3.11 18.6.71c-4.2 9.48-5.45 16.47-2.7 18.42 2.75 1.94 8.92-1.57 16.46-8.69 1.1 10.31 3.52 16.99 6.87 17.3s6.95-5.82 9.91-15.75c6.11 8.38 11.54 12.95 14.6 11.54s3.11-8.51.71-18.6c9.48 4.2 16.47 5.45 18.42 2.7" class="cls-4th8"/></svg>