<svg xmlns="http://www.w3.org/2000/svg" viewBox="0 0 2000 2000" width="300" height="300" fill="none"><defs><style>.cls-1th1{fill:#e59042}.cls-1th2{fill:#c45e0a}.cls-1th5{fill:#e0862b}.cls-1th6{fill:#d66f12}.cls-1th7{fill:#395919}</style></defs><path d="M1616.26 1857.47H328.42c-75.56 0-137.04-61.47-137.04-137.04V432.59c0-75.56 61.47-137.04 137.04-137.04h1287.84c75.56 0 137.04 61.47 137.04 137.04v1287.84c0 75.56-61.47 137.04-137.04 137.04M328.42 325.55c-59.02 0-107.04 48.02-107.04 107.04v1287.84c0 59.02 48.02 107.04 107.04 107.04h1287.84c59.02 0 107.04-48.02 107.04-107.04V432.59c0-59.02-48.02-107.04-107.04-107.04z" class="cls-1th7"/><path d="M1837.76 1516.97c-.38.15-.76.3-1.15.45-18.75 7.37-48.67 16.42-85.27 16.71h-4.58c-11.34-.13-23.29-1.12-35.73-3.28-31.05-5.38-55.73-16.35-73.05-26.06-.32-.18-.59-.4-.81-.65-1.32-1.5-.84-4.04 1.22-4.82 3.74-1.43 7.54-2.99 11.34-4.72 11.13-5.01 22.34-11.35 32.62-19.44 11.01-8.66 20.95-19.33 28.51-32.53 21.43-37.4 8.65-76.25 34.95-95.42 9.75-7.11 21.43-9.15 32.35-8.98 3.69.05 7.3.35 10.72.81h.06c1.49.19 2.94.42 4.35.65.63.11 1.19.41 1.63.85l7.12 7.12c2.05 2.05.33 5.57-2.53 5.16h-.08c-5.34-.75-11.11-.62-16.83 1.25-.32.1-.65.22-.97.33-3.13 1.13-6.02 2.72-8.67 4.69-20.11 14.94-26.44 51.74-21.55 76.56 6.99 35.39 40.28 64.38 84.94 75.3.33.08.66.16 1 .24 2.88.68 3.15 4.68.41 5.77Z" style="fill:#4e772b"/><path d="M1837.35 1511.2c-.33-.08-.66-.16-1-.24-44.65-10.93-77.95-39.91-84.94-75.3-4.89-24.82 1.43-61.62 21.55-76.56 2.65-1.97 5.53-3.56 8.67-4.69.32-.11.65-.23.97-.33 5.72-1.87 11.49-2 16.83-1.25h.08c2.87.41 4.58-3.11 2.53-5.16l-7.12-7.12c-.45-.45-1.01-.74-1.63-.85-1.4-.24-2.86-.47-4.35-.65h-.06a90 90 0 0 0-10.72-.81c-2.02-.03-4.07.01-6.13.15 10.01 1.94 21.43 4.6 21.27 6.82-.17 2.31-12.53.25-22.94 5.01-25.08 11.47-37.72 62.05-23.91 98.56 5.38 14.23 15.92 29.34 12.6 31.99-1.47 1.18-4.07-1.38-8.57-2.99-20.4-7.31-44.59 17.97-53.37 9.88-2.54-2.34-2.94-6.28-7.53-8.18-3.1-1.28-6.45-.94-7.76-.81-3.29.33-5.81 1.43-7.31 2.22-8.44 4.86-16.89 9.72-25.33 14.58-1.22-.05-8.03-.21-10.79 3.85-.22.33-2.41 3.42-1.22 4.82.22.26.48.47.81.65 17.32 9.71 42 20.67 73.05 26.06 12.43 2.15 24.39 3.14 35.73 3.28 1.54.02 3.07.02 4.58 0 36.6-.28 66.52-9.34 85.27-16.71.39-.14.77-.29 1.15-.45 2.74-1.09 2.47-5.09-.41-5.77" class="cls-1th7"/><path d="M1691.68 1507.58c-4.18-3.82-20.21-17.54-44.65-18.18-29.82-.78-48.85 18.52-51.9 21.72-7.41-3.44-18.78-7.31-32.14-5.97-32.06 3.23-51.59 34.12-60.35 47.99-50.24 79.51-15.72 191.11 16 245.02 15.55 26.44 30.85 39.72 44.4 48.12 25.48 15.78 51 18.15 64.59 18.37 5.12 2.69 15.42 7.23 29.16 7.43 14.88.21 26.01-4.79 31.18-7.52 7.81 2.5 18.31 4.99 30.87 5.58 17.1.81 31.14-2.22 40.46-5.03a88.3 88.3 0 0 0 34.19 1.16 88.1 88.1 0 0 0 33.44-12.85c6.51.13 15.79-.39 26.17-3.64 48.38-15.1 68.15-72.8 76.34-96.7 29.55-86.22 18.7-204.85-32.72-223.94-10.11-3.75-20.05-3.02-27.63-1.45-3.87-4.8-15.16-17.5-34.75-23.09-17.04-4.87-31.33-1.78-37.41-.08-6.95-4.93-22.43-14.45-44.17-16.04-32.34-2.35-55.29 14.55-61.07 19.09Z" class="cls-1th5"/><path d="M1902.9 1532.05c5.64 9.34 13.11 23.4 19.01 41.45 33.75 103.35-30.58 195.98-37.08 205.03-20.1 27.98-48.57 54.33-54.88 50.06-5.95-4.03 10.81-33.25 21.44-63.87 36.29-104.59-5.54-206.83-8-206.49-2.13.29 22.04 77.89-6.54 170.86-8.81 28.64-30.94 85.81-50.17 83.61-36.94-4.22-23.96-223.07-61.07-227.57-18.94-2.3-45.65 51.89-54.53 101.79-15.06 84.63 22.5 149.33 13.09 153.41-8.4 3.64-46.71-44.18-67.62-110.51-29.1-92.32-8.35-169.33-14.54-170.13-5.37-.69-26.75 56.45-21.81 127.24 5.96 85.49 46.51 136.17 42.9 138.14-5.65 3.08-116.38-114.82-89.43-234.12 9.05-40.05 31.03-68.81 45.67-85.01-4.95-.95-10.46-1.38-16.35-.79-32.06 3.23-51.59 34.12-60.35 47.99-50.24 79.51-15.72 191.11 16 245.02 15.55 26.44 30.85 39.72 44.4 48.12 25.48 15.78 51 18.15 64.59 18.37 5.12 2.69 15.42 7.23 29.16 7.43 14.88.21 26.01-4.79 31.18-7.52 7.81 2.5 18.31 4.99 30.87 5.58 17.1.81 31.14-2.22 40.46-5.03a88.3 88.3 0 0 0 34.19 1.16 88.1 88.1 0 0 0 33.44-12.85c6.51.13 15.79-.39 26.17-3.64 48.38-15.1 68.15-72.8 76.34-96.7 28.32-82.63 19.52-195.03-26.52-221.03Z" class="cls-1th6"/><path d="M1691.68 1507.58c-4.18-3.82-20.21-17.54-44.65-18.18-29.82-.78-48.85 18.52-51.9 21.72-13.49 14.7-29.18 36.03-38.93 64.56-31.92 93.38 26.87 184.67 29.08 183.95 1.96-.64-41.31-73.62-18.9-157.77 4.7-17.65 19.82-74.44 68.34-92.34 22.79-8.41 44.41-5.08 56.95-1.94Z" class="cls-1th2"/><path d="M1698.07 1503.02c-.54.35-1.04.68-1.52 1.01-.75 2.24-1.48 4.5-2.18 6.76.6-.12 1.2-.23 1.79-.36.64-2.46 1.27-4.93 1.91-7.41m96.58-.06c-.18.69-.36 1.38-.55 2.07.56-.43 1.12-.87 1.68-1.31l-1.14-.76Z" class="cls-1th6"/><path d="M1752.75 1488.48c-4.64-.33-17.48-.85-32.94 4.11a90 90 0 0 0-28.13 14.98c-7.13 8.22-18.26 22.16-28.6 41.2-65.13 119.92-1.4 261.73.97 261.26 2.48-.5-61.92-156.97 10.66-261.5 6.94-9.99 35.06-48.65 68.83-47.74 43.28 1.16 69.9 63.07 73.43 71.25 41.21 95.29-16.76 201.05-13.33 202.12 2.82.88 46.19-69.38 34.9-159.95-6.27-50.31-27.06-87.97-41.62-109.69-7.22-5.11-22.7-14.51-44.17-16.04" class="cls-1th2"/><path d="M1847.27 1812.94c3.66 1.16 72.67-117.86 35.38-247.44a277 277 0 0 0-14.39-38.8c-3.95-4.73-15.03-16.7-33.93-22.1-17.04-4.87-31.33-1.78-37.41-.08-.35-.25-.74-.52-1.14-.79 18.85 7.72 45.75 22.05 65.42 49.26 69.26 95.82-18.19 258.61-13.94 259.96Z" class="cls-1th2"/><path d="M1800.49 1558.96c5.15 14.91 8.94 39.59.73 43.62-13.56 6.66-39.33-53.09-75.61-50.89-31.52 1.9-48.54 49.22-53.08 46.53-4.31-2.56 9.95-46.13 45.81-74.89 9.82-7.88 18.12-14.35 29.81-14.54 25.36-.42 45.06 29.06 52.35 50.17Zm-150.77-23.34c4.09 10.36-7.56 20.1-17.82 38.79-17.45 31.79-12.63 56.23-16.64 56.15-6.41-.14-8.68-62.23 6.11-92.51 5.16-10.57 9.94-12.21 12.32-12.58 6.19-.95 13.61 4.01 16.03 10.15" class="cls-1th1"/><path d="M1727.71 1411.28c1.87.36.98 17.82-3.88 35.87-2.99 11.11-9.05 33.67-19.07 34.25-4.3.25-9.1-3.57-10.02-7.76-1.44-6.57 7.25-11.51 15.19-21 16.28-19.49 15.67-41.77 17.77-41.36Z" style="fill:#5a8431"/><path d="M177.32 562.02c-31.04 14.4-68.84.35-68.36-9.63.22-4.63 8.72-9.13 16.98-12.52-4.26-2.12-10.77-5.58-18.28-10.49-16.05-10.49-30.72-20.08-28.47-29.59.52-2.2 2.73-7.73 16.49-13.15-5.78-2.79-14.07-7.57-22.21-15.55-7.36-7.22-23.34-22.89-17.64-35.09 3.68-7.88 14.89-11.05 21.35-12.27a83 83 0 0 1-16.54-33.07c-3.55-14.54-6.73-44.28 5.92-51.81 2.02-1.2 8.65-4.34 22.08 3.17-.52-6.51-1.12-25.28 11.31-43.65 6.22-9.18 20.73-25.72 30.94-23.36 10.25 2.36 15.05 23.5 9.39 52.29 2.61-3.93 18.46-27.37 28.84-25.28 9.45 1.91 13.01 24.67 7.3 57.12 8.67-6.09 13.67-6.43 16.7-5.24 14.76 5.81 3.24 56.15-.79 72.5 11.35-7.48 19.07-9.86 23.15-7.15 7.68 5.09 2.53 28.18-15.45 69.25 14.05-12.54 20.18-14.53 22.84-12.88 9.26 5.73-4.5 67.37-45.55 86.41Z" class="cls-1th5"/><path d="M126.65 275.09c-9.71 1.7-21.51 15.37-26.95 23.41-12.43 18.37-11.83 37.15-11.31 43.65-13.43-7.51-20.06-4.37-22.08-3.17-12.66 7.53-9.47 37.27-5.92 51.81a83 83 0 0 0 16.54 33.07c-6.46 1.23-17.66 4.39-21.35 12.27-5.7 12.19 10.28 27.86 17.64 35.09 8.14 7.98 16.44 12.76 22.21 15.55-13.76 5.42-15.97 10.95-16.49 13.15-2.25 9.51 12.42 19.1 28.47 29.59 7.51 4.91 14.03 8.37 18.28 10.49-13.12 5.07-16.59 9.35-16.98 12.52-1.05 8.42 18.69 17.08 36.56 17.4 13.68.24 25.16-4.41 32.04-7.91a719 719 0 0 1-25.13-62.98c-17.66-51.15-34.99-102.86-32.01-170.2 1.03-23.26 4.21-42.24 6.48-53.75Z" class="cls-1th6"/><path d="M208.08 607.15c-18.33-22.25-37.69-49.93-55.07-83.67a481 481 0 0 1-20.68-45.91 123 123 0 0 1-16.33-6.29c-22.03-10.35-35.48-24.84-34.71-25.83.71-.91 12.75 10.44 35.42 16.01 4.05 1 7.57 1.6 10.25 1.97-3.87-16.25-7.74-32.5-11.62-48.74a83.1 83.1 0 0 1-17.89-16.75c-13.91-17.59-17.3-36.8-16.44-37.24.85-.43 5.03 17.84 21.8 32 5.29 4.46 10.45 7.36 14.39 9.23-.4-9.06-.55-18.6-.38-28.58.32-18.69 1.74-36.18 3.77-52.2.15 16.86 1.05 35.1 3.09 54.42 2.66 25.15 6.78 47.79 11.47 67.72 5.07-4.42 12.09-11.13 19.23-20.26 14.76-18.88 20.14-35.46 21.1-35.15 1 .32-4.01 18.6-15.22 39.03-7.22 13.16-14.82 23.22-20.34 29.89 2.14 8.76 4.6 17.66 7.4 26.69 15.53 50.01 37.78 90.92 60.75 123.65Z" class="cls-1th2"/><path d="M134.3 374.96c-1.67 14.31 1.65 29.9 6.01 29.83 5.23-.09 11.55-22.64 16.75-41.19 6.33-22.59 10.46-37.33 7.03-38.66-4.88-1.88-26.59 22.6-29.79 50.02m31.73 110.89c-1.67 14.31 1.65 29.9 6.01 29.83 5.23-.09 11.55-22.64 16.75-41.19 6.33-22.59 10.46-37.33 7.03-38.66-4.88-1.88-26.59 22.6-29.79 50.02" class="cls-1th1"/><path d="M222.47 519.11c-46.21-21.74-68.46-83.58-57.24-94.16 5.2-4.91 18.46.42 30.29 6.7-1.92-7.57-4.63-19.39-6.77-34.05-4.57-31.33-8.75-59.95 3.73-67.85 2.88-1.82 11.04-5.32 30.48 5.39-2.71-10.17-5.77-25.64-5.21-44.5.5-17.07 1.59-54.09 20.37-60.79 12.13-4.33 26.63 5.79 34.34 12.3 1.63-13.03 5.95-34.58 19.29-57.19 12.15-20.6 41.07-57.78 61.7-50.77 3.3 1.12 13.23 5.69 18.42 30.48 6.5-7.92 26.14-29.67 58.23-35.07 16.05-2.7 48.23-3.5 55.79 11.59 7.59 15.15-10.44 44.66-47.06 69.98 6.82-1.21 47.76-8.13 55.77 6.88 7.29 13.66-13.72 43.48-54.34 72.84 15.14 3.76 20.45 9.48 22.17 14.51 8.33 24.5-57.32 66.81-78.92 80.18 19.28 5.48 29.49 12.22 30.61 20.24 2.11 15.07-27.86 34.62-89.91 58.67 27.41 3.1 35.62 8.35 36.47 13.44 2.98 17.72-77.06 69.93-138.19 41.17Z" class="cls-1th5"/><path d="M481.6 136.13c-11.43-9.94-37.85-9.03-51.9-6.67-32.09 5.4-51.73 27.15-58.23 35.07-5.19-24.79-15.13-29.36-18.42-30.48-20.63-7.01-49.54 30.17-61.7 50.77-13.34 22.61-17.65 44.17-19.29 57.19-7.71-6.51-22.21-16.63-34.34-12.3-18.78 6.7-19.87 43.72-20.37 60.79-.55 18.86 2.5 34.33 5.21 44.5-19.44-10.72-27.6-7.22-30.48-5.39-12.48 7.9-8.3 36.52-3.73 67.85 2.14 14.66 4.85 26.48 6.77 34.05-18.44-10.33-26.49-9.76-30.29-6.7-10.11 8.15.07 41.91 17.41 64.07 13.26 16.95 29.64 25.75 40.22 30.22 16.27-43.33 31.89-77.87 43.02-101.15 37.65-78.8 76.25-157.81 151.77-229.56 26.08-24.78 49.68-42.15 64.34-52.27Z" class="cls-1th6"/><path d="M204.26 607.15c5.85-47.27 16.54-101.87 35.71-160.82 9-27.67 18.87-53.23 29.03-76.62-2.79-6.6-6.28-15.77-9.37-26.97-10.63-38.46-8.33-71.08-6.49-71.25 1.69-.15 1.37 27.24 17.78 61.13 2.93 6.05 5.77 11.02 8.01 14.71l41.04-68.73c-1.21-9.99-1.98-24.08.35-40.57 5.2-36.66 22.55-62.29 23.87-61.74 1.31.55-14.25 26.1-12.92 62.41.42 11.45 2.4 21 4.28 27.89a726.4 726.4 0 0 1 90.42-86.28A898 898 0 0 0 370.38 245a895 895 0 0 0-61.64 89.8c9.77 1.24 23.96 2.29 40.86.78 34.94-3.13 58.14-15.14 58.76-13.61.64 1.59-24.01 15.93-57.12 25.13a248.6 248.6 0 0 1-52.33 8.64 769 769 0 0 0-21.44 38.9c-38.55 74.92-60.62 147.86-73.18 212.5Z" class="cls-1th2"/><path d="M381.54 257.24c-17.08 13.98-30.6 35.48-26.2 40.72 5.27 6.28 35.82-11.25 60.96-25.67 30.61-17.57 50.58-29.02 48.62-34.7-2.79-8.06-50.66-7.13-83.37 19.65ZM293.4 420.08c-17.08 13.98-30.6 35.48-26.2 40.72 5.27 6.28 35.82-11.25 60.96-25.67 30.61-17.57 50.58-29.02 48.62-34.7-2.79-8.06-50.66-7.13-83.37 19.65Z" class="cls-1th1"/></svg>