<svg xmlns="http://www.w3.org/2000/svg" viewBox="0 0 2000 2000" width="300" height="300" fill="none"><defs><style>.clse8-1{fill:#79b241}.clse8-2{fill:#fff}.clse8-3{fill:#fbb03c}.clse8-4{fill:#fdefbb}.clse8-6{fill:#335643}</style></defs><path class="clse8-1" d="M443.92 1597.83a39.94 39.94 0 0 0 14.8-11c10.72-13.13 11.62-32.57 4.65-44.61-1.66-2.86-5.46-9.42-11.1-9.06-6 .38-12.55 8.31-14.88 20-.1-2.94-.73-9.81-5.45-15.69-4.16-5.19-12.74-11.15-18.84-7.88-7.5 4-7 19.8-6 26.75a39.1 39.1 0 0 0 5.2 14.44c-1.47-1.23-16.78-13.9-22.9-9.09-5.41 4.25-2.63 21.38 6 31.14 11.82 13.34 33.84 11.97 48.52 5"/><path class="clse8-2" d="M436.88 1588.24a16.64 16.64 0 0 0 6.13-4.57c4.44-5.45 4.81-13.5 1.92-18.49-.68-1.19-2.26-3.9-4.59-3.76s-5.2 3.45-6.17 8.3a11.06 11.06 0 0 0-2.26-6.51c-1.72-2.15-5.28-4.61-7.8-3.26-3.12 1.67-2.91 8.21-2.48 11.08a16.2 16.2 0 0 0 2.15 6c-.6-.51-6.95-5.76-9.48-3.77-2.25 1.76-1.09 8.86 2.47 12.9 4.9 5.54 14.02 4.97 20.11 2.08"/><path class="clse8-3" d="M431.74 1745.05a42.4 42.4 0 0 0-4.89-18.93c-8.57-15.77-27.25-24.44-41.85-22.44-3.47.47-11.42 1.57-13.33 7.23-2 6 3.11 15.63 13.64 22.61-2.92-1.08-9.91-3.22-17.56-1-6.75 2-16 8-15.27 15.3.94 9 16.59 14.81 23.81 16.58a41.4 41.4 0 0 0 16.23.7c-1.79.94-20.35 10.86-18.09 18.78 2 7 19.9 11.16 32.91 6.64 17.85-6.16 25.34-28.29 24.4-45.47"/><path class="clse8-2" d="M419.52 1748.11a17.6 17.6 0 0 0-2-7.84c-3.55-6.54-11.29-10.13-17.34-9.3-1.44.2-4.73.65-5.52 3s1.29 6.47 5.65 9.36a11.8 11.8 0 0 0-7.28-.39c-2.79.83-6.64 3.32-6.32 6.34.38 3.72 6.87 6.14 9.86 6.87a17.1 17.1 0 0 0 6.73.29c-.74.39-8.43 4.5-7.5 7.78.83 2.91 8.25 4.63 13.64 2.75 7.36-2.57 10.47-11.74 10.08-18.86"/><path class="clse8-3" d="M826.82 1311.28c74.49 98.79 216.9 498.61 146.84 529.94-70.95 31.78-288.29-346.52-312.13-456.67-2.5-11.54-9.25-49.59-5.91-94 2.52-33.63 4.69-62.48 23-72.38 19.73-10.69 47.24 6.64 70.52 21.3-.02-.02 44.86 28.24 77.68 71.81"/><path class="clse8-3" d="M1342.38 1547.83c-2-13.21-4.11-23.13-7.26-36.9-6.14-26.92-14.62-64.11-32.79-103.15-21.54-46.26-34.7-74.54-62.14-81.81-23.07-6.12-44.64 5.67-68.35 18.64 0 0-46 25.17-76.87 67-68.69 93.25-147.31 393.31-87.2 420.19 37.47 16.75 115.76-80.82 184.81-192.87a354 354 0 0 0 44.64 45.55c25.77 21.76 47.86 40.43 67.75 34.32 21.46-6.59 28.36-38.36 34.21-65.24 0 .04 11.27-51.76 3.2-105.73"/><path class="clse8-4" d="M857.22 1475.77c47.48 68.39 149.91 336.34 112.12 352.85-38.28 16.72-181.78-241.34-201.32-314.31a277.7 277.7 0 0 1-8.53-61.49c-.43-21.73-.8-40.38 9-45.82 10.54-5.86 27 6.93 41 17.76-.07 0 26.79 20.86 47.73 51.01"/><path class="clse8-4" d="M1094.46 1514.18q-112.63 300.71-86.85 313.08 22 10.54 144.51-188.34a308.3 308.3 0 0 1-43.53-77 305 305 0 0 1-14.13-47.74"/><path class="clse8-1" d="M1300.68 1557.83c-6.08 20.3-34.61 17.52-36.32 17.33.34-3.13 3.28-27.81 16.71-35.31 6-3.32 16.15-4.47 19.63 3 2.66 5.74.3 13.98-.02 14.98m-59.21-23.99c12.57 16.18-.2 57.62-1 60.08-2.16-1.6-19.12-14.65-19.55-37.25-.19-10 2.81-25.58 9.6-28.13 5.2-1.94 10.33 4.46 10.95 5.3m31.25 109.35c-11.24 15.8-37.18-2.68-38.72-3.8 1.17-2.77 10.68-24.46 25.29-24.08 6.49.17 16.33 4.75 17.54 13.77.92 6.86-3.56 13.33-4.11 14.11m-82.34-69.65c20.4 18.11 9.74 80.33 9.07 84-3.3-1.47-29.29-13.66-33.82-45-2-13.91-.52-36.62 8.55-42.56 6.9-4.48 15.2 2.67 16.2 3.56m77.1 153.46c-19.25 26.17-62.56-6-65.14-8 2-4.61 18.47-40.78 43.08-39.54 10.92.54 27.4 8.65 29.27 23.9 1.41 11.64-6.26 22.33-7.21 23.64m-121.11-64.76c27.3 10.69 29.74 85.67 29.85 90.16-4.08-.09-36.33-1.49-48.76-34.56-5.52-14.67-9.12-40.9-.25-51.87 6.79-8.36 17.79-4.25 19.16-3.73"/><path class="clse8-1" d="M1181.91 1778.31h-.39a3.52 3.52 0 0 1-3.1-3.87c6.84-61.81 24.52-117.63 51.15-161.42a272.3 272.3 0 0 1 26-35.92 3.5 3.5 0 1 1 5.31 4.57 264 264 0 0 0-25.32 35c-26.1 42.92-43.45 97.75-50.17 158.55a3.5 3.5 0 0 1-3.48 3.09M720.7 1547.06c.75 16.34 23.9 19.65 25.28 19.83.36-2.41 3-21.42-6.17-29.57-4-3.61-11.88-6.39-16.14-1.44-3.25 3.77-3.01 10.38-2.97 11.18m51.67-6.76c-13.19 9.73-11.36 43.14-11.24 45.13 2-.79 18.07-7.35 22.93-24.17 2.16-7.47 2.89-19.66-2-22.85-3.69-2.41-9.06 1.42-9.69 1.89m-46.61 75.89c5.75 14 30 5 31.42 4.47-.38-2.29-3.56-20.31-15.21-22.78-5.17-1.1-13.88.46-16.64 7-2.1 4.94.15 10.62.43 11.31m79.12-36.54c-19.76 9.69-23.77 58.25-24 61.15 2.9-.48 25.92-4.69 35.77-27.27 4.37-10 7.73-27.28 1.75-33.45-4.54-4.69-12.55-.9-13.52-.43m-91.72 100.2c10 23.22 50.73 7.33 53.16 6.35-.68-3.84-6.46-34-26.19-37.72-8.76-1.65-23.43 1.3-28 12.35-3.4 8.42.53 17.88 1.03 19.02M822 1654.31c-23.75 2.84-40.67 58.46-41.66 61.8 3.25.7 29.06 5.74 45.52-16.64 7.3-9.93 15.4-28.87 10.57-38.75-3.69-7.53-13.27-6.55-14.43-6.41"/><path class="clse8-1" d="M771.36 1735.29h-.52a3.5 3.5 0 0 1-3-4c6.81-46.61 4.05-90.75-8-127.64a197.5 197.5 0 0 0-13-30.82 3.5 3.5 0 1 1 6.18-3.27 203 203 0 0 1 13.46 31.91c12.37 37.92 15.23 83.16 8.25 130.83a3.49 3.49 0 0 1-3.37 2.99"/><path d="M1760.3 1879.43H239.7A119.86 119.86 0 0 1 120 1759.7V239.09a119.86 119.86 0 0 1 119.7-119.72h1520.6A119.86 119.86 0 0 1 1880 239.09V1759.7a119.86 119.86 0 0 1-119.7 119.73M239.7 163.37a75.81 75.81 0 0 0-75.7 75.72V1759.7a75.81 75.81 0 0 0 75.73 75.73H1760.3a75.81 75.81 0 0 0 75.7-75.73V239.09a75.81 75.81 0 0 0-75.73-75.72Z" style="fill:#3a5548"/><path class="clse8-6" d="M491 1636.68c19.64 22 57 4.15 59.24 3-2.21-3.7-20-32.75-42.53-35.21-10-1.1-24.53 2.65-25.1 13.68-.44 8.46 7.39 17.45 8.39 18.53m67.38-59.68c-8.11 26.39 32.46 71.18 34.91 73.84 2.05-3.08 17.9-27.81 5.86-56-5.34-12.51-18.12-30.22-28.81-29.93-8.15.24-11.56 10.8-11.96 12.09m18.46 151.12C601 1742 626.08 1706 627.55 1703.8c-3.14-2.83-28.23-24.84-48-17-8.76 3.49-19.63 14.14-16.25 25.91 2.62 9 12.35 14.72 13.54 15.41m73.45-127.87c-17.72 32.73 31.6 104.3 34.58 108.56 3.68-3.49 32.33-31.74 21-72.79-5-18.22-19.75-45.56-35.44-48.33-11.94-2.1-19.27 10.95-20.14 12.56m-19.48 228.87c40.9 22.63 82-39.12 84.44-42.85-5.35-4.68-48-41.09-80.88-27.11-14.6 6.21-32.56 24.6-26.58 44.4 4.55 15.08 21.01 24.44 23.02 25.56m129.11-141.43c-31.28 27 7.29 121 9.64 126.65 5.51-2.18 48.75-20.25 47.23-67.45-.67-21-10.4-55.22-28.64-64.3-13.89-6.92-26.69 3.76-28.23 5.1"/><path class="clse8-6" d="M774.33 1848.94a4 4 0 0 1-3.43-1.94c-43.21-71.92-97.62-131-157.33-171a400 400 0 0 0-54.28-30.56 4 4 0 1 1 3.36-7.26 406 406 0 0 1 55.35 31.18C678.7 1710 733.94 1770 777.76 1842.88a4 4 0 0 1-1.37 5.49 4.1 4.1 0 0 1-2.06.57m168.81-112.59c39.62 5.13 54.41 100.13 55.25 105.83-5.69 1.15-50.79 9.44-73.12-28.91-9.91-17-18.92-49.39-8.24-66.18 8.13-12.78 24.15-10.99 26.11-10.74"/><path class="clse8-6" d="M1011.93 1739.11c-41 10.62-39.66 107.05-39.52 112.82 6.23.36 55.47 2.31 72.23-38.9 7.44-18.29 11.17-51.7-3.15-66.89-10.9-11.56-27.49-7.55-29.56-7.03"/><path class="clse8-6" d="M1079.84 1773.27c-27.59 1.47-39.2 63.26-39.86 67 3.93 1 35.14 8.66 51.19-15.5 7.12-10.72 13.83-31.58 6.65-43.14-5.47-8.84-16.62-8.43-17.98-8.36M858 1752.86c24.29-10.19 63.33 38.88 65.65 41.84-2.88 2.54-26 22.16-51.08 7.76-11.14-6.4-26.71-21.8-26-34.87.53-9.95 10.26-14.23 11.43-14.73m-17.29 47.46c18.72-7.86 48.83 30 50.61 32.26-2.22 2-20 17.09-39.38 6-8.59-4.93-20.6-16.81-20.06-26.89.4-7.69 7.9-10.98 8.83-11.37m622.79-152.24c-20.83 22.27-60.46 4.19-62.82 3.07 2.35-3.73 21.23-33.1 45.1-35.59 10.59-1.11 26 2.68 26.61 13.84.46 8.49-7.87 17.6-8.89 18.68m-71.5-60.33c8.6 26.68-34.42 72-37 74.65-2.17-3.11-19-28.12-6.21-56.61 5.67-12.65 19.21-30.55 30.55-30.26 8.66.23 12.28 10.91 12.66 12.22m-19.53 152.77c-25.64 14-52.21-22.38-53.78-24.58 3.34-2.86 29.94-25.12 50.86-17.16 9.29 3.53 20.82 14.3 17.23 26.2-2.78 9.02-13.05 14.85-14.31 15.54m-77.88-129.27c18.78 33.08-33.51 105.45-36.67 109.75-3.91-3.53-34.28-32.09-22.28-73.6 5.33-18.42 20.94-46.06 37.58-48.85 12.67-2.13 20.45 11.07 21.37 12.7m20.65 231.38c-43.37 22.88-87-39.54-89.53-43.32 5.67-4.73 50.87-41.54 85.75-27.4 15.48 6.28 34.53 24.87 28.19 44.89-4.82 15.2-22.27 24.71-24.41 25.83m-136.89-142.99c33.16 27.35-7.73 122.38-10.23 128-5.84-2.2-51.68-20.47-50.08-68.19.71-21.18 11-55.83 30.37-65 14.73-6.95 28.3 3.85 29.94 5.19"/><path class="clse8-6" d="M1163.06 1862.63a4 4 0 0 1-2.12-.62 4 4 0 0 1-1.26-5.51c46.45-73.71 105-134.36 169.33-175.4a439.5 439.5 0 0 1 58.67-31.49 4 4 0 1 1 3.23 7.32 429 429 0 0 0-57.59 30.92c-63.34 40.4-121 100.19-166.87 172.91a4 4 0 0 1-3.39 1.87"/><path class="clse8-3" d="M1414.43 1556.53c-5.82-2.21-15.5-6-23.91-15.43-17.2-19.2-18.17-49.46-6.46-69.15 2.79-4.68 9.17-15.39 18.37-15.53 9.78-.14 20.32 11.43 23.83 29.43a44 44 0 0 1 9.31-25.2c6.94-8.63 21.13-19 31-14.64 12.18 5.37 11 30.08 9.09 41.07a65.1 65.1 0 0 1-8.87 23.2c2.42-2.1 27.8-23.8 37.68-17 8.74 6 3.75 33.1-10.58 49.41-19.64 22.31-55.63 22.92-79.46 13.84"/><path class="clse8-2" d="M1426.2 1540.68a24 24 0 0 1-9.91-6.4c-7.12-8-7.52-20.49-2.67-28.65 1.15-1.94 3.8-6.38 7.61-6.44 4-.06 8.42 4.74 9.87 12.2a18.23 18.23 0 0 1 3.9-10.39c2.88-3.58 8.76-7.88 12.85-6.07 5 2.22 4.55 12.46 3.77 17a26.9 26.9 0 0 1-3.68 9.61c1-.87 11.52-9.86 15.61-7.06 3.63 2.47 1.56 13.71-4.38 20.47-8.17 9.24-23.09 9.49-32.97 5.73"/><path class="clse8-3" d="M1526.39 1678.26a36.7 36.7 0 0 1-2.23-17.91c2.34-16.17 16.66-29 31-31.28 3.41-.55 11.22-1.81 15 2.61 4 4.69 2.72 14.52-4.61 23.56a27.94 27.94 0 0 1 16-5.73c7-.13 17.84 2.54 19.74 9.12 2.35 8.1-10.16 17.57-16.26 21.13a41.6 41.6 0 0 1-14.9 5.14c2 .32 22.89 3.82 23.63 11.38.65 6.67-14.57 15.29-28.33 15-18.82-.49-33.75-17.74-39.04-33.02"/><path class="clse8-2" d="M1538.89 1677.53a15.2 15.2 0 0 1-.92-7.42c1-6.7 6.9-12 12.84-13 1.41-.23 4.65-.75 6.23 1.08s1.12 6-1.91 9.76a11.53 11.53 0 0 1 6.65-2.37c2.9-.06 7.39 1.05 8.17 3.77 1 3.36-4.21 7.29-6.74 8.76a17.1 17.1 0 0 1-6.17 2.13c.84.13 9.49 1.58 9.79 4.71.27 2.77-6 6.34-11.74 6.2-7.82-.15-14-7.29-16.2-13.62"/><path class="clse8-1" d="M939.73 1837.69c-5.82 2.78-15.6 7.3-28.66 6.87-26.68-.86-50-21.78-56.4-44.63-1.51-5.43-5-17.87 1.52-24.87 6.88-7.42 23.08-7 39.08 3.22a45.57 45.57 0 0 1-12.21-25c-1.49-11.37.89-29.41 11.22-33.7 12.73-5.27 30.37 13.31 37.25 22.58a67.4 67.4 0 0 1 11 23.24c.16-3.32 2.06-37.84 14.19-40.41 10.72-2.27 27.47 20.87 29.43 43.27 2.72 30.74-22.58 58.08-46.42 69.43"/><path class="clse8-6" d="M936.28 1817.54a24.9 24.9 0 0 1-11.88 2.84c-11-.36-20.73-9-23.37-18.49-.62-2.25-2.06-7.41.63-10.31 2.85-3.07 9.57-2.91 16.19 1.34a19 19 0 0 1-5.05-10.36c-.62-4.71.36-12.19 4.65-14 5.27-2.19 12.58 5.51 15.43 9.35a27.8 27.8 0 0 1 4.57 9.63c.07-1.38.85-15.68 5.88-16.74 4.44-.94 11.38 8.64 12.19 17.92 1.12 12.77-9.36 24.11-19.24 28.82"/><path class="clse8-1" d="M1035.11 1847.25a46.1 46.1 0 0 0 21.13 2.41c19.36-2.55 35.45-18.14 39.11-33.75.87-3.71 2.86-12.2-2.15-16.35-5.32-4.4-17.08-2.94-28.28 5 2.24-2.55 7.13-8.81 7.82-17.46.6-7.64-1.89-19.41-9.58-21.48-9.48-2.54-21.52 11.07-26.13 17.72a44.9 44.9 0 0 0-7 16.21c-.26-2.19-3.1-24.9-12-25.7-7.89-.7-19.08 15.87-19.56 30.84-.72 20.58 18.83 36.82 36.64 42.56"/><path class="clse8-2" d="M1036.77 1833.64a19.1 19.1 0 0 0 8.76 1c8-1.06 14.68-7.52 16.2-14 .36-1.54 1.18-5.06-.89-6.77s-7.08-1.22-11.72 2.08a12.7 12.7 0 0 0 3.24-7.23c.25-3.17-.78-8-4-8.9-3.93-1.06-8.91 4.59-10.82 7.34a18.7 18.7 0 0 0-2.92 6.72c-.11-.91-1.28-10.32-5-10.65-3.27-.29-7.91 6.57-8.11 12.78-.22 8.53 7.88 15.25 15.26 17.63"/><path class="clse8-3" d="M991.67 1851.2a35.2 35.2 0 0 1-17.31-1.15c-14.85-5.15-24.32-21-23.9-35 .1-3.32.33-10.92 5.2-13.72 5.17-3 14.21.09 21.41 8.64a26.7 26.7 0 0 1-2.49-16.18c1.14-6.66 5.64-16.38 12.2-17 8.07-.74 14.74 12.79 17 19.2a39.7 39.7 0 0 1 2.13 15c.67-1.83 7.78-20.91 15-20.23 6.43.6 11.8 16.54 9 29.47-3.85 17.77-22.85 28.77-38.24 30.97"/><path class="clse8-2" d="M993.25 1839.26a14.54 14.54 0 0 1-7.17-.47 15.46 15.46 0 0 1-9.9-14.49c0-1.37.14-4.52 2.15-5.68s5.89 0 8.87 3.58a11.13 11.13 0 0 1-1-6.71c.48-2.75 2.34-6.78 5.06-7 3.34-.31 6.11 5.3 7 8a16.3 16.3 0 0 1 .88 6.21c.28-.76 3.22-8.66 6.23-8.38 2.67.24 4.89 6.85 3.72 12.21-1.58 7.28-9.46 11.82-15.84 12.73"/><path class="clse8-1" d="M1432.86 1805.14c4.73 2.37 12.67 6.25 23.72 6.49 22.57.5 43.71-14.47 50.65-31.65 1.65-4.08 5.42-13.44.43-19.07-5.3-6-19-6.37-33.2.76 3-2.51 9.71-8.8 12-18.57 2-8.62 1.27-22.51-7.16-26.23-10.38-4.58-26.53 8.85-33 15.63a52 52 0 0 0-10.9 17.28c.09-2.54.85-29-9.2-31.49-8.89-2.2-24.61 14.75-27.8 31.78-4.34 23.35 15.12 45.36 34.46 55.07"/><path class="clse8-2" d="M1437.16 1789.89a22.14 22.14 0 0 0 9.83 2.69c9.35.21 18.11-6 21-13.12.69-1.69 2.25-5.57.18-7.9s-7.87-2.64-13.75.32a14.8 14.8 0 0 0 5-7.7c.84-3.57.52-9.32-3-10.87-4.3-1.9-11 3.67-13.66 6.48a21.5 21.5 0 0 0-4.52 7.16c0-1.06.35-12-3.81-13-3.69-.91-10.2 6.11-11.52 13.17-1.83 9.63 6.24 18.74 14.25 22.77"/><path class="clse8-3" d="M627.84 1542.74c5.14-.86 13.71-2.38 22.65-8.6 18.27-12.7 26.41-36.89 22-54.6-1.06-4.21-3.49-13.84-10.73-15.43-7.68-1.68-18.83 6-26 19.87.93-3.74 2.62-12.64-1.21-21.76-3.38-8-12-18.66-20.92-16.73-10.93 2.37-16 22.44-17.19 31.58a51.3 51.3 0 0 0 1.34 20.09c-1.4-2.08-16.14-23.59-25.6-19.73-8.35 3.4-11 26-3.69 41.44 10.05 21.13 38.32 27.36 59.35 23.87"/><path class="clse8-2" d="M622.41 1528.1a22 22 0 0 0 9.39-3.56c7.57-5.27 10.94-15.29 9.1-22.63-.44-1.74-1.44-5.73-4.44-6.39-3.19-.7-7.81 2.46-10.78 8.23a14.47 14.47 0 0 0-.5-9c-1.4-3.34-5-7.74-8.66-6.94-4.53 1-6.63 9.3-7.13 13.09a21.3 21.3 0 0 0 .56 8.32c-.58-.86-6.69-9.77-10.61-8.17-3.46 1.41-4.57 10.78-1.53 17.17 4.19 8.78 15.89 11.32 24.6 9.88"/></svg>