<svg xmlns="http://www.w3.org/2000/svg" viewBox="0 0 1500 1500" width="300" height="300" fill="none"><defs><style>.cls-6bir1{fill:#ffb84c}.cls-6bir2{fill:#f680f9}.cls-6bir3{fill:#f800ff}.cls-6bir4{fill:#ff4dff}.cls-6bir5{fill:#b678ff}.cls-6bir6{fill:#825cad}.cls-6bir7{fill:#a84dff}</style></defs><path d="M1125.74 1220.97h-20.36c-2.21 0-4-1.79-4-4s1.79-4 4-4h20.36c2.21 0 4 1.79 4 4s-1.79 4-4 4m-40.43 0h-20.07c-2.21 0-4-1.79-4-4s1.79-4 4-4h20.07c2.21 0 4 1.79 4 4s-1.79 4-4 4m-562 0h-20.07c-2.21 0-4-1.79-4-4s1.79-4 4-4h20.07c2.21 0 4 1.79 4 4s-1.79 4-4 4m-40.14 0H463.1c-2.21 0-4-1.79-4-4s1.79-4 4-4h20.07c2.21 0 4 1.79 4 4s-1.79 4-4 4m-40.07-1.32c-.19 0-.38-.01-.57-.04-6.81-.96-13.6-2.46-20.17-4.43a3.996 3.996 0 0 1-2.68-4.98 3.996 3.996 0 0 1 4.98-2.68c6.19 1.86 12.58 3.26 18.99 4.17 2.19.31 3.71 2.33 3.4 4.52-.28 2-1.99 3.44-3.96 3.44Zm702.63-.2c-1.94 0-3.65-1.42-3.95-3.4a4.013 4.013 0 0 1 3.35-4.56c6.4-.98 12.78-2.45 18.94-4.37a4 4 0 0 1 5.01 2.63 4 4 0 0 1-2.63 5.01c-6.55 2.04-13.32 3.61-20.12 4.64-.2.03-.41.05-.61.05Zm-740.94-11.3c-.58 0-1.16-.12-1.71-.39-6.2-2.94-12.24-6.39-17.94-10.24a4.004 4.004 0 0 1-1.08-5.55 4.004 4.004 0 0 1 5.55-1.08c5.37 3.63 11.05 6.87 16.89 9.65a4.004 4.004 0 0 1-1.72 7.62Zm779.11-.61a4.003 4.003 0 0 1-1.76-7.6c5.81-2.83 11.45-6.13 16.78-9.81 1.82-1.26 4.31-.8 5.56 1.02s.8 4.31-1.02 5.56c-5.66 3.91-11.65 7.41-17.82 10.42-.56.28-1.16.41-1.75.41Zm-812.25-21.77c-.97 0-1.94-.35-2.71-1.06-5.06-4.65-9.8-9.72-14.11-15.07a4 4 0 0 1 .61-5.62 3.99 3.99 0 0 1 5.62.61c4.06 5.04 8.53 9.82 13.29 14.2a4 4 0 0 1 .24 5.65c-.79.86-1.86 1.29-2.94 1.29m845.14-.94c-1.07 0-2.13-.42-2.92-1.26a4 4 0 0 1 .18-5.65c4.72-4.43 9.14-9.26 13.15-14.34a4.015 4.015 0 0 1 5.62-.67 4.006 4.006 0 0 1 .67 5.62c-4.25 5.39-8.94 10.51-13.95 15.22-.77.73-1.76 1.08-2.74 1.08Zm-870.2-30.21c-1.38 0-2.72-.71-3.46-1.99-3.46-5.93-6.49-12.18-9.02-18.56-.81-2.05.19-4.38 2.25-5.19 2.05-.81 4.38.19 5.19 2.25 2.38 6.01 5.24 11.89 8.49 17.48a4 4 0 0 1-1.44 5.47c-.63.37-1.33.54-2.01.54m894.94-1.2a3.997 3.997 0 0 1-3.47-5.97c3.2-5.64 6-11.55 8.32-17.59a4.002 4.002 0 0 1 7.47 2.87c-2.46 6.41-5.43 12.69-8.83 18.68a3.99 3.99 0 0 1-3.48 2.02Zm-909.64-35.96c-1.82 0-3.47-1.25-3.9-3.11-1.53-6.68-2.57-13.55-3.08-20.41-.17-2.2 1.49-4.12 3.69-4.29a3.994 3.994 0 0 1 4.29 3.69c.49 6.47 1.46 12.94 2.9 19.23a3.998 3.998 0 0 1-3.91 4.89Zm923.97-1.39a4 4 0 0 1-3.92-4.85c1.37-6.3 2.28-12.78 2.7-19.26.14-2.2 2.06-3.88 4.25-3.74 2.21.14 3.88 2.04 3.74 4.25-.44 6.87-1.41 13.75-2.86 20.45a4 4 0 0 1-3.9 3.15Zm-927.33-38.49c-2.21 0-4-1.79-4-4v-20.07c0-2.21 1.79-4 4-4s4 1.79 4 4v20.07c0 2.21-1.79 4-4 4m930.38-1.43c-2.21 0-4-1.79-4-4v-20.07c0-2.21 1.79-4 4-4s4 1.79 4 4v20.07c0 2.21-1.79 4-4 4m-930.38-38.72c-2.21 0-4-1.79-4-4v-20.07c0-2.21 1.79-4 4-4s4 1.79 4 4v20.07c0 2.21-1.79 4-4 4m930.38-1.43c-2.21 0-4-1.79-4-4v-20.07c0-2.21 1.79-4 4-4s4 1.79 4 4V1032c0 2.21-1.79 4-4 4m-930.38-38.72c-2.21 0-4-1.79-4-4v-20.07c0-2.21 1.79-4 4-4s4 1.79 4 4v20.07c0 2.21-1.79 4-4 4m930.38-1.43c-2.21 0-4-1.79-4-4v-20.07c0-2.21 1.79-4 4-4s4 1.79 4 4v20.07c0 2.21-1.79 4-4 4m-930.38-38.72c-2.21 0-4-1.79-4-4v-20.07c0-2.21 1.79-4 4-4s4 1.79 4 4v20.07c0 2.21-1.79 4-4 4m930.38-1.43c-2.21 0-4-1.79-4-4v-20.07c0-2.21 1.79-4 4-4s4 1.79 4 4v20.07c0 2.21-1.79 4-4 4m-930.38-38.72c-2.21 0-4-1.79-4-4v-20.07c0-2.21 1.79-4 4-4s4 1.79 4 4v20.07c0 2.21-1.79 4-4 4m930.38-1.43c-2.21 0-4-1.79-4-4v-20.07c0-2.21 1.79-4 4-4s4 1.79 4 4v20.07c0 2.21-1.79 4-4 4m-930.38-38.72c-2.21 0-4-1.79-4-4v-20.07c0-2.21 1.79-4 4-4s4 1.79 4 4v20.07c0 2.21-1.79 4-4 4m930.38-1.43c-2.21 0-4-1.79-4-4v-20.07c0-2.21 1.79-4 4-4s4 1.79 4 4v20.07c0 2.21-1.79 4-4 4m-930.38-38.72c-2.21 0-4-1.79-4-4v-20.07c0-2.21 1.79-4 4-4s4 1.79 4 4v20.07c0 2.21-1.79 4-4 4m930.38-1.43c-2.21 0-4-1.79-4-4v-20.07c0-2.21 1.79-4 4-4s4 1.79 4 4v20.07c0 2.21-1.79 4-4 4m-930.38-38.72c-2.21 0-4-1.79-4-4v-20.07c0-2.21 1.79-4 4-4s4 1.79 4 4v20.07c0 2.21-1.79 4-4 4m930.38-1.43c-2.21 0-4-1.79-4-4v-20.07c0-2.21 1.79-4 4-4s4 1.79 4 4v20.07c0 2.21-1.79 4-4 4m-930.38-38.72c-2.21 0-4-1.79-4-4v-20.07c0-2.21 1.79-4 4-4s4 1.79 4 4v20.07c0 2.21-1.79 4-4 4m930.38-1.43c-2.21 0-4-1.79-4-4v-20.07c0-2.21 1.79-4 4-4s4 1.79 4 4v20.07c0 2.21-1.79 4-4 4m-930.38-38.72c-2.21 0-4-1.79-4-4v-20.07c0-2.21 1.79-4 4-4s4 1.79 4 4v20.07c0 2.21-1.79 4-4 4m930.38-1.43c-2.21 0-4-1.79-4-4v-20.07c0-2.21 1.79-4 4-4s4 1.79 4 4v20.07c0 2.21-1.79 4-4 4m-930.38-38.72c-2.21 0-4-1.79-4-4v-20.07c0-2.21 1.79-4 4-4s4 1.79 4 4v20.07c0 2.21-1.79 4-4 4m930.38-1.43c-2.21 0-4-1.79-4-4v-20.07c0-2.21 1.79-4 4-4s4 1.79 4 4v20.07c0 2.21-1.79 4-4 4m-930.38-38.72c-2.21 0-4-1.79-4-4v-20.07c0-2.21 1.79-4 4-4s4 1.79 4 4v20.07c0 2.21-1.79 4-4 4m930.38-1.43c-2.21 0-4-1.79-4-4v-20.07c0-2.21 1.79-4 4-4s4 1.79 4 4v20.07c0 2.21-1.79 4-4 4m-930.38-38.72c-2.21 0-4-1.79-4-4v-20.07c0-2.21 1.79-4 4-4s4 1.79 4 4v20.07c0 2.21-1.79 4-4 4m930.38-1.43c-2.21 0-4-1.79-4-4v-20.07c0-2.21 1.79-4 4-4s4 1.79 4 4v20.07c0 2.21-1.79 4-4 4m-930.38-38.72c-2.21 0-4-1.79-4-4v-20.07c0-2.21 1.79-4 4-4s4 1.79 4 4v20.07c0 2.21-1.79 4-4 4m930.38-1.43c-2.21 0-4-1.79-4-4v-20.07c0-2.21 1.79-4 4-4s4 1.79 4 4v20.07c0 2.21-1.79 4-4 4m-930.38-38.72c-2.21 0-4-1.79-4-4v-20.07c0-2.21 1.79-4 4-4s4 1.79 4 4v20.07c0 2.21-1.79 4-4 4m930.38-1.43c-2.21 0-4-1.79-4-4v-20.07c0-2.21 1.79-4 4-4s4 1.79 4 4v20.07c0 2.21-1.79 4-4 4m-930.38-38.72c-2.21 0-4-1.79-4-4v-20.07c0-2.21 1.79-4 4-4s4 1.79 4 4v20.07c0 2.21-1.79 4-4 4m930.38-1.43c-2.21 0-4-1.79-4-4v-20.07c0-2.21 1.79-4 4-4s4 1.79 4 4v20.07c0 2.21-1.79 4-4 4m-930.38-38.72c-2.21 0-4-1.79-4-4v-11.24c0-3.02.1-6.08.3-9.08.14-2.2 2.06-3.87 4.25-3.73 2.2.14 3.88 2.05 3.73 4.25-.18 2.83-.28 5.71-.28 8.56v11.24c0 2.21-1.79 4-4 4m930.38-1.43c-2.21 0-4-1.79-4-4v-9.81c0-3.31-.12-6.65-.38-9.94a4 4 0 0 1 3.69-4.29c2.2-.17 4.12 1.48 4.29 3.69.27 3.49.4 7.04.4 10.55v9.81c0 2.21-1.79 4-4 4Zm-927.29-38.48a3.994 3.994 0 0 1-3.91-4.85 136.6 136.6 0 0 1 5.94-19.8 4.006 4.006 0 0 1 5.17-2.3c2.06.79 3.09 3.11 2.3 5.17a130 130 0 0 0-5.59 18.64 4 4 0 0 1-3.9 3.15Zm923.89-1.39a3.99 3.99 0 0 1-3.89-3.1c-1.45-6.3-3.4-12.55-5.78-18.56-.82-2.05.19-4.38 2.24-5.19 2.05-.82 4.38.19 5.19 2.24 2.53 6.39 4.6 13.02 6.14 19.72.5 2.15-.85 4.3-3 4.8-.3.07-.6.1-.9.1Zm-909.54-35.95c-.67 0-1.35-.17-1.98-.53a3.996 3.996 0 0 1-1.49-5.46c3.4-5.96 7.29-11.72 11.55-17.12a4.004 4.004 0 0 1 5.62-.66 4.004 4.004 0 0 1 .66 5.62c-4.02 5.09-7.67 10.51-10.88 16.13a4.01 4.01 0 0 1-3.48 2.02m894.81-1.2c-1.38 0-2.71-.71-3.46-1.98-3.26-5.58-6.97-10.97-11.04-16a3.99 3.99 0 0 1 .6-5.62 3.99 3.99 0 0 1 5.62.6c4.32 5.35 8.26 11.07 11.72 16.99a4 4 0 0 1-1.44 5.47c-.63.37-1.33.55-2.01.55Zm-870.03-30.18c-1.07 0-2.13-.42-2.92-1.26a4 4 0 0 1 .18-5.65c5.01-4.7 10.42-9.05 16.08-12.95a4.006 4.006 0 0 1 5.56 1.02c1.25 1.82.79 4.31-1.02 5.56-5.33 3.67-10.42 7.77-15.14 12.2-.77.72-1.75 1.08-2.73 1.08Zm844.93-.94c-.97 0-1.94-.35-2.7-1.05-4.77-4.38-9.91-8.44-15.27-12.05a3.993 3.993 0 0 1-1.08-5.55 3.993 3.993 0 0 1 5.55-1.08c5.69 3.83 11.15 8.14 16.21 12.79a3.99 3.99 0 0 1 .24 5.65 4 4 0 0 1-2.95 1.3Zm-812.01-21.73c-1.48 0-2.91-.83-3.6-2.25a4 4 0 0 1 1.85-5.35c6.18-3.01 12.64-5.57 19.2-7.61a4 4 0 0 1 5.01 2.63 4 4 0 0 1-2.63 5.01c-6.17 1.92-12.26 4.33-18.08 7.16-.56.27-1.16.4-1.75.4Zm778.83-.61c-.57 0-1.16-.12-1.71-.39-5.85-2.77-11.96-5.12-18.16-6.97a4 4 0 0 1-2.69-4.98 4.005 4.005 0 0 1 4.98-2.69c6.58 1.97 13.07 4.46 19.29 7.41 2 .95 2.85 3.33 1.9 5.33a4 4 0 0 1-3.62 2.29Zm-740.67-11.26c-1.94 0-3.65-1.42-3.95-3.4a3.997 3.997 0 0 1 3.36-4.55c6.77-1.02 13.69-1.55 20.58-1.55 2.21 0 4 1.79 4 4s-1.79 4-4 4c-6.5 0-13.02.5-19.4 1.46-.2.03-.4.05-.6.05Zm702.37-.2c-.19 0-.37-.01-.56-.04-5.98-.84-12.1-1.27-18.18-1.27h-1.27c-2.21 0-4-1.79-4-4s1.79-4 4-4h1.27c6.46 0 12.95.45 19.29 1.34 2.19.31 3.71 2.33 3.4 4.52-.28 2-1.99 3.44-3.96 3.44Zm-40.08-1.31h-20.07c-2.21 0-4-1.79-4-4s1.79-4 4-4h20.07c2.21 0 4 1.79 4 4s-1.79 4-4 4m-40.14 0h-20.07c-2.21 0-4-1.79-4-4s1.79-4 4-4h20.07c2.21 0 4 1.79 4 4s-1.79 4-4 4m-521.86 0h-20.07c-2.21 0-4-1.79-4-4s1.79-4 4-4h20.07c2.21 0 4 1.79 4 4s-1.79 4-4 4m-40.14 0h-20.07c-2.21 0-4-1.79-4-4s1.79-4 4-4h20.07c2.21 0 4 1.79 4 4s-1.79 4-4 4m647.94 964.76h-19.95c-2.21 0-4-1.79-4-4s1.79-4 4-4h20.28c2.2 0 3.99 1.78 4 3.98 0 2.21-1.77 4.01-3.98 4.02zm-39.89 0h-19.95c-2.21 0-4-1.79-4-4s1.79-4 4-4h19.95c2.21 0 4 1.79 4 4s-1.79 4-4 4m-39.89 0h-19.95c-2.21 0-4-1.79-4-4s1.79-4 4-4h19.95c2.21 0 4 1.79 4 4s-1.79 4-4 4m-518.61 0h-19.95c-2.21 0-4-1.79-4-4s1.79-4 4-4h19.95c2.21 0 4 1.79 4 4s-1.79 4-4 4m-39.89 0h-19.95c-2.21 0-4-1.79-4-4s1.79-4 4-4h19.95c2.21 0 4 1.79 4 4s-1.79 4-4 4m-39.89 0H451.8c-2.21 0-4-1.79-4-4s1.79-4 4-4h19.95c2.21 0 4 1.79 4 4s-1.79 4-4 4m-39.89-.11h-.16c-6.82-.27-13.67-1.01-20.36-2.21a4 4 0 0 1-3.23-4.64 4 4 0 0 1 4.64-3.23c6.32 1.13 12.8 1.84 19.26 2.09a4 4 0 0 1 3.84 4.15 4 4 0 0 1-3.99 3.84m738.27-1.3a4.01 4.01 0 0 1-3.96-3.44 3.996 3.996 0 0 1 3.4-4.52c6.38-.9 12.76-2.26 18.94-4.04 2.12-.61 4.34.61 4.95 2.74.61 2.12-.61 4.34-2.74 4.95-6.54 1.88-13.28 3.32-20.03 4.27-.19.03-.38.04-.56.04m-777.4-5.73c-.41 0-.84-.06-1.25-.2-6.47-2.13-12.86-4.74-18.98-7.75a4 4 0 0 1-1.82-5.36c.98-1.98 3.38-2.8 5.36-1.82 5.78 2.85 11.82 5.31 17.94 7.33a3.999 3.999 0 0 1-1.25 7.8m815.6-5.27c-1.53 0-2.99-.88-3.65-2.37-.9-2.02 0-4.38 2.02-5.28 5.87-2.62 11.62-5.69 17.08-9.11a3.993 3.993 0 0 1 5.51 1.27c1.17 1.87.61 4.34-1.27 5.51-5.78 3.62-11.85 6.86-18.06 9.64-.53.24-1.08.35-1.63.35Zm-851.29-12.31c-.77 0-1.56-.22-2.25-.69a150 150 0 0 1-16.1-12.66 4 4 0 0 1 5.37-5.93c4.78 4.33 9.91 8.36 15.23 11.98a4.002 4.002 0 0 1-2.25 7.31Zm884.96-8.79c-1.14 0-2.27-.49-3.07-1.43a4.01 4.01 0 0 1 .49-5.64c4.93-4.14 9.62-8.67 13.94-13.45a4 4 0 0 1 5.94 5.36c-4.57 5.06-9.52 9.84-14.74 14.22-.75.63-1.66.94-2.57.94Zm-914.43-17.9a4.01 4.01 0 0 1-3.07-1.43c-4.37-5.23-8.42-10.8-12.02-16.58a3.995 3.995 0 0 1 1.28-5.51c1.87-1.17 4.34-.6 5.51 1.28a141 141 0 0 0 11.37 15.68 3.996 3.996 0 0 1-3.06 6.56Zm941.06-11.63c-.77 0-1.55-.22-2.24-.69a3.994 3.994 0 0 1-1.07-5.55c3.62-5.34 6.89-10.98 9.72-16.76.97-1.98 3.37-2.8 5.35-1.83s2.8 3.37 1.83 5.35c-3 6.11-6.46 12.07-10.28 17.72a4 4 0 0 1-3.32 1.76Zm-962.1-22.08a4.02 4.02 0 0 1-3.66-2.38 148 148 0 0 1-7-19.25 4.003 4.003 0 1 1 7.7-2.2c1.77 6.19 4 12.32 6.61 18.2.9 2.02 0 4.38-2.03 5.28-.53.23-1.08.35-1.62.35m979.61-13.62c-.41 0-.83-.06-1.24-.2-2.1-.69-3.25-2.95-2.56-5.04 2-6.12 3.58-12.43 4.71-18.78a3.996 3.996 0 0 1 4.64-3.24c2.18.39 3.62 2.46 3.24 4.64-1.19 6.71-2.87 13.4-4.99 19.87a4 4 0 0 1-3.8 2.76Zm-990.54-24.6a4.01 4.01 0 0 1-3.96-3.45c-.94-6.72-1.41-13.59-1.42-20.43 0-2.21 1.79-4 4-4s4 1.79 4 4c0 6.47.46 12.97 1.34 19.33.3 2.19-1.22 4.21-3.41 4.51-.19.03-.37.04-.56.04Zm997.51-14.54h-.15a4 4 0 0 1-3.85-4.14c.06-1.76.1-3.53.1-5.27v-14.52c0-2.21 1.79-4 4-4s4 1.79 4 4v14.52c0 1.84-.04 3.71-.1 5.57a3.993 3.993 0 0 1-3.99 3.85Zm-998.88-25.28c-2.21 0-4-1.79-4-4v-19.95c0-2.21 1.79-4 4-4s4 1.79 4 4v19.95c0 2.21-1.79 4-4 4m998.98-14.61c-2.21 0-4-1.79-4-4v-19.95c0-2.21 1.79-4 4-4s4 1.79 4 4v19.95c0 2.21-1.79 4-4 4m-998.98-25.29c-2.21 0-4-1.79-4-4v-19.95c0-2.21 1.79-4 4-4s4 1.79 4 4v19.95c0 2.21-1.79 4-4 4m998.98-14.61c-2.21 0-4-1.79-4-4v-19.95c0-2.21 1.79-4 4-4s4 1.79 4 4v19.95c0 2.21-1.79 4-4 4m-998.98-25.29c-2.21 0-4-1.79-4-4v-19.95c0-2.21 1.79-4 4-4s4 1.79 4 4v19.95c0 2.21-1.79 4-4 4m998.98-14.61c-2.21 0-4-1.79-4-4v-19.95c0-2.21 1.79-4 4-4s4 1.79 4 4v19.95c0 2.21-1.79 4-4 4M294.23 972.4c-2.21 0-4-1.79-4-4v-19.95c0-2.21 1.79-4 4-4s4 1.79 4 4v19.95c0 2.21-1.79 4-4 4m998.98-14.61c-2.21 0-4-1.79-4-4v-19.95c0-2.21 1.79-4 4-4s4 1.79 4 4v19.95c0 2.21-1.79 4-4 4M294.23 932.5c-2.21 0-4-1.79-4-4v-19.95c0-2.21 1.79-4 4-4s4 1.79 4 4v19.95c0 2.21-1.79 4-4 4m998.98-14.61c-2.21 0-4-1.79-4-4v-19.95c0-2.21 1.79-4 4-4s4 1.79 4 4v19.95c0 2.21-1.79 4-4 4M294.23 892.6c-2.21 0-4-1.79-4-4v-19.95c0-2.21 1.79-4 4-4s4 1.79 4 4v19.95c0 2.21-1.79 4-4 4m998.98-14.61c-2.21 0-4-1.79-4-4v-19.95c0-2.21 1.79-4 4-4s4 1.79 4 4v19.95c0 2.21-1.79 4-4 4M294.23 852.7c-2.21 0-4-1.79-4-4v-19.95c0-2.21 1.79-4 4-4s4 1.79 4 4v19.95c0 2.21-1.79 4-4 4m998.98-14.61c-2.21 0-4-1.79-4-4v-19.95c0-2.21 1.79-4 4-4s4 1.79 4 4v19.95c0 2.21-1.79 4-4 4M294.23 812.8c-2.21 0-4-1.79-4-4v-19.95c0-2.21 1.79-4 4-4s4 1.79 4 4v19.95c0 2.21-1.79 4-4 4m998.98-14.61c-2.21 0-4-1.79-4-4v-19.95c0-2.21 1.79-4 4-4s4 1.79 4 4v19.95c0 2.21-1.79 4-4 4M294.23 772.9c-2.21 0-4-1.79-4-4v-19.95c0-2.21 1.79-4 4-4s4 1.79 4 4v19.95c0 2.21-1.79 4-4 4m998.98-14.61c-2.21 0-4-1.79-4-4v-19.95c0-2.21 1.79-4 4-4s4 1.79 4 4v19.95c0 2.21-1.79 4-4 4M294.23 733c-2.21 0-4-1.79-4-4v-19.95c0-2.21 1.79-4 4-4s4 1.79 4 4V729c0 2.21-1.79 4-4 4m998.98-14.61c-2.21 0-4-1.79-4-4v-19.95c0-2.21 1.79-4 4-4s4 1.79 4 4v19.95c0 2.21-1.79 4-4 4M294.23 693.1c-2.21 0-4-1.79-4-4v-19.95c0-2.21 1.79-4 4-4s4 1.79 4 4v19.95c0 2.21-1.79 4-4 4m998.98-14.61c-2.21 0-4-1.79-4-4v-19.95c0-2.21 1.79-4 4-4s4 1.79 4 4v19.95c0 2.21-1.79 4-4 4M294.23 653.2c-2.21 0-4-1.79-4-4v-19.95c0-2.21 1.79-4 4-4s4 1.79 4 4v19.95c0 2.21-1.79 4-4 4m998.98-14.61c-2.21 0-4-1.79-4-4v-19.95c0-2.21 1.79-4 4-4s4 1.79 4 4v19.95c0 2.21-1.79 4-4 4M294.23 613.3c-2.21 0-4-1.79-4-4v-19.95c0-2.21 1.79-4 4-4s4 1.79 4 4v19.95c0 2.21-1.79 4-4 4m998.98-14.61c-2.21 0-4-1.79-4-4v-19.95c0-2.21 1.79-4 4-4s4 1.79 4 4v19.95c0 2.21-1.79 4-4 4M294.23 573.4c-2.21 0-4-1.79-4-4v-19.95c0-2.21 1.79-4 4-4s4 1.79 4 4v19.95c0 2.21-1.79 4-4 4m998.98-14.61c-2.21 0-4-1.79-4-4v-19.95c0-2.21 1.79-4 4-4s4 1.79 4 4v19.95c0 2.21-1.79 4-4 4M294.23 533.5c-2.21 0-4-1.79-4-4v-19.95c0-2.21 1.79-4 4-4s4 1.79 4 4v19.95c0 2.21-1.79 4-4 4m998.98-14.61c-2.21 0-4-1.79-4-4v-19.95c0-2.21 1.79-4 4-4s4 1.79 4 4v19.95c0 2.21-1.79 4-4 4M294.23 493.6c-2.21 0-4-1.79-4-4v-19.95c0-2.21 1.79-4 4-4s4 1.79 4 4v19.95c0 2.21-1.79 4-4 4m998.98-14.61c-2.21 0-4-1.79-4-4v-19.95c0-2.21 1.79-4 4-4s4 1.79 4 4v19.95c0 2.21-1.79 4-4 4M294.23 453.7c-2.21 0-4-1.79-4-4v-19.95c0-2.21 1.79-4 4-4s4 1.79 4 4v19.95c0 2.21-1.79 4-4 4m998.98-14.61c-2.21 0-4-1.79-4-4v-19.95c0-2.21 1.79-4 4-4s4 1.79 4 4v19.95c0 2.21-1.79 4-4 4M294.23 413.8c-2.21 0-4-1.79-4-4v-14.36c0-1.9.04-3.83.11-5.74a4 4 0 0 1 4.15-3.85c2.21.08 3.93 1.94 3.85 4.15-.07 1.81-.1 3.64-.1 5.44v14.36c0 2.21-1.79 4-4 4Zm998.98-14.61c-2.21 0-4-1.79-4-3.99-.01-6.46-.47-12.97-1.36-19.32a4.003 4.003 0 0 1 3.4-4.52 4.003 4.003 0 0 1 4.52 3.4c.95 6.72 1.43 13.59 1.44 20.43 0 2.21-1.78 4-3.99 4.01Zm-996.73-25.14c-.23 0-.47-.02-.71-.06a4 4 0 0 1-3.23-4.64c1.2-6.71 2.89-13.4 5.01-19.86.69-2.1 2.95-3.24 5.05-2.55s3.24 2.95 2.55 5.05a137 137 0 0 0-4.73 18.78 4 4 0 0 1-3.93 3.3Zm991.18-14.22a3.99 3.99 0 0 1-3.84-2.9c-1.78-6.19-4.01-12.31-6.63-18.19-.9-2.02 0-4.38 2.02-5.28s4.38 0 5.28 2.02c2.78 6.23 5.14 12.7 7.02 19.25.61 2.12-.62 4.34-2.74 4.95-.37.11-.74.16-1.11.16Zm-978.79-23.56a3.993 3.993 0 0 1-3.58-5.76c3-6.11 6.47-12.07 10.3-17.71a4.002 4.002 0 1 1 6.62 4.5 140 140 0 0 0-9.74 16.75 4.02 4.02 0 0 1-3.59 2.24Zm962.61-12.73a3.99 3.99 0 0 1-3.39-1.88c-3.42-5.46-7.25-10.73-11.39-15.66a4.01 4.01 0 0 1 .49-5.64 3.996 3.996 0 0 1 5.63.49 148 148 0 0 1 12.04 16.56 4.001 4.001 0 0 1-3.39 6.12Zm-940.27-20.17c-.96 0-1.92-.34-2.68-1.03a4 4 0 0 1-.28-5.65c4.57-5.05 9.53-9.83 14.75-14.2a3.987 3.987 0 0 1 5.63.5 3.987 3.987 0 0 1-.5 5.63c-4.94 4.14-9.63 8.66-13.96 13.44-.79.87-1.88 1.32-2.97 1.32Zm914.72-10.29c-.96 0-1.92-.34-2.68-1.03-4.78-4.32-9.91-8.35-15.24-11.96a4.004 4.004 0 0 1-1.07-5.56 4 4 0 0 1 5.56-1.06c5.63 3.82 11.06 8.08 16.11 12.65a4 4 0 0 1-2.68 6.97Zm-884.25-15.23c-1.33 0-2.64-.67-3.4-1.88a4 4 0 0 1 1.27-5.51c5.78-3.61 11.86-6.85 18.07-9.61 2.02-.9 4.38 0 5.28 2.03.9 2.02 0 4.38-2.03 5.28a140.5 140.5 0 0 0-17.09 9.09 4 4 0 0 1-2.12.61Zm851.33-7.08c-.59 0-1.19-.13-1.76-.41-5.79-2.84-11.83-5.3-17.95-7.31a4.01 4.01 0 0 1-2.56-5.05c.69-2.1 2.95-3.25 5.05-2.56 6.48 2.12 12.86 4.72 18.98 7.73 1.98.97 2.8 3.37 1.83 5.35a4 4 0 0 1-3.59 2.24Zm-815.03-9.08a3.99 3.99 0 0 1-3.84-2.9c-.61-2.12.62-4.34 2.74-4.95 6.54-1.87 13.28-3.3 20.04-4.25 2.2-.31 4.21 1.22 4.52 3.41a4.003 4.003 0 0 1-3.41 4.52c-6.39.89-12.76 2.25-18.94 4.02-.37.11-.74.16-1.1.16Zm777.25-3.29c-.23 0-.47-.02-.71-.06-6.32-1.13-12.8-1.82-19.26-2.07a4 4 0 0 1-3.85-4.15 3.995 3.995 0 0 1 4.15-3.85c6.82.26 13.67.99 20.36 2.18a4.01 4.01 0 0 1 3.24 4.64 3.994 3.994 0 0 1-3.93 3.3Zm-737.89-2.23c-2.21 0-4-1.79-4-4s1.79-4 4-4h19.94c2.21 0 4 1.79 4 4s-1.79 4-4 4h-19.95Zm698.13 0h-19.95c-2.21 0-4-1.79-4-4s1.79-4 4-4h19.95c2.21 0 4 1.79 4 4s-1.79 4-4 4m-39.89 0h-19.95c-2.21 0-4-1.79-4-4s1.79-4 4-4h19.95c2.21 0 4 1.79 4 4s-1.79 4-4 4m-39.89 0h-19.95c-2.21 0-4-1.79-4-4s1.79-4 4-4h19.95c2.21 0 4 1.79 4 4s-1.79 4-4 4m-518.61 0h-19.95c-2.21 0-4-1.79-4-4s1.79-4 4-4h19.95c2.21 0 4 1.79 4 4s-1.79 4-4 4m-39.89 0h-19.95c-2.21 0-4-1.79-4-4s1.79-4 4-4h19.95c2.21 0 4 1.79 4 4s-1.79 4-4 4m145.91 75.77c.79-4.61 1.71-9.31 2.76-14.11s2.4-10.2 4.05-16.19c1.64-5.99 3.65-12.93 6.02-20.83s5.33-17.24 8.88-28.03c-2.11.13-4.24.33-6.42.59-2.17.27-4.38.53-6.61.79.13-3.29 1.68-5.89 4.64-7.8s6.87-3.32 11.75-4.24c.92-2.76 1.87-5.63 2.86-8.59s2-6.05 3.06-9.28q1.575-4.83 3.36-9.87c1.18-3.36 2.4-6.87 3.65-10.56 1.25-3.68 2.53-7.43 3.85-11.25.52-1.45 1.12-3.26 1.78-5.43s.99-4.24.99-6.22c0-1.05-.17-1.78-.49-2.17-.33-.39-1.09-.59-2.27-.59-3.16 0-6.22 1.28-9.18 3.85s-5.6 5.82-7.9 9.77q-3.45 5.925-5.43 12.24c-1.32 4.21-1.97 7.96-1.97 11.25 0 1.18.1 2.37.3 3.55s.43 2.24.69 3.16c-4.34 0-7.4-1.09-9.18-3.26s-2.66-4.84-2.66-7.99c0-4.47 1.31-8.95 3.95-13.42 2.63-4.47 6.02-8.59 10.17-12.34 4.14-3.75 8.49-6.74 13.03-8.98s8.65-3.36 12.34-3.36 5.95.99 7.21 2.96c1.25 1.97 1.87 4.15 1.87 6.51 0 1.45-.17 2.9-.49 4.34-.33 1.45-.69 2.83-1.09 4.15l-15.4 50.14c1.84-.13 3.72-.23 5.63-.3 1.91-.06 3.85-.1 5.82-.1 6.18 0 12.07.17 17.67.49 5.59.33 10.89.76 15.89 1.28q3.945-12.63 7.8-24.87t7.11-21.42c2.17-6.12 3.85-10.43 5.03-12.93.52-1.05 1.25-2.37 2.17-3.95s2.14-3.03 3.65-4.34 3.19-1.97 5.03-1.97c-1.85 4.87-3.95 11.09-6.32 18.65-2.37 7.57-4.77 15.83-7.21 24.77-2.44 8.95-4.84 17.9-7.21 26.85 2.63.13 5.16.3 7.6.49 2.43.2 4.84.3 7.21.3q-4.35 4.545-8.49 5.43c-2.76.59-5.46.89-8.09.89-1.18 4.87-2.3 9.57-3.36 14.11s-1.97 8.85-2.76 12.93c-2.37 11.19-4.05 20.73-5.03 28.62-.99 7.9-1.48 14.28-1.48 19.15 0 1.58.03 2.93.1 4.05q.09 1.68.3 3.06c-5.13-.53-8.69-1.97-10.66-4.34s-2.96-6.05-2.96-11.05c0-3.42.39-7.73 1.18-12.93s1.97-10.82 3.55-16.88c1.05-3.95 2.5-9.18 4.34-15.69s3.88-13.45 6.12-20.83c-8.03 0-14.74.07-20.14.2s-10.07.27-14.01.39c-3.95.13-7.9.39-11.84.79-2.37 7.63-4.74 15.2-7.11 22.7s-4.54 14.38-6.51 20.63-3.62 11.55-4.93 15.89c-1.32 4.34-2.17 7.17-2.57 8.49-1.32 4.47-3.39 7.7-6.22 9.67s-5.3 2.96-7.4 2.96Zm127.52-8.49c-8.03 0-14.05-2.21-18.06-6.61-4.01-4.41-6.02-9.84-6.02-16.29q0-8.88 4.44-18.75c2.96-6.58 6.91-12.76 11.84-18.56 4.93-5.79 10.36-10.49 16.28-14.11s11.78-5.43 17.57-5.43c3.03 0 5.82.79 8.39 2.37s3.85 4.81 3.85 9.67-1.48 9.71-4.44 14.11c-2.96 4.41-6.84 8.32-11.65 11.75-4.81 3.42-10.07 6.22-15.79 8.39s-11.42 3.52-17.07 4.05c-.27 1.32-.46 2.57-.59 3.75s-.2 2.3-.2 3.36a26 26 0 0 0 .69 5.92c.46 1.97 1.28 3.78 2.47 5.43 1.18 1.65 2.8 2.93 4.84 3.85s4.57 1.38 7.6 1.38c5.66 0 11.25-1.61 16.78-4.84 5.53-3.22 10.66-7.47 15.4-12.73a83.3 83.3 0 0 0 12.04-17.37l2.37 1.78c-3.55 7.9-8.06 14.74-13.52 20.53s-11.38 10.3-17.76 13.52-12.87 4.84-19.45 4.84Zm-9.67-33.16c3.55-1.18 7.56-2.93 12.04-5.23 4.47-2.3 8.79-5.03 12.93-8.19 4.15-3.16 7.57-6.64 10.27-10.46s4.05-7.83 4.05-12.04c0-1.45-.27-2.57-.79-3.36-.53-.79-1.65-1.18-3.36-1.18-3.16 0-6.51 1.22-10.07 3.65-3.55 2.44-6.98 5.63-10.27 9.57-3.29 3.95-6.25 8.29-8.88 13.03s-4.61 9.48-5.92 14.21" class="cls-6bir1"/><path d="M831.42 320.68c-5.66 0-9.71-1.94-12.14-5.82-2.44-3.88-3.65-8.72-3.65-14.51 0-6.32 1.18-13.82 3.55-22.5 2.37-8.69 5.49-17.83 9.38-27.44 3.88-9.61 8.12-18.98 12.73-28.13 4.6-9.15 9.21-17.47 13.82-24.97 4.6-7.5 8.85-13.49 12.73-17.96s6.94-6.71 9.18-6.71c1.45 0 2.63.82 3.55 2.47s1.64 3.62 2.17 5.92c.52 2.3.79 4.38.79 6.22q0 5.325-2.67 13.92c-1.78 5.72-4.28 12.11-7.5 19.15-3.23 7.04-7.04 14.15-11.45 21.32a214 214 0 0 1-14.41 20.63c-5.2 6.58-10.69 12.24-16.48 16.98-.79 3.55-1.42 7.01-1.87 10.36q-.69 5.04-.69 9.57c0 10.14 2.89 15.2 8.69 15.2q4.74 0 9.57-4.05c3.22-2.7 6.32-6.15 9.28-10.36s5.56-8.69 7.8-13.42c1.31-6.84 3.29-14.18 5.92-22.01s5.66-15.69 9.08-23.59 7.04-15.46 10.86-22.7 7.57-13.69 11.25-19.34c3.68-5.66 7.11-10.13 10.26-13.42 3.16-3.29 5.73-4.93 7.7-4.93 1.45 0 2.63.82 3.55 2.47s1.64 3.62 2.17 5.92c.52 2.3.79 4.38.79 6.22 0 4.34-1.12 10.04-3.36 17.08s-5.43 14.58-9.57 22.6q-6.225 12.045-15 23.79c-5.86 7.83-12.4 14.71-19.64 20.63-.79 3.55-1.41 7.01-1.87 10.36q-.69 5.04-.69 9.57c0 10.14 2.89 15.2 8.69 15.2q5.325 0 10.56-4.74c5.235-4.74 6.78-7.14 9.87-11.94s5.76-9.77 7.99-14.9l2.96 1.58c-5.27 11.19-10.99 20.04-17.17 26.55-6.19 6.51-12.83 9.77-19.94 9.77-6.32 0-10.66-2.37-13.03-7.11s-3.23-10.66-2.57-17.77c-4.61 7.77-9.51 13.85-14.71 18.26s-10.69 6.61-16.48 6.61Zm1.38-48.17c4.6-4.6 9.08-9.9 13.42-15.89s8.39-12.2 12.14-18.65 7.07-12.7 9.97-18.75c2.89-6.05 5.13-11.48 6.71-16.29 1.58-4.8 2.37-8.52 2.37-11.15 0-1.31-.17-2.17-.49-2.57-.33-.39-.63-.59-.89-.59-1.06 0-2.86 1.68-5.43 5.03-2.57 3.36-5.56 7.87-8.98 13.52-3.42 5.66-6.91 12.11-10.46 19.34-3.55 7.24-6.94 14.81-10.17 22.7-3.23 7.9-5.96 15.66-8.19 23.29Zm46.78 0c5.79-5.79 11.09-12.17 15.89-19.15 4.8-6.97 8.98-13.95 12.53-20.92s6.32-13.35 8.29-19.15c1.97-5.79 2.96-10.33 2.96-13.62 0-1.31-.17-2.17-.49-2.57-.33-.39-.63-.59-.89-.59-1.32 0-3.52 2.14-6.61 6.42s-6.58 10.04-10.46 17.27c-3.88 7.24-7.7 15.4-11.45 24.48s-7.01 18.36-9.77 27.83" class="cls-6bir1"/><path d="M922.02 321.08c-5.66 0-9.67-1.75-12.04-5.23-2.37-3.49-3.55-7.73-3.55-12.73 0-4.08.66-8.29 1.97-12.63s3.06-8.42 5.23-12.24 4.6-6.91 7.3-9.28 5.43-3.55 8.19-3.55q.99 0 2.07.3t2.07.69c-1.18 1.05-2.6 2.99-4.24 5.82-1.65 2.83-3.19 6.06-4.64 9.67-1.45 3.62-2.66 7.2-3.65 10.76-.99 3.55-1.48 6.58-1.48 9.08 0 3.95.66 6.81 1.97 8.59 1.32 1.78 3.03 2.66 5.13 2.66q4.14 0 9.87-4.44c3.82-2.96 7.56-6.74 11.25-11.35-3.69-3.03-6.55-7.01-8.59-11.94-2.04-4.94-3.06-9.97-3.06-15.1 0-4.34.76-8.42 2.27-12.24s3.72-6.88 6.61-9.18 6.38-3.45 10.46-3.45c5.39 0 9.01 1.45 10.86 4.34 1.84 2.9 2.76 6.51 2.76 10.86 0 5.13-1.25 10.83-3.75 17.08q-3.75 9.375-9.48 18.06c2.37 1.32 4.87 1.97 7.5 1.97 2.1 0 4.47-.43 7.11-1.28q3.945-1.275 7.8-4.44c2.57-2.1 4.64-4.94 6.22-8.49l2.37 1.97c-2.63 6.19-6.35 10.56-11.15 13.13-4.81 2.57-9.38 3.85-13.72 3.85-1.71 0-3.36-.16-4.94-.49s-3.09-.82-4.54-1.48c-4.48 5.92-9.38 10.86-14.71 14.8-5.33 3.95-10.5 5.92-15.5 5.92Zm29.02-29.02q4.935-7.305 8.19-15.3c3.255-7.995 3.26-10.36 3.26-15.1 0-3.82-.56-6.61-1.68-8.39s-2.54-2.66-4.24-2.66c-2.63 0-5.33 1.91-8.09 5.72-2.76 3.82-4.14 8.62-4.14 14.41q0 5.73 1.68 11.55c1.12 3.88 2.79 7.14 5.03 9.77Zm-324.92 997.21c-8.03 0-14.08-1.32-18.16-3.95s-6.19-6.98-6.32-13.03c0-1.31.72-1.97 2.17-1.97 1.18 0 2.99.3 5.43.89 2.43.59 7.07.89 13.92.89 11.58 0 22.24-1.22 31.98-3.65s18.19-5.73 25.37-9.87c7.17-4.15 12.73-8.81 16.68-14.01s5.92-10.63 5.92-16.29c0-5.13-1.55-9.24-4.64-12.34q-4.635-4.635-12.24-7.11c-5.07-1.64-10.59-2.73-16.58-3.26-5.99-.52-11.88-.79-17.67-.79-2.5 0-5 .03-7.5.1s-4.87.1-7.11.1q-4.35 15-8.49 30.99a971 971 0 0 1-8.69 31.39c-3.95 0-7.37-1.05-10.27-3.16-2.9-2.1-4.34-4.67-4.34-7.7 0-1.18.23-2.73.69-4.64q.69-2.865 2.07-6.81c.79-2.5 2.14-6.64 4.05-12.44 1.91-5.79 4.18-12.63 6.81-20.53s5.56-16.22 8.78-24.97 6.58-17.34 10.07-25.76 6.94-15.99 10.36-22.7c-5.26 1.18-9.61 2.57-13.03 4.14-3.42 1.58-6.12 2.96-8.09 4.15s-3.49 1.78-4.54 1.78q-1.185 0-3.06-1.38c-1.25-.92-2.37-1.97-3.35-3.16-.99-1.18-1.48-2.24-1.48-3.16 7.11-2.89 14.48-5.46 22.11-7.7q11.445-3.36 27.63-3.36c4.74 0 9.94.36 15.59 1.09 5.66.73 11.05 2.17 16.19 4.34 5.13 2.17 9.38 5.4 12.73 9.67 3.36 4.28 5.03 9.97 5.03 17.07 0 5.66-1.22 10.56-3.65 14.71-2.44 4.14-5.69 7.7-9.77 10.66s-8.56 5.4-13.42 7.3c-4.87 1.91-9.67 3.45-14.41 4.64 8.16 1.05 14.97 2.73 20.43 5.03 5.46 2.31 9.8 4.97 13.03 8 3.22 3.03 5.53 6.15 6.91 9.38s2.07 6.35 2.07 9.38c0 7.77-2.04 14.74-6.12 20.92-4.08 6.19-9.44 11.58-16.09 16.19-6.65 4.6-13.95 8.45-21.91 11.55-7.96 3.09-15.89 5.43-23.79 7.01s-15 2.37-21.32 2.37Zm13.23-91.79c7.37-.26 14.61-1.12 21.71-2.57 7.11-1.45 13.52-3.58 19.25-6.42 5.72-2.83 10.3-6.51 13.72-11.05s5.13-10.17 5.13-16.88c0-6.32-1.71-11.18-5.13-14.61-3.42-3.42-7.9-5.79-13.42-7.11-5.53-1.31-11.45-1.97-17.76-1.97h-.79c-4.48 8.82-8.56 18.39-12.24 28.72-3.69 10.33-7.17 20.96-10.46 31.88Zm93.56 83.89c-4.34 0-8.13-1.45-11.35-4.34-3.22-2.9-4.84-7.24-4.84-13.03 0-4.6 1.05-9.6 3.16-15 2.1-5.39 5-10.73 8.69-15.99 3.68-5.26 7.9-10.03 12.63-14.31 4.74-4.28 9.8-7.73 15.2-10.36 5.39-2.63 10.79-3.95 16.19-3.95s10.46 1.45 14.41 4.34c3.95 2.9 5.92 6.71 5.92 11.45 0 3.55-1.25 6.12-3.75 7.7s-5.46 2.04-8.88 1.38c.26-1.18.49-2.37.69-3.55q.3-1.77.3-3.75c0-2.63-.53-5-1.58-7.11-1.06-2.1-3.29-3.16-6.71-3.16q-5.535 0-11.25 3.75c-3.82 2.5-7.47 5.76-10.96 9.77-3.49 4.02-6.61 8.42-9.38 13.23-2.76 4.81-4.94 9.51-6.52 14.11-1.58 4.61-2.37 8.75-2.37 12.44 0 4.21 1.51 6.32 4.54 6.32s6.38-1.48 10.07-4.44c3.68-2.96 7.4-6.68 11.15-11.15s7.33-9.05 10.76-13.72q5.13-7.005 8.88-11.94c.39-.66.92-.99 1.58-.99.52.13 1.55.43 3.06.89s2.93 1.15 4.24 2.07 1.97 2.11 1.97 3.55c0 1.32-.56 3-1.68 5.03-1.12 2.04-2.44 4.28-3.95 6.71a68 68 0 0 0-3.95 7.3c-1.12 2.44-1.68 4.77-1.68 7.01 0 1.71.46 3.33 1.38 4.84s2.43 2.27 4.54 2.27c3.16 0 7.6-2.34 13.32-7.01 5.73-4.67 11.55-12.6 17.47-23.79l3.75 3.75c-3.16 7.11-6.94 13.39-11.35 18.85s-9.05 9.74-13.92 12.83-9.8 4.64-14.8 4.64c-5.4 0-9.41-1.71-12.04-5.13-2.64-3.42-4.08-7.11-4.34-11.05v-.99c-5.27 6.32-10.1 11.32-14.51 15s-9.11 5.53-14.11 5.53Z" class="cls-6bir1"/><path d="M830.23 1286.5c-7.5 0-13.19-2.34-17.07-7.01s-5.82-11.08-5.82-19.25c0-6.45 1.12-14.08 3.36-22.9 2.24-8.81 5.2-18.06 8.88-27.73s7.8-19.15 12.34-28.43 9.18-17.7 13.92-25.27c4.74-7.56 9.21-13.59 13.42-18.06s7.83-6.71 10.86-6.71c2.63 0 4.6 1.51 5.92 4.54 1.31 3.03 2.04 6.06 2.17 9.08 0 3.69-.79 8.16-2.37 13.42s-3.82 10.86-6.71 16.78a159 159 0 0 1-10.07 17.57c-3.82 5.79-8 11.05-12.53 15.79-4.54 4.74-9.25 8.49-14.11 11.25q-1.38 2.565-3.45 8.88c-1.38 4.21-2.63 9.02-3.75 14.41-1.12 5.4-1.68 10.79-1.68 16.19s.76 9.77 2.27 13.52 4.18 5.63 7.99 5.63c3.42 0 7.11-1.58 11.05-4.74 3.95-3.16 7.17-6.97 9.67-11.45-4.87-2.63-8.56-6.32-11.05-11.05q-3.75-7.11-3.75-15c0-6.45 1.74-11.65 5.23-15.59 3.49-3.95 7.73-5.92 12.73-5.92 4.21 0 7.7 1.61 10.46 4.84s4.14 8.19 4.14 14.9c0 3.82-.49 7.87-1.48 12.14-.99 4.28-2.47 8.52-4.44 12.73.66 0 1.22.03 1.68.1s1.09.1 1.88.1c4.6 0 8.55-1.25 11.84-3.75s6.05-5.46 8.29-8.88 4.01-6.51 5.33-9.28l2.96 4.14c-3.29 7.77-7.34 13.69-12.14 17.77-4.81 4.08-11.09 6.12-18.85 6.12h-2.07c-.73 0-1.42-.07-2.07-.2-3.68 5.92-8.26 10.96-13.72 15.1-5.46 4.15-11.88 6.22-19.25 6.22Zm5.92-79.35c3.29-3.03 6.48-6.54 9.57-10.56 3.09-4.01 5.99-8.22 8.69-12.63s5.06-8.75 7.11-13.03c2.04-4.28 3.72-8.16 5.03-11.65s2.1-6.28 2.37-8.39v-1.18c-1.18.39-3.13 2.3-5.82 5.72-2.7 3.42-5.72 7.86-9.08 13.32s-6.61 11.52-9.77 18.16c-3.16 6.65-5.86 13.39-8.09 20.23Zm21.71 48.36c1.18-2.63 2.07-5.3 2.66-8s.89-5.63.89-8.78c0-4.74-.56-8.22-1.68-10.46q-1.68-3.36-4.05-3.36c-1.71 0-3.19 1.18-4.44 3.55s-1.87 5.2-1.87 8.49c0 2.76.59 5.99 1.78 9.67 1.18 3.69 3.42 6.65 6.71 8.88Z" class="cls-6bir1"/><path d="M899.71 1327.37q-4.935 0-9.18-3.06c-4.245-3.06-4.24-5.3-4.24-9.77 0-4.21 1.25-8 3.75-11.35s5.72-6.45 9.67-9.28 8.19-5.4 12.73-7.7c4.54-2.31 8.91-4.44 13.13-6.42 1.45-3.82 3.06-8.65 4.84-14.51 1.78-5.85 3.32-11.28 4.64-16.28-4.08 5.66-8.42 10.66-13.03 15s-9.74 6.51-15.4 6.51c-2.37 0-4.87-.49-7.5-1.48s-4.84-2.7-6.61-5.13c-1.78-2.43-2.66-5.69-2.66-9.77 0-3.42.62-7.57 1.87-12.44q1.875-7.305 4.74-14.31c1.91-4.67 3.91-8.55 6.02-11.65 2.1-3.09 3.95-4.64 5.53-4.64.79 0 1.94.3 3.45.89q2.265.885 4.44 2.37c1.45.99 2.37 2.07 2.76 3.26-1.18 1.58-2.5 3.85-3.95 6.81q-2.175 4.44-4.14 9.87c-1.32 3.62-2.4 7.14-3.26 10.56s-1.28 6.38-1.28 8.88c0 1.97.39 3.69 1.18 5.13.79 1.45 2.3 2.17 4.54 2.17 2.89 0 5.89-1.18 8.98-3.55s6.12-5.39 9.08-9.08c2.96-3.68 5.63-7.43 7.99-11.25.26-.92.52-2.37.79-4.34q.39-2.955 1.38-6.12.99-3.36 3.45-6.12c1.64-1.84 3.98-2.76 7.01-2.76 1.05 0 2.04.07 2.96.2s2.04.33 3.36.59q0 2.955-2.07 11.55c-2.07 8.595-3.19 12.34-5.43 19.84q-3.36 11.25-7.5 22.5c5.53-2.24 11.28-5.95 17.27-11.15s10.82-12.6 14.51-22.21l3.35 2.76c-1.97 6.58-4.97 12.31-8.98 17.17-4.02 4.87-8.52 9.02-13.52 12.44s-10.07 6.25-15.2 8.49c-3.55 8.55-7.4 16.45-11.55 23.69s-8.52 13-13.13 17.27c-4.61 4.28-9.54 6.42-14.8 6.42Zm-1.97-7.3c2.5 0 5.99-2.63 10.46-7.9s9.01-13.16 13.62-23.69c-4.21 2.1-8.46 4.57-12.73 7.4-4.28 2.83-7.86 5.82-10.76 8.98s-4.34 6.38-4.34 9.67c0 1.31.3 2.57.89 3.75s1.55 1.78 2.86 1.78Zm79.35-46c-2.11 0-3.95-.53-5.53-1.58s-2.37-2.76-2.37-5.13q0-3.75 4.05-6.51c2.7-1.84 5.63-2.76 8.78-2.76 1.97 0 3.58.46 4.84 1.38 1.25.92 1.88 2.5 1.88 4.74s-1.18 4.44-3.55 6.61-5.07 3.26-8.09 3.26Zm14.8-60.6c2.89-7.5 5.92-15.2 9.08-23.1s6.32-15.43 9.48-22.6 6.25-13.62 9.28-19.35c3.03-5.72 5.95-10.23 8.78-13.52s5.49-4.93 8-4.93c1.45 0 2.73.56 3.85 1.68s1.68 2.54 1.68 4.24c0 1.85-1.09 5.46-3.26 10.86s-5.03 11.84-8.59 19.35c-3.55 7.5-7.5 15.46-11.84 23.89-4.34 8.42-8.69 16.68-13.03 24.77s-8.42 15.37-12.24 21.81q-5.73 9.675-9.48 15c-.39-.13-.79-.26-1.18-.39s-.79-.26-1.18-.39c.13-3.42.76-7.3 1.87-11.65 1.12-4.34 2.5-8.79 4.14-13.32 1.64-4.54 3.19-8.65 4.64-12.34Z" class="cls-6bir1"/><path d="M1433.79 571.95c4.63-19.68 2.48-52.38-20.18-69.55-22.15-16.78-53.38-10.73-70.86-1.4-36.61 19.53-54.19 75.44-40.76 139.65-1.45 1.69-4.71 5.02-10.02 6.88a23.6 23.6 0 0 1-9.19 1.27c1.38 2.95 4.93 9.43 12.4 14 4.17 2.55 8.14 3.64 10.9 4.15.88-2.11 1.74-4.57 2.43-7.36 1.16-4.68 1.5-8.88 1.51-12.23 64.96-3.38 114.23-34.85 123.77-75.4Z" class="cls-6bir7"/><path d="M1310.02 647.35c-.01 3.35-.35 7.55-1.51 12.23-.69 2.79-1.55 5.25-2.43 7.36-2.76-.51-6.74-1.6-10.9-4.15a31 31 0 0 1-6.52-5.32 33.7 33.7 0 0 1-5.88-8.68c2.06.13 5.4.07 9.19-1.26 4.83-1.7 7.97-4.62 9.59-6.4.06-.07.13-.14.19-.21 64.87-3.43 114.05-34.88 123.59-75.39 4.34-18.43 2.72-48.29-16.12-66.1 1.5.9 2.97 1.88 4.4 2.97 22.66 17.16 24.81 49.87 20.18 69.54-9.55 40.55-58.81 72.02-123.77 75.41Z" class="cls-6bir6"/><path d="M1297.62 660.53c-2.33-.43-5.52-1.27-8.97-3.05a33.7 33.7 0 0 1-5.88-8.68c2.06.13 5.4.07 9.19-1.26 4.83-1.7 7.97-4.62 9.59-6.4a51.4 51.4 0 0 1-3.94 19.4Z" class="cls-6bir7"/><path d="M1328.47 531.34c-9.16 12.62-10.65 22.18-12.18 21.77-1.99-.53-2.89-17.45 6.88-29.24 8.22-9.92 21.45-13.14 22.53-11.43.95 1.51-7.99 6.16-17.24 18.9Z" class="cls-6bir5"/><circle cx="1357.57" cy="508.6" r="4.05" class="cls-6bir5"/><circle cx="1314.67" cy="565.2" r="4.05" class="cls-6bir5"/><path d="M65.8 957.49c-5.59-34.92 2.31-91.7 44-118.78 40.77-26.48 94.49-11.97 123.81 6.51 61.4 38.7 85.01 138.47 53.45 248.81 2.32 3.14 7.59 9.35 16.6 13.28 6.45 2.81 12.27 3.33 15.88 3.37-2.79 4.97-9.79 15.83-23.4 22.85-7.59 3.92-14.67 5.33-19.55 5.86-1.27-3.8-2.46-8.2-3.31-13.15a90 90 0 0 1-1.09-21.54c-112.9-14.12-194.88-75.25-206.41-147.21Z" class="cls-6bir7"/><path d="M272.21 1104.71c-.41 5.85-.35 13.22 1.09 21.53.85 4.95 2.04 9.35 3.31 13.15 4.88-.53 11.95-1.93 19.55-5.86 4.8-2.48 8.79-5.44 12.05-8.45 5.98-5.51 9.55-11.19 11.35-14.4-3.61-.04-9.43-.56-15.88-3.37-8.22-3.58-13.32-9.06-15.92-12.38l-.3-.39c-112.74-14.19-194.57-75.28-206.09-147.17-5.24-32.7 1.36-84.59 36.48-113.28a85 85 0 0 0-8.04 4.62c-41.7 27.08-49.6 83.87-44 118.78 11.53 71.96 93.5 133.09 206.41 147.21Z" class="cls-6bir6"/><path d="M292.17 1129.27c4.11-.45 9.79-1.52 16.03-4.19 5.98-5.51 9.55-11.19 11.35-14.4-3.61-.04-9.43-.56-15.88-3.37-8.22-3.58-13.32-9.06-15.92-12.38-.38 5.8-.3 13.03 1.11 21.19.85 4.95 2.04 9.35 3.31 13.15" class="cls-6bir7"/><path d="M254.7 899.97c14.39 23.17 15.77 40.04 18.5 39.52 3.53-.67 7.25-30.08-8.31-51.89-13.09-18.35-35.77-25.65-37.87-22.79-1.85 2.52 13.15 11.76 27.68 35.16" class="cls-6bir5"/><circle cx="206.79" cy="856.61" r="7.09" class="cls-6bir5"/><circle cx="274.49" cy="960.79" r="7.09" class="cls-6bir5"/><path d="M478.3 966.65c4.06-25.74-1.38-67.49-30.85-87.12-28.81-19.2-66.91-8.14-87.74 5.68-43.6 28.93-60.61 102.53-38.56 183.53-1.65 2.33-5.4 6.94-11.8 9.89-4.58 2.11-8.7 2.54-11.26 2.59 1.96 3.64 6.89 11.58 16.51 16.66a37.9 37.9 0 0 0 13.83 4.17c.91-2.8 1.76-6.05 2.38-9.7 1.04-6.13 1.1-11.55.83-15.86 80.03-11.2 138.27-56.79 146.64-109.84Z" class="cls-6bir4"/><path d="M331.66 1076.49c.27 4.31.21 9.73-.83 15.86-.62 3.65-1.47 6.9-2.38 9.7-3.45-.36-8.46-1.34-13.83-4.17-3.4-1.79-6.21-3.94-8.51-6.14-4.22-4.02-6.73-8.17-8-10.52 2.56-.05 6.68-.48 11.26-2.59 5.83-2.69 9.46-6.77 11.31-9.22.07-.1.14-.19.21-.29 79.91-11.26 138.05-56.81 146.41-109.8 3.8-24.11-.73-62.26-25.53-83.13 1.93.99 3.83 2.1 5.69 3.34 29.47 19.63 34.91 61.38 30.85 87.12-8.37 53.05-66.61 98.63-146.64 109.84Z" class="cls-6bir3"/><path d="M317.45 1094.72c-2.91-.3-6.93-1.05-11.34-2.97-4.22-4.02-6.73-8.17-8-10.52 2.56-.05 6.68-.48 11.26-2.59 5.83-2.69 9.46-6.77 11.31-9.22.25 4.26.17 9.59-.85 15.61-.62 3.65-1.47 6.9-2.38 9.7Z" class="cls-6bir4"/><path d="M344.63 925.66c-10.26 17.16-11.28 29.59-13.21 29.23-2.5-.47-5.05-22.09 6.03-38.26 9.32-13.6 25.41-19.13 26.89-17.05 1.3 1.84-9.35 8.75-19.71 26.08" class="cls-6bir2"/><ellipse cx="378.69" cy="893.4" class="cls-6bir2" rx="5.22" ry="5.02" transform="rotate(-80.22 378.652 893.386)"/><ellipse cx="330.44" cy="970.57" class="cls-6bir2" rx="5.22" ry="5.02" transform="rotate(-80.22 330.407 970.547)"/><path d="M1119.92 453.46c2.03-29.26 18.5-73.68 55.76-87.8 36.44-13.81 75.44 7.92 94.81 28.31 40.55 42.7 40.68 127.72-3.89 211.01 1.23 2.97 4.18 8.97 10.45 13.82a31.8 31.8 0 0 0 11.7 5.68c-3.07 3.5-10.48 10.97-22.31 14.11-6.6 1.76-12.34 1.57-16.22 1.09a77.4 77.4 0 0 1 2.91-28.85c-84.96-32.43-137.38-97.09-133.21-157.38Z" class="cls-6bir4"/><path d="M1253.13 610.85a77.4 77.4 0 0 0-2.91 28.85c3.88.48 9.62.66 16.22-1.09 4.18-1.11 7.8-2.76 10.88-4.59 5.64-3.34 9.44-7.26 11.42-9.53a31.8 31.8 0 0 1-11.7-5.68c-5.72-4.42-8.68-9.8-10.08-12.96-.06-.13-.11-.25-.16-.37-84.82-32.46-137.14-97.05-132.97-157.29 1.9-27.4 16.47-68.11 48.92-84.76-2.37.6-4.73 1.34-7.08 2.24-37.26 14.12-53.74 58.54-55.76 87.8-4.17 60.3 48.24 124.96 133.21 157.39Z" class="cls-6bir3"/><path d="M1264.13 634.42c3.27.4 7.87.6 13.19-.4 5.64-3.34 9.44-7.26 11.42-9.53a31.8 31.8 0 0 1-11.7-5.68c-5.72-4.42-8.68-9.8-10.08-12.96a78 78 0 0 0-3 17.33c-.24 4.16-.12 7.94.17 11.24" class="cls-6bir4"/><path d="M1276.86 442.14c6.93 21.41 4.93 35.29 7.14 35.38 2.86.12 11.1-22.96 3.01-43.48-6.8-17.27-23.06-27.38-25.21-25.47-1.89 1.69 8.06 11.95 15.05 33.57Z" class="cls-6bir2"/><ellipse cx="1247.62" cy="398.18" class="cls-6bir2" rx="5.88" ry="5.65" transform="rotate(-86.86 1247.643 398.17)"/><ellipse cx="1281.12" cy="494.97" class="cls-6bir2" rx="5.88" ry="5.65" transform="rotate(-86.86 1281.144 494.961)"/></svg>