<svg xmlns="http://www.w3.org/2000/svg" viewBox="0 0 1500 1500" width="300" height="300" fill="none"><defs><style>.cls-2bir1{fill:#934791}</style></defs><path d="M437.33 1268.04c-64.46 0-116.72-52.26-116.72-116.72V478.79c0-11.33-8.99-20.62-20.31-20.99-11.86-.39-21.69 9.12-21.69 20.99v672.53c0 87.66 71.06 158.72 158.72 158.72h69.45c11.6 0 21-9.4 21-21s-9.4-21-21-21zm853.72-811.72c0-87.66-71.06-158.72-158.72-158.72H682.67c-11.47 0-20.81 9.2-21 20.66-.19 11.73 9.27 21.34 21 21.34h449.66c64.46 0 116.72 52.26 116.72 116.72v673.03c0 11.6 9.4 21 21 21s21-9.4 21-21z" style="fill:#ff9ff8"/><path d="M646.23 1332.69c-5.89 0-13.35-1.09-22.4-3.27-5.67 1.53-10.95 2.29-15.86 2.29s-7.74-.16-8.5-.49c.76-6.54 4.01-22.64 9.73-48.31s8.58-41.77 8.58-48.31c0-1.31-.71-3.05-2.12-5.23-1.42-2.18-2.84-4.03-4.25-5.56l-2.13-2.29.49-2.45c14.28-2.94 29.65-4.41 46.1-4.41 9.05 0 16.48 2.15 22.32 6.46 5.83 4.31 8.75 10.33 8.75 18.07 0 14.93-9.1 25.29-27.3 31.06 7.3.87 13.43 3.62 18.39 8.26 4.96 4.63 7.44 11.15 7.44 19.54 0 10.25-3.71 18.58-11.12 25.01s-16.79 9.65-28.12 9.65Zm-2.94-58.04c-3.05 0-5.78.27-8.17.82-4.69 20.71-7.68 35.15-8.99 43.32 2.72 1.85 7 2.78 12.83 2.78s10.82-2.31 14.96-6.95c4.14-4.63 6.21-11.31 6.21-20.03 0-13.3-5.62-19.95-16.84-19.95Zm9.15-49.86c-4.14 0-6.6.38-7.36 1.14-1.53 9.81-4.03 22.67-7.52 38.58 4.36 0 7.41-.27 9.16-.82 1.74-.54 3.29-1.25 4.66-2.13 1.36-.87 2.92-2.23 4.66-4.09 3.81-4.03 5.72-10.49 5.72-19.37s-3.11-13.32-9.32-13.32Zm90.08 38.25c.22-.22.82-1.64 1.8-4.25 5.12 0 11.99 1.53 20.6 4.58-2.73 9.05-4.9 18.5-6.54 28.37-1.63 9.87-2.45 16.9-2.45 21.09s.43 6.29 1.31 6.29c.65 0 3.05-1.03 7.19-3.11l1.96-.98 2.94 5.72q-1.47 1.305-3.84 3.27c-2.37 1.965-4.55 3.08-8.91 5.31s-8.28 3.35-11.77 3.35c-6.76 0-10.68-3.05-11.77-9.15-6.98 6.1-13.27 9.15-18.88 9.15s-10.36-2.18-14.22-6.54c-3.87-4.36-5.8-11.23-5.8-20.6 0-14.6 3-26.13 8.99-34.58s13.24-12.67 21.74-12.67c6.1 0 11.99 1.58 17.66 4.74Zm-18.64 55.75c2.62 0 5.56-1.03 8.83-3.11.76-15.37 3.32-30.57 7.68-45.61-3.27-1.41-6.05-2.12-8.34-2.12-3.92 0-7.27 3.84-10.05 11.53-2.78 7.68-4.17 16.16-4.17 25.42s2.02 13.9 6.05 13.9Zm90.74-102.18q0 12.42-8.34 48.72c6.54-4.69 12.45-7.03 17.74-7.03s9.81 2.21 13.57 6.62 5.64 11.15 5.64 20.19c0 15.15-2.97 26.87-8.91 35.15s-13.16 12.43-21.66 12.43c-3.16 0-6.35-.38-9.56-1.14-3.22-.76-5.64-1.58-7.27-2.45l-2.45-1.14c-6.98 2.4-13.79 3.6-20.44 3.6-.65-.55-.98-3.19-.98-7.93s3.05-20.44 9.16-47.08c6.1-26.65 9.16-44.88 9.16-54.69 0-1.74-.27-3.98-.82-6.7q12.75-4.41 24.36-4.41c.54 1.53.82 3.49.82 5.89Zm-1.47 55.59c-2.07 0-5.18.98-9.32 2.94-5.01 21.15-7.74 36.29-8.17 45.45 3.27 1.42 6.38 2.13 9.32 2.13 4.14 0 7.6-3.81 10.38-11.44q4.17-11.445 4.17-25.26c0-13.815-2.12-13.81-6.38-13.81Zm51.99 59.18c-9.15 0-13.73-5.01-13.73-15.04q0-3.6 3.27-20.76c2.18-11.44 3.27-20.98 3.27-28.61 0-1.63-.22-3.16-.65-4.58 5.89-2.29 13.95-3.43 24.2-3.43.54 1.53.82 4.14.82 7.85s-1.2 11.39-3.6 23.05q-3.6 17.49-3.6 22.56c0 5.07 1.41 5.07 4.25 5.07 3.38 0 7.46-1.69 12.26-5.07q.81-9.645 6.54-50.85c3.81-1.52 10.68-2.29 20.6-2.29h3.11c-2.07 8.17-4.09 19.95-6.05 35.31q-2.94 23.055-4.74 32.04c-2.29 11.99-6.51 21.77-12.67 29.35-6.16 7.57-14.2 11.36-24.11 11.36-3.92 0-7.5-1.04-10.71-3.11-3.22-2.07-4.82-4.74-4.82-8.01 0-4.36 2.67-8.34 8.01-11.93 5.34-3.6 12.53-6.38 21.58-8.34.98-4.8 1.74-9.43 2.29-13.9-8.83 6.21-17.33 9.32-25.5 9.32Zm7.93 17c-3.65 2.18-5.48 4.3-5.48 6.38s1.17 3.11 3.52 3.11 4.99-1.12 7.93-3.35c2.94-2.24 5.39-5.86 7.36-10.87q-7.845 1.47-13.32 4.74Zm116.48 18.97c-5.45 0-9.97-1.34-13.57-4.01s-5.39-6.35-5.39-11.03c0-12.54 12.81-20.76 38.42-24.69.98-3.6 1.74-7.08 2.29-10.46-5.02 3.05-10.3 4.58-15.86 4.58-10.14 0-18.31-3.68-24.52-11.04s-9.32-16.92-9.32-28.69 2.29-22.67 6.87-32.7 11.14-18.31 19.7-24.85c8.55-6.54 17.66-9.81 27.3-9.81s17.55 2.37 23.71 7.11 9.24 10.76 9.24 18.06c0 4.36-.76 7.9-2.29 10.63-.87.11-2.07.16-3.6.16-8.39 0-14.71-1.36-18.96-4.09l.16-17.66c-2.62-2.29-6.05-3.43-10.3-3.43-6.65 0-12.53 5.1-17.66 15.29-5.12 10.19-7.68 22.59-7.68 37.19q0 14.55 4.74 21.42t11.28 6.87c6.54 0 12.43-3.27 17.66-9.81s8.99-14.33 11.28-23.38l8.83 1.47c-4.14 31.17-10.41 54.44-18.8 69.81s-19.56 23.05-33.51 23.05Zm-8.34-15.53c0 3.05 2.56 4.58 7.68 4.58 2.62 0 5.72-1.61 9.32-4.82 3.6-3.22 6.32-7.39 8.17-12.51-6.32.54-12.1 1.99-17.33 4.33s-7.85 5.15-7.85 8.42Zm103.49-83.38c0 4.58-1.47 12.45-4.41 23.62s-4.41 18.47-4.41 21.91.49 5.15 1.47 5.15c.65 0 3.16-1.03 7.52-3.11l1.96-.98 2.78 5.72c-.98.87-2.29 1.96-3.92 3.27s-4.69 3.08-9.15 5.31c-4.47 2.23-8.61 3.35-12.43 3.35s-6.81-1.17-8.99-3.51q-3.27-3.51-3.27-9.48c0-5.97 1.36-11.06 4.09-21.25 2.72-10.19 4.09-16.81 4.09-19.86 0-4.58-1.42-8.88-4.25-12.92l-1.47-1.96.16-2.13c5.78-1.63 15.15-2.45 28.12-2.45 1.42 1.63 2.13 4.74 2.13 9.32Zm-18.64-27.22q-3.27-3.195-3.27-8.58c0-5.385 1.5-6.76 4.5-9.48s6.46-4.09 10.38-4.09 6.97 1.09 9.16 3.27q3.27 3.27 3.27 8.58c0 5.31-1.55 6.68-4.66 9.4-3.11 2.73-6.57 4.09-10.38 4.09s-6.81-1.06-8.99-3.19Zm32.53 90h-1.14q-.33-1.305-.33-5.97c0-4.665 1.47-11.47 4.41-25.1 2.94-13.62 4.41-21.42 4.41-23.38 0-3.38-1.53-7.08-4.58-11.12l-1.47-1.96.16-2.13c5.89-1.63 15.31-2.45 28.28-2.45 1.31 2.84 1.96 6.81 1.96 11.93 1.2-1.96 3.7-4.58 7.52-7.85 3.81-3.27 7.74-4.9 11.77-4.9 5.89 0 8.83 5.12 8.83 15.37-.55.65-1.28 1.5-2.21 2.53-.93 1.04-2.78 2.48-5.56 4.33s-5.48 3-8.09 3.43c-.11 0-1.04-1.47-2.78-4.41s-3.05-4.41-3.92-4.41c-2.73.98-5.12 2.62-7.19 4.9-5.01 22.56-7.52 37.17-7.52 43.82 0 2.4.05 4.09.16 5.07-3.82 1.53-11.39 2.29-22.73 2.29Zm68.91 1.47c-3.76 0-6.87-1.25-9.32-3.76s-3.68-6.02-3.68-10.55 2.7-18.96 8.09-43.32 8.09-41.94 8.09-52.73l-.98-7.19c8.5-2.94 16.46-4.41 23.87-4.41 1.09 1.53 1.64 4.2 1.64 8.01 0 8.72-2.75 25.59-8.26 50.6-5.5 25.01-8.26 39.56-8.26 43.65s.49 6.13 1.47 6.13l11.44-4.09 2.94 5.72c-3.71 2.94-8.2 5.67-13.49 8.17-5.29 2.51-9.81 3.76-13.57 3.76Zm34.25-3.19q-3.27-3.195-3.27-8.58c0-5.385 1.5-6.76 4.5-9.48s6.46-4.09 10.38-4.09 6.97 1.09 9.16 3.27q3.27 3.27 3.27 8.58c0 5.31-1.55 6.68-4.66 9.4s-6.57 4.09-10.38 4.09-6.81-1.06-8.99-3.19Zm38.75-107.33c0 10.79-3.54 27.74-10.63 50.84-.55 1.85-1.55 5.21-3.02 10.05-1.47 4.85-2.59 8.58-3.35 11.2q-4.41 1.47-7.77 1.47c-3.36 0-4.22-.11-5.97-.33 3.92-23.65 5.89-44.52 5.89-62.62l-.98-13.73c9.26-2.94 17.55-4.41 24.85-4.41.65.98.98 3.49.98 7.52ZM447.44 351.71c4.9 13.34 19.7 10.21 31.14 28.08 7.9 12.35 13.44 33.56 1.51 47.63-12.39 14.61-36.6 13.27-40.84 12.96-36.13-2.66-57.85-36.56-64.99-47.7-4.73-7.39-41.24-64.36-9.58-105.26 15.58-20.13 49.06-38.16 74.56-28.08 13.54 5.35 24.7 18.58 26.88 32.75 4.09 26.56-25.94 39.88-18.69 59.62Z" class="cls-2bir1"/><ellipse cx="444.55" cy="229.14" class="cls-2bir1" rx="23.26" ry="21.47" transform="rotate(-73.15 444.525 229.14)"/><ellipse cx="400.93" cy="237.94" class="cls-2bir1" rx="16.49" ry="18.15" transform="rotate(-26.34 400.94 237.948)"/><ellipse cx="368.93" cy="254.62" class="cls-2bir1" rx="13.59" ry="14.96" transform="rotate(-26.34 368.933 254.62)"/><ellipse cx="348.02" cy="278.02" class="cls-2bir1" rx="11.22" ry="13.42" transform="rotate(-53.57 348.062 278.03)"/><ellipse cx="337.13" cy="302.16" class="cls-2bir1" rx="9.31" ry="11.75" transform="rotate(-66.65 337.12 302.16)"/><path d="M529.63 278.34c-4.9 13.34-19.7 10.21-31.14 28.08-7.9 12.35-13.44 33.56-1.51 47.63 12.39 14.61 36.6 13.27 40.84 12.96 36.13-2.66 57.85-36.56 64.99-47.7 4.73-7.39 41.24-64.36 9.58-105.26-15.58-20.13-49.06-38.16-74.56-28.08-13.54 5.35-24.7 18.58-26.88 32.75-4.09 26.56 25.94 39.88 18.69 59.62Z" class="cls-2bir1"/><ellipse cx="532.52" cy="155.77" class="cls-2bir1" rx="21.47" ry="23.26" transform="rotate(-16.85 532.629 155.787)"/><ellipse cx="576.14" cy="164.57" class="cls-2bir1" rx="18.15" ry="16.49" transform="rotate(-63.66 576.134 164.572)"/><ellipse cx="608.14" cy="181.25" class="cls-2bir1" rx="14.96" ry="13.59" transform="rotate(-63.66 608.132 181.243)"/><ellipse cx="629.05" cy="204.65" class="cls-2bir1" rx="13.42" ry="11.22" transform="rotate(-36.43 628.97 204.653)"/><ellipse cx="639.94" cy="228.79" class="cls-2bir1" rx="11.75" ry="9.31" transform="rotate(-23.35 639.998 228.803)"/></svg>