<svg xmlns="http://www.w3.org/2000/svg" viewBox="0 0 2000 2000" width="300" height="300" fill="none"><defs><style>.cls-lab81{fill:#fff}.cls-lab83{fill:#dd2628}</style></defs><path d="M215.61 131.33v1568.12h1568.13V131.33zm1505.1 1504.43H279.96V195.02H1720.7v1440.74Z" style="fill:#342d66"/><path d="M1197.61 1361.79c-28.49 38.04-56.98 76.09-85.47 114.13h86.5a464.6 464.6 0 0 0 2.64-71.84c-.61-15.08-1.93-29.22-3.67-42.3Z" class="cls-lab83"/><path d="m1197.61 1418.66-48.74 57.26h48.74z" class="cls-lab81"/><path d="M803.2 1359.48c28.49 38.04 56.98 76.09 85.47 114.13h-86.5l1.02-114.13Z" class="cls-lab83"/><path d="M803.2 1473.61h394.26v395.06H803.2z" style="fill:#221b45"/><path d="M1197.46 1364.49h586.93v394.26h-586.93zm-981.19 0H803.2v394.26H216.27z" class="cls-lab81"/><path d="M216.27 1701.88H803.2v56.87H216.27zm0-114.13H803.2v56.87H216.27zm0-114.14H803.2v56.87H216.27zm586.93-57.26H216.27v-56.87H803.2c2.67 8.1 5.73 21.03 4.26 36.76-.74 7.9-2.44 14.69-4.26 20.11m394.26 288.03h586.93v56.87h-586.93zm0-114.13h586.93v56.87h-586.93zm0-114.13h586.93v56.87h-586.93zm586.93-57.27-591.05-.24c1.37-18.88 2.74-37.76 4.12-56.63h586.93z" class="cls-lab83"/><path d="m803.2 1416.35 48.74 57.26H803.2zm34.67 79.62 5.68 11.5 12.68 1.84-9.18 8.95 2.17 12.64-11.35-5.97-11.35 5.97 2.17-12.64-9.18-8.95 12.69-1.84zm64.72.75 5.68 11.5 12.68 1.84-9.18 8.95 2.17 12.64-11.35-5.97-11.35 5.97 2.17-12.64-9.18-8.95 12.69-1.84zm64.72 0 5.68 11.5 12.68 1.84-9.18 8.95 2.17 12.64-11.35-5.97-11.35 5.97 2.17-12.64-9.18-8.95 12.69-1.84zm64.72 0 5.67 11.5 12.69 1.84-9.18 8.95 2.17 12.64-11.35-5.97-11.35 5.97 2.17-12.64-9.18-8.95 12.69-1.84zm64.72.38 5.67 11.5 12.69 1.84-9.18 8.95 2.17 12.64-11.35-5.97-11.35 5.97 2.17-12.64-9.18-8.95 12.69-1.84zm64.72-1.13 5.67 11.5 12.69 1.84-9.18 8.95 2.17 12.64-11.35-5.97-11.35 5.97 2.17-12.64-9.18-8.95 12.69-1.84zm-291.24 39.89 5.68 11.49 12.68 1.85-9.18 8.95 2.17 12.63-11.35-5.96-11.35 5.96 2.17-12.63-9.18-8.95 12.69-1.85zm64.72.75 5.68 11.5 12.68 1.84-9.18 8.95 2.17 12.64-11.35-5.97-11.35 5.97 2.17-12.64-9.18-8.95 12.69-1.84zm64.72 0 5.68 11.5 12.68 1.84-9.18 8.95 2.17 12.64-11.35-5.97-11.35 5.97 2.17-12.64-9.18-8.95 12.69-1.84zm64.72 0 5.67 11.5 12.69 1.84-9.18 8.95 2.17 12.64-11.35-5.97-11.35 5.97 2.17-12.64-9.18-8.95 12.69-1.84zm64.72.38 5.67 11.49 12.69 1.85-9.18 8.95 2.17 12.63-11.35-5.96-11.35 5.96 2.17-12.63-9.18-8.95 12.69-1.85zm-291.24 48.51 5.68 11.5 12.68 1.84-9.18 8.95 2.17 12.64-11.35-5.97-11.35 5.97 2.17-12.64-9.18-8.95 12.69-1.84zm64.72.76 5.68 11.49 12.68 1.85-9.18 8.95 2.17 12.63-11.35-5.96-11.35 5.96 2.17-12.63-9.18-8.95 12.69-1.85zm64.72 0 5.68 11.49 12.68 1.85-9.18 8.95 2.17 12.63-11.35-5.96-11.35 5.96 2.17-12.63-9.18-8.95 12.69-1.85zm64.72 0 5.67 11.49 12.69 1.85-9.18 8.95 2.17 12.63-11.35-5.96-11.35 5.96 2.17-12.63-9.18-8.95 12.69-1.85zm64.72.37 5.67 11.5 12.69 1.84-9.18 8.95 2.17 12.64-11.35-5.97-11.35 5.97 2.17-12.64-9.18-8.95 12.69-1.84zm64.72-1.13 5.67 11.5 12.69 1.84-9.18 8.95 2.17 12.64-11.35-5.97-11.35 5.97 2.17-12.64-9.18-8.95 12.69-1.84zm-291.24 39.89 5.68 11.5 12.68 1.84-9.18 8.95 2.17 12.64-11.35-5.97-11.35 5.97 2.17-12.64-9.18-8.95 12.69-1.84zm64.72.75 5.68 11.5 12.68 1.84-9.18 8.95 2.17 12.64-11.35-5.97-11.35 5.97 2.17-12.64-9.18-8.95 12.69-1.84zm64.72 0 5.68 11.5 12.68 1.84-9.18 8.95 2.17 12.64-11.35-5.97-11.35 5.97 2.17-12.64-9.18-8.95 12.69-1.84zm64.72 0 5.67 11.5 12.69 1.84-9.18 8.95 2.17 12.64-11.35-5.97-11.35 5.97 2.17-12.64-9.18-8.95 12.69-1.84zm64.72.38 5.67 11.5 12.69 1.84-9.18 8.95 2.17 12.63-11.35-5.96-11.35 5.96 2.17-12.63-9.18-8.95 12.69-1.84zm-291.24 48.52 5.68 11.49 12.68 1.85-9.18 8.95 2.17 12.63-11.35-5.96-11.35 5.96 2.17-12.63-9.18-8.95 12.69-1.85zm64.72.75 5.68 11.5 12.68 1.84-9.18 8.95 2.17 12.64-11.35-5.97-11.35 5.97 2.17-12.64-9.18-8.95 12.69-1.84zm64.72 0 5.68 11.5 12.68 1.84-9.18 8.95 2.17 12.64-11.35-5.97-11.35 5.97 2.17-12.64-9.18-8.95 12.69-1.84zm64.72 0 5.67 11.5 12.69 1.84-9.18 8.95 2.17 12.64-11.35-5.97-11.35 5.97 2.17-12.64-9.18-8.95 12.69-1.84zm64.72.38 5.67 11.49 12.69 1.85-9.18 8.95 2.17 12.63-11.35-5.96-11.35 5.96 2.17-12.63-9.18-8.95 12.69-1.85zm64.72-1.13 5.67 11.49 12.69 1.85-9.18 8.95 2.17 12.63-11.35-5.96-11.35 5.96 2.17-12.63-9.18-8.95 12.69-1.85zm-291.24 39.88 5.68 11.5 12.68 1.84-9.18 8.95 2.17 12.64-11.35-5.97-11.35 5.97 2.17-12.64-9.18-8.95 12.69-1.84zm64.72.75 5.68 11.5 12.68 1.85-9.18 8.94 2.17 12.64-11.35-5.96-11.35 5.96 2.17-12.64-9.18-8.94 12.69-1.85zm64.72 0 5.68 11.5 12.68 1.85-9.18 8.94 2.17 12.64-11.35-5.96-11.35 5.96 2.17-12.64-9.18-8.94 12.69-1.85zm64.72 0 5.67 11.5 12.69 1.85-9.18 8.94 2.17 12.64-11.35-5.96-11.35 5.96 2.17-12.64-9.18-8.94 12.69-1.85zm64.72.38 5.67 11.5 12.69 1.84-9.18 8.95 2.17 12.64-11.35-5.97-11.35 5.97 2.17-12.64-9.18-8.95 12.69-1.84zm-291.24 48.52 5.68 11.5 12.68 1.84-9.18 8.95 2.17 12.64-11.35-5.97-11.35 5.97 2.17-12.64-9.18-8.95 12.69-1.84zm64.72.75 5.68 11.5 12.68 1.84-9.18 8.95 2.17 12.64-11.35-5.97-11.35 5.97 2.17-12.64-9.18-8.95 12.69-1.84zm64.72 0 5.68 11.5 12.68 1.84-9.18 8.95 2.17 12.64-11.35-5.97-11.35 5.97 2.17-12.64-9.18-8.95 12.69-1.84zm64.72 0 5.67 11.5 12.69 1.84-9.18 8.95 2.17 12.64-11.35-5.97-11.35 5.97 2.17-12.64-9.18-8.95 12.69-1.84zm64.72.38 5.67 11.5 12.69 1.84-9.18 8.95 2.17 12.64-11.35-5.97-11.35 5.97 2.17-12.64-9.18-8.95 12.69-1.84zm64.72-1.13 5.67 11.5 12.69 1.84-9.18 8.95 2.17 12.64-11.35-5.97-11.35 5.97 2.17-12.64-9.18-8.95 12.69-1.84zm-291.24 39.88 5.68 11.5 12.68 1.85-9.18 8.94 2.17 12.64-11.35-5.96-11.35 5.96 2.17-12.64-9.18-8.94 12.69-1.85zm64.72.76 5.68 11.49 12.68 1.85-9.18 8.95 2.17 12.63-11.35-5.96-11.35 5.96 2.17-12.63-9.18-8.95 12.69-1.85zm64.72 0 5.68 11.49 12.68 1.85-9.18 8.95 2.17 12.63-11.35-5.96-11.35 5.96 2.17-12.63-9.18-8.95 12.69-1.85zm64.72 0 5.67 11.49 12.69 1.85-9.18 8.95 2.17 12.63-11.35-5.96-11.35 5.96 2.17-12.63-9.18-8.95 12.69-1.85zm64.72.37 5.67 11.5 12.69 1.84-9.18 8.95 2.17 12.64-11.35-5.97-11.35 5.97 2.17-12.64-9.18-8.95 12.69-1.84z" class="cls-lab81"/></svg>