<svg xmlns="http://www.w3.org/2000/svg" viewBox="0 0 2000 2000" width="300" height="300" fill="none"><defs><style>.cls-lab71{fill:#fff}.cls-lab73{fill:#2a2356}.cls-lab74{fill:#dd2628}.cls-lab75{fill:#1a163a}</style></defs><path d="M1709.89 425.41v38.49l8.96-20.88zm-150.21-219.8-20.84 4.86 8.23-19.17h-35.17l-75.94 23.57h132.33l-8.61-9.25ZM1276.44 214l-3.69.86h4.49zm-301.99-13.26-45.47 14.12h42.43l4.68-10.9zm-138.54-9.45-75.94 23.57h151.61l6.01-23.57zm873.98 234.11v38.49l8.96-20.88zm-150.21-219.8-20.84 4.86 8.23-19.17h-35.17l-75.94 23.57h132.33l-8.61-9.25Zm-283.24 8.39-3.69.86h4.49zm-301.99-13.26-45.47 14.12h42.43l4.68-10.9zm-138.54-9.45-75.94 23.57h151.61l6.01-23.57zm873.98 234.11v38.49l8.96-20.88zm-150.21-219.8-20.84 4.86 8.23-19.17h-35.17l-75.94 23.57h132.33l-8.61-9.25Zm-283.24 8.39-3.69.86h4.49zm433.45 211.4v38.49l8.96-20.88zm-150.21-219.8-20.84 4.86 8.23-19.17h-35.17l-75.94 23.57h132.33l-8.61-9.25Zm-283.24 8.39-3.69.86h4.49zm433.45 211.4v38.49l8.96-20.88zm-150.21-219.8-20.84 4.86 8.23-19.17h-35.17l-75.94 23.57h132.33l-8.61-9.25Zm-283.24 8.39-3.69.86h4.49zm0 0-3.69.86h4.49zm0 0-3.69.86h4.49zm0 0-3.69.86h4.49zM269.12 191.25v1617.3h1461.76V191.3H269.12Zm1440.77 1593.73H290.11V214.87h1419.77v1570.16ZM1276.44 214.01l-3.69.86h4.49zm0 0-3.69.86h4.49zm433.45 211.4v38.49l8.96-20.88zm-433.45-211.4-3.69.86h4.49zm0 0-3.69.86h4.49zm283.24-8.39-20.84 4.86 8.23-19.17h-35.17l-75.94 23.57h132.33l-8.61-9.25Zm150.21 219.8v38.49l8.96-20.88zm-433.45-211.4-3.69.86h4.49zm283.24-8.39-20.84 4.86 8.23-19.17h-35.17l-75.94 23.57h132.33l-8.61-9.25Zm150.21 219.8v38.49l8.96-20.88zM835.91 191.32l-75.94 23.57h151.61l6.01-23.57zm138.54 9.45-45.47 14.12h42.43l4.68-10.9zm301.99 13.26-3.69.86h4.49zm283.24-8.39-20.84 4.86 8.23-19.17h-35.17l-75.94 23.57h132.33l-8.61-9.25Zm150.21 219.8v38.49l8.96-20.88zM835.91 191.33l-75.94 23.57h151.61l6.01-23.57zm138.54 9.45-45.47 14.12h42.43l4.68-10.9zm301.99 13.26-3.69.86h4.49zm283.24-8.39-20.84 4.86 8.23-19.17h-35.17l-75.94 23.57h132.33l-8.61-9.25Zm150.21 219.8v38.49l8.96-20.88z" style="fill:#221b45"/><path d="m1357.65 191.3-63.94 17.68-12.01 3.31-3.46.96-168.78 46.66-2.36.65-70.7 19.54-30.23 8.36-112.73 31.16-603.33 166.77-14.69 4.06-1.05-3.78-5.25-19V191.3h904.79l5.49-1.52 1.58 1.52z" class="cls-lab75"/><path d="M1730.88 191.3v368.38l-20.99-6.03-740.73-212.32-75.72-21.71-7.26-2.08-4.41-1.27 13.77-48.02 14.53-50.73 1.51-5.23 6.01-20.99h256.32l5.49-1.52 1.58 1.52h495.3l2.75-3.02.54 3.02z" class="cls-lab73"/><path d="m1589.09 191.3-11.72 6.31-1.61 14.68-.71 6.47-6.76-6.47-8.61-8.24-20.84 4.33 8.23-17.08zm113.12 26.65-18.73 10.08-2.32 21.14-15.38-14.71-20.83 4.34 9.24-19.17-4.2-7.34-6.36-11.13 21.09 2.86 11.56-12.72 2.75-3.02.54 3.02 3.25 17.91 6.84 3.08zm-678.1-17.06-18.74 10.08-.14 1.32-2.18 19.83-15.36-14.7-20.84 4.32 4.56-9.45 4.68-9.71-1.64-2.86-4.81-8.42h34.93l.02.09.13.77zm82.92.75 3.8 20.93 19.39 8.75-18.73 10.07-2.32 21.15-15.38-14.71-20.83 4.33 9.24-19.16-10.55-18.48 21.08 2.86zm106.11 30.42 3.8 20.93 19.39 8.74-18.74 10.08-2.32 21.15-15.37-14.71-20.83 4.33 9.24-19.17-10.56-18.47 21.08 2.86zm106.11 30.41 3.79 20.94 19.4 8.74-18.74 10.08-2.32 21.14-15.37-14.7-20.83 4.32 9.23-19.16-10.55-18.47 21.08 2.86zm106.11 30.42 3.79 20.93 19.4 8.75-18.74 10.07-2.32 21.15-15.37-14.71-20.83 4.33 9.23-19.16-10.55-18.48 21.08 2.86zm106.11 30.42 3.79 20.93 19.39 8.74-18.73 10.08-2.32 21.15-15.38-14.71-20.83 4.33 9.24-19.17-10.55-18.47 21.08 2.86zm106.1 30.41 3.8 20.94 19.39 8.74-18.73 10.08-2.32 21.14-15.38-14.7-20.83 4.32 9.24-19.16-10.55-18.47 21.08 2.86zm93.31 44.52v32.51l-.44-.42-20.55 4.28-.28.05.28-.56 8.96-18.6-8.96-15.68-1.6-2.8 1.6.22 19.49 2.65zM1186.2 191.3l-.49 4.51-4.73-4.51zm126.67 3.71-17.56 9.44h-.01l-1.16.63-.43 3.9-.36 3.31-1.53 13.94-13.58-12.98-1-.96-.8-.76-3.7.76-17.13 3.56.24-.49 1.47-3.07 7.53-15.6-3.08-5.39h42.88zm82.92.74 3.79 20.93 19.4 8.74-18.74 10.08-2.32 21.15-15.37-14.71-20.83 4.33 9.23-19.17-10.55-18.47 21.08 2.86zm106.11 30.41 3.79 20.94 19.4 8.74-18.74 10.08-2.32 21.14-15.37-14.7-20.83 4.33 9.23-19.17-10.55-18.47 21.08 2.86zm106.11 30.42 3.79 20.93 19.4 8.75-18.74 10.07-2.32 21.15-15.37-14.7-20.83 4.32 9.23-19.16-10.55-18.47 21.08 2.86zm122.87 57.2v6.35l-12.31 6.62-2.32 21.15-6.36-6.09-9.02-8.62-20.83 4.33 9.24-19.17-10.56-18.47 21.09 2.86 10.08-11.08 4.23-4.66 3.79 20.93zm-698.07-53.5 3.8 20.93 19.39 8.74-18.74 10.08-2.32 21.14-15.37-14.7-20.83 4.33 9.24-19.17-10.56-18.47 21.08 2.86zm106.11 30.41 3.79 20.94 19.4 8.74-18.74 10.07-2.32 21.15-15.37-14.7-20.83 4.32 9.23-19.16-10.55-18.47 21.08 2.86zm106.11 30.42 3.79 20.93 19.4 8.74-18.74 10.08-2.32 21.15-15.37-14.71-20.83 4.33 9.23-19.16-10.55-18.48 21.08 2.86zm106.11 30.42 3.79 20.93 19.39 8.74-18.73 10.08-2.32 21.14-15.38-14.7-20.83 4.33 9.24-19.17-10.55-18.47 21.08 2.86zm106.1 30.41 3.8 20.94 19.39 8.74-18.73 10.07-2.32 21.15-15.38-14.7-20.83 4.32 9.24-19.16-10.55-18.47 21.08 2.86zm106.11 30.42 3.8 20.93 19.39 8.74-18.74 10.08-2.32 21.15-15.37-14.71-20.83 4.33 9.24-19.16-10.56-18.48 21.08 2.86zm106.11 30.42 3.79 20.93 19.4 8.74-18.74 10.08-2.32 21.14-15.37-14.7-20.83 4.33 9.23-19.17-10.55-18.47 21.08 2.86z" class="cls-lab71"/><path d="m1511.9 191.3-75.94 20.99-28.58 7.91h-.01l-38.17 10.55-151.7 41.93-27.92 7.72-.02.01-50 13.81-5.13 1.43h-.01l-29.41 8.12-1.18.33-134.67 37.23-679.05 187.7-20.99 5.8V191.3h904.79l5.49-1.52 1.58 1.52z" class="cls-lab71"/><path d="m1511.9 191.3-75.94 20.99-28.58 7.91h-.01l-38.17 10.55-151.7 41.93-27.92 7.72-.02.01-50 13.81-5.13 1.43h-.01l-29.41 8.12-1.18.33-134.67 37.23-679.05 187.7-20.99 5.8v-46.72l5.25-1.44 15.74-4.36 596.07-164.77 117.98-32.61 31.54-8.71 68.08-18.82 6.13-1.7h.01l145.93-40.34 11.09-3.07 28.36-7.84h.01l47.57-13.15zm-337.99 0-65.47 18.1-10.49 2.89-.79.22h-.01l-13.24 3.68h-.02l-9.75 2.69-178.6 49.37L290.11 435.6l-20.99 5.8v-46.71l20.99-5.8 619.96-171.37 18.91-5.23 45.47-12.57 30.14-8.33.33-.09zm-338 0-75.95 20.99-469.85 129.88-20.99 5.8v-46.71l20.99-5.8 300.88-83.17 75.94-20.99zm-506.96 0h169.02l-75.95 20.99-131.91 36.47-20.99 5.8v-46.72z" class="cls-lab74"/><path d="m1357.65 1808.7-63.94-17.68-12.01-3.31-3.46-.96-168.78-46.66-2.36-.65-70.7-19.54-30.23-8.36-112.73-31.16-603.33-166.77-14.69-4.06-1.05 3.78-5.25 19v276.37h904.79l5.49 1.52 1.58-1.52z" class="cls-lab75"/><path d="M1730.88 1808.7v-368.38l-20.99 6.03-740.73 212.32-75.72 21.71-7.25 2.08-4.42 1.27 13.77 48.02 14.54 50.73 1.5 5.23 6.01 20.99h256.32l5.49 1.52 1.58-1.52h495.3l2.75 3.02.54-3.02z" class="cls-lab73"/><path d="m1589.09 1808.7-11.72-6.31-1.61-14.68-.71-6.47-6.76 6.47-8.61 8.24-20.84-4.33 8.23 17.08zm113.12-26.65-18.73-10.08-2.32-21.14-15.38 14.71-20.82-4.34 9.23 19.17-4.2 7.34-6.36 11.13 21.09-2.86 11.56 12.72 2.75 3.02.54-3.02 3.25-17.91 6.84-3.08zm-678.1 17.06-18.74-10.08-.14-1.32-2.18-19.83-15.36 14.7-20.84-4.32 4.56 9.45 4.68 9.71-1.64 2.86-4.81 8.42h34.93l.02-.09.13-.77zm82.92-.75 3.8-20.93 19.39-8.75-18.73-10.07-2.32-21.15-15.38 14.71-20.83-4.33 9.24 19.16-10.55 18.48 21.08-2.86zm106.11-30.42 3.8-20.93 19.39-8.74-18.74-10.08-2.32-21.15-15.37 14.71-20.83-4.33 9.24 19.17-10.56 18.47 21.08-2.86zm106.11-30.41 3.79-20.94 19.4-8.74-18.74-10.08-2.32-21.14-15.37 14.7-20.83-4.32 9.23 19.16-10.55 18.47 21.08-2.86zm106.11-30.42 3.79-20.93 19.4-8.75-18.74-10.07-2.32-21.15-15.37 14.71-20.83-4.33 9.23 19.16-10.55 18.48 21.08-2.86zm106.11-30.42 3.79-20.93 19.4-8.74-18.74-10.08-2.32-21.15-15.38 14.71-20.82-4.33 9.23 19.17-10.55 18.47 21.08-2.86zm106.1-30.41 3.8-20.94 19.39-8.74-18.73-10.08-2.32-21.14-15.38 14.7-20.83-4.32 9.24 19.16-10.55 18.47 21.08-2.86zm93.31-44.52v-32.51l-.44.42-20.55-4.28-.28-.05.28.56 8.96 18.6-8.96 15.68-1.6 2.8 1.6-.22 19.49-2.65zM1186.2 1808.7l-.49-4.51-4.73 4.51zm126.67-3.71-17.56-9.44h-.01l-1.16-.63-.43-3.9-.36-3.31-1.53-13.94-13.58 12.98-1 .96-.8.76-3.7-.76-17.13-3.56.25.49 1.47 3.07 7.52 15.6-3.07 5.39h42.87zm82.92-.74 3.8-20.93 19.39-8.74-18.74-10.08-2.32-21.15-15.37 14.71-20.83-4.33 9.24 19.17-10.56 18.47 21.08-2.86zm106.11-30.41 3.79-20.94 19.4-8.74-18.74-10.08-2.32-21.14-15.37 14.7-20.83-4.33 9.23 19.17-10.55 18.47 21.08-2.86zm106.11-30.42 3.79-20.93 19.4-8.75-18.74-10.07-2.32-21.15-15.37 14.7-20.83-4.32 9.23 19.16-10.55 18.47 21.08-2.86zm122.87-57.2v-6.35l-12.31-6.62-2.32-21.15-6.36 6.09-9.02 8.62-20.82-4.33 9.23 19.17-10.56 18.47 21.09-2.86 10.08 11.08 4.23 4.66 3.79-20.93zm-698.07 53.5 3.8-20.93 19.39-8.74-18.74-10.08-2.32-21.14-15.37 14.7-20.83-4.33 9.24 19.17-10.56 18.47 21.08-2.86zm106.11-30.41 3.79-20.94 19.4-8.74-18.74-10.07-2.32-21.15-15.37 14.7-20.83-4.32 9.23 19.16-10.55 18.47 21.08-2.86zm106.11-30.42 3.79-20.93 19.4-8.74-18.74-10.08-2.32-21.15-15.37 14.71-20.83-4.33 9.23 19.16-10.55 18.48 21.08-2.86zm106.11-30.42 3.79-20.93 19.4-8.74-18.74-10.08-2.32-21.14-15.38 14.7-20.82-4.33 9.23 19.17-10.55 18.47 21.08-2.86zm106.1-30.41 3.8-20.94 19.39-8.74-18.73-10.07-2.32-21.15-15.38 14.7-20.83-4.32 9.24 19.16-10.55 18.47 21.08-2.86zm106.11-30.42 3.8-20.93 19.39-8.74-18.73-10.08-2.33-21.15-15.37 14.71-20.83-4.33 9.24 19.16-10.56 18.48 21.09-2.86zm106.11-30.42 3.79-20.93 19.4-8.74-18.74-10.08-2.32-21.14-15.37 14.7-20.83-4.33 9.23 19.17-10.55 18.47 21.08-2.86z" class="cls-lab71"/><path d="m1511.9 1808.7-75.94-20.99-28.57-7.91h-.02l-38.17-10.55-151.7-41.93-27.92-7.72-.02-.01-50-13.81-5.13-1.43h-.01l-29.41-8.12-1.18-.33-134.67-37.23-679.05-187.7-20.99-5.8v343.53h904.79l5.49 1.52 1.58-1.52z" class="cls-lab71"/><path d="m1511.9 1808.7-75.94-20.99-28.57-7.91h-.02l-38.17-10.55-151.7-41.93-27.92-7.72-.02-.01-50-13.81-5.13-1.43h-.01l-29.41-8.12-1.18-.33-134.67-37.23-679.05-187.7-20.99-5.8v46.72l5.25 1.44 15.74 4.36 596.08 164.77 117.97 32.61 31.54 8.71 68.08 18.82 6.13 1.7h.01l145.94 40.34 11.08 3.07 28.36 7.84h.01l47.57 13.15zm-337.99 0-65.47-18.1-10.49-2.89-.79-.22h-.01l-13.24-3.68h-.02l-9.75-2.69-178.6-49.37-605.43-167.35-20.99-5.8v46.71l20.99 5.8 619.97 171.37 18.9 5.23 45.47 12.57 30.14 8.33.33.09zm-338 0-75.95-20.99-469.85-129.88-20.99-5.8v46.71l20.99 5.8 300.88 83.17 75.94 20.99zm-506.96 0h169.02l-75.95-20.99-131.91-36.47-20.99-5.8v46.72z" class="cls-lab74"/></svg>