<svg xmlns="http://www.w3.org/2000/svg" viewBox="0 0 2000 2000" width="300" height="300" fill="none"><defs><style>.cls-lab51{fill:#597a74}.cls-lab52{fill:#ef9825}.cls-lab53{fill:#fff}.cls-lab54{fill:#4e6d67}.cls-lab55{fill:#efa143}.cls-lab56{fill:#e0c03b}.cls-lab58{fill:#1f302d}.cls-lab59{fill:#c9a81c}.cls-lab510{fill:#d37105}.cls-lab511{fill:#324c47}.cls-lab512{fill:#a9c9c3}.cls-lab513{fill:#dd7f0e}.cls-lab514{fill:#678983}.cls-lab515{fill:#89afa7}</style></defs><path d="M715.25 483.19c-2.4 17.35-7.77 34.34-15.93 50.16h-20.6c-24.75 0-48.19 5.55-69.17 15.47-4.85 2.3-9.58 4.83-14.15 7.58-5.65 3.4-11.07 7.13-16.24 11.17-22.64-5.03-46.67-12.23-70.25-21.3-16.82-6.47-33.4-13.9-49.07-22.17-12.14-6.42-33.51-18.5-53.19-37.23a148 148 0 0 1-.78-14.31c-.15-19.66 3.55-39.29 10.83-57.75 3-7.64 6.63-15.07 10.84-22.23.13-.22.26-.44.39-.65l.01-.01c.72-1.23 1.47-2.45 2.24-3.65 11.97-18.94 28.22-35.72 48.37-48.8 45.89-29.8 101.04-33.29 146.98-14.07.02 0 .03.01.05.01 24.76 10.35 46.83 27.3 63.31 50.27 1.35 1.88 2.67 3.8 3.94 5.76 20.22 31.14 27.21 67.17 22.42 101.75" class="cls-lab52"/><path d="M609.55 548.82c-4.85 2.3-9.58 4.83-14.15 7.58-5.65 3.4-11.07 7.13-16.24 11.17-22.64-5.03-46.67-12.23-70.25-21.3-16.82-6.47-33.4-13.9-49.07-22.17-12.14-6.42-33.51-18.5-53.19-37.23h-.01c-14.06-13.38-27.24-30.17-35.56-50.72-5.19-12.81-9.72-28.23-2.66-39.41 7.5-11.87 27.06-16.44 49.99-11.67 2.12.44 4.28.97 6.46 1.58.49.13.99.27 1.48.42.59.17 1.17.35 1.75.53.69.21 1.38.44 2.07.67-.15.2-.31.41-.47.65q-.375.525-.78 1.17c-.34.55-.68 1.16-.99 1.83l-.01.01c-.11.21-.22.43-.31.66-.28.62-.54 1.29-.77 2.01-.47 1.44-.78 2.92-.93 4.43-.24 2.5-.06 5.08.5 7.75.1.47.21.95.34 1.42.21.8.45 1.6.72 2.41q.555 1.62 1.26 3.27c.31.73.66 1.47 1.02 2.22.36.74.75 1.5 1.16 2.25.34.62.69 1.24 1.06 1.86 3.2 5.49 7.54 11.24 12.73 17.22 1.52 1.75 3.15 3.56 4.88 5.42.87.94 1.76 1.88 2.67 2.84.92.95 1.86 1.92 2.82 2.9.83.84 1.67 1.68 2.54 2.54 20.44 20.3 50.54 44.79 83.86 65.17 15.47 9.46 31.63 18.04 47.84 24.91 2.29.97 4.58 1.9 6.87 2.8s4.57 1.76 6.86 2.58c2.17.78 4.34 1.53 6.5 2.23Z" class="cls-lab513"/><path d="M456.83 452.25c7.88-11.27 64.55-89.62 157.18-91.79 31.29-.73 57.23 7.45 75.16 15.34-2.97-7.09-9.2-19.3-21.6-30.33-16.42-14.62-34.2-18.74-42.04-20.07-16.46-4.01-68.85-14.54-125.53 11.8-40.85 18.98-64.36 48.02-74.74 62.78-.07 5.5.57 15.15 5.58 25.65 7.8 16.33 21.11 24.09 26 26.63Z" class="cls-lab513"/><path d="M609.55 548.83c-4.85 2.29-9.58 4.82-14.15 7.57-21.56-7.39-44.14-18.31-65.62-31-44.78-26.44-84.87-60.54-101.34-86.36-3.2-5.01-8.93-14-11.74-24.23-1.98-7.17-2.51-14.95.26-22.4 1.1-2.98 2.5-5.25 3.47-6.67-.67-.22-1.36-.45-2.02-.67 2.12.44 4.28.97 6.46 1.58.49.13.99.27 1.48.42.59.17 1.17.35 1.75.53.69.21 1.38.44 2.07.67-.15.2-.3.41-.46.65q-.375.525-.78 1.17c-.34.55-.68 1.16-.99 1.83l-.01.01c-.11.21-.22.43-.31.66-.28.62-.55 1.29-.78 2-.48 1.45-.78 2.93-.93 4.45-.24 2.5-.06 5.08.51 7.74.1.47.21.95.34 1.42a38.6 38.6 0 0 0 1.98 5.68c.31.73.66 1.47 1.02 2.22.36.74.75 1.5 1.16 2.25.33.62.68 1.24 1.06 1.86 3.2 5.49 7.54 11.24 12.73 17.22 1.52 1.75 3.15 3.56 4.88 5.42.87.94 1.76 1.88 2.67 2.84.92.95 1.86 1.92 2.82 2.9.83.84 1.67 1.68 2.54 2.54 20.44 20.3 50.54 44.79 83.86 65.17 15.47 9.46 31.63 18.04 47.84 24.91 2.29.97 4.58 1.9 6.87 2.8s4.57 1.76 6.86 2.58c2.17.79 4.34 1.53 6.5 2.24" class="cls-lab510"/><path d="M469.66 523.55c-1.37 2.31-52.81-22.26-77.83-58.09-.98-1.41-7.63-10.92-6.56-11.81 1.37-1.15 14.33 13.26 29.2 27.18 33.08 30.97 56.11 41.2 55.2 42.73Zm82.11-195.89c-26.16 3.92-44.9 18.39-44.24 19.89.73 1.67 25.01-13.31 60.98-14.51 25.63-.85 42.4 5.78 42.64 4.75.31-1.34-27.13-14.96-59.39-10.13Z" class="cls-lab55"/><path d="M1077.08 1521.45c-16.78 13.47-30.72 30.56-40.76 50.16-.5.97-.99 1.95-1.47 2.93v.01c0 .01 0 .03-.02.04-2.24 4.61-4.26 9.33-6.07 14.2-.9 2.43-1.74 4.89-2.51 7.38-1.6 5.06-2.96 10.22-4.05 15.49 16.24 42.08 82.84 109.38 154.11 150.21 11.88 6.8 33.45 18.35 59.66 24.9 1.31-.66 2.61-1.34 3.9-2.05 2.88-1.56 5.69-3.21 8.46-4.97 16.5-10.41 30.91-24.05 42.42-40.07 4.76-6.63 9.02-13.67 12.73-21.05l.3-.6v-.03a.3.3 0 0 0 .04-.08c.63-1.26 1.24-2.53 1.84-3.81 9.38-20.25 14.67-42.94 14.77-66.94.12-27.32-6.5-53.07-18.23-75.55-1.41-2.7-2.9-5.35-4.46-7.95-24.07-11.87-46.48-26.3-68.04-42.21h-152.64Z" class="cls-lab52"/><path d="M1297.75 1563.66c-8.24-13.8-18.48-26.19-30.3-36.73-5.31-1.59-10.57-3.43-15.8-5.48h-21.94c21.56 15.91 43.97 30.34 68.04 42.21" class="cls-lab52"/><path d="M1305.66 1714.1c-.57 1.54-1.6 3.87-3.5 6.2-8.03 9.88-24.34 11.06-45.37 7.89-48.63-7.34-146.24-41.56-197.37-93.72-22.48-22.94-26.36-39.54-25.84-51.22.17-3.85.81-6.93 1.24-8.69-4.49 1.26-10.36 3.77-13.69 9.2-4.09 6.68-3.44 16.34 1.04 27.91 16.24 42.07 82.85 109.38 154.11 150.2 11.88 6.8 33.45 18.35 59.66 24.9 18.73 4.69 39.83 6.81 61.46 2.81 13.48-2.49 28.8-6.93 34.35-18.88 6.87-14.81-3.4-38.15-26.09-56.6" class="cls-lab513"/><path d="M1213.65 1521.45c5.77 6.7 11.36 14.26 16.5 22.75 5.47 9.04 9.86 18.22 13.33 27.41 26.15 69.04.75 138.47-5.06 153.03q-.285.72-.51 1.26c4.75 2.76 18.38 9.83 36.21 7.65 11.46-1.4 19.86-6.03 24.41-9.03.14-.35.28-.7.43-1.07 6.8-17.08 17.82-51.91 11.86-95.59-2.95-21.66-9.4-40.46-17.06-56.25-2.38-4.91-4.88-9.52-7.42-13.84-19.79-10.64-38.51-22.95-56.62-36.32z" class="cls-lab513"/><path d="M1229.71 1521.45c18.12 13.36 36.83 25.68 56.62 36.32-9.69-16.47-20.08-28.67-27.37-36.32z" class="cls-lab513"/><path d="M1302.17 1720.29c-8.04 9.88-24.35 11.06-45.37 7.89-48.63-7.34-146.24-41.55-197.37-93.71-22.48-22.94-26.36-39.54-25.83-51.23.17-3.85.81-6.92 1.23-8.68-2.74.77-6 2-8.87 4.09-.15.99-.38 2.75-.5 4.95-1.47 26.94 17.59 48.53 27.44 59.39 48.89 53.9 159.03 99.68 211.29 99.78 10.05.02 33.61.06 45.11-15.3 1.9-2.53 3.04-4.92 3.7-6.51.57.46 1.15.94 1.71 1.4-2.75-2.82-5.76-5.6-9.05-8.26-.57 1.54-1.6 3.87-3.49 6.2Z" class="cls-lab510"/><path d="M1171.48 1753.29c-1.19 2.39 46.95 32.6 90.32 34.5 1.7.07 13.22.58 13.39-.8.23-1.78-18.77-4.98-38.38-10.06-43.63-11.3-64.54-25.23-65.33-23.64m106-185.42c18.32 30.97 18.85 59.46 20.64 59.19 1.61-.25 3.64-23.8-7.14-47.96-5.94-13.3-14.43-23.81-22.1-31.3-4.8-2.9-9.54-5.89-14.24-8.97 5.12 5.07 14.3 14.59 22.84 29.03Z" class="cls-lab55"/><path d="M1250.61 1534.46c-.25.26 1.32 1.7 4.03 4.38 4.69 3.08 9.44 6.07 14.24 8.97-9.5-9.27-17.74-13.89-18.26-13.35Z" class="cls-lab55"/><path d="m1657.77 504.93-6.69 14.18-96.01 203.52-50.16 106.33v-133.7c0-25.69-5.98-49.98-16.63-71.56l34.27-64.86 43.47-82.26 7.33-13.86z" class="cls-lab54"/><path d="m1726.28 556.71-230.64-115.32a21.2 21.2 0 0 1-6.11-4.59c-20.58-22.2-41.15-44.4-61.73-66.59-15.31-16.52-1.11-46.67 21.49-45.62l93.57 4.35c3.03.14 5.95.9 8.61 2.23l230.07 115.03c11.75 5.87 15.9 21.38 9.27 34.63l-31.26 62.53c-6.63 13.25-21.52 19.23-33.26 13.36Z" class="cls-lab514"/><path d="m1761.3 539.83-1.76 3.52c-6.63 13.25-21.52 19.24-33.27 13.36l-230.64-115.32a21.2 21.2 0 0 1-6.11-4.6l-61.73-66.59c-13.18-14.22-4.49-38.54 12.6-44.36-1.18 7.48.6 15.35 6.33 21.43 21.17 22.5 42.36 45 63.53 67.5 1.81 1.92 3.93 3.5 6.27 4.67l236.13 118.06c2.76 1.38 5.69 2.14 8.64 2.32ZM619.43 1510.25l-18.85 30.04-120.59-79.23-134.78-88.55-9.04-5.94 31.74-50.6 9.28 5.56 89.46 53.58 58.16 34.84c15.02 45.88 49.97 82.72 94.62 100.3" class="cls-lab54"/><path d="m316.93 1417.58 86.73-138.24c.86-1.37 1.44-2.9 1.73-4.54 3.31-19.09 6.61-38.18 9.92-57.28 2.46-14.21-16.74-26.84-29.06-19.11l-50.98 32a12.6 12.6 0 0 0-4.01 3.98l-86.52 137.89c-4.42 7.04-.98 17.15 7.67 22.58l40.84 25.62c8.65 5.43 19.25 4.12 23.67-2.92Z" class="cls-lab514"/><path d="m290.96 1419.05 2.3 1.44c8.66 5.43 19.25 4.13 23.67-2.91l86.73-138.24c.86-1.37 1.44-2.9 1.72-4.54 3.31-19.09 6.61-38.18 9.92-57.27 2.12-12.23-11.82-23.29-23.59-21.2 3.45 3.87 5.37 8.9 4.42 14.16-3.53 19.45-7.06 38.91-10.6 58.36-.3 1.66-.91 3.23-1.79 4.63l-88.8 141.53a13.1 13.1 0 0 1-4 4.04Zm80.87-884.94c-.77-.9-2.1-1.03-2.97-.29l-9.68 8.29-50.08 42.86c-.87.74-.94 2.08-.17 2.98l7.81 9.13c.77.9 2.1 1.03 2.97.29l48.51-41.52c.87-.74 2.2-.61 2.97.29l76.72 89.63c.58.68.7 1.64.29 2.41l-97.52 181.13c-1.53 1.98-1.47 4.88.29 6.92l88.65 103.56c2.77 3.23 7.53 3.7 10.64 1.04s3.38-7.44.62-10.67l-82.43-96.3c-.58-.68-.7-1.64-.29-2.41l99.7-185.18-.2-.12.06-.05-95.87-112.01Z" class="cls-lab54"/><path d="M516.81 999.53c-.84 1.03-1.79 2-2.84 2.9l-11.69 10c-.54.47-1.1.9-1.68 1.32-.29.21-.58.41-.88.59-.59.39-1.19.73-1.8 1.05q-.915.465-1.86.87c-.32.13-.63.26-.96.37-.64.23-1.28.43-1.93.61-.65.17-1.31.31-1.98.43-.66.11-1.32.2-1.99.26-1.08.09-2.16.11-3.24.05-.41-.02-.81-.06-1.22-.1s-.81-.1-1.22-.16h-.03a23.18 23.18 0 0 1-13.95-7.83l-2.89-3.38-81.66-95.4c-3.73-4.35-5.55-9.68-5.57-14.99 0-.32 0-.64.02-.95 0-.28.02-.56.04-.85 0-.08 0-.15.02-.23.05-.59.11-1.18.21-1.77.06-.4.14-.8.22-1.2.6-2.8 1.72-5.5 3.35-7.95.46-.7.97-1.38 1.51-2.03.55-.65 1.14-1.29 1.77-1.89.22-.21.45-.43.69-.63.09-.09.19-.17.28-.25l10.97-9.39.72-.61a23.2 23.2 0 0 1 5.29-3.41q1.05-.495 2.13-.87c.25-.08.49-.16.73-.24.64-.2 1.3-.37 1.96-.52s1.31-.26 1.98-.35c7.1-.91 14.5 1.46 19.76 6.96.3.3.6.63.89.97l34.69 40.53 49.86 58.25c.1.12.21.24.3.37 7.14 8.68 6.94 21.06 0 29.47" class="cls-lab511"/><path d="M516.81 999.53c-.84 1.03-1.79 2-2.84 2.9l-11.68 10.01c-.55.47-1.11.91-1.69 1.31-.29.21-.58.41-.88.59-.59.39-1.19.73-1.8 1.05q-.915.465-1.86.87c-.32.13-.63.26-.96.37-.64.24-1.28.44-1.93.61s-1.31.31-1.98.43c-.66.11-1.32.2-1.99.26-1.08.09-2.16.11-3.24.05-.41-.02-.81-.06-1.22-.1s-.81-.1-1.22-.16h-.02c1.58-.8 3.09-1.8 4.51-3.01l13.22-11.32c9.32-7.97 10.41-21.99 2.43-31.3l-37.01-43.24-39.04-45.62c-5.8-6.77-14.8-9.19-22.86-6.94a22.1 22.1 0 0 0-8.45 4.51l-4.15 3.55-9.07 7.77a21.8 21.8 0 0 0-3.66 4c0-.32 0-.64.02-.95 0-.28.02-.56.04-.85 0-.08 0-.15.02-.23.05-.59.11-1.18.21-1.77.06-.4.14-.8.22-1.2.6-2.8 1.72-5.5 3.35-7.95.46-.7.97-1.38 1.51-2.03.55-.65 1.14-1.29 1.77-1.89.22-.21.45-.43.69-.63.09-.09.19-.17.28-.25l10.97-9.39.72-.61a23.2 23.2 0 0 1 5.29-3.41q1.05-.48 2.13-.87c.25-.08.49-.16.73-.24.64-.2 1.3-.37 1.96-.52.65-.14 1.32-.26 1.98-.35 7.1-.91 14.5 1.46 19.76 6.96.3.31.59.63.88.97l34.7 40.53 49.86 58.25c.1.12.21.24.3.37 7.14 8.68 6.94 21.06 0 29.47" class="cls-lab58"/><rect width="348.88" height="135.73" x="40.51" y="609.46" class="cls-lab56" rx="43.76" ry="43.76" transform="rotate(-40.56 214.962 677.36)"/><path d="m331.79 545.58 31.36 36.63c15.71 18.36 13.57 45.98-4.79 61.7L159.8 813.87c-18.36 15.71-45.98 13.56-61.69-4.79l-31.36-36.63c-8.37-9.77-11.67-22.18-10.16-34.01l33.55 39.2c15.05 17.58 41.51 19.64 59.1 4.59l179.49-153.64c17.58-15.05 19.63-41.51 4.58-59.09l-33.55-39.2c11.92.32 23.67 5.51 32.04 15.28Z" class="cls-lab59"/><path d="M1688.63 1433.92c.8.17 1.32.9 1.17 1.63l-1.71 8.2-8.84 42.39c-.15.73-.92 1.19-1.72 1.03l-8.07-1.68c-.8-.17-1.32-.9-1.17-1.63l8.56-41.06c.15-.73-.37-1.46-1.17-1.63l-79.25-16.53c-.6-.13-1.22.11-1.53.58l-75.58 113c-.67 1.5-2.42 2.37-4.23 1.99l-91.57-19.1c-2.86-.6-4.73-3.21-4.18-5.84s3.31-4.28 6.17-3.68l85.15 17.76c.6.13 1.22-.11 1.53-.58l77.26-115.52.14.08v-.05l99.05 20.66Z" class="cls-lab54"/><path d="M1477.66 1511.22c-.07-.11-.13-.22-.21-.33l-.18-.27c-.14-.19-.28-.39-.41-.58a15.5 15.5 0 0 0-8.92-5.82c-.23-.06-.46-.11-.7-.16l-37.45-7.81c-3.1 1.98-6.28 3.85-9.52 5.61a160.5 160.5 0 0 1-51.17 17.48c-1.74.83-3.45 1.68-5.15 2.44 1.99 1.82 4.48 3.15 7.31 3.75l88.01 18.36c1.07.22 2.13.33 3.17.33 2.61 0 5.11-.66 7.32-1.84.25-.13.49-.26.73-.4.28-.16.55-.33.81-.52 3.04-2.08 5.34-5.25 6.29-9.08.03-.08.04-.16.06-.24l.06-.28 1.87-9.01.06-.27c.85-4.06.03-8.09-1.99-11.36Z" class="cls-lab511"/><path d="M1362.5 1520.28c.45.53.94 1.03 1.46 1.5 1.69-.76 3.41-1.62 5.15-2.44-2.19.35-4.39.67-6.6.94Z" class="cls-lab511"/><path d="m1479.72 1522.25-.07.33-.06.27-1.87 9.01-.06.28c-.02.08-.03.16-.06.24-.86 3.84-3.17 7-6.29 9.08-.26.19-.53.36-.81.52-.24.14-.48.27-.73.4.52-1.05.91-2.17 1.16-3.37l1.61-7.68.73-3.52c.45-2.15.38-4.29-.13-6.3-1.35-5.38-5.81-9.84-11.81-11.09l-41.06-8.56c3.24-1.76 6.42-3.63 9.52-5.61l37.45 7.81a16.37 16.37 0 0 1 9.62 5.98c.13.19.27.39.41.58l.18.27c.08.11.14.22.21.33 2.04 3.2 2.88 7.11 2.06 11.03" class="cls-lab58"/><rect width="229.2" height="93.14" x="1540.99" y="1522.94" class="cls-lab56" rx="29.38" ry="29.38" transform="rotate(-78.22 1655.528 1569.5)"/><path d="m1695.19 1460.7-32.39-6.76c-16.23-3.39-32.02 6.47-35.26 22.01l-35.06 168.09c-3.24 15.54 7.29 30.88 23.52 34.27l32.39 6.76c8.64 1.8 17.16-.15 23.72-4.71l-34.66-7.23c-15.55-3.24-25.64-17.94-22.53-32.83l31.69-151.94c3.1-14.88 18.23-24.32 33.78-21.08l34.66 7.23c-4.19-6.81-11.22-12-19.86-13.81" class="cls-lab59"/><path d="M1384.05 288.28c-.05.47-.12.93-.2 1.39-.09.58-.2 1.16-.34 1.73a27.5 27.5 0 0 1-1.82 5.36c-.41.91-.88 1.81-1.41 2.69-.18.29-.36.58-.54.86-.3.47-.61.91-.93 1.35-.81 1.1-1.71 2.16-2.7 3.14-.98 1-2.06 1.93-3.22 2.79l-237.55 175.6-67.85 50.16H871.28l6.62-4.89 5.01-3.71 10.18-7.52 5.01-3.71 13.35-9.86 7.08-5.24 13.35-9.87 5.02-3.7 2.24-1.66 7.94-5.87 5.01-3.7 13.35-9.87 7.08-5.24 13.35-9.86 5.02-3.71 10.17-7.52 5.02-3.71 13.35-9.87 7.08-5.23 13.35-9.87 5.01-3.71 10.18-7.52 5.02-3.71 13.35-9.87 7.08-5.23 13.34-9.87 5.02-3.71 10.18-7.52 5.01-3.71 13.35-9.87 7.08-5.23 13.35-9.87 5.02-3.71 10.17-7.52 5.02-3.71 13.35-9.86 7.08-5.24 13.35-9.87 5.01-3.7 10.18-7.53 5.02-3.7 13.35-9.87 7.08-5.24 13.35-9.86 5.01-3.71 10.18-7.53 5.01-3.7 13.35-9.87 7.08-5.23 7.13-5.27c2.61-1.93 5.45-3.34 8.39-4.24.34-.1.67-.2 1.01-.29s.68-.18 1.02-.25c.29-.07.58-.13.87-.19.27-.05.54-.1.81-.14.58-.1 1.16-.17 1.74-.23.56-.06 1.13-.1 1.69-.12 8.93-.34 17.86 3.59 23.58 11.32l36.09 48.82c.46.63.89 1.26 1.29 1.91.41.65.78 1.31 1.12 1.98.38.75.73 1.52 1.05 2.29l.3.78c.25.7.48 1.4.68 2.11.98 3.52 1.26 7.17.85 10.73Z" class="cls-lab56"/><path d="M1384.05 288.28c-.05.47-.12.93-.2 1.39-.09.58-.2 1.16-.34 1.73a27.5 27.5 0 0 1-1.82 5.36c-.42.91-.89 1.81-1.41 2.69-.18.29-.36.58-.54.86-.3.47-.61.91-.93 1.35-.81 1.1-1.71 2.16-2.7 3.14-.99.99-2.06 1.92-3.22 2.78l-237.55 175.61-67.85 50.16h-31.81l67.86-50.16 244.28-180.58c12.15-8.98 14.71-26.1 5.74-38.24l-36.82-49.81a27.4 27.4 0 0 0-4.78-5c.34-.1.67-.2 1.01-.29s.68-.18 1.02-.25c.29-.07.58-.13.87-.19.27-.05.54-.1.81-.14.58-.1 1.16-.17 1.74-.23.56-.06 1.13-.1 1.69-.12 8.93-.34 17.86 3.59 23.58 11.32l36.08 48.82c.46.63.89 1.26 1.3 1.91.4.65.77 1.31 1.12 1.98.38.75.73 1.52 1.05 2.29l.3.78c.25.7.48 1.4.68 2.11.98 3.52 1.26 7.17.85 10.73Z" class="cls-lab59"/><path d="M889.26 533.35h-7.76l-3.61-4.89 5.01-3.71zm23.49 0h-7.76l-11.91-16.12 5.01-3.71zm19.125-44.751 5.018-3.71 19.52 26.41a2.9 2.9 0 0 1-.608 4.056l-.354.261a2.9 2.9 0 0 1-4.056-.608zm15.198-11.236 5.018-3.709 19.52 26.409a2.9 2.9 0 0 1-.608 4.056l-.354.261a2.9 2.9 0 0 1-4.056-.608zm38.797-28.68 5.017-3.71 19.52 26.41a2.9 2.9 0 0 1-.608 4.055l-.354.262a2.9 2.9 0 0 1-4.055-.608zm15.19-11.22 5.018-3.709 19.52 26.409a2.9 2.9 0 0 1-.609 4.056l-.353.261a2.9 2.9 0 0 1-4.056-.608zm38.794-28.686 5.018-3.71 19.52 26.41a2.9 2.9 0 0 1-.608 4.055l-.354.262a2.9 2.9 0 0 1-4.056-.608zm15.2-11.23 5.018-3.71 19.52 26.41a2.9 2.9 0 0 1-.608 4.056l-.354.261a2.9 2.9 0 0 1-4.056-.608zm38.792-28.672 5.018-3.71 19.52 26.41a2.9 2.9 0 0 1-.608 4.055l-.354.262a2.9 2.9 0 0 1-4.056-.609zm15.198-11.226 5.018-3.71 19.52 26.41a2.9 2.9 0 0 1-.608 4.056l-.354.261a2.9 2.9 0 0 1-4.055-.608zm38.796-28.681 5.019-3.709 19.52 26.41a2.9 2.9 0 0 1-.608 4.055l-.354.262a2.9 2.9 0 0 1-4.056-.609zm15.19-11.229 5.019-3.71 19.52 26.41a2.9 2.9 0 0 1-.608 4.055l-.354.262a2.9 2.9 0 0 1-4.056-.608zm38.795-28.677 5.018-3.709 19.52 26.41a2.9 2.9 0 0 1-.608 4.055l-.354.262a2.9 2.9 0 0 1-4.056-.609zm15.19-11.229 5.018-3.71 19.52 26.41a2.9 2.9 0 0 1-.608 4.055l-.354.262a2.9 2.9 0 0 1-4.056-.609zm38.805-28.687 5.018-3.709 19.52 26.41a2.9 2.9 0 0 1-.609 4.055l-.353.261a2.9 2.9 0 0 1-4.056-.608zm15.19-11.23 5.018-3.709 19.52 26.41a2.9 2.9 0 0 1-.608 4.055l-.354.262a2.9 2.9 0 0 1-4.056-.609zM944.34 533.35h-10.95l-21.95-29.69 7.08-5.24zm21.095-69.559 7.077-5.23 32.044 43.352a4.4 4.4 0 0 1-7.077 5.23zm53.995-39.916 7.076-5.23 32.045 43.352a4.4 4.4 0 0 1-7.077 5.23zm53.986-39.9 7.077-5.23 32.044 43.352a4.4 4.4 0 0 1-7.077 5.23zm53.991-39.898 7.076-5.23 32.044 43.352a4.4 4.4 0 0 1-7.077 5.23zm53.994-39.917 7.077-5.23 32.044 43.353a4.4 4.4 0 0 1-7.077 5.23l-32.044-43.352Zm53.976-39.9 7.077-5.23 32.044 43.353a4.4 4.4 0 0 1-7.077 5.23l-32.044-43.352Zm53.995-39.916 7.077-5.23 32.044 43.352a4.4 4.4 0 0 1-7.077 5.23z" class="cls-lab54"/><path d="m1833.52 1020.31-12.12 39.58c-3.08 10.07-13.73 15.73-23.8 12.65l-242.53-74.21-50.16-15.35v-83.15l3.78 1.15 10.83 3.31 3.08.95.98.3 8.25 2.52 4.07 1.25 10.82 3.31 5.74 1.76 2.61.79 8.22 2.52 4.06 1.24 8.25 2.53 4.07 1.24 10.82 3.31 5.74 1.76 10.83 3.31 4.06 1.24 8.25 2.53 4.07 1.24 16.56 5.07 10.83 3.31 4.06 1.25 8.25 2.52 4.07 1.25 10.82 3.31 5.74 1.75 10.83 3.32 4.06 1.24 8.26 2.53 4.06 1.24 10.82 3.31 5.74 1.76 10.83 3.31 4.06 1.24 8.26 2.53 4.06 1.24 10.82 3.31 5.75 1.76 10.82 3.31 12.32 3.77 14.89 4.56 5.74 1.75 5.78 1.77c2.11.65 4.03 1.63 5.72 2.88.3.22.6.45.89.69q.42.36.84.75c.24.23.48.46.71.7.28.3.56.6.82.91a19 19 0 0 1 1.91 2.72 18 18 0 0 1 1 1.97c.3.67.55 1.37.77 2.08.21.71.39 1.43.52 2.16.06.36.12.73.17 1.09v.02c.04.37.07.74.1 1.12.14 2.21-.11 4.48-.8 6.72" class="cls-lab52"/><path d="m1833.51 1020.31-12.11 39.58c-3.08 10.07-13.73 15.73-23.8 12.65l-242.53-74.21-50.16-15.35v-13.47l50.16 15.34 235.07 71.93c9.86 3.01 20.28-2.53 23.29-12.37l12.36-40.38c.47-1.55.73-3.11.8-4.65.3.22.6.45.89.69q.42.36.84.75c.24.23.48.46.71.7.28.3.56.6.82.91a19 19 0 0 1 1.91 2.72 18 18 0 0 1 1 1.97c.3.67.55 1.37.77 2.08.21.71.39 1.43.52 2.16.06.36.12.73.17 1.09v.02c.04.37.07.74.1 1.12.13 2.21-.12 4.48-.81 6.72" class="cls-lab513"/><path d="m1519.59 904.224 4.065 1.244-6.55 21.41a1.985 1.985 0 0 1-2.473 1.314l-.287-.087a1.985 1.985 0 0 1-1.314-2.473l6.55-21.41Zm12.31 3.766 4.063 1.244-6.55 21.41a1.985 1.985 0 0 1-2.472 1.314l-.287-.087a1.985 1.985 0 0 1-1.314-2.473l6.55-21.41Zm31.456 9.633 4.064 1.243-6.55 21.41a1.985 1.985 0 0 1-2.473 1.314l-.286-.087a1.985 1.985 0 0 1-1.315-2.473l6.55-21.41Zm12.319 3.766 4.064 1.243-6.55 21.41a1.985 1.985 0 0 1-2.473 1.315l-.287-.088a1.985 1.985 0 0 1-1.314-2.473l6.55-21.41Zm31.459 9.622 4.064 1.243-6.55 21.411a1.985 1.985 0 0 1-2.472 1.314l-.287-.088a1.985 1.985 0 0 1-1.314-2.472l6.55-21.41Zm12.309 3.766 4.064 1.244-6.55 21.41a1.985 1.985 0 0 1-2.473 1.314l-.287-.087a1.985 1.985 0 0 1-1.314-2.473l6.55-21.41Zm31.459 9.623 4.064 1.243-6.55 21.41a1.985 1.985 0 0 1-2.472 1.315l-.287-.088a1.985 1.985 0 0 1-1.314-2.473l6.55-21.41Zm12.308 3.766 4.065 1.243-6.55 21.41a1.985 1.985 0 0 1-2.473 1.315l-.287-.088a1.985 1.985 0 0 1-1.314-2.472l6.55-21.41Zm31.467 9.632 4.064 1.243-6.55 21.41a1.985 1.985 0 0 1-2.472 1.315l-.287-.088a1.985 1.985 0 0 1-1.314-2.472l6.55-21.41Zm12.321 3.76 4.065 1.243-6.55 21.41a1.985 1.985 0 0 1-2.473 1.315l-.287-.088a1.985 1.985 0 0 1-1.314-2.473l6.55-21.41Zm31.448 9.629 4.064 1.243-6.55 21.41a1.985 1.985 0 0 1-2.473 1.315l-.287-.088a1.985 1.985 0 0 1-1.314-2.473l6.55-21.41Zm12.318 3.769 4.064 1.243-6.55 21.41a1.985 1.985 0 0 1-2.473 1.315l-.287-.088a1.985 1.985 0 0 1-1.314-2.473l6.55-21.41Zm31.45 9.619 4.064 1.244-6.55 21.41a1.985 1.985 0 0 1-2.473 1.314l-.287-.087a1.985 1.985 0 0 1-1.314-2.473l6.55-21.41Zm12.328 3.769 4.064 1.244-6.55 21.41a1.985 1.985 0 0 1-2.473 1.314l-.287-.087a1.985 1.985 0 0 1-1.314-2.473l6.55-21.41ZM1508.69 900.98l-3.78 12.36v-13.51zm38.098 11.57 5.737 1.756-10.754 35.152a2.996 2.996 0 0 1-3.746 1.99 2.996 2.996 0 0 1-1.991-3.746l10.754-35.151Zm43.778 13.39 5.737 1.754-10.754 35.152a2.996 2.996 0 0 1-3.746 1.991 2.996 2.996 0 0 1-1.991-3.746zm43.768 13.388 5.737 1.755-10.753 35.152a2.996 2.996 0 0 1-3.747 1.991 2.996 2.996 0 0 1-1.99-3.746zm43.765 13.398 5.738 1.755-10.754 35.152a2.996 2.996 0 0 1-3.747 1.991 2.996 2.996 0 0 1-1.99-3.746zm43.778 13.389 5.738 1.755-10.754 35.152a2.996 2.996 0 0 1-3.746 1.991 2.996 2.996 0 0 1-1.992-3.746zm43.768 13.388 5.738 1.756-10.754 35.151a2.996 2.996 0 0 1-3.746 1.992 2.996 2.996 0 0 1-1.991-3.747zm43.785 13.401 5.738 1.756-10.754 35.152a2.996 2.996 0 0 1-3.747 1.99 2.996 2.996 0 0 1-1.99-3.746z" class="cls-lab54"/><path d="m1866.72 1408.08-150.02-53.11 77.04-217.64 150.03 53.1-5.54 15.64-21.32-5.4 19.97 9.21-2.94 8.3-43.11-7.78 38.41 21.08-9.26 26.15-68.21-15.12 62.54 31.15-2.83 7.99-35.73-7.92 32.75 16.32-5.74 16.21-22.84-5.79 21.4 9.87-5.54 15.64-51.44-11.41 47.17 23.49-1.04 2.92-65.94-16.72 61.78 28.49-7.78 21.97-34.32-8.7 32.15 14.83-2.79 7.89-45.73-11.6 42.84 19.76z" class="cls-lab56"/><path d="m1866.72 1408.08-38.16-13.51 24.61.79-63.49-31.73 68.97 17.5 1.51-3.66-54.11-24.96 62.53 15.85 5.32-15.04-87.53-42.57 65.95 16.72 1.03-2.91-47.17-23.5 73.91 15.07 3.89-9.7-42.22-19.47 51.05 12.94 3.67-10.34-58.89-29.34 35.73 7.92 2.83-7.99-62.54-31.15 92.52 19.94 7.31-20.65-60.77-31.4 61.95 14.23 2.16-6.42-38.03-17.54 50.16 10.77 4.01-11.33 10.85 3.83-5.54 15.64-21.32-5.4 19.97 9.21-2.94 8.3-43.11-7.78 38.41 21.08-9.26 26.15-68.21-15.12 62.54 31.15-2.83 7.99-35.73-7.92 32.75 16.32-5.74 16.21-22.84-5.79 21.4 9.87-5.54 15.64-51.44-11.41 47.17 23.49-1.04 2.92-65.94-16.72 61.78 28.49-7.78 21.97-34.32-8.7 32.15 14.83-2.79 7.89-45.73-11.6 42.84 19.76z" class="cls-lab59"/><path d="m1678.457 1341.337 77.03-217.65 38.161 13.505-77.031 217.65z" class="cls-lab53"/><path d="m1805.087 1141.438-77.028 217.64-43.987-15.567 77.028-217.641z" class="cls-lab512"/><path d="m1805.08 1141.435-77.028 217.641-13.528-4.788 77.028-217.64z" class="cls-lab515"/><path d="m1761.02 1125.74-77.04 217.64-5.44-1.92-52.49-18.58c-30.76-10.89-53.46-35.56-58.02-63.06l-.19-1.16c-1.69-10.21-6.16-19.98-12.77-28.62-9.4-12.31-23.15-22.33-39.4-28.09l-10.76-3.81v-81.21l36.3 12.85c4.58 1.62 9.22 2.85 13.86 3.7 23.38 4.3 46.74-1.07 62.38-14.95l.87-.78c20.86-18.51 54.01-23.4 84.78-12.51l35.17 12.45 8.36 2.96 8.95 3.17z" class="cls-lab514"/><path d="m1761.03 1125.74-.01.01-77.04 217.63-5.44-1.92-52.49-18.58c-30.76-10.89-53.46-35.56-58.02-63.06l-.19-1.16c-1.69-10.21-6.16-19.98-12.77-28.62-9.4-12.31-23.15-22.33-39.4-28.09l-10.76-3.81v-41.94l20.81 7.37c11.31 4 21.35 10.07 29.35 17.43 9.59 8.8 16.23 19.46 18.59 30.61l.2.95c4.81 22.74 25.66 43.63 53.32 53.42 14.37 5.09 29.09 4.91 41.24.51 12.17-4.4 21.78-13.03 25.96-24.84l43.89-123.96 8.36 2.96 8.95 3.17 5.44 1.92z" class="cls-lab51"/><path d="m653.5 1661.54 68.78-58.88 85.42 99.79-68.79 58.88-6.13-7.17 8.72-8.98-10.22 7.23-3.26-3.81 16.08-19.04-21.3 12.95-10.26-11.99 26.83-29.33-33.12 21.98-3.14-3.67 14.06-15.36-17.35 11.51-6.36-7.43 9.34-9.62-10.95 7.75-6.13-7.17 20.23-22.12-24.98 16.58-1.14-1.34 26.97-27.76-31.59 22.36-8.62-10.07 14.03-14.45-16.44 11.64-3.09-3.62 18.7-19.25-21.91 15.51z" class="cls-lab52"/><path d="m653.5 1661.54 17.49-14.98-7.38 11.91 33.67-22.29-28.21 29.03 1.38 1.78 27.67-19.58-25.57 26.32 5.9 6.9 45.85-31.07-26.97 27.77 1.14 1.33 24.98-16.58-28.42 32.16 3.68 4.67 21.59-15.28-20.88 21.49 4.06 4.74 31.18-20.69-14.05 15.36 3.14 3.66 33.11-21.98-36.1 39.95 8.1 9.47 32.74-21.05-24.61 26.5 2.55 2.89 19.45-13.77-19.56 21.67 4.45 5.2-4.97 4.26-6.13-7.17 8.72-8.98-10.22 7.23-3.26-3.81 16.08-19.04-21.3 12.95-10.26-11.99 26.83-29.33-33.12 21.98-3.14-3.67 14.06-15.36-17.35 11.51-6.36-7.43 9.34-9.62-10.95 7.75-6.13-7.17 20.23-22.12-24.98 16.58-1.14-1.34 26.97-27.76-31.59 22.36-8.62-10.07 14.03-14.45-16.44 11.64-3.09-3.62 18.7-19.25-21.91 15.51z" class="cls-lab513"/><path d="m722.257 1602.714 17.496-14.975 85.41 99.79-17.497 14.975z" class="cls-lab53"/><path d="m802.593 1706.904-85.41-99.79 20.171-17.264 85.41 99.79z" class="cls-lab512"/><path d="m802.587 1706.893-85.41-99.79 6.2-5.306 85.41 99.79z" class="cls-lab515"/><path d="M946.49 1521.45c-1.73 4.28-4.62 8.37-8.57 11.75l-44.86 38.41-9.92 8.49c-12.69 10.85-18.99 26.8-16.11 40.77l.14.66c3.2 15.53-3.8 33.27-17.91 45.34l-16.12 13.81-7.94 6.79-2.5 2.14-85.41-99.79 2.49-2.14 18.78-16.07 5.29-4.53c14.1-12.07 32.71-16.25 47.56-10.69l.63.23c7.46 2.79 15.97 2.85 24.24.47.66-.19 1.31-.39 1.96-.61a53 53 0 0 0 4.83-1.92q.945-.45 1.89-.93c1.57-.8 3.11-1.7 4.61-2.69 1.21-.79 2.39-1.63 3.54-2.54.57-.46 1.14-.92 1.7-1.4l29.85-25.55z" class="cls-lab514"/><path d="m919.27 1521.45-48.39 41.41c-4.53 3.88-9.56 6.83-14.7 8.75-7.78 2.92-15.78 3.46-22.6 1.24l-.53-.17c-1.44-.47-2.92-.82-4.44-1.07-3.61-.59-7.42-.58-11.29 0-8.8 1.3-17.94 5.51-25.74 12.19-6.59 5.64-10.68 12.94-11.97 20.19-1.28 7.24.24 14.43 4.88 19.85l48.65 56.84-7.94 6.79-2.5 2.14-85.41-99.79 2.49-2.14 18.78-16.07 5.29-4.53c14.1-12.07 32.71-16.25 47.56-10.69l.63.23c7.46 2.79 15.97 2.85 24.24.47.66-.19 1.31-.39 1.96-.61a53 53 0 0 0 4.83-1.92c.63-.3 1.26-.6 1.89-.93 1.57-.8 3.11-1.7 4.61-2.69 1.21-.79 2.39-1.63 3.54-2.54.57-.45 1.14-.91 1.7-1.39l29.85-25.56z" class="cls-lab51"/><path d="m1361.18 1497.52-.06.28c.06-.26.12-.51.18-.76q-.075.24-.12.48m0 0-.06.28c.06-.26.12-.51.18-.76q-.075.24-.12.48m0 0-.06.28c.06-.26.12-.51.18-.76q-.075.24-.12.48m0 0-.06.28c.06-.26.12-.51.18-.76q-.075.24-.12.48m0 0-.06.28c.06-.26.12-.51.18-.76q-.075.24-.12.48m0 0-.06.28c.06-.26.12-.51.18-.76q-.075.24-.12.48m0 0-.06.28c.06-.26.12-.51.18-.76q-.075.24-.12.48m0 0-.06.28c.06-.26.12-.51.18-.76q-.075.24-.12.48m0 0-.06.28c.06-.26.12-.51.18-.76q-.075.24-.12.48m0 0-.06.28c.06-.26.12-.51.18-.76q-.075.24-.12.48m0 0-.06.28c.06-.26.12-.51.18-.76q-.075.24-.12.48m0 0-.06.28c.06-.26.12-.51.18-.76q-.075.24-.12.48m0 0-.06.28c.06-.26.12-.51.18-.76q-.075.24-.12.48m0 0-.06.28c.06-.26.12-.51.18-.76q-.075.24-.12.48m0 0-.06.28c.06-.26.12-.51.18-.76q-.075.24-.12.48m0 0-.06.28c.06-.26.12-.51.18-.76q-.075.24-.12.48m0 0-.06.28c.06-.26.12-.51.18-.76q-.075.24-.12.48m0 0-.06.28c.06-.26.12-.51.18-.76q-.075.24-.12.48m0 0-.06.28c.06-.26.12-.51.18-.76q-.075.24-.12.48m0 0-.06.28c.06-.26.12-.51.18-.76q-.075.24-.12.48m0 0-.06.28c.06-.26.12-.51.18-.76q-.075.24-.12.48m0 0-.06.28c.06-.26.12-.51.18-.76q-.075.24-.12.48m0 0-.06.28c.06-.26.12-.51.18-.76q-.075.24-.12.48m0 0-.06.28c.06-.26.12-.51.18-.76q-.075.24-.12.48m0 0-.06.28c.06-.26.12-.51.18-.76q-.075.24-.12.48m0 0-.06.28c.06-.26.12-.51.18-.76q-.075.24-.12.48m0 0-.06.28c.06-.26.12-.51.18-.76q-.075.24-.12.48m0 0-.06.28c.06-.26.12-.51.18-.76q-.075.24-.12.48m0 0-.06.28c.06-.26.12-.51.18-.76q-.075.24-.12.48m0 0-.06.28c.06-.26.12-.51.18-.76q-.075.24-.12.48m161.37-938.68c-32.28-45.76-85.56-75.65-145.82-75.65H645c-38.6 0-74.33 12.26-103.52 33.11-4.03 2.87-7.93 5.91-11.7 9.1-7.52 6.37-14.5 13.35-20.87 20.87-23.17 27.31-38.25 61.69-41.56 99.43-.06.6-.11 1.19-.15 1.79-.37 4.63-.55 9.31-.55 14.04v731.74c0 24 4.74 46.89 13.34 67.79 26.68 64.87 90.51 110.55 165.01 110.55h731.73c41.22 0 79.16-13.98 109.36-37.46a177 177 0 0 0 9.53-7.95c36.49-32.65 59.45-80.11 59.45-132.93V661.53c0-38.23-12.03-73.66-32.52-102.69m-17.64 800.7c0 57.49-29.96 107.99-75.12 136.71-3.1 1.98-6.28 3.85-9.52 5.61a160.7 160.7 0 0 1-57.77 18.42c-6.39.78-12.89 1.17-19.49 1.17H678.72c-20.93 0-40.93-3.97-59.29-11.2-44.65-17.58-79.6-54.42-94.62-100.3-5.19-15.86-8-32.81-8-50.41V999.53c6.94-8.41 7.14-20.79 0-29.47v-274.8c0-51.88 24.4-98.06 62.35-127.69 5.17-4.04 10.59-7.77 16.24-11.17 4.57-2.75 9.3-5.28 14.15-7.57 20.98-9.93 44.42-15.48 69.17-15.48h664.29c63.73 0 118.86 36.82 145.27 90.35 10.65 21.58 16.63 45.87 16.63 71.56z" style="fill:#36514c"/><path d="M516.81 999.53v-29.47c7.14 8.68 6.94 21.06 0 29.47m844.49 497.51c-.06.25-.12.5-.18.76l.06-.28q.045-.24.12-.48" class="cls-lab53"/></svg>