<svg xmlns="http://www.w3.org/2000/svg" viewBox="0 0 2000 2000" width="300" height="300" fill="none"><defs><style>.cls-pan51{fill:#fff}.cls-pan52{fill:#cc7e17}.cls-pan53{fill:#e21d27}.cls-pan55{fill:#e0911e}.cls-pan56{fill:#eae4e4}</style></defs><path d="M1475.49 1784.76H524.51c-108 0-195.87-87.87-195.87-195.87V289.87c0-108 87.87-195.87 195.87-195.87h950.98c108 0 195.87 87.87 195.87 195.87v1299.02c0 108-87.87 195.87-195.87 195.87M524.51 130.01c-88.15 0-159.86 71.71-159.86 159.86v1299.02c0 88.15 71.71 159.86 159.86 159.86h950.98c88.15 0 159.86-71.71 159.86-159.86V289.87c0-88.15-71.71-159.86-159.86-159.86z" class="cls-pan53"/><path d="M798.03 1754.04c-21.83-8.54-44.47-16.96-67.91-25.17-17.93-6.28-35.56-12.18-52.86-17.72l10.77 28.23-27.24 15.87c41.21 15.71 82.41 31.41 123.62 47.12zm398.93 0c21.83-8.54 44.47-16.96 67.91-25.17 17.93-6.28 35.56-12.18 52.86-17.72l-10.77 28.23 27.24 15.87c-41.21 15.71-82.41 31.41-123.62 47.12z" style="fill:#d8cece"/><path d="M793.21 1730.87a148.3 148.3 0 0 0-18.84 45.25c15.14 4.39 31.81 8.51 49.91 11.97 15.28 2.92 29.76 5.02 43.3 6.51a362 362 0 0 0 17.25-48.31c-33.47-4-64.14-9.42-91.62-15.42m306.45 17.2c1.03 1.48 2.15 2.85 3.28 4.1 10.91 13.34 21.91 26.58 33.53 39.05 14.77-1.97 30.78-4.72 47.76-8.55 17.67-3.99 33.88-8.58 48.52-13.36a138.7 138.7 0 0 0-29.79-37.5 970 970 0 0 1-103.3 16.25Z" class="cls-pan56"/><path d="M966.49 1252.93c-6.21 1.27-15.55 4.2-26.26 12.08a43.2 43.2 0 0 1-11.21-1.81 43.5 43.5 0 0 1-10.97-5.07c.14 1.89.63 4.82 2.41 7.79.57.95 1.18 1.75 1.77 2.42-2.49.65-6.63 1.35-11.51.3a24.3 24.3 0 0 1-5.31-1.81c.02 1.59.28 5.22 2.66 8.76 1.28 1.91 2.75 3.16 3.84 3.93-2.31-.11-21.98-.67-35.4 15.71-11.72 14.29-10.07 30.97-9.74 33.83 26.28-22.62 40.97-25.21 49.63-22.98 2.46.63 9.79 3.04 20.3 3.65 6.86.4 12.52-.11 16.23-.6-4.17 4.04-11.5 10.05-22.13 13.9-16.51 5.97-30.95 3.07-36.88 1.51.2 2.44.91 6.93 4.1 10.31 12.49 13.21 47.85-6.79 54.32 3.28.82 1.27 1.68 3.81-.29 9.06l109.34 1.38c-16.47-8.91-20.89-17.45-21.77-23.75-1.27-9.15 4.69-15.28 3.45-28.67-.68-7.36-3.19-13.18-5.17-16.92 1.97-1.21 4.07-2.7 6.2-4.53 6.4-5.52 10.18-11.74 12.39-16.31-5.88 6.49-13.32 9.08-18.47 6.58-1.08-.52-2.58-1.52-3.96-3.56 1.33-1.18 2.88-2.82 4.26-5.01 3.29-5.22 3.69-10.5 3.7-13.11-1.54 2.3-4.46 6.09-9.15 9.06-18.29 11.6-38.44-5.09-66.38.6Z" class="cls-pan55"/><path d="M978.4 1330.26c-5.25 4.84-13.48 11.21-24.91 15.91a83 83 0 0 1-17.49 5.03c4.68 2.89 9.35 5.77 14.03 8.66a39.1 39.1 0 0 1-12.81 3.62c-6.33.67-11.5-.34-14.64-1.21 5.29 3.42 10.57 6.85 15.86 10.27-2.76.91-8.09 2.25-14.64 1.21-4.6-.73-8.13-2.36-10.37-3.62l10.37 11.48c-5.39.73-10.78 1.45-16.18 2.18-5.15-9.5-14.24-24.25-28.96-39.03-41.84-42-82.6-37.45-110.3-64.44-17.53-17.08-34.11-50.94-21.45-125.87-23.93 23.44-56.56 62.36-74.42 117.81-41.42 128.66 11.14 301.52 118.34 337.11 19.7 6.54 50.45 11.5 93.33-.6-4.89 7.99-12.04 22.16-14.03 41.08-1.2 11.4-.16 21.17 1.22 28.39-5.41 22.36-14.2 30.23-21.35 33.23-6.73 2.82-9.29.19-20.13 4.23-5.3 1.97-17.42 6.68-23.66 18.26-1.22 2.27-1.98 4.99-3.48 10.44-4.32 15.64-6.49 23.45-4.57 28.7 5.76 15.81 40.86 18.29 43.31 12.69 1.56-3.58-10.75-9.25-9.15-16.92.85-4.05 4.64-4.17 13.42-11.48 9.83-8.19 11.4-13.32 15.25-12.69 5.23.86 4.79 11.4 11.12 12.97 3.49.86 8.25-1.17 10.22-4.51 4.6-7.78-9.23-17.21-7.24-29.82.77-4.89 3.72-9.4 18.83-20.33 9.66-6.98 23.79-16.23 42.47-25.28A1287 1287 0 0 1 848.17 1906c41.31-2.91 72.56-11.3 92.72-18.12 20.62-6.98 34.75-14.03 45.75-27.79 7.81-9.76 11.52-19.76 13.42-26.58 3.21-11.99 2.63-22.27 1.83-28.39-.2-155.87-.41-311.73-.61-467.6-7.62-2.42-15.25-4.83-22.87-7.25Z" class="cls-pan55"/><path d="M959.66 1307.73c-1.82-4.57-12.61.26-31.28-6.76-12.2-4.59-13.91-9.03-20.99-10.19-8.52-1.4-21.44 2.5-40.41 26.61-.82 5.85-.37 10.32-.21 11.67 26.28-22.62 40.97-25.21 49.63-22.98 2.46.63 9.79 3.04 20.3 3.65 6.86.4 12.52-.11 16.23-.6-4.17 4.04-11.5 10.05-22.13 13.9-16.51 5.97-30.95 3.07-36.88 1.51.17 2.05.7 5.55 2.77 8.63 5.95 1.81 15.39 3.75 26.37 1.77 21.37-3.85 39.15-20.84 36.62-27.2Zm81.38 5.33c1.26-4.61 2.68-9.72 2.01-16.94-.31-3.34-1-6.36-1.84-9.02.12 1.03.27 2.07.56 3.06 1.69 7.79-4.03 15.59-.73 22.89Zm-95.28-39.59c12.48-1.52 13.23-13.29 27.14-16.01 12.92-2.53 18.76 6.36 39.66 5.56a73 73 0 0 0 13.68-1.83c.03 0 .08.02.13.04 1.93.65 1.48 4.19 2.65 6.2 2.2 3.79 10.14 2.17 10.37 3.62.25 1.58-9.16 3.64-8.98 5.4.11 1.02 3.38 1.57 7.17 1.89.12.09.25.18.38.29.12.1.24.2.35.3a48 48 0 0 0 5.76-4.25c6.4-5.52 10.18-11.74 12.39-16.31-5.88 6.49-13.32 9.08-18.47 6.58-1.08-.52-2.58-1.52-3.96-3.56 1.33-1.18 2.88-2.82 4.26-5.01 3.29-5.22 3.69-10.5 3.7-13.11-1.54 2.3-4.46 6.09-9.15 9.06-18.29 11.6-38.44-5.09-66.38.6-6.21 1.27-15.55 4.2-26.26 12.08a43.2 43.2 0 0 1-11.21-1.81 43.5 43.5 0 0 1-10.97-5.07c.05.7.15 1.55.35 2.49 6.63 6.57 16.53 14.17 27.36 12.85Zm-55.66 136.54c-19.03-23.59-52.25-8.86-87.38-24.47-24.61-10.93-53.42-38.19-70.45-110.56-3.71 33.63-3.47 83.1 24.7 126.87 28.88 44.87 74.05 63.45 70.38 69.92-3.36 5.93-44.66-3.83-74.95-31.86-22.77-21.06-32.36-46-36.6-60.72 3.85 23.73 18.53 94.03 80.52 143.18 20.56 16.3 41.34 26.32 58.56 32.62a168.3 168.3 0 0 1-57.64-4.53 167.6 167.6 0 0 1-54.9-25.37c18.14 28.02 45.27 58.33 84.29 67.74 47.66 11.49 94.4-12.68 101.45 1.13 3.67 7.19-8.72 14.25-22.87 45.31-12.14 26.64-7.14 30.5-18.3 50.75-4.49 8.15-16.26 28.99-39.34 45.31-19.99 14.13-33.64 14.38-34.77 23.56-1.7 13.82 27.38 28.37 28.67 26.88.86-1-10.83-8.86-9.15-16.92.85-4.05 4.64-4.17 13.42-11.48 9.83-8.19 11.4-13.32 15.25-12.69 5.23.86 4.79 11.4 11.12 12.97 3.49.86 8.25-1.17 10.22-4.51 4.6-7.78-9.23-17.21-7.24-29.82 1.56-9.89 11.63-15.8 18.83-20.33 43.86-27.58 50.16-53.34 61-49.54 19.89 6.98 23.36 102.41-26.48 158.12-18.62 20.82-39.43 30.2-37.57 33.39 2.52 4.32 44.21-7.36 72.59-39.27 11.44-12.87 18.09-25.77 21.96-35.04-3.28 16.04-12.31 48.85-39.65 79.75-36.52 41.27-82.1 52.48-97.6 55.58 41.31-2.91 72.56-11.3 92.72-18.12 20.62-6.98 34.75-14.03 45.75-27.79 7.81-9.76 11.52-19.76 13.42-26.58 3.21-11.99 2.63-22.27 1.83-28.39 16.32-160.21-13.3-223.97-44.89-252.03-13.26-11.78-43.38-31.93-54.99-70.58-10.45-34.76 3.36-53.58-11.89-72.5Z" class="cls-pan52"/><path d="M1021.6 1330.26c2.41 3.4 9.9 13.02 23.48 16.92 7.31 2.1 13.69 1.76 17.69 1.21-4.27 3.83-8.54 7.65-12.81 11.48a39.1 39.1 0 0 0 12.81 3.62c6.33.67 11.5-.34 14.64-1.21-5.29 3.42-10.57 6.85-15.86 10.27 2.76.91 8.09 2.25 14.64 1.21 4.6-.73 8.13-2.36 10.37-3.62l-10.37 11.48c5.39.73 10.78 1.45 16.18 2.18 5.15-9.5 14.24-24.25 28.96-39.03 41.84-42 82.6-37.45 110.3-64.44 17.53-17.08 34.11-50.94 21.45-125.87 23.93 23.44 56.56 62.36 74.42 117.81 41.42 128.66-11.14 301.52-118.33 337.11-19.7 6.54-50.45 11.5-93.33-.6 4.89 7.99 12.04 22.16 14.03 41.08 1.2 11.4.16 21.17-1.22 28.39 5.41 22.36 14.2 30.23 21.35 33.23 6.73 2.82 9.29.19 20.13 4.23 5.3 1.97 17.42 6.68 23.66 18.26 1.22 2.27 1.98 4.99 3.48 10.44 4.32 15.64 6.49 23.45 4.57 28.7-5.76 15.81-40.86 18.29-43.31 12.69-1.56-3.58 10.75-9.25 9.15-16.92-.85-4.05-4.64-4.17-13.42-11.48-9.83-8.19-11.4-13.32-15.25-12.69-5.23.86-4.79 11.4-11.12 12.97-3.49.86-8.25-1.17-10.22-4.51-4.6-7.78 9.23-17.21 7.24-29.82-.77-4.89-3.72-9.4-18.83-20.33-9.66-6.98-23.79-16.23-42.47-25.28a1287 1287 0 0 0 88.22 228.27c-41.31-2.91-72.56-11.3-92.72-18.12-20.62-6.98-34.75-14.03-45.75-27.79-7.81-9.76-11.52-19.76-13.42-26.58-3.21-11.99-2.63-22.27-1.83-28.39.2-155.87.41-311.73.61-467.6 7.62-2.42 15.25-4.83 22.87-7.25Z" class="cls-pan55"/><path d="M1110.06 1410.01c19.03-23.59 52.25-8.86 87.38-24.47 24.61-10.93 53.42-38.19 70.45-110.56 3.71 33.63 3.47 83.1-24.7 126.87-28.88 44.87-74.05 63.45-70.38 69.92 3.36 5.93 44.66-3.83 74.95-31.86 22.77-21.06 32.36-46 36.6-60.72-3.85 23.73-18.53 94.03-80.52 143.18-20.56 16.3-41.34 26.32-58.56 32.62 13.21 1.25 33.73 1.61 57.64-4.53 25.31-6.5 43.83-17.56 54.9-25.37-18.14 28.02-45.27 58.33-84.29 67.74-47.66 11.49-94.4-12.68-101.45 1.13-3.67 7.19 8.72 14.25 22.87 45.31 12.14 26.64 7.14 30.5 18.3 50.75 4.49 8.15 16.26 28.99 39.34 45.31 19.99 14.13 33.64 14.38 34.77 23.56 1.7 13.82-27.38 28.37-28.67 26.88-.86-1 10.83-8.86 9.15-16.92-.85-4.05-4.64-4.17-13.42-11.48-9.83-8.19-11.4-13.32-15.25-12.69-5.23.86-4.79 11.4-11.12 12.97-3.49.86-8.25-1.17-10.22-4.51-4.6-7.78 9.23-17.21 7.24-29.82-1.56-9.89-11.63-15.8-18.83-20.33-43.86-27.58-50.16-53.34-61-49.54-19.89 6.98-23.36 102.41 26.48 158.12 18.62 20.82 39.43 30.2 37.57 33.39-2.52 4.32-44.21-7.36-72.59-39.27-11.44-12.87-18.09-25.77-21.96-35.04 3.28 16.04 12.31 48.85 39.65 79.75 36.52 41.27 82.1 52.48 97.6 55.58-41.31-2.91-72.56-11.3-92.72-18.12-20.62-6.98-34.75-14.03-45.75-27.79-4.32-5.41-7.71-14.17-13.42-26.58a506 506 0 0 1-10.73-25.07c-9.91-162.63 21.46-227.19 53.8-255.36 12.95-11.28 43.33-31.79 54.99-70.58 10.45-34.76-3.36-53.58 11.89-72.5Z" class="cls-pan52"/><path d="M1099.66 1748.07a971 971 0 0 1-100.29 5.08c-41.02-.04-79.34-2.67-114.55-6.87a364 364 0 0 1-17.25 48.31 969 969 0 0 0 163.92 6.89c37.34-1.6 72.42-5.27 104.99-10.26-11.63-12.47-22.63-25.72-33.53-39.05a46 46 0 0 1-3.28-4.1Z" class="cls-pan56"/><path d="M1122.44 1388.71V1591c0 30.42-16.41 59.2-44.61 78.18l-80.34 54.11-1 .67-80.06-54.79c-27.76-19-43.88-47.54-43.88-77.69V1388.7h249.9Z" class="cls-pan53"/><path d="m996.47 1727.92-81.89-56.05c-28.79-19.71-45.3-49.01-45.3-80.39v-206.05h256.44v205.56c0 31.7-16.79 61.19-46.05 80.9l-83.19 56.02Zm-120.66-335.94v199.51c0 29.19 15.47 56.52 42.46 74.99l78.23 53.54 79.5-53.54c27.43-18.47 43.17-45.98 43.17-75.47v-199.02H875.81Z"/><path d="M872.54 1388.71h124.95v159.04H872.54z" class="cls-pan53"/><path d="M997.49 1388.71h124.95v159.04H997.49z" class="cls-pan51"/><path d="M997.49 1541.47v181.83l-1 .67-80.06-54.79c-27.76-19-43.88-47.54-43.88-77.69v-50.02H997.5Z" class="cls-pan51"/><path d="M997.49 1541.47v181.83l1 .67 80.06-54.79c27.76-19 43.88-47.54 43.88-77.69v-50.02H997.48Z" class="cls-pan53"/><path d="m1035.32 1609.47-38.29 25.79-37.69-25.8c-13.07-8.95-20.66-22.38-20.66-36.58v-95.46h117.65v95.23c0 14.32-7.73 27.87-21 36.81Z"/><path d="m997.49 1498.93 13.96 28 31.2 4.49-22.58 21.8 5.33 30.78-27.91-14.53-27.9 14.53 5.33-30.78-22.58-21.8 31.2-4.49z" class="cls-pan55"/></svg>