<svg xmlns="http://www.w3.org/2000/svg" viewBox="0 0 2000 2000" width="300" height="300" fill="none"><defs><style>.cls-pan41{fill:#fff}.cls-pan42{fill:#cc7e17}.cls-pan43{fill:#e21d27}.cls-pan44{fill:#d8cece}.cls-pan45{fill:#e0911e}.cls-pan46{fill:#eae4e4}</style></defs><path d="M240.64 239.83h1520.35v761.3H240.64z" class="cls-pan43"/><path d="M240.64 1000h1520.35v760.17H240.64z" class="cls-pan46"/><path d="M445.02 414.98h1109.97v1109.97H445.02z" class="cls-pan41"/><path d="M1579.67 1085.43a1040 1040 0 0 0-35.05-12.99c-9.25-3.24-18.35-6.29-27.28-9.15 1.85 4.86 3.71 9.71 5.56 14.57-4.69 2.73-9.37 5.46-14.06 8.19 21.27 8.11 42.54 16.21 63.8 24.32 2.34-8.31 4.69-16.63 7.03-24.94m205.89 0c11.27-4.41 22.95-8.75 35.05-12.99 9.25-3.24 18.35-6.29 27.28-9.15-1.85 4.86-3.71 9.71-5.56 14.57 4.69 2.73 9.37 5.46 14.06 8.19-21.27 8.11-42.54 16.21-63.8 24.32-2.34-8.31-4.69-16.63-7.03-24.94" class="cls-pan44"/><path d="M1577.17 1073.47a77 77 0 0 0-6.19 12.13c-1.65 4.09-2.77 7.9-3.54 11.23 7.81 2.26 16.42 4.39 25.76 6.18 7.88 1.51 15.36 2.59 22.35 3.36 3.57-8.11 6.54-16.47 8.91-24.94-17.28-2.06-33.1-4.86-47.28-7.96Zm158.17 8.88c.53.76 1.11 1.47 1.69 2.12 5.63 6.88 11.31 13.72 17.31 20.16 7.63-1.02 15.89-2.44 24.65-4.41 9.12-2.06 17.48-4.43 25.04-6.89a71 71 0 0 0-7.56-11.22 71 71 0 0 0-7.82-8.13 502 502 0 0 1-53.32 8.39Z" class="cls-pan46"/><path d="M1666.61 826.8c-3.21.65-8.03 2.17-13.55 6.24a22 22 0 0 1-5.79-.94c-2.43-.73-4.33-1.76-5.66-2.62.07.97.32 2.49 1.24 4.02.29.49.61.9.91 1.25-1.29.34-3.42.7-5.94.16-1.08-.23-2-.58-2.74-.94 0 .82.14 2.69 1.37 4.52.66.98 1.42 1.63 1.98 2.03-1.19-.06-11.34-.35-18.27 8.11-6.05 7.38-5.2 15.99-5.03 17.46 13.57-11.67 21.15-13.01 25.61-11.86 1.27.33 5.05 1.57 10.48 1.88 3.54.21 6.46-.06 8.38-.31-2.15 2.08-5.93 5.19-11.42 7.17-8.52 3.08-15.97 1.58-19.03.78.1 1.26.47 3.58 2.12 5.32 6.45 6.82 24.69-3.51 28.03 1.69.42.66.87 1.97-.15 4.68 18.81.24 37.62.47 56.43.71-8.5-4.6-10.78-9.01-11.24-12.26-.66-4.72 2.42-7.89 1.78-14.8-.35-3.8-1.65-6.8-2.67-8.73 1.02-.62 2.1-1.39 3.2-2.34 3.3-2.85 5.26-6.06 6.4-8.42-3.04 3.35-6.87 4.69-9.53 3.4-.56-.27-1.33-.79-2.04-1.84.69-.61 1.49-1.45 2.2-2.59 1.7-2.7 1.9-5.42 1.91-6.77-.8 1.19-2.3 3.14-4.72 4.68-9.44 5.99-19.84-2.63-34.26.31Z" class="cls-pan45"/><path d="M1672.76 866.71c-2.71 2.5-6.95 5.79-12.86 8.21a43.2 43.2 0 0 1-9.02 2.6c2.41 1.49 4.83 2.98 7.24 4.47-1.44.69-3.71 1.56-6.61 1.87-3.27.35-5.93-.18-7.56-.62 2.73 1.77 5.46 3.53 8.19 5.3-1.43.47-4.17 1.16-7.56.62-2.37-.38-4.19-1.22-5.35-1.87l5.35 5.92c-2.78.38-5.57.75-8.35 1.13-2.66-4.9-7.35-12.52-14.95-20.15-21.59-21.68-42.63-19.33-56.93-33.26-9.05-8.81-17.61-26.29-11.07-64.96-12.35 12.1-29.19 32.18-38.41 60.8-21.38 66.4 5.75 155.62 61.07 173.99 10.17 3.38 26.04 5.94 48.17-.31-2.52 4.12-6.22 11.44-7.24 21.2-.62 5.89-.08 10.93.63 14.65-2.79 11.54-7.33 15.6-11.02 17.15-3.47 1.46-4.8.1-10.39 2.18-2.73 1.02-8.99 3.45-12.21 9.42-.63 1.17-1.02 2.58-1.8 5.39-2.23 8.07-3.35 12.1-2.36 14.81 2.97 8.16 21.09 9.44 22.35 6.55.81-1.85-5.55-4.77-4.72-8.73.44-2.09 2.4-2.15 6.93-5.92 5.07-4.23 5.88-6.87 7.87-6.55 2.7.44 2.47 5.89 5.74 6.69 1.8.44 4.26-.6 5.28-2.33 2.37-4.01-4.76-8.88-3.74-15.39.4-2.53 1.92-4.85 9.72-10.49 4.99-3.6 12.28-8.38 21.92-13.05a661 661 0 0 1-14.99 46.72 663 663 0 0 1-30.54 71.09c21.32-1.5 37.45-5.83 47.85-9.35 10.64-3.6 17.93-7.24 23.61-14.34 4.03-5.04 5.95-10.2 6.93-13.72a37.6 37.6 0 0 0 .94-14.65c-.1-80.45-.21-160.89-.31-241.34-3.94-1.25-7.87-2.49-11.81-3.74Z" class="cls-pan45"/><path d="M1663.08 855.08c-.94-2.36-6.51.14-16.14-3.49-6.3-2.37-7.18-4.66-10.84-5.26-4.4-.72-11.06 1.29-20.86 13.74-.42 3.02-.19 5.33-.11 6.02 13.57-11.67 21.15-13.01 25.61-11.86 1.27.33 5.05 1.57 10.48 1.88 3.54.21 6.46-.06 8.38-.31-2.15 2.08-5.93 5.19-11.42 7.17-8.52 3.08-15.97 1.58-19.03.78.09 1.06.36 2.87 1.43 4.45 3.07.94 7.94 1.93 13.61.91 11.03-1.99 20.21-10.76 18.9-14.04Zm42.01 2.76c.65-2.38 1.38-5.01 1.04-8.74-.16-1.72-.51-3.28-.95-4.65.06.53.14 1.07.29 1.58.87 4.02-2.08 8.05-.38 11.81m-49.18-20.44c6.44-.78 6.83-6.86 14.01-8.26 6.67-1.3 9.68 3.28 20.47 2.87 3-.12 5.45-.57 7.06-.94.01 0 .04.01.07.02 1 .33.76 2.16 1.37 3.2 1.14 1.96 5.23 1.12 5.35 1.87.13.82-4.73 1.88-4.63 2.79.06.53 1.75.81 3.7.97.06.05.13.09.2.15l.18.15c.95-.6 1.96-1.32 2.97-2.19 3.3-2.85 5.26-6.06 6.4-8.42-3.04 3.35-6.87 4.69-9.53 3.4-.56-.27-1.33-.79-2.04-1.84.69-.61 1.49-1.45 2.2-2.59 1.7-2.7 1.9-5.42 1.91-6.77-.8 1.19-2.3 3.14-4.72 4.68-9.44 5.99-19.84-2.63-34.26.31-3.21.65-8.03 2.17-13.55 6.24a22 22 0 0 1-5.79-.94c-2.43-.73-4.33-1.76-5.66-2.62.03.36.08.8.18 1.28 3.42 3.39 8.53 7.31 14.12 6.63Zm-28.72 70.47c-9.82-12.18-26.96-4.57-45.1-12.63-12.7-5.64-27.57-19.71-36.36-57.06-1.92 17.36-1.79 42.89 12.75 65.48 14.91 23.16 38.22 32.75 36.32 36.09-1.74 3.06-23.05-1.98-38.68-16.44-11.75-10.87-16.7-23.74-18.89-31.34 1.99 12.25 9.56 48.53 41.56 73.9 10.61 8.41 21.33 13.59 30.22 16.84-6.82.64-17.41.83-29.75-2.34a86.2 86.2 0 0 1-28.33-13.1c9.36 14.46 23.36 30.1 43.5 34.96 24.6 5.93 48.72-6.55 52.36.59 1.89 3.71-4.5 7.36-11.81 23.39-6.27 13.75-3.69 15.74-9.44 26.19-2.32 4.2-8.39 14.96-20.31 23.39-10.32 7.29-17.36 7.42-17.94 12.16-.88 7.13 14.13 14.64 14.8 13.88.45-.51-5.59-4.57-4.72-8.73.44-2.09 2.4-2.15 6.93-5.92 5.07-4.23 5.88-6.87 7.87-6.55 2.7.44 2.47 5.89 5.74 6.69 1.8.44 4.26-.6 5.28-2.33 2.37-4.01-4.76-8.88-3.74-15.39.81-5.1 6-8.15 9.72-10.49 22.64-14.24 25.89-27.53 31.48-25.57 10.26 3.6 12.05 52.86-13.67 81.61-9.61 10.74-20.35 15.59-19.39 17.23 1.3 2.23 22.82-3.8 37.46-20.27 5.91-6.64 9.34-13.3 11.33-18.08-1.69 8.28-6.35 25.21-20.46 41.16-18.85 21.3-42.37 27.09-50.37 28.69 21.32-1.5 37.45-5.83 47.85-9.35 10.64-3.6 17.93-7.24 23.61-14.34 4.03-5.04 5.95-10.2 6.93-13.72a37.6 37.6 0 0 0 .94-14.65c8.43-82.69-6.87-115.59-23.17-130.08-6.85-6.08-22.39-16.48-28.38-36.43-5.39-17.94 1.74-27.65-6.14-37.42Z" class="cls-pan42"/><path d="M1695.06 866.71c1.24 1.75 5.11 6.72 12.12 8.73 3.77 1.08 7.06.91 9.13.62l-6.61 5.92c1.44.69 3.71 1.56 6.61 1.87 3.27.35 5.93-.18 7.56-.62-2.73 1.77-5.46 3.53-8.19 5.3 1.43.47 4.17 1.16 7.56.62 2.37-.38 4.19-1.22 5.35-1.87l-5.35 5.92c2.78.38 5.57.75 8.35 1.13 2.66-4.9 7.35-12.52 14.95-20.15 21.59-21.68 42.63-19.33 56.93-33.26 9.05-8.81 17.61-26.29 11.07-64.96 12.35 12.1 29.19 32.18 38.41 60.8 21.38 66.4-5.75 155.62-61.07 173.99-10.17 3.38-26.04 5.94-48.17-.31 2.52 4.12 6.22 11.44 7.24 21.2.62 5.89.08 10.93-.63 14.65 2.79 11.54 7.33 15.6 11.02 17.15 3.47 1.46 4.8.1 10.39 2.18 2.73 1.02 8.99 3.45 12.21 9.42.63 1.17 1.02 2.58 1.8 5.39 2.23 8.07 3.35 12.1 2.36 14.81-2.97 8.16-21.09 9.44-22.35 6.55-.81-1.85 5.55-4.77 4.72-8.73-.44-2.09-2.4-2.15-6.93-5.92-5.07-4.23-5.88-6.87-7.87-6.55-2.7.44-2.47 5.89-5.74 6.69-1.8.44-4.26-.6-5.28-2.33-2.37-4.01 4.76-8.88 3.74-15.39-.4-2.53-1.92-4.85-9.72-10.49-4.99-3.6-12.28-8.38-21.92-13.05 4.17 14.87 9.11 30.49 14.99 46.72a663 663 0 0 0 30.54 71.09c-21.32-1.5-37.45-5.83-47.85-9.35-10.64-3.6-17.93-7.24-23.61-14.34-4.03-5.04-5.95-10.2-6.93-13.72a37.6 37.6 0 0 1-.94-14.65c.1-80.45.21-160.89.31-241.34 3.94-1.25 7.87-2.49 11.81-3.74Z" class="cls-pan45"/><path d="M1740.71 907.87c9.82-12.18 26.96-4.57 45.1-12.63 12.7-5.64 27.57-19.71 36.36-57.06 1.92 17.36 1.79 42.89-12.75 65.48-14.91 23.16-38.22 32.75-36.32 36.09 1.74 3.06 23.05-1.98 38.68-16.44 11.75-10.87 16.7-23.74 18.89-31.34-1.99 12.25-9.56 48.53-41.56 73.9-10.61 8.41-21.33 13.59-30.22 16.84 6.82.64 17.41.83 29.75-2.34a86.2 86.2 0 0 0 28.33-13.1c-9.36 14.46-23.36 30.1-43.5 34.96-24.6 5.93-48.72-6.55-52.36.59-1.89 3.71 4.5 7.36 11.81 23.39 6.27 13.75 3.69 15.74 9.44 26.19 2.32 4.2 8.39 14.96 20.31 23.39 10.32 7.29 17.36 7.42 17.94 12.16.88 7.13-14.13 14.64-14.8 13.88-.45-.51 5.59-4.57 4.72-8.73-.44-2.09-2.4-2.15-6.93-5.92-5.07-4.23-5.88-6.87-7.87-6.55-2.7.44-2.47 5.89-5.74 6.69-1.8.44-4.26-.6-5.28-2.33-2.37-4.01 4.76-8.88 3.74-15.39-.81-5.1-6-8.15-9.72-10.49-22.64-14.24-25.89-27.53-31.48-25.57-10.26 3.6-12.05 52.86 13.67 81.61 9.61 10.74 20.35 15.59 19.39 17.23-1.3 2.23-22.82-3.8-37.46-20.27-5.91-6.64-9.34-13.3-11.33-18.08 1.69 8.28 6.35 25.21 20.46 41.16 18.85 21.3 42.37 27.09 50.37 28.69-21.32-1.5-37.45-5.83-47.85-9.35-10.64-3.6-17.93-7.24-23.61-14.34-2.23-2.79-3.98-7.31-6.93-13.72-2.45-5.33-4.3-9.82-5.54-12.94-5.12-83.94 11.08-117.26 27.77-131.79 6.69-5.82 22.37-16.41 28.38-36.43 5.39-17.94-1.74-27.65 6.14-37.42Z" class="cls-pan42"/><path d="M1735.34 1082.35a502.5 502.5 0 0 1-110.88-.93c-2.37 8.47-5.34 16.83-8.91 24.94a500 500 0 0 0 84.6 3.56c19.27-.83 37.38-2.72 54.19-5.29-6-6.44-11.68-13.27-17.31-20.16-.58-.64-1.16-1.36-1.69-2.12" class="cls-pan46"/><path d="M1747.1 896.88v104.41c0 15.7-8.47 30.55-23.02 40.35l-41.46 27.93-.52.35-41.32-28.28c-14.33-9.81-22.65-24.54-22.65-40.1V896.88h128.98Z" class="cls-pan43"/><path d="m1682.08 1071.95-42.27-28.93c-14.86-10.17-23.38-25.29-23.38-41.49V895.19h132.35v106.09c0 16.36-8.66 31.58-23.77 41.75l-42.93 28.91Zm-62.27-173.38v102.97c0 15.06 7.99 29.17 21.91 38.7l40.38 27.63 41.03-27.64c14.16-9.53 22.28-23.73 22.28-38.95V898.56h-125.6Z"/><path d="M1618.12 896.88h64.49v82.08h-64.49z" class="cls-pan43"/><path d="M1682.61 896.88h64.49v82.08h-64.49zm0 78.84v93.85l-.52.35-41.32-28.28c-14.33-9.81-22.65-24.54-22.65-40.1v-25.82z" class="cls-pan41"/><path d="M1682.61 975.72v93.85l.52.35 41.32-28.28c14.33-9.81 22.65-24.54 22.65-40.1v-25.82z" class="cls-pan43"/><path d="m1702.13 1010.81-19.76 13.31-19.45-13.31c-6.75-4.62-10.66-11.55-10.66-18.88v-49.27h60.72v49.15c0 7.39-3.99 14.38-10.84 19Z"/><path d="m1682.61 953.76 7.2 14.46 16.11 2.32-11.66 11.25 2.76 15.88-14.41-7.5-14.4 7.5 2.75-15.88-11.65-11.25 16.1-2.32z" class="cls-pan45"/><path d="M211.86 1110.4a1040 1040 0 0 0-35.05-12.99c-9.25-3.24-18.35-6.29-27.28-9.15 1.85 4.86 3.71 9.71 5.56 14.57-4.69 2.73-9.37 5.46-14.06 8.19 21.27 8.11 42.54 16.21 63.8 24.32 2.34-8.31 4.69-16.63 7.03-24.94m205.89 0c11.27-4.41 22.95-8.75 35.05-12.99 9.25-3.24 18.35-6.29 27.28-9.15-1.85 4.86-3.71 9.71-5.56 14.57 4.69 2.73 9.37 5.46 14.06 8.19-21.27 8.11-42.54 16.21-63.8 24.32-2.34-8.31-4.69-16.63-7.03-24.94" class="cls-pan44"/><path d="M209.36 1098.44a77 77 0 0 0-6.19 12.13c-1.65 4.09-2.77 7.9-3.54 11.23 7.81 2.26 16.42 4.39 25.76 6.18 7.88 1.51 15.36 2.59 22.35 3.36 3.57-8.11 6.54-16.47 8.91-24.94-17.28-2.06-33.1-4.86-47.28-7.96Zm158.17 8.88c.53.76 1.11 1.47 1.69 2.12 5.63 6.88 11.31 13.72 17.31 20.16 7.63-1.02 15.89-2.44 24.65-4.41 9.12-2.06 17.48-4.43 25.04-6.89a71 71 0 0 0-7.56-11.22 71 71 0 0 0-7.82-8.13 502 502 0 0 1-53.32 8.39Z" class="cls-pan46"/><path d="M298.8 851.77c-3.21.65-8.03 2.17-13.55 6.24a22 22 0 0 1-5.79-.94c-2.43-.73-4.33-1.76-5.66-2.62.07.97.32 2.49 1.24 4.02.29.49.61.9.91 1.25-1.29.34-3.42.7-5.94.16-1.08-.23-2-.58-2.74-.94 0 .82.14 2.69 1.37 4.52.66.98 1.42 1.63 1.98 2.03-1.19-.06-11.34-.35-18.27 8.11-6.05 7.38-5.2 15.99-5.03 17.46 13.57-11.67 21.15-13.01 25.61-11.86 1.27.33 5.05 1.57 10.48 1.88 3.54.21 6.46-.06 8.38-.31-2.15 2.08-5.93 5.19-11.42 7.17-8.52 3.08-15.97 1.58-19.03.78.1 1.26.47 3.58 2.12 5.32 6.45 6.82 24.69-3.51 28.03 1.69.42.66.87 1.97-.15 4.68 18.81.24 37.62.47 56.43.71-8.5-4.6-10.78-9.01-11.24-12.26-.66-4.72 2.42-7.89 1.78-14.8-.35-3.8-1.65-6.8-2.67-8.73 1.02-.62 2.1-1.39 3.2-2.34 3.3-2.85 5.26-6.06 6.4-8.42-3.04 3.35-6.87 4.69-9.53 3.4-.56-.27-1.33-.79-2.04-1.84.69-.61 1.49-1.45 2.2-2.59 1.7-2.7 1.9-5.42 1.91-6.77-.8 1.19-2.3 3.14-4.72 4.68-9.44 5.99-19.84-2.63-34.26.31Z" class="cls-pan45"/><path d="M304.94 891.68c-2.71 2.5-6.95 5.79-12.86 8.21a43.2 43.2 0 0 1-9.02 2.6c2.41 1.49 4.83 2.98 7.24 4.47-1.44.69-3.71 1.56-6.61 1.87-3.27.35-5.93-.18-7.56-.62 2.73 1.77 5.46 3.53 8.19 5.3-1.43.47-4.17 1.16-7.56.62-2.37-.38-4.19-1.22-5.35-1.87l5.35 5.92c-2.78.38-5.57.75-8.35 1.13-2.66-4.9-7.35-12.52-14.95-20.15-21.59-21.68-42.63-19.33-56.93-33.26-9.05-8.81-17.61-26.29-11.07-64.96-12.35 12.1-29.19 32.18-38.41 60.8-21.38 66.4 5.75 155.62 61.07 173.99 10.17 3.38 26.04 5.94 48.17-.31-2.52 4.12-6.22 11.44-7.24 21.2-.62 5.89-.08 10.93.63 14.65-2.79 11.54-7.33 15.6-11.02 17.15-3.47 1.46-4.8.1-10.39 2.18-2.73 1.02-8.99 3.45-12.21 9.42-.63 1.17-1.02 2.58-1.8 5.39-2.23 8.07-3.35 12.1-2.36 14.81 2.97 8.16 21.09 9.44 22.35 6.55.81-1.85-5.55-4.77-4.72-8.73.44-2.09 2.4-2.15 6.93-5.92 5.07-4.23 5.88-6.87 7.87-6.55 2.7.44 2.47 5.89 5.74 6.69 1.8.44 4.26-.6 5.28-2.33 2.37-4.01-4.76-8.88-3.74-15.39.4-2.53 1.92-4.85 9.72-10.49 4.99-3.6 12.28-8.38 21.92-13.05a661 661 0 0 1-14.99 46.72 663 663 0 0 1-30.54 71.09c21.32-1.5 37.45-5.83 47.85-9.35 10.64-3.6 17.93-7.24 23.61-14.34 4.03-5.04 5.95-10.2 6.93-13.72a37.6 37.6 0 0 0 .94-14.65c-.1-80.45-.21-160.89-.31-241.34-3.94-1.25-7.87-2.49-11.81-3.74Z" class="cls-pan45"/><path d="M295.27 880.05c-.94-2.36-6.51.14-16.14-3.49-6.3-2.37-7.18-4.66-10.84-5.26-4.4-.72-11.06 1.29-20.86 13.74-.42 3.02-.19 5.33-.11 6.02 13.57-11.67 21.15-13.01 25.61-11.86 1.27.33 5.05 1.57 10.48 1.88 3.54.21 6.46-.06 8.38-.31-2.15 2.08-5.93 5.19-11.42 7.17-8.52 3.08-15.97 1.58-19.03.78.09 1.06.36 2.87 1.43 4.45 3.07.94 7.94 1.93 13.61.91 11.03-1.99 20.21-10.76 18.9-14.04Zm42.01 2.75c.65-2.38 1.38-5.01 1.04-8.74-.16-1.72-.51-3.28-.95-4.65.06.53.14 1.07.29 1.58.87 4.02-2.08 8.05-.38 11.81m-49.18-20.43c6.44-.78 6.83-6.86 14.01-8.26 6.67-1.3 9.68 3.28 20.47 2.87 3-.12 5.45-.57 7.06-.94.01 0 .04.01.07.02 1 .33.76 2.16 1.37 3.2 1.14 1.96 5.23 1.12 5.35 1.87.13.82-4.73 1.88-4.63 2.79.06.53 1.75.81 3.7.97.06.05.13.09.2.15l.18.15c.95-.6 1.96-1.32 2.97-2.19 3.3-2.85 5.26-6.06 6.4-8.42-3.04 3.35-6.87 4.69-9.53 3.4-.56-.27-1.33-.79-2.04-1.84.69-.61 1.49-1.45 2.2-2.59 1.7-2.7 1.9-5.42 1.91-6.77-.8 1.19-2.3 3.14-4.72 4.68-9.44 5.99-19.84-2.63-34.26.31-3.21.65-8.03 2.17-13.55 6.24a22 22 0 0 1-5.79-.94c-2.43-.73-4.33-1.76-5.66-2.62.03.36.08.8.18 1.28 3.42 3.39 8.53 7.31 14.12 6.63Zm-28.73 70.47c-9.82-12.18-26.96-4.57-45.1-12.63-12.7-5.64-27.57-19.71-36.36-57.06-1.92 17.36-1.79 42.89 12.75 65.48 14.91 23.16 38.22 32.75 36.32 36.09-1.74 3.06-23.05-1.98-38.68-16.44-11.75-10.87-16.7-23.74-18.89-31.34 1.99 12.25 9.56 48.53 41.56 73.9 10.61 8.41 21.33 13.59 30.22 16.84-6.82.64-17.41.83-29.75-2.34a86.2 86.2 0 0 1-28.33-13.1c9.36 14.46 23.36 30.1 43.5 34.96 24.6 5.93 48.72-6.55 52.36.59 1.89 3.71-4.5 7.36-11.81 23.39-6.27 13.75-3.69 15.74-9.44 26.19-2.32 4.2-8.39 14.96-20.31 23.39-10.32 7.29-17.36 7.42-17.94 12.16-.88 7.13 14.13 14.64 14.8 13.88.45-.51-5.59-4.57-4.72-8.73.44-2.09 2.4-2.15 6.93-5.92 5.07-4.23 5.88-6.87 7.87-6.55 2.7.44 2.47 5.89 5.74 6.69 1.8.44 4.26-.6 5.28-2.33 2.37-4.01-4.76-8.88-3.74-15.39.81-5.1 6-8.15 9.72-10.49 22.64-14.24 25.89-27.53 31.48-25.57 10.26 3.6 12.05 52.86-13.67 81.61-9.61 10.74-20.35 15.59-19.39 17.23 1.3 2.23 22.82-3.8 37.46-20.27 5.91-6.64 9.34-13.3 11.33-18.08-1.69 8.28-6.35 25.21-20.46 41.16-18.85 21.3-42.37 27.09-50.37 28.69 21.32-1.5 37.45-5.83 47.85-9.35 10.64-3.6 17.93-7.24 23.61-14.34 4.03-5.04 5.95-10.2 6.93-13.72a37.6 37.6 0 0 0 .94-14.65c8.43-82.69-6.87-115.59-23.17-130.08-6.85-6.08-22.39-16.48-28.38-36.43-5.39-17.94 1.74-27.65-6.14-37.42Z" class="cls-pan42"/><path d="M327.24 891.68c1.24 1.75 5.11 6.72 12.12 8.73 3.77 1.08 7.06.91 9.13.62l-6.61 5.92c1.44.69 3.71 1.56 6.61 1.87 3.27.35 5.93-.18 7.56-.62-2.73 1.77-5.46 3.53-8.19 5.3 1.43.47 4.17 1.16 7.56.62 2.37-.38 4.19-1.22 5.35-1.87l-5.35 5.92c2.78.38 5.57.75 8.35 1.13 2.66-4.9 7.35-12.52 14.95-20.15 21.59-21.68 42.63-19.33 56.93-33.26 9.05-8.81 17.61-26.29 11.07-64.96 12.35 12.1 29.19 32.18 38.41 60.8 21.38 66.4-5.75 155.62-61.07 173.99-10.17 3.38-26.04 5.94-48.17-.31 2.52 4.12 6.22 11.44 7.24 21.2.62 5.89.08 10.93-.63 14.65 2.79 11.54 7.33 15.6 11.02 17.15 3.47 1.46 4.8.1 10.39 2.18 2.73 1.02 8.99 3.45 12.21 9.42.63 1.17 1.02 2.58 1.8 5.39 2.23 8.07 3.35 12.1 2.36 14.81-2.97 8.16-21.09 9.44-22.35 6.55-.81-1.85 5.55-4.77 4.72-8.73-.44-2.09-2.4-2.15-6.93-5.92-5.07-4.23-5.88-6.87-7.87-6.55-2.7.44-2.47 5.89-5.74 6.69-1.8.44-4.26-.6-5.28-2.33-2.37-4.01 4.76-8.88 3.74-15.39-.4-2.53-1.92-4.85-9.72-10.49-4.99-3.6-12.28-8.38-21.92-13.05 4.17 14.87 9.11 30.49 14.99 46.72a663 663 0 0 0 30.54 71.09c-21.32-1.5-37.45-5.83-47.85-9.35-10.64-3.6-17.93-7.24-23.61-14.34-4.03-5.04-5.95-10.2-6.93-13.72a37.6 37.6 0 0 1-.94-14.65c.1-80.45.21-160.89.31-241.34 3.94-1.25 7.87-2.49 11.81-3.74Z" class="cls-pan45"/><path d="M372.9 932.84c9.82-12.18 26.96-4.57 45.1-12.63 12.7-5.64 27.57-19.71 36.36-57.06 1.92 17.36 1.79 42.89-12.75 65.48-14.91 23.16-38.22 32.75-36.32 36.09 1.74 3.06 23.05-1.98 38.68-16.44 11.75-10.87 16.7-23.74 18.89-31.34-1.99 12.25-9.56 48.53-41.56 73.9-10.61 8.41-21.33 13.59-30.22 16.84 6.82.64 17.41.83 29.75-2.34a86.2 86.2 0 0 0 28.33-13.1c-9.36 14.46-23.36 30.1-43.5 34.96-24.6 5.93-48.72-6.55-52.36.59-1.89 3.71 4.5 7.36 11.81 23.39 6.27 13.75 3.69 15.74 9.44 26.19 2.32 4.2 8.39 14.96 20.31 23.39 10.32 7.29 17.36 7.42 17.94 12.16.88 7.13-14.13 14.64-14.8 13.88-.45-.51 5.59-4.57 4.72-8.73-.44-2.09-2.4-2.15-6.93-5.92-5.07-4.23-5.88-6.87-7.87-6.55-2.7.44-2.47 5.89-5.74 6.69-1.8.44-4.26-.6-5.28-2.33-2.37-4.01 4.76-8.88 3.74-15.39-.81-5.1-6-8.15-9.72-10.49-22.64-14.24-25.89-27.53-31.48-25.57-10.26 3.6-12.05 52.86 13.67 81.61 9.61 10.74 20.35 15.59 19.39 17.23-1.3 2.23-22.82-3.8-37.46-20.27-5.91-6.64-9.34-13.3-11.33-18.08 1.69 8.28 6.35 25.21 20.46 41.16 18.85 21.3 42.37 27.09 50.37 28.69-21.32-1.5-37.45-5.83-47.85-9.35-10.64-3.6-17.93-7.24-23.61-14.34-2.23-2.79-3.98-7.31-6.93-13.72-2.45-5.33-4.3-9.82-5.54-12.94-5.12-83.94 11.08-117.26 27.77-131.79 6.69-5.82 22.37-16.41 28.38-36.43 5.39-17.94-1.74-27.65 6.14-37.42Z" class="cls-pan42"/><path d="M367.53 1107.32a502.5 502.5 0 0 1-110.88-.93c-2.37 8.47-5.34 16.83-8.91 24.94a500 500 0 0 0 84.6 3.56c19.27-.83 37.38-2.72 54.19-5.29-6-6.44-11.68-13.27-17.31-20.16-.58-.64-1.16-1.36-1.69-2.12" class="cls-pan46"/><path d="M379.29 921.85v104.41c0 15.7-8.47 30.55-23.02 40.35l-41.46 27.93-.52.35-41.32-28.28c-14.33-9.81-22.65-24.54-22.65-40.1V921.85H379.3Z" class="cls-pan43"/><path d="M314.27 1096.92 272 1067.99c-14.86-10.17-23.38-25.29-23.38-41.49V920.16h132.35v106.09c0 16.36-8.66 31.58-23.77 41.75l-42.93 28.91ZM252 923.54v102.97c0 15.06 7.99 29.17 21.91 38.7l40.38 27.63 41.03-27.63c14.16-9.54 22.28-23.73 22.28-38.95V923.54z"/><path d="M250.31 921.85h64.49v82.08h-64.49z" class="cls-pan43"/><path d="M314.8 921.85h64.49v82.08H314.8zm0 78.84v93.85l-.52.35-41.32-28.28c-14.33-9.81-22.65-24.54-22.65-40.1v-25.82z" class="cls-pan41"/><path d="M314.8 1000.69v93.85l.52.35 41.32-28.28c14.33-9.81 22.65-24.54 22.65-40.1v-25.82z" class="cls-pan43"/><path d="m334.32 1035.78-19.76 13.31-19.45-13.31c-6.75-4.62-10.66-11.55-10.66-18.88v-49.27h60.72v49.15c0 7.39-3.99 14.38-10.84 19Z"/><path d="m314.8 978.73 7.2 14.46 16.11 2.31-11.66 11.25 2.75 15.89-14.4-7.5-14.4 7.5 2.75-15.89-11.65-11.25 16.1-2.31z" class="cls-pan45"/></svg>