<svg xmlns="http://www.w3.org/2000/svg" viewBox="0 0 2000 2000" width="300" height="300" fill="none"><defs><style>.cls-ind21{fill:#b70f20}.cls-ind22{fill:#e21d27}.cls-ind23{fill:#ddd3d3}.cls-ind24{fill:#eae4e4}.cls-ind25{fill:#ce1729}.cls-ind26{fill:#e57a55}.cls-ind28{fill:#c4583b}.cls-ind29{fill:#ef886c}</style></defs><rect width="1291.96" height="1291.96" x="354.02" y="319.82" rx="95.52" ry="95.52" style="fill:none;stroke:#bc0416;stroke-miterlimit:10;stroke-width:25.63px"/><path d="M1578.72 1181.9c16.42 2.95 32.01 4.43 49.01 3.71 24.89-1.35 48.97-3.03 74.63-9.65 37.79-9.38 72.76-16.59 109.62-14.61 26.78 1.27 50.68 9.18 72.93 20.78l57.06-136.41c-16.73-8.4-46.76-21.34-87.72-26.64-94.34-12.2-150.54 28.56-238.25 12.91-22.15-3.95-56.5-13.32-94.5-39.61-17.14 40.97-34.27 81.94-51.41 122.91 30.22 31.45 63.75 59.11 108.63 66.61" class="cls-ind22"/><path d="M1564.24 1016.29c-13.33-5.81-27.76-13.54-42.75-23.92-17.14 40.97-34.27 81.94-51.41 122.91 1.47 3.37 7.89 16.99 22.29 21.63 3.71 1.19 7.2 1.55 10.15 1.52 4.9-12.77 10.42-25.98 16.63-39.52a678 678 0 0 1 45.09-82.62" class="cls-ind25"/><path d="M1837.05 1156.83c-86.43-16.86-140.41 16.93-206.71 19.02-39.65 1.25-95.34-8.46-160.26-60.56l-56.28 134.55c28.74 32.68 56.85 45.59 74.91 51.5 98.44 32.21 183.65-50.23 297.94-18.19 22.26 6.24 38.73 14.89 47.62 20.03 18.22-43.55 36.44-87.11 54.65-130.66a268 268 0 0 0-51.87-15.69" class="cls-ind24"/><path d="M1769.46 1191.29c-70.22-21.21-156.59 117.45-232.48 87.63-16.64-6.54-27.28-19.04-31.06-23.95-33.23-43.08-6.99-107.96-3.39-116.53-3.03-1.9-6.1-3.89-9.2-5.98a335 335 0 0 1-23.25-17.17l-56.28 134.55c28.74 32.68 56.85 45.59 74.91 51.5 98.44 32.21 183.65-50.23 297.94-18.19 22.26 6.24 38.73 14.89 47.62 20.03-15.92-78.96-41.67-104.9-64.81-111.89" class="cls-ind23"/><rect width="22.09" height="825.1" x="1376.7" y="886.18" class="cls-ind21" rx="11.05" ry="11.05" transform="rotate(22.7 1387.715 1298.67)"/><path d="M1451.5 1598.58c-7.92-7.77-15.88-15.68-23.86-23.76q-7.26-7.335-14.34-14.64s-4.18-4.19-12.45-13.34c-11.2-12.39-13.95-16.55-15.95-20.9-2.98-6.48-2.72-9.95-4.22-16.76-4.36-19.86-16.21-33.57-23.28-42.08-4.5-5.42-11.06-12.42-20.09-19.45-.47 1.13-.95 2.26-1.42 3.39-5.74-4.96-9.5-6.25-11.92-6.48-.75-.07-2.98-.19-4.97-1.71-1.21-.92-1.91-2.05-2.31-2.83.51-1.34 1.02-2.67 1.52-4.01-5.3-5.17-18.29-16.81-29.64-16-.96.07-1.8.2-2.39.34-8.2 1.97-17.1 10.25-16.49 18.28.26 3.44 2.21 6.17 3.99 8.03-1.36-.31-4.63-.86-8.1.65-5.24 2.27-6.95 7.47-7.45 8.99-2.85 8.66 3.05 16.5 3.71 17.34-9.33 6.2-13.04 16.25-10.01 23.36 1.9 4.44 5.99 6.72 8.14 7.69-2.75 3.9-7.12 11.45-5.65 19.94.19 1.11.46 1.9.61 2.37 2.76 8.7 10.97 15.11 17.29 18.98.82-1.97 1.64-3.93 2.47-5.9 3.42 1.3 6.9 2.67 10.43 4.12 3.09 1.26 6.11 2.54 9.06 3.82-1.56 4.63-3.11 9.26-4.67 13.89 12.58 13.75 22.91 17.18 30.17 17.67 5.02.33 10.9-.52 15.59 3.52 2.12 1.83 2.79 3.86 8.6 11.48 1.34 1.75 2.46 3.17 3.2 4.1 34.81-.04 69.62-.07 104.43-.11Z" class="cls-ind26"/><path d="M1268.66 1537.22c9.5 3.54 19.47 8.02 29.68 8.01 3.89-.21 5.18-1.62 6.46-5.19 1.73-5.23-3.35-9.32-7.11-12.24-4.15-3.09-8.56-5.75-13.04-8.44-7.2-4.26-14.38-8.6-21.43-13.29 7.68 3.38 15.25 7.06 22.76 10.9 3.77 1.9 7.44 4 11.06 6.29 3.55 2.36 7.16 4.89 9.84 8.84l.85 1.61.6 1.78c.55 2.43.09 5.01-.97 7.25-5.28 13.2-30.68-.64-38.7-5.52m-4.6-62.79c16.03 6.9 31.49 15.55 44.87 26.83 3.47 3.33 9.25 8.08 9.16 13.35-.48 2.88-1.7 5.67-3.68 7.82l-.06.06s-.04.05 0 0c.09-.11.15-.3.13-.44l-.2.51c-2.21 1.98-4.87 3.16-7.62 4.07 2.38-1.39 4.8-2.99 6.58-5.06l-.2.51c0-.22.12-.44.26-.6 1.33-1.94 2.1-4.25 2.37-6.58.08-.5.02-.79-.08-1.28-.89-2.58-3.32-4.84-5.32-6.79-2.27-2.09-4.7-4.04-7.15-5.93-12.46-9.41-26.13-17.68-39.05-26.47Zm48.05 29.24c4.72-3.22 7.9-7.26 10.24-12.45 1.83 6.09-3.88 13.13-10.24 12.45" class="cls-ind28"/><path d="M1351.91 1466.97c-10.01-11.68-23.59-23.95-39.94-23.01-3.69.17-6.8 2.22-10.24 3.39-6.76 2.63-14.37 5.03-21.32 7.2-3.75 1.44-9.7 2.23-10.63 6.64-.76 4.16 2.08 8.76 5.16 11.54 1.62 1.58 3.62 2.34 5.86 2.82 4.59 1.01 9.57 1.16 14.42 1.04 2.44-.08 4.87-.29 7.32-.56 5.04-.54 11.18-1.86 15.63 1.6 3.32 2.49 4.81 6.52 6.14 10.25 1.29 3.6 2.21 7.35 2.71 11.14 1.9 11.7-1.61 23.84 2.72 35.05 2.89 7.54 8.83 13.47 15.38 18.01-7-4.07-13.34-9.93-16.69-17.46-2.93-6.39-3.19-13.68-3.17-20.5.18-9.85-1.05-19.61-5.13-28.58-1-2.18-2.14-4.16-3.85-5.34-3.96-2.76-8.8-1.18-13.36-.81-8.25.85-23.96 2.05-30.29-4.09-3.98-3.72-7.2-9.17-6.15-14.82 1.11-6.02 8.17-7.46 13-8.99l7.16-2.13c4.75-1.45 9.49-2.92 14.14-4.58 2.41-.83 4.59-1.78 7.06-2.61 2.59-.81 5.24-.75 7.87-.55 15.46 1.68 27.4 13.43 36.2 25.34Z" class="cls-ind28"/><path d="M1299.39 1426.97c8.16 3.23 15.36 9.14 20.08 16.55a637 637 0 0 1-20.08-16.55m-25.72 19.69c3.76.8 7.12 3.06 9.26 6.25-3.76-.79-7.11-3.07-9.26-6.25" class="cls-ind28"/><path d="M1302.66 1538.58c.06 2.07-1.37 4.23-3.33 5.01-2.25.89-4.37-.35-6.47-1.58-2.09-1.23-4.59-2.69-4.84-5.37-.18-1.94.86-4.18 2.68-5.1 2.16-1.09 4.49.15 6.58 1.26 2.18 1.16 5.29 2.82 5.38 5.79Zm8.73-23.74c.08 2.53-1.67 5.16-4.06 6.11-2.74 1.09-5.33-.42-7.9-1.93-2.55-1.5-5.6-3.28-5.9-6.56-.22-2.37 1.05-5.1 3.27-6.23 2.64-1.33 5.48.18 8.03 1.54 2.66 1.42 6.46 3.44 6.57 7.07Zm5.7-23.18c-.17 2.53-2.15 4.98-4.63 5.7-2.84.83-5.27-.93-7.68-2.67-2.4-1.73-5.27-3.8-5.25-7.09 0-2.38 1.53-4.98 3.85-5.89 2.75-1.08 5.43.7 7.84 2.29 2.51 1.66 6.1 4.04 5.87 7.66m-18.7-37.37c2.27 1.82 2.19 5.03-.18 7.46-2.72 2.79-7.45 3.53-12.17 4.26-4.68.73-10.26 1.6-13.46-.61-2.32-1.6-2.97-4.54-.97-6.98 2.37-2.89 7.44-3.81 11.99-4.64 4.75-.86 11.54-2.1 14.79.51" class="cls-ind29"/><path d="M421.28 1181.9c-16.42 2.95-32.01 4.43-49.01 3.71-24.89-1.35-48.97-3.03-74.63-9.65-37.79-9.38-72.76-16.59-109.62-14.61-26.78 1.27-50.68 9.18-72.93 20.78l-57.06-136.41c16.73-8.4 46.76-21.34 87.72-26.64 94.34-12.2 150.54 28.56 238.25 12.91 22.15-3.95 56.5-13.32 94.5-39.61 17.14 40.97 34.27 81.94 51.41 122.91-30.22 31.45-63.75 59.11-108.63 66.61" class="cls-ind22"/><path d="M435.76 1016.29c13.33-5.81 27.76-13.54 42.75-23.92 17.14 40.97 34.27 81.94 51.41 122.91-1.47 3.37-7.89 16.99-22.29 21.63-3.71 1.19-7.2 1.55-10.15 1.52a674 674 0 0 0-16.63-39.52 678 678 0 0 0-45.09-82.62" class="cls-ind25"/><path d="M162.95 1156.83c86.43-16.86 140.41 16.93 206.71 19.02 39.65 1.25 95.34-8.46 160.26-60.56l56.28 134.55c-28.74 32.68-56.85 45.59-74.91 51.5-98.44 32.21-183.65-50.23-297.94-18.19-22.26 6.24-38.73 14.89-47.62 20.03-18.22-43.55-36.44-87.11-54.65-130.66a268 268 0 0 1 51.87-15.69" class="cls-ind24"/><path d="M230.54 1191.29c70.22-21.21 156.59 117.45 232.48 87.63 16.64-6.54 27.28-19.04 31.06-23.95 33.23-43.08 6.99-107.96 3.39-116.53 3.03-1.9 6.1-3.89 9.2-5.98 8.42-5.67 16.16-11.45 23.25-17.17l56.28 134.55c-28.74 32.68-56.85 45.59-74.91 51.5-98.44 32.21-183.65-50.23-297.94-18.19-22.26 6.24-38.73 14.89-47.62 20.03 15.92-78.96 41.67-104.9 64.81-111.89" class="cls-ind23"/><rect width="22.09" height="825.1" x="601.21" y="886.18" class="cls-ind21" rx="11.05" ry="11.05" transform="rotate(157.3 612.243 1298.735)"/><path d="M548.5 1598.58c7.92-7.77 15.88-15.68 23.86-23.76q7.26-7.335 14.34-14.64s4.18-4.19 12.45-13.34c11.2-12.39 13.95-16.55 15.95-20.9 2.98-6.48 2.72-9.95 4.22-16.76 4.36-19.86 16.21-33.57 23.28-42.08 4.5-5.42 11.06-12.42 20.09-19.45.47 1.13.95 2.26 1.42 3.39 5.74-4.96 9.5-6.25 11.92-6.48.75-.07 2.98-.19 4.97-1.71 1.21-.92 1.91-2.05 2.31-2.83-.51-1.34-1.02-2.67-1.52-4.01 5.3-5.17 18.29-16.81 29.64-16 .96.07 1.8.2 2.39.34 8.2 1.97 17.1 10.25 16.49 18.28-.26 3.44-2.21 6.17-3.99 8.03 1.36-.31 4.63-.86 8.1.65 5.24 2.27 6.95 7.47 7.45 8.99 2.85 8.66-3.05 16.5-3.71 17.34 9.33 6.2 13.04 16.25 10.01 23.36-1.9 4.44-5.99 6.72-8.14 7.69 2.75 3.9 7.12 11.45 5.65 19.94-.19 1.11-.46 1.9-.61 2.37-2.76 8.7-10.97 15.11-17.29 18.98-.82-1.97-1.64-3.93-2.47-5.9-3.42 1.3-6.9 2.67-10.43 4.12-3.09 1.26-6.11 2.54-9.06 3.82 1.56 4.63 3.11 9.26 4.67 13.89-12.58 13.75-22.91 17.18-30.17 17.67-5.02.33-10.9-.52-15.59 3.52-2.12 1.83-2.79 3.86-8.6 11.48a280 280 0 0 1-3.2 4.1c-34.81-.04-69.62-.07-104.43-.11Z" class="cls-ind26"/><path d="M731.34 1537.22c-8.01 4.87-33.4 18.73-38.71 5.52-.76-1.64-1.26-3.54-1.22-5.35.06-.63.16-1.27.25-1.9l.6-1.78c2.29-4.73 6.77-7.83 10.69-10.45 3.62-2.29 7.29-4.39 11.06-6.29 7.51-3.84 15.08-7.53 22.76-10.9-7.05 4.69-14.22 9.03-21.43 13.29-4.48 2.69-8.89 5.35-13.04 8.44-3.76 2.92-8.83 7.01-7.11 12.24 1.29 3.56 2.57 4.97 6.46 5.19 10.22 0 20.18-4.47 29.68-8.01Zm4.6-62.79c-12.92 8.79-26.59 17.06-39.05 26.47-2.45 1.89-4.88 3.84-7.15 5.93-2 1.95-4.43 4.22-5.32 6.79-.11.49-.16.78-.08 1.28.27 2.33 1.04 4.64 2.37 6.58.14.16.27.39.26.6l-.2-.51c1.77 2.07 4.19 3.67 6.58 5.06-2.75-.91-5.41-2.09-7.62-4.07l-.2-.51c-.02.14.04.33.13.44.04.05 0 0 0 0l-.06-.06c-1.98-2.15-3.2-4.94-3.68-7.82-.09-5.26 5.69-10.01 9.16-13.35 13.38-11.29 28.83-19.93 44.87-26.83Zm-48.05 29.24c-6.36.69-12.07-6.36-10.24-12.45 2.34 5.19 5.52 9.23 10.24 12.45" class="cls-ind28"/><path d="M648.09 1466.97c9.44-12.81 23.05-25.88 40.09-25.43 3.87.04 7.45 2.09 11.04 3.25 4.65 1.66 9.4 3.12 14.14 4.58l7.16 2.13c4.84 1.52 11.9 2.98 13 8.99 1.05 5.65-2.17 11.1-6.15 14.82-6.33 6.14-22.03 4.94-30.29 4.09-4.56-.36-9.4-1.94-13.36.81-1.71 1.18-2.84 3.16-3.85 5.34-4.08 8.97-5.31 18.73-5.13 28.58.02 6.81-.24 14.12-3.17 20.5-3.35 7.53-9.69 13.39-16.69 17.46 6.55-4.54 12.49-10.47 15.38-18.01 4.33-11.21.82-23.35 2.72-35.05.5-3.8 1.43-7.54 2.71-11.14 1.33-3.73 2.81-7.76 6.14-10.25 4.46-3.46 10.6-2.13 15.63-1.6 2.45.27 4.88.49 7.32.56 4.85.12 9.83-.03 14.42-1.04 1.65-.39 3.21-.83 4.55-1.77 3.76-2.78 7.26-7.85 6.46-12.6-.91-4.41-6.9-5.21-10.63-6.64-6.97-2.16-14.55-4.56-21.32-7.2-3.44-1.17-6.55-3.22-10.24-3.39-16.35-.93-29.93 11.34-39.94 23.01Z" class="cls-ind28"/><path d="M700.61 1426.97a637 637 0 0 1-20.08 16.55c4.72-7.41 11.91-13.32 20.08-16.55m25.72 19.69c-2.15 3.18-5.5 5.46-9.26 6.25 2.14-3.19 5.51-5.45 9.26-6.25" class="cls-ind28"/><path d="M697.34 1538.58c-.06 2.07 1.37 4.23 3.33 5.01 2.25.89 4.37-.35 6.47-1.58 2.09-1.23 4.59-2.69 4.84-5.37.18-1.94-.86-4.18-2.68-5.1-2.16-1.09-4.49.15-6.58 1.26-2.18 1.16-5.29 2.82-5.38 5.79Zm-8.73-23.74c-.08 2.53 1.67 5.16 4.06 6.11 2.74 1.09 5.33-.42 7.9-1.93 2.55-1.5 5.6-3.28 5.9-6.56.22-2.37-1.05-5.1-3.27-6.23-2.64-1.33-5.48.18-8.03 1.54-2.66 1.42-6.46 3.44-6.57 7.07Zm-5.7-23.18c.17 2.53 2.15 4.98 4.63 5.7 2.84.83 5.27-.93 7.68-2.67 2.4-1.73 5.27-3.8 5.25-7.09 0-2.38-1.53-4.98-3.85-5.89-2.75-1.08-5.43.7-7.84 2.29-2.51 1.66-6.1 4.04-5.87 7.66m18.7-37.37c-2.27 1.82-2.19 5.03.18 7.46 2.72 2.79 7.45 3.53 12.17 4.26 4.68.73 10.26 1.6 13.46-.61 2.32-1.6 2.97-4.54.97-6.98-2.37-2.89-7.44-3.81-11.99-4.64-4.75-.86-11.54-2.1-14.79.51" class="cls-ind29"/></svg>