<svg xmlns="http://www.w3.org/2000/svg" viewBox="0 0 2000 2000" width="300" height="300" fill="none"><defs><style>.clsw2-1{fill:#f7efe5}.clsw2-2{fill:#f4d7ed}.clsw2-3{fill:#c3acd0}.clsw2-4{fill:#7c5aa0}.clsw2-5{fill:#d39fc4}</style></defs><path class="clsw2-4" d="M1406.78 1707.29c-7.02 12.12 22.54 54.55 61.45 62.74 23.12 4.87 41.82-3.98 70.91-17.74 22.97-10.86 54.1-25.59 52.51-40.69-1.67-15.85-39.05-29-70.22-28.64-35.89.42-44.34 18.54-93.05 20.3-12.2.44-19.01-.43-21.59 4.02Zm51.65-42.23c-13.16 4.7-49.38-32.18-50.3-72.03-.55-23.68 11.55-40.49 30.35-66.65 14.85-20.65 34.98-48.65 49.5-44.32 15.23 4.54 21.31 43.79 15.25 74.45-6.97 35.3-26.29 40.32-36.91 88.01-2.66 11.94-3.05 18.82-7.89 20.55Zm109.67-120.48c-1.99 10.95 31.56 37.11 62.91 34.69 18.62-1.44 30.25-12.49 48.33-29.67 14.28-13.57 33.63-31.96 28.37-43.28-5.52-11.88-37.05-13.64-60.3-6.34-26.76 8.4-28.22 24.32-64.22 36.63-9.02 3.08-14.36 3.94-15.09 7.97m35.68-74.7c-7.74 8-48.61-3.93-64.93-30.76-9.7-15.94-7.49-31.81-4.07-56.5 2.71-19.49 6.37-45.92 18.65-48.26 12.88-2.46 32.72 22.08 40.35 45.18 8.78 26.6-3.31 37.07 7.68 73.44 2.75 9.11 5.17 13.94 2.32 16.88Zm31.37-84.2c.78 8.7 32.06 23.23 55.62 16.23 14-4.15 20.59-14.51 30.85-30.63 8.1-12.72 19.08-29.97 12.66-37.77-6.74-8.18-31.33-4.36-47.64 5.03-18.78 10.82-16.54 23.23-41.59 38.56-6.27 3.84-10.19 5.37-9.91 8.57Zm23.38-103.43c-8.23 2.94-34.53-19.37-38.04-43.68-2.09-14.44 4.56-24.77 14.9-40.83 8.17-12.68 19.23-29.87 29.01-27.31 10.26 2.69 17.09 26.6 15.38 45.34-1.96 21.57-14.18 24.74-17.61 53.89-.86 7.3-.61 11.5-3.64 12.58Z"/><path class="clsw2-4" d="M1295.57 1769.38c-.99 0-1.92-.59-2.32-1.56a2.5 2.5 0 0 1 1.37-3.26c66.71-27.22 163.05-81.47 243.18-185.34 93.48-121.17 114.24-246.3 118.3-310.11a2.5 2.5 0 0 1 2.65-2.34 2.51 2.51 0 0 1 2.34 2.65c-4.09 64.38-25.04 190.62-119.33 312.85-38.97 50.51-85.79 94.32-139.17 130.21-33.7 22.66-69.39 41.74-106.08 56.71-.31.13-.63.19-.94.19m-743.08-73.47c5.49 9.48-17.64 42.7-48.09 49.11-18.09 3.81-32.73-3.12-55.5-13.88-17.98-8.5-42.35-20.03-41.1-31.85 1.31-12.4 30.56-22.7 54.96-22.41 28.09.33 34.71 14.51 72.83 15.89 9.55.34 14.88-.34 16.9 3.15Zm-40.42-33.06c10.3 3.68 38.65-25.19 39.37-56.38.43-18.53-9.04-31.69-23.76-52.17-11.62-16.17-27.38-38.08-38.74-34.69-11.92 3.56-16.67 34.27-11.93 58.27 5.46 27.63 20.58 31.56 28.89 68.88 2.08 9.35 2.39 14.73 6.18 16.08Zm-85.83-94.29c1.56 8.57-24.7 29.05-49.24 27.15-14.58-1.13-23.67-9.77-37.83-23.22-11.17-10.62-26.32-25.02-22.21-33.87 4.32-9.3 29-10.67 47.19-4.96 20.95 6.58 22.08 19.03 50.26 28.67 7.06 2.41 11.24 3.09 11.81 6.24Zm-27.93-58.46c6.06 6.26 38.05-3.08 50.82-24.07 7.59-12.47 5.86-24.9 3.18-44.22-2.12-15.26-4.99-35.94-14.6-37.77-10.08-1.92-25.61 17.28-31.58 35.36-6.87 20.82 2.59 29.01-6.01 57.48-2.15 7.13-4.05 10.91-1.82 13.21Zm-24.55-65.9c-.61 6.81-25.09 18.18-43.53 12.71-10.95-3.25-16.12-11.36-24.15-23.97-6.34-9.96-14.94-23.46-9.91-29.56 5.28-6.41 24.52-3.42 37.28 3.94 14.7 8.47 12.94 18.18 32.55 30.18 4.91 3 7.98 4.2 7.75 6.71Zm-18.3-80.96c6.44 2.3 27.02-15.16 29.78-34.19 1.63-11.3-3.57-19.39-11.66-31.95-6.39-9.93-15.05-23.38-22.71-21.37-8.03 2.11-13.37 20.82-12.04 35.49 1.54 16.88 11.1 19.36 13.78 42.18.67 5.71.48 9 2.85 9.85Z"/><path class="clsw2-4" d="M639.54 1745.05c-.31 0-.63-.06-.94-.19-52.72-21.51-128.85-64.38-192.18-146.46-73.89-95.78-90.3-194.71-93.51-245.15a2.49 2.49 0 0 1 2.34-2.65c1.38-.07 2.57.96 2.65 2.34 3.17 49.88 19.4 147.69 92.48 242.41 62.64 81.2 137.96 123.61 190.11 144.89a2.5 2.5 0 0 1 1.37 3.26 2.51 2.51 0 0 1-2.32 1.56Zm119.18-840.27c5.05 3.76.4 26.55-14.21 36.85-8.68 6.13-17.98 5.8-32.45 5.3-11.42-.4-26.9-.94-28.93-7.46-2.13-6.84 10.97-18.93 23.91-24.33 14.9-6.21 21.62-.23 42.05-8.18 5.12-1.99 7.78-3.56 9.64-2.18Zm-28.85-8.25c6.27-.4 14.67-22.08 7.95-38.71-3.99-9.88-11.98-14.67-24.4-22.13-9.81-5.89-23.11-13.87-28.34-9.5-5.48 4.59-1.01 21.88 6.95 33.47 9.16 13.34 18.04 11.97 30.91 29.78 3.22 4.46 4.61 7.23 6.92 7.08Zm-66.75-30.25c2.77 4.17-6.43 20.95-19.81 25.53-7.95 2.72-14.72.23-25.24-3.65-8.31-3.06-19.58-7.22-19.42-12.83.16-5.89 12.88-12.23 23.78-13.35 12.55-1.29 15.98 5.02 33.05 3.7 4.27-.33 6.63-.93 7.65.61Zm-28.03-24.5c4.62 1.93 19.38-10.28 21.35-24.26 1.17-8.31-2.57-14.47-8.38-24.06-4.59-7.57-10.81-17.83-16.29-16.61-5.76 1.28-9.58 14.94-8.62 25.84 1.11 12.55 7.97 14.72 9.9 31.7.48 4.25.35 6.68 2.05 7.39Zm-27.95-29.19c1.23 3.73-9.11 15.3-20.08 16.61-6.52.78-11.09-2.33-18.19-7.16-5.61-3.81-13.22-8.98-11.95-13.35 1.33-4.58 12.16-7.38 20.57-6.4 9.68 1.12 10.97 6.65 24.04 8.52 3.27.47 5.17.4 5.62 1.78Zm-28.07-38.57c3.92-.25 10.81-14.15 7.94-24.81-1.71-6.34-6.29-9.42-13.42-14.21-5.63-3.78-13.26-8.91-16.84-6.12-3.76 2.94-2.32 14.03 1.72 21.47 4.65 8.56 10.26 7.69 16.87 19.13 1.65 2.86 2.3 4.64 3.74 4.55Z"/><path class="clsw2-4" d="M810.26 912.14c-32.81 0-80.53-6.19-130.22-33.77-61.02-33.88-92.31-82.56-105.54-108.56a2.487 2.487 0 0 1 1.1-3.36c1.23-.63 2.74-.14 3.36 1.1 12.96 25.49 43.65 73.22 103.51 106.46 51.32 28.49 100.51 33.72 132.74 33.09a2.501 2.501 0 0 1 .1 5c-1.64.03-3.33.05-5.05.05Z"/><path class="clsw2-3" d="M806.43 573.95c-3.44 5.33-26.82 4.26-38.3-8.04-6.82-7.31-7.16-16.14-7.68-29.89-.42-10.85-.98-25.56 5.47-28.43 6.77-3.01 19.93 7.59 26.32 19.03 7.35 13.17 1.79 20.39 11.29 38.54 2.38 4.54 4.16 6.83 2.9 8.79m6.28-28.48c.86 5.87 23.39 10.63 39.72 1.85 9.7-5.21 13.98-13.46 20.63-26.3 5.25-10.13 12.37-23.87 7.57-28.17-5.03-4.51-22.2 2.25-33.35 11.47-12.83 10.61-10.82 18.8-27.91 33.57-4.28 3.7-6.98 5.41-6.67 7.57Zm25.81-67.49c-4.02 3.23-21.65-3.01-27.24-14.98-3.32-7.11-1.28-13.87 1.89-24.39 2.5-8.3 5.89-19.56 11.58-20.23 5.97-.71 13.29 10.38 15.21 20.52 2.21 11.67-3.93 15.84-1.37 31.77.64 3.99 1.41 6.13-.06 7.32Zm22.77-30.08c-1.62 4.65 11.78 16.81 26.07 16.62 8.49-.11 14.46-4.54 23.73-11.44 7.33-5.44 17.26-12.82 15.64-17.83-1.71-5.25-15.8-6.87-26.76-4.37-12.62 2.88-14.32 9.68-31.36 14-4.27 1.08-6.73 1.3-7.33 3.01Zm27.53-30.68c-3.69 1.71-16.13-6.37-18.24-16.55-1.25-6.05 1.56-10.82 5.94-18.24 3.45-5.86 8.14-13.8 12.64-13.25 4.73.58 8.34 10.41 7.95 18.5-.44 9.31-5.94 11.34-6.9 23.97-.24 3.16-.04 4.94-1.39 5.57m36.99-32.17c.54 3.67 15.09 8.15 25.67 3.87 6.29-2.54 9.08-7.32 13.41-14.76 3.42-5.87 8.07-13.84 4.98-16.81-3.24-3.12-14.36-.14-21.59 4.76-8.33 5.65-7.05 10.82-18.14 18.74-2.78 1.98-4.53 2.85-4.33 4.2"/><path class="clsw2-3" d="M805.61 630.59c-1.27 0-2.36-.97-2.49-2.26-3.01-30.97-1.21-79.16 24.42-132.84 29.87-62.58 76.82-99.24 102.15-115.53 1.16-.75 2.71-.41 3.46.75s.41 2.71-.75 3.46c-24.88 16-71 52.01-100.34 113.47-25.13 52.65-26.9 99.86-23.95 130.2.13 1.37-.87 2.6-2.25 2.73-.08 0-.16.01-.24.01Z"/><path class="clsw2-2" d="M1030.71 825.97c-1.33 0-2.44-1.05-2.5-2.4-1.06-25.54 1.99-50.89 9.08-75.33 8.53-29.41 22.56-56.56 41.7-80.71a2.507 2.507 0 0 1 3.51-.41c1.08.86 1.26 2.43.41 3.51-18.74 23.64-32.47 50.22-40.82 79-6.94 23.92-9.93 48.73-8.89 73.73a2.494 2.494 0 0 1-2.39 2.6h-.11Z"/><path class="clsw2-2" d="M1127.02 652.86c-9.4 10.02-20.61 16.42-31.24 20.54-5.07.25-10.64.06-16.71-.78.03-.05.05-.11.09-.18-.07.03-.12.07-.19.1-1.87-7.22-2.89-13.8-3.31-19.73 5.47-18.08 13.63-29.4 19.15-35.78 5.23-6.05 11.81-11.96 17.44-15.53 4.62-2.94 8.6-4.3 10.68-2.91 2.14 1.45 1.4 5.27 4.41 6.67 4.19 1.95 9.5-3.69 11.79-1.71.94.82.82 2.45.61 5.26-.3 3.9-1.53 4.89-1.13 7.17.45 2.59 2.48 3.86 3.3 4.85 1.69 2.04 1.1 6.31-1.06 11.45-2.67 6.38-7.76 14.1-13.83 20.58"/><path class="clsw2-5" d="M1079.16 672.44c-.07.03-.12.07-.19.1-1.87-7.22-2.89-13.8-3.31-19.73-1.15-16.14 2.13-27.55 4.67-34.13 4.21-10.86 11.92-22.6 16.23-21.51 2.01.51 2.48 3.58 5.11 3.82 3.68.32 6.18-5.36 8.43-4.49.93.36 1.27 1.62 1.87 3.79.13.44.21.84.28 1.21.39 2.13.03 3.12.8 4.49 1.04 1.82 2.91 2.23 3.8 2.75 3.58 2.1 2.83 13.02-.83 23.6-.53 1.53-1.12 3.05-1.77 4.54-8.23 18.9-24.63 29.96-35.1 35.57Z"/><path class="clsw2-5" d="M1127.87 664.68c-6.13 3.31-16.87 7.99-32.09 8.71-5.07.25-10.64.06-16.71-.78.03-.05.05-.11.09-.18 5.18-10.64 15.34-27.62 32.55-37.78a64 64 0 0 1 4.31-2.33c9.55-4.72 19.33-6.74 21.19-3.61.46.78.81 2.51 2.45 3.27.42.19.79.27 1.18.28.97.04 2.03-.26 3.97.04 1.96.3 3.1.48 3.42 1.32.76 2.04-4.4 5.11-4.15 8.56.19 2.48 2.97 2.55 3.41 4.4.94 3.97-9.76 12.74-19.63 18.08Z"/><path class="clsw2-2" d="M1114.65 656.29c-.16-.2-5.83 5.4-15.75 9.27-3.91 1.52-9.03 2.99-9.44 2.14-.14-.29.31-.72 1.65-2.17 1.85-1.99 4.46-4.82 4.28-5.04-.34-.41-10.41 8.66-12.27 7.07-.51-.43-.28-1.54.04-2.52 2.94-9.19 18.03-21.85 18.15-21.69s-15.54 11.02-19.84 21.11c-.37.86-1.01 2.55-1.34 2.47-.59-.14-.51-6 2.11-11.35 1.4-2.86 2.95-4.39 2.68-4.63-.33-.29-3.06 1.58-4.82 4.51-1.31 2.18-1.41 3.81-1.7 3.77-.56-.07-.77-6.32.71-13.31 1.56-7.41 4.18-11.69 4.02-11.76-.22-.1-6.11 8.12-6.73 18.91-.23 3.93.26 7.98.42 9.29.52 4.18 1.39 7.64 2.17 10.18.06-.03.13-.07.19-.11l-.09.18c8.05 1.1 15.22 1.08 21.52.4 2.37-.63 5.53-1.65 9.06-3.35 11.12-5.34 17.84-13.51 17.51-13.88-.3-.34-6.09 6.43-17.25 11.28-9.13 3.97-18.33 5.11-18.5 4.5-.1-.35 2.72-1.13 6.75-3.09 10.39-5.05 16.64-11.97 16.47-12.19Zm-74.47 166.68c-.16 0-.32-.02-.48-.05a2.5 2.5 0 0 1-1.98-2.93c9.99-51.32 11.84-103.22 5.48-154.27-3.16-25.36-8.4-50.72-15.56-75.37a2.501 2.501 0 0 1 4.8-1.4c7.24 24.9 12.53 50.52 15.72 76.15 6.42 51.57 4.56 104-5.53 155.84a2.5 2.5 0 0 1-2.45 2.02Z"/><path class="clsw2-2" d="M1032.76 543.43c5.79 12.46 7.55 25.24 7.41 36.64-1.66 4.8-3.92 9.89-6.95 15.21-.04-.05-.09-.09-.13-.15 0 .07.02.14.02.21-7.39-.95-13.88-2.46-19.54-4.29-14.74-11.81-22.2-23.61-26.06-31.11-3.66-7.11-6.69-15.42-7.91-21.98-1.01-5.38-.79-9.59 1.29-10.99 2.15-1.45 5.41.67 7.83-1.6 3.37-3.16.12-10.19 2.8-11.58 1.11-.57 2.58.15 5.11 1.39 3.5 1.73 3.96 3.24 6.23 3.72 2.57.55 4.51-.86 5.73-1.26 2.52-.81 6.27 1.33 10.23 5.26 4.93 4.86 10.19 12.46 13.94 20.5Z"/><path class="clsw2-5" d="M1033.09 595.14c0 .07.02.14.02.21-7.39-.95-13.88-2.46-19.54-4.29-15.41-4.95-24.77-12.25-29.92-17.06-8.5-7.96-16.52-19.48-13.91-23.08 1.22-1.67 4.24-.96 5.45-3.32 1.67-3.29-2.67-7.73-1.03-9.5.68-.73 1.98-.58 4.21-.32.46.05.86.12 1.23.19 2.12.43 2.91 1.13 4.47.93 2.08-.29 3.15-1.87 3.97-2.5 3.29-2.54 13.14 2.23 21.59 9.57 1.22 1.06 2.42 2.18 3.55 3.33 14.47 14.68 18.62 34.03 19.92 45.83Z"/><path class="clsw2-5" d="M1044.05 547.05c.79 6.93 1.12 18.63-3.88 33.02-1.66 4.8-3.92 9.89-6.95 15.21-.04-.05-.09-.09-.13-.15-7.94-8.78-19.91-24.54-22.91-44.29-.25-1.62-.43-3.26-.56-4.87-.82-10.62.96-20.45 4.55-21 .89-.14 2.63.18 3.95-1.06.33-.31.54-.63.7-.99.4-.88.52-1.98 1.52-3.67 1.01-1.71 1.6-2.7 2.5-2.68 2.17.05 3.1 5.99 6.4 7.04 2.37.75 3.48-1.81 5.36-1.52 4.03.6 8.18 13.8 9.46 24.96Z"/><path class="clsw2-2" d="M1031.33 556.18c-.24.07 2.84 7.43 2.73 18.07-.04 4.19-.59 9.5-1.54 9.56-.32.02-.55-.56-1.4-2.34-1.16-2.46-2.81-5.93-3.08-5.85-.51.16 4.15 12.89 1.99 14.02-.59.31-1.53-.32-2.33-.97-7.44-6.16-13.56-24.88-13.36-24.93.19-.05 4.43 18.53 12.18 26.28.66.66 1.99 1.88 1.79 2.16-.35.49-5.76-1.77-9.74-6.19-2.13-2.37-2.97-4.37-3.3-4.21-.4.2.33 3.43 2.39 6.15 1.53 2.03 3.01 2.73 2.87 2.98-.28.49-6.15-1.65-12.09-5.62-6.29-4.21-9.29-8.23-9.41-8.11-.18.17 5.26 8.7 15.04 13.3 3.56 1.68 7.5 2.73 8.78 3.07 4.07 1.08 7.61 1.56 10.25 1.78 0-.07-.02-.15-.03-.22.04.05.09.1.13.15 4.02-7.06 6.67-13.72 8.4-19.82.3-2.43.53-5.75.27-9.66-.81-12.3-5.88-21.59-6.35-21.43-.43.15 3.7 8.05 4.04 20.21.28 9.96-2.09 18.91-2.73 18.85-.36-.04-.03-2.95-.35-7.42-.81-11.52-4.9-19.9-5.17-19.83Zm471.14 825.19h-.16a2.01 2.01 0 0 1-1.84-2.15c5.19-66.53 19.03-131.73 41.15-193.78 10.99-30.83 24.14-61.14 39.08-90.07a2.003 2.003 0 1 1 3.56 1.84c-14.86 28.77-27.94 58.91-38.87 89.58-21.99 61.72-35.76 126.57-40.93 192.75a1.995 1.995 0 0 1-1.99 1.84Z"/><path class="clsw2-2" d="M1593.6 1038.4c-9.73 13.97-15.4 29.34-18.69 43.48.27 6.36 1.06 13.23 2.59 20.57.06-.05.12-.09.18-.15-.03.09-.06.17-.09.26 7.92.68 15.07.44 21.46-.4 18.77-10.92 30.02-23.64 36.27-31.95 5.92-7.88 11.55-17.4 14.78-25.21 2.66-6.41 3.7-11.67 1.99-13.92-1.78-2.33-5.79-.54-7.6-3.95-2.52-4.76 2.95-12.65.59-15.03-.97-.98-2.71-.46-5.69.44-4.14 1.26-5.07 3.01-7.55 3.04-2.82.03-4.4-2.2-5.54-3-2.36-1.63-6.87.07-12.14 3.94-6.55 4.77-14.28 12.85-20.56 21.87Z"/><path class="clsw2-5" d="M1577.68 1102.3c-.03.09-.06.17-.09.26 7.92.68 15.07.44 21.46-.4 17.39-2.26 29.26-8.93 36.02-13.59 11.17-7.71 22.92-19.96 21.31-25.07-.75-2.38-4.09-2.26-4.62-5.47-.74-4.5 5.08-8.9 3.92-11.5-.48-1.07-1.87-1.21-4.25-1.46a11 11 0 0 0-1.33-.07c-2.32 0-3.34.67-4.89.03-2.06-.88-2.69-3.1-3.34-4.09-2.63-3.97-14.23-.54-25.16 6.42-1.58 1-3.15 2.09-4.67 3.23-19.35 14.53-29.47 37.43-34.37 51.71Z"/><path class="clsw2-5" d="M1580.86 1040.04c-2.9 8.37-6.77 22.78-5.94 41.84.27 6.36 1.06 13.23 2.59 20.57.06-.05.12-.09.18-.15 10.84-8.87 27.94-25.36 37-49.05.75-1.94 1.43-3.92 2.04-5.89 4.05-12.93 5.17-25.54 1.63-27.14-.88-.4-2.77-.44-3.76-2.3-.25-.47-.37-.92-.42-1.4-.15-1.2.06-2.58-.46-4.92-.53-2.37-.84-3.74-1.77-3.94-2.26-.48-5 6.63-8.73 7.1-2.68.33-3.04-3.11-5.07-3.23-4.34-.27-12.6 15.02-17.28 28.5Z"/><path class="clsw2-2" d="M1591.23 1054.54c.23.15-5.17 8.48-8.26 21.68-1.22 5.2-2.25 11.9-1.29 12.22.32.11.74-.55 2.14-2.54 1.94-2.75 4.69-6.64 4.94-6.46.48.33-8.17 14.9-6.28 16.85.51.53 1.68 0 2.7-.62 9.53-5.75 21.49-27.38 21.3-27.5-.18-.12-10.15 21.82-20.49 29.46-.88.65-2.62 1.83-2.5 2.22.21.7 6.47-.74 11.92-5.21 2.91-2.39 4.38-4.66 4.67-4.38.35.34-1.37 4.16-4.32 7.02-2.19 2.13-3.93 2.62-3.86 2.97.14.68 6.85-.49 14.17-3.92 7.76-3.63 12.07-7.85 12.16-7.67.13.25-8.05 9.44-19.53 12.68-4.18 1.18-8.56 1.5-9.99 1.6-4.53.31-8.33.01-11.12-.37l.09-.27-.18.15c-2.02-9.74-2.75-18.66-2.69-26.64.43-3.08 1.19-7.25 2.63-12.02 4.54-15.02 12.58-25.24 13.01-24.92.4.29-6.24 9.03-10.25 24-3.28 12.25-3.54 23.93-2.87 24.01.38.04.92-3.64 2.59-9.09 4.31-14.05 11.06-23.4 11.31-23.24Zm-123.32 236.29a2 2 0 0 1-1.77-2.93c18.75-35.6 41.97-68.41 69.03-97.5a443 443 0 0 1 43.14-40.56c.85-.7 2.11-.58 2.81.28.7.85.58 2.11-.28 2.81-15.04 12.34-29.42 25.87-42.75 40.19-26.82 28.83-49.83 61.35-68.42 96.64a2 2 0 0 1-1.77 1.07Z"/><path class="clsw2-2" d="M1599.51 1122.03c-8.71 5.4-15.5 12.55-20.69 19.59-1.37 3.58-2.56 7.56-3.47 11.99.04-.01.09-.02.13-.04-.04.04-.07.08-.11.12 4.21 2.26 8.23 3.83 11.96 4.89 12.98-1.56 22.23-5.92 27.66-9.02 5.15-2.95 10.53-6.87 14.18-10.41 3-2.91 4.82-5.57 4.41-7.23-.43-1.71-3.07-1.68-3.26-3.99-.26-3.23 4.64-6.29 3.91-8.17-.3-.77-1.39-.9-3.25-1.11-2.59-.29-3.52.46-4.9-.12-1.57-.65-1.91-2.26-2.35-2.98-.92-1.47-3.82-1.6-7.65-.72-4.76 1.08-10.95 3.71-16.58 7.19Z"/><path class="clsw2-5" d="M1575.49 1153.57s-.07.08-.11.12c4.21 2.26 8.23 3.83 11.96 4.89 10.15 2.89 18.3 2.03 23.15 1.06 8.01-1.6 17.43-5.57 17.75-8.78.15-1.49-1.72-2.22-1.25-4.13.67-2.66 4.93-3.71 4.91-5.42 0-.71-.74-1.11-2-1.82-.25-.15-.49-.26-.72-.35-1.28-.55-2.01-.42-2.71-1.15-.93-.98-.75-2.36-.87-3.06-.51-2.82-7.74-3.69-15.44-2.45-1.11.18-2.24.4-3.35.67-14.16 3.42-25.21 13.67-31.32 20.4Z"/><path class="clsw2-5" d="M1592.07 1119.91c-3.6 3.94-9.17 10.98-13.25 21.71-1.37 3.58-2.56 7.56-3.47 11.99.04-.01.09-.02.13-.04 8.11-2.32 21.49-7.37 32.14-18.31.88-.9 1.72-1.83 2.53-2.77 5.32-6.19 8.95-12.89 7.36-14.61-.39-.43-1.43-.9-1.53-2.17-.02-.32.01-.6.1-.87.2-.7.65-1.41.92-2.83.27-1.44.43-2.27-.04-2.6-1.13-.8-4.34 2.48-6.52 1.85-1.56-.45-.94-2.45-2.03-2.99-2.34-1.18-10.54 5.3-16.34 11.64"/><path class="clsw2-2" d="M1594.35 1130.39c.09.14-4.88 3.46-9.73 10.02-1.91 2.58-4.08 6.04-3.62 6.45.15.14.54-.13 1.79-.89 1.73-1.06 4.17-2.55 4.27-2.4.18.3-8.07 6.29-7.49 7.82.16.42.93.4 1.64.3 6.64-.91 18.4-10.02 18.32-10.13-.07-.11-10.81 9.64-18.35 11.41-.64.15-1.88.39-1.91.63-.05.44 3.75 1.13 7.83-.04 2.18-.63 3.53-1.53 3.63-1.31.11.27-1.75 1.97-4.06 2.85-1.72.65-2.8.51-2.84.72-.09.41 3.9 1.36 8.77 1.21 5.15-.16 8.54-1.47 8.55-1.35.01.17-6.7 3.3-13.81 2.36-2.59-.34-5.09-1.21-5.9-1.5-2.58-.91-4.61-1.98-6.06-2.85.04-.04.08-.08.11-.12-.04.01-.09.03-.14.04 1.2-5.87 2.92-10.97 4.86-15.37.97-1.6 2.38-3.72 4.32-6.02 6.09-7.22 12.96-10.96 13.13-10.68.15.26-5.6 3.5-11.39 10.82-4.73 5.99-7.65 12.39-7.3 12.59.2.12 1.38-1.79 3.6-4.41 5.73-6.74 11.69-10.3 11.78-10.15"/><path class="clsw2-3" d="M1039.09 847.03h-.21a2.5 2.5 0 0 1-2.29-2.69c3.25-40.09.78-78.01-7.33-112.69-4.02-17.21-9.49-33.76-16.25-49.18-.55-1.26.02-2.74 1.29-3.29 1.26-.55 2.74.02 3.29 1.29 6.88 15.7 12.44 32.54 16.54 50.05 8.23 35.19 10.73 73.62 7.45 114.23-.11 1.31-1.2 2.3-2.49 2.3Z"/><path class="clsw2-1" d="M1013.86 647.28c4.94 7.14 7.09 15.79 7.82 24.05-.81 3.99-2.01 8.37-3.74 13.17-.03-.02-.07-.04-.1-.06 0 .05.02.1.03.15-5.22 1.66-9.85 2.63-13.93 3.12-11.13-3.83-17.18-9.96-20.42-14.14-3.07-3.96-5.78-8.98-7.1-13.32-1.09-3.56-1.24-6.66.1-8.33 1.39-1.72 3.82-1.24 5.34-3.64 2.12-3.35-.65-7.38 1.12-9.23.73-.76 1.81-.71 3.66-.62 2.57.13 3 1.07 4.61.7 1.83-.42 3.08-2.05 3.91-2.73 1.7-1.38 4.46-1.03 7.51.54 3.79 1.94 8.01 5.74 11.2 10.35Z"/><path class="clsw2-3" d="M1017.84 684.43c0 .05.02.1.03.15-5.22 1.66-9.85 2.63-13.93 3.12-11.1 1.32-18.16-.95-22.09-2.79-6.5-3.03-12.93-8.79-11.37-12.21.73-1.59 2.89-2.04 3.56-4.12.93-2.91-2.42-4.72-1.4-6.52.42-.74 1.34-1.04 2.91-1.57.32-.11.61-.19.87-.25 1.51-.36 2.11-.11 3.18-.75 1.43-.87 2.06-2.35 2.58-3.06 2.11-2.88 9.32-2.57 15.74.04.93.37 1.84.8 2.72 1.27 11.15 5.98 15.44 18.6 17.2 26.69"/><path class="clsw2-3" d="M1022 646.3c1.05 4.74 2.13 13.07-.31 25.02-.81 3.99-2.01 8.37-3.74 13.17-.03-.02-.07-.04-.1-.06-6.17-3.8-15.65-11.36-19.18-24.63-.29-1.09-.54-2.21-.74-3.33-1.34-7.39-.81-15.04 1.65-16.58.61-.38 1.85-.7 2.68-2.02.21-.33.33-.63.42-.93.22-.77.22-1.59.79-3.13.58-1.55.92-2.45 1.55-2.72 1.52-.65 2.59 3.33 4.97 3.04 1.71-.21 2.29-2.41 3.62-2.8 2.85-.85 6.7 7.35 8.4 14.98Z"/><path class="clsw2-1" d="M1013.79 656.92c-.16.13 2.52 4.45 3.21 12.15.27 3.04.28 7.03-.38 7.38-.22.12-.43-.22-1.14-1.24-.99-1.4-2.39-3.38-2.57-3.23-.34.28 3.83 7.97 2.4 9.47-.39.41-1.09.26-1.69.04-5.63-2.07-11.25-13.62-11.12-13.72s4.43 11.94 10.4 15.07c.51.27 1.52.73 1.4.99-.21.47-4.14.56-7.24-1.37-1.66-1.03-2.39-2.21-2.6-1.99-.26.27.48 2.37 2.11 3.68 1.21.98 2.3 1.01 2.21 1.24-.16.44-4.41.77-8.83-.21-4.69-1.04-7.07-2.98-7.15-2.85-.11.18 4.29 4.6 11.44 4.8 2.61.08 5.42-.41 6.34-.58 2.92-.52 5.42-1.3 7.27-1.97l-.03-.15c.03.02.07.04.1.06 2.29-6.36 3.66-12.01 4.42-16.95.03-1.85-.05-4.31-.51-7.05-1.45-8.61-5.66-13.68-5.98-13.42-.29.24 3.16 4.62 4.28 13.28.91 7.09-.09 14.29-.54 14.44-.25.09-.24-2.11-.78-5.23-1.4-8.04-4.86-12.78-5.04-12.64Z"/><path class="clsw2-3" d="M1532.95 1211.77c-.26 0-.52-.05-.78-.16-1.02-.43-1.5-1.6-1.07-2.62 15.63-37.12 25.14-73.96 28.28-109.49 1.56-17.64 1.53-35.09-.07-51.89a1.998 1.998 0 1 1 3.98-.38c1.63 17.04 1.65 34.74.07 52.62-3.17 35.95-12.78 73.19-28.57 110.7-.32.76-1.06 1.22-1.84 1.22"/><path class="clsw2-1" d="M1570.6 1014.51c2.46 8.32 1.8 17.21-.08 25.28-2.02 3.53-4.53 7.32-7.67 11.34-.02-.03-.05-.06-.08-.09 0 .05 0 .1-.02.15-5.48-.05-10.18-.58-14.21-1.39-9.38-7.12-13.21-14.83-14.98-19.81-1.68-4.72-2.69-10.34-2.59-14.87.07-3.72.9-6.71 2.7-7.88 1.86-1.2 4.02.02 6.21-1.79 3.06-2.52 1.68-7.22 3.94-8.42.93-.5 1.94-.11 3.67.56 2.4.93 2.51 1.96 4.16 2.11 1.87.17 3.57-.99 4.56-1.37 2.05-.78 4.56.42 6.97 2.86 2.99 3.02 5.82 7.95 7.41 13.33Z"/><path class="clsw2-3" d="M1562.77 1051.04c0 .05 0 .1-.02.15-5.48-.05-10.18-.58-14.21-1.39-10.96-2.21-16.95-6.58-20.12-9.55-5.23-4.91-9.54-12.39-6.98-15.15 1.19-1.29 3.38-1.04 4.67-2.8 1.79-2.47-.82-5.24.7-6.63.63-.57 1.6-.57 3.26-.58q.51 0 .9.03c1.55.12 2.04.56 3.25.28 1.63-.38 2.69-1.59 3.41-2.1 2.9-2.07 9.65.47 14.94 4.95.77.65 1.5 1.34 2.18 2.06 8.72 9.16 8.86 22.5 8.01 30.73Z"/><path class="clsw2-3" d="M1578.63 1016.12c-.48 4.83-2.06 13.08-8.12 23.67-2.02 3.53-4.53 7.32-7.67 11.34-.02-.03-.05-.06-.08-.09-4.68-5.54-11.32-15.68-10.53-29.39.06-1.13.18-2.27.34-3.4 1.04-7.44 3.92-14.54 6.75-15.23.7-.17 1.97-.09 3.17-1.08.3-.25.51-.49.69-.76.45-.66.7-1.44 1.73-2.72 1.04-1.29 1.64-2.04 2.32-2.1 1.65-.15 1.42 3.98 3.77 4.44 1.69.33 2.93-1.57 4.32-1.53 2.98.09 4.07 9.07 3.3 16.85Z"/><path class="clsw2-1" d="M1567.52 1023.64c-.2.07 1 5.01-.75 12.55-.69 2.97-1.93 6.76-2.67 6.89-.25.04-.33-.35-.7-1.53-.5-1.64-1.21-3.96-1.43-3.88-.41.16 1.15 8.76-.68 9.75-.5.27-1.12-.09-1.62-.49-4.7-3.73-6.43-16.45-6.27-16.51.16-.05.48 12.73 5.17 17.56.4.41 1.22 1.16 1.03 1.38-.35.38-4.11-.76-6.45-3.56-1.25-1.49-1.58-2.84-1.85-2.7-.33.17-.29 2.4.86 4.15.85 1.31 1.87 1.68 1.72 1.87-.29.37-4.43-.65-8.33-2.96-4.13-2.45-5.78-5.04-5.9-4.95-.16.13 2.64 5.71 9.37 8.14 2.45.89 5.28 1.3 6.21 1.43 2.93.42 5.55.46 7.53.4 0-.05.01-.1.02-.15.03.03.05.06.08.09 4.16-5.33 7.23-10.26 9.49-14.72.61-1.74 1.3-4.11 1.72-6.85 1.31-8.63-1.11-14.77-1.49-14.62-.35.14 1.56 5.38-.09 13.95-1.35 7.02-4.55 13.55-5.02 13.55-.27 0 .44-2.08.89-5.22 1.18-8.08-.62-13.66-.83-13.58Z"/><path d="M1556.93 1365.66c0 154.58-55.77 274.9-167.31 360.94-111.54 86.07-243.35 129.09-395.41 129.09s-277.4-41.36-386.01-124.07c-108.62-82.72-162.93-198.43-162.93-347.16 0-97.76 30.9-187.78 92.74-270.08 61.82-82.29 149.96-147.67 264.44-196.14v-13.79c-172.13-106.1-258.17-237.28-258.17-393.53 0-125.33 45.94-222.24 137.86-290.76 91.9-68.5 201.35-102.77 328.36-102.77s230.8 32.59 321.46 97.76c90.65 65.17 135.98 154.58 135.98 268.2 0 77.7-24.24 152.08-72.69 223.08-48.47 71.02-115.73 124.07-201.78 159.17v13.79c242.29 136.19 363.45 298.28 363.45 486.27Zm-183.18 73.7c31.75-153.87-51.53-272.48-71.87-301.46-120.95-172.27-326.6-186.19-355.36-187.66-45.87 14.91-150.93 56.22-231.58 161.71-59.72 78.12-76.71 153.04-79.86 167.7-9.11 42.38-29.73 172.45 43.92 287.48 91.39 142.74 292.48 206.95 459.17 143.74 9.59-3.64 195.61-77.82 235.57-271.51Zm-105.08-928.43c0-81.03-26.12-143.07-78.33-186.11-52.23-43.02-114.67-64.54-187.36-64.54s-129.93 19.01-181.72 57.02c-51.81 38.03-77.7 89.61-77.7 154.78 0 135.35 99.01 250.24 297.03 344.65 152.06-67.68 228.1-169.6 228.1-305.8Z" style="fill:#674188"/><path class="clsw2-3" d="M1202.31 318.76c-12.17-40.65-3.42-87.59 2.49-88.47 3.4-.51 6.92 13.99 10.02 12.71 2.02-.84 1.4-7.35 3.06-17.24 1.6-9.54 5.64-24.17 9.19-24.04 5.29.2 6.23 33.02 13.07 33.85 3.81.46 5.36-9.49 8.37-9.67 11.44-.7 39.85 140.28 15.69 158.19-14.67 10.88-49.3-23.25-61.9-65.32Zm-65.83 69.58c-41.28 9.54-77.95 40.08-75.87 45.58 1.2 3.16 15.53-.94 15.91 2.34.25 2.14-5.73 4.81-13.54 11.09-7.54 6.05-18.33 16.69-16.51 19.67 2.72 4.43 31.77-10.88 35.8-5.43 2.24 3.03-5.68 9.25-4.39 11.92 4.91 10.14 141.44-34.76 145.38-64.23 2.39-17.9-44.05-30.81-86.77-20.93Z"/><path class="clsw2-3" d="M1171.26 319.54c-39.77-14.49-87.17-9.14-88.44-3.47-.73 3.25 13.51 7.64 12.03 10.55-.96 1.9-7.43.87-17.4 1.82-9.62.91-24.48 3.85-24.58 7.3-.15 5.13 32.54 8.23 32.93 14.91.22 3.72-9.81 4.56-10.19 7.46-1.44 11.04 137.4 47.93 156.82 25.72 11.8-13.49-20.01-49.31-61.18-64.3Zm114.91-16.68c19.49-34.51 57.7-57.04 62.38-53.1 2.69 2.26-4.82 13.95-1.81 15.51 1.96 1.01 6.01-3.5 13.93-8.39 7.64-4.72 20.45-10.74 22.81-7.96 3.51 4.14-18.35 25.26-14.21 30.97 2.31 3.18 10.2-1.83 12.4.34 8.36 8.26-68.74 117.47-97.65 110.25-17.56-4.39-18.01-51.9 2.16-87.62Z"/><path class="clsw2-3" d="M1357.95 356.94c40.88-8.8 87.63-.6 88.4 4.19.44 2.75-14.12 5.23-12.9 7.76.8 1.65 7.32 1.31 17.18 2.89 9.51 1.52 24.05 5.14 23.85 7.99-.3 4.25-33.13 4.2-34.1 9.69-.54 3.06 9.38 4.55 9.5 6.98.48 9.23-141.03 28.63-158.45 8.74-10.58-12.09 24.22-39.13 66.53-48.24Z"/><path class="clsw2-3" d="M1337.14 423.86c30.75 22.52 50 60.86 46.26 64.69-2.14 2.2-12.53-6.27-14.05-3.68-.99 1.69 2.99 6.02 7.18 14 4.04 7.7 9.1 20.35 6.5 22.18-3.88 2.72-22.37-20.27-27.7-17.17-2.97 1.73 1.33 9.69-.71 11.45-7.78 6.69-104.59-78.89-97.09-104.77 4.56-15.72 47.78-10.02 79.6 13.29Z"/><path class="clsw2-3" d="M1190.14 449.89c-17.19 32.29-15.6 73.19-10.16 74.87 3.12.96 8.49-10.68 11.22-9.11 1.78 1.02.28 6.41.44 15 .16 8.28 1.89 21.23 5.25 21.68 5 .67 10.52-26.81 17.08-26.43 3.65.21 3.7 8.83 6.5 9.46 10.66 2.4 57.31-111.8 37.12-130.68-12.27-11.47-49.67 11.78-67.46 45.21Z"/><path class="clsw2-1" d="M1363.85 379.22c.1-1.47-7.39-3.34-12.3-4.12-5.08-.81-8.45-.64-8.86-1.49-.63-1.3 6.88-2.58 6.65-4-.4-2.47-24.5-6.7-45.58-2.16-7.04 1.51-13.66 3.99-19.24 6.86 16.37-15.67 34.44-43.48 31.46-46.42-1.13-1.12-5.2 1.46-6.39-.18-2.14-2.95 9.13-13.83 7.33-15.97-1.21-1.43-7.82 1.67-11.76 4.11-4.09 2.52-6.17 4.85-7.18 4.33-1.56-.8 2.32-6.83.93-8-2.41-2.03-22.11 9.59-32.16 27.38-3.13 5.54-5.29 11.63-6.54 17.5-.92-24.35-8.89-57.43-12.88-57.18-1.55.1-2.35 5.23-4.31 4.99-3.53-.43-4.01-17.35-6.74-17.45-1.83-.07-3.91 7.47-4.74 12.39-.85 5.1-.54 8.46-1.58 8.89-1.6.66-3.42-6.81-5.17-6.55-3.05.46-7.56 24.66-1.29 45.62 1.35 4.51 3.2 8.84 5.34 12.83-5.73-4.89-13.18-9.45-21.35-12.43-20.51-7.47-44.95-4.71-45.6-1.79-.37 1.68 6.97 3.94 6.2 5.44-.5.98-3.83.45-8.97.94-4.96.47-12.62 1.99-12.67 3.76-.08 2.65 16.78 4.24 16.98 7.69.11 1.92-5.06 2.35-5.26 3.85-.4 3.09 20.55 10.12 41.38 14.06-3.31.27-6.68.76-9.99 1.53-21.29 4.92-40.2 20.66-39.12 23.5.62 1.63 8.01-.49 8.2 1.21.13 1.1-2.95 2.48-6.98 5.72-3.89 3.12-9.45 8.61-8.51 10.14 1.4 2.28 16.38-5.61 18.46-2.8 1.16 1.56-2.93 4.77-2.26 6.14 1.96 4.04 44.41-8.86 64.56-21.94-2.51 2.97-4.8 6.25-6.67 9.76-8.86 16.65-8.04 37.74-5.24 38.61 1.61.5 4.38-5.51 5.79-4.7.92.53.15 3.3.23 7.73.08 4.27.97 10.95 2.7 11.18 2.58.35 5.43-13.83 8.81-13.63 1.88.11 1.91 4.56 3.35 4.88 4.28.96 19.78-34.45 21.55-54.81 9.91 17.93 44.31 47.33 47.61 44.49 1.05-.91-1.16-5.01.37-5.9 2.75-1.6 12.28 10.25 14.28 8.85 1.34-.94-1.27-7.47-3.35-11.44-2.16-4.11-4.21-6.35-3.7-7.22.78-1.34 6.14 3.03 7.24 1.9 1.93-1.98-8-21.74-23.85-33.36-2.88-2.11-5.94-3.93-9.04-5.47 23.96 1.8 67.37-4.99 67.18-8.66-.06-1.25-5.18-2.02-4.9-3.6.5-2.83 17.43-2.8 17.58-5ZM1253 393.29c-.29-.47-.61-.88-.98-1.23-3.48-3.25-10.88-1.08-18.36 4.39.33-.69.56-1.36.65-2.02.51-3.84-3.34-7.23-9.59-9.52 6.83-.02 12.1-1.05 14.33-3.6 1.23-1.4 1.53-3.28 1.07-5.44 5.88 5.68 11.74 8.21 15.31 5.56 1.79-1.33 3.02-3.98 3.8-7.52.78 5.81 2.95 9.96 6.42 10.83 1.6.4 3.49.1 5.58-.74-2.32 2.71-3.27 5.26-2.42 7.25-7.29-1.39-13.32-.76-15.8 2.05Z"/><path class="clsw2-3" d="M1279.89 365.69c5.27 7.62 7.96 11.63 7.16 16.56-2.33 14.31-31.19 18.17-34.36 18.56-7.5.93-29.05 3.59-35.57-8.25-4.15-7.54-.15-17.19 3.66-26.36 3.88-9.35 11.55-27.85 25.25-29.26 13.04-1.34 23.4 13.63 33.86 28.75m261.43 809.84c8.6-27.2 2.42-58.6-1.76-59.2-2.4-.34-4.89 9.36-7.09 8.5-1.43-.56-.99-4.92-2.17-11.54-1.13-6.38-3.99-16.17-6.5-16.08-3.74.13-4.4 22.09-9.24 22.65-2.69.31-3.79-6.35-5.92-6.47-8.09-.47-28.17 93.86-11.1 105.84 10.37 7.28 34.86-15.56 43.76-43.7Zm46.54 46.56c29.19 6.38 55.11 26.81 53.64 30.49-.85 2.11-10.98-.63-11.25 1.57-.17 1.43 4.05 3.22 9.58 7.42 5.33 4.05 12.96 11.17 11.67 13.16-1.92 2.96-22.46-7.28-25.31-3.63-1.58 2.03 4.02 6.19 3.1 7.97-3.47 6.79-100-23.26-102.79-42.98-1.69-11.98 31.14-20.61 61.35-14.01Z"/><path class="clsw2-3" d="M1563.27 1176.05c28.12-9.69 61.63-6.12 62.53-2.32.51 2.18-9.55 5.11-8.51 7.06.68 1.27 5.25.58 12.3 1.22 6.8.61 17.31 2.58 17.38 4.88.1 3.44-23.01 5.51-23.28 9.98-.15 2.49 6.94 3.05 7.21 4.99 1.02 7.38-97.15 32.07-110.88 17.21-8.34-9.03 14.15-32.99 43.25-43.02m-81.25-11.16c-13.78-23.09-40.79-38.17-44.1-35.53-1.9 1.51 3.41 9.34 1.28 10.38-1.39.68-4.25-2.34-9.85-5.62-5.4-3.16-14.46-7.19-16.12-5.33-2.48 2.77 12.97 16.9 10.05 20.72-1.63 2.13-7.21-1.22-8.76.23-5.91 5.52 48.6 78.6 69.04 73.77 12.42-2.93 12.74-34.73-1.52-58.62Z"/><path class="clsw2-3" d="M1431.27 1201.08c-28.9-5.89-61.96-.4-62.5 2.8-.31 1.84 9.99 3.5 9.12 5.19-.56 1.1-5.18.88-12.14 1.93-6.72 1.02-17 3.44-16.86 5.35.21 2.85 23.43 2.81 24.11 6.48.38 2.04-6.63 3.05-6.72 4.67-.34 6.18 99.71 19.16 112.03 5.85 7.48-8.09-17.12-26.18-47.04-32.28Z"/><path class="clsw2-3" d="M1445.99 1245.85c-21.74 15.07-35.35 40.72-32.71 43.28 1.52 1.47 8.86-4.2 9.93-2.46.7 1.13-2.11 4.03-5.08 9.37-2.86 5.15-6.44 13.62-4.6 14.84 2.74 1.82 15.82-13.56 19.58-11.49 2.1 1.16-.94 6.49.5 7.66 5.5 4.48 73.95-52.78 68.64-70.1-3.22-10.52-33.78-6.7-56.28 8.89Z"/><path class="clsw2-3" d="M1549.92 1263.27c12.15 21.61 11.03 48.97 7.18 50.09-2.21.65-6-7.15-7.94-6.1-1.26.68-.2 4.29-.31 10.04-.11 5.54-1.34 14.21-3.71 14.51-3.54.45-7.44-17.94-12.07-17.68-2.58.14-2.62 5.91-4.6 6.33-7.54 1.6-40.52-74.8-26.24-87.44 8.67-7.68 35.12 7.88 47.69 30.25"/><path class="clsw2-1" d="M1427.11 1215.99c-.07-.98 5.23-2.23 8.69-2.76 3.59-.54 5.97-.43 6.26-1 .45-.87-4.86-1.73-4.7-2.68.28-1.65 17.32-4.48 32.23-1.45 4.97 1.01 9.66 2.67 13.6 4.59-11.57-10.48-24.35-29.09-22.24-31.06.8-.75 3.68.98 4.52-.12 1.51-1.97-6.46-9.26-5.18-10.68.86-.96 5.53 1.12 8.31 2.75 2.89 1.69 4.36 3.25 5.08 2.9 1.1-.54-1.64-4.57-.66-5.35 1.71-1.36 15.64 6.41 22.74 18.32 2.21 3.71 3.74 7.78 4.62 11.71.65-16.29 6.29-38.42 9.11-38.26 1.1.06 1.66 3.5 3.05 3.34 2.49-.29 2.84-11.61 4.76-11.68 1.29-.05 2.77 5 3.35 8.29.6 3.41.38 5.66 1.12 5.95 1.13.44 2.42-4.56 3.65-4.38 2.16.31 5.35 16.5.91 30.52-.95 3.02-2.26 5.92-3.77 8.58 4.05-3.27 9.32-6.32 15.09-8.32 14.5-5 31.78-3.15 32.24-1.2.26 1.12-4.93 2.63-4.39 3.64.35.66 2.71.3 6.34.63 3.51.32 8.92 1.33 8.96 2.52.05 1.77-11.86 2.84-12.01 5.14-.08 1.28 3.58 1.57 3.72 2.57.29 2.07-14.53 6.77-29.25 9.41 2.34.18 4.72.51 7.07 1.02 15.05 3.29 28.42 13.83 27.66 15.72-.44 1.09-5.66-.32-5.8.81-.09.74 2.09 1.66 4.94 3.83 2.75 2.09 6.68 5.76 6.02 6.79-.99 1.53-11.58-3.75-13.05-1.87-.82 1.05 2.07 3.19 1.6 4.11-1.38 2.7-31.4-5.93-45.65-14.68 1.78 1.99 3.4 4.18 4.72 6.53 6.27 11.14 5.69 25.25 3.7 25.83-1.14.33-3.09-3.69-4.09-3.14-.65.35-.1 2.21-.16 5.17-.06 2.86-.69 7.33-1.91 7.48-1.82.23-3.84-9.25-6.23-9.12-1.33.07-1.35 3.05-2.37 3.27-3.02.64-13.98-23.05-15.24-36.67-7 12-31.33 31.67-33.66 29.77-.75-.61.82-3.35-.26-3.95-1.94-1.07-8.68 6.86-10.1 5.92-.95-.63.9-5 2.37-7.65 1.53-2.75 2.98-4.25 2.62-4.83-.55-.9-4.34 2.03-5.12 1.27-1.36-1.32 5.66-14.55 16.87-22.32 2.04-1.41 4.2-2.63 6.39-3.66-16.94 1.21-47.63-3.34-47.5-5.8.05-.84 3.66-1.35 3.47-2.41-.35-1.89-12.32-1.88-12.43-3.34Zm78.37 9.42c.2-.31.43-.59.69-.82 2.46-2.18 7.69-.72 12.98 2.94-.24-.46-.4-.91-.46-1.35-.36-2.57 2.36-4.84 6.78-6.37-4.83-.01-8.56-.71-10.13-2.41-.87-.94-1.08-2.19-.75-3.64-4.16 3.8-8.3 5.49-10.83 3.72-1.27-.89-2.14-2.66-2.68-5.03-.55 3.89-2.08 6.66-4.54 7.24-1.13.27-2.47.07-3.94-.5 1.64 1.81 2.32 3.52 1.71 4.85 5.15-.93 9.42-.51 11.17 1.37"/><path class="clsw2-3" d="M1486.46 1206.93c-3.73 5.1-5.63 7.78-5.06 11.08 1.65 9.58 22.05 12.15 24.29 12.42 5.3.62 20.54 2.4 25.15-5.52 2.93-5.04.1-11.5-2.59-17.63-2.74-6.26-8.17-18.63-17.85-19.57-9.22-.9-16.54 9.12-23.94 19.24Z"/><path class="clsw2-5" d="M863.85 629.77c8.62-29.06 2.45-62.62-1.73-63.26-2.4-.36-4.9 10-7.09 9.08-1.43-.6-.99-5.26-2.16-12.33-1.13-6.82-3.98-17.28-6.49-17.19-3.74.14-4.42 23.61-9.25 24.2-2.69.33-3.79-6.79-5.91-6.92-8.09-.51-28.22 100.29-11.15 113.09 10.37 7.78 34.87-16.6 43.79-46.68Zm46.51 49.77c29.18 6.83 55.1 28.68 53.63 32.61-.85 2.26-10.98-.68-11.25 1.67-.18 1.53 4.05 3.44 9.57 7.93 5.33 4.33 12.96 11.94 11.66 14.07-1.93 3.17-22.46-7.79-25.31-3.89-1.59 2.17 4.01 6.62 3.1 8.52-3.48 7.25-99.99-24.9-102.76-45.98-1.68-12.8 31.16-22.01 61.36-14.94Z"/><path class="clsw2-5" d="M885.8 630.33c28.12-10.35 61.64-6.5 62.53-2.45.51 2.33-9.56 5.45-8.51 7.54.68 1.36 5.25.63 12.3 1.31 6.8.66 17.31 2.76 17.37 5.23.1 3.67-23.01 5.87-23.29 10.65-.15 2.66 6.94 3.27 7.2 5.34 1.01 7.89-97.16 34.22-110.89 18.33-8.34-9.65 14.17-35.25 43.28-45.95Zm-81.24-11.96c-13.77-24.68-40.77-40.81-44.08-37.99-1.9 1.62 3.41 9.98 1.27 11.09-1.39.72-4.25-2.51-9.85-6.01-5.4-3.37-14.46-7.69-16.12-5.7-2.48 2.96 12.96 18.06 10.03 22.15-1.63 2.27-7.21-1.31-8.76.24-5.91 5.9 48.56 84.01 69 78.86 12.42-3.13 12.76-37.1-1.49-62.65Z"/><path class="clsw2-5" d="M753.79 657.01c-28.9-6.3-61.95-.46-62.5 2.96-.31 1.96 9.98 3.74 9.12 5.55-.56 1.18-5.18.94-12.15 2.06-6.72 1.09-17 3.66-16.86 5.7.21 3.04 23.42 3.02 24.1 6.94.38 2.19-6.63 3.25-6.72 4.99-.34 6.6 99.7 20.52 112.03 6.3 7.49-8.64-17.11-27.99-47.02-34.51Z"/><path class="clsw2-5" d="M768.48 704.86c-21.75 16.09-35.37 43.49-32.73 46.24 1.52 1.57 8.86-4.48 9.93-2.62.7 1.21-2.12 4.3-5.08 10.01-2.86 5.5-6.44 14.55-4.6 15.85 2.74 1.95 15.82-14.49 19.59-12.26 2.1 1.24-.94 6.93.5 8.19 5.5 4.79 73.97-56.36 68.68-74.87-3.22-11.24-33.78-7.18-56.29 9.47Z"/><path class="clsw2-5" d="M872.4 723.53c12.14 23.1 11 52.33 7.15 53.53-2.21.69-6-7.64-7.93-6.52-1.26.73-.2 4.58-.32 10.72-.11 5.92-1.34 15.18-3.72 15.5-3.54.48-7.43-19.17-12.06-18.9-2.58.15-2.62 6.32-4.6 6.76-7.54 1.71-40.48-79.95-26.19-93.45 8.68-8.2 35.11 8.44 47.68 32.35Z"/><path class="clsw2-2" d="M749.61 672.94c-.07-1.05 5.23-2.38 8.7-2.94 3.59-.58 5.97-.46 6.26-1.06.45-.93-4.86-1.85-4.7-2.86.28-1.76 17.33-4.78 32.23-1.53 4.97 1.08 9.66 2.86 13.6 4.91-11.57-11.21-24.34-31.1-22.23-33.2.8-.8 3.68 1.05 4.52-.12 1.51-2.11-6.45-9.89-5.17-11.42.86-1.02 5.53 1.2 8.31 2.94 2.89 1.8 4.36 3.47 5.08 3.1 1.1-.57-1.64-4.89-.66-5.72 1.71-1.45 15.63 6.86 22.73 19.59 2.21 3.96 3.73 8.31 4.62 12.51.66-17.41 6.31-41.06 9.13-40.88 1.1.07 1.66 3.74 3.05 3.57 2.49-.3 2.84-12.41 4.77-12.48 1.29-.05 2.76 5.35 3.34 8.86.6 3.65.38 6.05 1.11 6.36 1.13.47 2.42-4.87 3.66-4.68 2.16.33 5.34 17.63.89 32.62-.96 3.23-2.26 6.32-3.78 9.17 4.05-3.49 9.32-6.75 15.1-8.88 14.5-5.33 31.78-3.35 32.24-1.26.26 1.2-4.93 2.81-4.39 3.89.35.7 2.71.32 6.34.67 3.51.34 8.92 1.43 8.96 2.7.05 1.89-11.87 3.03-12.01 5.49-.08 1.37 3.58 1.68 3.71 2.75.28 2.21-14.53 7.23-29.26 10.04 2.34.19 4.72.55 7.07 1.1 15.05 3.52 28.41 14.79 27.65 16.82-.44 1.16-5.66-.35-5.8.86-.09.79 2.09 1.78 4.94 4.09 2.75 2.23 6.68 6.16 6.01 7.25-.99 1.63-11.58-4.02-13.05-2.01-.82 1.12 2.07 3.41 1.6 4.39-1.38 2.89-31.39-6.35-45.64-15.71 1.77 2.12 3.39 4.47 4.71 6.98 6.26 11.91 5.67 26.99 3.69 27.6-1.14.35-3.09-3.94-4.09-3.36-.65.38-.1 2.36-.16 5.53-.06 3.05-.69 7.83-1.92 7.99-1.82.25-3.83-9.89-6.22-9.75-1.33.08-1.35 3.26-2.37 3.49-3.02.69-13.97-24.64-15.22-39.2-7.01 12.82-31.35 33.82-33.68 31.79-.74-.65.82-3.58-.26-4.22-1.94-1.15-8.69 7.33-10.1 6.32-.95-.67.9-5.34 2.37-8.17 1.53-2.94 2.98-4.54 2.62-5.16-.55-.96-4.34 2.16-5.12 1.35-1.36-1.41 5.66-15.54 16.88-23.84 2.04-1.51 4.2-2.81 6.4-3.91-16.94 1.28-47.63-3.59-47.49-6.22.05-.89 3.66-1.44 3.47-2.57-.35-2.02-12.32-2.01-12.43-3.58Zm78.37 10.1c.2-.33.43-.63.69-.88 2.46-2.32 7.69-.77 12.98 3.15-.24-.49-.4-.97-.46-1.45-.36-2.75 2.36-5.17 6.78-6.8-4.83-.01-8.56-.76-10.13-2.58-.87-1-1.08-2.35-.75-3.89-4.16 4.06-8.3 5.86-10.83 3.97-1.27-.95-2.13-2.84-2.68-5.38-.55 4.16-2.09 7.12-4.54 7.74-1.13.29-2.47.07-3.94-.53 1.64 1.94 2.31 3.76 1.71 5.19 5.15-.99 9.42-.54 11.17 1.47Z"/><path class="clsw2-5" d="M808.97 663.29c-3.73 5.44-5.63 8.31-5.07 11.83 1.64 10.23 22.04 13 24.28 13.28 5.3.67 20.54 2.58 25.15-5.89 2.94-5.39.11-12.29-2.58-18.85-2.74-6.69-8.16-19.91-17.84-20.93-9.22-.96-16.55 9.74-23.95 20.54Zm416.77-64.42c-10.96-13.6-15.03-32.93-12.93-34.21 1.2-.73 4.8 4.25 5.77 3.26.63-.64-.62-3.03-1.55-7.08-.89-3.9-1.66-10.13-.31-10.65 2.02-.77 7.53 11.63 10.24 10.86 1.51-.43.53-4.48 1.64-5.03 4.2-2.09 37.03 47.28 30.73 57.97-3.83 6.49-22.24-1.05-33.59-15.13Zm-13.91 37.06c-14.07 10.21-23.11 27.71-21.46 29.48.95 1.02 5.71-2.83 6.37-1.63.43.78-1.4 2.75-3.37 6.39-1.89 3.51-4.3 9.29-3.14 10.14 1.72 1.26 10.27-9.21 12.65-7.76 1.32.8-.69 4.44.21 5.25 3.44 3.1 47.89-35.76 44.75-47.65-1.91-7.22-21.44-4.77-36.01 5.79Z"/><path class="clsw2-5" d="M1214.15 604.1c-17.27.78-34.31 10.36-33.89 12.73.24 1.36 6.29.77 6.19 2.12-.07.88-2.66 1.51-6.28 3.46-3.49 1.88-8.63 5.36-8.12 6.7.75 1.99 13.56-2.03 14.76.47.66 1.39-2.99 3.3-2.67 4.47 1.19 4.45 59.33-3.52 63.17-15.09 2.33-7.03-15.28-15.66-33.15-14.85Zm40.72-24.63c1.94-16.29 12.81-30.97 15.2-30.21 1.37.44.37 6.1 1.75 6.22.9.08 1.72-2.29 3.94-5.42 2.14-3.02 6.03-7.36 7.35-6.67 1.97 1.02-2.96 12.57-.5 14.09 1.37.85 3.56-2.32 4.73-1.84 4.45 1.83-7.5 55.82-19.53 57.66-7.31 1.11-14.93-16.97-12.93-33.83Z"/><path class="clsw2-5" d="M1290.43 588.73c14.04-9.86 32.95-14.15 33.99-12.45.6.98-4.51 4.24-3.65 5.02.56.5 2.97-.66 6.93-1.62 3.82-.93 9.87-1.86 10.25-.74.55 1.67-11.84 6.87-11.34 9.12.28 1.25 4.25.25 4.68 1.16 1.63 3.45-48.69 33.36-58.38 28.52-5.89-2.94 3-18.81 17.52-29.01"/><path class="clsw2-5" d="M1293.07 617.61c15.13 3.72 28.4 15.31 27.59 17.37-.46 1.18-5.71-.41-5.87.83-.11.8 2.07 1.83 4.9 4.21 2.73 2.3 6.62 6.33 5.93 7.44-1.04 1.66-11.62-4.19-13.14-2.16-.85 1.13 2.02 3.49 1.53 4.49-1.88 3.79-51.81-13.53-53.04-24.61-.75-6.73 16.45-11.42 32.1-7.57"/><path class="clsw2-5" d="M1241.72 650.92c-1.42 15.07 5.6 30.45 7.91 30.23 1.33-.13 1.53-5.43 2.8-5.27.83.11 1.11 2.4 2.52 5.66 1.36 3.14 4.04 7.82 5.38 7.45 1.99-.54-.24-11.92 2.29-12.82 1.41-.5 2.78 2.79 3.94 2.58 4.4-.78 4.08-51.84-6.5-55.85-6.42-2.44-16.88 12.4-18.35 28Z"/><path class="clsw2-2" d="M1296.14 596.31c-.19-.58-3.31-.1-5.28.38-2.04.5-3.29 1.1-3.57.84-.44-.4 2.19-2.08 1.88-2.59-.54-.88-10.29 1.33-17.53 6.42-2.42 1.7-4.53 3.7-6.18 5.68 3.72-8.59 6.17-22.09 4.58-22.74-.6-.25-1.73 1.39-2.44.95-1.27-.79 1.27-6.74.26-7.27-.68-.35-2.69 1.88-3.79 3.44-1.15 1.61-1.57 2.83-2.03 2.8-.71-.06-.2-2.98-.9-3.21-1.23-.39-6.84 7.18-7.84 15.58-.31 2.61-.17 5.28.28 7.73-4.17-9.16-12.36-20.54-13.82-19.81-.57.28-.07 2.37-.84 2.59-1.4.4-4.23-5.99-5.28-5.6-.7.26-.3 3.48.16 5.49.48 2.09 1.12 3.32.8 3.65-.5.51-2.36-2.06-2.98-1.68-1.08.66 1.02 10.63 6.67 17.64 1.22 1.51 2.59 2.87 4.02 4.05a28.6 28.6 0 0 0-10-1.36c-8.91.4-17.69 5.34-17.48 6.56.12.7 3.24.4 3.19 1.09-.03.45-1.37.78-3.24 1.78-1.8.97-4.45 2.77-4.19 3.45.39 1.02 6.99-1.05 7.61.24.34.72-1.54 1.7-1.38 2.31.33 1.25 9.34.6 17.81-1.2-1.21.63-2.4 1.35-3.53 2.17-7.26 5.26-11.92 14.29-11.07 15.2.49.52 2.94-1.46 3.28-.84.22.4-.72 1.42-1.74 3.3-.98 1.81-2.21 4.79-1.62 5.23.89.65 5.3-4.75 6.52-4 .68.41-.36 2.29.11 2.71 1.37 1.23 15.36-10.44 20.91-18.65-.48 1.53-.83 3.15-.98 4.79-.73 7.77 2.89 15.7 4.08 15.59.69-.07.79-2.8 1.45-2.72.43.06.57 1.24 1.3 2.92.7 1.62 2.08 4.03 2.77 3.84 1.03-.28-.12-6.15 1.18-6.61.73-.26 1.43 1.44 2.03 1.33 1.76-.31 2.06-16.31-.47-24.38 6.55 5.28 24.13 11.05 24.93 9.44.26-.51-1.22-1.73-.79-2.32.79-1.05 6.24 1.97 6.77 1.11.36-.57-1.65-2.65-3.06-3.84-1.46-1.23-2.58-1.76-2.53-2.17.08-.64 2.79.18 3.03-.43.42-1.06-6.43-7.04-14.23-8.96-1.42-.35-2.86-.56-4.27-.65 9.32-3.12 24.62-12.61 23.97-13.99-.22-.47-2.27.05-2.41-.6-.26-1.16 6.13-3.84 5.85-4.7Zm-39.6 23c-.18-.13-.37-.24-.56-.31-1.82-.69-4.27 1.31-6.23 4.6.02-.32 0-.61-.07-.88-.41-1.55-2.39-2.23-5.11-2.11 2.57-1.09 4.4-2.33 4.84-3.65.24-.73.06-1.5-.45-2.25 3.11 1.24 5.71 1.27 6.65-.31.47-.79.52-2 .25-3.48 1.2 2.1 2.67 3.34 4.12 3.12.67-.1 1.33-.52 1.99-1.17-.45 1.4-.41 2.53.22 3.16-2.97.63-5.14 1.83-5.64 3.29Z"/><path class="clsw2-5" d="M1262.36 604.48c3.18 2.07 4.83 3.18 5.3 5.19 1.37 5.84-8.91 11.9-10.05 12.55-2.68 1.55-10.39 5.99-14.71 2.5-2.75-2.22-2.75-6.55-2.75-10.65 0-4.19-.01-12.48 4.94-15.19 4.71-2.59 10.96 1.49 17.28 5.61Z"/><path class="clsw2-3" d="M1284.2 820.37c-5.72 9.5 17.25 43.62 48.06 50.72 18.3 4.22 33.27-2.5 56.53-12.95 18.37-8.25 43.28-19.44 42.2-31.44-1.14-12.59-30.67-23.61-55.43-23.81-28.51-.23-35.44 14.01-74.15 14.63-9.69.16-15.1-.64-17.2 2.85Zm41.53-32.68c-10.51 3.52-38.84-26.3-39.09-57.92-.15-18.78 9.66-31.93 24.91-52.38 12.04-16.15 28.37-38.03 39.85-34.37 12.05 3.84 16.4 35.06 11.22 59.28-5.96 27.88-21.36 31.56-30.37 69.21-2.26 9.43-2.65 14.88-6.51 16.17Zm88.55-93.82c-1.71 8.65 24.63 29.93 49.55 28.5 14.81-.85 24.18-9.43 38.74-22.77 11.5-10.54 27.1-24.82 23.05-33.88-4.24-9.51-29.27-11.4-47.82-5.98-21.36 6.24-22.7 18.84-51.45 28.04-7.2 2.3-11.45 2.9-12.08 6.08Zm29.24-58.67c-6.25 6.23-38.56-3.88-51.21-25.41-7.51-12.79-5.57-25.34-2.55-44.87 2.38-15.42 5.61-36.31 15.39-37.98 10.26-1.75 25.72 18.02 31.51 36.47 6.66 21.23-3.08 29.34 5.22 58.36 2.08 7.27 3.94 11.14 1.64 13.43m25.93-66.28c.51 6.91 25.19 18.92 43.98 13.75 11.17-3.07 16.53-11.19 24.87-23.8 6.59-9.96 15.52-23.47 10.51-29.75-5.26-6.6-24.83-3.95-37.9 3.24-15.04 8.28-13.41 18.16-33.49 29.92-5.03 2.94-8.16 4.1-7.97 6.64m19.81-81.66c-6.57 2.2-27.19-15.91-29.69-35.24-1.49-11.49 3.92-19.57 12.33-32.14 6.64-9.93 15.64-23.39 23.37-21.2 8.12 2.3 13.25 21.37 11.67 36.2-1.82 17.08-11.56 19.4-14.64 42.46-.77 5.78-.62 9.11-3.04 9.92"/><path class="clsw2-3" d="M1195.15 869.38c-1.41 0-2.73-.85-3.27-2.24-.7-1.8.2-3.83 2.01-4.52 53.14-20.47 130.06-61.84 194.73-142.68 75.45-94.3 93.38-192.87 97.35-243.23a3.494 3.494 0 0 1 3.76-3.21c1.93.15 3.37 1.84 3.21 3.76-4.04 51.16-22.25 151.29-98.86 247.05-65.65 82.06-143.74 124.06-197.69 144.84-.41.16-.84.23-1.26.23Zm-378.9 955.31c-9.76.88-22.09 34.91-11.06 60.46 6.55 15.18 19.16 22.3 38.77 33.38 15.48 8.75 36.47 20.6 44.46 13.59 8.38-7.35.81-34.04-11.98-51.71-14.73-20.35-28.5-17.86-49.17-45-5.18-6.8-7.43-11.05-11.02-10.72m45 12.48c-8-5.63-1.54-41.23 20.87-57.84 13.31-9.87 27.81-9.75 50.36-9.56 17.8.15 41.94.36 45.32 10.41 3.55 10.54-16.43 29.86-36.41 38.78-22.99 10.26-33.66 1.25-65.22 14.43-7.9 3.3-11.99 5.85-14.93 3.79Zm113.16 14.05c-7.06 3.28-8.47 33.03 5.57 49.97 8.34 10.07 19.35 12.25 36.48 15.65 13.52 2.68 31.85 6.32 36.2-1.25 4.56-7.95-7.16-26.69-20.72-37.03-15.61-11.91-25.29-6.31-46.87-21.93-5.4-3.91-8.05-6.62-10.65-5.41Zm57.11-9.75c-7.7-1.19-17.38-29.38-8.63-49.54 5.2-11.98 15.16-17.13 30.66-25.13 12.24-6.32 28.82-14.89 35.12-8.82 6.61 6.37.59 27.62-9.54 41.31-11.66 15.76-22.53 13.07-38.89 34.04-4.1 5.25-5.88 8.58-8.71 8.14Zm60.8-16.07c-4.66 3.96-.33 27.71 13.17 38.35 8.03 6.32 16.61 5.91 29.97 5.27 10.54-.51 24.84-1.19 26.7-8.01 1.96-7.16-10.15-19.67-22.11-25.2-13.76-6.37-19.96-.08-38.83-8.21-4.73-2.04-7.19-3.66-8.9-2.2m68.58-28.39c-5-3.52-2.87-27.56 9.61-39.39 7.41-7.02 16-7.39 29.36-7.96 10.55-.45 24.84-1.06 27.32 5.56 2.6 6.95-8.31 20.51-19.71 27.1-13.13 7.59-19.87 1.88-37.92 11.69-4.52 2.46-6.82 4.29-8.66 3"/><path class="clsw2-3" d="M959.57 1853.01c-5.72 0-11.52-.12-17.41-.37-92.79-3.92-163.51-37.48-206.5-64.95-1.4-.89-1.8-2.75-.91-4.14.89-1.4 2.75-1.8 4.14-.91 42.37 27.07 112.06 60.14 203.52 64.01 106.69 4.5 186.35-34.02 224.35-57.39a3.003 3.003 0 0 1 3.15 5.11c-36.48 22.44-110.81 58.64-210.34 58.64M527.75 517.2c-2.7 8.66-40.7 11.72-65.55-4.41-14.76-9.58-19.96-22.74-28.04-43.2-6.38-16.16-15.02-38.06-6.21-43.64 9.25-5.86 35.92 7.4 52.17 23.25 18.71 18.25 13.6 30.17 38.37 55.43 6.2 6.33 10.26 9.39 9.27 12.57Zm-4.94-43.87c4.46 8.62 43.05 11.25 64.58-5.13 12.79-9.73 15.3-22.94 19.19-43.46 3.07-16.21 7.24-38.18-2.7-43.66-10.44-5.75-34.37 7.79-47.36 23.8-14.96 18.43-7.43 30.28-27.01 55.8-4.9 6.39-8.33 9.49-6.69 12.66Zm5.78-106.15c-4.73 5.63-36.25-.2-51.51-17.01-9.06-9.98-9.36-20.51-9.82-36.88-.36-12.93-.86-30.45 7.89-32.59 9.18-2.24 26.75 12.89 35.16 27.68 9.68 17.03 2.04 24.49 14.53 47.83 3.13 5.84 5.49 8.9 3.75 10.97m20.63-49.55c-.14 7.28 27.72 22.81 50.49 19.69 13.53-1.86 20.75-9.68 31.98-21.84 8.87-9.6 20.89-22.62 15.65-29.79-5.5-7.52-28.92-7.14-45.15-1.21-18.68 6.82-17.83 17.34-42.84 27.19-6.26 2.47-10.09 3.29-10.14 5.97Zm27.92-51.4c-5.01 3.29-29.18-6.32-37.91-21.14-5.19-8.8-3.2-16.5-.1-28.48 2.45-9.46 5.76-22.28 13.27-22.34 7.88-.07 18.83 13.93 22.47 26.11 4.19 14.03-3.55 18.15 1.57 37.24 1.28 4.78 2.54 7.4.7 8.61m42.3-55.51c2.79 5.39 28.45 9.19 43.14.69 8.73-5.06 10.68-12.77 13.7-24.77 2.39-9.47 5.63-22.31-.88-26.15-6.83-4.03-23.06 2.65-32.06 11.43-10.36 10.11-5.59 17.6-19.17 31.66-3.4 3.52-5.75 5.17-4.72 7.15Z"/><path class="clsw2-3" d="M554.94 601.89a3.5 3.5 0 0 1-3.18-2.03c-21.1-45.72-43.58-118.17-30.81-203.64 14.91-99.79 70.89-164.12 102.93-193.58 1.42-1.31 3.64-1.21 4.95.21a3.5 3.5 0 0 1-.21 4.95c-31.36 28.84-86.15 91.8-100.74 189.46-12.52 83.76 9.54 154.82 30.24 199.68a3.497 3.497 0 0 1-3.17 4.96Z"/><path class="clsw2-2" d="M699.7 1746.27c-.97 0-1.82-.71-1.97-1.7-8.17-53.32-21.98-105.9-41.05-156.28a773.3 773.3 0 0 0-61.04-125.59 2.003 2.003 0 0 1 3.43-2.07 777.3 777.3 0 0 1 61.36 126.25c19.16 50.64 33.04 103.49 41.26 157.09a2 2 0 0 1-1.67 2.28c-.1.02-.21.02-.31.02Z"/><path class="clsw2-2" d="M581.69 1376.65c14.29 20.63 22.48 43.25 27.16 64.03-.5 9.31-1.79 19.37-4.18 30.11-.08-.07-.17-.14-.26-.22.04.13.09.25.12.38-11.81.87-22.46.4-31.98-.93-27.8-16.3-44.37-35.12-53.55-47.41-8.7-11.64-16.94-25.68-21.64-37.18-3.86-9.43-5.33-17.16-2.74-20.44 2.69-3.39 8.63-.69 11.39-5.66 3.83-6.93-4.19-18.58-.65-22.04 1.47-1.42 4.04-.64 8.48.74 6.15 1.91 7.5 4.5 11.2 4.58 4.2.1 6.59-3.15 8.3-4.3 3.54-2.36 10.24.22 18.03 5.96 9.68 7.1 21.07 19.07 30.3 32.39Z"/><path class="clsw2-5" d="M604.4 1470.56c.04.13.09.25.12.38-11.81.87-22.46.4-31.98-.93-25.89-3.59-43.46-13.56-53.47-20.5-16.53-11.48-33.85-29.62-31.36-37.09 1.16-3.47 6.13-3.24 6.97-7.95 1.17-6.58-7.43-13.12-5.66-16.91.73-1.56 2.8-1.74 6.36-2.06.72-.08 1.38-.09 1.98-.08 3.45.03 4.97 1.04 7.29.12 3.08-1.25 4.06-4.51 5.04-5.94 3.98-5.78 21.21-.57 37.4 9.81 2.34 1.5 4.66 3.11 6.91 4.81 28.61 21.61 43.33 55.33 50.4 76.34"/><path class="clsw2-5" d="M600.65 1379.26c4.19 12.32 9.73 33.49 8.2 61.42-.5 9.31-1.79 19.37-4.18 30.11-.08-.07-.17-.14-.26-.22-16.02-13.17-41.23-37.62-54.36-72.49-1.08-2.86-2.06-5.77-2.95-8.66-5.83-19.02-7.31-37.52-2-39.8 1.32-.57 4.13-.59 5.64-3.31.38-.69.57-1.34.65-2.04.24-1.75-.05-3.79.76-7.21.82-3.46 1.31-5.46 2.7-5.75 3.37-.67 7.35 9.8 12.89 10.55 3.98.53 4.58-4.51 7.6-4.66 6.48-.32 18.54 22.22 25.31 42.05Z"/><path class="clsw2-2" d="M584.97 1400.34c-.34.22 7.57 12.51 11.97 31.91 1.73 7.64 3.17 17.48 1.73 17.93-.48.15-1.09-.82-3.16-3.76-2.85-4.06-6.88-9.8-7.26-9.55-.72.48 11.94 21.97 9.09 24.8-.77.77-2.5-.04-4.01-.95-14.11-8.58-31.59-40.47-31.31-40.64s14.78 32.14 30.08 43.51c1.3.97 3.87 2.73 3.69 3.3-.33 1.02-9.64-1.18-17.68-7.83-4.3-3.55-6.46-6.91-6.89-6.5-.53.5 1.98 6.12 6.32 10.35 3.23 3.15 5.81 3.9 5.7 4.42-.22.99-10.2-.83-21.05-5.97-11.51-5.44-17.86-11.7-18-11.44-.2.37 11.84 13.97 28.9 18.89 6.22 1.79 12.74 2.33 14.86 2.5 6.74.53 12.41.15 16.57-.36-.04-.13-.09-.26-.13-.39.09.07.18.15.27.22 3.17-14.25 4.4-27.3 4.43-39-.59-4.53-1.65-10.64-3.73-17.66-6.53-22.09-18.35-37.19-19-36.73-.6.42 9.16 13.33 14.9 35.34 4.7 18.01 4.89 35.13 3.89 35.23-.57.06-1.32-5.35-3.72-13.37-6.2-20.67-16.11-34.47-16.48-34.24Z"/><path class="clsw2-3" d="M700.75 1747.64c-.87 0-1.66-.57-1.92-1.44a390.3 390.3 0 0 0-45.81-100.81 390.5 390.5 0 0 0-70.72-82.56c-.83-.73-.91-2-.18-2.82.73-.83 1.99-.91 2.82-.18a394.6 394.6 0 0 1 71.44 83.4 394.6 394.6 0 0 1 46.28 101.84 2 2 0 0 1-1.92 2.56Z"/><path class="clsw2-1" d="M552.83 1503.48c14.99 11.75 26.08 26.27 34.22 40.22 1.79 6.82 3.17 14.34 3.93 22.6-.07-.03-.16-.06-.24-.1.06.09.12.16.18.25-8.27 3.2-16.01 5.18-23.14 6.29-23.69-5.7-39.9-15.66-49.31-22.51-8.92-6.5-18.06-14.82-24.07-22.08-4.94-5.96-7.77-11.2-6.67-14.13 1.15-3.02 6.03-2.38 6.87-6.56 1.15-5.83-7.28-12.48-5.54-15.74.72-1.34 2.75-1.34 6.25-1.31 4.85.04 6.42 1.61 9.09.86 3.04-.84 4-3.7 4.96-4.91 2-2.47 7.39-2.07 14.3.37 8.58 3.01 19.5 9.16 29.18 16.74Z"/><path class="clsw2-3" d="M590.74 1566.21c.06.09.12.16.18.25-8.27 3.2-16.01 5.18-23.14 6.29-19.39 3.05-34.29-.31-43.06-3.14-14.5-4.67-31.09-13.98-31.03-19.9.03-2.76 3.65-3.67 3.17-7.24-.68-5-8.35-7.84-7.95-10.95.16-1.28 1.61-1.86 4.09-2.87.5-.21.97-.36 1.4-.49 2.48-.73 3.8-.33 5.25-1.5 1.92-1.57 1.87-4.13 2.25-5.38 1.52-5.03 15.08-5.02 29.08-1.07 2.02.57 4.06 1.23 6.06 1.96 25.49 9.34 43.81 30.44 53.72 44.04Z"/><path class="clsw2-3" d="M567.03 1501.23c5.84 7.96 14.69 22.02 20.02 42.47 1.79 6.82 3.17 14.34 3.93 22.6-.07-.03-.16-.06-.24-.1-14.52-6.01-38.23-18.14-55.67-40.4-1.43-1.83-2.81-3.71-4.11-5.6-8.56-12.44-13.88-25.45-10.59-28.24.81-.69 2.83-1.33 3.28-3.61.11-.58.1-1.09 0-1.61-.23-1.31-.91-2.72-1.11-5.36-.21-2.67-.32-4.22.61-4.73 2.26-1.22 7.52 5.47 11.67 4.8 2.98-.49 2.25-4.25 4.38-5.01 4.57-1.64 18.41 11.98 27.83 24.8Z"/><path class="clsw2-1" d="M560.63 1519.83c-.2.23 8.31 7.37 15.93 20.39 3 5.13 6.3 11.9 5.37 12.54-.31.21-.97-.35-3.13-2.02-2.98-2.31-7.19-5.57-7.4-5.3-.4.5 13.62 13.24 12.23 15.89-.38.72-1.8.52-3.09.18-12.09-3.11-31.97-22.29-31.81-22.47s18 19.94 31.58 24.81c1.16.41 3.41 1.12 3.41 1.57 0 .81-7.18 1.24-14.48-1.8-3.9-1.63-6.22-3.57-6.44-3.18-.26.47 2.83 3.98 6.92 6.08 3.04 1.57 5.07 1.55 5.11 1.94.07.76-7.5 1.62-16.47.28-9.5-1.42-15.5-4.55-15.54-4.33-.06.31 11.71 7.49 25.07 7.33 4.87-.06 9.67-1.09 11.23-1.43 4.96-1.09 8.93-2.59 11.8-3.86-.06-.08-.12-.17-.19-.25.08.03.16.07.24.1-1.01-10.96-3.13-20.63-5.8-29.07a88 88 0 0 0-6.74-11.91c-9.77-14.5-21.72-22.8-22.08-22.33-.33.43 9.64 7.61 18.82 22.22 7.52 11.95 11.59 24.24 10.9 24.54-.39.17-2.17-3.57-5.75-8.82-9.2-13.54-19.49-21.33-19.7-21.08Z"/><path class="clsw2-3" d="M688.03 1719.08c-1.11 0-2.12-.74-2.42-1.87a355 355 0 0 1-9.25-49.34c-3.59-31.36-2.93-63.24 1.95-94.77a2.51 2.51 0 0 1 2.85-2.09c1.36.21 2.3 1.49 2.09 2.85-4.81 31.08-5.46 62.52-1.92 93.44 1.87 16.33 4.94 32.69 9.12 48.64.35 1.33-.45 2.7-1.78 3.05-.21.06-.43.08-.64.08Z"/><path class="clsw2-1" d="M704.74 1535.6c-1.91 12.89-6.78 24.39-12.32 33.95-3.45 3.37-7.45 6.74-12.1 9.99 0-.06-.02-.11-.02-.18-.03.06-.06.13-.09.19-4.7-3.83-8.5-7.76-11.57-11.62-4.63-16.01-4.2-29.01-3.32-36.92.84-7.5 2.69-15.75 4.97-21.78 1.87-4.95 4.03-8.41 6.14-8.75 2.19-.34 3.45 2.78 6.22 1.86 3.85-1.29 4.95-8.55 7.48-8.62 1.04-.03 1.73 1.18 2.89 3.27 1.62 2.89 1.22 4.36 2.56 5.69 1.53 1.52 3.55 1.12 4.6 1.29 2.14.35 3.73 3.69 4.62 8.63 1.12 6.12 1.16 14.69-.07 23.01Z"/><path class="clsw2-3" d="M680.3 1579.36c-.03.06-.06.13-.09.19-4.7-3.83-8.5-7.76-11.57-11.62-8.37-10.49-11.42-20.48-12.71-26.65-2.13-10.2-2.22-23.21 1.32-25.17 1.65-.91 3.42.93 5.38-.57 2.74-2.09 1.83-7.61 3.82-8.43.82-.34 1.65.32 3.09 1.46.3.23.54.45.76.67 1.27 1.23 1.48 2.15 2.67 2.61 1.59.61 3.09-.28 3.96-.48 3.5-.8 8.09 7.26 10.48 16.92.35 1.39.64 2.83.89 4.26 3.08 18.31-3.26 36.34-7.99 46.83Z"/><path class="clsw2-3" d="M710.88 1543.28c-2.76 6.17-8.11 16.18-18.46 26.27-3.45 3.37-7.45 6.74-12.1 9.99 0-.06-.02-.11-.02-.18-1.35-10.66-2.16-28.86 5.17-46.76.6-1.47 1.25-2.92 1.94-4.34 4.5-9.29 10.42-16.86 13.2-15.86.69.25 1.75 1.23 3.26.73.38-.13.68-.31.96-.55.7-.58 1.31-1.46 2.81-2.47 1.52-1.03 2.4-1.62 3.02-1.24 1.49.93-.7 6.32 1.1 8.56 1.3 1.61 3.29-.1 4.46.91 2.52 2.16-.89 14.99-5.32 24.93Z"/><path class="clsw2-1" d="M697.66 1545.78c-.2-.04-1.57 7.43-6.72 16.37-2.03 3.52-4.94 7.77-5.63 7.44-.23-.11-.12-.7.14-2.54.36-2.55.88-6.16.64-6.19-.43-.07-3.26 12.57-5.31 12.65-.56.02-.92-.89-1.16-1.78-2.24-8.24 2.42-26.54 2.59-26.51.16.03-5.76 17.45-4.05 27.17.15.83.49 2.4.22 2.56-.48.27-3.17-3.85-3.83-9.21-.35-2.87.02-4.91-.29-4.9-.37 0-1.41 3.03-1.27 6.17.1 2.34.8 3.54.57 3.69-.43.3-3.5-3.91-5.74-9.69-2.37-6.13-2.54-10.75-2.69-10.7-.2.07-.49 9.49 4.13 17.38 1.68 2.87 3.92 5.38 4.65 6.19a41.4 41.4 0 0 0 6.29 5.7c.03-.06.06-.13.09-.2 0 .06.01.12.02.18 6.17-4.31 11.2-8.84 15.31-13.28 1.37-1.93 3.11-4.63 4.8-8.04 5.31-10.71 6.2-20.62 5.8-20.68-.37-.05-1.26 8.3-6.83 18.71-4.56 8.51-10.48 15.1-10.89 14.78-.23-.18 1.38-2.5 3.3-6.4 4.93-10.05 6.08-18.8 5.86-18.84Z"/><path class="clsw2-5" d="M736.17 1693.08c1.46-30.27-12.51-61.41-16.72-61.03-2.42.22-2.38 10.88-4.73 10.51-1.53-.24-2.21-4.87-5.03-11.46-2.72-6.36-7.97-15.84-10.39-15.15-3.6 1.02 1.32 23.98-3.23 25.7-2.54.96-5.29-5.69-7.39-5.32-7.98 1.43-3.57 104.12 16.05 112.5 11.92 5.09 29.92-24.42 31.43-55.75Zm57.01 37.29c29.97-.3 60.34 14.76 59.84 18.93-.29 2.39-10.83 1.95-10.53 4.3.19 1.53 4.75 2.38 11.18 5.43 6.21 2.94 15.42 8.52 14.67 10.89-1.12 3.53-23.67-2.23-25.51 2.23-1.02 2.48 5.47 5.47 5.04 7.54-1.65 7.87-103.04-.42-110.75-20.23-4.68-12.03 25.03-28.78 56.05-29.09Z"/><path class="clsw2-5" d="M757.62 1688.41c24.86-16.73 58.32-20.97 60.15-17.24 1.05 2.14-7.99 7.57-6.47 9.35.98 1.16 5.25-.64 12.26-1.66 6.76-.98 17.47-1.43 18.12.95.97 3.54-20.96 11.17-20.09 15.88.48 2.62 7.51 1.52 8.27 3.47 2.86 7.42-86.24 56.34-103.35 44.17-10.39-7.39 5.38-37.6 31.11-54.92m-81.75 7.7c-19.24-20.7-49.3-29.94-51.85-26.42-1.46 2.02 5.68 8.88 3.87 10.47-1.18 1.03-4.72-1.42-10.99-3.49-6.05-1.99-15.87-4.03-17.02-1.71-1.71 3.46 16.89 14.46 15.01 19.13-1.04 2.6-7.31.44-8.46 2.32-4.34 7.14 67.14 70.06 85.77 60.2 11.32-5.99 3.57-39.07-16.34-60.49Z"/><path class="clsw2-5" d="M635.74 1745.71c-29.57.75-60.29 14.28-60 17.74.16 1.98 10.59 1.26 10.18 3.23-.27 1.28-4.81 2.14-11.31 4.89-6.27 2.65-15.65 7.6-15.02 9.55.93 2.9 23.47-2.64 25.06 1.01.89 2.03-5.67 4.73-5.34 6.44 1.24 6.49 101.72-3.77 110.31-20.51 5.22-10.17-23.27-23.12-53.87-22.35Z"/><path class="clsw2-5" d="M661.39 1788.7c-17.3 20.8-24.02 50.66-20.8 52.69 1.85 1.17 7.54-6.46 9.02-4.91.96 1.01-1.03 4.68-2.56 10.93-1.47 6.02-2.8 15.66-.7 16.49 3.12 1.24 11.93-17.83 16.11-16.57 2.33.7.73 6.96 2.43 7.83 6.48 3.34 58.45-72.34 48.91-89.05-5.8-10.16-34.52 1.06-52.42 22.58Z"/><path class="clsw2-5" d="M766.77 1782.12c17.28 19.55 23.13 48.22 19.67 50.3-1.98 1.19-7.64-6-9.26-4.45-1.05 1.01.89 4.5 2.24 10.49 1.3 5.78 2.3 15.07.08 15.94-3.32 1.3-11.78-16.86-16.21-15.49-2.47.76-1.04 6.76-2.86 7.66-6.92 3.45-58.33-68.04-47.66-84.54 6.48-10.03 36.11-.15 54 20.08Z"/><path class="clsw2-2" d="M635.47 1762.17c-.32-1 4.51-3.56 7.75-4.92 3.35-1.42 5.69-1.86 5.83-2.52.21-1.01-5.16-.64-5.25-1.66-.15-1.78 15.69-8.76 30.94-9.15 5.09-.13 10.06.48 14.38 1.54-13.9-8.14-31.03-24.42-29.48-26.96.59-.97 3.82.14 4.36-1.2.97-2.4-8.62-8.08-7.74-9.86.59-1.2 5.65-.15 8.77.88 3.23 1.07 5.06 2.33 5.67 1.8.93-.82-2.75-4.36-2-5.4 1.31-1.82 16.82 2.95 26.74 13.62 3.09 3.32 5.6 7.19 7.46 11.05-3.5-17.06-3.63-41.38-.85-41.88 1.08-.19 2.5 3.24 3.81 2.74 2.35-.89-.19-12.73 1.67-13.25 1.25-.35 3.96 4.54 5.36 7.81 1.45 3.4 1.8 5.79 2.59 5.91 1.21.19 1.19-5.31 2.44-5.42 2.17-.19 9.38 15.86 8.62 31.47-.16 3.36-.7 6.68-1.49 9.81 3.11-4.36 7.45-8.78 12.55-12.21 12.82-8.63 30.07-10.81 31.02-8.89.54 1.1-4.12 3.9-3.34 4.82.51.6 2.71-.33 6.32-.85 3.49-.5 9.01-.74 9.34.49.5 1.83-10.81 5.76-10.36 8.19.25 1.35 3.87.79 4.26 1.79.8 2.08-12.4 10.48-26.04 16.7 2.32-.37 4.71-.59 7.12-.62 15.45-.15 31.11 7.61 30.86 9.76-.15 1.23-5.58 1.01-5.43 2.22.1.79 2.45 1.23 5.77 2.8 3.2 1.52 7.95 4.39 7.57 5.62-.58 1.82-12.2-1.15-13.15 1.15-.53 1.28 2.82 2.82 2.6 3.89-.66 3.13-32 1.3-48.06-4.41 2.23 1.64 4.36 3.54 6.24 5.66 8.91 10.08 11.92 24.86 10.15 25.94-1.02.62-3.94-3.09-4.77-2.29-.54.52.46 2.32 1.15 5.41.67 2.98 1.19 7.77.04 8.22-1.71.67-6.07-8.69-8.36-7.99-1.27.39-.54 3.48-1.48 3.95-2.77 1.39-19.43-20.61-24.1-34.46-3.76 14.11-22.41 40.3-25.16 38.89-.88-.45-.05-3.68-1.25-4.04-2.16-.65-6.7 9.18-8.31 8.54-1.08-.43-.4-5.4.36-8.5.79-3.22 1.82-5.12 1.32-5.64-.76-.8-3.7 3.13-4.65 2.53-1.66-1.05 1.81-16.44 10.73-27.17 1.62-1.95 3.41-3.73 5.28-5.32-16.15 5.27-47.12 7.83-47.61 5.25-.17-.88 3.21-2.27 2.76-3.32-.82-1.88-12.45.98-12.92-.52Zm78.52-8.82c.12-.37.27-.72.46-1.02 1.84-2.84 7.29-2.58 13.35-.03-.35-.42-.62-.85-.79-1.3-1-2.58 1.07-5.58 4.97-8.22-4.7 1.14-8.49 1.3-10.45-.1-1.08-.77-1.6-2.02-1.66-3.6-3.07 4.93-6.67 7.67-9.57 6.43-1.46-.62-2.75-2.25-3.88-4.59.45 4.17-.33 7.41-2.57 8.6-1.03.55-2.38.66-3.96.42 2.05 1.49 3.14 3.1 2.89 4.63 4.77-2.19 9.02-2.76 11.2-1.23Z"/><path class="clsw2-5" d="M690.84 1738.69c-2.33 6.17-3.49 9.41-2.11 12.7 4.03 9.55 24.5 7.39 26.75 7.13 5.31-.61 20.56-2.38 23.03-11.7 1.57-5.93-2.82-11.96-6.98-17.69-4.25-5.84-12.66-17.4-22.31-16.08-9.19 1.26-13.76 13.39-18.38 25.65Z"/><path class="clsw2-3" d="M1562.91 1335.87c1.01-4.89 17.98-10.33 29.48-4.21 6.83 3.63 9.46 10.14 13.55 20.24 3.23 7.98 7.6 18.8 3.77 22.67-4.01 4.05-16.27-.35-23.91-7.18-8.8-7.86-6.78-14.74-18.45-25.74-2.92-2.76-4.81-3.98-4.44-5.78m3.21 22.91c-2.19-4.15-19.55-1.7-28.83 9.2-5.51 6.48-6.34 13.77-7.62 25.11-1.01 8.96-2.38 21.1 2.2 23.03 4.81 2.02 15.23-7.6 20.69-17.44 6.29-11.33 2.64-16.9 10.84-32.48 2.05-3.9 3.52-5.9 2.71-7.43Zm-.18 57.22c1.99-3.48 16.25-3.52 23.47 3.92 4.29 4.42 4.66 10.01 5.24 18.69.46 6.86 1.07 16.16-2.8 18.18-4.07 2.12-12.28-4.2-16.38-11.25-4.72-8.12-1.47-12.86-7.6-24.06-1.53-2.81-2.66-4.2-1.93-5.48m-8.13 28.51c-.1-3.9-12.94-9.4-23.08-5.45-6.02 2.35-9.08 7.24-13.84 14.86-3.76 6.01-8.85 14.16-6.34 17.46 2.63 3.46 13.12.91 20.26-3.87 8.22-5.51 7.6-11.04 18.58-18.8 2.75-1.94 4.45-2.77 4.41-4.2Zm-11.35 30.22c2.17-2.26 13.22.45 17.47 7.48 2.53 4.18 1.81 8.49.69 15.19-.88 5.29-2.08 12.46-5.44 13.25-3.53.82-8.76-5.55-10.66-11.68-2.2-7.06 1.18-10.04-1.55-19.71-.68-2.42-1.31-3.7-.51-4.52Zm-17.7 33.85c-1.37-2.6-12.96-2.06-19.35 3.95-3.8 3.57-4.5 7.88-5.58 14.59-.86 5.29-2.02 12.47.99 13.87 3.15 1.46 10.28-3.72 14.11-9.31 4.41-6.43 2.11-9.95 7.88-18.81 1.45-2.22 2.46-3.33 1.96-4.29Z"/><path class="clsw2-3" d="M1525.83 1514.2c-.41 0-.82-.12-1.17-.38-.9-.65-1.1-1.9-.45-2.79 13.42-18.56 36.59-57.71 40.93-111.38 3.71-45.97-7.77-81.68-18.07-103.53a1.999 1.999 0 1 1 3.62-1.7c10.5 22.29 22.22 58.71 18.43 105.56-4.41 54.64-28 94.5-41.67 113.4-.39.54-1 .83-1.62.83Z"/></svg>