<svg fill="#727271" xmlns="http://www.w3.org/2000/svg" width="300" height="300" viewBox="0 0 300 300"><path d="m195.11 290.77-7.28 4.88a2.16 2.16 0 0 0-.57 3 2.21 2.21 0 0 0 1.77.92 2.4 2.4 0 0 0 1.2-.35l7.28-4.88a2.14 2.14 0 0 0-2.4-3.54Zm71.74-63.25-7.28 4.87a2.16 2.16 0 0 0-.57 3 2.21 2.21 0 0 0 1.77.92 1.86 1.86 0 0 0 1.2-.35l7.28-4.88a2.13 2.13 0 1 0-2.4-3.53ZM41 176.34l-9.11 6.08a2.15 2.15 0 0 0-.57 3 2.19 2.19 0 0 0 1.77.92 2.14 2.14 0 0 0 1.2-.35l9.12-6.08a2.14 2.14 0 0 0-2.41-3.57m0 92.74-9.11 6.07a2.15 2.15 0 0 0-.57 3 2.19 2.19 0 0 0 1.77.92 2.9 2.9 0 0 0 1.2-.35l9.12-6.08a2.14 2.14 0 0 0-2.41-3.56M147 10.1a2.4 2.4 0 0 0 1.14-.35l7.7-5.16a2.13 2.13 0 0 0-2.4-3.53l-7.64 5.15a2.15 2.15 0 0 0-.56 3 2.19 2.19 0 0 0 1.76.89"/><path d="M275.54 54.77a2.14 2.14 0 0 0-3-.56l-17.1 11.45V31.31a10.18 10.18 0 0 0-10.18-10.18H137.22l-10.39 7a2.4 2.4 0 0 1-1.2.35 2.21 2.21 0 0 1-1.77-.92 2.15 2.15 0 0 1 .57-3l1.41-.92 13.64-8.76a2.1 2.1 0 1 0-2.26-3.54L122 21.2h-8.13l-10.39 7a2.37 2.37 0 0 1-1.2.35 2.19 2.19 0 0 1-1.76-.92 2.15 2.15 0 0 1 .56-3L124 9.25a2.13 2.13 0 1 0-2.4-3.53l-23 15.48H58.2A10.18 10.18 0 0 0 48 31.38v28L31.34 70.46a2.09 2.09 0 0 0-.57 3 2 2 0 0 0 1.77.92 2.6 2.6 0 0 0 1.2-.35l14.35-9.54 3.18-2.12a2.14 2.14 0 1 1 2.41 3.53l-5.52 3.67v7.33l-7 4.66a2.15 2.15 0 0 0-.56 3 2 2 0 0 0 1.77.92 2.34 2.34 0 0 0 1.2-.36l7.35-4.94A2.13 2.13 0 0 1 52.69 84l-4.46 3v65.66l-23.18 15.41a2.15 2.15 0 0 0-.57 3 2 2 0 0 0 1.77.92 2.37 2.37 0 0 0 1.2-.35l25-16.75a2 2 0 0 1 2.62.77 2.16 2.16 0 0 1-.57 3l-6.36 4.24V275a10.09 10.09 0 0 0 9.83 10.11l-5.87 4a2.15 2.15 0 0 0-.57 3 2.06 2.06 0 0 0 1.77.92 2.4 2.4 0 0 0 1.2-.36l23-15.41a2.14 2.14 0 0 1 2.41 3.54l-6.58 4.45h52l-5.58 3.75a2.14 2.14 0 0 0-.56 3 2 2 0 0 0 1.76.91 2.37 2.37 0 0 0 1.2-.35l30.54-20.28a2.15 2.15 0 0 1 3 .56 2.1 2.1 0 0 1-.57 3l-14.21 9.54H217l-4.6 3a2.16 2.16 0 0 0-.63 3 2.11 2.11 0 0 0 1.76 1 2 2 0 0 0 1.13-.36L237 277.35a2.14 2.14 0 1 1 2.33 3.6l-6.78 4.38h13a10.18 10.18 0 0 0 10.18-10.18v-91.1l-4.38 3a2.43 2.43 0 0 1-1.2.35 2.19 2.19 0 0 1-1.77-.92 2.15 2.15 0 0 1 .57-3l24.38-16.33a2.13 2.13 0 1 0-2.4-3.53l-15.48 10.25V91.53l-4.38 3a2.34 2.34 0 0 1-1.21.36 2.22 2.22 0 0 1-1.76-.92 2.15 2.15 0 0 1 .56-3l6.72-4.52 13.71-9.19a2.14 2.14 0 0 0-2.4-3.54l-11.24 7.57v-5.45l-4.38 3a2.34 2.34 0 0 1-1.21.36 2.22 2.22 0 0 1-1.76-.92 2.15 2.15 0 0 1 .56-3l6.72-4.52 19.43-13.08a2.05 2.05 0 0 0 .73-2.91M237 216.07H65a5.23 5.23 0 0 1-5.23-5.24V38.94A5.22 5.22 0 0 1 65 33.71h172a5.22 5.22 0 0 1 5.23 5.23v171.89h.07a5.22 5.22 0 0 1-5.3 5.24"/><path d="m270.45 139.8-7.28 4.88a2.15 2.15 0 0 0-.56 3 2.22 2.22 0 0 0 1.76.92 2.44 2.44 0 0 0 1.21-.36l7.28-4.87a2.14 2.14 0 0 0-2.41-3.54Z"/></svg>