<svg fill="#727271" xmlns="http://www.w3.org/2000/svg" width="300" height="300" viewBox="0 0 300 300"><path d="M64.6 264.36h1.3a.84.84 0 0 1 .84.84v16.37h5.06v-8.92a.83.83 0 0 1 .84-.84h13.47a.84.84 0 0 1 .84.84v8.92H92V265.2a.87.87 0 0 1 .24-.59.83.83 0 0 1 .59-.25h1.31l-14.75-12.88Zm85.1 11.32c0 2.63 2.37 3.76 4.53 3.76 3.65 0 5.66-3.36 5.66-3.36v-2.81a9.8 9.8 0 0 0-5.3-1.39c-2.19 0-4.89 1.17-4.89 3.8"/><path d="M249.18 236.46H50.82a9.7 9.7 0 0 0-9.7 9.7v43.56a9.7 9.7 0 0 0 9.7 9.7h198.44a9.63 9.63 0 0 0 9.62-9.7v-43.56a9.7 9.7 0 0 0-9.7-9.7m-152 29a.85.85 0 0 1-.78.54h-2.72v16.37a.84.84 0 0 1-.84.84h-6.73a.85.85 0 0 1-.84-.84v-8.93h-11.8v8.93a.84.84 0 0 1-.83.84H65.9a.85.85 0 0 1-.84-.84V266h-2.69a.83.83 0 0 1-.55-1.47l17-14.82a.85.85 0 0 1 1.1 0l17 14.83a.85.85 0 0 1 .25.96Z"/></svg>