<svg fill="#727271" xmlns="http://www.w3.org/2000/svg" width="300" height="300" viewBox="0 0 300 300"><path d="M243 1.7H57a10.25 10.25 0 0 0-10.2 10.12v186A10.13 10.13 0 0 0 57 208h186a10.13 10.13 0 0 0 10.12-10.12v-186A10.13 10.13 0 0 0 243 1.7m2.36 193.05a5.46 5.46 0 0 1-5.47 5.47H60.16a5.46 5.46 0 0 1-5.47-5.47V14.93a5.46 5.46 0 0 1 5.47-5.47h179.75a5.46 5.46 0 0 1 5.47 5.47Zm-1.82 44.06h-69.93a2.3 2.3 0 0 1-1.62-.67l-20.55-20.55a2.33 2.33 0 0 0-3.25 0l-20.55 20.55a2.3 2.3 0 0 1-1.62.67H56.09a9.15 9.15 0 0 0-9.16 9.19v41.17a9.16 9.16 0 0 0 9.16 9.16h187.52a9.09 9.09 0 0 0 9.09-9.16V248a9.16 9.16 0 0 0-9.16-9.19"/></svg>