<svg fill="#727271" xmlns="http://www.w3.org/2000/svg" width="300" height="300" viewBox="0 0 300 300"><path d="M55.59 245.23h-6.31a5.48 5.48 0 0 0-5.47 5.47v34a5.48 5.48 0 0 0 5.47 5.47h6.31Zm196.06 0H125v44.91h126.65a5.49 5.49 0 0 0 5.47-5.47v-34a5.49 5.49 0 0 0-5.47-5.44m-138.23-9.65H67a8.45 8.45 0 0 0-8.43 8.42v46.4a8.45 8.45 0 0 0 8.43 8.48h46.4a8.45 8.45 0 0 0 8.45-8.45V244a8.45 8.45 0 0 0-8.43-8.42m-10.78 27.31V285a4 4 0 0 1-3.93 3.93h-17A4 4 0 0 1 77.8 285v-34.58a4 4 0 0 1 3.94-3.93h17a4 4 0 0 1 3.93 3.93Z"/><path d="M90.18 282.07a2.57 2.57 0 0 0-2.59 2.59 2.59 2.59 0 1 0 2.59-2.59m-3.27-29.63h6.53a1.83 1.83 0 0 0 1.82-1.83 1.89 1.89 0 0 0-1.82-1.82H87a1.85 1.85 0 0 0-1.92 1.82 1.83 1.83 0 0 0 1.83 1.83m-6.33 28h19.09v-25.32l-19.09-.19z"/></svg>