<svg fill="#727271" xmlns="http://www.w3.org/2000/svg" width="300" height="300" viewBox="0 0 300 300"><path d="M224.88 93.12h19.39a5 5 0 0 1 5 5v18.73H254V98.12a9.68 9.68 0 0 0-9.68-9.68h-19.44ZM50.73 116.85V98.12a5 5 0 0 1 5-5H73.8v-4.68H55.73a9.68 9.68 0 0 0-9.68 9.68v18.73ZM73.8 291.67H55.73a5 5 0 0 1-5-5v-18.73h-4.68v18.73a9.68 9.68 0 0 0 9.68 9.68H73.8Zm175.47-23.73v18.73a5 5 0 0 1-5 5h-19.39v4.68h19.39a9.68 9.68 0 0 0 9.68-9.68v-18.73ZM244.75 3.65H55.45a9.25 9.25 0 0 0-9.25 9.25v41.56a9.25 9.25 0 0 0 9.25 9.26H126a2.32 2.32 0 0 1 1.64.67l20.74 20.74a2.33 2.33 0 0 0 3.28 0l20.75-20.74a2.28 2.28 0 0 1 1.64-.67h70.58a9.25 9.25 0 0 0 9.25-9.26V12.9a9.18 9.18 0 0 0-9.13-9.25"/></svg>