<svg xmlns="http://www.w3.org/2000/svg" width="300" height="300" viewBox="0 0 511 476"><g fill="#727271"><path fill-rule="evenodd" d="m255.35.6 96.024 133.827L510.148 183.2l-99.4 131.537 2.047 163.999-157.445-52.593-157.445 52.593 2.047-163.999L.553 183.2l158.774-48.773zm-90.798 140.998L14.507 187.69l93.928 124.3-1.934 155.028 148.85-49.722L404.2 467.018l-1.935-155.029 93.93-124.3-150.046-46.09L255.35 15.055z" clip-rule="evenodd"/><path d="M273.38 64.539h-7.854v7.745h7.854zm19.47 8.328h-7.584v7.481h7.585zm-11.474-.45h-7.854v7.746h7.854zm-12.904-23.86h-7.854v7.745h7.854zm-30.97 8.103h-7.853v7.746h7.854zm-.108 19.696h-7.854v7.746h7.854zm23.99-3.939h-7.854v7.746h7.854zm-16.027-8.011h-7.853v7.745h7.853zm-72.32 82.02h-7.853v7.745h7.854zm72.212-70.069h-7.855v7.746h7.855zm7.962-19.697h-7.854v7.746h7.854zm-68.79 74.05h-7.853v7.745h7.853zm-1.263 15.49h-7.854v7.746h7.854z"/><path d="M260.888 56.66h-7.855v7.746h7.855zm-68.612 74.05h-7.854v7.745h7.854zm30.691-54.102h-7.855v7.746h7.855zm-24.1 46.355h-7.856v7.746h7.855zm0 23.237h-7.856v7.746h7.855zm13.988-54.008H205v7.746h7.854zm-6.135 15.28h-7.854v7.746h7.854zm0 7.746h-7.854v7.745h7.854zm0 15.491h-7.854v7.746h7.854zm0 7.746h-7.854v7.745h7.854zm0 7.745h-7.854v7.747h7.854zm7.854-23.237h-7.854v7.746h7.854zm0 15.492h-7.854v7.745h7.854zm7.853-46.474h-7.853v7.746h7.853zm0 7.746h-7.853v7.745h7.853zm0 15.49h-7.853v7.746h7.853zm0 15.492h-7.853v7.746h7.853z"/><path d="M230.282 84.235h-7.854v7.746h7.854zM245.72 49.18h-7.854v7.746h7.854zm-15.437 81.53h-7.854v7.746h7.854zm7.854-30.982h-7.854v7.745h7.854zm0 15.49h-7.854v7.746h7.854zm0 7.746h-7.854v7.746h7.854zm0 15.492h-7.854v7.745h7.854zm7.855-46.474h-7.854v7.746h7.854zm0 7.746h-7.854v7.745h7.854zm0 15.49h-7.854v7.746h7.854zm0 15.492h-7.854v7.746h7.854zm0 7.746h-7.854v7.745h7.854zm-19.625 7.65h-7.855v7.745h7.855zm27.479-23.142h-7.854v7.746h7.854zm0 15.492h-7.854v7.745h7.854zm0 7.745h-7.854v7.746h7.854zm7.854-61.965h-7.854v7.746h7.854zm0 7.746h-7.854v7.746h7.854zm0 23.237h-7.854v7.745h7.854zm0 7.745h-7.854v7.746h7.854zm0 15.492h-7.854v7.745h7.854zm0 7.745h-7.854v7.747h7.854zm-.811-112.604h-7.855v7.745h7.855zm8.665 73.876h-7.855v7.746h7.855z"/><path d="M269.553 115.218h-7.855v7.745h7.855zm0 23.237h-7.855v7.745h7.855zm7.855-54.22h-7.855v7.746h7.855zm0 7.746h-7.855v7.746h7.855zm0 7.746h-7.855v7.745h7.855zm0 30.982h-7.855v7.746h7.855zm0 15.491h-7.855v7.747h7.855z"/><path d="M285.262 91.981h-7.855v7.746h7.855zm0 23.237h-7.855v7.745h7.855zm0 7.745h-7.855v7.746h7.855zm0 23.237h-7.855v7.746h7.855zm7.853-46.473h-7.854v7.745h7.854zm0 7.745h-7.854v7.746h7.854zm0 23.237h-7.854v7.746h7.854zm7.854-46.474h-7.854v7.746h7.854zm0 7.746h-7.854v7.746h7.854zm0 7.746h-7.854v7.745h7.854zm0 15.49h-7.854v7.746h7.854zm0 23.238h-7.854v7.745h7.854zm0 7.745h-7.854v7.746h7.854zm7.855-23.237h-7.855v7.746h7.855zm0 7.746h-7.855v7.746h7.855zm0 7.746h-7.855v7.745h7.855zm6.59-23.237h-7.855v7.745h7.855zm1.264 7.745h-7.854v7.746h7.854zm6.59-7.745h-7.854v7.745h7.854zm1.263 23.237h-7.853v7.745h7.853zm0 7.745h-7.853v7.746h7.853zm-11.819-42.787h-7.854v7.746h7.854zm-31.6-46.753h-7.854v7.746h7.854zm51.274 74.407h-7.855v7.746h7.855z"/><path d="M332.386 130.71h-7.855v7.745h7.855zm7.854 7.745h-7.854v7.745h7.854zm120.363 42.256h-7.854v7.746h7.854z"/><path d="M460.603 187.475h-7.854v7.746h7.854zM340.51 148.92h-7.854v7.746h7.854zm11.25 0h-7.854v7.746h7.853zm116.697 38.556h-7.853v7.746h7.853zm11.392.142h-7.855v7.745h7.855zM260.888 41.077h-7.854v7.745h7.854zM119.577 407.898h-7.854v7.745h7.854zm15.655 25.72h-7.854v7.746h7.854zm7.855-13.621h-7.855v7.746h7.855zm0 21.367h-7.855v7.746h7.855zm-23.51-21.367h-7.854v7.746h7.854zm31.363 13.622h-7.854v7.745h7.854z"/><path d="M150.94 441.365h-7.854v7.746h7.854zm3.77-21.278h-7.855v7.745h7.854zm11.939-1.248h-7.855v7.746h7.855zm-1.896 14.78h-7.854v7.746h7.854zm9.75-14.78h-7.854v7.746h7.854zm-1.897 14.78h-7.853v7.746h7.853zm9.751-7.122h-7.854v7.746h7.854z"/><path d="M190.102 418.84h-7.854v7.745h7.854zm7.963 7.657h-7.854v7.746h7.854zm7.854-7.658h-7.854v7.746h7.854zm11.36 0h-7.854v7.746h7.854zm173.385.892h-7.855v7.746h7.855zm-155.057-6.502h-7.854v7.745h7.854zm63.833 5.61h-7.854v7.746h7.854zm13.905 4.987h-7.855v7.746h7.855zm10.386-3.828h-7.854v7.746h7.854zm7.854 0h-7.854v7.746h7.854zm0 7.746h-7.854v7.745h7.854zm7.855-7.746h-7.855v7.746h7.855zm7.853 15.491h-7.853v7.746h7.853zm7.855-7.745h-7.855v7.745h7.855z"/><path d="M355.057 420.087h-7.854v7.745h7.854zm7.945 15.402h-7.855v7.746h7.855zm7.854-15.491h-7.854v7.746h7.854zm0 7.746h-7.854v7.745h7.854zm7.854-7.746h-7.854v7.746h7.854zm0 23.237h-7.854v7.746h7.854z"/><path d="M386.025 447.514h-7.853v7.746h7.853zm.54-12.025h-7.856v7.746h7.855zm1.452-27.699v7.726h7.875v-7.726zm0-40.846v7.726h7.875v-7.726zm0 33.12v7.726h7.875v-7.726zm4.691 27.608v7.727h7.874v-7.727zm0-7.726v7.726h7.874v-7.726zm0 27.208v7.726h7.874v-7.726zm0-7.726v7.726h7.874v-7.726zm-4.69-100.086v7.726h7.874v-7.726zm48.93-116.242v7.726h7.875V223.1zm22.12-8.727v7.727h7.875v-7.727zm-66.36 100.786v7.726h7.874v-7.726zm72.05-115.747v7.726h7.873v-7.726zm-72.05 108.021v7.726h7.874v-7.726zm8.677-15.452v7.726h7.873v-7.726z"/><path d="M393.972 292.295v7.726h7.874v-7.726zm7.413-8.04v7.727h7.873v-7.727zm-7.875-7.726v7.726h7.875v-7.726zm15.747 0v7.726h7.874v-7.726zm-15.747-7.726v7.726h7.875v-7.726zm23.622 0v7.726h7.875v-7.726zm-15.747-7.726v7.726h7.873v-7.726z"/><path d="M409.257 261.077v7.726h7.874v-7.726zm15.684-.574v7.727h7.873v-7.727z"/><path d="M409.257 253.351v7.726h7.874v-7.726zm7.875 0v7.726h7.875v-7.726zm-23.622-7.726v7.726h7.875v-7.726zm39.37 0v7.726h7.873v-7.726zm-31.495-7.726v7.726h7.873V237.9z"/><path d="M409.257 237.9v7.725h7.874V237.9zm7.875 0v7.725h7.875V237.9zm7.875 0v7.725h7.873V237.9zm7.873 0v7.725h7.873V237.9z"/><path d="M440.741 238.062v7.726h7.873v-7.726zm-39.356-7.889v7.726h7.873v-7.726z"/><path d="M409.257 230.173v7.726h7.874v-7.726zm-15.747-7.726v7.726h7.875v-7.726zm15.747 0v7.726h7.874v-7.726zm39.372 0v7.726h7.873v-7.726zm-55.119-7.726v7.726h7.875v-7.726zm7.875 0v7.726h7.873v-7.726z"/><path d="M409.257 214.721v7.726h7.874v-7.726zm39.372 0v7.726h7.873v-7.726zm-55.119-7.726v7.726h7.875v-7.726zm15.747 0v7.726h7.874v-7.726zm15.75 0v7.726h7.873v-7.726zm0 15.95v7.726h7.873v-7.726zm7.873-15.95v7.726h7.873v-7.726zm7.875 0v7.726h7.874v-7.726zm-31.498-7.726v7.726h7.874v-7.726zm31.498 0v7.726h7.874v-7.726zm-39.37-7.726v7.726h7.873v-7.726zm15.747 0v7.726h7.875v-7.726zm-7.875-7.726v7.726h7.874v-7.726zm15.75 0v7.726h7.873v-7.726zm-31.497-7.726v7.726h7.875v-7.726zm7.875 0v7.726h7.873v-7.726zm-7.875-7.727v7.726h7.875v-7.726zm24.136 7.606v7.726h7.874v-7.726zm19.14 8.061v7.726h7.874v-7.726zm-27.014-15.787v7.726h7.874v-7.726zm43.008 30.887v7.726h7.874v-7.726zM124.582 407.87v7.727h-7.874v-7.726zm0-7.725v7.726h-7.874v-7.726zm0 27.525v7.726h-7.874v-7.726zm0-7.726v7.726h-7.874v-7.726zM63.088 228.71v7.727h-7.875v-7.727zm64.022 148.258v7.726h-7.874v-7.726zm0-7.726v7.726h-7.874v-7.726zM63.088 189.438v7.727h-7.875v-7.727zm-27.808 0v7.727h-7.875v-7.727zm83.956 172.077v7.726h-7.874v-7.726z"/><path d="M119.236 353.79v7.726h-7.874v-7.726zM51.08 189.438v7.727h-7.875v-7.727zm12.007-9.974v7.726h-7.874v-7.726zm56.149 166.6v7.726h-7.874v-7.726zM53.49 214.888v7.726h-7.874v-7.726zm73.62 123.448v7.726h-7.875v-7.726zm-7.875-7.726v7.726h-7.874v-7.726zM43.206 189.44v8.727h-8.217v-8.727zm83.904 125.72v7.725h-7.874v-7.726zm-7.874 0v7.725h-7.874v-7.726z"/><path d="M43.205 197.542v7.48H34.99v-7.48zm83.905 109.89v7.726h-7.874v-7.726zm-7.874 0v7.726h-7.874v-7.726zM51.08 205.022v7.727h-7.875v-7.726zm68.156 86.958v7.726h-7.874v-7.726z"/><path d="M111.363 291.98v7.726h-7.875v-7.726zm7.873-7.726v7.726h-7.874v-7.726zm5.346-7.726v7.726h-7.874v-7.726zm-15.748 0v7.726h-7.873v-7.726zm-7.874 0v7.726h-7.875v-7.726zm-7.536-10.415v7.726h-7.872v-7.726h7.873Zm-31.703-59.104v7.726h-7.873v-7.726zm62.86 61.793v7.726h-7.873v-7.726z"/><path d="M100.96 268.802v7.726h-7.875v-7.726zm15.746-7.726v7.726h-7.873v-7.726z"/><path d="M108.834 261.076v7.726h-7.873v-7.726zM85.84 258.01v7.726h-7.874v-7.726zm22.994-4.659v7.726h-7.873v-7.726zm-7.874 0v7.726h-7.875v-7.726zm-13.856-79.496v7.726h-7.873v-7.726zm37.478 71.77v7.726h-7.874v-7.726zm-39.37 0v7.726h-7.874v-7.726zm31.494-7.726v7.726h-7.873v-7.726z"/><path d="M108.834 237.898v7.726h-7.873v-7.726zm-7.874 0v7.726h-7.875v-7.726zm-7.875 0v7.726h-7.873v-7.726zm-7.873 0v7.726h-7.874v-7.726zm-14.54-1.083v7.726h-7.874v-7.726zm46.034-6.643v7.726h-7.873v-7.726z"/><path d="M108.834 230.172v7.726h-7.873v-7.726zm15.748-7.726v7.726h-7.874v-7.726zm-15.748 0v7.726h-7.873v-7.726zm-39.37 0v7.726H61.59v-7.726zm55.118-7.726v7.726h-7.874v-7.726zm-7.876 0v7.726h-7.873v-7.726z"/><path d="M108.834 214.72v7.726h-7.873v-7.726zm-39.37 0v7.726H61.59v-7.726zm55.118-7.726v7.726h-7.874v-7.726zm-15.748 0v7.726h-7.873v-7.726zm-15.749 0v7.726h-7.873v-7.726zm0 15.95v7.726h-7.873v-7.726zm-7.873-15.95v7.726h-7.874v-7.726zm-7.874 0v7.726h-7.874v-7.726zm31.496-7.727v7.726h-7.873v-7.726zm-31.496 0v7.726h-7.874v-7.726zm39.368-7.726v7.726h-7.873v-7.726zm-15.746 0v7.726h-7.875v-7.726zm7.874-7.726v7.726h-7.873v-7.726zm-15.749 0v7.726h-7.873v-7.726zm31.497-7.726v7.726h-7.874v-7.726zm-7.876 0v7.726h-7.873v-7.726zm7.876-7.726v7.726h-7.874v-7.726zm-23.778 1.88v7.726h-7.873v-7.726zm-25.076 9.221v7.726h-7.874v-7.726zm369.074-3.117h-7.853v7.746h7.853z"/><path d="M85.46 191.252h-7.856v7.746h7.854v-7.746Zm27.537-26.749h-7.855v7.747h7.855zm6.32 271.167h-7.853v7.746h7.853zm0 15.584h-7.853V459h7.853zm8.218-8.103h-7.854v7.746h7.854z"/></g></svg>