<svg fill="#727271" xmlns="http://www.w3.org/2000/svg" width="300" height="300" viewBox="0 0 300 300"><path d="M253.83.69H46.09A11.28 11.28 0 0 0 34.77 12v207.83a11.33 11.33 0 0 0 11.32 11.31h207.82a11.33 11.33 0 0 0 11.32-11.31V12A11.41 11.41 0 0 0 253.83.69m2.64 215.59a6.1 6.1 0 0 1-6.11 6.11H49.55a6.1 6.1 0 0 1-6.11-6.11V15.47a6.1 6.1 0 0 1 6.11-6.11h200.81a6.09 6.09 0 0 1 6.11 6.11Z"/><path d="M64.42 246.09A23.53 23.53 0 1 0 88 269.62a23.47 23.47 0 0 0-23.53-23.53Z" fill="none"/><path d="M74.57 254.59v29.73a3.39 3.39 0 0 1-3.38 3.38H56.57a3.39 3.39 0 0 1-3.38-3.38v-29.73a3.39 3.39 0 0 1 3.38-3.38h14.62a3.46 3.46 0 0 1 3.38 3.38m-15.11.17a1.57 1.57 0 0 0 1.54 1.57h5.62a1.57 1.57 0 0 0 1.56-1.57 1.62 1.62 0 0 0-1.56-1.57h-5.51a1.59 1.59 0 0 0-1.65 1.57M72 258.64l-16.43-.17v22H72Zm-10.4 25.43a2.23 2.23 0 1 0 2.23-2.23 2.22 2.22 0 0 0-2.22 2.23Z"/><path d="M74.57 254.59v29.73a3.39 3.39 0 0 1-3.38 3.38H56.57a3.39 3.39 0 0 1-3.38-3.38v-29.73a3.39 3.39 0 0 1 3.38-3.38h14.62a3.46 3.46 0 0 1 3.38 3.38m-15.11.17a1.57 1.57 0 0 0 1.54 1.57h5.62a1.57 1.57 0 0 0 1.56-1.57 1.62 1.62 0 0 0-1.56-1.57h-5.51a1.59 1.59 0 0 0-1.65 1.57M72 258.64l-16.43-.17v22H72Zm-10.4 25.43a2.23 2.23 0 1 0 2.23-2.23 2.22 2.22 0 0 0-2.22 2.23Z" fill="none"/><path d="M235.5 240H64.42a29.68 29.68 0 0 0 0 59.36h171a29.68 29.68 0 0 0 .08-59.36M64.42 293.15A23.53 23.53 0 1 1 88 269.62a23.47 23.47 0 0 1-23.58 23.53"/></svg>