<svg fill="#727271" xmlns="http://www.w3.org/2000/svg" width="300" height="300" viewBox="0 0 300 300"><path d="M239.42 299.62H60.58a19.39 19.39 0 0 1-19.36-19.36V91.42h1a19.68 19.68 0 0 0 0-39.34h-1V20.94C41.22 10.06 50.27.52 60.58.52h178.84c10.31 0 19.36 9.54 19.36 20.42V52h-1.2a19.7 19.7 0 0 0 0 39.39h1.19v188.87a19.39 19.39 0 0 1-19.35 19.36M43.34 93.46v186.8a17.25 17.25 0 0 0 17.24 17.24h178.84a17.25 17.25 0 0 0 17.24-17.24V93.51a21.81 21.81 0 0 1 0-43.58v-29c0-9.75-8.06-18.3-17.24-18.3H60.58c-9.18 0-17.24 8.55-17.24 18.3V50a21.79 21.79 0 0 1 0 43.47Z"/><path d="M225.62 72.63h-5.29v-2.12h5.29Zm-10.58 0h-5.29v-2.12H215Zm-10.58 0h-5.29v-2.12h5.29Zm-10.58 0h-5.29v-2.12h5.29Zm-10.58 0H178v-2.12h5.29Zm-10.58 0h-5.29v-2.12h5.29Zm-10.58 0h-5.29v-2.12h5.29Zm-10.58 0h-5.28v-2.12h5.28Zm-10.57 0h-5.29v-2.12h5.3Zm-10.58 0h-5.29v-2.12h5.29Zm-10.58 0h-5.29v-2.12h5.29Zm-10.58 0H104v-2.12h5.29Zm-10.58 0h-5.29v-2.12h5.29Zm-10.58 0H82.8v-2.12h5.29Zm-10.58 0h-5.29v-2.12h5.29Z"/></svg>