<svg xmlns="http://www.w3.org/2000/svg" width="300" height="300" viewBox="0 0 634 489"><g clip-path="url(#a)"><path stroke="#727271" stroke-width="4" d="M17.296 475.749 321.5 3.689l304.204 472.06z" fill="none"/><g fill="#727271" clip-path="url(#b)"><path d="M372.952 110.025a4.58 4.58 0 1 1-.002-9.158 4.58 4.58 0 0 1 .002 9.158m0 27.479a4.58 4.58 0 1 1-.001-9.159 4.58 4.58 0 0 1 .001 9.159"/><path d="M372.952 146.664a4.58 4.58 0 1 1 0-9.16 4.58 4.58 0 0 1 0 9.16"/><path d="M372.952 155.823a4.58 4.58 0 1 1-.001-9.159 4.58 4.58 0 0 1 .001 9.159m0 18.319a4.58 4.58 0 1 1-.002-9.158 4.58 4.58 0 0 1 .002 9.158"/><path d="M372.952 183.302a4.58 4.58 0 1 1 0-9.16 4.58 4.58 0 0 1 0 9.16m0 18.319a4.58 4.58 0 1 1-.001-9.159 4.58 4.58 0 0 1 .001 9.159m-9.16-100.755a4.58 4.58 0 1 1 0-9.16 4.58 4.58 0 0 1 0 9.16"/><path d="M363.792 110.025a4.58 4.58 0 1 1 0-9.16 4.58 4.58 0 0 1 0 9.16m0 9.16a4.58 4.58 0 1 1 0-9.16 4.58 4.58 0 0 1 0 9.16m0 18.319a4.58 4.58 0 1 1 0-9.16 4.58 4.58 0 0 1 0 9.16"/><path d="M363.792 146.664a4.58 4.58 0 1 1 .001-9.161 4.58 4.58 0 0 1-.001 9.161m0 36.638a4.58 4.58 0 1 1 0-9.16 4.58 4.58 0 0 1 0 9.16m0 18.319a4.58 4.58 0 1 1 0-9.16 4.58 4.58 0 0 1 0 9.16m-9.159-91.596a4.58 4.58 0 1 1-.002-9.158 4.58 4.58 0 0 1 .002 9.158"/><path d="M354.633 119.185a4.58 4.58 0 1 1 0-9.16 4.58 4.58 0 0 1 0 9.16m0 27.479a4.58 4.58 0 1 1 0-9.16 4.58 4.58 0 0 1 0 9.16"/><path d="M354.633 155.823a4.58 4.58 0 1 1-.001-9.159 4.58 4.58 0 0 1 .001 9.159m0 36.639a4.58 4.58 0 1 1 0-9.16 4.58 4.58 0 0 1 0 9.16m-9.16-119.075a4.58 4.58 0 1 1 0-9.16 4.58 4.58 0 0 1 0 9.16m0 36.638a4.58 4.58 0 1 1 0-9.16 4.58 4.58 0 0 1 0 9.16m17.682-18.743a4.58 4.58 0 1 1 0-9.16 4.58 4.58 0 0 1 0 9.16"/><path d="M353.995 91.282a4.58 4.58 0 1 1 0-9.159 4.58 4.58 0 0 1 0 9.16Z"/><path d="M344.836 91.282a4.58 4.58 0 1 1 0-9.16 4.58 4.58 0 0 1 0 9.16m.637 27.903a4.58 4.58 0 1 1 0-9.16 4.58 4.58 0 0 1 0 9.16"/><path d="M345.473 128.345a4.58 4.58 0 1 1 .001-9.161 4.58 4.58 0 0 1-.001 9.161"/><path d="M345.473 137.504a4.58 4.58 0 1 1 0-9.16 4.58 4.58 0 0 1 0 9.16"/><path d="M345.473 146.664a4.58 4.58 0 1 1 .001-9.161 4.58 4.58 0 0 1-.001 9.161m0 18.319a4.58 4.58 0 1 1 .001-9.161 4.58 4.58 0 0 1-.001 9.161m0 18.319a4.58 4.58 0 1 1 0-9.16 4.58 4.58 0 0 1 0 9.16"/><path d="M345.473 192.462a4.58 4.58 0 1 1 .001-9.161 4.58 4.58 0 0 1-.001 9.161m-9.159-119.075a4.58 4.58 0 1 1 0-9.159 4.58 4.58 0 0 1 0 9.16Z"/><path d="M336.314 82.547a4.58 4.58 0 1 1 0-9.16 4.58 4.58 0 0 1 0 9.16m0 18.319a4.58 4.58 0 1 1 0-9.16 4.58 4.58 0 0 1 0 9.16m0 18.319a4.58 4.58 0 1 1 0-9.16 4.58 4.58 0 0 1 0 9.16m0 9.16a4.58 4.58 0 1 1 0-9.16 4.58 4.58 0 0 1 0 9.16m0 18.319a4.58 4.58 0 1 1 0-9.16 4.58 4.58 0 0 1 0 9.16"/><path d="M336.314 155.823a4.58 4.58 0 1 1-.001-9.159 4.58 4.58 0 0 1 .001 9.159m-9.16-109.915a4.58 4.58 0 1 1 0-9.16 4.58 4.58 0 0 1 0 9.16m0 9.16a4.58 4.58 0 1 1 0-9.16 4.58 4.58 0 0 1 0 9.16m0 18.319a4.58 4.58 0 1 1 0-9.16 4.58 4.58 0 0 1 0 9.16m0 9.16a4.58 4.58 0 1 1 0-9.16 4.58 4.58 0 0 1 0 9.16m0 27.478a4.58 4.58 0 1 1 0-9.16 4.58 4.58 0 0 1 0 9.16m0 9.16a4.58 4.58 0 1 1 0-9.16 4.58 4.58 0 0 1 0 9.16"/><path d="M327.154 128.345a4.58 4.58 0 1 1 .001-9.161 4.58 4.58 0 0 1-.001 9.161"/><path d="M327.154 137.504a4.58 4.58 0 1 1 0-9.16 4.58 4.58 0 0 1 0 9.16m0 18.319a4.58 4.58 0 1 1 0-9.16 4.58 4.58 0 0 1 0 9.16m0 18.319a4.58 4.58 0 1 1 0-9.16 4.58 4.58 0 0 1 0 9.16m0 18.32a4.58 4.58 0 1 1 .001-9.161 4.58 4.58 0 0 1-.001 9.161m-9.16-137.394a4.58 4.58 0 1 1 0-9.16 4.58 4.58 0 0 1 0 9.16m-.069 40.41a4.58 4.58 0 1 1 0-9.159 4.58 4.58 0 0 1 0 9.16Zm.069 32.867a4.58 4.58 0 1 1 .001-9.161 4.58 4.58 0 0 1-.001 9.161m0 73.276a4.58 4.58 0 1 1 0-9.16 4.58 4.58 0 0 1 0 9.16m-9.159-155.713a4.58 4.58 0 1 1 0-9.159 4.58 4.58 0 0 1 0 9.16Zm0 27.479a4.58 4.58 0 1 1 0-9.159 4.58 4.58 0 0 1 0 9.16Zm0 45.798a4.58 4.58 0 1 1 0-9.16 4.58 4.58 0 0 1 0 9.16"/><path d="M308.835 128.345a4.58 4.58 0 1 1 0-9.16 4.58 4.58 0 0 1 0 9.16"/><path d="M308.835 137.504a4.58 4.58 0 1 1 0-9.159 4.58 4.58 0 1 1 0 9.159"/><path d="M308.835 146.664a4.58 4.58 0 1 1 0-9.16 4.58 4.58 0 0 1 0 9.16"/><path d="M308.835 155.823a4.58 4.58 0 1 1 0-9.159 4.58 4.58 0 1 1 0 9.159m-9.16-82.436a4.58 4.58 0 1 1 0-9.16 4.58 4.58 0 0 1 0 9.16m0 9.16a4.58 4.58 0 1 1 0-9.16 4.58 4.58 0 0 1 0 9.16m-.07 12.931a4.58 4.58 0 1 1 0-9.16 4.58 4.58 0 0 1 0 9.16m.07 32.867a4.58 4.58 0 1 1 .001-9.161 4.58 4.58 0 0 1-.001 9.161"/><path d="M299.675 137.504a4.58 4.58 0 1 1 0-9.16 4.58 4.58 0 0 1 0 9.16m0 27.479a4.58 4.58 0 1 1 .001-9.161 4.58 4.58 0 0 1-.001 9.161m0 27.479a4.58 4.58 0 1 1 .001-9.161 4.58 4.58 0 0 1-.001 9.161"/><path d="M299.675 201.621a4.58 4.58 0 1 1 0-9.16 4.58 4.58 0 0 1 0 9.16m-9.16-128.234a4.58 4.58 0 1 1 0-9.159 4.58 4.58 0 0 1 0 9.16Z"/><path d="M290.515 82.547a4.58 4.58 0 1 1 0-9.16 4.58 4.58 0 0 1 0 9.16m0 54.957a4.58 4.58 0 1 1 0-9.158 4.58 4.58 0 0 1 0 9.158m0 18.319a4.58 4.58 0 1 1 0-9.158 4.58 4.58 0 0 1 0 9.158m0 18.319a4.579 4.579 0 1 1 0-9.159 4.58 4.58 0 1 1 0 9.159m0 18.32a4.58 4.58 0 1 1 .001-9.16 4.58 4.58 0 0 1-.001 9.16"/><path d="M290.515 201.621a4.58 4.58 0 1 1 0-9.158 4.58 4.58 0 0 1 0 9.158m-9.159-100.755a4.58 4.58 0 1 1 0-9.16 4.58 4.58 0 0 1 0 9.16"/><path d="M281.356 110.025a4.58 4.58 0 1 1 0-9.16 4.58 4.58 0 0 1 0 9.16m0 27.479a4.58 4.58 0 1 1 0-9.16 4.58 4.58 0 0 1 0 9.16m0 18.319a4.58 4.58 0 1 1 0-9.16 4.58 4.58 0 0 1 0 9.16"/><path d="M281.356 164.983a4.58 4.58 0 1 1 .001-9.161 4.58 4.58 0 0 1-.001 9.161m0 18.319a4.58 4.58 0 1 1 0-9.16 4.58 4.58 0 0 1 0 9.16"/><path d="M281.356 192.462a4.58 4.58 0 1 1 .001-9.161 4.58 4.58 0 0 1-.001 9.161"/><path d="M281.356 201.621a4.58 4.58 0 1 1 0-9.16 4.58 4.58 0 0 1 0 9.16m-9.16-100.755a4.58 4.58 0 1 1 0-9.159 4.58 4.58 0 0 1 0 9.159m0 27.479a4.58 4.58 0 1 1 .001-9.16 4.58 4.58 0 0 1-.001 9.16m0 45.797a4.579 4.579 0 1 1 0-9.159 4.58 4.58 0 1 1 0 9.159m0 18.32a4.58 4.58 0 1 1 .001-9.16 4.58 4.58 0 0 1-.001 9.16"/><path d="M263.037 128.345a4.58 4.58 0 1 1 .001-9.161 4.58 4.58 0 0 1-.001 9.161"/><path d="M263.037 137.504a4.58 4.58 0 1 1 0-9.16 4.58 4.58 0 0 1 0 9.16"/><path d="M263.037 146.664a4.58 4.58 0 1 1 .001-9.161 4.58 4.58 0 0 1-.001 9.161"/><path d="M253.782 146.664a4.58 4.58 0 1 1 .001-9.161 4.58 4.58 0 0 1-.001 9.161m9.255 9.159a4.58 4.58 0 1 1 0-9.16 4.58 4.58 0 0 1 0 9.16"/><path d="M263.037 164.983a4.58 4.58 0 1 1 .001-9.161 4.58 4.58 0 0 1-.001 9.161m0 18.319a4.58 4.58 0 1 1 0-9.16 4.58 4.58 0 0 1 0 9.16m-9.16-54.957a4.58 4.58 0 1 1 .001-9.161 4.58 4.58 0 0 1-.001 9.161"/><path d="M253.877 164.983a4.58 4.58 0 1 1 .001-9.161 4.58 4.58 0 0 1-.001 9.161m0 27.479a4.58 4.58 0 1 1 .001-9.161 4.58 4.58 0 0 1-.001 9.161"/><path d="M253.877 201.621a4.58 4.58 0 1 1 0-9.16 4.58 4.58 0 0 1 0 9.16m-9.159-54.957a4.58 4.58 0 1 1 0-9.16 4.58 4.58 0 0 1 0 9.16m0 18.319a4.58 4.58 0 1 1 0-9.16 4.58 4.58 0 0 1 0 9.16"/><path d="M244.718 174.142a4.58 4.58 0 1 1-.002-9.158 4.58 4.58 0 0 1 .002 9.158"/><path d="M244.718 183.302a4.58 4.58 0 1 1 0-9.16 4.58 4.58 0 0 1 0 9.16m0 9.16a4.58 4.58 0 1 1 0-9.16 4.58 4.58 0 0 1 0 9.16m-9.16-27.479a4.58 4.58 0 1 1 .001-9.161 4.58 4.58 0 0 1-.001 9.161"/><path d="M235.558 183.302a4.58 4.58 0 1 1 0-9.16 4.58 4.58 0 0 1 0 9.16m0 18.319a4.58 4.58 0 1 1 0-9.16 4.58 4.58 0 0 1 0 9.16m-9.16-27.479a4.579 4.579 0 1 1 0-9.159 4.58 4.58 0 1 1 0 9.159m0 18.32a4.58 4.58 0 1 1 .001-9.16 4.58 4.58 0 0 1-.001 9.16m-9.159 9.159a4.58 4.58 0 1 1 0-9.16 4.58 4.58 0 0 1 0 9.16"/><path d="M208.079 201.621a4.58 4.58 0 1 1 0-9.158 4.58 4.58 0 0 1 0 9.158"/></g><g clip-path="url(#c)"><g fill="#727271" clip-path="url(#d)"><path d="M428.225 201.621a4.58 4.58 0 1 1 0-9.158 4.58 4.58 0 0 1 0 9.158m-9.159-9.159a4.58 4.58 0 1 1 .001-9.161 4.58 4.58 0 0 1-.001 9.161m-9.16-18.32a4.579 4.579 0 1 1 0-9.159 4.58 4.58 0 1 1 0 9.159m0 27.479a4.58 4.58 0 1 1 0-9.158 4.58 4.58 0 0 1 0 9.158m-9.159-36.638a4.58 4.58 0 1 1 .001-9.161 4.58 4.58 0 0 1-.001 9.161"/><path d="M400.747 174.142a4.58 4.58 0 1 1 0-9.16 4.58 4.58 0 0 1 0 9.16m0 9.16a4.58 4.58 0 1 1 0-9.16 4.58 4.58 0 0 1 0 9.16m0 18.319a4.58 4.58 0 1 1 0-9.16 4.58 4.58 0 0 1 0 9.16m-9.16-54.957a4.58 4.58 0 1 1 .001-9.161 4.58 4.58 0 0 1-.001 9.161"/><path d="M391.587 155.823a4.58 4.58 0 1 1 0-9.16 4.58 4.58 0 0 1 0 9.16m0 36.639a4.58 4.58 0 1 1 .001-9.161 4.58 4.58 0 0 1-.001 9.161m-9.159-64.117a4.58 4.58 0 1 1 0-9.16 4.58 4.58 0 0 1 0 9.16m0 36.638a4.58 4.58 0 1 1 0-9.16 4.58 4.58 0 0 1 0 9.16m0 18.319a4.58 4.58 0 1 1 0-9.16 4.58 4.58 0 0 1 0 9.16"/><path d="M382.428 192.462a4.58 4.58 0 1 1 0-9.16 4.58 4.58 0 0 1 0 9.16"/></g></g><g fill="#727271" clip-path="url(#e)"><path d="M478.045 281.492a4.58 4.58 0 1 0 9.158.002 4.58 4.58 0 0 0-9.158-.002"/><path d="M468.885 281.492a4.58 4.58 0 1 0 9.159.001 4.58 4.58 0 0 0-9.159-.001m-18.319 0a4.58 4.58 0 1 0 9.158.002 4.58 4.58 0 0 0-9.158-.002"/><path d="M468.885 290.652a4.58 4.58 0 1 0 9.16 0 4.58 4.58 0 0 0-9.16 0m-18.319 0a4.58 4.58 0 1 0 9.16 0 4.58 4.58 0 0 0-9.16 0m45.798 9.16a4.579 4.579 0 1 0 9.159 0 4.58 4.58 0 1 0-9.159 0m-36.639 0a4.58 4.58 0 1 0 9.16-.001 4.58 4.58 0 0 0-9.16.001m27.479 9.159a4.58 4.58 0 1 0 9.16 0 4.58 4.58 0 0 0-9.16 0m-18.319 0a4.58 4.58 0 1 0 9.16 0 4.58 4.58 0 0 0-9.16 0"/><path d="M459.725 308.971a4.58 4.58 0 1 0 9.161-.001 4.58 4.58 0 0 0-9.161.001m45.798 9.16a4.58 4.58 0 1 0 9.16 0 4.58 4.58 0 0 0-9.16 0"/><path d="M496.364 318.131a4.58 4.58 0 1 0 9.16 0 4.58 4.58 0 0 0-9.16 0m18.319 9.159a4.58 4.58 0 1 0 9.158.002 4.58 4.58 0 0 0-9.158-.002"/><path d="M496.364 327.29a4.58 4.58 0 1 0 9.158.002 4.58 4.58 0 0 0-9.158-.002m-18.319 0a4.58 4.58 0 1 0 9.158.002 4.58 4.58 0 0 0-9.158-.002m-18.32 0a4.58 4.58 0 1 0 9.16 0 4.58 4.58 0 0 0-9.16 0m-9.159 9.16a4.58 4.58 0 1 0 9.16 0 4.58 4.58 0 0 0-9.16 0m73.276 9.159a4.58 4.58 0 1 0 9.16 0 4.58 4.58 0 0 0-9.16 0"/><path d="M514.683 345.609a4.58 4.58 0 1 0 9.158.002 4.58 4.58 0 0 0-9.158-.002"/><path d="M505.523 345.609a4.58 4.58 0 1 0 9.16 0 4.58 4.58 0 0 0-9.16 0"/><path d="M496.364 345.609a4.58 4.58 0 1 0 9.158.002 4.58 4.58 0 0 0-9.158-.002m-17.926-.619a4.58 4.58 0 1 0 9.16-.001 4.58 4.58 0 0 0-9.16.001m45.404 9.779a4.58 4.58 0 1 0 9.161-.001 4.58 4.58 0 0 0-9.161.001"/><path d="M514.683 354.769a4.58 4.58 0 1 0 9.16 0 4.58 4.58 0 0 0-9.16 0m-27.479 0a4.58 4.58 0 1 0 9.16 0 4.58 4.58 0 0 0-9.16 0m-27.479 0a4.58 4.58 0 1 0 9.161-.001 4.58 4.58 0 0 0-9.161.001"/><path d="M450.566 354.769a4.58 4.58 0 1 0 9.16 0 4.58 4.58 0 0 0-9.16 0m64.117 9.16a4.579 4.579 0 1 0 9.159 0 4.58 4.58 0 1 0-9.159 0m-18.319 0a4.579 4.579 0 1 0 9.159 0 4.58 4.58 0 1 0-9.159 0m-18.319 0a4.579 4.579 0 1 0 9.159 0 4.58 4.58 0 1 0-9.159 0m-18.32 0a4.58 4.58 0 1 0 9.16-.001 4.58 4.58 0 0 0-9.16.001"/><path d="M450.566 363.929a4.579 4.579 0 1 0 9.159 0 4.58 4.58 0 1 0-9.159 0m91.595 9.159a4.58 4.58 0 1 0 9.16 0 4.58 4.58 0 0 0-9.16 0m-27.478 0a4.58 4.58 0 1 0 9.159 0 4.58 4.58 0 1 0-9.159 0m-18.319 0a4.58 4.58 0 1 0 9.159 0 4.58 4.58 0 1 0-9.159 0"/><path d="M487.204 373.088a4.58 4.58 0 1 0 9.16 0 4.58 4.58 0 0 0-9.16 0m-18.319 0a4.58 4.58 0 1 0 9.159 0 4.58 4.58 0 1 0-9.159 0"/><path d="M459.725 373.088a4.58 4.58 0 1 0 9.16 0 4.58 4.58 0 0 0-9.16 0"/><path d="M450.566 373.088a4.58 4.58 0 1 0 9.159 0 4.58 4.58 0 1 0-9.159 0m109.949 27.635a4.58 4.58 0 1 0 9.16 0 4.58 4.58 0 0 0-9.16 0"/><path d="M560.515 409.883a4.58 4.58 0 1 0 9.161-.001 4.58 4.58 0 0 0-9.161.001m0 18.319a4.58 4.58 0 1 0 9.161-.001 4.58 4.58 0 0 0-9.161.001m-36.673-45.954a4.58 4.58 0 1 0 9.161-.001 4.58 4.58 0 0 0-9.161.001m-45.797 0a4.58 4.58 0 1 0 9.16 0 4.58 4.58 0 0 0-9.16 0m-18.32 0a4.58 4.58 0 1 0 9.161-.001 4.58 4.58 0 0 0-9.161.001m82.436 9.159a4.58 4.58 0 1 0 9.16 0 4.58 4.58 0 0 0-9.16 0"/><path d="M523.842 391.407a4.58 4.58 0 1 0 9.16 0 4.58 4.58 0 0 0-9.16 0"/><path d="M514.683 391.407a4.58 4.58 0 1 0 9.158.002 4.58 4.58 0 0 0-9.158-.002"/><path d="M505.523 391.407a4.58 4.58 0 1 0 9.16 0 4.58 4.58 0 0 0-9.16 0"/><path d="M505.523 400.662a4.58 4.58 0 1 0 9.16 0 4.58 4.58 0 0 0-9.16 0m-9.159-9.255a4.58 4.58 0 1 0 9.158.002 4.58 4.58 0 0 0-9.158-.002"/><path d="M487.204 391.407a4.58 4.58 0 1 0 9.16 0 4.58 4.58 0 0 0-9.16 0m-18.319 0a4.58 4.58 0 1 0 9.159.001 4.58 4.58 0 0 0-9.159-.001m82.436 9.16a4.58 4.58 0 1 0 9.16 0 4.58 4.58 0 0 0-9.16 0m-27.479 0a4.58 4.58 0 1 0 9.161-.001 4.58 4.58 0 0 0-9.161.001"/><path d="M487.204 400.567a4.58 4.58 0 1 0 9.16 0 4.58 4.58 0 0 0-9.16 0m-27.479 0a4.58 4.58 0 1 0 9.161-.001 4.58 4.58 0 0 0-9.161.001"/><path d="M450.566 400.567a4.58 4.58 0 1 0 9.16 0 4.58 4.58 0 0 0-9.16 0m91.595 9.16a4.58 4.58 0 1 0 9.16-.001 4.58 4.58 0 0 0-9.16.001m-18.319 0a4.58 4.58 0 1 0 9.16-.001 4.58 4.58 0 0 0-9.16.001m-18.319 0a4.58 4.58 0 1 0 9.16-.001 4.58 4.58 0 0 0-9.16.001m-18.319 0a4.58 4.58 0 1 0 9.16-.001 4.58 4.58 0 0 0-9.16.001"/><path d="M478.045 409.727a4.579 4.579 0 1 0 9.159 0 4.58 4.58 0 1 0-9.159 0"/><path d="M468.885 409.727a4.58 4.58 0 1 0 9.158 0 4.58 4.58 0 0 0-9.158 0"/><path d="M459.725 409.727a4.58 4.58 0 1 0 9.16-.001 4.58 4.58 0 0 0-9.16.001m82.436 9.159a4.58 4.58 0 1 0 9.161-.001 4.58 4.58 0 0 0-9.161.001m-18.319 0a4.58 4.58 0 1 0 9.161-.001 4.58 4.58 0 0 0-9.161.001m-36.638 0a4.58 4.58 0 1 0 9.16 0 4.58 4.58 0 0 0-9.16 0m-18.319 0a4.58 4.58 0 1 0 9.16 0 4.58 4.58 0 0 0-9.16 0m-18.319 0a4.58 4.58 0 1 0 9.16 0 4.58 4.58 0 0 0-9.16 0"/><path d="M542.161 428.046a4.58 4.58 0 1 0 9.16-.001 4.58 4.58 0 0 0-9.16.001m36.346 2.452a4.58 4.58 0 1 0 9.16 0 4.58 4.58 0 0 0-9.16 0"/><path d="M578.506 439.657a4.58 4.58 0 1 0 9.16 0 4.58 4.58 0 0 0-9.16 0m-54.664-11.611a4.58 4.58 0 1 0 9.16-.001 4.58 4.58 0 0 0-9.16.001m-18.319 0a4.58 4.58 0 1 0 9.16-.001 4.58 4.58 0 0 0-9.16.001"/><path d="M496.364 428.046a4.579 4.579 0 1 0 9.159 0 4.58 4.58 0 1 0-9.159 0"/><path d="M487.204 428.046a4.58 4.58 0 1 0 9.16-.001 4.58 4.58 0 0 0-9.16.001"/><path d="M478.045 428.046a4.579 4.579 0 1 0 9.159 0 4.58 4.58 0 1 0-9.159 0m-18.32 0a4.58 4.58 0 1 0 9.16-.001 4.58 4.58 0 0 0-9.16.001m82.281 18.666a4.579 4.579 0 1 0 9.159 0 4.58 4.58 0 1 0-9.159 0m-18.164-9.507a4.58 4.58 0 1 0 9.16 0 4.58 4.58 0 0 0-9.16 0"/><path d="M514.683 437.205a4.58 4.58 0 1 0 9.159 0 4.58 4.58 0 1 0-9.159 0m-27.479 0a4.58 4.58 0 1 0 9.16 0 4.58 4.58 0 0 0-9.16 0"/><path d="M478.045 437.205a4.58 4.58 0 1 0 9.159 0 4.58 4.58 0 1 0-9.159 0m-27.479 0a4.58 4.58 0 1 0 9.159 0 4.58 4.58 0 1 0-9.159 0m36.638 9.16a4.58 4.58 0 1 0 9.16 0 4.58 4.58 0 0 0-9.16 0"/><path d="M478.045 446.365a4.58 4.58 0 1 0 9.16 0 4.58 4.58 0 0 0-9.16 0m-9.16 0a4.58 4.58 0 1 0 9.16 0 4.58 4.58 0 0 0-9.16 0m-18.319 0a4.58 4.58 0 1 0 9.16 0 4.58 4.58 0 0 0-9.16 0m54.957 9.159a4.58 4.58 0 1 0 9.16 0 4.58 4.58 0 0 0-9.16 0"/><path d="M496.364 455.524a4.58 4.58 0 1 0 9.158.002 4.58 4.58 0 0 0-9.158-.002m-36.639 0a4.58 4.58 0 1 0 9.16 0 4.58 4.58 0 0 0-9.16 0m64.117 9.16a4.58 4.58 0 1 0 9.161-.001 4.58 4.58 0 0 0-9.161.001m-36.638 0a4.58 4.58 0 1 0 9.16 0 4.58 4.58 0 0 0-9.16 0m-18.319 0a4.58 4.58 0 1 0 9.16 0 4.58 4.58 0 0 0-9.16 0"/><path d="M459.725 464.684a4.58 4.58 0 1 0 9.161-.001 4.58 4.58 0 0 0-9.161.001M578.508 439.9a4.58 4.58 0 1 0 9.158 0 4.58 4.58 0 0 0-9.158 0"/><path d="M569.348 439.899a4.58 4.58 0 1 0 9.16 0 4.58 4.58 0 0 0-9.16 0m-9.157 9.16a4.58 4.58 0 1 0 9.16 0 4.58 4.58 0 0 0-9.16 0m27.478 9.16a4.58 4.58 0 1 0 9.16 0 4.58 4.58 0 0 0-9.16 0m-18.319 0a4.58 4.58 0 1 0 9.16 0 4.58 4.58 0 0 0-9.16 0"/><path d="M560.19 458.219a4.58 4.58 0 1 0 9.16-.001 4.58 4.58 0 0 0-9.16.001"/></g><g fill="#727271" clip-path="url(#f)"><path d="M165.33 281.492a4.58 4.58 0 1 1-9.16 0 4.58 4.58 0 0 1 9.16 0"/><path d="M174.489 281.492a4.58 4.58 0 1 1-9.158.002 4.58 4.58 0 0 1 9.158-.002"/><path d="M174.489 290.652a4.58 4.58 0 1 1-9.16 0 4.58 4.58 0 0 1 9.16 0m9.259.676a4.58 4.58 0 1 1-9.16 0 4.58 4.58 0 0 1 9.16 0"/><path d="M183.748 300.487a4.58 4.58 0 1 1-9.16 0 4.58 4.58 0 0 1 9.16 0m-27.578 8.484a4.58 4.58 0 1 1-9.16 0 4.58 4.58 0 0 1 9.16 0m18.319 0a4.58 4.58 0 1 1-9.16 0 4.58 4.58 0 0 1 9.16 0m-27.478 9.16a4.58 4.58 0 1 1-9.161-.001 4.58 4.58 0 0 1 9.161.001"/><path d="M147.011 327.29a4.58 4.58 0 1 1-9.16 0 4.58 4.58 0 0 1 9.16 0m18.319 0a4.58 4.58 0 1 1-9.16 0 4.58 4.58 0 0 1 9.16 0m-45.798 18.319a4.58 4.58 0 1 1-9.16 0 4.58 4.58 0 0 1 9.16 0"/><path d="M128.692 345.609a4.58 4.58 0 1 1-9.16 0 4.58 4.58 0 0 1 9.16 0"/><path d="M137.851 345.609a4.58 4.58 0 1 1-9.159.001 4.58 4.58 0 0 1 9.159-.001"/><path d="M147.011 345.609a4.58 4.58 0 1 1-9.16 0 4.58 4.58 0 0 1 9.16 0m17.925-.619a4.58 4.58 0 1 1-9.16-.001 4.58 4.58 0 0 1 9.16.001m-45.404 9.779a4.58 4.58 0 1 1-9.161-.001 4.58 4.58 0 0 1 9.161.001"/><path d="M128.692 354.769a4.58 4.58 0 1 1-9.161-.001 4.58 4.58 0 0 1 9.161.001m27.478 0a4.58 4.58 0 1 1-9.16 0 4.58 4.58 0 0 1 9.16 0"/><path d="M128.692 363.929a4.58 4.58 0 1 1-9.16-.001 4.58 4.58 0 0 1 9.16.001m18.319 0a4.58 4.58 0 1 1-9.16-.001 4.58 4.58 0 0 1 9.16.001m18.319 0a4.58 4.58 0 1 1-9.16-.001 4.58 4.58 0 0 1 9.16.001"/><path d="M128.692 373.088a4.58 4.58 0 1 1-9.16 0 4.58 4.58 0 0 1 9.16 0m54.13-46.402a4.58 4.58 0 1 1-9.16 0 4.58 4.58 0 0 1 9.16 0"/><path d="M182.822 335.845a4.58 4.58 0 1 1-9.158.002 4.58 4.58 0 0 1 9.158-.002"/><path d="M182.822 345.005a4.58 4.58 0 1 1-9.16 0 4.58 4.58 0 0 1 9.16 0"/><path d="M182.822 354.165a4.579 4.579 0 1 1-9.159 0 4.58 4.58 0 1 1 9.159 0m-35.811 18.923a4.58 4.58 0 1 1-9.16 0 4.58 4.58 0 0 1 9.16 0"/><path d="M156.17 373.088a4.58 4.58 0 1 1-9.159 0 4.58 4.58 0 1 1 9.159 0m18.319 0a4.58 4.58 0 1 1-9.159 0 4.58 4.58 0 1 1 9.159 0m-91.63 36.795a4.58 4.58 0 1 1-9.16 0 4.58 4.58 0 0 1 9.16 0m0 18.319a4.58 4.58 0 1 1-9.16 0 4.58 4.58 0 0 1 9.16 0m36.673-45.954a4.58 4.58 0 1 1-9.161-.001 4.58 4.58 0 0 1 9.161.001m45.798 0a4.58 4.58 0 1 1-9.16 0 4.58 4.58 0 0 1 9.16 0m-64.117 9.159a4.58 4.58 0 1 1-9.16 0 4.58 4.58 0 0 1 9.16 0"/><path d="M119.532 391.407a4.58 4.58 0 1 1-9.16 0 4.58 4.58 0 0 1 9.16 0"/><path d="M128.692 391.407a4.58 4.58 0 1 1-9.16 0 4.58 4.58 0 0 1 9.16 0"/><path d="M137.851 391.407a4.58 4.58 0 1 1-9.159.001 4.58 4.58 0 0 1 9.159-.001"/><path d="M137.851 400.662a4.58 4.58 0 1 1-9.16 0 4.58 4.58 0 0 1 9.16 0m9.16-9.255a4.58 4.58 0 1 1-9.16 0 4.58 4.58 0 0 1 9.16 0"/><path d="M156.17 391.407a4.58 4.58 0 1 1-9.158.002 4.58 4.58 0 0 1 9.158-.002m18.319 0a4.58 4.58 0 1 1-9.158.002 4.58 4.58 0 0 1 9.158-.002m-82.436 9.16a4.58 4.58 0 1 1-9.16 0 4.58 4.58 0 0 1 9.16 0m27.479 0a4.58 4.58 0 1 1-9.161-.001 4.58 4.58 0 0 1 9.161.001"/><path d="M156.17 400.567a4.58 4.58 0 1 1-9.16 0 4.58 4.58 0 0 1 9.16 0m-54.957 9.16a4.58 4.58 0 1 1-9.159-.001 4.58 4.58 0 0 1 9.159.001m18.319 0a4.58 4.58 0 1 1-9.16-.001 4.58 4.58 0 0 1 9.16.001m18.319 0a4.58 4.58 0 1 1-9.158 0 4.58 4.58 0 0 1 9.158 0"/><path d="M156.17 409.727a4.579 4.579 0 1 1-9.159 0 4.58 4.58 0 1 1 9.159 0"/><path d="M165.33 409.727a4.58 4.58 0 1 1-9.16-.001 4.58 4.58 0 0 1 9.16.001"/><path d="M174.489 409.727a4.579 4.579 0 1 1-9.159 0 4.58 4.58 0 1 1 9.159 0m-73.276 9.159a4.58 4.58 0 1 1-9.16 0 4.58 4.58 0 0 1 9.16 0m18.319 0a4.58 4.58 0 1 1-9.161-.001 4.58 4.58 0 0 1 9.161.001m36.638 0a4.58 4.58 0 1 1-9.16 0 4.58 4.58 0 0 1 9.16 0"/><path d="M174.489 418.886a4.58 4.58 0 1 1-9.16 0 4.58 4.58 0 0 1 9.16 0m-73.276 9.16a4.58 4.58 0 1 1-9.159-.001 4.58 4.58 0 0 1 9.159.001m18.319 0a4.58 4.58 0 1 1-9.16-.001 4.58 4.58 0 0 1 9.16.001m18.319 0a4.58 4.58 0 1 1-9.158 0 4.58 4.58 0 0 1 9.158 0"/><path d="M147.011 428.046a4.58 4.58 0 1 1-9.16-.001 4.58 4.58 0 0 1 9.16.001"/><path d="M156.17 428.046a4.579 4.579 0 1 1-9.159 0 4.58 4.58 0 1 1 9.159 0"/><path d="M165.33 428.046a4.58 4.58 0 1 1-9.16-.001 4.58 4.58 0 0 1 9.16.001m-63.961 18.666a4.58 4.58 0 1 1-9.16-.001 4.58 4.58 0 0 1 9.16.001m18.163-9.507a4.58 4.58 0 1 1-9.16 0 4.58 4.58 0 0 1 9.16 0"/><path d="M128.692 437.205a4.58 4.58 0 1 1-9.16 0 4.58 4.58 0 0 1 9.16 0m27.478 0a4.58 4.58 0 1 1-9.159 0 4.58 4.58 0 1 1 9.159 0"/><path d="M165.33 437.205a4.58 4.58 0 1 1-9.16 0 4.58 4.58 0 0 1 9.16 0m-9.16 9.16a4.58 4.58 0 1 1-9.16 0 4.58 4.58 0 0 1 9.16 0"/><path d="M165.33 446.365a4.58 4.58 0 1 1-9.16 0 4.58 4.58 0 0 1 9.16 0"/><path d="M174.489 446.365a4.58 4.58 0 1 1-9.16 0 4.58 4.58 0 0 1 9.16 0m-36.638 9.159a4.58 4.58 0 1 1-9.159.001 4.58 4.58 0 0 1 9.159-.001"/><path d="M147.011 455.524a4.58 4.58 0 1 1-9.16 0 4.58 4.58 0 0 1 9.16 0m36.638 0a4.58 4.58 0 1 1-9.159.001 4.58 4.58 0 0 1 9.159-.001m-64.117 9.16a4.58 4.58 0 1 1-9.161-.001 4.58 4.58 0 0 1 9.161.001m36.638 0a4.58 4.58 0 1 1-9.16 0 4.58 4.58 0 0 1 9.16 0m18.319 0a4.58 4.58 0 1 1-9.16 0 4.58 4.58 0 0 1 9.16 0"/><path d="M183.649 464.684a4.58 4.58 0 1 1-9.16 0 4.58 4.58 0 0 1 9.16 0m-98.335-6.025a4.58 4.58 0 1 1-9.159 0 4.58 4.58 0 0 1 9.16 0Z"/><path d="M94.465 458.661a4.58 4.58 0 1 1-9.159.001 4.58 4.58 0 0 1 9.16-.001Zm-18.3 9.172a4.58 4.58 0 1 1-9.16.001 4.58 4.58 0 0 1 9.16-.001m-18.645-9.081a4.58 4.58 0 1 1-9.16 0 4.58 4.58 0 0 1 9.16 0"/><path d="M85.315 467.831a4.58 4.58 0 1 1-9.16 0 4.58 4.58 0 0 1 9.16 0m-10.119-18.436a4.58 4.58 0 1 1-9.159.001 4.58 4.58 0 0 1 9.16-.001Z"/><path d="M84.346 449.393a4.58 4.58 0 1 1-9.159.001 4.58 4.58 0 0 1 9.16-.001Z"/></g></g><defs><clipPath id="a"><path fill="#727271" d="M0 0h634v489H0z"/></clipPath><clipPath id="b"><path fill="#727271" d="M180.601-.34h196.878v204.948H180.601z"/></clipPath><clipPath id="c"><path fill="#727271" d="M377.475-.34h120.314v204.948H377.475z"/></clipPath><clipPath id="e"><path fill="#727271" d="M657.69 469.421V274.557H445.65v194.864z"/></clipPath><clipPath id="f"><path fill="#727271" d="M-14.315 469.421V274.557h212.04v194.864z"/></clipPath></defs></svg>