<svg xmlns="http://www.w3.org/2000/svg" viewBox="0 0 1500 1500" width="300" height="300" fill="none"><defs><style>.cls-1bi1{fill:#fff}.cls-1bi2{fill:#f4b3d3}.cls-1bi3{fill:#a97eb7}.cls-1bi4{fill:#ba90c6}.cls-1bi5{fill:#d88bb0}.cls-1bi6{fill:#e8a0bf}.cls-1bi7{fill:#accedd}.cls-1bi8{fill:#c0dbea}.cls-1bi9{fill:#cee9f4}</style></defs><path d="m502.65 297.94-133.37 30.21c17.75-24.82 35.49-49.64 53.24-74.46l-80.13-44.25 133.37-30.21zm494.86 0 133.37 30.21c-17.75-24.82-35.49-49.64-53.24-74.46l80.13-44.25-133.37-30.21z" class="cls-1bi3"/><path d="M1046.27 275.48a2179 2179 0 0 0-290.07-20.24c-111.07-.31-211.24 7.9-298.04 19.65-15.72-37.87-31.43-75.74-47.15-113.61 97.57-15.38 213.18-26.8 343.15-26.55 126.55.24 239.34 11.48 334.98 26.55-14.29 38.07-28.58 76.13-42.87 114.2" class="cls-1bi4"/><path d="M546.73 175.25c-.27-1.69-.4-2.54-.67-4.23 12.02-1.9 24.07-3.64 36.14-5.21l.55 4.25c-6.62 1.49-9.92 2.26-16.51 3.84-1.05.15-1.57.23-2.62.38-6.75.34-10.13.54-16.89.97m27.8 56.62c6.47-.29 9.7-.41 16.16-.61l.55 4.25c-11.42 1.54-22.8 3.18-34.19 4.93-.27-1.69-.4-2.54-.67-4.23 6.25-1.63 9.37-2.42 15.65-3.97 1-.15 1.5-.22 2.5-.36Zm-11.66-30.5c-1.55-10.73-3.19-21.48-5.18-32.14 5.15-.77 7.72-1.14 12.87-1.85 1.1 10.79 2.57 21.56 4.1 32.29.17 1.25.26 1.87.44 3.12 1.6 11.41 3.16 22.83 5.13 34.19-4.87.68-7.31 1.03-12.18 1.75-1.23-10.77-2.79-21.53-4.43-32.25-.3-2.05-.46-3.07-.76-5.12Zm6.5 3.28-.7-4.85c17.42-2.43 34.85-4.57 52.33-6.43l.5 4.88c-17.42 1.86-34.78 3.99-52.13 6.41Zm30.78-36.73c-.2-1.7-.3-2.55-.49-4.25 12.07-1.4 24.17-2.64 36.27-3.7.15 1.71.22 2.56.37 4.27-6.66 1.22-9.98 1.85-16.62 3.15-1.05.11-1.57.16-2.62.27-6.76.06-10.15.12-16.92.27Zm25.42 57.72c6.46-.02 9.69 0 16.14.06.15 1.71.22 2.56.37 4.27a1881 1881 0 0 0-34.32 3.5c-.2-1.7-.3-2.55-.49-4.25 6.31-1.37 9.47-2.03 15.8-3.32 1-.1 1.5-.15 2.5-.26m-10.42-30.95c-1.11-10.79-2.3-21.59-3.84-32.32 5.17-.55 7.75-.82 12.92-1.32.66 10.82 1.67 21.65 2.76 32.43l.5 5.15c1.01 10.8 2.1 21.61 3.52 32.36-4.89.47-7.34.72-12.22 1.25-.83-11.49-2.09-22.95-3.3-34.41-.13-1.25-.2-1.88-.33-3.14Zm32.66 30.49c4.85-1.03 7.27-1.54 12.14-2.53.97-.07 1.46-.11 2.44-.18 5.39.25 8.09.39 13.47.7.1 1.71.15 2.56.26 4.27-9.32.55-18.64 1.21-27.95 2l-.35-4.27Zm32.84-68.87c3.22-.17 4.84-.25 8.06-.4 10.88 23.06 21.33 46.27 31.38 69.69-4.76.12-7.14.19-11.9.35-8.92-20.6-18.15-41.04-27.68-61.36 1.22-.19 1.82-.28 3.04-.46-7.52 21.32-14.71 42.73-21.57 64.27-2.33.17-3.49.25-5.82.43a2151 2151 0 0 1 24.49-72.5Zm-12.24 43.84c11.23-.68 22.45-1.25 33.69-1.73.89 1.93 1.34 2.89 2.22 4.82-12.54.46-25.07 1.1-37.59 1.93.67-2.01 1-3.01 1.68-5.02m25.44 22.09c6.11-.91 9.17-1.34 15.3-2.18 1.11-.04 1.67-.05 2.78-.09 6.12.44 9.17.68 15.28 1.2.03 1.71.05 2.56.08 4.27-11.09.26-22.16.61-33.24 1.06-.08-1.71-.12-2.56-.19-4.26Zm37.98-62.87c-.02-1.71-.04-2.57-.06-4.28 7.29-.1 10.94-.13 18.23-.13v5.86h-1.33c-6.73-.62-10.1-.91-16.84-1.45m19.54 60c6.42.64 9.63.98 16.04 1.7-.02 1.71-.04 2.57-.06 4.28-11.54-.11-23.06-.11-34.6 0-.02-1.71-.04-2.57-.06-4.28 6.41-.72 9.62-1.06 16.04-1.7zm-7.32-31.85c0-10.84-.1-21.71-.54-32.55 5.19-.03 7.78-.03 12.97 0-.44 10.83-.53 21.7-.54 32.55-.01 2.56-.02 3.84-.03 6.4-.09 10.43-.09 20.89.22 31.32-4.91-.02-7.36-.02-12.27 0 .32-10.84.3-21.71.21-32.55 0-2.07-.01-3.1-.02-5.17m18.41 10.03c-4.98-.05-7.48-.06-12.46-.06v-4.89c5.72 0 8.57.02 14.29.08 10.47.8 21.32-4.98 21.63-16.34.32-11.67-11.6-16.93-21.78-16.41-5.66-.06-8.49-.08-14.15-.08v-4.9c6.61 0 9.92.02 16.52.1 13.06-.47 32.61 5.42 31.91 21.69-.76 17.67-22.2 21.18-35.98 20.79Zm43.88-37.09c.07-1.71.11-2.57.19-4.28 7.29.32 10.93.5 18.22.92-.13 2.34-.2 3.51-.34 5.85-.53-.03-.8-.05-1.33-.08-6.69-1.01-10.03-1.49-16.74-2.41m16.08 61.02c6.38 1 9.57 1.53 15.93 2.61-.12 1.71-.18 2.56-.31 4.27-11.52-.77-23.02-1.43-34.56-1.98.07-1.71.11-2.57.19-4.28 6.44-.35 9.66-.51 16.12-.77zm-5.48-32.22c.61-10.83 1.14-21.68 1.32-32.52 5.18.27 7.77.42 12.95.74-1.07 10.79-1.77 21.64-2.4 32.46l-.4 6.39c-.69 10.41-1.29 20.85-1.57 31.28-4.9-.31-7.35-.45-12.26-.7.94-10.8 1.55-21.65 2.08-32.48.11-2.07.16-3.1.27-5.16Zm17.81 11.06c-4.98-.33-7.46-.49-12.44-.78.11-1.95.17-2.93.28-4.88 5.71.33 8.56.51 14.27.9 10.41 1.4 21.58-3.74 22.55-15.07.99-11.64-10.62-17.57-20.82-17.63-5.65-.39-8.47-.56-14.12-.89.11-1.96.17-2.93.28-4.89 6.6.38 9.9.59 16.5 1.05 13.07.28 32.28 7.28 30.64 23.49-1.77 17.6-23.4 19.87-37.14 18.69Zm40.86-35c.17-1.7.25-2.56.41-4.26 12.12 1.18 24.22 2.52 36.3 4.04-.21 1.7-.32 2.55-.53 4.25-6.72-.21-10.08-.29-16.8-.41l-2.73-.3c-6.65-1.37-9.98-2.03-16.65-3.31Zm29.76 45.97a1865 1865 0 0 0-22.35-49.54c5.61.57 8.41.88 14.02 1.51 6.15 14.44 12.12 28.96 17.82 43.58-1.73-.22-2.6-.32-4.33-.54 9.48-12.65 19.13-25.18 29.02-37.51 2.66.39 3.99.59 6.65.99a1828 1828 0 0 0-33.61 42.42c-2.88-.38-4.33-.56-7.21-.92Zm2.77 18.2c6.78 1.51 10.17 2.28 16.92 3.88-.24 1.7-.36 2.54-.61 4.24q-18.33-2.61-36.72-4.68c.19-1.7.29-2.55.48-4.26 6.93.14 10.39.24 17.33.48 1.04.13 1.56.2 2.61.33Zm-3.93-26.39c4.71.58 7.06.88 11.76 1.5-1.37 10.43-2.79 20.86-3.77 31.33-4.88-.65-7.32-.96-12.2-1.55 1.68-10.38 2.91-20.84 4.21-31.28m33.84-28.6c-5.52-1.44-8.29-2.15-13.83-3.54l.57-4.24c9.78 1.31 19.55 2.74 29.29 4.3-.27 1.69-.4 2.54-.67 4.23-5.17-.18-7.75-.26-12.91-.39-.98-.15-1.47-.22-2.45-.36" class="cls-1bi1"/><path d="m502.65 1202.06-133.37-30.21c17.75 24.82 35.49 49.64 53.24 74.46l-80.13 44.25 133.37 30.21zm494.86 0 133.37-30.21c-17.75 24.82-35.49 49.64-53.24 74.46l80.13 44.25-133.37 30.21z" class="cls-1bi3"/><path d="M1046.27 1224.52a2179 2179 0 0 1-290.07 20.24c-111.07.31-211.24-7.9-298.04-19.65-15.72 37.87-31.43 75.74-47.15 113.61 97.57 15.38 213.18 26.8 343.15 26.55 126.55-.24 239.34-11.48 334.98-26.55-14.29-38.07-28.58-76.13-42.87-114.2" class="cls-1bi4"/><path d="M461.68 1256.14c.27-1.69.4-2.54.67-4.23 6.84 1.08 10.26 1.61 17.1 2.63-.34 2.32-.52 3.48-.86 5.79-.5-.07-.75-.11-1.26-.19-6.27-1.57-9.4-2.38-15.66-4Zm8.29 62.11c-.35 2.32-.52 3.48-.86 5.79-7.1-1.06-10.65-1.6-17.75-2.73.27-1.69.4-2.54.67-4.23 6.66.42 9.99.61 16.65.97.52.08.78.12 1.29.19Zm-1.13-32.37c1.67-10.72 3.27-21.48 4.53-32.26 4.86.74 7.29 1.1 12.15 1.81-1.93 10.68-3.54 21.44-5.06 32.18-.21 1.43-.31 2.14-.52 3.57-1.63 11.24-3.3 22.49-4.54 33.78-5.05-.73-7.57-1.11-12.61-1.88 2.01-10.66 3.68-21.41 5.27-32.14.31-2.03.46-3.04.77-5.07Zm5.98-.17c4.91.73 7.36 1.09 12.28 1.79 8.79 1.87 21.92.59 23.13-10.66.99-9.28-4.67-13.62-17.02-15.36-5.79-.82-8.68-1.23-14.46-2.1.29-1.94.43-2.91.72-4.84 7.22 1.07 10.82 1.59 18.05 2.6 11.01 1.56 25.68 7.7 24.34 20.51-1.18 11.3-15.6 14.75-25.38 13.9.05-.37.08-.56.13-.94 10.76 2.19 26.6 8.14 25.23 21.17-1.6 15.17-24.16 16.93-35.93 14.68-6.72-.94-10.08-1.43-16.79-2.42.29-1.94.43-2.91.72-4.85 5.54.82 8.31 1.23 13.85 2.01 9.15 1.82 24.21 1.03 25.74-10.98 1.61-12.64-12.8-16.55-22.62-17.84-5.08-.72-7.62-1.09-12.7-1.85.29-1.93.43-2.89.72-4.82Zm60.44-19.41.5-4.25c11.45 1.31 22.9 2.55 34.36 3.73-.17 1.7-.25 2.56-.42 4.26-6.46 0-9.69-.03-16.15-.09-1-.11-1.5-.16-2.51-.27-6.32-1.32-9.48-2-15.78-3.38m12.01 61.87c6.53 1.34 9.8 1.99 16.34 3.28-.17 1.7-.25 2.56-.42 4.26-11.9-1.18-23.78-2.47-35.66-3.87l.5-4.25c6.66.15 9.99.21 16.65.31 1.03.11 1.55.17 2.58.28Zm-3.69-32.46c1.24-10.77 2.41-21.58 3.25-32.39 4.89.55 7.33.81 12.22 1.33-1.5 10.74-2.68 21.54-3.78 32.33-.22 2.06-.32 3.08-.54 5.14-1.18 10.78-2.28 21.6-3.03 32.41-5.07-.53-7.61-.81-12.68-1.38 1.59-10.73 2.83-21.53 3.99-32.31.23-2.06.34-3.08.57-5.14Zm36.94-24.63.4-4.26c6.88.64 10.32.95 17.2 1.52-.2 2.33-.29 3.5-.49 5.84-.51-.04-.76-.06-1.26-.11-6.35-1.17-9.52-1.77-15.85-2.99m13.51 61.56c6.55 1.18 9.83 1.75 16.39 2.87-.13 1.71-.19 2.56-.32 4.27-11.91-.89-23.82-1.89-35.71-3l.4-4.26c6.66-.01 9.99-.03 16.64-.1 1.04.09 1.56.13 2.6.22m-4.49-32.36c.98-10.8 1.88-21.63 2.46-32.46 4.89.43 7.33.63 12.22 1.03-1.28 11.11-2.16 22.27-3.07 33.42l-.25 3.14c-.89 11.15-1.82 22.3-2.33 33.48-5.07-.41-7.61-.62-12.68-1.06 1.33-10.76 2.3-21.59 3.2-32.39l.45-5.15Zm5.83.93c6.18.52 9.27.77 15.46 1.23 13.34 1.01 20.04-4.69 20.59-13.08.57-8.78-4.61-13.88-17.17-14.82-6.62-.5-9.92-.76-16.54-1.31.16-1.95.25-2.93.41-4.88 6.76.57 10.13.84 16.89 1.34 12.12.9 29.46 6.21 28.57 20.37-.75 11.94-15.17 16.42-25.95 16.45.17-.33.25-.5.42-.83 9.51 1.41 14.71 5.31 17.43 15.05 1.96 7.08 2.95 10.62 4.96 17.69-1.66-.98-2.49-1.46-4.15-2.44 5.31.84 7.96 1.25 13.28 2.05-.09 1.71-.14 2.57-.23 4.28-2.53.52-5.54.77-9.45.54-8.02-.47-11.5-2.45-12.67-7.56-1.56-6.85-2.33-10.28-3.86-17.13-1.85-8.57-6.25-10.43-16.41-11.22-4.79-.37-7.18-.56-11.96-.97l.4-4.77Zm63.13-23.49c2.39-2 3.58-3 5.96-5-1.91 7.41-2.87 11.12-4.81 18.52-2.84-.14-4.26-.22-7.1-.37.79-7.46 1.18-11.19 1.96-18.66 22.32 1.12 44.63 1.91 66.98 2.38.25 7.5.37 11.25.62 18.75-2.84-.05-4.26-.08-7.1-.13-1.41-7.53-2.1-11.29-3.48-18.82 2.23 2.17 3.34 3.25 5.58 5.41-19.54-.39-39.09-1.06-58.61-2.08m28.54 60.41c7.09.88 10.63 1.3 17.73 2.11-.04 1.71-.07 2.57-.11 4.28-12.78-.33-25.56-.78-38.33-1.36.08-1.71.12-2.57.19-4.28 7.13-.31 10.69-.48 17.82-.85zm-6.08-32.11c.46-10.83.84-21.69.89-32.54 4.91.19 7.36.28 12.27.44-.72 10.82-1.11 21.68-1.42 32.52-.07 2.07-.1 3.1-.17 5.16-.39 10.84-.71 21.7-.67 32.55-5.09-.16-7.64-.25-12.73-.45.81-10.81 1.26-21.67 1.64-32.51l.2-5.17Zm49.29-27.01.05-4.28c11.49.11 22.97.15 34.46.12 0 1.71.01 2.57.02 4.28-6.41.67-9.62.99-16.04 1.6h-2.52c-6.4-.66-9.6-1-15.99-1.71Zm18.33 60.28c6.62.65 9.93.96 16.56 1.55 0 1.71.01 2.57.02 4.28-11.92.07-23.84.02-35.76-.13l.05-4.28c6.62-.55 9.92-.83 16.53-1.43h2.6Zm-7.02-31.9c.11-10.84.14-21.71-.15-32.55 4.91.03 7.36.04 12.28.04-.38 10.84-.42 21.71-.38 32.55v3.15c0 11.52-.04 23.05.36 34.57-5.09 0-7.64-.01-12.74-.05.46-10.83.57-21.7.6-32.55.01-2.07.02-3.1.03-5.17Zm5.86 4.22c0-1.96.01-2.94.02-4.9 17.31.01 34.61-.16 51.92-.52.05 1.96.07 2.94.12 4.9-17.35.36-34.7.54-52.06.53Zm34.03-32.64c-.02-1.71-.04-2.57-.06-4.28 11.49-.2 22.97-.48 34.46-.82.06 1.71.08 2.57.14 4.28-6.38.84-9.58 1.25-15.98 2.03-1 .02-1.5.04-2.51.06-6.43-.48-9.64-.74-16.05-1.27m19.99 59.75c6.63.47 9.94.69 16.58 1.1.06 1.71.08 2.57.14 4.28-11.91.39-23.83.68-35.75.85-.02-1.71-.04-2.57-.06-4.28 6.61-.73 9.91-1.1 16.51-1.89 1.03-.02 1.55-.04 2.59-.06Zm-7.93-31.69c-.18-10.84-.45-21.71-1.04-32.53 4.91-.1 7.36-.16 12.27-.29-.08 10.84.18 21.71.51 32.55.06 2.07.08 3.1.14 5.17.25 10.84.58 21.7 1.25 32.53-5.09.14-7.64.2-12.73.3.17-11.52-.11-23.05-.33-34.57-.03-1.26-.04-1.89-.07-3.15Zm33.37-29.28c-.07-1.71-.1-2.57-.17-4.28 6.9-.27 10.35-.42 17.24-.75.11 2.34.17 3.51.28 5.85-.51.02-.76.04-1.26.06-6.44-.32-9.66-.5-16.09-.88m20.17 59.31c.11 2.34.17 3.51.28 5.85-7.16.34-10.73.5-17.89.78-.07-1.71-.1-2.57-.17-4.28 6.6-.89 9.89-1.34 16.47-2.29.52-.02.78-.04 1.3-.06Zm-7.4-31.55c-.45-10.83-.98-21.69-1.83-32.5 4.91-.22 7.36-.34 12.26-.59.18 10.84.7 21.7 1.3 32.53l.2 3.95c.59 11.24 1.14 22.48 2.11 33.7-5.09.26-7.63.38-12.73.61-.11-11.25-.65-22.5-1.14-33.74-.07-1.58-.11-2.38-.18-3.96Zm7.45 32.51c6.49-.31 9.74-.48 16.23-.85 17.96.09 29.33-15 28.1-32.01-1.17-16.22-12.92-30.51-30.46-28.42-6.71.38-10.06.56-16.77.88-.09-1.96-.14-2.94-.24-4.89 7.52-.36 11.28-.56 18.79-1 21.05-1.43 40.44 10.11 42.21 32.4 1.86 23.52-19.45 36.85-40.64 37.9-6.79.39-10.19.57-16.98.89-.09-1.96-.14-2.94-.24-4.89Zm59.37-3.16c5.01-1.03 7.51-1.55 12.51-2.61 1-.09 1.5-.13 2.51-.22 5.56.15 8.34.21 13.9.32l.4 4.26c-9.65.92-19.31 1.75-28.98 2.51-.13-1.71-.2-2.56-.34-4.27Zm30.96-69.5c3.04-.3 4.56-.45 7.6-.77 11.82 22.55 23.89 44.94 36.24 67.2-4.92.58-7.38.86-12.3 1.41a3342 3342 0 0 1-31.29-59.58c1.15-.23 1.73-.35 2.88-.59-6.26 21.7-12.74 43.33-19.44 64.91-2.41.21-3.62.31-6.03.51a3258 3258 0 0 0 22.34-73.1Zm-10.28 44.21c11.22-1.06 22.42-2.17 33.62-3.36 1.03 1.86 1.54 2.79 2.57 4.65a1913 1913 0 0 1-37.75 3.77c.63-2.03.94-3.04 1.56-5.06m26.76 20.96c6.25-1.28 9.37-1.94 15.6-3.27 1.14-.13 1.71-.19 2.85-.32 6.32-.09 9.49-.14 15.82-.28.21 1.7.31 2.54.52 4.24-11.45 1.36-22.89 2.65-34.35 3.88-.18-1.7-.26-2.55-.44-4.25m18.9-64.18-.5-4.25c11.45-1.38 22.88-2.84 34.31-4.36.23 1.7.35 2.55.58 4.24-6.23 1.49-9.35 2.22-15.6 3.65-1.04.13-1.56.2-2.6.33-6.48.18-9.71.26-16.18.39Zm38.97 37.82c-11.1-14.18-22.05-28.46-32.87-42.86 5.3-.64 7.95-.97 13.25-1.65 9.09 12.67 18.28 25.27 27.63 37.74-1.72.25-2.59.38-4.31.63 5.77-14.6 11.42-29.26 16.87-43.98 2.52-.38 3.78-.57 6.29-.96a2823 2823 0 0 1-19.62 50.09c-2.9.41-4.35.61-7.25 1Zm7.49 16.84c7.15-.35 10.72-.55 17.87-.97.25 1.69.38 2.54.63 4.24-12.68 1.88-25.37 3.63-38.08 5.25-.22-1.7-.33-2.55-.54-4.25 6.99-1.53 10.47-2.31 17.44-3.9 1.07-.15 1.61-.22 2.68-.37m-10.69-24.47c4.68-.63 7.02-.95 11.7-1.61 1.48 10.41 2.9 20.84 4.79 31.19-5.06.71-7.59 1.06-12.65 1.74-.98-10.47-2.44-20.9-3.84-31.32m24.05-36.62c-5.44.18-8.17.26-13.61.41-.24-1.7-.36-2.54-.61-4.24 9.25-1.32 18.49-2.71 27.71-4.18.27 1.69.4 2.54.67 4.23-4.73 1.39-7.09 2.07-11.83 3.43l-2.34.35Z" class="cls-1bi1"/><path d="M312.92 564.67c44.05 85.35 7.97 210.16-73.25 234.62C158.74 823.67 59.7 740.38 49 644.98c-7.2-64.12 24.21-145.22 95.06-166.03 70.09-20.59 139.75 29.31 168.87 85.72Z" class="cls-1bi6"/><path d="M231.44 850.79c-2.7 2.03-6.54-.02-6.36-3.4a184.6 184.6 0 0 1 10.39-52.09c.9-2.54 4.01-3.48 6.15-1.84a235 235 0 0 1 32.7 30.42c2.37 2.67.29 6.87-3.27 6.6-3.33-.25-6.67-.49-10-.74a3.97 3.97 0 0 0-2.68.79c-8.98 6.75-17.95 13.5-26.93 20.25Z" class="cls-1bi6"/><path d="M189.49 753.76c-70.53-16.69-125.54-82.44-137.27-165.69-4.19 19.16-5.26 38.73-3.22 56.92 10.71 95.4 109.74 178.69 190.67 154.31 30.84-9.29 55.16-33.05 71.07-63.62-16.33 8.71-64.45 31.52-121.25 18.08" class="cls-1bi5"/><path d="M231.44 850.79c-2.7 2.03-6.54-.02-6.36-3.4a184.6 184.6 0 0 1 10.39-52.09c.9-2.54 4.01-3.48 6.15-1.84a235 235 0 0 1 32.7 30.42c2.37 2.67.29 6.87-3.27 6.6-3.33-.25-6.67-.49-10-.74a3.97 3.97 0 0 0-2.68.79c-8.98 6.75-17.95 13.5-26.93 20.25Z" class="cls-1bi5"/><path d="M211.21 519.31c-53.37-19.75-105.77 7.76-106.69 4.17-1.03-4.02 63.09-44.92 122.04-22.24 71.1 27.35 84.13 127.76 79.72 129.86-4.23 2.02-25.28-85.97-95.07-111.79" class="cls-1bi2"/><path d="M372.24 1134.15c-.71 0-1.42-.25-2-.76-27.26-24.31-46.5-52.27-57.19-83.11-17.54-50.61-8.42-97.45-.37-138.77 7.57-38.87 13.55-69.57-5.44-90.3-13.47-14.7-37.28-20.9-70.76-18.42-1.65.12-3.09-1.12-3.21-2.77s1.12-3.09 2.77-3.21c35.41-2.62 60.86 4.23 75.63 20.36 21.03 22.96 14.49 56.58 6.91 95.5-7.9 40.58-16.86 86.57.15 135.66 10.35 29.86 29.02 56.98 55.51 80.6 1.24 1.1 1.35 3 .24 4.24-.59.66-1.41 1-2.24 1Z" class="cls-1bi5"/><path d="M220.81 856.93c39.37 33.11 47.26 102.23 12.16 131.07-34.97 28.73-101.09 7.99-126.05-36.96-16.77-30.21-17.97-76.77 12.75-101.66 30.4-24.63 75.12-14.33 101.14 7.56Z" class="cls-1bi8"/><path d="M239.53 1015.15c-.92 1.56-3.24 1.34-3.85-.37a98 98 0 0 1-3.96-14.52 99 99 0 0 1-1.64-13.36c-.08-1.44 1.27-2.55 2.66-2.18 4.87 1.29 10.21 3.02 15.84 5.34 2.31.96 4.51 1.95 6.59 2.95 1.72.83 1.56 3.34-.26 3.94-1.7.57-3.4 1.13-5.09 1.7-.49.16-.9.5-1.16.94-3.05 5.19-6.09 10.37-9.14 15.56Z" class="cls-1bi6"/><path d="M198.79 975.84c-38.3 6.29-79.05-14.87-102.01-53.6 1.88 10.34 5.38 20.23 10.14 28.8 24.96 44.95 91.08 65.69 126.05 36.96 13.33-10.95 20.45-27.71 22.01-46.09-6.28 7.67-25.36 28.87-56.2 33.93Z" class="cls-1bi7"/><path d="M239.53 1015.15c-.92 1.56-3.24 1.34-3.85-.37a98 98 0 0 1-3.96-14.52 99 99 0 0 1-1.64-13.36c-.08-1.44 1.27-2.55 2.66-2.18 4.87 1.29 10.21 3.02 15.84 5.34 2.31.96 4.51 1.95 6.59 2.95 1.72.83 1.56 3.34-.26 3.94-1.7.57-3.4 1.13-5.09 1.7-.49.16-.9.5-1.16.94-3.05 5.19-6.09 10.37-9.14 15.56Z" class="cls-1bi7"/><path d="M161.19 855.48c-30.45 1.24-50.68 25.64-51.87 24.06-1.34-1.78 21.92-35.21 55.73-36.15 40.78-1.14 67.92 45.8 66.18 47.75-1.67 1.87-30.22-37.28-70.04-35.65Z" class="cls-1bi9"/><path d="M366.92 1127.69c-.33 0-.66-.05-.98-.17-18.71-6.47-34.18-16.46-45.98-29.68-19.35-21.68-24.77-48.01-29.12-69.16-4.19-20.39-7.5-36.49-20.53-42.53-9.28-4.3-21.92-2.46-37.56 5.46-1.48.75-3.28.16-4.03-1.32a2.995 2.995 0 0 1 1.32-4.03c17.36-8.8 31.76-10.67 42.79-5.55 15.77 7.31 19.53 25.59 23.88 46.76 4.42 21.51 9.44 45.9 27.72 66.37 11.11 12.45 25.74 21.87 43.47 28a2.99 2.99 0 0 1 1.85 3.82 3 3 0 0 1-2.84 2.02Z" class="cls-1bi7"/><path d="M1187.08 565.57c-44.05 85.35-7.97 210.16 73.25 234.62 80.93 24.38 179.97-58.91 190.67-154.31 7.2-64.12-24.21-145.22-95.06-166.03-70.09-20.59-139.75 29.31-168.87 85.72Z" class="cls-1bi6"/><path d="M1268.56 851.69c2.7 2.03 6.54-.02 6.36-3.4a184.6 184.6 0 0 0-10.39-52.09c-.9-2.54-4.01-3.48-6.15-1.84a235 235 0 0 0-32.7 30.42c-2.37 2.67-.29 6.87 3.27 6.6 3.33-.25 6.67-.49 10-.74.96-.07 1.91.21 2.68.79 8.98 6.75 17.95 13.5 26.93 20.25Z" class="cls-1bi6"/><path d="M1310.51 754.66c70.53-16.69 125.54-82.44 137.27-165.69 4.19 19.16 5.26 38.73 3.22 56.92-10.71 95.4-109.74 178.69-190.67 154.31-30.84-9.29-55.16-33.05-71.07-63.62 16.33 8.71 64.45 31.52 121.25 18.08" class="cls-1bi5"/><path d="M1268.56 851.69c2.7 2.03 6.54-.02 6.36-3.4a184.6 184.6 0 0 0-10.39-52.09c-.9-2.54-4.01-3.48-6.15-1.84a235 235 0 0 0-32.7 30.42c-2.37 2.67-.29 6.87 3.27 6.6 3.33-.25 6.67-.49 10-.74.96-.07 1.91.21 2.68.79 8.98 6.75 17.95 13.5 26.93 20.25Z" class="cls-1bi5"/><path d="M1288.79 520.22c53.37-19.75 105.77 7.76 106.69 4.17 1.03-4.02-63.09-44.92-122.04-22.24-71.1 27.35-84.13 127.76-79.72 129.86 4.23 2.02 25.28-85.97 95.07-111.79" class="cls-1bi2"/><path d="M1127.76 1135.05c-.83 0-1.65-.34-2.24-1-1.1-1.24-.99-3.13.24-4.24 26.49-23.62 45.17-50.73 55.51-80.6 17.01-49.09 8.05-95.08.15-135.66-7.58-38.92-14.13-72.54 6.91-95.5 14.77-16.13 40.22-22.97 75.63-20.36a3 3 0 0 1 2.77 3.21 3 3 0 0 1-3.21 2.77c-33.49-2.48-57.3 3.72-70.76 18.42-18.99 20.73-13.01 51.43-5.44 90.3 8.05 41.32 17.17 88.16-.37 138.77-10.69 30.84-29.93 58.81-57.19 83.11-.57.51-1.29.76-2 .76Z" class="cls-1bi5"/><path d="M1279.19 857.83c-39.37 33.11-47.26 102.23-12.16 131.07 34.97 28.73 101.09 7.99 126.05-36.96 16.77-30.21 17.97-76.77-12.75-101.66-30.4-24.63-75.12-14.33-101.14 7.56Z" class="cls-1bi8"/><path d="M1260.47 1016.05c.92 1.56 3.24 1.34 3.85-.37a98 98 0 0 0 3.96-14.52 99 99 0 0 0 1.64-13.36c.08-1.44-1.27-2.55-2.66-2.18-4.87 1.29-10.21 3.02-15.84 5.34-2.31.96-4.51 1.95-6.59 2.95-1.72.83-1.56 3.34.26 3.94 1.7.57 3.4 1.13 5.09 1.7.49.16.9.5 1.16.94 3.05 5.19 6.09 10.37 9.14 15.56Z" class="cls-1bi6"/><path d="M1301.21 976.74c38.3 6.29 79.05-14.87 102.01-53.6-1.88 10.34-5.38 20.23-10.14 28.8-24.96 44.95-91.08 65.69-126.05 36.96-13.33-10.95-20.45-27.71-22.01-46.09 6.28 7.67 25.36 28.87 56.2 33.93Z" class="cls-1bi7"/><path d="M1260.47 1016.05c.92 1.56 3.24 1.34 3.85-.37a98 98 0 0 0 3.96-14.52 99 99 0 0 0 1.64-13.36c.08-1.44-1.27-2.55-2.66-2.18-4.87 1.29-10.21 3.02-15.84 5.34-2.31.96-4.51 1.95-6.59 2.95-1.72.83-1.56 3.34.26 3.94 1.7.57 3.4 1.13 5.09 1.7.49.16.9.5 1.16.94 3.05 5.19 6.09 10.37 9.14 15.56Z" class="cls-1bi7"/><path d="M1338.81 856.38c30.45 1.24 50.68 25.64 51.87 24.06 1.34-1.78-21.92-35.21-55.73-36.15-40.78-1.14-67.92 45.8-66.18 47.75 1.67 1.87 30.22-37.28 70.04-35.65Z" class="cls-1bi9"/><path d="M1133.08 1128.59c-1.24 0-2.41-.78-2.84-2.02a3.01 3.01 0 0 1 1.85-3.82c17.73-6.13 32.36-15.56 43.47-28 18.28-20.48 23.29-44.86 27.72-66.37 4.35-21.17 8.11-39.45 23.88-46.76 11.03-5.11 25.43-3.25 42.79 5.55 1.48.75 2.07 2.55 1.32 4.03a2.995 2.995 0 0 1-4.03 1.32c-15.64-7.93-28.28-9.76-37.56-5.46-13.02 6.04-16.33 22.14-20.53 42.53-4.35 21.15-9.77 47.48-29.12 69.16-11.8 13.22-27.27 23.21-45.98 29.68-.32.11-.66.17-.98.17Z" class="cls-1bi7"/><path d="M1089.88 1159.88h-679.6c-37.28 0-67.6-30.33-67.6-67.6v-679.6c0-37.28 30.33-67.6 67.6-67.6h679.6c37.28 0 67.6 30.33 67.6 67.6v679.6c0 37.28-30.33 67.6-67.6 67.6m-679.6-784.81c-20.73 0-37.6 16.87-37.6 37.6v679.6c0 20.73 16.87 37.6 37.6 37.6h679.6c20.73 0 37.6-16.87 37.6-37.6V412.68c0-20.73-16.87-37.6-37.6-37.6h-679.6Z" class="cls-1bi5"/></svg>