<svg fill="none" xmlns="http://www.w3.org/2000/svg" width="300" height="300" viewBox="0 0 300 300"><g transform="translate(10 10)"><circle cx="138.51" cy="150.685" r="105.389" stroke="#16B054" stroke-width="16.795"/><path d="M203.59 56.633c-14.58-9.897-23.779-5.69-26.208-8.969-3.974-.281-3.577 1.264-1.2 3.776 2.972 3.139 8.812 9.01 20.763 15.049s7.012 13.739 23.778 8.207c5.248-1.731 7.965-3.249 8.921-4.627-15.137-5.038-19.302-8.853-26.054-13.436" fill="#16B054"/><path d="M219.546 70.075c-14.581-9.897-23.779-5.69-26.209-8.969-3.973-.282-3.577 1.264-1.2 3.775 2.973 3.14 8.813 9.01 20.764 15.05 11.951 6.038 7.011 13.739 23.777 8.207 5.248-1.731 7.965-3.249 8.921-4.627-15.137-5.038-19.302-8.853-26.053-13.436" fill="#16B054"/><path d="M231.01 86.02c-12.611-12.31-22.407-9.786-24.222-13.44-3.862-.977-3.743.614-1.845 3.505 2.374 3.613 7.09 10.42 17.792 18.467s4.485 14.758 21.962 12.263c5.472-.781 8.413-1.797 9.596-2.986-14.014-7.623-17.443-12.11-23.283-17.81" fill="#16B054"/><path d="M244.316 104.806c-8.403-15.49-18.506-15.98-19.158-20.008-3.4-2.076-3.758-.52-2.8 2.802 1.198 4.154 3.687 12.052 11.528 22.906s-.085 15.425 17.348 18.215c5.457.873 8.568.773 10.05-.011-11.13-11.43-13.077-16.731-16.968-23.904" fill="#16B054"/><path d="M251.436 128.887c-6.913-16.21-16.925-17.646-17.196-21.717-3.19-2.386-3.693-.871-3.051 2.527.803 4.247 2.54 12.344 9.328 23.886s-1.531 15.349 15.563 19.762c5.351 1.382 8.457 1.574 10.006.932-10.008-12.423-11.449-17.884-14.65-25.39" fill="#16B054"/><path d="M253.573 153.005c-5.808-16.638-9.399-18.891-9.396-22.972-3.023-2.594-3.626-1.117-3.213 2.316.515 4.293-4.598 12.636 1.399 24.608s-2.561 15.211 14.198 20.764c5.247 1.738 8.332 2.139 9.921 1.602-9.15-13.068-10.22-18.613-12.909-26.318" fill="#16B054"/><path d="M253.728 177.577c.609-17.611-1.923-21.012-.443-24.815-1.878-3.512-2.975-2.354-3.834.996-1.074 4.188-8.86 10.114-7.604 23.445s-7.893 13.253 5.719 24.496c4.262 3.519 6.993 5.01 8.669 5.085-3.799-15.494-2.79-21.051-2.507-29.207" fill="#16B054"/><path d="M245.039 199.321c4.271-17.097 2.504-20.951 4.745-24.361-1.104-3.827-2.419-2.923-3.957.174-1.924 3.871-10.775 8.043-12.328 21.343-1.554 13.299-10.485 11.314.482 25.149 3.433 4.331 5.794 6.359 7.417 6.782-.483-15.946 1.664-21.17 3.641-29.087" fill="#16B054"/><path d="M232.824 222.052c9.484-14.853 9.033-19.069 12.242-21.59.169-3.979-1.364-3.54-3.808-1.092-3.054 3.059-12.772 4.201-18.472 16.317-5.7 12.117-13.536 7.395-7.536 23.999 1.879 5.198 3.472 7.871 4.877 8.787 4.61-15.272 8.306-19.543 12.697-26.421" fill="#16B054"/><path d="M212.33 241.859c11.912-12.987 12.199-17.217 15.795-19.144.857-3.89-.73-3.723-3.56-1.736-3.538 2.484-13.307 1.926-21.019 12.872-7.713 10.946-14.613 4.939-11.579 22.331.95 5.445 2.057 8.353 3.281 9.499 7.186-14.243 11.566-17.809 17.082-23.822M190.994 52.434c-14.581-9.897-23.779-5.69-26.209-8.968-3.973-.282-3.577 1.263-1.199 3.775 2.972 3.139 8.812 9.01 20.763 15.049s7.011 13.739 23.777 8.208c5.249-1.732 7.965-3.25 8.921-4.628-15.136-5.038-19.301-8.852-26.053-13.436" fill="#16B054"/><path d="M206.949 65.876c-14.58-9.897-23.779-5.69-26.209-8.969-3.973-.281-3.577 1.264-1.199 3.775 2.972 3.14 8.812 9.01 20.763 15.05 11.951 6.038 7.011 13.739 23.777 8.207 5.249-1.731 7.965-3.249 8.921-4.627-15.136-5.038-19.301-8.853-26.053-13.436" fill="#16B054"/><path d="M215.894 80.98c-12.611-12.308-22.407-9.785-24.222-13.44-3.862-.976-6.071 5.07-4.172 7.96 2.373 3.613 2.381 7.487 15 13.5 12.088 5.76 8.918 15.5 29.5 15.5 5.527 0 5.994-4.521 7.178-5.71-14.014-7.622-17.443-12.11-23.284-17.81m-154.226 0c12.611-12.308 22.407-9.785 24.222-13.44 3.861-.976 6.07 5.07 4.172 7.96-2.373 3.613-2.38 7.487-15 13.5-12.088 5.76-8.918 15.5-29.5 15.5-5.527 0-5.994-4.521-7.178-5.71 14.014-7.622 17.443-12.11 23.283-17.81" fill="#16B054"/><path d="M231.719 100.607c-8.403-15.49-18.506-15.98-19.158-20.008-3.4-2.076-3.758-.52-2.8 2.802 1.198 4.154 3.687 12.052 11.528 22.906s-.085 15.425 17.348 18.215c5.458.873 8.568.773 10.05-.011-11.129-11.43-13.076-16.731-16.968-23.904" fill="#16B054"/><path d="M238.84 124.688c-6.913-16.21-16.926-17.646-17.197-21.717-3.19-2.386-3.692-.871-3.05 2.527.802 4.248 2.54 12.345 9.328 23.887s-1.532 15.348 15.562 19.762c5.352 1.381 8.457 1.573 10.007.931-10.008-12.423-11.449-17.884-14.65-25.39" fill="#16B054"/><path d="M240.976 148.806c-5.807-16.638-9.399-18.891-9.396-22.972-3.022-2.594-3.625-1.117-3.213 2.316.515 4.293-4.598 12.636 1.399 24.608s-2.56 15.211 14.198 20.764c5.247 1.738 8.333 2.139 9.922 1.602-9.15-13.068-10.221-18.613-12.91-26.318" fill="#16B054"/><path d="M241.131 173.379c.61-17.612-1.923-21.013-.443-24.815-1.878-3.513-2.975-2.354-3.834.996-1.073 4.187-8.859 10.114-7.603 23.445 1.255 13.331-7.893 13.252 5.719 24.495 4.261 3.52 6.993 5.01 8.668 5.085-3.799-15.494-2.789-21.051-2.507-29.206" fill="#16B054"/><path d="M232.443 195.122c4.271-17.097 2.504-20.951 4.744-24.361-1.104-3.827-2.418-2.923-3.957.174-1.923 3.871-10.775 8.043-12.328 21.343-1.553 13.299-10.484 11.314.483 25.149 3.433 4.331 5.793 6.359 7.416 6.782-.482-15.946 1.664-21.17 3.642-29.087" fill="#16B054"/><path d="M220.228 217.854c9.483-14.853 9.033-19.069 12.241-21.59.17-3.98-1.364-3.541-3.807-1.093-3.055 3.059-12.773 4.201-18.473 16.318-5.699 12.116-13.536 7.395-7.535 23.998 1.878 5.198 3.472 7.871 4.876 8.788 4.611-15.273 8.306-19.543 12.698-26.421" fill="#16B054"/><path d="M191.414 244.83c11.913-12.986 12.199-17.217 15.796-19.144.856-3.89-.73-3.723-3.561-1.735-3.538 2.484-13.307 1.925-21.019 12.871s-14.613 4.939-11.578 22.331c.95 5.445 2.056 8.353 3.28 9.499 7.187-14.243 11.566-17.809 17.082-23.822" fill="#16B054"/><path d="M171.776 252.313c14.114-10.552 15.18-14.655 19.072-15.882 1.563-3.664-.027-3.794-3.177-2.366-3.937 1.785-13.433-.576-23.042 8.75-9.608 9.326-15.275 2.143-15.519 19.796-.076 5.526.471 8.589 1.462 9.943 9.703-12.663 14.668-15.355 21.204-20.241m-64.309 1.679c-14.114-10.552-15.18-14.655-19.072-15.882-1.563-3.664.027-3.794 3.177-2.366 3.937 1.785 13.434-.576 23.042 8.75s15.275 2.143 15.519 19.796c.077 5.526-.471 8.59-1.462 9.943-9.703-12.663-14.668-15.355-21.204-20.241" fill="#16B054"/><path d="M135.923 254.079c-17.622.072-20.944-2.562-24.79-1.199-3.454-1.984-2.262-3.045 1.113-3.802 4.218-.945 10.379-8.547 23.665-6.886 13.287 1.662 18.974-3.753 29.129 6.886 3.816 3.998-.024 6.719 0 8.396-15.371-4.269-20.956-3.429-29.117-3.395M85.607 52.434c14.58-9.897 23.779-5.69 26.209-8.968 3.973-.282 3.577 1.263 1.199 3.775-2.972 3.139-8.812 9.01-20.763 15.049s-7.011 13.739-23.777 8.208c-5.249-1.732-7.965-3.25-8.921-4.628 15.136-5.038 19.301-8.852 26.053-13.436" fill="#16B054"/><path d="M69.652 65.876c14.58-9.897 23.778-5.69 26.208-8.969 3.974-.281 3.577 1.264 1.2 3.775-2.972 3.14-8.812 9.01-20.763 15.05-11.951 6.038-7.012 13.739-23.778 8.207-5.248-1.731-7.965-3.249-8.92-4.627 15.136-5.038 19.3-8.853 26.053-13.436" fill="#16B054"/><path d="M44.881 100.607c8.403-15.49 18.506-15.98 19.159-20.008 3.4-2.076 3.757-.52 2.8 2.802-1.198 4.154-3.688 12.052-11.529 22.906-7.84 10.855.085 15.425-17.348 18.215-5.457.873-8.567.773-10.05-.011 11.13-11.43 13.077-16.731 16.968-23.904" fill="#16B054"/><path d="M37.761 124.688c6.913-16.21 16.925-17.646 17.197-21.717 3.19-2.386 3.692-.871 3.05 2.527-.803 4.248-2.54 12.345-9.328 23.887s1.532 15.348-15.563 19.762c-5.351 1.381-8.457 1.573-10.006.931 10.008-12.423 11.449-17.884 14.65-25.39" fill="#16B054"/><path d="M35.625 148.806c5.807-16.638 9.399-18.891 9.395-22.972 3.023-2.594 3.626-1.117 3.214 2.316-.515 4.293 4.597 12.636-1.4 24.608s2.561 15.211-14.198 20.764c-5.246 1.738-8.332 2.139-9.921 1.602 9.15-13.068 10.22-18.613 12.91-26.318" fill="#16B054"/><path d="M35.47 173.379c-.61-17.612 1.922-21.013.443-24.815 1.878-3.513 2.975-2.354 3.833.996 1.074 4.187 8.86 10.114 7.604 23.445s7.893 13.252-5.72 24.495c-4.26 3.52-6.992 5.01-8.667 5.085 3.798-15.494 2.789-21.051 2.507-29.206" fill="#16B054"/><path d="M44.158 195.122c-4.27-17.097-2.504-20.951-4.745-24.361 1.104-3.827 2.419-2.923 3.958.174 1.923 3.871 10.775 8.043 12.328 21.343 1.553 13.299 10.484 11.314-.483 25.149-3.433 4.331-5.793 6.359-7.416 6.782.482-15.946-1.664-21.17-3.642-29.087" fill="#16B054"/><path d="M56.373 217.854c-9.483-14.853-9.033-19.069-12.241-21.59-.17-3.98 1.364-3.541 3.807-1.093 3.054 3.059 12.772 4.201 18.472 16.318 5.7 12.116 13.537 7.395 7.536 23.998-1.879 5.198-3.472 7.871-4.877 8.788-4.61-15.273-8.306-19.543-12.697-26.421" fill="#16B054"/><path d="M85.187 244.83c-11.913-12.986-12.2-17.217-15.796-19.144-.857-3.89.73-3.723 3.56-1.735 3.538 2.484 13.308 1.925 21.02 12.871s14.613 4.939 11.578 22.331c-.95 5.445-2.056 8.353-3.281 9.499-7.186-14.243-11.565-17.809-17.082-23.822M73.01 56.633c14.581-9.897 23.78-5.69 26.21-8.969 3.973-.281 3.576 1.264 1.199 3.776-2.972 3.139-8.812 9.01-20.763 15.049s-7.012 13.739-23.778 8.207c-5.248-1.731-7.965-3.249-8.92-4.627 15.136-5.038 19.3-8.853 26.053-13.436" fill="#16B054"/><path d="M57.055 70.075c14.58-9.897 23.78-5.69 26.209-8.969 3.973-.282 3.577 1.264 1.2 3.775-2.973 3.14-8.813 9.01-20.764 15.05-11.95 6.038-7.011 13.739-23.777 8.207-5.248-1.731-7.965-3.249-8.921-4.627 15.137-5.038 19.302-8.853 26.053-13.436" fill="#16B054"/><path d="M45.59 86.02c12.612-12.31 22.408-9.786 24.223-13.44 3.862-.977 3.743.614 1.845 3.505-2.374 3.613-7.09 10.42-17.792 18.467s-4.485 14.758-21.962 12.263c-5.472-.781-8.413-1.797-9.596-2.986 14.014-7.623 17.443-12.11 23.283-17.81" fill="#16B054"/><path d="M32.285 104.806c8.403-15.49 18.506-15.98 19.158-20.008 3.4-2.076 3.758-.52 2.8 2.802-1.198 4.154-3.687 12.052-11.528 22.906-7.84 10.854.085 15.425-17.348 18.215-5.457.873-8.568.773-10.05-.011 11.13-11.43 13.077-16.731 16.968-23.904" fill="#16B054"/><path d="M25.165 128.887c6.913-16.21 16.925-17.646 17.196-21.717 3.19-2.386 3.693-.871 3.05 2.527-.802 4.247-2.54 12.344-9.327 23.886-6.788 11.542 1.531 15.349-15.563 19.762-5.351 1.382-8.457 1.574-10.006.932 10.008-12.423 11.449-17.884 14.65-25.39" fill="#16B054"/><path d="M23.028 153.005c5.808-16.638 9.4-18.891 9.396-22.972 3.023-2.594 3.626-1.117 3.214 2.316-.516 4.293 4.597 12.636-1.4 24.608s2.56 15.211-14.198 20.764c-5.246 1.738-8.332 2.139-9.921 1.602 9.15-13.068 10.22-18.613 12.91-26.318" fill="#16B054"/><path d="M22.874 177.577c-.61-17.611 1.922-21.012.442-24.815 1.879-3.512 2.975-2.354 3.834.996 1.074 4.188 8.86 10.114 7.604 23.445s7.893 13.253-5.72 24.496c-4.26 3.519-6.992 5.01-8.668 5.085 3.8-15.494 2.79-21.051 2.508-29.207" fill="#16B054"/><path d="M31.562 199.321c-4.271-17.097-2.504-20.951-4.745-24.361 1.104-3.827 2.419-2.923 3.957.174 1.924 3.871 10.775 8.043 12.329 21.343 1.553 13.299 10.484 11.314-.483 25.149-3.433 4.331-5.794 6.359-7.417 6.782.483-15.946-1.664-21.17-3.641-29.087" fill="#16B054"/><path d="M43.777 222.052c-9.484-14.853-9.033-19.069-12.242-21.59-.17-3.979 1.364-3.54 3.808-1.092 3.054 3.059 12.772 4.201 18.472 16.317 5.7 12.117 13.537 7.395 7.536 23.999-1.879 5.198-3.472 7.871-4.877 8.787-4.61-15.272-8.306-19.543-12.697-26.421" fill="#16B054"/><path d="M64.271 241.859c-11.912-12.987-12.199-17.217-15.795-19.144-.857-3.89.73-3.723 3.56-1.736 3.538 2.484 13.307 1.926 21.02 12.872s14.612 4.939 11.578 22.331c-.95 5.445-2.057 8.353-3.281 9.499-7.186-14.243-11.565-17.809-17.082-23.822" fill="#16B054"/><path d="M101.814 21.44c2.186-.715 38.896 1.749 39.745 3.078.85 1.33 1.362 54.603 1.362 54.603s-39.255-6.356-39.854-7.456c-.286-.525-1.051-7.313-1.797-19.553-.772-12.654-.596-30.3.544-30.672" fill="#FF5130"/><path d="M175.393 19.688c-1.232-.303-20.542 2.97-33.913 4.932l1.441 54.5s32.42-8.678 33.058-9.272c.639-.593 1.341-16.939 1.165-24.023-.177-7.084-.519-25.834-1.751-26.137" fill="#FF7B62"/><path d="m113.796 21.888 10.983.911.946 53.46-11.004-1.788z" fill="url(#a)"/><path d="m154.735 22.623 9.759-1.412 1.293 51.833-9.73 2.58z" fill="#FFCC5E"/><path d="m135.7 18.093 40.02 1.612-33.964 6.159-39.943-4.46z" fill="#FF9085"/><path d="m151.143 18.587 9.626.549-35.626 4.974-11.215-1.305z" fill="#FFC444"/><path d="m125.508 19.098-8.224.788 37.637 3.648 9.588-1.74z" fill="#FFC444"/><path d="M132.138 21.419c6.232 2.606 9.928 2.568 11.676-2.44 8.149-4.863 6.054-9.208 4.632-11.514-4.241-3.401-4.758-3.574-11.389 2.547-9.447-.5-8.357 9.968-4.919 11.407m14.909-10.38c1.328 1.932-3.035 1.719-6.664 4.505-3.63 2.786-5.608 6.587-6.256 4.488.081-2.628 2.626-1.702 6.256-4.488 3.629-2.786 5.336-6.436 6.664-4.504" fill="#DF952A"/><path d="M150.751 18.692c-1.613 3.842-9.118 7.357-12.988.015-9.574 1.497-10.731-6.035-9.118-9.876 2.732-4.878 8.795-5.21 13.295 1.593 11.098-2.054 10 5.436 8.811 8.268M134.997 10.8c-.989 2.354 1.186 1.914 4.982 3.731 3.795 1.818 5.21 4.518 6.198 2.164s-2.034-1.065-5.83-2.883c-3.795-1.817-4.361-5.366-5.35-3.012" fill="url(#b)"/><path d="M130.524 20c.068-2.495 7.401-14.674 9.978-16.79 3.34.092 8.837 3.802 8.799 5.214-.207 7.561-6.76 12.948-10.224 15.35-1.8 1.248-8.593-2.3-8.553-3.774" fill="url(#c)"/><path d="M67.034 44.53c1.319-.431 23.459 1.055 23.971 1.856s.821 32.932.821 32.932-23.675-3.833-24.036-4.496c-.173-.317-.634-4.412-1.084-11.793-.466-7.632-.36-18.274.328-18.5" fill="#FF5130"/><path d="M111.411 43.473c-.743-.182-12.39 1.792-20.454 2.975l.87 32.87s19.553-5.234 19.938-5.592.808-10.216.702-14.489c-.107-4.272-.313-15.581-1.056-15.764" fill="#FF7B62"/><path d="m74.26 44.8 6.624.55.571 32.242-6.636-1.078z" fill="url(#d)"/><path d="m98.951 45.244 5.886-.852.78 31.261-5.868 1.556z" fill="#FFCC5E"/><path d="m87.472 42.511 24.136.972-20.484 3.715-24.09-2.69z" fill="#FF9085"/><path d="m96.785 42.81 5.806.33-21.487 3-6.764-.787z" fill="#FFC444"/><path d="m81.324 43.117-4.96.476 22.7 2.2 5.782-1.05z" fill="#FFC444"/><path d="M85.323 44.517c3.758 1.572 5.988 1.55 7.042-1.471 4.915-2.933 3.651-5.554 2.793-6.944-2.557-2.052-2.869-2.156-6.868 1.536-5.698-.302-5.04 6.012-2.967 6.88m8.992-6.26c.8 1.165-1.83 1.037-4.02 2.717-2.188 1.68-3.381 3.973-3.773 2.707.05-1.585 1.585-1.026 3.773-2.707 2.19-1.68 3.219-3.882 4.02-2.717" fill="#DF952A"/><path d="M96.549 42.873c-.973 2.317-5.5 4.437-7.834.009-5.774.903-6.472-3.64-5.499-5.957 1.648-2.942 5.305-3.142 8.019.961 6.693-1.239 6.031 3.279 5.314 4.987m-9.502-4.76c-.596 1.42.716 1.154 3.005 2.25s3.142 2.725 3.738 1.305-1.227-.642-3.516-1.739-2.63-3.236-3.227-1.816" fill="url(#e)"/><path d="M84.35 43.662c.04-1.505 4.463-8.85 6.017-10.126 2.015.055 5.33 2.292 5.307 3.144-.125 4.56-4.077 7.809-6.166 9.258-1.086.752-5.183-1.387-5.158-2.276" fill="url(#f)"/><path d="M206.699 44.32c-1.319-.431-23.459 1.055-23.971 1.857-.512.801-.821 32.931-.821 32.931s23.675-3.833 24.036-4.496c.173-.317.634-4.411 1.084-11.793.465-7.632.36-18.274-.328-18.5" fill="#FF5130"/><path d="M162.322 43.263c.743-.182 12.39 1.792 20.454 2.975l-.869 32.87s-19.554-5.234-19.938-5.592-.809-10.217-.703-14.489.313-15.581 1.056-15.764" fill="#FF7B62"/><path d="m199.472 44.59-6.623.55-.571 32.242 6.637-1.078z" fill="url(#g)"/><path d="m174.782 45.033-5.886-.851-.78 31.261 5.868 1.556z" fill="#FFCC5E"/><path d="m186.261 42.301-24.136.972 20.484 3.715 24.09-2.69z" fill="#FF9085"/><path d="m176.948 42.6-5.806.33 21.487 3 6.764-.786z" fill="#FFC444"/><path d="m192.409 42.907 4.96.476-22.699 2.2-5.783-1.05z" fill="#FFC444"/><path d="M188.41 44.307c-3.758 1.572-5.988 1.549-7.042-1.471-4.915-2.933-3.651-5.554-2.793-6.945 2.557-2.05 2.869-2.155 6.868 1.537 5.698-.302 5.04 6.012 2.967 6.879m-8.992-6.26c-.801 1.165 1.831 1.037 4.02 2.717s3.381 3.973 3.773 2.707c-.049-1.585-1.585-1.027-3.773-2.707s-3.219-3.882-4.02-2.717" fill="#DF952A"/><path d="M177.184 42.663c.973 2.317 5.499 4.437 7.834.009 5.774.903 6.472-3.64 5.499-5.957-1.648-2.942-5.305-3.142-8.019.961-6.693-1.239-6.031 3.279-5.314 4.987m9.502-4.76c.596 1.42-.716 1.154-3.005 2.25s-3.142 2.725-3.738 1.305 1.227-.642 3.516-1.739 2.63-3.236 3.227-1.816" fill="url(#h)"/><path d="M189.383 43.452c-.041-1.505-4.463-8.85-6.017-10.126-2.015.055-5.33 2.292-5.307 3.144.125 4.56 4.077 7.809 6.166 9.258 1.086.752 5.183-1.387 5.158-2.276" fill="url(#i)"/><circle cx="238.44" cy="130.531" r="3.779" fill="#FF5130"/><circle cx="231.722" cy="90.223" r="3.779" fill="#FF5130"/><circle r="3.779" transform="matrix(-1 0 0 1 27.663 128.012)" fill="#FF5130"/><circle r="3.779" transform="matrix(-1 0 0 1 53.695 85.185)" fill="#FF5130"/><circle cx="252.716" cy="175.878" r="3.779" fill="#FF5130"/><circle r="3.779" transform="matrix(-1 0 0 1 27.779 163.779)" fill="#FF5130"/><circle r="2.099" transform="matrix(-1 0 0 1 41.938 142.288)" fill="#FFC444"/><circle r="2.099" transform="matrix(-1 0 0 1 34.1 184.099)" fill="#FFC444"/><circle r="2.099" transform="matrix(-1 0 0 1 60.1 218.099)" fill="#FFC444"/><circle r="2.099" transform="matrix(-1 0 0 1 38.58 103.659)" fill="#FFC444"/><circle r="2.099" transform="matrix(-1 0 0 1 224.164 103.659)" fill="#FFC444"/><circle r="2.099" transform="matrix(-1 0 0 1 252.716 149.006)" fill="#FFC444"/><circle r="2.099" transform="matrix(-1 0 0 1 235.081 175.878)" fill="#FFC444"/><circle r="2.099" transform="matrix(-1 0 0 1 219.966 233.821)" fill="#FFC444"/><circle r="2.099" transform="matrix(-1 0 0 1 186.099 248.099)" fill="#FFC444"/><circle r="2.099" transform="matrix(-1 0 0 1 150.099 255.099)" fill="#FFC444"/><circle r="2.099" transform="matrix(-1 0 0 1 103.099 255.099)" fill="#FFC444"/><circle cx="223.645" cy="206.468" r="3.779" fill="#FF5130"/><circle r="3.779" transform="matrix(-1 0 0 1 56.779 201.779)" fill="#FF5130"/><circle cx="202.331" cy="243.058" r="3.779" fill="#FF5130"/><path d="M67 241.779a3.779 3.779 0 1 0 7.558 0 3.779 3.779 0 0 0-7.558 0m50 20a3.78 3.78 0 1 0 7.558 0 3.78 3.78 0 0 0-7.558 0m42-14a3.78 3.78 0 1 0 7.558 0 3.78 3.78 0 0 0-7.558 0" fill="#FF5130"/><defs><linearGradient id="a" x1="115.021" y1="97.638" x2="134.143" y2="11.197" gradientUnits="userSpaceOnUse"><stop offset=".29" stop-color="#FFC444"/><stop offset="1" stop-color="#F36F56"/></linearGradient><linearGradient id="b" x1="127.832" y1="-9.995" x2="148.028" y2="69.326" gradientUnits="userSpaceOnUse"><stop offset=".547" stop-color="#FFB444"/><stop offset="1" stop-color="#FF9085"/></linearGradient><linearGradient id="c" x1="140.213" y1="3.203" x2="139.643" y2="24.081" gradientUnits="userSpaceOnUse"><stop offset=".151" stop-color="#FEAE00"/><stop offset="1" stop-color="#F36F56"/></linearGradient><linearGradient id="d" x1="74.999" y1="90.486" x2="86.532" y2="38.352" gradientUnits="userSpaceOnUse"><stop offset=".29" stop-color="#FFC444"/><stop offset="1" stop-color="#F36F56"/></linearGradient><linearGradient id="e" x1="82.726" y1="25.571" x2="94.907" y2="73.411" gradientUnits="userSpaceOnUse"><stop offset=".547" stop-color="#FFB444"/><stop offset="1" stop-color="#FF9085"/></linearGradient><linearGradient id="f" x1="90.193" y1="33.531" x2="89.849" y2="46.123" gradientUnits="userSpaceOnUse"><stop offset=".151" stop-color="#FEAE00"/><stop offset="1" stop-color="#F36F56"/></linearGradient><linearGradient id="g" x1="198.734" y1="90.276" x2="187.201" y2="38.142" gradientUnits="userSpaceOnUse"><stop offset=".29" stop-color="#FFC444"/><stop offset="1" stop-color="#F36F56"/></linearGradient><linearGradient id="h" x1="191.007" y1="25.361" x2="178.826" y2="73.201" gradientUnits="userSpaceOnUse"><stop offset=".547" stop-color="#FFB444"/><stop offset="1" stop-color="#FF9085"/></linearGradient><linearGradient id="i" x1="183.54" y1="33.321" x2="183.884" y2="45.913" gradientUnits="userSpaceOnUse"><stop offset=".151" stop-color="#FEAE00"/><stop offset="1" stop-color="#F36F56"/></linearGradient></defs></g></svg>