<svg fill="none" xmlns="http://www.w3.org/2000/svg" width="300" height="300" viewBox="0 0 2000 2000"><g transform="matrix(1.2 0 0 1.2 -180 -180)"><defs><style>.cls8-1{fill:#3a4f7a}.cls8-2{fill:#d880a2}.cls8-3{fill:#fea1bf}.cls8-4{fill:#e98ead}</style></defs><g id="\u0421\u043B\u043E\u0439_3" data-name="\u0421\u043B\u043E\u0439 3"><path class="cls8-1" d="M1124.13 354.3h-83.76a133.4 133.4 0 0 1 5-37.22 107.3 107.3 0 0 1 15.7-32.81l45.93-64.66s58.46 47.39 17.13 134.69"/><path class="cls8-2" d="M390.48 662q71.86-48.15 143.73-96.29v408.2a1258 1258 0 0 1-56.61-98.07A1266.4 1266.4 0 0 1 390.48 662m459.36-307.7 62.91-42.15q37.95 18 75.91 36l12.94 6.16Zm-181.4 774.37h436.45l-170.61 246.08c-79.63-52.45-184.76-132.6-285-247.46a133 133 0 0 0 19.16 1.38m814.9-545.85q-87.39 126-174.76 252.07v-335q87.36 41.49 174.76 82.93"/><path class="cls8-3" d="M797.58 300.41a61.4 61.4 0 0 1-34.35 20.06c-2.54.52-5.23.71-7.19-.81-2.15-1.66-2.6-4.74-2.55-8.14.3-22.58 11.85-36.68 11.85-36.68 1.78-2.17 14.28-17.09 27.36-17a14.74 14.74 0 0 1 15.21 12.08c3.09 12.43-8.15 27.65-10.33 30.49m41.25 44.48a15.66 15.66 0 0 1-4.22 9.41h-54.83a62.2 62.2 0 0 1-12.29-9.74c-1.79-1.86-3.41-4-3.2-6.48.22-2.7 2.58-4.75 5.46-6.55 19.14-12 37.25-9.91 37.25-9.91 2.8.33 22.11 2.76 29.11 13.79a16 16 0 0 1 2.72 9.48m-76.71 9.41h-17.27c.76-1 1.55-2.07 2.41-3.11 1.64-2 3.62-3.82 6.1-3.87 2.72-.05 5 2.07 7.08 4.74.56.74 1.14 1.5 1.68 2.24m-34.29-75.19a61.4 61.4 0 0 1 15.84 36.48c.21 2.58.08 5.28-1.66 7-1.9 1.94-5 2-8.38 1.57-22.39-3-35-16.13-35-16.13-1.94-2-15.27-16.2-13.63-29.17a14.73 14.73 0 0 1 13.8-13.68c12.69-1.56 26.47 11.42 29.03 13.93m10.61 67.38a60 60 0 0 1-4.83 7.81h-62.13c5.36-10.6 20.14-17.22 22.47-18.24 0 0 16.73-7.27 38.53-1.39 3.29.89 6.13 2.15 7.13 4.69.93 2.29.02 4.82-1.17 7.13"/><circle class="cls8-1" cx="750.57" cy="333.42" r="6.42"/><path class="cls8-1" d="M1077.35 354.3H994.6q-3-2.9-5.94-6.16c-11.27-12.25-22.73-28.46-34-49.78 0 0 54.52-9.48 90.71 18.72a73 73 0 0 1 12.92 12.85c8.14 10.41 14.34 18.33 19.06 24.37M534.21 973.91a1284 1284 0 0 0 115.06 153.38 134.24 134.24 0 0 1-115.06-132.86Zm774.37-139.02v159.54a134.24 134.24 0 0 1-134.23 134.24h-69.46q101.83-146.89 203.69-293.78"/><path class="cls8-1" d="M1174.61 1131.17h-505.9c-75.4 0-136.74-61.34-136.74-136.74v-505.9c0-75.39 61.34-136.73 136.74-136.73h505.9c75.4 0 136.74 61.34 136.74 136.73v505.9c0 75.4-61.35 136.74-136.74 136.74M668.71 356.8C596.07 356.8 537 415.89 537 488.53v505.9c0 72.64 59.1 131.74 131.74 131.74h505.9c72.64 0 131.74-59.1 131.74-131.74v-505.9c0-72.64-59.1-131.73-131.74-131.73Z"/><path class="cls8-2" d="M1182.7 926.45a28.33 28.33 0 0 1-15.82 9.24 4 4 0 0 1-3.31-.37c-1-.77-1.2-2.19-1.18-3.75a29.08 29.08 0 0 1 5.46-16.9c.82-1 6.58-7.87 12.6-7.83a6.81 6.81 0 0 1 7 5.57c1.44 5.72-3.75 12.73-4.75 14.04m2.48 28.63a28.3 28.3 0 0 1-16.34-8.29 4.08 4.08 0 0 1-1.48-3c.11-1.25 1.2-2.19 2.52-3a29.1 29.1 0 0 1 17.16-4.56c1.29.15 10.18 1.27 13.41 6.35a6.81 6.81 0 0 1-.88 8.91c-4.05 4.29-12.75 3.73-14.39 3.59M1153 967a28.3 28.3 0 0 1 6.52-17.12 4 4 0 0 1 2.81-1.78c1.25 0 2.3 1 3.27 2.18a29 29 0 0 1 6.35 16.58c0 1.29-.18 10.26-4.9 14a7.3 7.3 0 0 1-4.2 1.71 7.4 7.4 0 0 1-4.75-1.64c-4.7-3.6-5.1-12.32-5.1-13.93m-2.43-50.36a28.3 28.3 0 0 1 7.3 16.8 4 4 0 0 1-.76 3.25c-.88.89-2.32.92-3.87.72a29.1 29.1 0 0 1-16.13-7.43c-.89-.93-7-7.46-6.27-13.44a6.78 6.78 0 0 1 6.35-6.3c5.86-.73 12.2 5.24 13.38 6.4m-8.32 43.73a28.3 28.3 0 0 0 13.21-12.7 4 4 0 0 0 .54-3.28c-.46-1.17-1.77-1.75-3.28-2.16a29.1 29.1 0 0 0-17.75.64c-1.18.52-9.37 4.18-11 10a6.79 6.79 0 0 0 3.44 8.26c5.15 2.92 13.31-.13 14.84-.76"/><circle class="cls8-2" cx="1161.05" cy="941.66" r="2.96"/><path class="cls8-4" d="M908.19 1245.4c120.53-125.29 243.84-261.17 368.22-408.28Q1385 708.68 1483.34 582.83c-21.3 116.17-62 273.22-144 442.59A1616.4 1616.4 0 0 1 1150.26 1327c-18.64 6.71-80.47 26-150-4.6-49.39-21.84-78.96-58.4-92.07-77"/><path class="cls8-2" d="M816.9 1061.32a33.74 33.74 0 0 1-18.86 11c-1.39.28-2.87.39-3.94-.44s-1.43-2.61-1.4-4.47a34.57 34.57 0 0 1 6.51-20.14c1-1.19 7.83-9.38 15-9.34a8.11 8.11 0 0 1 8.36 6.64c1.71 6.83-4.47 15.19-5.67 16.75m2.96 34.12a33.74 33.74 0 0 1-19.47-9.89 4.83 4.83 0 0 1-1.77-3.56c.13-1.48 1.42-2.6 3-3.59a34.63 34.63 0 0 1 20.46-5.44c1.53.18 12.13 1.51 16 7.57a8.12 8.12 0 0 1-1 10.62c-4.89 5.12-15.26 4.46-17.22 4.29m-38.36 14.16a33.7 33.7 0 0 1 7.77-20.4 4.82 4.82 0 0 1 3.36-2.13c1.49 0 2.74 1.13 3.89 2.6a34.65 34.65 0 0 1 7.57 19.77c0 1.54-.22 12.22-5.84 16.68a8.09 8.09 0 0 1-10.67.08c-5.58-4.2-6.04-14.63-6.08-16.6m-2.89-59.98a33.77 33.77 0 0 1 8.7 20 4.85 4.85 0 0 1-.91 3.87c-1 1.06-2.76 1.1-4.61.86a34.6 34.6 0 0 1-19.22-8.86c-1.07-1.11-8.39-8.89-7.49-16a8.11 8.11 0 0 1 7.58-7.51c6.98-.86 14.54 6.26 15.95 7.64m-9.92 52.13a33.75 33.75 0 0 0 15.74-15.14c.65-1.26 1.16-2.66.65-3.92s-2.12-2.08-3.92-2.56a34.6 34.6 0 0 0-21.15.76c-1.41.61-11.16 5-13.07 11.9a8.67 8.67 0 0 0 .08 5.4 8.8 8.8 0 0 0 4 4.45c6.12 3.5 15.84-.17 17.67-.89"/><circle class="cls8-2" cx="791.09" cy="1079.44" r="3.52"/><path class="cls8-4" d="M598.43 861.91a26.7 26.7 0 0 1-14.9 8.7 3.84 3.84 0 0 1-3.12-.35c-.93-.72-1.12-2.06-1.1-3.53a27.33 27.33 0 0 1 5.14-15.91c.77-.94 6.19-7.41 11.86-7.37a6.86 6.86 0 0 1 4.09 1.23 6.93 6.93 0 0 1 2.51 4c1.34 5.4-3.54 12-4.48 13.23m2.33 26.95a26.64 26.64 0 0 1-15.38-7.81 3.8 3.8 0 0 1-1.39-2.81c.1-1.17 1.12-2.06 2.37-2.84a27.37 27.37 0 0 1 16.16-4.29c1.2.14 9.58 1.19 12.62 6a6.39 6.39 0 0 1-.83 8.38c-3.81 4.03-12 3.51-13.55 3.37m-30.3 11.19a26.7 26.7 0 0 1 6.14-16.12 3.82 3.82 0 0 1 2.65-1.68c1.18 0 2.17.9 3.08 2a27.34 27.34 0 0 1 6 15.62c0 1.21-.17 9.65-4.61 13.18a6.38 6.38 0 0 1-8.42.06c-4.46-3.31-4.8-11.51-4.84-13.06m-2.28-47.38a26.64 26.64 0 0 1 6.87 15.82 3.8 3.8 0 0 1-.72 3c-.83.85-2.18.88-3.63.68a27.36 27.36 0 0 1-15.19-7c-.84-.88-6.62-7-5.91-12.65a6.87 6.87 0 0 1 1.7-3.92 6.94 6.94 0 0 1 4.28-2c5.52-.6 11.49 4.98 12.6 6.07m-7.84 41.17a26.64 26.64 0 0 0 12.44-12 3.83 3.83 0 0 0 .51-3.1c-.44-1.09-1.67-1.64-3.09-2a27.35 27.35 0 0 0-16.71.6c-1.11.48-8.82 3.93-10.33 9.4a6.4 6.4 0 0 0 3.24 7.78c4.82 2.79 12.5-.1 13.94-.68"/><circle class="cls8-4" cx="578.04" cy="876.22" r="2.78"/><path class="cls8-3" d="M862.56 1498.81c-77.78-60.07-195.69-167.17-297.41-337.88C447 962.59 406.3 771.81 390.49 662c104.36 162 274.52 377 533.44 543.78A1580.4 1580.4 0 0 0 1150.26 1327a1004 1004 0 0 1-72.91 76.83 961.4 961.4 0 0 1-125.1 100.31Z"/><path class="cls8-3" d="m862.56 1498.81-42.49 179.51 169.95 102.07 59.8-49.28 50.35-3.52-147.92-223.5zm534.3-869.09a1108 1108 0 0 1-114.06-66.34 1104 1104 0 0 1-71.62-51.81c-.79 10.9-.46 33.13 14.35 57.93 33 55.33 105.37 68.58 108.65 69.14-12.7-5.9-43.55-18.55-80.58-16.85-42.67 2-67 21.78-75 29.06a180 180 0 0 0 48 30.9c39.59 17.26 72.88 14.16 85.38 12.34a80.5 80.5 0 0 0-30 9.25c-34.84 19.44-35.21 60-35.1 68.08a173.2 173.2 0 0 0 36.93 1.18c52-4.1 81.91-32.46 94-46.08l49.31-77.52Z"/><path class="cls8-3" d="M1433.31 652.91a969 969 0 0 0 83.65 60.6 972 972 0 0 0 102 57.55c-9.62 5.47-29.18 14.29-56.83 11.88-41.2-3.6-83.32-30.65-110.38-69.48 10.72 9 35.26 31.6 49.4 65.86 16.3 39.48 8.66 69.93 5.45 80.26a180.6 180.6 0 0 1-48.31-30.36c-32.41-28.55-43.7-60-47.35-72.12a80.3 80.3 0 0 1 4.34 31.14c-2.85 39.79-39.46 57.32-46.79 60.63a173.3 173.3 0 0 1-16.71-33c-18.33-48.85-5.3-87.95 1.89-104.71l49.34-77.55Z"/><path class="cls8-1" d="m1424.591 616.985 13.954 8.88a68.76 68.76 0 0 1 21.097 94.925l-5.948 9.348-129.968-82.703 5.953-9.357a68.76 68.76 0 0 1 94.912-21.093M919.76 1161.66a33.74 33.74 0 0 1-18.86 11c-1.39.28-2.87.39-3.94-.44s-1.43-2.61-1.4-4.47a34.57 34.57 0 0 1 6.51-20.14c1-1.19 7.83-9.39 15-9.34a8.11 8.11 0 0 1 8.36 6.63c1.71 6.84-4.43 15.2-5.67 16.76m2.96 34.12a33.74 33.74 0 0 1-19.47-9.89 4.83 4.83 0 0 1-1.77-3.56c.13-1.48 1.42-2.6 3-3.59a34.63 34.63 0 0 1 20.46-5.44c1.53.18 12.13 1.51 16 7.57a8.12 8.12 0 0 1-1 10.62c-4.89 5.12-15.26 4.45-17.22 4.29m-38.36 14.16a33.7 33.7 0 0 1 7.77-20.4 4.82 4.82 0 0 1 3.36-2.13c1.49 0 2.74 1.13 3.89 2.6a34.65 34.65 0 0 1 7.57 19.77c0 1.53-.22 12.22-5.84 16.68a8.09 8.09 0 0 1-10.67.08c-5.6-4.25-6.04-14.63-6.08-16.6m-2.89-59.94a33.7 33.7 0 0 1 8.7 20 4.85 4.85 0 0 1-.91 3.87c-1 1.06-2.76 1.1-4.61.86a34.6 34.6 0 0 1-19.22-8.86c-1.07-1.11-8.39-8.89-7.49-16a8.11 8.11 0 0 1 7.58-7.5c6.98-.91 14.54 6.21 15.95 7.63m-9.92 52.08a33.7 33.7 0 0 0 15.74-15.08c.65-1.26 1.16-2.66.65-3.92s-2.12-2.08-3.92-2.56a34.6 34.6 0 0 0-21.15.76c-1.41.61-11.16 5-13.07 11.9a8.66 8.66 0 0 0 .08 5.4 8.8 8.8 0 0 0 4 4.45c6.12 3.44 15.84-.22 17.67-.95"/><circle class="cls8-1" cx="893.95" cy="1179.78" r="3.52"/><path class="cls8-1" d="M502 754.15a573 573 0 0 1-58 35.69 571 571 0 0 1-41.05 19.93 50.7 50.7 0 0 0 29.85 7.61c33.23-1.52 56.92-31.19 58-32.55-5.78 4.34-19.07 15.29-27.33 32.54-9.52 19.89-6.45 35.8-5.09 41.22a93.4 93.4 0 0 0 25.77-14.28 81.46 81.46 0 0 0 26.45-35.83 41.5 41.5 0 0 0-3.13 15.93c.34 20.59 18.72 30.66 22.4 32.58a89 89 0 0 0 9.55-16.51 71.4 71.4 0 0 0 2-54l-23.24-41.37Z"/><path class="cls8-1" d="M521.46 743.23a504 504 0 0 0 48-23.26 501 501 0 0 0 51.07-32.37 49.75 49.75 0 0 1-8.46 28.75c-11.69 17.86-34.27 30.42-58.54 33.25 6.71-2.67 23-8.32 42-6.39 21.94 2.22 33.92 13.12 37.84 17.1a92.9 92.9 0 0 1-25.6 14.57c-20.9 7.77-38 5.23-44.36 3.94a41.5 41.5 0 0 1 15.22 5.62c17.41 11 16.44 31.94 16.16 36.08a89 89 0 0 1-19.07-.44 71.35 71.35 0 0 1-47.16-26.41l-23.23-41.37Z"/><path class="cls8-3" d="m503.017 738.333 7.446-4.182a35.49 35.49 0 0 1 48.322 13.565l2.811 5.005-69.377 38.964-2.81-5.005a35.49 35.49 0 0 1 13.608-48.347m584.093 334.457s-15.62 20.33-45 26.31c-3.33.67-6.86.92-9.43-1.06-2.82-2.18-3.4-6.23-3.34-10.68.39-29.62 15.54-48.11 15.54-48.11 2.33-2.84 18.73-22.41 35.87-22.29a20.83 20.83 0 0 1 12.37 3.72c5.6 4.09 7.12 10.22 7.59 12.11 4.02 16.31-10.71 36.27-13.6 40m7.07 81.52s-25.55-2.12-46.51-23.62c-2.37-2.43-4.49-5.27-4.22-8.51.31-3.55 3.39-6.23 7.17-8.59 25.11-15.7 48.87-13 48.87-13 3.65.42 29 3.6 38.16 18.08a20.85 20.85 0 0 1 3.57 12.42c-.41 6.92-4.74 11.52-6.07 12.94-11.52 12.27-36.29 10.67-40.97 10.28m-91.64 33.83s-.59-25.63 18.58-48.75c2.16-2.61 4.76-5 8-5.08 3.56-.08 6.55 2.71 9.3 6.21 18.27 23.31 18.07 47.22 18.07 47.22 0 3.68-.51 29.2-13.94 39.87a20.92 20.92 0 0 1-12 4.86c-6.92.32-12-3.5-13.51-4.68-13.36-10.15-14.39-34.95-14.5-39.65m-6.89-143.29s18.33 17.92 20.77 47.85c.27 3.38.1 6.92-2.17 9.23-2.5 2.55-6.59 2.64-11 2-29.36-3.91-45.93-21.14-45.93-21.14-2.54-2.66-20-21.26-17.88-38.27a20.9 20.9 0 0 1 5.17-11.84c4.73-5.07 11-5.85 12.93-6.1 16.68-2.04 34.74 14.98 38.11 18.27M972 1169.37s23.82-9.48 37.6-36.16c1.56-3 2.76-6.35 1.55-9.36-1.32-3.31-5.06-5-9.36-6.13-28.6-7.7-50.52 1.83-50.52 1.83-3.38 1.46-26.68 11.89-31.24 28.42a20.86 20.86 0 0 0 .2 12.91c2.41 6.5 7.89 9.64 9.59 10.61 14.53 8.36 37.76-.39 42.18-2.12"/><circle class="cls8-1" cx="1025.46" cy="1116.08" r="8.42"/><path class="cls8-1" d="M1414 484.55a58.64 58.64 0 0 1-32.76 19.13c-2.42.49-5 .67-6.86-.77-2.06-1.59-2.48-4.53-2.43-7.76.29-21.55 11.3-35 11.3-35 1.7-2.07 13.62-16.3 26.09-16.22a14.08 14.08 0 0 1 14.52 11.52c3 11.87-7.74 26.39-9.86 29.1m5.18 59.29a58.6 58.6 0 0 1-33.83-17.18c-1.72-1.77-3.27-3.83-3.07-6.19.23-2.58 2.47-4.53 5.22-6.25 18.26-11.42 35.54-9.44 35.54-9.44 2.66.31 21.08 2.62 27.76 13.15a14.07 14.07 0 0 1-1.82 18.45c-8.38 8.91-26.39 7.74-29.8 7.46m-66.65 24.61A58.62 58.62 0 0 1 1366 533c1.57-1.9 3.46-3.65 5.82-3.7 2.6 0 4.77 2 6.77 4.52 13.29 17 13.15 34.35 13.15 34.35 0 2.67-.38 21.23-10.15 29a14.06 14.06 0 0 1-18.53.14c-9.7-7.41-10.45-25.45-10.53-28.86m-5.02-104.23a58.66 58.66 0 0 1 15.11 34.8c.2 2.47.07 5-1.58 6.72-1.82 1.85-4.79 1.92-8 1.5-21.36-2.85-33.4-15.39-33.4-15.39-1.86-1.93-14.57-15.45-13-27.83a14.09 14.09 0 0 1 13.16-13c12.12-1.57 25.27 10.81 27.71 13.2m-17.24 90.57a58.58 58.58 0 0 0 27.35-26.29c1.14-2.2 2-4.62 1.13-6.81-1-2.41-3.68-3.62-6.8-4.46-20.81-5.6-36.76 1.32-36.76 1.32-2.45 1.07-19.4 8.66-22.72 20.68a14.08 14.08 0 0 0 7.12 17.11c10.61 6.08 27.51-.28 30.68-1.55"/><circle class="cls8-1" cx="1369.2" cy="516.03" r="6.12"/><path class="cls8-3" d="M542 583.09a61.47 61.47 0 0 1-34.35 20.06c-2.53.52-5.23.7-7.19-.81-2.15-1.66-2.59-4.74-2.54-8.14.3-22.58 11.85-36.68 11.85-36.68 1.78-2.17 14.28-17.09 27.35-17a14.74 14.74 0 0 1 15.22 12.07c3.05 12.41-8.21 27.66-10.34 30.5m5.34 62.16a61.5 61.5 0 0 1-35.47-18c-1.8-1.86-3.42-4-3.21-6.49.23-2.71 2.59-4.75 5.46-6.55 19.15-12 37.26-9.9 37.26-9.9 2.79.32 22.1 2.75 29.11 13.79a14.76 14.76 0 0 1-1.91 19.34c-8.78 9.32-27.67 8.11-31.24 7.81M477.47 671a61.44 61.44 0 0 1 14.16-37.16c1.65-2 3.63-3.83 6.11-3.88 2.71-.06 5 2.06 7.09 4.73 13.93 17.78 13.78 36 13.78 36 0 2.8-.39 22.26-10.63 30.4a14.77 14.77 0 0 1-19.43.14c-10.21-7.69-11-26.6-11.08-30.23m-5.26-109.22a61.46 61.46 0 0 1 15.84 36.49c.21 2.58.07 5.28-1.66 7-1.91 1.94-5 2-8.39 1.57-22.38-3-35-16.13-35-16.13-1.95-2-15.28-16.2-13.64-29.18a14.76 14.76 0 0 1 13.8-13.67c12.71-1.56 26.48 11.42 29.05 13.92m-18.07 94.95a61.48 61.48 0 0 0 28.67-27.57c1.19-2.3 2.1-4.84 1.18-7.14-1-2.52-3.85-3.79-7.13-4.67-21.81-5.87-38.53 1.39-38.53 1.39-2.57 1.12-20.34 9.07-23.82 21.67a14.74 14.74 0 0 0 7.49 17.94c11.09 6.38 28.81-.3 32.14-1.62"/><circle class="cls8-1" cx="494.94" cy="616.1" r="6.42"/><path class="cls8-1" d="M443.57 700.89a34.44 34.44 0 0 1-19.26 11.24c-1.43.29-2.94.4-4-.45s-1.45-2.66-1.42-4.56a35.42 35.42 0 0 1 6.64-20.58c1-1.21 8-9.58 15.34-9.53a8.28 8.28 0 0 1 8.54 6.77c1.69 6.98-4.62 15.51-5.84 17.11m3.02 34.85a34.4 34.4 0 0 1-19.89-10.1c-1-1-1.92-2.25-1.8-3.63s1.45-2.67 3.06-3.68a35.43 35.43 0 0 1 20.9-5.55c1.56.18 12.39 1.54 16.32 7.73a8.27 8.27 0 0 1-1.07 10.85c-4.92 5.23-15.52 4.55-17.52 4.38m-39.18 14.47a34.43 34.43 0 0 1 7.94-20.85c.93-1.11 2-2.14 3.42-2.17 1.53 0 2.81 1.16 4 2.66a35.4 35.4 0 0 1 7.71 20.15c0 1.57-.22 12.48-6 17a8.29 8.29 0 0 1-10.9.09c-5.69-4.27-6.13-14.87-6.17-16.88m-2.95-61.27a34.42 34.42 0 0 1 8.88 20.46 4.93 4.93 0 0 1-.93 4c-1.07 1.08-2.81 1.12-4.7.87a35.36 35.36 0 0 1-19.64-9c-1.09-1.13-8.57-9.09-7.65-16.36a8.28 8.28 0 0 1 7.74-7.67c7.13-.99 14.84 6.29 16.3 7.7m-10.14 53.24a34.43 34.43 0 0 0 16.08-15.46 4.92 4.92 0 0 0 .67-4c-.57-1.42-2.17-2.13-4-2.62a35.3 35.3 0 0 0-21.6.78C384 721.5 374.05 726 372.1 733a8.28 8.28 0 0 0 4.19 10.06c6.23 3.61 16.17-.14 18.03-.88"/><circle class="cls8-1" cx="417.21" cy="719.4" r="3.6"/><path class="cls8-1" d="M1514.59 649.94s63.59-78.37 141.48-63.41l77.89 15s-31.18 120.71-219.37 48.41m.48-66.49s56.43-20.39 62.06-61l5.62-40.61s-74.75-1.58-67.68 101.61M390.49 643.82s-67.91-14.73-82.91-67.23l-15-52.5s83.87-18.35 97.91 119.73m-41 20.36s-30.06-28.34-56.76-19.18L266 654.16s22.3 46.44 83.49 10.02m587.42 444.3S869 1093.76 854 1041.26l-15-52.5s83.87-18.36 97.91 119.72m-41 20.37s-30.06-28.34-56.75-19.18l-26.69 9.15s22.25 46.45 83.44 10.03m179.48 37.22s39.22.77 56.1 32.3l16.88 31.52s-42.37 22.31-72.98-63.82m36.49-83.21s66.46 4.88 90.55-33.74l24.09-38.62s-75.11-35.5-114.64 72.36m-99 536.36a2.51 2.51 0 0 1-2.46-2c-1.92-9.77-5.85-17.84-11.68-24-10.84-11.46-25.53-13.23-38.48-14.79-11.45-1.37-22.27-2.68-28-10.7-8-11.21-3.12-31 15-60.4-3.66.08-9.36-.06-16.93-.42-17-.78-44.29-2.67-81.13-5.6a2.5 2.5 0 0 1 .4-5c37.91 3 61.88 4.62 76.95 5.4-18.91-3.85-42.09-11.28-47.43-28-3.13-9.8.15-22.63 9.23-36.15 3.88-5.76 17.56-24.38 30.63-22 14.29 2.63 18.64 27.8 22.84 52.14 2.3 13.28 5.09 29.47 9.22 33.13a9.2 9.2 0 0 1 2.05.69h.33c5.3-1.51 12-21.33 17.49-37.41 9.88-29.1 21.08-62.09 40-63.42 12.32-.86 25 11.78 32.79 23.9 9.28 14.49 17.18 36.78 8.88 52-6.39 11.68-20.46 15.24-48.5 22.34a262 262 0 0 1-50 7.61l-.47.08c-18.42 29-24.25 48.57-17.33 58.24 4.47 6.23 13.78 7.35 24.56 8.65 13.79 1.66 29.43 3.54 41.51 16.31 6.49 6.85 10.85 15.76 13 26.46a2.5 2.5 0 0 1-2 2.94 2.6 2.6 0 0 1-.47 0m-.76-213.56h-.83c-15.63 1.1-26.73 33.78-35.64 60-5.28 15.55-9.63 28.35-14.54 35.28a256 256 0 0 0 41.77-7c26.63-6.74 40-10.12 45.35-19.89 6.78-12.4.51-32.46-8.71-46.85-8.52-13.2-19.15-21.54-27.4-21.54m-95.52 14.72c-7.83 0-17.72 10.51-24.1 20-8.21 12.22-11.28 23.53-8.62 31.84 6.11 19.13 42.23 24.69 59.59 27.36l.93.15c-3.3-6.83-5.26-18.13-7.5-31.14-3.55-20.53-8-46.07-18.82-48.07a8 8 0 0 0-1.48-.14"/><path class="cls8-1" d="M920.78 1615.88a1.5 1.5 0 0 1-1-2.61c6.63-6 52.31-55 48.8-82.09-3.38-26-15.71-25.64-16.22-25.59a1.5 1.5 0 0 1-.21-3c.63 0 15.63-.84 19.4 28.2 3.73 28.71-42.63 78.21-49.75 84.68a1.47 1.47 0 0 1-1.02.41"/></g></g></svg>