<svg xmlns="http://www.w3.org/2000/svg" viewBox="0 0 2000 2000" width="300" height="300" fill="none"><defs><style>.cls-5tet1{fill:#3b772f}.cls-5tet2{fill:#fff}.cls-5tet3{fill:#336827}.cls-5tet4{fill:#e03023}.cls-5tet5{fill:#d31e1a}.cls-5tet6{fill:#184f0c}.cls-5tet7{fill:#1f4c15}.cls-5tet8{fill:#ffaba9}.cls-5tet9{fill:#1e6612}.cls-5tet10{fill:#720806}</style></defs><path d="m506.67 570.57-2.13-3.93v-4.96c.59 2.5 1.18 4.93 1.74 7.29.14.54.26 1.07.39 1.6m33.2 89.02s-.01.01-.01 0zm45.1 857.87h-80.43V1422c14.41-.24 27.76 8.04 33.91 21.18 14.74-3.16 29.99 3.07 38.32 15.63 8.34 12.56 8.12 29.03-.52 41.38a36.67 36.67 0 0 1 8.72 17.26Z"/><path d="m1403.58 512.02.12.09c-.05-.03-.09-.06-.14-.09h-53.86c-.44-.23-.89-.46-1.33-.7-1.91-.99-3.81-1.99-5.72-2.99-2.35-1.22-4.7-2.46-7.05-3.69-12.11-6.33-24.22-12.67-36.32-19l-3.84-2.01c-6.87-3.59-13.74-7.19-20.61-10.78-4.39-2.31-6.62-7.33-5.35-12.13.65-2.48 1.45-5.31 2.46-8.43.15-.47.31-.95.46-1.43 1.6-4.92 3.67-10.51 6.29-16.52.33-.75.66-1.51 1.01-2.28.35-.76.7-1.53 1.06-2.31s.74-1.56 1.12-2.34c.38-.79.77-1.58 1.18-2.38q.6-1.2 1.23-2.4c.37-.71.74-1.4 1.12-2.11a174 174 0 0 1 4.88-8.49c.7-1.14 1.41-2.29 2.16-3.45.37-.58.75-1.15 1.13-1.73.75-1.16 1.54-2.32 2.35-3.48.31-.45.62-.9.94-1.34.91-1.3 1.85-2.59 2.83-3.9.35-.46.71-.93 1.05-1.39.98-1.29 1.99-2.56 3.03-3.85.47-.58.95-1.16 1.43-1.74.19-.24.39-.47.6-.72.09-.12.2-.23.31-.35.01-.03.03-.05.04-.06.01-.02.03-.03.03-.04a169.8 169.8 0 0 1 31.34-28.73c38.56-27.34 78.27-31.59 98.55-31.93 4.94-.08 9.3 3.25 10.5 8.04l3.53 14.03 2.14 8.48s.01.02.01.03l1.05 4.19s.02.01.01.02l35.38 140.52.93 3.69h.01l.75 2.99.18.7h-86.99Z" class="cls-5tet9"/><path d="m1403.58 512.02.12.09c-.05-.03-.09-.06-.14-.09h-53.86c-.44-.23-.89-.46-1.33-.7-1.91-.99-3.81-1.99-5.72-2.99-2.35-1.22-4.7-2.46-7.05-3.69-12.11-6.33-24.22-12.67-36.32-19l-3.84-2.01c-6.87-3.59-13.74-7.19-20.61-10.78-4.39-2.31-6.62-7.33-5.35-12.13.65-2.48 1.45-5.31 2.46-8.43.15-.47.31-.95.46-1.43 1.6-4.92 3.67-10.51 6.29-16.52.33-.75.66-1.51 1.01-2.28.35-.76.7-1.53 1.06-2.31s.74-1.56 1.12-2.34c.38-.79.77-1.58 1.18-2.38q.6-1.2 1.23-2.4c.37-.71.74-1.4 1.12-2.11a174 174 0 0 1 4.88-8.49c.7-1.14 1.41-2.29 2.16-3.45.37-.58.75-1.15 1.13-1.73.75-1.16 1.54-2.32 2.35-3.48.31-.45.62-.9.94-1.34.91-1.3 1.85-2.59 2.83-3.9.35-.46.71-.93 1.05-1.39.98-1.29 1.99-2.56 3.03-3.85.47-.58.95-1.16 1.43-1.74.19-.24.39-.47.6-.72.11-.14.22-.27.35-.41-.01.01-.03.03-.04.06-.97 1.26-6.4 8.55-12.04 21.77-3.13 7.31-8.69 20.37-6.18 22.11 4.9 3.39 29.92-43.26 74.04-67.02 31.32-16.87 64.11-17.81 88.16-15.55h.01l2.13 8.48s.01.02.01.03l1.05 4.19s.02.01.01.02l35.38 140.52h.01l.93 3.69.75 2.99.18.7h-86.99Z" class="cls-5tet6"/><path d="M1490.89 512.12h-.29l-.02-.09h-86.99l.12.09c-.05-.03-.09-.06-.14-.09h-54.5l-1.33-.7c-1.91-1-3.81-2-5.72-2.99-2.35-1.23-4.7-2.47-7.05-3.69l-34.68-18.15c-.97-.51-1.95-1.02-2.92-1.53-.71-.37-1.35-.81-1.92-1.34a9.59 9.59 0 0 1-2.94-9.66c4.97-18.89 19.82-60.51 61.72-90.21 34.98-24.79 70.99-28.64 89.38-28.95a9.64 9.64 0 0 1 8.65 5.07c0 .01.01.02.01.03.37.67.65 1.41.85 2.19l.8 3.17 35.09 139.37.93 3.69.75 2.99.18.7.02.09Z" class="cls-5tet8"/><path d="M1491.02 512.12h-.42l-.02-.09h-86.99l.12.09c-.05-.03-.09-.06-.14-.09h-54.76c-.44-.23-.89-.46-1.33-.7-1.91-1-3.81-2-5.72-2.99-2.35-1.23-4.69-2.46-7.04-3.69-11.08-5.8-22.14-11.58-33.22-17.38-.43-.23-.84-.48-1.22-.77-.36-.26-.7-.54-1-.85a9.44 9.44 0 0 1-2.54-9.17c4.12-15.66 15.13-47.18 43.19-74.16 1.56-1.5 3.17-2.98 4.84-4.45 1.11-.98 2.25-1.95 3.4-2.91 2.9-2.4 5.94-4.75 9.16-7.03 24.14-17.11 48.78-24.06 67.55-26.79.83-.12 1.67-.23 2.48-.34.4-.05.8-.11 1.2-.15.8-.09 1.59-.19 2.36-.27l1.15-.12c1.14-.12 2.26-.21 3.33-.3.36-.03.72-.06 1.06-.08 1.06-.07 2.09-.14 3.08-.19.66-.03 1.31-.06 1.94-.08.63-.03 1.24-.05 1.84-.06.59-.02 1.17-.03 1.74-.04.27 0 .55 0 .81.02l.31.03c.21.02.42.04.63.08.19.03.38.06.56.12.51.12 1 .27 1.48.47.13.04.25.09.37.16.42.19.83.42 1.22.68.19.12.37.25.55.38.03.02.06.04.1.07.19.16.37.31.55.47.02.01.03.02.04.03q.27.255.51.51c.16.18.32.36.45.54.2.24.38.48.55.75.05.08.12.18.16.27 0 0 .02.01.01.02.23.36.42.75.59 1.15.2.44.35.91.47 1.39l34.73 137.98.93 3.69.76 2.99.18.7.02.09Z" class="cls-5tet4"/><path d="M1340.01 458.01a9.44 9.44 0 0 0 3.28 11.33c16.62 11.77 33.24 23.53 49.87 35.3 1.73 1.23 3.47 2.46 5.21 3.69 1.4.99 2.81 1.99 4.23 2.99l.98.7h-54.76c-.44-.23-.89-.46-1.33-.7-1.91-1-3.81-2-5.72-2.99-2.35-1.23-4.69-2.46-7.04-3.69-11.08-5.8-22.14-11.58-33.22-17.38-.43-.23-.84-.48-1.22-.77-.36-.26-.7-.54-1-.85a9.44 9.44 0 0 1-2.54-9.17c4.12-15.66 15.13-47.18 43.19-74.16 1.56-1.5 3.17-2.98 4.84-4.45 1.11-.98 2.25-1.95 3.4-2.91 2.9-2.4 5.94-4.75 9.16-7.03 24.14-17.11 48.78-24.06 67.55-26.79.83-.12 1.67-.23 2.48-.34.4-.05.8-.11 1.2-.15.8-.11 1.59-.19 2.36-.27l1.15-.12c1.14-.12 2.26-.21 3.33-.3.36-.03.72-.06 1.06-.08 1.06-.07 2.09-.14 3.08-.19.66-.03 1.31-.06 1.94-.08.63-.03 1.24-.05 1.84-.06.59-.02 1.17-.03 1.74-.04.27 0 .55 0 .81.02l.31.03c.21.02.42.04.63.08.19.03.38.06.56.12.51.12 1 .27 1.48.47.13.04.25.09.37.16.42.19.83.42 1.22.68.19.12.37.25.55.38.03.02.06.04.1.07.19.16.37.31.55.47.02.01.03.02.04.03q.27.255.51.51c.16.18.32.36.45.54.2.24.38.48.55.75-12.91 2.55-26.97 7.02-41.29 14.52-17.45 9.15-31.12 20.6-41.74 32.23-1 1.09-1.97 2.18-2.91 3.28-14.72 17.03-23.04 34-27.22 44.15Z" class="cls-5tet5"/><ellipse cx="1336.51" cy="478.03" class="cls-5tet10" rx="3.5" ry="11.32" transform="rotate(-48.02 1336.617 478.024)"/><path d="M1412.21 512.02h-8.63c-.27-.22-.56-.45-.84-.7a36 36 0 0 1-.73-.63c-.86-.78-1.67-1.58-2.38-2.36-1.18-1.3-2.15-2.55-2.82-3.69-1.14-1.88-1.52-3.4-.86-4.13 1.2-1.34 5.46.5 9.79 4.13.33.26.64.55.97.83 1.05.95 2 1.91 2.83 2.86.92 1.04 1.69 2.05 2.27 2.99.15.24.28.47.41.7Z" class="cls-5tet10"/><ellipse cx="1374.3" cy="419.1" class="cls-5tet10" rx="3.5" ry="11.32" transform="rotate(-38.26 1374.154 419.11)"/><ellipse cx="1410.68" cy="468.48" class="cls-5tet10" rx="3.5" ry="11.32" transform="rotate(-38.26 1410.53 468.483)"/><ellipse cx="1436.32" cy="399.32" class="cls-5tet10" rx="3.5" ry="11.32" transform="rotate(-17.69 1436.283 399.304)"/><ellipse cx="1452.66" cy="470" class="cls-5tet10" rx="3.5" ry="11.32" transform="rotate(-17.69 1452.629 470.003)"/><path d="M1651.56 1014.63a8.27 8.27 0 0 1-6.44 8.04l-10.99 2.51-6.62 1.51-3.32.76-104.68 23.89-3.69.84-3.69.84V941.69c1.23-2.22 2.46-4.46 3.69-6.68s2.46-4.46 3.69-6.68c4.23-7.65 8.45-15.31 12.68-22.96 0 0 0-.02.01-.02.55-.99 1.1-1.98 1.63-2.97 2.92-5.28 5.83-10.56 8.75-15.84 1.88-3.38 5.83-5.03 9.54-3.96 1.11.32 2.3.67 3.57 1.09.43.14.86.27 1.31.42.35.12.71.23 1.07.36.1.03.18.06.27.09.46.16.93.32 1.4.48 2.38.84 4.96 1.81 7.69 2.96 1.09.44 2.2.93 3.34 1.44.01.01.02.01.03.01 1.13.51 2.28 1.03 3.45 1.6.59.28 1.18.58 1.78.87.6.3 1.2.6 1.81.91a197 197 0 0 1 3.68 1.96q2.805 1.545 5.67 3.3c1.26.77 2.53 1.58 3.8 2.41.66.44 1.33.89 1.98 1.33s1.3.9 1.95 1.36c.66.47 1.33.95 1.99 1.43.63.47 1.28.95 1.91 1.43.65.5 1.31 1 1.96 1.52q1.95 1.545 3.9 3.21c.57.47 1.13.97 1.7 1.49.04.03.07.06.11.08.04.03.08.07.13.12h.02c7.65 6.8 15.1 14.99 21.76 24.86 20.62 30.51 23.25 61.5 23.15 77.31Z" class="cls-5tet9"/><path d="m1634.13 1025.18-6.62 1.51-3.32.76-104.68 23.89-3.69.84-3.69.84V941.69c1.23-2.22 2.46-4.46 3.69-6.68s2.46-4.46 3.69-6.68c4.23-7.65 8.45-15.31 12.68-22.96 0 0 0-.02.01-.02.55-.99 1.1-1.98 1.63-2.97 2.92-5.28 5.83-10.56 8.75-15.84 1.88-3.38 5.83-5.03 9.54-3.96 1.11.32 2.3.67 3.57 1.09.43.14.86.27 1.31.42.35.12.71.23 1.07.36.1.03.18.06.27.09.46.16.93.32 1.4.48 2.38.84 4.96 1.81 7.69 2.96 1.09.45 2.2.94 3.34 1.44.01.01.02.01.03.01 1.13.52 2.28 1.04 3.45 1.6.59.28 1.18.58 1.78.87.6.3 1.2.6 1.81.91a197 197 0 0 1 3.68 1.96q2.805 1.545 5.67 3.3c1.26.77 2.53 1.58 3.8 2.41.66.44 1.33.89 1.98 1.33s1.3.9 1.95 1.36c.66.47 1.33.95 1.99 1.43.63.47 1.28.95 1.91 1.43.65.5 1.31 1 1.96 1.52q1.95 1.545 3.9 3.21c.57.47 1.13.97 1.7 1.49-1.2-.96-6.74-5.17-16.64-9.66-5.65-2.56-15.71-7.12-17.11-5.2-2.73 3.76 33.17 24.06 50.91 58.83 12.59 24.69 12.76 50.26 10.58 68.94Z" class="cls-5tet6"/><path d="M1631.59 1020.05a7.49 7.49 0 0 1-4.08 6.64c-.55.28-1.14.51-1.77.64l-2.45.56-103.78 23.68-7.38 1.69V941.24c1.23-2.22 2.46-4.46 3.69-6.68s2.46-4.46 3.69-6.68c4.02-7.26 8.02-14.53 12.02-21.79.41-.74.82-1.46 1.22-2.2.31-.55.66-1.05 1.07-1.5a7.54 7.54 0 0 1 7.57-2.1c14.64 4.2 46.79 16.49 69.18 49.65 18.71 27.67 21.08 55.78 21 70.12Z" class="cls-5tet8"/><path d="M1627.9 1021.09c-.01.99-.21 1.95-.58 2.82-.04.11-.08.2-.14.31l-.03.06c-.14.27-.28.55-.45.8-.04.05-.07.11-.1.16-.11.15-.21.28-.32.42-.13.16-.26.32-.4.45-.27.3-.58.57-.91.81-.11.08-.21.17-.33.23-.08.06-.17.12-.25.17-.06.04-.14.08-.2.12-.28.17-.59.32-.9.44-.36.15-.74.26-1.13.36l-102.65 23.42-3.69.84-3.69.84V941.02c1.23-2.22 2.47-4.45 3.69-6.68 1.23-2.22 2.47-4.45 3.69-6.68 3.79-6.87 7.59-13.74 11.38-20.61.19-.35.41-.67.64-.98.07-.08.15-.18.22-.26.11-.13.22-.24.34-.36.03-.03.06-.06.1-.08 0 0 0-.02.01-.02 1.85-1.81 4.58-2.56 7.18-1.81q1.005.285 2.13.63c.5.16 1.01.32 1.54.48s1.06.35 1.62.54 1.13.39 1.72.59c.28.09.58.2.89.32 3.57 1.3 7.61 2.94 11.93 5.02.72.34 1.44.7 2.18 1.07s1.48.76 2.22 1.15c14.2 7.5 30.62 19.61 43.68 38.93 18.36 27.16 20.7 54.75 20.61 68.83Z" class="cls-5tet4"/><path d="M1627.9 1021.09c-.01.99-.21 1.95-.58 2.82-.04.11-.08.2-.14.31l-.03.06c-.14.27-.28.55-.45.8-.04.05-.07.11-.1.16-.11.15-.21.28-.32.42-.13.16-.26.32-.4.45-.27.3-.58.57-.91.81-.11.08-.21.17-.33.23-.08.06-.17.12-.25.17-1.76-10.1-4.99-21.12-10.59-32.4-6.82-13.75-15.5-24.61-24.38-33.08-.83-.79-1.66-1.57-2.5-2.32-13.01-11.76-26.08-18.54-33.92-21.97a7.36 7.36 0 0 0-8.87 2.36c-8.21 11.05-16.41 22.11-24.62 33.17-1.23 1.65-2.46 3.31-3.69 4.97-1.23 1.65-2.47 3.31-3.69 4.97v-42.01c1.23-2.22 2.47-4.45 3.69-6.68 1.23-2.22 2.47-4.45 3.69-6.68 3.79-6.87 7.59-13.74 11.38-20.61.19-.35.41-.67.64-.98.07-.08.15-.18.22-.26.11-.13.22-.24.34-.36.04-.04.07-.08.11-.11 1.85-1.81 4.58-2.56 7.18-1.81q1.005.285 2.13.63c.5.15 1.01.32 1.54.48s1.06.35 1.62.54c.56.18 1.13.38 1.72.59.28.09.58.2.89.32 3.57 1.3 7.61 2.94 11.93 5.02.72.34 1.44.7 2.18 1.07s1.48.75 2.22 1.15c14.2 7.5 30.62 19.61 43.68 38.93 18.36 27.16 20.7 54.75 20.61 68.83Z" class="cls-5tet5"/><ellipse cx="1537.48" cy="934.49" class="cls-5tet10" rx="8.82" ry="2.73" transform="rotate(-46.75 1537.288 934.461)"/><path d="M1515.83 987.63c-.31.35-.62.71-.95 1.05-.92.97-1.84 1.83-2.74 2.54v-7.51c1.3-1.22 2.57-2.18 3.69-2.8 1.42-.79 2.56-1.02 3.11-.52.99.93-.39 4.04-3.11 7.24" class="cls-5tet10"/><ellipse cx="1582.71" cy="964.94" class="cls-5tet10" rx="8.82" ry="2.73" transform="rotate(-36.98 1582.605 964.91)"/><ellipse cx="1543.63" cy="992.42" class="cls-5tet10" rx="8.82" ry="2.73" transform="rotate(-36.98 1543.521 992.403)"/><ellipse cx="1597.04" cy="1013.6" class="cls-5tet10" rx="8.82" ry="2.73" transform="rotate(-16.41 1597.186 1013.638)"/><ellipse cx="1541.71" cy="1025.09" class="cls-5tet10" rx="8.82" ry="2.73" transform="rotate(-16.41 1541.827 1025.16)"/><path d="m466.58 935.47-241.62 33.35c-4.9.68-8.67 4.64-9.13 9.56-1.88 20.2-1.99 60.13 20.96 101.45 27.5 49.5 71.31 70.79 91.43 78.53 4.63 1.78 9.87.12 12.63-4 45.33-67.48 90.67-134.95 136-202.43 5.12-7.62-1.18-17.72-10.28-16.46Z" class="cls-5tet9"/><path d="M340.86 1154.36c45.33-67.48 90.67-134.95 136-202.43 5.12-7.62-1.18-17.72-10.28-16.46L239.3 966.84c-4.88 23.65-7.52 56.37 5.82 89.34 18.79 46.45 62.43 76.42 58.53 80.92-2.01 2.31-14.37-4.65-21.3-8.55-14.21-8-20.86-14.89-20.49-14.5 24.37 25.79 51.69 38.66 66.37 44.31 4.63 1.78 9.87.12 12.63-4" class="cls-5tet6"/><path d="m469.38 934.78-219.12 30.24a9.64 9.64 0 0 0-8.28 8.67c-1.71 18.32-1.81 54.53 19.01 92.01 24.94 44.89 64.67 64.2 82.92 71.21 4.2 1.61 8.95.11 11.46-3.63 41.11-61.19 82.22-122.39 123.34-183.58 4.64-6.91-1.07-16.07-9.32-14.93Z" class="cls-5tet8"/><path d="m470.01 934.58-215.08 29.68a9.47 9.47 0 0 0-8.13 8.51c-1.68 17.98-1.78 53.52 18.66 90.31 24.48 44.06 63.48 63.02 81.39 69.9 4.12 1.58 8.78.11 11.25-3.56l121.06-180.19c4.56-6.79-1.05-15.77-9.15-14.65" class="cls-5tet4"/><path d="M346.86 1132.98c-17.91-6.88-56.92-25.83-81.39-69.9-20.43-36.79-20.34-72.33-18.66-90.31a9.5 9.5 0 0 1 5.18-7.6c1.12 13.11 4.03 27.57 9.92 42.63 18.37 46.94 54.49 70.94 71.32 80.15a9.46 9.46 0 0 0 11.62-2.02c44.15-49.77 88.3-99.54 132.45-149.32 3.5 2.89 4.82 8.22 1.87 12.62-40.36 60.06-80.71 120.13-121.06 180.19a9.465 9.465 0 0 1-11.24 3.56Z" class="cls-5tet5"/><ellipse cx="352.75" cy="1093.62" class="cls-5tet10" rx="11.32" ry="3.5" transform="rotate(-41.75 352.722 1093.59)"/><ellipse cx="390.04" cy="1029.45" class="cls-5tet10" rx="11.32" ry="3.5" transform="rotate(-41.75 390.019 1029.42)"/><ellipse cx="298.31" cy="1049.61" class="cls-5tet10" rx="11.32" ry="3.5" transform="rotate(-31.98 298.335 1049.666)"/><ellipse cx="351.36" cy="1018.84" class="cls-5tet10" rx="11.32" ry="3.5" transform="rotate(-31.98 351.392 1018.894)"/><ellipse cx="422.29" cy="974.56" class="cls-5tet10" rx="11.32" ry="3.5" transform="rotate(-31.98 422.314 974.605)"/><ellipse cx="285.42" cy="985.8" class="cls-5tet10" rx="11.32" ry="3.5" transform="rotate(-11.41 285.595 986.23)"/><ellipse cx="357.47" cy="977.29" class="cls-5tet10" rx="11.32" ry="3.5" transform="rotate(-11.41 357.67 977.71)"/><path d="M781.52 479.85 902.4 369.78a7.124 7.124 0 0 0 1.42-8.75c-6.62-11.88-21.7-33.99-50.06-48.12-33.97-16.93-66.26-12.07-80.31-8.72-3.23.77-5.5 3.68-5.47 7l1.62 163.45c.06 6.16 7.37 9.34 11.92 5.2Z" class="cls-5tet9"/><path d="m767.97 311.2 1.62 163.45c.06 6.16 7.37 9.34 11.92 5.2l113.7-103.54c-6.28-14.92-17.22-34-37.1-47.17-28.01-18.54-63.49-18.55-63.04-22.52.23-2.04 9.7-2.88 15.02-3.36 10.89-.97 17.17.32 16.83.24-23.25-5.01-43.23-1.76-53.48.69-3.23.77-5.5 3.68-5.47 7Z" class="cls-5tet6"/><path d="m780.23 481.29 109.62-99.82a6.47 6.47 0 0 0 1.29-7.93c-6.01-10.77-19.68-30.82-45.4-43.64-30.81-15.35-60.09-10.95-72.84-7.9a6.46 6.46 0 0 0-4.96 6.35l1.47 148.23c.06 5.58 6.69 8.47 10.81 4.71Z" class="cls-5tet8"/><path d="m779.95 481.65 107.6-97.98a6.36 6.36 0 0 0 1.27-7.79c-5.89-10.57-19.32-30.25-44.56-42.83-30.24-15.07-58.98-10.75-71.49-7.76a6.35 6.35 0 0 0-4.87 6.23l1.44 145.5c.05 5.48 6.56 8.32 10.61 4.63" class="cls-5tet4"/><path d="M772.76 325.29c12.51-2.99 41.25-7.31 71.49 7.76 25.24 12.58 38.67 32.26 44.56 42.83a6.36 6.36 0 0 1 .02 6.16 102 102 0 0 0-21.65-19.79c-27.96-18.98-57.02-18.54-69.81-17.24-2.94.3-5.29 2.59-5.65 5.52l-16.56 132.75c-3.03-.27-5.78-2.71-5.82-6.26l-1.44-145.5a6.34 6.34 0 0 1 4.87-6.23Z" class="cls-5tet5"/><ellipse cx="784.44" cy="349.28" class="cls-5tet10" rx="7.59" ry="2.35" transform="rotate(-76.21 784.458 349.279)"/><ellipse cx="788.16" cy="398.88" class="cls-5tet10" rx="7.59" ry="2.35" transform="rotate(-76.21 788.188 398.88)"/><ellipse cx="831.21" cy="352.95" class="cls-5tet10" rx="7.59" ry="2.35" transform="rotate(-66.44 831.278 352.939)"/><ellipse cx="813.56" cy="390.08" class="cls-5tet10" rx="7.59" ry="2.35" transform="rotate(-66.44 813.628 390.069)"/><ellipse cx="791.17" cy="441.45" class="cls-5tet10" rx="7.59" ry="2.35" transform="rotate(-66.44 791.23 441.446)"/><ellipse cx="862.54" cy="383.33" class="cls-5tet10" rx="7.59" ry="2.35" transform="rotate(-45.88 862.494 383.331)"/><ellipse cx="825.95" cy="415.36" class="cls-5tet10" rx="7.59" ry="2.35" transform="rotate(-45.88 825.91 415.363)"/><path d="M910.99 1647.48c-1.93.62-4.22 1.3-6.81 1.97-.65.17-1.32.33-2 .5-1.03.25-2.11.5-3.22.73-1.49.32-3.05.61-4.68.9-1.21.21-2.48.4-3.76.59-1.3.18-2.62.35-3.98.5h-.01c-4.64.51-9.65.78-14.99.7-4.42-.06-9.02-.38-13.81-1.03h-.02c-8.72-1.17-17.97-3.45-27.47-7.29-29.37-11.89-46.11-32.75-53.64-44.08-1.83-2.76-1.54-6.42.74-8.83l6.64-7.07 4.02-4.27.01-.01 1.98-2.11.01-.01 48.52-51.63 6.93-7.38h59.87c.11 1.23.21 2.46.32 3.69.12 1.23.22 2.46.33 3.69 2.78 31.53 5.55 63.07 8.31 94.6v.04c.09.97.18 1.94.26 2.91.45 5.17.91 10.34 1.36 15.5a7.13 7.13 0 0 1-4.9 7.41Z" class="cls-5tet9"/><path d="M910.99 1647.48c-1.93.62-4.22 1.3-6.81 1.97-.65.17-1.32.33-2 .5-1.03.24-2.11.48-3.22.73-1.49.32-3.05.61-4.68.9-1.21.21-2.48.4-3.76.59-1.3.18-2.62.35-3.98.5h-.01c-4.64.51-9.65.78-14.99.7-4.42-.07-9.02-.39-13.81-1.03.43.03 6.67.63 16.79-1.06 5.26-.89 14.64-2.47 14.71-4.51.14-3.99-35.24-1.24-64.6-17.56-20.84-11.58-33.24-29.76-40.66-44.14l4.02-4.27.01-.01 1.98-2.11.01-.01 48.52-51.63 6.93-7.38h59.87c.11 1.23.21 2.46.32 3.69.12 1.23.22 2.46.33 3.69 2.78 31.53 5.55 63.07 8.31 94.6v.04c.09.97.18 1.94.26 2.91.45 5.17.91 10.34 1.36 15.5a7.13 7.13 0 0 1-4.9 7.41Z" class="cls-5tet6"/><path d="M914.53 1624.57a6.44 6.44 0 0 1-4.39 5.12c-12.47 4.03-41.32 10.69-73.23-2.22-26.63-10.78-41.83-29.71-48.64-39.98a6.46 6.46 0 0 1-.27-6.71c0-.01.01-.01.01-.01.24-.46.56-.9.93-1.29l1.56-1.65 47.75-50.8 6.93-7.38h60.34c.11 1.23.21 2.46.33 3.69.11 1.23.21 2.46.32 3.69 2.75 31.22 5.49 62.44 8.24 93.66v.07c.07.74.14 1.49.2 2.22q.075.81-.06 1.59Z" class="cls-5tet8"/><path d="M914.4 1620.35c0 .11 0 .22-.01.33v.07c-.02.28-.05.56-.12.83-.01.01-.01.02-.01.03v.04c-.01.07-.02.14-.04.21-.04.16-.08.32-.14.47a6.4 6.4 0 0 1-1.53 2.5c-.23.22-.47.44-.74.63l-.01.01c-.14.09-.27.19-.41.27-.42.26-.89.48-1.38.64-.84.27-1.77.56-2.76.84-.33.09-.66.19-1.01.3-.46.13-.94.25-1.43.39-1.12.29-2.31.59-3.57.89-.94.22-1.92.43-2.93.63h-.01c-.67.14-1.37.27-2.08.4-10.12 1.84-23.33 2.81-38.02.17-1.21-.22-2.42-.45-3.65-.73-1.64-.36-3.3-.76-4.97-1.21-.42-.12-.83-.23-1.25-.36-.62-.18-1.25-.36-1.89-.56-.63-.19-1.26-.39-1.9-.6h-.01c-.84-.28-1.7-.57-2.54-.87-.85-.31-1.71-.63-2.57-.96-.42-.17-.85-.34-1.29-.52-3.07-1.24-5.98-2.59-8.74-4.02-1.11-.58-2.18-1.16-3.24-1.76-.53-.3-1.05-.6-1.57-.91a101 101 0 0 1-12.96-9.07c-10.4-8.51-17.27-17.5-21.24-23.49a6.28 6.28 0 0 1-.99-4.43c.01-.14.04-.28.07-.43.03-.18.08-.37.14-.55.02-.07.05-.16.08-.24.04-.13.09-.26.16-.39.01-.03.02-.07.04-.11.02-.06.05-.13.08-.18 0-.01.01-.01.01-.01a5 5 0 0 1 .5-.82c.16-.24.35-.48.56-.71l47.08-50.1 3.47-3.69 3.47-3.69h60.52l.33 3.69c.11 1.23.21 2.46.33 3.69.59 6.78 1.19 13.54 1.78 20.32 2.13 24.15 4.25 48.32 6.37 72.47.01.18.02.37.02.55Z" class="cls-5tet4"/><path d="M914.4 1620.35c0 .11 0 .22-.01.33v.07c-.02.28-.05.56-.12.83-.01.01-.01.02-.01.03v.04c-.01.07-.02.14-.04.21-.04.16-.08.32-.14.47a6.4 6.4 0 0 1-1.53 2.5c-.23.22-.47.44-.74.63l-.01.01c-.14.09-.27.19-.41.27-.43.25-.89.47-1.38.63-.84.27-1.77.56-2.76.85-.33.09-.66.19-1.01.3-.46.13-.94.25-1.43.39-1.12.29-2.31.59-3.57.89-.94.21-1.92.43-2.93.63h-.01c-.67.14-1.37.27-2.08.4-10.12 1.84-23.33 2.81-38.02.17-1.21-.22-2.42-.45-3.65-.73-1.64-.36-3.3-.76-4.97-1.21-.42-.12-.83-.23-1.25-.36-.62-.18-1.25-.36-1.89-.56-.63-.19-1.26-.39-1.9-.6h-.01c-.84-.28-1.7-.57-2.54-.87-.85-.31-1.71-.63-2.57-.96q-.63-.24-1.29-.51a96 96 0 0 1-8.74-4.03c-1.11-.58-2.18-1.16-3.24-1.76-.53-.3-1.05-.6-1.57-.91a101 101 0 0 1-12.96-9.07c-10.4-8.51-17.27-17.5-21.24-23.49a6.28 6.28 0 0 1-.99-4.43c.01-.14.04-.28.07-.43.03-.18.08-.37.14-.55.02-.07.05-.16.08-.24.04-.13.09-.26.16-.39.01-.03.02-.07.04-.11 6.1 6.37 13.71 12.68 23.12 18.05 11.47 6.54 22.88 10.12 33.28 11.91.98.17 1.95.33 2.91.45 14.93 2.15 27.52.72 34.76-.59a6.35 6.35 0 0 0 5.21-5.95c.77-16.51 1.53-33.02 2.3-49.53.03-.8.07-1.59.11-2.38v-.02s.01-.01 0-.02v-.02s.01-.03 0-.04c.01-.02.01-.03 0-.07l1.11-23.59c.05-1.23.12-2.46.17-3.69.06-1.23.12-2.46.17-3.69h12.57l.33 3.69c.11 1.23.21 2.46.33 3.69.59 6.78 1.19 13.54 1.78 20.32 2.13 24.15 4.25 48.32 6.38 72.47.02.18.02.37.01.55Z" class="cls-5tet5"/><ellipse cx="896.52" cy="1603.39" class="cls-5tet10" rx="7.59" ry="2.35" transform="rotate(-80.67 896.432 1603.353)"/><ellipse cx="888.95" cy="1554.22" class="cls-5tet10" rx="7.59" ry="2.35" transform="rotate(-80.67 888.864 1554.191)"/><ellipse cx="849.6" cy="1603.36" class="cls-5tet10" rx="7.59" ry="2.35" transform="rotate(-70.9 849.572 1603.353)"/><ellipse cx="864.31" cy="1564.98" class="cls-5tet10" rx="7.59" ry="2.35" transform="rotate(-70.9 864.286 1564.97)"/><ellipse cx="816.01" cy="1575.51" class="cls-5tet10" rx="7.59" ry="2.35" transform="rotate(-50.33 816.077 1575.56)"/><ellipse cx="849.99" cy="1540.73" class="cls-5tet10" rx="7.59" ry="2.35" transform="rotate(-50.33 850.07 1540.786)"/><path d="M607.94 460.77c-2.26 12.81-4.91 27.87-7.91 43.87-.23 1.22-.46 2.46-.7 3.69-.19.99-.38 1.99-.57 2.99-.04.23-.08.46-.13.7h-94.12v49.55c-.64-2.72-1.3-5.51-1.97-8.39q-.465-1.995-.93-4.05c-.04-.18-.08-.36-.13-.55-.18-.77-.36-1.56-.54-2.34-.04-.18-.08-.37-.13-.55-.05-.25-.12-.5-.17-.75-.26-1.16-.53-2.32-.8-3.5-.55-2.42-1.11-4.9-1.67-7.42-.36-1.58-.71-3.15-1.05-4.72-47.71-213.55-71.22-320.6-23.99-361.16 33.41-28.69 95.37-24.94 129.12 5.69.7.63 1.37 1.26 2.03 1.92.03.02.05.04.07.07.66.64 1.32 1.3 1.95 1.97q.915.96 1.8 1.95c.12.13.23.25.33.38.55.61 1.09 1.23 1.61 1.87.6.74 1.18 1.46 1.75 2.21.53.67 1.03 1.36 1.53 2.05.08.12.17.23.24.35.49.66.95 1.34 1.4 2.02.41.61.81 1.23 1.2 1.87.26.42.53.84.78 1.28.38.62.75 1.24 1.12 1.89q.615 1.08 1.2 2.19c.11.19.21.39.31.59.4.75.78 1.52 1.16 2.29.04.07.07.15.11.22h.01c24.29 50.36 9.18 136.22-12.93 261.82Z" class="cls-5tet1"/><path d="M506.68 570.59c.07.33.16.65.23.98-.07-.33-.16-.66-.24-1 0 0 0 .01.01.02m33.19 89s-.01.01-.01 0zm80.99-460.64c-.89-.91-1.79-1.79-2.73-2.67-32.5-30.42-90.63-35.64-124.74-10.37-.07.05-.14.11-.21.15a72 72 0 0 0-4.38 3.57c-42.68 37.77-26.56 132.54 13.69 315.01.27 1.22.54 2.46.81 3.69.41 1.83.81 3.68 1.22 5.52v47.72c-.64-2.72-1.3-5.51-1.97-8.39q-.465-1.995-.93-4.05c-.04-.18-.08-.36-.13-.55-.18-.77-.36-1.56-.54-2.34-.04-.18-.08-.37-.13-.55-.05-.25-.12-.5-.17-.75-.26-1.16-.53-2.32-.8-3.5-.55-2.42-1.11-4.9-1.67-7.42-.36-1.58-.71-3.15-1.05-4.72-47.71-213.55-71.22-320.6-23.99-361.16 33.41-28.69 95.37-24.94 129.12 5.69.7.63 1.37 1.26 2.03 1.92.03.02.05.04.07.07.66.64 1.32 1.3 1.95 1.97q.915.96 1.8 1.95c.12.13.23.25.33.38.55.61 1.09 1.23 1.61 1.87.6.74 1.18 1.46 1.75 2.21.53.67 1.03 1.36 1.53 2.05.08.12.17.23.24.35.49.66.95 1.34 1.4 2.02.41.61.81 1.23 1.2 1.87.26.42.53.84.78 1.28.38.62.75 1.24 1.12 1.89q.615 1.08 1.2 2.19c.11.19.21.39.31.59.4.75.78 1.52 1.16 2.29.04.07.07.15.11.22Z" class="cls-5tet3"/><path d="M543.91 512.02h-3.3c-.01-.23-.02-.46-.02-.7-.04-1-.07-1.99-.11-2.99-.04-1.23-.08-2.46-.13-3.69-3.14-96.66-3.66-193.44-1.71-290.05l.32-14.29.41-14.29c.89 102.55 2.39 211.92 4.39 318.63.01 1.23.04 2.46.06 3.69.02 1 .03 1.99.06 2.99 0 .23 0 .46.01.7Zm-20.31 0h-3.38c-.09-.23-.19-.46-.28-.7-.41-.99-.82-1.99-1.23-2.99-.5-1.22-.99-2.46-1.46-3.69-1.71-4.26-3.35-8.51-4.96-12.73-5.33-14.5-10.7-29.6-14.63-44.53 6.87 13.82 12.79 28.73 18.32 43.15 1.72 4.65 3.44 9.36 5.09 14.11.44 1.22.87 2.46 1.29 3.69.35.99.7 1.99 1.02 2.99.08.23.17.46.24.7Zm-32.29-156.8c6.87 13.82 12.79 28.73 18.31 43.16 5.35 14.5 10.71 29.6 14.63 44.54-6.88-13.81-12.79-28.73-18.31-43.16-5.34-14.5-10.7-29.61-14.63-44.54m1.4-79.97c6.87 13.82 12.79 28.73 18.31 43.16 5.35 14.5 10.71 29.6 14.63 44.54-6.88-13.81-12.79-28.73-18.31-43.16-5.34-14.5-10.7-29.61-14.63-44.54m.12-90.47c6.87 13.82 12.79 28.73 18.31 43.16 5.35 14.5 10.71 29.6 14.63 44.54-6.88-13.81-12.79-28.73-18.31-43.16-5.34-14.5-10.7-29.61-14.63-44.54m108 68.03c-6.69 12.87-14.8 25.57-22.77 37.7-8.13 12.03-16.72 24.39-26.05 35.52 6.68-12.87 14.8-25.57 22.77-37.7 8.14-12.03 16.73-24.39 26.05-35.52m-4.84 76.01c-6.69 12.87-14.8 25.57-22.77 37.7-8.13 12.03-16.73 24.39-26.05 35.52 6.68-12.87 14.8-25.57 22.77-37.7 8.14-12.03 16.73-24.39 26.05-35.52m5.22 74.13c-6.69 12.87-14.8 25.57-22.77 37.7-8.13 12.03-16.73 24.39-26.05 35.52 6.68-12.87 14.8-25.57 22.77-37.7 8.14-12.03 16.73-24.39 26.05-35.52" class="cls-5tet7"/><path d="M1556.07 1823.99c-.52.57-1.04 1.13-1.58 1.68a63 63 0 0 1-3.34 3.2 83 83 0 0 1-1.75 1.52c-1.78 1.5-3.64 2.91-5.55 4.25-.64.44-1.3.87-1.95 1.31-.99.64-1.98 1.26-2.99 1.87-.01 0-.01.01-.01.01q-1.515.9-3.09 1.74c-4.89 2.61-10.1 4.81-15.52 6.57-1.54.51-3.11.97-4.68 1.39-.8.21-1.6.42-2.39.62-1.6.4-3.2.76-4.82 1.07-27.78 5.52-58.91.58-81.18-15.16a76 76 0 0 1-4.39-3.34c-1.12-.91-2.19-1.84-3.25-2.8-.47-.43-.95-.87-1.41-1.32-.47-.45-.94-.91-1.39-1.37-.43-.43-.85-.87-1.29-1.32-.03-.04-.07-.07-.11-.12-.37-.39-.73-.78-1.1-1.18-.11-.12-.21-.23-.31-.35-.31-.33-.59-.66-.89-1-.58-.66-1.15-1.34-1.7-2.02-.3-.36-.58-.72-.86-1.07-.15-.18-.28-.36-.43-.55-.25-.33-.51-.65-.75-.99-.15-.19-.3-.38-.43-.58-.34-.44-.66-.9-.98-1.36-.39-.54-.77-1.09-1.14-1.64q-.57-.825-1.11-1.68c-30.23-47.03-25.66-134.09-18.98-261.43.37-7.04.77-14.74 1.23-22.91.06-1.22.14-2.46.2-3.69.07-1.22.15-2.46.22-3.69h118.15c.44 1.23.87 2.47 1.3 3.69.44 1.23.87 2.47 1.31 3.69 59 167.6 84.71 255.57 46.94 296.98Z" class="cls-5tet1"/><path d="M1556.07 1823.99c-.52.57-1.04 1.13-1.58 1.68a63 63 0 0 1-3.34 3.2 83 83 0 0 1-1.75 1.52c-1.78 1.5-3.64 2.91-5.55 4.25-.64.44-1.3.87-1.95 1.31-.99.64-1.98 1.26-2.99 1.87-.01 0-.01.01-.01.01q-1.515.9-3.09 1.74c-4.89 2.61-10.1 4.81-15.52 6.57-1.54.5-3.11.96-4.68 1.39-.8.21-1.6.42-2.39.62-1.6.39-3.2.75-4.82 1.07-27.78 5.52-58.91.58-81.18-15.16a76 76 0 0 1-4.39-3.34c-1.12-.91-2.19-1.84-3.25-2.8-.47-.43-.95-.87-1.41-1.32-.47-.45-.94-.91-1.39-1.37-.43-.43-.85-.87-1.29-1.32-.03-.04-.07-.07-.11-.12-.37-.39-.73-.78-1.1-1.18-.11-.12-.21-.23-.31-.35-.31-.33-.59-.66-.89-1-.58-.66-1.15-1.34-1.7-2.02-.3-.36-.58-.72-.86-1.07-.15-.18-.28-.36-.43-.55-.25-.33-.51-.65-.75-.99-.15-.19-.3-.38-.43-.58-.34-.44-.66-.9-.98-1.36-.39-.54-.77-1.09-1.14-1.64q-.57-.825-1.11-1.68 1.485 1.2 3.03 2.34c35.97 26.23 94.3 24.35 125.08-4.88.06-.05.13-.11.19-.18a63 63 0 0 0 3.92-4.06c35.32-39.9 13.57-122.97-40.14-277.57-.43-1.22-.85-2.46-1.29-3.69-.43-1.22-.85-2.46-1.3-3.69h11.33c.44 1.23.87 2.47 1.3 3.69.44 1.23.87 2.47 1.31 3.69 59 167.6 84.71 255.57 46.94 296.98Z" class="cls-5tet3"/><path d="M1488.16 1814.32c-12.14-92.58-25.49-190.72-39.06-287.3-.17-1.23-.35-2.47-.52-3.69-.17-1.23-.35-2.47-.52-3.69h3.7c.19 1.23.38 2.46.56 3.69.19 1.23.37 2.46.55 3.69 12.91 86.02 23.72 172.37 32.54 258.84l1.42 14.23 1.33 14.24Zm9.67-264.5c-4.83-7.31-9.39-15.01-13.75-22.8-.7-1.22-1.38-2.46-2.06-3.69s-1.36-2.46-2.02-3.69h4.1c.61 1.22 1.22 2.46 1.82 3.69.6 1.22 1.2 2.46 1.78 3.69 3.64 7.55 7.08 15.17 10.13 22.8m17.48 90.71c-8.5-12.88-16.18-26.97-23.42-40.61-7.07-13.74-14.23-28.08-19.93-42.43 8.51 12.87 16.19 26.96 23.42 40.61 7.06 13.75 14.22 28.09 19.93 42.43m8.33 79.54c-8.5-12.88-16.18-26.97-23.42-40.61-7.07-13.74-14.23-28.08-19.93-42.43 8.51 12.87 16.19 26.96 23.42 40.61 7.06 13.75 14.22 28.09 19.93 42.43m10.88 89.82c-8.5-12.88-16.18-26.97-23.42-40.61-7.07-13.74-14.23-28.08-19.93-42.43 8.51 12.87 16.19 26.96 23.42 40.61 7.06 13.75 14.22 28.09 19.93 42.43m-115.47-54.41c5.08-13.58 11.59-27.18 18.03-40.19 6.61-12.93 13.64-26.24 21.54-38.42-5.07 13.59-11.58 27.18-18.03 40.19-6.62 12.93-13.65 26.24-21.54 38.42m-4.43-76.04c5.08-13.58 11.59-27.18 18.03-40.19 6.61-12.93 13.64-26.24 21.54-38.42-5.07 13.59-11.58 27.18-18.03 40.19-6.62 12.93-13.65 26.24-21.54 38.42m-14.19-72.94c5.08-13.58 11.59-27.18 18.03-40.19 6.61-12.93 13.64-26.24 21.54-38.42-5.07 13.59-11.58 27.18-18.03 40.19-6.62 12.93-13.65 26.24-21.54 38.42" class="cls-5tet7"/><path d="M1098.19 511.32c0 .23 0 .46-.01.7H982.06c.02-.23.04-.46.08-.7.12-1 .29-2 .53-2.99.29-1.25.67-2.49 1.15-3.69.8-2.05 1.84-4.03 3.14-5.88-7.69-8.53-9.4-20.96-4.29-31.24 5.11-10.29 16.06-16.43 27.5-15.43 3.54-10.92 13.45-18.61 24.9-19.32 11.45-.72 22.24 5.69 27.1 16.08 11.23-2.4 22.85 2.34 29.19 11.91 6.35 9.58 6.2 22.13-.39 31.53 3.22 3.58 5.4 7.84 6.46 12.34.28 1.22.48 2.46.61 3.69.11.99.15 1.99.14 2.99Z" class="cls-5tet4"/><path d="M1062.67 504.64c-.19.77-.46 1.53-.83 2.27-.25.5-.53.97-.84 1.42-.83 1.2-1.88 2.21-3.07 2.99-.39.26-.79.5-1.21.7h-36.93c-.26-.22-.51-.45-.74-.7-.51-.51-.96-1.06-1.37-1.68-.28-.42-.54-.86-.75-1.32-.58-1.18-.94-2.42-1.07-3.69-.31-2.7.36-5.48 1.98-7.8a11.37 11.37 0 0 1-1.74-12.69c2.08-4.17 6.52-6.67 11.17-6.27 1.43-4.43 5.46-7.56 10.12-7.84 4.65-.28 9.03 2.31 11 6.53 4.56-.98 9.28.95 11.86 4.84s2.52 8.99-.16 12.8c2.58 2.86 3.51 6.79 2.58 10.42Z" class="cls-5tet2"/><path d="M1155.81 332.34a13.68 13.68 0 0 1 13.22 7.85c5.48-1.17 11.15 1.14 14.24 5.81a13.68 13.68 0 0 1-.19 15.38 13.685 13.685 0 0 1 2.09 15.24 13.66 13.66 0 0 1-13.41 7.52c-1.73 5.33-6.56 9.07-12.15 9.42s-10.85-2.78-13.22-7.85c-5.48 1.17-11.15-1.14-14.24-5.81a13.68 13.68 0 0 1 .19-15.38 13.685 13.685 0 0 1-2.09-15.24c2.49-5.02 7.83-8.01 13.41-7.52 1.73-5.33 6.56-9.07 12.15-9.42" class="cls-5tet4"/><path d="M1156.94 350.51a5.56 5.56 0 0 1 5.37 3.19c2.22-.48 4.53.46 5.78 2.36a5.55 5.55 0 0 1-.08 6.25 5.56 5.56 0 0 1 .85 6.19 5.56 5.56 0 0 1-5.45 3.06c-.7 2.16-2.66 3.69-4.93 3.83s-4.41-1.13-5.37-3.19c-2.22.48-4.53-.46-5.78-2.36a5.55 5.55 0 0 1 .08-6.25 5.56 5.56 0 0 1-.85-6.19 5.56 5.56 0 0 1 5.45-3.06c.7-2.16 2.66-3.69 4.93-3.83" class="cls-5tet2"/><path d="M420.25 1207.27a13.68 13.68 0 0 1 13.22 7.85c5.48-1.17 11.15 1.14 14.24 5.81a13.68 13.68 0 0 1-.19 15.38 13.685 13.685 0 0 1 2.09 15.24 13.66 13.66 0 0 1-13.41 7.52c-1.73 5.33-6.56 9.07-12.15 9.42s-10.85-2.78-13.22-7.85c-5.48 1.17-11.15-1.14-14.24-5.81a13.68 13.68 0 0 1 .19-15.38 13.685 13.685 0 0 1-2.09-15.24c2.49-5.02 7.83-8.01 13.41-7.52 1.73-5.33 6.56-9.07 12.15-9.42" class="cls-5tet4"/><path d="M421.37 1225.45a5.56 5.56 0 0 1 5.37 3.19c2.22-.48 4.53.46 5.78 2.36a5.55 5.55 0 0 1-.08 6.25 5.56 5.56 0 0 1 .85 6.19 5.56 5.56 0 0 1-5.45 3.06c-.7 2.16-2.66 3.69-4.93 3.83s-4.41-1.13-5.37-3.19c-2.22.48-4.53-.46-5.78-2.36a5.55 5.55 0 0 1 .08-6.25 5.56 5.56 0 0 1-.85-6.19 5.56 5.56 0 0 1 5.45-3.06c.7-2.16 2.66-3.69 4.93-3.83" class="cls-5tet2"/><path d="M1635.13 1609.92a13.68 13.68 0 0 1 13.22 7.85c5.48-1.17 11.15 1.14 14.24 5.81a13.68 13.68 0 0 1-.19 15.38 13.685 13.685 0 0 1 2.09 15.24 13.66 13.66 0 0 1-13.41 7.52c-1.73 5.33-6.56 9.07-12.15 9.42s-10.85-2.78-13.22-7.85c-5.48 1.17-11.15-1.14-14.24-5.81a13.68 13.68 0 0 1 .19-15.38 13.685 13.685 0 0 1-2.09-15.24c2.49-5.02 7.83-8.01 13.41-7.52 1.73-5.33 6.56-9.07 12.15-9.42" class="cls-5tet4"/><path d="M1636.26 1628.09a5.56 5.56 0 0 1 5.37 3.19c2.22-.48 4.53.46 5.78 2.36a5.55 5.55 0 0 1-.08 6.25 5.56 5.56 0 0 1 .85 6.19 5.56 5.56 0 0 1-5.45 3.06c-.7 2.16-2.66 3.69-4.93 3.83s-4.41-1.13-5.37-3.19c-2.22.48-4.53-.46-5.78-2.36a5.55 5.55 0 0 1 .08-6.25 5.56 5.56 0 0 1-.85-6.19 5.56 5.56 0 0 1 5.45-3.06c.7-2.16 2.66-3.69 4.93-3.83" class="cls-5tet2"/><path d="M679.71 391.8a13.68 13.68 0 0 1 13.22 7.85c5.48-1.17 11.15 1.14 14.24 5.81a13.68 13.68 0 0 1-.19 15.38 13.685 13.685 0 0 1 2.09 15.24 13.66 13.66 0 0 1-13.41 7.52c-1.73 5.33-6.56 9.07-12.15 9.42s-10.85-2.78-13.22-7.85c-5.48 1.17-11.15-1.14-14.24-5.81a13.68 13.68 0 0 1 .19-15.38 13.685 13.685 0 0 1-2.09-15.24c2.49-5.02 7.83-8.01 13.41-7.52 1.73-5.33 6.56-9.07 12.15-9.42" class="cls-5tet4"/><path d="M680.84 409.97a5.56 5.56 0 0 1 5.37 3.19c2.22-.48 4.53.46 5.78 2.36a5.55 5.55 0 0 1-.08 6.25 5.56 5.56 0 0 1 .85 6.19 5.56 5.56 0 0 1-5.45 3.06c-.7 2.16-2.66 3.69-4.93 3.83s-4.41-1.13-5.37-3.19c-2.22.48-4.53-.46-5.78-2.36a5.55 5.55 0 0 1 .08-6.25 5.56 5.56 0 0 1-.85-6.19 5.56 5.56 0 0 1 5.45-3.06c.7-2.16 2.66-3.69 4.93-3.83" class="cls-5tet2"/><path d="M1757.56 1559.3c-.32.33-.63.63-.96.95a76 76 0 0 1-9.23 7.62c-.47.33-.95.64-1.42.96-.44.3-.89.59-1.34.86-.34.21-.67.42-1.01.62-.33.2-.66.4-.99.58-1.1.64-2.2 1.24-3.32 1.81-.7.36-1.4.7-2.11 1.02-.62.29-1.24.57-1.87.84-.45.19-.92.39-1.38.57-.46.19-.93.38-1.4.55-.31.13-.62.24-.93.35-.41.16-.82.31-1.24.44-1.4.48-2.81.93-4.26 1.33-.41.12-.83.23-1.26.35-.08.01-.17.03-.25.06-.46.12-.92.23-1.39.34-.24.06-.5.12-.75.17 0 .01-.01.01-.01.01-44.84 10.17-109.68-15.68-202.92-55.08-1.22-.52-2.46-1.03-3.69-1.56-1.91-.81-3.84-1.62-5.77-2.44h2.09v-109.99l3.69.03 3.69.03c93 .89 158.95 3.05 201.78 13.92 1.24.32 2.48.64 3.69.97 3.01.83 5.91 1.71 8.69 2.63 1.11.37 2.2.75 3.28 1.14.54.2 1.06.39 1.59.59q2.37.885 4.62 1.83c.99.42 1.97.84 2.93 1.29.48.22.96.44 1.42.66.94.44 1.87.91 2.76 1.37.91.46 1.79.94 2.66 1.42.86.48 1.71.97 2.54 1.48.82.51 1.63 1.01 2.42 1.54.79.52 1.56 1.04 2.32 1.59a64 64 0 0 1 6.29 5.13l.95.92c4.08 3.97 7.39 8.38 9.96 13.29 15.82 30.15 5.51 74.43-19.84 99.81Z" class="cls-5tet1"/><path d="M1757.56 1559.3c-.32.33-.63.63-.96.95a76 76 0 0 1-9.23 7.62c-.47.33-.95.64-1.42.96-.44.3-.89.59-1.34.86-.34.21-.67.42-1.01.62-.33.2-.66.4-.99.58-1.1.64-2.2 1.24-3.32 1.81-.7.36-1.4.7-2.11 1.02-.62.29-1.24.57-1.87.84-.45.19-.92.39-1.38.57-.46.19-.93.38-1.4.55-.31.13-.62.24-.93.35-.41.16-.82.31-1.24.44-1.4.48-2.81.93-4.26 1.33-.41.12-.83.23-1.26.35-.08.01-.17.03-.25.06-.46.12-.92.23-1.39.34-.25.06-.51.13-.76.18 0 0 .01 0 .01-.01.95-.57 1.86-1.16 2.79-1.78 32.13-21.62 47.92-69.89 33.14-103.75a.6.6 0 0 0-.08-.21c-.65-1.5-1.38-2.97-2.16-4.42-22.02-40.5-95.74-47.52-236.62-49.51-1.22-.02-2.46-.04-3.69-.05-1.22-.02-2.46-.03-3.69-.05v-9.29l3.69.03 3.69.03c93 .89 158.95 3.05 201.78 13.92 1.24.32 2.48.64 3.69.97 3.01.83 5.91 1.71 8.69 2.63 1.11.37 2.2.75 3.28 1.14.54.2 1.06.39 1.59.59q2.37.885 4.62 1.83c.99.42 1.97.85 2.93 1.29.48.22.96.44 1.42.66.94.45 1.87.91 2.76 1.37.91.46 1.79.94 2.66 1.42.86.48 1.71.98 2.54 1.48.82.51 1.63 1.02 2.42 1.54s1.56 1.05 2.32 1.59a64 64 0 0 1 6.29 5.13l.95.92c4.08 3.97 7.39 8.38 9.96 13.29 15.82 30.15 5.51 74.43-19.84 99.81Z" class="cls-5tet3"/><path d="M1749.33 1512.16c-73.99-16.37-152.26-33.31-229.82-49.77-1.23-.26-2.47-.53-3.69-.79-1.23-.26-2.47-.52-3.69-.78v-3.4c1.23.24 2.46.5 3.69.76 1.23.24 2.46.5 3.69.75a4661 4661 0 0 1 229.82 53.24Zm-213.47-86.41c-5.35 1.29-10.82 2.4-16.35 3.38-1.23.23-2.46.44-3.69.65s-2.46.41-3.69.6v-2.92c1.22-.13 2.46-.25 3.69-.37s2.46-.23 3.69-.34c5.48-.48 10.95-.84 16.35-1.01Zm79.38 12.62c-13.06 3.13-26.86 5.23-40.17 7.1-13.34 1.7-27.19 3.3-40.62 3.71 13.05-3.14 26.86-5.24 40.17-7.1 13.34-1.7 27.19-3.29 40.62-3.71m67.54 16.8c-13.06 3.13-26.86 5.23-40.17 7.1-13.34 1.7-27.19 3.3-40.62 3.71 13.06-3.14 26.86-5.24 40.17-7.1 13.34-1.7 27.19-3.29 40.62-3.71m76.69 17.76c-13.06 3.13-26.86 5.23-40.17 7.1-13.34 1.7-27.19 3.3-40.62 3.71 13.05-3.14 26.86-5.24 40.17-7.1 13.34-1.7 27.19-3.29 40.62-3.71m-78.78 78.29c-9.6-8.18-18.79-17.55-27.52-26.67-8.61-9.24-17.42-18.94-25.03-29.02 9.61 8.18 18.79 17.54 27.52 26.67 8.61 9.25 17.41 18.95 25.03 29.02m-63.5-18.94c-9.6-8.18-18.79-17.55-27.52-26.67-8.61-9.24-17.42-18.94-25.03-29.02 9.61 8.18 18.79 17.54 27.52 26.67 8.61 9.25 17.41 18.95 25.03 29.02m-63.87-10.05c-9.61-8.19-18.79-17.55-27.53-26.67-2.09-2.23-4.18-4.51-6.28-6.81-1.23-1.35-2.47-2.71-3.69-4.08-1.23-1.39-2.47-2.79-3.69-4.19v-3.6c1.24 1.19 2.48 2.39 3.69 3.6 1.24 1.22 2.48 2.46 3.69 3.69 2.97 3 5.89 6.04 8.77 9.04 8.61 9.25 17.42 18.95 25.04 29.02" class="cls-5tet7"/><path d="M504.52 566.6V783c-1.23-1.06-2.47-2.12-3.69-3.16-1.23-1.06-2.47-2.12-3.69-3.16-3.18-2.73-6.33-5.44-9.45-8.1-2.29-1.97-4.57-3.93-6.83-5.87q-5.085-4.38-10.05-8.64c-2.2-1.91-4.38-3.79-6.55-5.66-2.17-1.88-4.32-3.73-6.45-5.57-2.14-1.84-4.25-3.67-6.34-5.49-2.1-1.81-4.17-3.63-6.24-5.41-2.06-1.79-4.1-3.57-6.12-5.33-2.02-1.77-4.03-3.52-6.01-5.26-3.97-3.48-7.87-6.9-11.69-10.27-1.92-1.69-3.81-3.36-5.68-5.03-97.88-86.85-145.23-140.53-137.41-191.13 1.1-7.06 3.13-13.97 5.95-20.61.84-1.99 1.76-3.95 2.75-5.89 3.28-6.45 7.29-12.59 11.89-18.29.92-1.14 1.87-2.27 2.82-3.36 1.44-1.65 2.94-3.28 4.48-4.84 8.9-9.07 19.3-16.63 30.33-22.02.81-.4 1.63-.79 2.46-1.15 2.8-1.3 5.64-2.42 8.5-3.41 1-.35 2.01-.67 3.02-.98 2.94-.91 5.91-1.64 8.87-2.21.67-.13 1.34-.24 2.01-.36a83 83 0 0 1 4.39-.59c.36-.04.72-.07 1.09-.11 2.98-.28 5.96-.37 8.92-.26a57 57 0 0 1 3.7.24c.61.05 1.22.12 1.83.19 1.05.14 2.11.28 3.16.46.36.05.71.12 1.05.18.41.08.83.17 1.23.24.59.13 1.18.25 1.77.39.01 0 .02 0 .03.01.6.14 1.2.28 1.79.44.51.14 1.01.27 1.51.42.7.2 1.37.41 2.05.62.59.19 1.17.39 1.76.6.55.19 1.1.39 1.63.6.08.02.16.05.23.08.55.21 1.1.43 1.64.65 1.71.7 3.39 1.46 5.08 2.31.04.02.09.04.14.06 31.62 15.81 60.02 55.87 92.7 114.79 1.22 2.2 2.46 4.44 3.69 6.7 1.22 2.23 2.46 4.49 3.69 6.78Zm2.16 3.99c.07.33.16.65.23.98-.07-.33-.16-.66-.24-1 0 0 0 .01.01.02m33.19 89s-.01.01-.01 0z" class="cls-5tet1"/><path d="M504.52 768.77v14.24c-1.23-1.06-2.47-2.12-3.69-3.16-1.23-1.06-2.47-2.12-3.69-3.16-3.18-2.74-6.33-5.44-9.45-8.11-2.29-1.97-4.57-3.93-6.83-5.87q-5.085-4.365-10.05-8.64c-2.2-1.91-4.38-3.79-6.55-5.66-2.17-1.88-4.32-3.73-6.45-5.57-2.14-1.84-4.25-3.67-6.34-5.49-2.1-1.81-4.17-3.63-6.24-5.41-2.06-1.79-4.1-3.57-6.12-5.33-2.02-1.77-4.03-3.52-6.01-5.26-3.97-3.48-7.87-6.9-11.69-10.27-1.92-1.69-3.81-3.36-5.68-5.03-97.88-86.85-145.23-140.53-137.41-191.13 1.1-7.06 3.13-13.97 5.95-20.61.84-1.99 1.76-3.95 2.75-5.89 3.28-6.45 7.29-12.59 11.89-18.29.92-1.14 1.87-2.27 2.82-3.36 1.44-1.65 2.94-3.28 4.48-4.84 8.9-9.07 19.3-16.63 30.33-22.02.81-.4 1.63-.79 2.46-1.15 2.8-1.3 5.64-2.42 8.5-3.41 1-.35 2.01-.67 3.02-.98 2.94-.91 5.91-1.64 8.87-2.21.67-.13 1.34-.24 2.01-.36a83 83 0 0 1 4.39-.59c.36-.04.72-.07 1.09-.11a70 70 0 0 1 8.92-.25c.62.02 1.24.05 1.85.08.62.04 1.24.09 1.85.15.61.05 1.22.12 1.83.19 1.05.14 2.11.28 3.16.46.36.05.71.12 1.05.18.41.08.83.17 1.23.24.59.13 1.18.25 1.77.39.01 0 .02 0 .03.01.6.14 1.2.28 1.79.44.51.14 1.01.27 1.51.42.7.2 1.37.41 2.05.62.59.19 1.17.39 1.76.6.55.19 1.1.39 1.63.6.08.02.16.05.23.08.55.21 1.1.43 1.64.65 1.71.7 3.39 1.46 5.08 2.31.04.02.09.04.14.06-1.2-.14-2.39-.23-3.6-.3-41.93-2.22-87.42 33.49-97.1 77.31-.02.09-.04.18-.06.26-.42 1.94-.78 3.91-1.05 5.88-8.35 59.14 58.72 123.78 194.52 240.93 1.22 1.06 2.46 2.12 3.69 3.18 1.22 1.05 2.46 2.12 3.69 3.17Z" class="cls-5tet3"/><path d="M504.52 702.71v6.27c-1.23-1.57-2.47-3.14-3.69-4.72-1.23-1.57-2.47-3.14-3.69-4.72-49.16-63.05-96.94-127.2-143.32-192.25l-8.3-11.71-8.23-11.75c51.26 67.69 105.62 138.88 159.85 209.31 1.23 1.6 2.46 3.19 3.69 4.78 1.23 1.6 2.46 3.19 3.69 4.78Zm0 44.01v4.59c-1.18-.73-2.36-1.45-3.53-2.18-.05-.03-.11-.06-.16-.11-1.22-.78-2.45-1.57-3.69-2.36-11.36-7.29-22.88-14.99-33.42-23.27 11.32 5.54 22.55 12.1 33.42 18.75 1.23.75 2.47 1.51 3.69 2.27.76.46 1.51.93 2.26 1.39.47.31.95.61 1.43.92M403.8 653.38c13.39 6.56 26.67 14.55 39.36 22.41 12.59 8.02 25.54 16.5 37.26 25.74-13.39-6.55-26.67-14.55-39.36-22.41-12.59-8.03-25.54-16.51-37.26-25.74m-46.96-65.5c13.39 6.56 26.67 14.55 39.36 22.41 12.59 8.02 25.54 16.5 37.26 25.74-13.39-6.55-26.67-14.55-39.36-22.41-12.59-8.03-25.54-16.51-37.26-25.74m-54.21-73.08c13.39 6.56 26.67 14.55 39.36 22.41 12.59 8.02 25.54 16.5 37.26 25.74-13.4-6.55-26.67-14.55-39.36-22.41-12.59-8.03-25.54-16.51-37.26-25.74m119.52-19.26c2.94 15.03 4.66 30.87 6.14 46.13 1.29 15.29 2.43 31.15 2.22 46.48-2.95-15.03-4.67-30.87-6.14-46.13-1.28-15.29-2.42-31.15-2.22-46.48m42.08 64.65c2.94 15.03 4.66 30.87 6.14 46.13 1.29 15.29 2.43 31.15 2.22 46.48-2.95-15.03-4.67-30.87-6.14-46.13-1.28-15.29-2.42-31.15-2.22-46.48" class="cls-5tet7"/><path d="M506.91 571.57c-.07-.33-.16-.66-.24-1 0 0 0 .01.01.02.07.33.16.65.23.98m32.96 88.02s-.01.01-.01 0z" class="cls-5tet2"/><path d="M497.14 504.64v1022.37h1022.37V504.64zm1015 1015H504.52V512.02h1007.62z" class="cls-5tet6"/><path d="M1665.21 613.5c13.91-.86 27 6.91 32.9 19.53 13.63-2.92 27.74 2.84 35.45 14.46s7.51 26.86-.48 38.28c9.35 10.35 11.42 25.44 5.21 37.93-6.21 12.48-19.5 19.94-33.39 18.73-4.3 13.26-16.33 22.59-30.24 23.45s-27-6.91-32.9-19.53c-13.63 2.92-27.74-2.84-35.45-14.46s-7.51-26.86.48-38.28c-9.35-10.35-11.42-25.44-5.21-37.93 6.21-12.48 19.5-19.94 33.39-18.73 4.3-13.26 16.33-22.59 30.24-23.45" class="cls-5tet4"/><path d="M1668.02 658.74c5.65-.35 10.97 2.81 13.36 7.93 5.54-1.18 11.27 1.15 14.4 5.87a13.83 13.83 0 0 1-.2 15.55c3.8 4.2 4.64 10.33 2.12 15.41-2.52 5.07-7.92 8.1-13.56 7.61-1.75 5.38-6.63 9.17-12.28 9.52s-10.97-2.81-13.36-7.93c-5.54 1.18-11.27-1.15-14.4-5.87a13.83 13.83 0 0 1 .2-15.55c-3.8-4.2-4.64-10.33-2.12-15.41 2.52-5.07 7.92-8.1 13.56-7.61 1.75-5.38 6.63-9.17 12.28-9.52" class="cls-5tet2"/><path d="M585.65 1527.02c-.28 4.85-1.53 9.67-3.77 14.18-6.71 13.49-21.08 21.55-36.09 20.24-4.65 14.33-17.65 24.42-32.69 25.35s-29.19-7.47-35.57-21.12c-14.74 3.15-29.99-3.07-38.33-15.63-8.33-12.57-8.12-29.03.53-41.38-10.11-11.19-12.35-27.5-5.64-41s21.08-21.56 36.09-20.25c4.05-12.47 14.42-21.73 26.96-24.53 1.21-.27 2.43-.48 3.69-.62.67-.08 1.36-.15 2.04-.19.55-.04 1.11-.06 1.64-.06h.02c14.41-.24 27.76 8.04 33.91 21.18 14.74-3.16 29.99 3.07 38.32 15.63 8.34 12.56 8.12 29.03-.52 41.38a36.67 36.67 0 0 1 8.72 17.26c.15.72.27 1.45.38 2.18.17 1.22.28 2.46.33 3.69.06 1.22.05 2.46-.02 3.69" class="cls-5tet4"/><path d="M505.91 1470.97c6.11-.38 11.86 3.03 14.45 8.58 5.99-1.28 12.18 1.25 15.57 6.35 3.38 5.1 3.3 11.79-.21 16.81 4.1 4.54 5.01 11.17 2.29 16.65-2.73 5.48-8.56 8.76-14.66 8.22-1.89 5.82-7.17 9.92-13.28 10.3s-11.86-3.03-14.45-8.58c-5.99 1.28-12.18-1.25-15.57-6.35-3.38-5.1-3.3-11.79.21-16.81a14.97 14.97 0 0 1-2.29-16.65c2.73-5.48 8.56-8.76 14.66-8.22 1.89-5.82 7.17-9.92 13.28-10.3" class="cls-5tet2"/><path d="M317.84 751.7a18.4 18.4 0 0 1 17.79 10.56c7.37-1.58 15 1.53 19.16 7.81 4.17 6.28 4.06 14.52-.26 20.69 5.05 5.59 6.17 13.75 2.82 20.5-3.36 6.75-10.54 10.78-18.05 10.12-2.32 7.17-8.83 12.21-16.34 12.68a18.4 18.4 0 0 1-17.79-10.56c-7.37 1.58-15-1.53-19.16-7.81-4.17-6.28-4.06-14.52.26-20.69-5.05-5.59-6.17-13.75-2.82-20.5 3.36-6.75 10.54-10.78 18.05-10.12 2.32-7.17 8.83-12.21 16.34-12.68" class="cls-5tet4"/><path d="M319.35 776.15a7.47 7.47 0 0 1 7.22 4.29c2.99-.64 6.09.62 7.78 3.17a7.465 7.465 0 0 1-.11 8.4 7.467 7.467 0 0 1-6.19 12.44c-.94 2.91-3.59 4.96-6.64 5.15s-5.93-1.52-7.22-4.29c-2.99.64-6.09-.62-7.78-3.17a7.465 7.465 0 0 1 .11-8.4 7.467 7.467 0 0 1 6.19-12.44 7.48 7.48 0 0 1 6.64-5.15" class="cls-5tet2"/><path d="M1580.35 1169.15c6.95-.43 13.5 3.45 16.45 9.77a17.02 17.02 0 0 1 17.72 7.23c3.85 5.81 3.76 13.43-.24 19.14 4.67 5.17 5.71 12.72 2.6 18.96-3.1 6.24-9.75 9.97-16.69 9.36a17.02 17.02 0 0 1-15.12 11.72c-6.95.43-13.5-3.45-16.45-9.77a17.02 17.02 0 0 1-17.72-7.23c-3.85-5.81-3.76-13.43.24-19.14-4.67-5.17-5.71-12.72-2.6-18.96 3.1-6.24 9.75-9.97 16.69-9.36a17.02 17.02 0 0 1 15.12-11.72" class="cls-5tet4"/><path d="M1581.75 1191.77c2.82-.18 5.48 1.4 6.68 3.97 2.77-.59 5.63.58 7.2 2.94a6.91 6.91 0 0 1-.1 7.77c1.9 2.1 2.32 5.17 1.06 7.7a6.9 6.9 0 0 1-6.78 3.8c-.87 2.69-3.32 4.59-6.14 4.76s-5.48-1.4-6.68-3.97c-2.77.59-5.63-.58-7.2-2.94a6.91 6.91 0 0 1 .1-7.77 6.91 6.91 0 0 1-1.06-7.7 6.9 6.9 0 0 1 6.78-3.8 6.91 6.91 0 0 1 6.14-4.76" class="cls-5tet2"/><path d="M1189.99 1562.27c12.66-.79 24.59 6.29 29.96 17.78 12.42-2.66 25.26 2.58 32.28 13.16s6.84 24.45-.44 34.86c8.51 9.42 10.4 23.17 4.74 34.54-5.65 11.37-17.75 18.15-30.4 17.05-3.91 12.07-14.87 20.57-27.53 21.35-12.66.79-24.59-6.29-29.96-17.78-12.42 2.66-25.26-2.58-32.28-13.16s-6.84-24.45.44-34.86c-8.51-9.42-10.4-23.17-4.74-34.54 5.65-11.37 17.75-18.15 30.4-17.05 3.91-12.07 14.87-20.57 27.53-21.35" class="cls-5tet4"/><path d="M1192.54 1603.46c5.14-.32 9.99 2.56 12.17 7.22a12.595 12.595 0 0 1 13.11 5.35c2.85 4.3 2.78 9.93-.18 14.16 3.46 3.83 4.22 9.41 1.93 14.03-2.3 4.62-7.21 7.37-12.35 6.93-1.59 4.9-6.04 8.35-11.18 8.67s-9.99-2.56-12.17-7.22a12.595 12.595 0 0 1-13.11-5.35c-2.85-4.3-2.78-9.93.18-14.16a12.61 12.61 0 0 1-1.93-14.03c2.3-4.62 7.21-7.37 12.35-6.93a12.6 12.6 0 0 1 11.18-8.67" class="cls-5tet2"/></svg>