<svg xmlns="http://www.w3.org/2000/svg" viewBox="0 0 2000 2000" width="300" height="300" fill="none"><defs><style>.cls-eid11{fill:#d989b5}.cls-eid12{fill:#863a6f}.cls-eid13{fill:#ffadbc}</style></defs><path d="m1099.12 511.82 45.77 20.97 43.22-25.81-5.8 50 37.9 33.13-49.35 9.94-19.79 46.29-24.7-43.87-50.14-4.52 34.09-37.05zm363.42-167.88 24.43 14.46 25.76-11.92-6.21 27.7 19.29 20.82-28.25 2.65-13.84 24.78-11.26-26.05-27.84-5.5 21.3-18.76zm-657.92 12.51L827 373.91l27.07-8.53-9.7 26.68 16.48 23.11-28.37-.98L815.59 437l-7.83-27.28-26.92-9.01 23.53-15.88z" class="cls-eid13"/><path d="M1713.59 505.2v22.63c0-3.6-1.48-6.85-3.87-9.21a13.24 13.24 0 0 0-9.34-3.81c-7.29 0-13.21 5.83-13.21 13.02v140.19h-4.74V527.83c0-3.6-1.48-6.85-3.87-9.21a13.24 13.24 0 0 0-9.34-3.81c-7.29 0-13.21 5.83-13.21 13.02v140.19h-4.74V527.83c0-3.6-1.48-6.85-3.87-9.21a13.24 13.24 0 0 0-9.34-3.81c-7.29 0-13.21 5.83-13.21 13.02v140.19h-4.74V527.83c0-3.6-1.48-6.85-3.87-9.21a13.24 13.24 0 0 0-9.34-3.81c-7.29 0-13.21 5.83-13.21 13.02v-22.62c0-4.46 3.62-8.16 8.31-8.54 8.11-.66 20.42-3.23 31.82-12.1 5.44-4.23 9.43-8.93 12.36-13.5 3.57-5.55 12.13-5.59 15.58.02a51.8 51.8 0 0 0 10.17 11.98c11.6 10.11 24.88 12.92 33.39 13.6 4.67.38 8.25 4.09 8.25 8.53Z" class="cls-eid11"/><path d="M1593.71 657.52v-22.63c0 3.6 1.48 6.85 3.87 9.21a13.24 13.24 0 0 0 9.34 3.81c7.29 0 13.21-5.83 13.21-13.02V494.7h4.74v140.19c0 3.6 1.48 6.85 3.87 9.21a13.24 13.24 0 0 0 9.34 3.81c7.29 0 13.21-5.83 13.21-13.02V494.7h4.74v140.19c0 3.6 1.48 6.85 3.87 9.21a13.24 13.24 0 0 0 9.34 3.81c7.29 0 13.21-5.83 13.21-13.02V494.7h4.74v140.19c0 3.6 1.48 6.85 3.87 9.21a13.24 13.24 0 0 0 9.34 3.81c7.29 0 13.21-5.83 13.21-13.02v22.62c0 4.46-3.62 8.16-8.31 8.54-8.11.66-20.42 3.23-31.82 12.1-5.44 4.23-9.43 8.93-12.36 13.5-3.57 5.55-12.13 5.59-15.58-.02a51.8 51.8 0 0 0-10.17-11.98c-11.6-10.11-24.88-12.92-33.39-13.6-4.67-.38-8.25-4.09-8.25-8.53Z" class="cls-eid11"/><path d="M1713.49 657.32h-119.53V510.15h119.53zm-114.57-4.96h109.61V515.11h-109.61zM1029.19 299.4v13.88c0-2.21-.91-4.2-2.37-5.65a8.16 8.16 0 0 0-5.73-2.34c-4.47 0-8.1 3.58-8.1 7.99v85.99h-2.91v-85.99c0-2.21-.91-4.2-2.37-5.65a8.16 8.16 0 0 0-5.73-2.34c-4.47 0-8.1 3.58-8.1 7.99v85.99h-2.91v-85.99c0-2.21-.91-4.2-2.37-5.65a8.16 8.16 0 0 0-5.73-2.34c-4.47 0-8.1 3.58-8.1 7.99v85.99h-2.91v-85.99c0-2.21-.91-4.2-2.37-5.65a8.16 8.16 0 0 0-5.73-2.34c-4.47 0-8.1 3.58-8.1 7.99V299.4c0-2.74 2.22-5.01 5.1-5.24 4.98-.4 12.53-1.98 19.52-7.42 3.33-2.59 5.78-5.47 7.58-8.28 2.19-3.41 7.44-3.43 9.56.01 1.52 2.47 3.54 5 6.24 7.35 7.12 6.2 15.26 7.92 20.48 8.34 2.86.23 5.06 2.51 5.06 5.23Z" class="cls-eid11"/><path d="M955.65 392.82v-13.88c0 2.21.91 4.2 2.37 5.65a8.16 8.16 0 0 0 5.73 2.34c4.47 0 8.1-3.58 8.1-7.99v-85.99h2.91v85.99c0 2.21.91 4.2 2.37 5.65a8.16 8.16 0 0 0 5.73 2.34c4.47 0 8.1-3.58 8.1-7.99v-85.99h2.91v85.99c0 2.21.91 4.2 2.37 5.65a8.16 8.16 0 0 0 5.73 2.34c4.47 0 8.1-3.58 8.1-7.99v-85.99h2.91v85.99c0 2.21.91 4.2 2.37 5.65a8.16 8.16 0 0 0 5.73 2.34c4.47 0 8.1-3.58 8.1-7.99v13.88c0 2.74-2.22 5.01-5.1 5.24-4.98.4-12.53 1.98-19.52 7.42a33 33 0 0 0-7.58 8.28c-2.19 3.41-7.44 3.43-9.56-.01-1.52-2.47-3.54-5-6.24-7.35-7.12-6.2-15.26-7.92-20.48-8.34-2.86-.23-5.06-2.51-5.06-5.23Z" class="cls-eid11"/><path d="M1029.13 392.7h-73.31v-90.27h73.31zm-70.27-3.04h67.23v-84.19h-67.23zm372.23 4.76v9.65c0-1.53-.63-2.92-1.65-3.93-1.02-1-2.43-1.63-3.98-1.63-3.11 0-5.63 2.49-5.63 5.55v59.77h-2.02v-59.77c0-1.53-.63-2.92-1.65-3.93-1.02-1-2.43-1.63-3.98-1.63-3.11 0-5.63 2.49-5.63 5.55v59.77h-2.02v-59.77c0-1.53-.63-2.92-1.65-3.93-1.02-1-2.43-1.63-3.98-1.63-3.11 0-5.63 2.49-5.63 5.55v59.77h-2.02v-59.77c0-1.53-.63-2.92-1.65-3.93-1.02-1-2.43-1.63-3.98-1.63-3.11 0-5.63 2.49-5.63 5.55v-9.65c0-1.9 1.54-3.48 3.54-3.64 3.46-.28 8.71-1.38 13.57-5.16a22.9 22.9 0 0 0 5.27-5.76c1.52-2.37 5.17-2.39 6.64 0 1.06 1.72 2.46 3.48 4.33 5.11 4.95 4.31 10.61 5.51 14.24 5.8 1.99.16 3.52 1.75 3.52 3.64Z" class="cls-eid11"/><path d="M1279.98 459.37v-9.65c0 1.53.63 2.92 1.65 3.93 1.02 1 2.43 1.63 3.98 1.63 3.11 0 5.63-2.49 5.63-5.55v-59.77h2.02v59.77c0 1.53.63 2.92 1.65 3.93 1.02 1 2.43 1.63 3.98 1.63 3.11 0 5.63-2.49 5.63-5.55v-59.77h2.02v59.77c0 1.53.63 2.92 1.65 3.93 1.02 1 2.43 1.63 3.98 1.63 3.11 0 5.63-2.49 5.63-5.55v-59.77h2.02v59.77c0 1.53.63 2.92 1.65 3.93 1.02 1 2.43 1.63 3.98 1.63 3.11 0 5.63-2.49 5.63-5.55v9.65c0 1.9-1.54 3.48-3.54 3.64-3.46.28-8.71 1.38-13.57 5.16a22.9 22.9 0 0 0-5.27 5.76c-1.52 2.37-5.17 2.39-6.64 0a22.2 22.2 0 0 0-4.33-5.11c-4.95-4.31-10.61-5.51-14.24-5.8-1.99-.16-3.52-1.75-3.52-3.64Z" class="cls-eid11"/><path d="M1331.05 459.29h-50.96v-62.75h50.96zm-48.85-2.11h46.73v-58.52h-46.73z" class="cls-eid11"/><path d="M823.94 401.74c-.03-.29-.07-.62-.1-7.24l7.19-.03c.03 5.34.06 6.39.07 6.58l-2.15.12-5 .56Zm-.13-20.03c0-3.84-.01-8.14-.01-12.79h7.19c0 4.64 0 8.93.01 12.77h-7.19Zm7.17-25.56h-7.19v-12.79h7.19zm0-25.58h-7.19v-12.79h7.19zm.02-25.58h-7.19l.01-12.8h7.19zm.03-25.58h-7.19l.02-12.8h7.19zm.03-25.58h-7.19l.02-12.8h7.19zm-7.086-25.491.01-6.85 7.19.01-.01 6.85zM1481.65 382.23c-.04-.32-.07-.6-.11-7.01l7.19-.04c.03 4.93.05 6.07.07 6.3l-2.27.13-4.88.61Zm-.15-20.9c0-4.17 0-8.85-.01-13.89h7.19c0 5.04 0 9.71.01 13.88h-7.19Zm7.17-27.77h-7.19v-13.9h7.19zm.01-27.78h-7.19l.01-13.9h7.19zm.03-27.79h-7.19l.02-13.9h7.19zm.04-27.79h-7.19l.02-13.91h7.19zm-7.222-27.77.01-6.58 7.19.012-.01 6.58zM1144.63 558.52c-.01-.26-.05-.79-.07-9.74l7.19-.02c.02 7.76.05 9.13.06 9.36l-7.18.41Zm-.11-29.14c0-5.78-.01-12.29-.02-19.4h7.19c0 7.1 0 13.61.02 19.39h-7.19Zm-.02-38.79v-19.4h7.19v19.4zm7.19-38.81h-7.19v-19.41h7.19zm0-38.82h-7.19v-19.41h7.19zm.02-38.82h-7.19v-19.41h7.19zm.02-38.82h-7.19l.01-19.41h7.19zm.02-38.82h-7.19l.01-19.42h7.19zm.03-38.82h-7.19l.01-19.42h7.19zm-7.16-48.19h7.19v9.54h-7.19z" class="cls-eid13"/><path d="M1301.99 390.24c-.02-.22-.04-.52-.06-6.07l7.19-.03c.02 4.54.04 5.42.05 5.58l-7.17.52Zm-.09-17.15v-11.08h7.18v11.08l-7.18.01Zm-.02-22.16v-11.08h7.19v11.08zm7.19-22.17h-7.19v-11.09h7.19zm-3.59-22.17-3.59-.08v-11.02h7.2v11.02l-3.6.07Zm3.61-22.17h-7.19v-11.09h7.19zm.02-22.17h-7.19v-11.09h7.19zm.02-22.17h-7.19l.01-11.1h7.19zm-7.111-22.103.008-5.79 7.19.01-.008 5.79zM1649.34 487.97c-.01-.23-.03-.63-.05-7.34l8.82-.03c.02 5.47.03 6.68.04 6.91zm-.08-22.26V450.8h8.81v14.91zm-.02-29.82v-14.91h8.82v14.91zm8.82-29.83h-8.82v-14.92h8.82zm0-29.84h-8.82v-14.84l8.82-.08zm0-29.84h-8.82v-14.92h8.82zm.01-29.83h-8.82v-14.92h8.82zm.02-29.84h-8.82v-14.93h8.82zm.02-29.84h-8.82l.01-14.93h8.82zm-8.78-36.81h8.82v7.11h-8.82zm-654.77 72.9h-7.19v-11.6h7.19zm0-23.19h-7.19v-11.6h7.19zm0-23.19h-7.19v-11.6h7.19zm0-23.19h-7.19v-7.51h7.19z" class="cls-eid11"/><path d="M1693.9 1795.43H306.1c-55.98 0-101.52-45.54-101.52-101.52V306.1c0-55.98 45.54-101.52 101.52-101.52h1387.8c55.98 0 101.52 45.54 101.52 101.52v1387.8c0 55.98-45.54 101.52-101.52 101.52ZM306.1 218.57c-48.26 0-87.52 39.26-87.52 87.52v1387.8c0 48.26 39.26 87.52 87.52 87.52h1387.8c48.26 0 87.52-39.26 87.52-87.52V306.1c0-48.26-39.26-87.52-87.52-87.52H306.1Z" class="cls-eid12"/><path d="M658.89 1594.97c0 144.31-116.98 261.31-261.3 261.31-144.31 0-261.3-116.99-261.3-261.31 0-144.3 116.98-261.3 261.3-261.3 11.16 0 22.17.7 32.96 2.07-96.58 13.95-170.78 97.06-170.78 197.49 0 110.21 89.35 199.55 199.56 199.55 100.43 0 183.54-74.19 197.49-170.77 1.36 10.79 2.06 21.79 2.06 32.95Z" class="cls-eid12"/></svg>