<svg xmlns="http://www.w3.org/2000/svg" viewBox="0 0 2000 2000" width="300" height="300" fill="none"><defs><style>.cls-eid21{fill:#2b3a55}</style></defs><path d="M652.68 169.49c0 11.09-8.99 20.08-20.08 20.08s-20.08-8.99-20.08-20.08 8.99-20.08 20.08-20.08c.86 0 1.7.05 2.53.16-7.42 1.07-13.12 7.46-13.12 15.18 0 8.47 6.87 15.34 15.34 15.34 7.72 0 14.11-5.7 15.18-13.12.1.83.16 1.67.16 2.53Zm749.9 0c0 11.09-8.99 20.08-20.08 20.08s-20.08-8.99-20.08-20.08 8.99-20.08 20.08-20.08c.86 0 1.7.05 2.53.16-7.42 1.07-13.12 7.46-13.12 15.18 0 8.47 6.87 15.34 15.34 15.34 7.72 0 14.11-5.7 15.18-13.12.1.83.16 1.67.16 2.53Zm-367.01 76.29c0 20.07-16.27 36.34-36.34 36.34s-36.34-16.27-36.34-36.35c0-20.07 16.27-36.34 36.34-36.34 1.55 0 3.08.1 4.58.29-13.43 1.94-23.75 13.5-23.75 27.47 0 15.33 12.43 27.76 27.76 27.76 13.97 0 25.53-10.32 27.47-23.75.19 1.5.29 3.03.29 4.58ZM767.1 400.56c0 11.45-9.28 20.73-20.73 20.73s-20.73-9.28-20.73-20.73 9.28-20.73 20.73-20.73c.89 0 1.76.06 2.62.16-7.66 1.11-13.55 7.7-13.55 15.67 0 8.74 7.09 15.83 15.83 15.83 7.97 0 14.56-5.89 15.67-13.55.11.86.16 1.73.16 2.61Zm498.74 0c0 11.45-9.28 20.73-20.73 20.73s-20.73-9.28-20.73-20.73 9.28-20.73 20.73-20.73c.89 0 1.76.06 2.62.16-7.66 1.11-13.55 7.7-13.55 15.67 0 8.74 7.09 15.83 15.83 15.83 7.97 0 14.56-5.89 15.67-13.55.11.86.16 1.73.16 2.61Z" class="cls-eid21"/><path d="M659.52 647.46a872 872 0 0 0-40.72 15.29c-2.11-.67-4.22-1.33-6.33-2l-48 12.75c-.45-1.33-2.2-5.3-3.83-10.88-3.31-11.34-6.07-29.34 3.83-45.55 14.78-24.18 18.81-104.78 13.43-128.96s13.43-24.18 13.43-24.18V336.3c-7.87-7.85-9.37-17.74-5.38-22.84.65-.82 2.86-3.33 8.06-4.03 0 0 2.69-57.77 0-71.21-.18-.89-.97-4.56.96-6.51 1.36-1.35 3.56-1.37 5.26-1.16l3.03-48.61c-5.81-8.11-7.43-15.05-7.8-19.99-.9-11.77 4.82-18.65 8.4-40.91.61-3.75.97-6.88 1.19-8.96-4.13-2.36-5.62-7.23-3.88-10.74 1.29-2.6 4.24-4.22 7.46-4.18 3.24-.04 6.18 1.59 7.46 4.18 1.75 3.51.25 8.38-3.88 10.74.22 2.09.59 5.21 1.19 8.96 3.58 22.26 9.3 29.14 8.4 40.91-.38 4.94-2.01 11.87-7.8 19.99 1.01 16.21 2.03 32.41 3.03 48.61 1.7-.21 3.9-.19 5.25 1.16 1.95 1.95 1.15 5.61.96 6.51-2.68 13.43 0 71.21 0 71.21 5.21.69 7.41 3.2 8.07 4.03 3.99 5.1 2.49 14.99-5.38 22.84v127.63s18.81 0 13.43 24.18c-3.17 14.3-3.07 48.32.61 78.74 2.53 21.03 6.78 40.34 12.82 50.22.18.29.35.58.52.87 3.69 6.35 5.48 12.95 6.1 19.3.34 3.52.32 6.95.06 10.23Zm773.4 6.22c-1.74 10.16-5.25 17.85-5.91 19.82-13.45-4.25-26.9-8.5-40.37-12.75-3.81 1.01-7.61 2.03-11.42 3.03a862 862 0 0 0-43.27-16.32c-.25-3.27-.28-6.71.06-10.23.65-6.64 2.58-13.56 6.62-20.17.9-1.48 1.77-3.17 2.6-5.05 4.67-10.65 8.07-27.3 10.22-45.18 3.68-30.42 3.79-64.44.61-78.73-5.38-24.18 13.43-24.18 13.43-24.18V336.29c-7.87-7.85-9.37-17.74-5.38-22.84.66-.82 2.86-3.33 8.07-4.03 0 0 2.68-57.77 0-71.21-.18-.89-.98-4.56.96-6.51 1.35-1.35 3.55-1.37 5.25-1.16 1.01-16.2 2.03-32.4 3.03-48.61-5.8-8.11-7.43-15.05-7.8-19.99-.89-11.77 4.82-18.65 8.4-40.91.61-3.75.97-6.88 1.19-8.96-4.13-2.36-5.62-7.23-3.88-10.74 1.29-2.6 4.23-4.22 7.46-4.18 3.23-.04 6.17 1.59 7.46 4.18 1.74 3.51.25 8.38-3.88 10.74.22 2.09.59 5.21 1.19 8.96 3.58 22.26 9.3 29.14 8.4 40.91-.38 4.94-2 11.87-7.8 19.99 1.02 16.21 2.03 32.41 3.03 48.61 1.7-.21 3.9-.19 5.26 1.16 1.94 1.95 1.14 5.61.96 6.51-2.69 13.43 0 71.21 0 71.21 5.2.69 7.41 3.2 8.06 4.03 3.99 5.1 2.5 14.99-5.38 22.84v127.63s18.81 0 13.43 24.18c-5.38 24.19-1.34 104.78 13.43 128.96 7.59 12.42 7.73 25.89 5.91 36.61Z" class="cls-eid21"/><path d="M862.95 600.79c-2.1.26-4.2.53-6.3.8-1.25.16-2.48.32-3.72.49-3.73.49-7.44 1-11.14 1.53-1.6.22-3.2.46-4.79.69-.12.02-.25.04-.37.05-1.86.28-3.72.56-5.58.85-1.87.28-3.74.58-5.6.88-1.51.24-3.01.48-4.5.73-.87.14-1.74.28-2.6.43-1.75.29-3.5.59-5.24.89-2.05.35-4.1.71-6.14 1.08-2.25.4-4.48.81-6.72 1.22-1.83.34-3.66.68-5.49 1.03-1.25.24-2.49.48-3.74.73-1.13.21-2.25.44-3.38.66-4.16.82-8.3 1.68-12.43 2.55-1.27.26-2.53.53-3.8.81-2.27.49-4.53.99-6.79 1.49l-16.42-4.44c-29.59 7.99-59.18 15.99-88.76 23.98-6.71 1.82-13.42 3.62-20.13 5.44-1.67-6.1-2.93-11.86-3.84-17.28-4.71-27.82-.34-46.82 4.52-58.54 1.97-4.74 4.02-8.3 5.59-10.75 14.18-22.23 38.66-37.59 54.93-47.46 8.98-5.45 16.88-9.38 22.61-12.02-4.89-10.3-2.74-16.46-1.79-18.58.92-2.05 2.25-3.7 9.18-9.85 5.06-4.49 9.39-8.08 12.51-10.6-1.35-3.2-2.81-7.97-2.22-13.58.35-3.25 1.24-5.45 2.2-8.16 1.5-4.22 3.41-10.4 4.96-18.48 1.89 8.05 3.9 14.24 5.42 18.48.99 2.79 1.86 4.96 2.2 8.16.59 5.61-.87 10.38-2.22 13.58 3.12 2.53 7.45 6.11 12.51 10.6 6.94 6.15 8.25 7.8 9.18 9.85.96 2.12 3.1 8.29-1.79 18.58 5.73 2.64 13.62 6.57 22.61 12.02 9.84 5.96 22.67 13.93 34.41 24.22 7.68 6.73 14.91 14.45 20.52 23.24a68 68 0 0 1 4.14 7.49c3.76 7.94 7.73 20.11 7.97 37.21Zm494.08 17.41c-.89 7.45-2.46 15.6-4.88 24.48-6.71-1.82-13.42-3.62-20.13-5.44-29.59-7.99-59.18-15.99-88.76-23.98-5.47 1.48-10.94 2.96-16.42 4.44-23.48-5.24-47.5-9.7-72-13.34-8.71-1.29-17.48-2.48-26.31-3.56.27-18.95 5.1-31.85 9.18-39.64 1.06-2.03 2.07-3.72 2.93-5.07 5.6-8.8 12.83-16.51 20.52-23.25 11.74-10.28 24.57-18.25 34.41-24.21 8.99-5.45 16.88-9.38 22.61-12.02-4.89-10.3-2.74-16.46-1.79-18.58.93-2.05 2.25-3.7 9.18-9.85 5.06-4.49 9.39-8.08 12.51-10.6-1.35-3.2-2.81-7.97-2.22-13.58.35-3.25 1.24-5.45 2.2-8.16 1.5-4.22 3.41-10.4 4.97-18.48 1.89 8.05 3.89 14.24 5.41 18.48.99 2.79 1.86 4.96 2.2 8.16.59 5.61-.87 10.38-2.22 13.58 3.12 2.53 7.45 6.11 12.51 10.6 6.94 6.15 8.26 7.8 9.18 9.85.96 2.12 3.1 8.29-1.79 18.58 5.73 2.64 13.63 6.57 22.61 12.02 16.28 9.87 40.75 25.23 54.93 47.46 1.57 2.46 3.62 6.01 5.59 10.74 4.44 10.68 8.45 27.42 5.57 51.36Z" class="cls-eid21"/><path d="M1161.59 564.64c-.9 11.87-3.02 25.09-6.75 39.72-8.71-1.29-17.48-2.48-26.31-3.56-2.81-.34-5.63-.68-8.45-1.01l-124.33-33.57c-41.44 11.19-82.85 22.37-124.28 33.56-2.84.32-5.68.66-8.52 1.01-2.1.26-4.2.53-6.3.8-1.25.16-2.48.32-3.72.49-3.73.49-7.44 1-11.14 1.53-1.6.22-3.19.46-4.79.69-.12.02-.25.04-.37.05-3.42-13.39-5.48-25.6-6.5-36.68-1.22-13.17-.97-24.75.18-34.82 2.88-25.57 11.51-41.54 16.61-49.54 20.56-32.24 56.05-54.53 79.65-68.83 13.03-7.9 24.48-13.6 32.8-17.42-7.1-14.93-3.98-23.87-2.6-26.95 1.34-2.98 3.25-5.37 13.32-14.29 7.33-6.5 13.62-11.71 18.14-15.36-1.96-4.64-4.07-11.57-3.21-19.7.5-4.72 1.79-7.9 3.18-11.85 2.17-6.12 4.95-15.08 7.2-26.79 2.74 11.67 5.66 20.65 7.86 26.79 1.44 4.04 2.69 7.19 3.18 11.85.86 8.13-1.25 15.06-3.21 19.7 4.52 3.66 10.81 8.87 18.14 15.36 10.07 8.93 11.98 11.31 13.32 14.29 1.38 3.08 4.5 12.01-2.6 26.95a326 326 0 0 1 32.8 17.42c23.61 14.3 59.09 36.59 79.65 68.83 5.1 8 13.73 23.97 16.61 49.53 1.06 9.3 1.35 19.87.43 31.8Z" class="cls-eid21"/><path d="M1584 777.8c-22.07-13.84-44.15-27.68-66.22-41.52-337.81-1.66-675.62-3.33-1013.42-4.99-30.92 21.83-61.85 43.66-92.77 65.49 3.3-16.38 8.69-28.47 13.05-36.54 9.16-16.94 23.36-34.5 136-97.62 14.96-8.38 40.38-22.35 74.86-37.23 5.89-2.54 11.85-5.02 17.86-7.45 54.66-22.04 114.02-39.09 176.79-50.26 8.22-1.47 16.5-2.83 24.83-4.1 48.28-7.3 98.44-11.15 149.89-11.15 45.43 0 89.83 3 132.85 8.73 8.01 1.06 15.97 2.23 23.88 3.48 63.63 10.08 123.95 26.18 179.65 47.37 5.31 2.01 10.58 4.07 15.79 6.18 30.82 13.52 56.53 25.85 75.89 35.48 95.3 47.38 122.12 71.62 139.57 100.87 5.63 9.44 9.3 17.75 11.5 23.25Z" class="cls-eid21"/><path d="M1486.62 1902.82H513.38c-59.01 0-107.02-48.01-107.02-107.02V822.56c0-59.01 48.01-107.02 107.02-107.02h973.24c59.01 0 107.02 48.01 107.02 107.02v973.24c0 59.01-48.01 107.02-107.02 107.02M513.38 746.15c-42.13 0-76.41 34.28-76.41 76.41v973.24c0 42.13 34.28 76.41 76.41 76.41h973.24c42.13 0 76.41-34.28 76.41-76.41V822.56c0-42.13-34.28-76.41-76.41-76.41z" class="cls-eid21"/></svg>