<svg xmlns="http://www.w3.org/2000/svg" viewBox="0 0 1400 1400" width="300" height="300" fill="none"><defs><style>.cls-5eid1{fill:#edcb58}.cls-5eid2{fill:#f1cb7e}.cls-5eid3{fill:#e5b26a}.cls-5eid4{fill:#ffe996}.cls-5eid6{fill:#d99955}.cls-5eid7{fill:#142543}</style></defs><path d="M987.85 678V376.44c.01-13.48-10.95-24.62-24.42-24.83l-28.06-.45c-5.48-15.26-15.57-35.14-33.96-53.1-22.94-22.4-48.65-32.28-68.12-36.58-3.93-31.74-15.14-56.75-33.39-74.42-15.15-14.66-31.62-21.12-49.05-27.96-17.11-6.72-36.5-14.32-59.15-31.94a217 217 0 0 1-23.83-21.57l-3.72 3.54c-.08.08-.17.16-.26.25l-14.9 14.19a217 217 0 0 1-8.67 7.12c-22.65 17.61-42.04 25.22-59.15 31.93-17.43 6.84-33.9 13.3-49.05 27.97-18.25 17.67-29.46 42.68-33.39 74.42-19.47 4.3-45.18 14.18-68.12 36.58-18.39 17.96-28.48 37.84-33.96 53.1l-28.06.45c-13.47.21-24.43 11.35-24.43 24.83v301.56l.01 18.68v301.56c-.01 13.48 10.95 24.61 24.42 24.83l28.06.45c5.48 15.26 15.57 35.14 33.96 53.1 22.94 22.4 48.65 32.27 68.12 36.58 3.93 31.73 15.14 56.74 33.39 74.42 15.15 14.66 31.62 21.12 49.05 27.96 17.11 6.71 36.5 14.32 59.15 31.94 8.43 6.56 16.45 13.82 23.83 21.57l3.72-3.54h.01c.08-.08.17-.16.26-.25l14.9-14.19a217 217 0 0 1 8.67-7.12c22.65-17.62 42.04-25.23 59.15-31.94 17.43-6.84 33.9-13.3 49.05-27.96 18.25-17.67 29.46-42.69 33.39-74.42 19.47-4.31 45.18-14.18 68.12-36.58 18.39-17.96 28.48-37.84 33.96-53.1l28.06-.45c13.47-.22 24.43-11.35 24.43-24.83V696.68l-.01-18.68ZM884 838.59c0 31.68-25.68 57.36-57.37 57.36H520.79c-31.69 0-57.37-25.68-57.37-57.36V532.74c0-31.68 25.68-57.36 57.37-57.36h305.84c31.69 0 57.37 25.68 57.37 57.36z" style="fill:#fff5d7"/><path d="M688.77 132.56c-1.71 1.8-3.46 3.58-5.23 5.32-1.67 1.67-3.37 3.3-5.09 4.9-3.35 3.13-6.78 6.17-10.29 9.1-2.29 1.94-4.62 3.82-6.98 5.65-26.53 20.63-49.3 29.57-67.6 36.75-15.4 6.04-27.56 10.81-37.81 20.74-13.52 13.08-21.56 33.22-23.91 59.86-.99 11.22-9.44 20.39-20.56 22.29-15.22 2.61-37.46 9.72-56.94 28.74-15.96 15.59-23.67 33.14-27.33 45.13-3.15 10.32-12.53 17.36-23.34 17.54l-25.54.41v292.54l.01 18.67h-20.43l-13.57.01V379.97c-.01-13.48 10.95-24.62 24.42-24.83l28.06-.45c5.48-15.26 15.57-35.14 33.96-53.1 22.94-22.4 48.65-32.28 68.12-36.58 3.93-31.74 15.14-56.75 33.39-74.42 15.15-14.67 31.62-21.13 49.05-27.97 17.11-6.71 36.5-14.32 59.15-31.93a217 217 0 0 0 8.67-7.12c5.19-4.49 10.18-9.24 14.9-14.19.09-.09.18-.17.26-.26s24.62 23.44 24.62 23.44Z" class="cls-5eid7"/><path d="m688.77 1249.18-5.74 5.46-14.9 14.19-.27.25-3.72 3.54c-7.38-7.75-15.4-15.01-23.83-21.57-22.65-17.62-42.04-25.23-59.15-31.94-17.43-6.84-33.9-13.3-49.05-27.96-18.25-17.68-29.46-42.69-33.39-74.42-19.47-4.31-45.18-14.18-68.12-36.58-18.39-17.96-28.48-37.84-33.96-53.1l-28.06-.45c-13.47-.22-24.43-11.35-24.43-24.83V700.21l.01-18.68h34v311.22l25.53.41c10.8.17 20.18 7.22 23.34 17.53 3.66 11.99 11.37 29.55 27.33 45.13 19.48 19.03 41.72 26.13 56.94 28.74 11.12 1.91 19.57 11.07 20.56 22.29 2.35 26.65 10.39 46.79 23.91 59.87 10.25 9.93 22.41 14.7 37.81 20.74 18.3 7.18 41.07 16.12 67.6 36.75.9.7 1.79 1.4 2.67 2.12 3.63 2.89 7.18 5.9 10.64 9.01 1.76 1.56 3.49 3.16 5.2 4.79 3.11 2.94 6.14 5.96 9.08 9.05" class="cls-5eid7"/><path d="M987.86 998.24c0 13.48-10.96 24.61-24.43 24.83l-28.06.45c-5.48 15.26-15.57 35.14-33.96 53.1-22.94 22.4-48.65 32.27-68.12 36.58-3.93 31.73-15.14 56.75-33.39 74.42-15.15 14.66-31.62 21.12-49.05 27.96-17.11 6.71-36.5 14.32-59.15 31.94a217 217 0 0 0-8.67 7.12c-5.19 4.49-10.18 9.24-14.9 14.19-.09.09-.18.17-.26.26h-.01l-24.62-23.44q2.595-2.73 5.28-5.37c1.68-1.67 3.38-3.3 5.1-4.9 3.33-3.12 6.74-6.14 10.23-9.05 2.29-1.94 4.62-3.82 6.98-5.65 26.53-20.63 49.3-29.57 67.6-36.75 15.4-6.04 27.56-10.81 37.81-20.74 13.52-13.08 21.56-33.22 23.91-59.87.99-11.21 9.44-20.38 20.55-22.29 15.23-2.61 37.47-9.71 56.95-28.74 15.96-15.58 23.67-33.14 27.33-45.12a24.74 24.74 0 0 1 23.34-17.54l25.54-.41V696.68l-.01-18.68h34v320.24Z" class="cls-5eid7"/><path d="M987.86 376.44V678l-.01 18.68h-34V385.46l-25.53-.41a24.74 24.74 0 0 1-23.34-17.54c-3.66-11.98-11.37-29.54-27.33-45.12-19.48-19.03-41.72-26.14-56.94-28.74-11.12-1.91-19.57-11.08-20.56-22.29-2.35-26.65-10.39-46.79-23.91-59.87-10.25-9.93-22.41-14.7-37.81-20.74-18.3-7.18-41.07-16.12-67.6-36.75-.9-.7-1.79-1.4-2.67-2.12-3.55-2.83-7.03-5.77-10.42-8.81-1.76-1.57-3.5-3.16-5.21-4.79-3.18-3-6.28-6.09-9.29-9.25l5.74-5.46 14.9-14.19.27-.25 3.72-3.54c7.38 7.75 15.4 15.01 23.83 21.57 22.65 17.62 42.04 25.22 59.15 31.94 17.43 6.84 33.9 13.3 49.05 27.96 18.25 17.67 29.46 42.68 33.39 74.42 19.47 4.3 45.18 14.18 68.12 36.58 18.39 17.96 28.48 37.84 33.96 53.1l28.06.45c13.47.21 24.43 11.35 24.43 24.83" class="cls-5eid7"/><path d="M673.13 129.27c-1.67 1.65-3.37 3.26-5.1 4.84-4.85 4.48-9.89 8.75-15.07 12.78-24.99 19.43-45.84 27.62-64.24 34.84-16.14 6.33-30.08 11.8-42.27 23.61-15.91 15.4-25.32 38.41-27.97 68.37-.45 5.12-4.31 9.31-9.39 10.18-17.11 2.93-42.13 10.93-64.09 32.38-18.01 17.58-26.7 37.35-30.81 50.85-1.44 4.69-5.72 7.9-10.65 7.98l-34.56.55c-2.35.04-4.26 1.98-4.26 4.33v301.55l.01 18.69h-7V379.98c-.01-6.15 4.99-11.23 11.14-11.33l34.56-.55c1.88-.03 3.52-1.25 4.06-3.03 4.36-14.27 13.55-35.19 32.61-53.8 23.26-22.72 49.72-31.18 67.81-34.28 1.95-.34 3.43-1.93 3.6-3.89 2.8-31.69 12.91-56.19 30.07-72.79 13.2-12.79 27.74-18.49 44.58-25.1 17.96-7.05 38.31-15.03 62.51-33.85 4.86-3.78 9.59-7.78 14.15-11.98 1.73-1.57 3.43-3.18 5.11-4.81 1.71 1.6 3.44 3.17 5.2 4.7" class="cls-5eid2"/><path d="M669.46 1248.96c-1.73 1.58-3.43 3.19-5.11 4.82-1.71-1.6-3.44-3.17-5.2-4.71-3.41-3.01-6.91-5.9-10.48-8.68-24.2-18.81-44.55-26.8-62.51-33.85-16.84-6.6-31.38-12.31-44.58-25.09-17.16-16.61-27.27-41.1-30.07-72.8a4.33 4.33 0 0 0-3.6-3.88c-18.09-3.11-44.55-11.57-67.81-34.28-19.06-18.62-28.25-39.54-32.61-53.81-.54-1.78-2.18-3-4.06-3.03l-34.56-.55c-6.15-.1-11.15-5.18-11.15-11.33V700.22l.01-18.69h7v320.24c-.01 2.35 1.9 4.29 4.25 4.33l34.56.56c4.93.07 9.21 3.28 10.65 7.98 4.11 13.49 12.8 33.26 30.81 50.84 21.96 21.45 46.98 29.45 64.09 32.39 5.08.87 8.94 5.05 9.39 10.17 2.65 29.97 12.06 52.97 27.97 68.38 12.19 11.81 26.13 17.27 42.27 23.61 18.4 7.22 39.25 15.4 64.24 34.83 3.85 2.99 7.63 6.12 11.3 9.37 1.76 1.55 3.49 3.12 5.2 4.73" class="cls-5eid2"/><path d="M974.43 998.49c0 6.15-5 11.23-11.15 11.33l-34.56.55a4.3 4.3 0 0 0-4.06 3.03c-4.36 14.27-13.56 35.19-32.61 53.81-23.26 22.71-49.72 31.17-67.81 34.27-1.95.34-3.43 1.94-3.6 3.89-2.8 31.69-12.91 56.19-30.07 72.8-13.2 12.78-27.74 18.48-44.58 25.09-17.96 7.05-38.31 15.03-62.51 33.85a232 232 0 0 0-19.13 16.67c-1.71-1.6-3.44-3.17-5.2-4.71 1.68-1.65 3.38-3.26 5.11-4.84 4.81-4.44 9.8-8.66 14.93-12.65 24.99-19.43 45.84-27.62 64.25-34.84 16.13-6.33 30.07-11.79 42.27-23.6 15.91-15.41 25.31-38.42 27.96-68.38.45-5.12 4.31-9.31 9.39-10.18 17.11-2.93 42.13-10.93 64.1-32.38 17.99-17.58 26.69-37.35 30.81-50.84 1.43-4.7 5.71-7.91 10.64-7.99l34.56-.55c2.35-.04 4.26-1.98 4.26-4.33V678.25h7z" class="cls-5eid2"/><path d="M974.43 376.46v320.23h-7V376.46c0-2.36-1.9-4.3-4.25-4.34l-34.56-.55c-4.93-.08-9.21-3.29-10.64-7.98-4.12-13.49-12.82-33.27-30.81-50.85-21.97-21.45-46.99-29.45-64.1-32.38-5.08-.87-8.94-5.05-9.39-10.17-2.65-29.97-12.05-52.98-27.96-68.38-12.2-11.81-26.14-17.28-42.27-23.61-18.41-7.22-39.26-15.4-64.25-34.84-3.8-2.96-7.53-6.04-11.16-9.25-1.76-1.54-3.5-3.12-5.21-4.73 1.73-1.57 3.43-3.18 5.11-4.81 1.71 1.6 3.44 3.17 5.2 4.7 3.37 2.97 6.83 5.82 10.35 8.56 24.2 18.82 44.55 26.81 62.51 33.85 16.84 6.61 31.38 12.31 44.58 25.1 17.16 16.61 27.27 41.1 30.07 72.79a4.33 4.33 0 0 0 3.6 3.89c18.09 3.1 44.55 11.56 67.81 34.28 19.05 18.61 28.25 39.53 32.61 53.8.55 1.78 2.18 3 4.06 3.03l34.56.55c6.15.1 11.15 5.19 11.15 11.34Z" class="cls-5eid2"/><circle cx="509.61" cy="277.54" r="45.52" class="cls-5eid6"/><circle cx="516.74" cy="280.5" r="37.16" class="cls-5eid3"/><circle cx="522.93" cy="283.55" r="26.26" class="cls-5eid2"/><circle cx="526.01" cy="283.55" r="10.48" class="cls-5eid4"/><circle cx="758.57" cy="174.59" r="34.78" class="cls-5eid6"/><circle cx="764.02" cy="176.85" r="28.4" class="cls-5eid3"/><circle cx="768.75" cy="179.18" r="20.07" class="cls-5eid2"/><circle cx="771.1" cy="179.18" r="8.01" class="cls-5eid4"/><path d="m913.24 265.73 2.73 15.61c.27 1.56 1.3 2.88 2.73 3.54l14.42 6.57c2.73 1.24 3.66 4.66 1.94 7.12l-9.11 12.97a4.81 4.81 0 0 0-.57 4.44l5.55 14.85c1.05 2.81-.71 5.89-3.67 6.4l-15.61 2.73c-1.56.27-2.88 1.3-3.54 2.73l-6.57 14.42c-1.24 2.73-4.66 3.66-7.12 1.94l-12.97-9.11a4.81 4.81 0 0 0-4.44-.57l-14.85 5.55c-2.81 1.05-5.89-.71-6.4-3.67l-2.73-15.61a4.81 4.81 0 0 0-2.73-3.54l-14.42-6.57c-2.73-1.24-3.66-4.66-1.94-7.12l9.11-12.97a4.81 4.81 0 0 0 .57-4.44l-5.55-14.85c-1.05-2.81.71-5.89 3.67-6.4l15.61-2.73c1.56-.27 2.88-1.3 3.54-2.73l6.57-14.42c1.24-2.73 4.66-3.66 7.12-1.94l12.97 9.11a4.81 4.81 0 0 0 4.44.57l14.85-5.55c2.81-1.05 5.89.71 6.4 3.67" class="cls-5eid1"/><path d="m909.02 272 2.33 13.32a4.1 4.1 0 0 0 2.33 3.02l12.31 5.61c2.33 1.06 3.12 3.98 1.65 6.08l-7.77 11.07c-.78 1.1-.96 2.52-.48 3.78l4.74 12.67c.9 2.4-.61 5.02-3.13 5.46l-13.32 2.33a4.1 4.1 0 0 0-3.02 2.33l-5.61 12.31c-1.06 2.33-3.98 3.12-6.08 1.65l-11.07-7.77c-1.1-.78-2.52-.96-3.78-.48l-12.67 4.74c-2.4.9-5.02-.61-5.46-3.13l-2.33-13.32a4.1 4.1 0 0 0-2.33-3.02l-12.31-5.61c-2.33-1.06-3.12-3.98-1.65-6.08l7.77-11.07c.78-1.1.96-2.52.48-3.78l-4.74-12.67c-.9-2.4.61-5.02 3.13-5.46l13.32-2.33a4.1 4.1 0 0 0 3.02-2.33l5.61-12.31c1.06-2.33 3.98-3.12 6.08-1.65l11.07 7.77c1.1.78 2.52.96 3.78.48l12.67-4.74c2.4-.9 5.02.61 5.46 3.13" class="cls-5eid6"/><path d="m904.4 278.88 1.89 10.81c.19 1.08.9 2 1.89 2.45l9.99 4.55c1.89.86 2.53 3.23 1.34 4.93l-6.31 8.98c-.63.9-.78 2.05-.39 3.07l3.84 10.28c.73 1.95-.49 4.08-2.54 4.43l-10.81 1.89c-1.08.19-2 .9-2.45 1.89l-4.55 9.99c-.86 1.89-3.23 2.53-4.93 1.34l-8.98-6.31c-.9-.63-2.05-.78-3.07-.39l-10.28 3.84c-1.95.73-4.08-.49-4.43-2.54l-1.89-10.81c-.19-1.08-.9-2-1.89-2.45l-9.99-4.55c-1.89-.86-2.53-3.23-1.34-4.93l6.31-8.98c.63-.9.78-2.05.39-3.07l-3.84-10.28c-.73-1.95.49-4.08 2.54-4.43l10.81-1.89c1.08-.19 2-.9 2.45-1.89l4.55-9.99c.86-1.89 3.23-2.53 4.93-1.34l8.98 6.31c.9.63 2.05.78 3.07.39l10.28-3.84c1.95-.73 4.08.49 4.43 2.54" class="cls-5eid3"/><path d="m899.22 286.59 1.4 8c.14.8.66 1.48 1.4 1.81l7.39 3.37c1.4.64 1.88 2.39.99 3.65l-4.67 6.65c-.47.66-.57 1.51-.29 2.27l2.84 7.61c.54 1.44-.36 3.02-1.88 3.28l-8 1.4c-.8.14-1.48.66-1.81 1.4l-3.37 7.39a2.454 2.454 0 0 1-3.65.99l-6.65-4.67c-.66-.47-1.51-.57-2.27-.29l-7.61 2.84c-1.44.54-3.02-.36-3.28-1.88l-1.4-8c-.14-.8-.66-1.48-1.4-1.81l-7.39-3.37a2.454 2.454 0 0 1-.99-3.65l4.67-6.65c.47-.66.57-1.51.29-2.27l-2.84-7.61c-.54-1.44.36-3.02 1.88-3.28l8-1.4c.8-.14 1.48-.66 1.81-1.4l3.37-7.39c.64-1.4 2.39-1.88 3.65-.99l6.65 4.67c.66.47 1.51.57 2.27.29l7.61-2.84c1.44-.54 3.02.36 3.28 1.88" class="cls-5eid2"/><path d="m894.95 292.95.99 5.67c.1.57.47 1.05.99 1.29l5.24 2.39c.99.45 1.33 1.69.7 2.59l-3.31 4.71c-.33.47-.41 1.07-.21 1.61l2.02 5.39a1.75 1.75 0 0 1-1.33 2.33l-5.67.99c-.57.1-1.05.47-1.29.99l-2.39 5.24c-.45.99-1.69 1.33-2.59.7l-4.71-3.31c-.47-.33-1.07-.41-1.61-.21l-5.39 2.02a1.75 1.75 0 0 1-2.33-1.33l-.99-5.67a1.75 1.75 0 0 0-.99-1.29l-5.24-2.39a1.742 1.742 0 0 1-.7-2.59l3.31-4.71c.33-.47.41-1.07.21-1.61l-2.02-5.39a1.75 1.75 0 0 1 1.33-2.33l5.67-.99c.57-.1 1.05-.47 1.29-.99l2.39-5.24c.45-.99 1.69-1.33 2.59-.7l4.71 3.31c.47.33 1.07.41 1.61.21l5.39-2.02a1.75 1.75 0 0 1 2.33 1.33" class="cls-5eid4"/><path d="M875.88 322.71s-.05-.03-.07-.04a2.61 2.61 0 0 1-1.23-1.87l-.65-4.54s-.04-.09-.08-.11l-4.12-2.03c-.7-.35-1.21-.98-1.4-1.75-.18-.76-.02-1.56.45-2.19l2.75-3.68s.04-.09.02-.14l-1.48-4.35c-.25-.74-.16-1.55.25-2.22s1.09-1.12 1.87-1.23l4.54-.65s.09-.04.11-.08l2.03-4.12c.35-.7.98-1.21 1.75-1.4a2.63 2.63 0 0 1 2.19.45l3.68 2.75s.09.04.14.02l4.35-1.48c.74-.25 1.55-.17 2.22.25.67.41 1.12 1.09 1.23 1.87l.65 4.54s.04.09.08.11l4.12 2.03a2.635 2.635 0 0 1 .95 3.94s-2.75 3.68-2.75 3.68a.14.14 0 0 0-.02.14l1.48 4.35c.25.74.16 1.55-.25 2.22s-1.09 1.12-1.87 1.23l-4.54.65s-.09.04-.11.08l-2.03 4.12c-.35.7-.98 1.21-1.75 1.4-.76.18-1.56.02-2.19-.45l-3.68-2.75s-.09-.04-.14-.02l-4.35 1.48c-.72.24-1.5.17-2.15-.21m-.79-8.71c.7.4 1.18 1.1 1.3 1.91l.65 4.55s.03.08.07.11.08.03.13.01l4.35-1.48a2.62 2.62 0 0 1 2.42.38l3.68 2.75s.08.04.12.03c.05-.01.08-.04.1-.08l2.03-4.12c.38-.78 1.13-1.32 1.98-1.44l4.55-.65s.08-.03.11-.07c.02-.04.03-.08.01-.13l-1.48-4.35c-.28-.82-.14-1.73.39-2.42l2.75-3.68s.04-.08.03-.12-.03-.08-.08-.1l-4.12-2.03a2.62 2.62 0 0 1-1.44-1.98l-.66-4.55s-.03-.08-.07-.11a.14.14 0 0 0-.13-.01l-4.35 1.48c-.82.28-1.73.13-2.42-.38l-3.68-2.75s-.08-.04-.12-.03c-.05.01-.08.04-.1.08l-2.03 4.12c-.38.78-1.12 1.32-1.98 1.44l-4.55.66s-.08.03-.11.07c-.02.04-.03.08-.01.13l1.48 4.35c.28.82.14 1.73-.39 2.42l-2.75 3.68s-.04.08-.03.12c.01.05.04.08.08.1l4.12 2.03s.1.05.14.08Z" class="cls-5eid1"/><path d="M877.4 340.49c-.59-.34-1.09-.83-1.43-1.44l-4.7-8.33c-.32-.56-.89-.93-1.54-.99l-9.52-.83a3.8 3.8 0 0 1-2.81-1.63 3.79 3.79 0 0 1-.54-3.2l2.57-9.21c.17-.62.03-1.29-.39-1.79l-6.14-7.32a3.8 3.8 0 0 1-.83-3.14c.2-1.12.89-2.09 1.88-2.65l8.33-4.7c.56-.32.93-.89.99-1.54l.83-9.52a3.8 3.8 0 0 1 1.63-2.81c.94-.65 2.11-.85 3.2-.54l9.21 2.57c.62.17 1.29.03 1.79-.39l7.32-6.14c.87-.73 2.02-1.04 3.14-.83 1.12.2 2.09.89 2.65 1.88l4.7 8.33c.32.56.89.93 1.54.99l9.52.83a3.8 3.8 0 0 1 2.81 1.63c.65.94.85 2.1.54 3.2l-2.57 9.21c-.17.62-.03 1.29.39 1.79l6.14 7.32c.73.87 1.04 2.02.83 3.14-.2 1.12-.89 2.09-1.88 2.65l-8.33 4.7c-.56.32-.93.89-.99 1.54l-.83 9.52a3.8 3.8 0 0 1-1.63 2.81c-.94.65-2.11.85-3.2.54l-9.21-2.57c-.62-.17-1.29-.03-1.79.39l-7.32 6.14c-.87.73-2.02 1.04-3.14.83-.43-.08-.85-.23-1.22-.44m-5.93-12.12c.59.34 1.09.83 1.43 1.44l4.7 8.33a1.955 1.955 0 0 0 2.97.54l7.32-6.14c.97-.81 2.27-1.09 3.48-.75l9.21 2.57c.56.16 1.16.06 1.64-.28.48-.33.79-.86.84-1.44l.83-9.52a3.82 3.82 0 0 1 1.93-3l8.33-4.7a1.955 1.955 0 0 0 .54-2.97l-6.14-7.32a3.82 3.82 0 0 1-.75-3.48l2.57-9.21c.16-.56.06-1.16-.28-1.64-.33-.48-.86-.79-1.44-.84l-9.52-.83a3.82 3.82 0 0 1-3-1.93l-4.7-8.33a1.955 1.955 0 0 0-2.97-.54l-7.32 6.14c-.97.81-2.27 1.09-3.48.75l-9.21-2.57c-.56-.16-1.16-.06-1.64.28-.48.33-.79.86-.84 1.44l-.83 9.52a3.82 3.82 0 0 1-1.93 3l-8.33 4.7a1.955 1.955 0 0 0-.54 2.97l6.14 7.32c.81.97 1.09 2.27.75 3.48l-2.57 9.21c-.16.56-.06 1.16.28 1.64.33.48.86.79 1.44.84l9.52.83a3.9 3.9 0 0 1 1.57.49m10.57-66.01c3.65-3.07 6.74-6.74 9.08-10.88 1.22 4.62 3.31 8.96 6.11 12.85-3.54-2.43-6.03-6.24-7.28-10.33l1.68.22c-2.25 3.61-5.58 6.64-9.58 8.14Zm33.99 13.89c4.57-4.67 12.85-1.25 11.36 5.64-.42 1.85-1.53 3.45-3 4.43.9-1.51 1.47-3.08 1.55-4.64.36-5.63-5.36-7.33-9.91-5.43" class="cls-5eid1"/><path d="M916.01 279.31c3-4.03 9.75-2.35 7.48 3.21-.57 1.2-1.5 2.14-2.61 2.71 2.88-5.49 1.01-7.8-4.88-5.92Zm.72 61.22c4.67 4.58 1.25 12.85-5.64 11.36-1.85-.42-3.45-1.53-4.43-3 1.51.9 3.08 1.47 4.64 1.55 5.63.36 7.34-5.36 5.43-9.91" class="cls-5eid1"/><path d="M913.68 340.5c4.03 3.01 2.35 9.75-3.21 7.48-1.2-.57-2.14-1.5-2.7-2.61 5.49 2.89 7.8 1.01 5.92-4.87Zm-61.52.05c-4.54 4.7-12.85 1.33-11.4-5.56.41-1.85 1.51-3.46 2.97-4.45-.89 1.52-1.45 3.09-1.52 4.65-.33 5.63 5.41 7.3 9.95 5.36" class="cls-5eid1"/><path d="M852.17 337.49c-2.98 4.05-9.73 2.41-7.5-3.16a5.8 5.8 0 0 1 2.59-2.72c-2.85 5.51-.96 7.81 4.91 5.89Zm-.74-60.87c-4.23-4.98-.07-12.91 6.65-10.8 1.8.59 3.3 1.84 4.13 3.39-1.42-1.03-2.93-1.74-4.48-1.97-5.58-.87-7.79 4.67-6.31 9.37Z" class="cls-5eid1"/><path d="M854.47 276.93c-3.74-3.36-1.45-9.92 3.88-7.16a5.88 5.88 0 0 1 2.46 2.84c-5.2-3.37-7.68-1.71-6.34 4.32m74.19 31.82c3.76 2.94 7.98 5.2 12.52 6.64-4.27 2.15-8.08 5.08-11.31 8.62 1.65-3.97 4.86-7.19 8.6-9.26l.13 1.69c-4-1.45-7.65-4.09-9.94-7.7Zm-90.83.82c-3.12-3.61-6.83-6.65-11-8.93 4.61-1.29 8.91-3.43 12.76-6.28-2.39 3.57-6.16 6.12-10.23 7.42l.2-1.68c3.64 2.2 6.72 5.49 8.27 9.47m49.41 46c-.82.66-1.64 1.29-2.41 1.97-.78.66-1.52 1.37-2.23 2.08-1.41 1.44-2.7 2.98-3.84 4.62l-1.17 1.7-.49-2.01c-.24-.97-.53-1.94-.85-2.89s-.71-1.89-1.11-2.82c-.42-.92-.87-1.84-1.37-2.74-.48-.91-1.03-1.79-1.58-2.7.85.63 1.61 1.38 2.33 2.18.7.81 1.35 1.67 1.9 2.58.58.91 1.06 1.88 1.48 2.87.42 1 .75 2.03 1.01 3.07l-1.67-.31c1.23-1.76 2.71-3.35 4.41-4.65a19.4 19.4 0 0 1 2.67-1.74c.94-.49 1.91-.93 2.92-1.23ZM407.9 628.34l6.98 15.97c.7 1.59 2.13 2.74 3.84 3.07l17.12 3.27c3.24.62 5.13 4.03 3.92 7.1l-6.35 16.23c-.63 1.62-.43 3.45.55 4.89l9.8 14.42c1.85 2.73.77 6.47-2.25 7.8l-15.97 6.98c-1.59.7-2.74 2.13-3.07 3.84l-3.27 17.12c-.62 3.24-4.03 5.13-7.1 3.92l-16.23-6.35a5.29 5.29 0 0 0-4.89.55l-14.42 9.8c-2.73 1.85-6.47.77-7.8-2.25l-6.98-15.97a5.29 5.29 0 0 0-3.84-3.07l-17.12-3.27c-3.24-.62-5.13-4.03-3.92-7.1l6.35-16.23c.63-1.62.43-3.45-.55-4.89l-9.8-14.42c-1.85-2.73-.77-6.47 2.25-7.8l15.97-6.98c1.59-.7 2.74-2.13 3.07-3.84l3.27-17.12c.62-3.24 4.03-5.13 7.1-3.92l16.23 6.35c1.62.63 3.45.43 4.89-.55l14.42-9.8c2.73-1.85 6.47-.77 7.8 2.25" class="cls-5eid1"/><path d="m405.03 636.14 5.96 13.63a4.5 4.5 0 0 0 3.28 2.62l14.61 2.79c2.77.53 4.37 3.44 3.35 6.06l-5.42 13.85c-.54 1.38-.37 2.94.47 4.17l8.36 12.3a4.5 4.5 0 0 1-1.92 6.65l-13.63 5.96a4.5 4.5 0 0 0-2.62 3.28l-2.79 14.61c-.53 2.77-3.44 4.37-6.06 3.35l-13.85-5.42a4.49 4.49 0 0 0-4.17.47l-12.3 8.36a4.5 4.5 0 0 1-6.65-1.92l-5.96-13.63a4.5 4.5 0 0 0-3.28-2.62l-14.61-2.79c-2.77-.53-4.37-3.44-3.35-6.06l5.42-13.85c.54-1.38.37-2.94-.47-4.17l-8.36-12.3a4.5 4.5 0 0 1 1.92-6.65l13.63-5.96a4.5 4.5 0 0 0 2.62-3.28l2.79-14.61c.53-2.77 3.44-4.37 6.06-3.35l13.85 5.42c1.38.54 2.94.37 4.17-.47l12.3-8.36a4.5 4.5 0 0 1 6.65 1.92" class="cls-5eid6"/><path d="m401.89 644.69 4.84 11.06a3.64 3.64 0 0 0 2.66 2.12l11.86 2.26c2.25.43 3.55 2.79 2.72 4.92l-4.4 11.24c-.44 1.12-.3 2.39.38 3.38l6.78 9.98c1.28 1.89.54 4.48-1.56 5.4l-11.06 4.84a3.64 3.64 0 0 0-2.12 2.66l-2.26 11.86a3.654 3.654 0 0 1-4.92 2.72l-11.24-4.4c-1.12-.44-2.39-.3-3.38.38l-9.98 6.78a3.654 3.654 0 0 1-5.4-1.56l-4.84-11.06a3.64 3.64 0 0 0-2.66-2.12l-11.86-2.26a3.654 3.654 0 0 1-2.72-4.92l4.4-11.24c.44-1.12.3-2.39-.38-3.38l-6.78-9.98a3.654 3.654 0 0 1 1.56-5.4l11.06-4.84a3.64 3.64 0 0 0 2.12-2.66l2.26-11.86a3.654 3.654 0 0 1 4.92-2.72l11.24 4.4c1.12.44 2.39.3 3.38-.38l9.98-6.78a3.654 3.654 0 0 1 5.4 1.56" class="cls-5eid3"/><path d="m398.36 654.27 3.58 8.18c.36.82 1.09 1.4 1.97 1.57l8.77 1.67a2.7 2.7 0 0 1 2.01 3.64l-3.26 8.32c-.32.83-.22 1.77.28 2.5l5.02 7.39c.95 1.4.4 3.32-1.15 3.99l-8.18 3.58c-.82.36-1.4 1.09-1.57 1.97l-1.67 8.77a2.7 2.7 0 0 1-3.64 2.01l-8.32-3.26c-.83-.32-1.77-.22-2.5.28l-7.39 5.02c-1.4.95-3.32.4-3.99-1.15l-3.58-8.18c-.36-.82-1.09-1.4-1.97-1.57l-8.77-1.67a2.7 2.7 0 0 1-2.01-3.64l3.26-8.32c.32-.83.22-1.77-.28-2.5l-5.02-7.39c-.95-1.4-.4-3.32 1.15-3.99l8.18-3.58c.82-.36 1.4-1.09 1.57-1.97l1.67-8.77a2.7 2.7 0 0 1 3.64-2.01l8.32 3.26c.83.32 1.77.22 2.5-.28l7.39-5.02c1.4-.95 3.32-.4 3.99 1.15" class="cls-5eid2"/><path d="m395.45 662.19 2.54 5.8c.25.58.78 1 1.4 1.11l6.22 1.19c1.18.22 1.86 1.46 1.43 2.58l-2.31 5.9c-.23.59-.16 1.25.2 1.78l3.56 5.24c.67.99.28 2.35-.82 2.83l-5.8 2.54c-.58.25-1 .78-1.11 1.4l-1.19 6.22a1.918 1.918 0 0 1-2.58 1.43l-5.9-2.31c-.59-.23-1.25-.16-1.78.2l-5.24 3.56c-.99.67-2.35.28-2.83-.82l-2.54-5.8c-.25-.58-.78-1-1.4-1.11l-6.22-1.19a1.918 1.918 0 0 1-1.43-2.58l2.31-5.9c.23-.59.16-1.25-.2-1.78l-3.56-5.24c-.67-.99-.28-2.35.82-2.83l5.8-2.54c.58-.25 1-.78 1.11-1.4l1.19-6.22a1.918 1.918 0 0 1 2.58-1.43l5.9 2.31c.59.23 1.25.16 1.78-.2l5.24-3.56c.99-.67 2.35-.28 2.83.82" class="cls-5eid4"/><path d="M382.82 698.96s-.06-.02-.08-.03c-.82-.26-1.48-.87-1.8-1.68l-1.88-4.69s-.06-.09-.12-.1l-4.93-1.1c-.84-.19-1.55-.74-1.95-1.5-.39-.77-.43-1.66-.09-2.46l1.98-4.65c.02-.05.02-.11-.01-.15l-2.71-4.26a2.88 2.88 0 0 1-.31-2.44c.26-.82.88-1.48 1.68-1.8l4.69-1.88c.05-.02.09-.06.1-.12l1.1-4.93c.19-.84.74-1.55 1.5-1.95a2.94 2.94 0 0 1 2.46-.09l4.65 1.98c.05.02.11.02.15-.01l4.26-2.71c.73-.46 1.61-.59 2.44-.31.82.26 1.48.87 1.8 1.68l1.88 4.69s.06.09.12.1l4.93 1.1c.84.19 1.55.73 1.95 1.5.39.77.43 1.66.09 2.46l-1.98 4.65c-.02.05-.02.11.01.15l2.71 4.26c.46.73.58 1.62.31 2.44-.26.82-.87 1.48-1.68 1.8l-4.69 1.88c-.05.02-.09.06-.1.12l-1.1 4.93c-.19.84-.73 1.55-1.5 1.95-.77.39-1.66.43-2.46.09l-4.65-1.98s-.11-.02-.15.01l-4.26 2.71c-.7.45-1.56.57-2.35.34Zm-3.12-9.11c.85.25 1.55.87 1.88 1.7l1.88 4.69s.05.08.1.09c.05.02.1 0 .14-.02l4.26-2.71c.8-.51 1.81-.6 2.69-.22l4.65 1.98s.09.02.14 0 .07-.06.09-.11l1.1-4.93c.21-.93.86-1.7 1.74-2.06l4.69-1.88s.08-.05.1-.1 0-.09-.02-.14l-2.71-4.26c-.51-.81-.6-1.81-.22-2.69l1.98-4.64s.02-.09 0-.14-.06-.07-.11-.08l-4.93-1.1a2.92 2.92 0 0 1-2.06-1.74l-1.88-4.69s-.05-.08-.1-.09a.24.24 0 0 0-.14.02l-4.26 2.71c-.8.51-1.81.59-2.69.22l-4.65-1.98a.17.17 0 0 0-.14 0c-.05.02-.07.06-.09.11l-1.1 4.93c-.21.93-.86 1.7-1.74 2.06l-4.69 1.88s-.08.05-.1.1 0 .09.02.14l2.71 4.26c.51.81.6 1.81.22 2.69l-1.98 4.64s-.02.09 0 .14.06.07.11.09l4.93 1.1c.06.01.12.03.17.04Z" class="cls-5eid1"/><path d="M389.07 717.55c-.72-.21-1.38-.61-1.9-1.17l-7.18-7.67c-.49-.52-1.2-.77-1.9-.66l-10.39 1.59c-1.24.19-2.49-.18-3.43-1.01a4.18 4.18 0 0 1-1.41-3.28l.35-10.51c.02-.71-.3-1.39-.88-1.81l-8.47-6.22a4.22 4.22 0 0 1-1.71-3.14c-.07-1.25.41-2.46 1.32-3.32l7.67-7.18c.52-.49.77-1.2.66-1.9l-1.59-10.39c-.19-1.24.18-2.49 1.01-3.43s2.03-1.45 3.28-1.41l10.51.35c.71.02 1.39-.31 1.81-.88l6.22-8.47a4.22 4.22 0 0 1 3.14-1.71c1.25-.07 2.46.41 3.32 1.32l7.19 7.67c.49.52 1.2.77 1.9.66l10.39-1.59c1.24-.19 2.49.18 3.43 1.01s1.45 2.03 1.41 3.28l-.35 10.51c-.02.71.31 1.39.88 1.81l8.47 6.22c1.01.74 1.63 1.89 1.71 3.14.07 1.25-.41 2.46-1.32 3.32l-7.67 7.19c-.52.49-.77 1.2-.66 1.9l1.59 10.39c.19 1.24-.18 2.49-1.01 3.43s-2.03 1.45-3.28 1.41l-10.51-.35c-.71-.02-1.39.31-1.81.88l-6.22 8.47a4.22 4.22 0 0 1-3.14 1.71c-.49.03-.96-.03-1.42-.16Zm-9.5-11.4c.72.21 1.38.6 1.9 1.17l7.18 7.67c.44.47 1.06.72 1.7.68s1.23-.36 1.61-.88l6.22-8.47a4.18 4.18 0 0 1 3.53-1.71l10.51.35c.64.02 1.26-.24 1.68-.72.43-.48.62-1.12.52-1.76l-1.59-10.39c-.21-1.37.27-2.76 1.28-3.7l7.67-7.19c.47-.44.72-1.06.68-1.7s-.36-1.23-.88-1.61l-8.47-6.22a4.18 4.18 0 0 1-1.71-3.53l.35-10.51c.02-.64-.24-1.26-.72-1.68-.48-.43-1.12-.62-1.76-.52l-10.39 1.59c-1.37.21-2.76-.27-3.7-1.28l-7.19-7.67c-.44-.47-1.06-.72-1.7-.68s-1.23.36-1.61.88l-6.22 8.47a4.18 4.18 0 0 1-3.53 1.71l-10.51-.35c-.64-.02-1.26.24-1.68.72-.43.48-.62 1.12-.52 1.76l1.59 10.39c.21 1.37-.27 2.76-1.28 3.7l-7.67 7.18c-.47.44-.72 1.06-.68 1.7s.36 1.23.88 1.61l8.47 6.22c1.12.82 1.76 2.14 1.71 3.53l-.35 10.51c-.02.64.24 1.26.72 1.68.48.43 1.12.62 1.76.52l10.39-1.59c.61-.09 1.22-.05 1.8.12Zm-5.87-73.28c3.1-4.23 5.44-8.96 6.87-13.99 2.51 4.62 5.87 8.71 9.87 12.14-4.42-1.68-8.07-5.1-10.47-9.14l1.85-.21c-1.46 4.44-4.23 8.55-8.12 11.19Zm39.93 5.99c3.67-6.18 13.41-4.68 13.61 3.07.03 2.08-.74 4.09-2.05 5.51.56-1.85.77-3.67.45-5.36-1.08-6.11-7.63-6.44-12-3.22Z" class="cls-5eid1"/><path d="M414.4 642.13c2.16-5.09 9.81-5.05 8.83 1.48a6.47 6.47 0 0 1-2.08 3.57c1.65-6.62-.96-8.6-6.75-5.05m16.72 65.23c6.18 3.67 4.68 13.41-3.07 13.6-2.08.03-4.09-.74-5.51-2.05 1.85.57 3.67.77 5.36.45 6.11-1.08 6.44-7.63 3.22-12" class="cls-5eid1"/><path d="M427.85 708.12c5.09 2.16 5.05 9.81-1.49 8.83a6.47 6.47 0 0 1-3.57-2.08c6.62 1.65 8.6-.95 5.06-6.75m-65.73 16.07c-3.63 6.21-13.38 4.77-13.62-2.98-.05-2.08.71-4.09 2.02-5.52-.55 1.85-.74 3.68-.42 5.37 1.12 6.11 7.68 6.39 12.02 3.14Z" class="cls-5eid1"/><path d="M361.33 720.92c-2.13 5.11-9.77 5.11-8.84-1.43a6.4 6.4 0 0 1 2.06-3.58c-1.61 6.63 1.01 8.59 6.78 5.01m-16.64-64.85c-5.82-4.22-3.44-13.78 4.3-13.27 2.08.16 4 1.11 5.3 2.55-1.79-.73-3.59-1.1-5.3-.94-6.19.52-7.11 7.01-4.3 11.66" class="cls-5eid1"/><path d="M348.02 655.61c-4.87-2.62-4.13-10.23 2.28-8.66 1.4.43 2.57 1.29 3.36 2.4-6.44-2.25-8.65.17-5.65 6.26Zm87.56 14.69c4.78 2.16 9.89 3.48 15.1 3.84-4.01 3.41-7.31 7.54-9.84 12.16.73-4.67 3.33-8.95 6.78-12.13l.58 1.77c-4.65-.51-9.24-2.37-12.63-5.64Zm-96.83 24.52c-4.27-3.04-9.03-5.32-14.08-6.68 4.59-2.57 8.63-5.98 12-10.03-1.62 4.44-4.99 8.14-9 10.59l-.23-1.85c4.46 1.4 8.61 4.11 11.3 7.97Zm64.77 36.29c-.71.92-1.41 1.81-2.06 2.74-.66.91-1.26 1.85-1.84 2.8-1.13 1.91-2.11 3.88-2.9 5.94l-.81 2.12-1.05-2.02a36 36 0 0 0-1.67-2.86c-.59-.93-1.25-1.83-1.92-2.72a44 44 0 0 0-2.17-2.57c-.75-.85-1.57-1.65-2.39-2.48 1.08.45 2.08 1.06 3.05 1.72.96.68 1.87 1.43 2.71 2.27.85.82 1.62 1.73 2.33 2.68.7.96 1.33 1.97 1.88 3.02l-1.86.11c.85-2.2 2.03-4.28 3.51-6.11.73-.92 1.54-1.77 2.4-2.56.88-.77 1.8-1.49 2.8-2.07Zm1.02 73.29 6.98 15.97c.7 1.59 2.13 2.74 3.84 3.07l17.12 3.27c3.24.62 5.13 4.03 3.92 7.1l-6.35 16.23c-.63 1.62-.43 3.45.55 4.89l9.8 14.42c1.85 2.73.77 6.47-2.25 7.8l-15.97 6.98c-1.59.7-2.74 2.13-3.07 3.84l-3.27 17.12c-.62 3.24-4.03 5.13-7.1 3.92l-16.23-6.35a5.29 5.29 0 0 0-4.89.55l-14.42 9.8c-2.73 1.85-6.47.77-7.8-2.25l-6.98-15.97a5.29 5.29 0 0 0-3.84-3.07l-17.12-3.27c-3.24-.62-5.13-4.03-3.92-7.1l6.35-16.23c.63-1.62.43-3.45-.55-4.89l-9.8-14.42c-1.85-2.73-.77-6.47 2.25-7.8l15.97-6.98c1.59-.7 2.74-2.13 3.07-3.84l3.27-17.12c.62-3.24 4.03-5.13 7.1-3.92l16.23 6.35c1.62.63 3.45.43 4.89-.55l14.42-9.8c2.73-1.85 6.47-.77 7.8 2.25" class="cls-5eid1"/><path d="m401.67 812.2 5.96 13.63a4.5 4.5 0 0 0 3.28 2.62l14.61 2.79c2.77.53 4.37 3.44 3.35 6.06l-5.42 13.85c-.54 1.38-.37 2.94.47 4.17l8.36 12.3a4.5 4.5 0 0 1-1.92 6.65l-13.63 5.96a4.5 4.5 0 0 0-2.62 3.28l-2.79 14.61c-.53 2.77-3.44 4.37-6.06 3.35l-13.85-5.42a4.49 4.49 0 0 0-4.17.47l-12.3 8.36a4.5 4.5 0 0 1-6.65-1.92l-5.96-13.63a4.5 4.5 0 0 0-3.28-2.62l-14.61-2.79c-2.77-.53-4.37-3.44-3.35-6.06l5.42-13.85c.54-1.38.37-2.94-.47-4.17l-8.36-12.3a4.5 4.5 0 0 1 1.92-6.65l13.63-5.96a4.5 4.5 0 0 0 2.62-3.28l2.79-14.61c.53-2.77 3.44-4.37 6.06-3.35l13.85 5.42c1.38.54 2.94.37 4.17-.47l12.3-8.36a4.5 4.5 0 0 1 6.65 1.92" class="cls-5eid6"/><path d="m398.52 820.75 4.84 11.06a3.64 3.64 0 0 0 2.66 2.12l11.86 2.26c2.25.43 3.55 2.79 2.72 4.92l-4.4 11.24c-.44 1.12-.3 2.39.38 3.38l6.78 9.98c1.28 1.89.54 4.48-1.56 5.4l-11.06 4.84a3.64 3.64 0 0 0-2.12 2.66l-2.26 11.86a3.654 3.654 0 0 1-4.92 2.72l-11.24-4.4c-1.12-.44-2.39-.3-3.38.38l-9.98 6.78a3.654 3.654 0 0 1-5.4-1.56l-4.84-11.06a3.64 3.64 0 0 0-2.66-2.12l-11.86-2.26a3.654 3.654 0 0 1-2.72-4.92l4.4-11.24c.44-1.12.3-2.39-.38-3.38l-6.78-9.98a3.654 3.654 0 0 1 1.56-5.4l11.06-4.84a3.64 3.64 0 0 0 2.12-2.66l2.26-11.86a3.654 3.654 0 0 1 4.92-2.72l11.24 4.4c1.12.44 2.39.3 3.38-.38l9.98-6.78a3.654 3.654 0 0 1 5.4 1.56" class="cls-5eid3"/><path d="m395 830.34 3.58 8.18c.36.82 1.09 1.4 1.97 1.57l8.77 1.67a2.7 2.7 0 0 1 2.01 3.64l-3.26 8.32c-.32.83-.22 1.77.28 2.5l5.02 7.39c.95 1.4.4 3.32-1.15 3.99l-8.18 3.58c-.82.36-1.4 1.09-1.57 1.97l-1.67 8.77a2.7 2.7 0 0 1-3.64 2.01l-8.32-3.26c-.83-.32-1.77-.22-2.5.28l-7.39 5.02c-1.4.95-3.32.4-3.99-1.15l-3.58-8.18c-.36-.82-1.09-1.4-1.97-1.57l-8.77-1.67a2.7 2.7 0 0 1-2.01-3.64l3.26-8.32c.32-.83.22-1.77-.28-2.5l-5.02-7.39c-.95-1.4-.4-3.32 1.15-3.99l8.18-3.58c.82-.36 1.4-1.09 1.57-1.97l1.67-8.77a2.7 2.7 0 0 1 3.64-2.01l8.32 3.26c.83.32 1.77.22 2.5-.28l7.39-5.02c1.4-.95 3.32-.4 3.99 1.15" class="cls-5eid2"/><path d="m392.08 838.25 2.54 5.8c.25.58.78 1 1.4 1.11l6.22 1.19c1.18.22 1.86 1.46 1.43 2.58l-2.31 5.9c-.23.59-.16 1.25.2 1.78l3.56 5.24c.67.99.28 2.35-.82 2.83l-5.8 2.54c-.58.25-1 .78-1.11 1.4l-1.19 6.22a1.918 1.918 0 0 1-2.58 1.43l-5.9-2.31c-.59-.23-1.25-.16-1.78.2l-5.24 3.56c-.99.67-2.35.28-2.83-.82l-2.54-5.8c-.25-.58-.78-1-1.4-1.11l-6.22-1.19a1.918 1.918 0 0 1-1.43-2.58l2.31-5.9c.23-.59.16-1.25-.2-1.78l-3.56-5.24c-.67-.99-.28-2.35.82-2.83l5.8-2.54c.58-.25 1-.78 1.11-1.4l1.19-6.22a1.918 1.918 0 0 1 2.58-1.43l5.9 2.31c.59.23 1.25.16 1.78-.2l5.24-3.56c.99-.67 2.35-.28 2.83.82" class="cls-5eid4"/><path d="M379.46 875.02s-.06-.02-.08-.03c-.82-.26-1.48-.87-1.8-1.68l-1.88-4.69s-.06-.09-.12-.1l-4.93-1.1c-.84-.19-1.55-.74-1.95-1.5-.39-.77-.43-1.66-.09-2.46l1.98-4.65c.02-.05.02-.11-.01-.15l-2.71-4.26a2.88 2.88 0 0 1-.31-2.44c.26-.82.88-1.48 1.68-1.8l4.69-1.88c.05-.02.09-.06.1-.12l1.1-4.93c.19-.84.74-1.55 1.5-1.95a2.94 2.94 0 0 1 2.46-.09l4.65 1.98c.05.02.11.02.15-.01l4.26-2.71c.73-.46 1.61-.59 2.44-.31.82.26 1.48.87 1.8 1.68l1.88 4.69s.06.09.12.1l4.93 1.1c.84.19 1.55.73 1.95 1.5.39.77.43 1.66.09 2.46l-1.98 4.65c-.02.05-.02.11.01.15l2.71 4.26c.46.73.58 1.62.31 2.44-.26.82-.87 1.48-1.68 1.8l-4.69 1.88c-.05.02-.09.06-.1.12l-1.1 4.93c-.19.84-.73 1.55-1.5 1.95-.77.39-1.66.43-2.46.09l-4.65-1.98s-.11-.02-.15.01l-4.26 2.71c-.7.45-1.56.57-2.35.34Zm-3.12-9.11c.85.25 1.55.87 1.88 1.7l1.88 4.69s.05.08.1.09c.05.02.1 0 .14-.02l4.26-2.71c.8-.51 1.81-.6 2.69-.22l4.65 1.98s.09.02.14 0 .07-.06.09-.11l1.1-4.93c.21-.93.86-1.7 1.74-2.06l4.69-1.88s.08-.05.1-.1 0-.09-.02-.14l-2.71-4.26c-.51-.81-.6-1.81-.22-2.69l1.98-4.64s.02-.09 0-.14-.06-.07-.11-.08l-4.93-1.1a2.92 2.92 0 0 1-2.06-1.74l-1.88-4.69s-.05-.08-.1-.09a.24.24 0 0 0-.14.02l-4.26 2.71c-.8.51-1.81.59-2.69.22l-4.65-1.98a.17.17 0 0 0-.14 0c-.05.02-.07.06-.09.11l-1.1 4.93c-.21.93-.86 1.7-1.74 2.06l-4.69 1.88s-.08.05-.1.1 0 .09.02.14l2.71 4.26c.51.81.6 1.81.22 2.69l-1.98 4.64s-.02.09 0 .14.06.07.11.09l4.93 1.1c.06.01.12.03.17.04Z" class="cls-5eid1"/><path d="M385.71 893.61c-.72-.21-1.38-.61-1.9-1.17l-7.18-7.67c-.49-.52-1.2-.77-1.9-.66l-10.39 1.59c-1.24.19-2.49-.18-3.43-1.01a4.18 4.18 0 0 1-1.41-3.28l.35-10.51c.02-.71-.3-1.39-.88-1.81l-8.47-6.22a4.22 4.22 0 0 1-1.71-3.14c-.07-1.25.41-2.46 1.32-3.32l7.67-7.18c.52-.49.77-1.2.66-1.9l-1.59-10.39c-.19-1.24.18-2.49 1.01-3.43s2.03-1.45 3.28-1.41l10.51.35c.71.02 1.39-.31 1.81-.88l6.22-8.47a4.22 4.22 0 0 1 3.14-1.71c1.25-.07 2.46.41 3.32 1.32l7.19 7.67c.49.52 1.2.77 1.9.66l10.39-1.59c1.24-.19 2.49.18 3.43 1.01s1.45 2.03 1.41 3.28l-.35 10.51c-.02.71.31 1.39.88 1.81l8.47 6.22c1.01.74 1.63 1.89 1.71 3.14.07 1.25-.41 2.46-1.32 3.32l-7.67 7.19c-.52.49-.77 1.2-.66 1.9l1.59 10.39c.19 1.24-.18 2.49-1.01 3.43s-2.03 1.45-3.28 1.41l-10.51-.35c-.71-.02-1.39.31-1.81.88l-6.22 8.47a4.22 4.22 0 0 1-3.14 1.71c-.49.03-.96-.03-1.42-.16Zm-9.5-11.4c.72.21 1.38.6 1.9 1.17l7.18 7.67c.44.47 1.06.72 1.7.68s1.23-.36 1.61-.88l6.22-8.47a4.18 4.18 0 0 1 3.53-1.71l10.51.35c.64.02 1.26-.24 1.68-.72.43-.48.62-1.12.52-1.76l-1.59-10.39c-.21-1.37.27-2.76 1.28-3.7l7.67-7.19c.47-.44.72-1.06.68-1.7s-.36-1.23-.88-1.61l-8.47-6.22a4.18 4.18 0 0 1-1.71-3.53l.35-10.51c.02-.64-.24-1.26-.72-1.68-.48-.43-1.12-.62-1.76-.52l-10.39 1.59c-1.37.21-2.76-.27-3.7-1.28l-7.19-7.67c-.44-.47-1.06-.72-1.7-.68s-1.23.36-1.61.88l-6.22 8.47a4.18 4.18 0 0 1-3.53 1.71l-10.51-.35c-.64-.02-1.26.24-1.68.72-.43.48-.62 1.12-.52 1.76l1.59 10.39c.21 1.37-.27 2.76-1.28 3.7l-7.67 7.18c-.47.44-.72 1.06-.68 1.7s.36 1.23.88 1.61l8.47 6.22c1.12.82 1.76 2.14 1.71 3.53l-.35 10.51c-.02.64.24 1.26.72 1.68.48.43 1.12.62 1.76.52l10.39-1.59c.61-.09 1.22-.05 1.8.12Zm-5.88-73.28c3.1-4.23 5.44-8.96 6.87-13.99 2.51 4.62 5.87 8.71 9.87 12.14-4.42-1.68-8.07-5.1-10.47-9.14l1.85-.21c-1.46 4.44-4.23 8.55-8.12 11.19Zm39.94 5.99c3.67-6.18 13.41-4.68 13.61 3.07.03 2.08-.74 4.09-2.05 5.51.56-1.85.77-3.67.45-5.36-1.08-6.11-7.63-6.44-12-3.22Z" class="cls-5eid1"/><path d="M411.03 818.19c2.16-5.09 9.81-5.05 8.83 1.48a6.47 6.47 0 0 1-2.08 3.57c1.65-6.62-.96-8.6-6.75-5.05m16.72 65.23c6.18 3.67 4.68 13.41-3.07 13.6-2.08.03-4.09-.74-5.51-2.05 1.85.57 3.67.77 5.36.45 6.11-1.08 6.44-7.63 3.22-12" class="cls-5eid1"/><path d="M424.48 884.18c5.09 2.16 5.05 9.81-1.49 8.83a6.47 6.47 0 0 1-3.57-2.08c6.62 1.65 8.6-.95 5.06-6.75m-65.73 16.07c-3.63 6.21-13.38 4.77-13.62-2.98-.05-2.08.71-4.09 2.02-5.52-.55 1.85-.74 3.68-.42 5.37 1.12 6.11 7.68 6.39 12.02 3.14Z" class="cls-5eid1"/><path d="M357.97 896.98c-2.13 5.11-9.77 5.11-8.84-1.43a6.4 6.4 0 0 1 2.06-3.58c-1.61 6.63 1.01 8.59 6.78 5.01m-16.64-64.85c-5.82-4.22-3.44-13.78 4.3-13.27 2.08.16 4 1.11 5.3 2.55-1.79-.73-3.59-1.1-5.3-.94-6.19.52-7.11 7.01-4.3 11.66" class="cls-5eid1"/><path d="M344.66 831.67c-4.87-2.62-4.13-10.23 2.28-8.66 1.4.43 2.57 1.29 3.36 2.4-6.44-2.25-8.65.17-5.65 6.26Zm87.56 14.69c4.78 2.16 9.89 3.48 15.1 3.84-4.01 3.41-7.31 7.54-9.84 12.16.73-4.67 3.33-8.95 6.78-12.13l.58 1.77c-4.65-.51-9.24-2.37-12.63-5.64Zm-96.84 24.52c-4.27-3.04-9.03-5.32-14.08-6.68 4.59-2.57 8.63-5.98 12-10.03-1.62 4.44-4.99 8.14-9 10.59l-.23-1.85c4.46 1.4 8.61 4.11 11.3 7.97Zm64.77 36.29c-.71.92-1.41 1.81-2.06 2.74-.66.91-1.26 1.85-1.84 2.8-1.13 1.91-2.11 3.88-2.9 5.94l-.81 2.12-1.05-2.02a36 36 0 0 0-1.67-2.86c-.59-.93-1.25-1.83-1.92-2.72a44 44 0 0 0-2.17-2.57c-.75-.85-1.57-1.65-2.39-2.48 1.08.45 2.08 1.06 3.05 1.72.96.68 1.87 1.43 2.71 2.27.85.82 1.62 1.73 2.33 2.68.7.96 1.33 1.97 1.88 3.02l-1.86.11c.85-2.2 2.03-4.28 3.51-6.11.73-.92 1.54-1.77 2.4-2.56.88-.77 1.8-1.49 2.8-2.07Zm615.76-475.27 8.69 14.22a5.06 5.06 0 0 0 4.04 2.41l16.64.87c3.15.17 5.38 3.15 4.64 6.22l-3.91 16.2c-.39 1.62.04 3.32 1.15 4.56l11.15 12.38c2.11 2.34 1.57 6.03-1.12 7.67l-14.22 8.69a5.06 5.06 0 0 0-2.41 4.04l-.87 16.64c-.17 3.15-3.15 5.38-6.22 4.64l-16.2-3.91c-1.62-.39-3.32.04-4.56 1.15l-12.38 11.15c-2.34 2.11-6.03 1.57-7.67-1.12l-8.69-14.22a5.06 5.06 0 0 0-4.04-2.41l-16.64-.87c-3.15-.17-5.38-3.15-4.64-6.22l3.91-16.2c.39-1.62-.04-3.32-1.15-4.56l-11.15-12.38c-2.11-2.34-1.57-6.03 1.12-7.67l14.22-8.69a5.06 5.06 0 0 0 2.41-4.04l.87-16.64c.17-3.15 3.15-5.38 6.22-4.64l16.2 3.91c1.62.39 3.32-.04 4.56-1.15l12.38-11.15c2.34-2.11 6.03-1.57 7.67 1.12" class="cls-5eid1"/><path d="m1014.2 439.66 7.41 12.13a4.3 4.3 0 0 0 3.45 2.05l14.2.74c2.69.14 4.59 2.69 3.96 5.31l-3.34 13.82c-.33 1.38.04 2.83.98 3.89l9.51 10.57c1.8 2 1.34 5.15-.95 6.55l-12.13 7.41a4.3 4.3 0 0 0-2.05 3.45l-.74 14.2c-.14 2.69-2.69 4.59-5.31 3.96l-13.82-3.34c-1.38-.33-2.83.04-3.89.98l-10.57 9.51c-2 1.8-5.15 1.34-6.55-.95l-7.41-12.13a4.3 4.3 0 0 0-3.45-2.05l-14.2-.74c-2.69-.14-4.59-2.69-3.96-5.31l3.34-13.82c.33-1.38-.04-2.83-.98-3.89l-9.51-10.57c-1.8-2-1.34-5.15.95-6.55l12.13-7.41a4.3 4.3 0 0 0 2.05-3.45l.74-14.2c.14-2.69 2.69-4.59 5.31-3.96l13.82 3.34c1.38.33 2.83-.04 3.89-.98l10.57-9.51c2-1.8 5.15-1.34 6.55.95" class="cls-5eid6"/><path d="m1012.33 448.16 6.02 9.85c.6.98 1.65 1.61 2.8 1.67l11.52.6c2.18.11 3.72 2.18 3.21 4.31l-2.71 11.22c-.27 1.12.03 2.3.8 3.16l7.72 8.57c1.46 1.62 1.09 4.18-.77 5.31l-9.85 6.02c-.98.6-1.61 1.65-1.67 2.8l-.6 11.52c-.11 2.18-2.18 3.72-4.31 3.21l-11.22-2.71c-1.12-.27-2.3.03-3.16.8l-8.57 7.72c-1.62 1.46-4.18 1.09-5.31-.77l-6.02-9.85c-.6-.98-1.65-1.61-2.8-1.67l-11.52-.6c-2.18-.11-3.72-2.18-3.21-4.31l2.71-11.22c.27-1.12-.03-2.3-.8-3.16l-7.72-8.57c-1.46-1.62-1.09-4.18.77-5.31l9.85-6.02c.98-.6 1.61-1.65 1.67-2.8l.6-11.52c.11-2.18 2.18-3.72 4.31-3.21l11.22 2.71c1.12.27 2.3-.03 3.16-.8l8.57-7.72c1.62-1.46 4.18-1.09 5.31.77" class="cls-5eid3"/><path d="m1010.24 457.7 4.45 7.28c.44.73 1.22 1.19 2.07 1.23l8.52.45c1.61.08 2.75 1.61 2.38 3.19l-2 8.3c-.2.83.02 1.7.59 2.33l5.71 6.34a2.58 2.58 0 0 1-.57 3.93l-7.28 4.45c-.73.44-1.19 1.22-1.23 2.07l-.45 8.52c-.08 1.61-1.61 2.75-3.19 2.38l-8.3-2c-.83-.2-1.7.02-2.33.59l-6.34 5.71a2.58 2.58 0 0 1-3.93-.57l-4.45-7.28a2.56 2.56 0 0 0-2.07-1.23l-8.52-.45c-1.61-.08-2.75-1.61-2.38-3.19l2-8.3c.2-.83-.02-1.7-.59-2.33l-5.71-6.34a2.58 2.58 0 0 1 .57-3.93l7.28-4.45c.73-.44 1.19-1.22 1.23-2.07l.45-8.52c.08-1.61 1.61-2.75 3.19-2.38l8.3 2c.83.2 1.7-.02 2.33-.59l6.34-5.71a2.58 2.58 0 0 1 3.93.57" class="cls-5eid2"/><path d="m1008.51 465.57 3.16 5.17c.31.52.86.84 1.47.87l6.05.32c1.14.06 1.95 1.15 1.68 2.26l-1.42 5.89c-.14.59.02 1.21.42 1.66l4.05 4.5c.77.85.57 2.19-.41 2.79l-5.17 3.16a1.8 1.8 0 0 0-.87 1.47l-.32 6.05a1.833 1.833 0 0 1-2.26 1.68l-5.89-1.42c-.59-.14-1.21.02-1.66.42l-4.5 4.05c-.85.77-2.19.57-2.79-.41l-3.16-5.17a1.8 1.8 0 0 0-1.47-.87l-6.05-.32a1.833 1.833 0 0 1-1.68-2.26l1.42-5.89c.14-.59-.02-1.21-.42-1.66l-4.05-4.5a1.83 1.83 0 0 1 .41-2.79l5.17-3.16c.52-.31.84-.86.87-1.47l.32-6.05a1.833 1.833 0 0 1 2.26-1.68l5.89 1.42c.59.14 1.21-.02 1.66-.42l4.5-4.05a1.83 1.83 0 0 1 2.79.41" class="cls-5eid4"/><path d="M1001.33 502.03s-.06 0-.08-.01c-.81-.14-1.51-.64-1.92-1.35l-2.39-4.19s-.07-.07-.12-.08l-4.81-.4c-.82-.07-1.57-.5-2.04-1.17-.47-.68-.62-1.52-.4-2.31l1.27-4.66c.01-.05 0-.1-.03-.14l-3.12-3.68a2.75 2.75 0 0 1-.61-2.27c.14-.81.64-1.51 1.35-1.92l4.19-2.39s.07-.07.08-.12l.4-4.81a2.76 2.76 0 0 1 3.48-2.44l4.66 1.27c.05.01.1 0 .14-.03l3.68-3.12c.63-.53 1.45-.77 2.27-.61.81.14 1.51.64 1.92 1.35l2.39 4.19s.07.08.12.08l4.81.4c.82.07 1.56.49 2.04 1.17.47.68.62 1.52.4 2.32s-1.27 4.66-1.27 4.66c-.01.05 0 .1.03.14l3.12 3.68c.53.63.76 1.46.61 2.27-.14.81-.64 1.51-1.35 1.92l-4.19 2.39s-.07.07-.08.12l-.4 4.81a2.77 2.77 0 0 1-1.17 2.04c-.68.47-1.52.62-2.32.4l-4.66-1.27s-.1 0-.14.03l-3.68 3.12c-.61.51-1.4.74-2.18.63Zm-4.13-8.22c.84.12 1.58.62 2 1.37l2.39 4.19s.06.07.11.08.09 0 .13-.03l3.68-3.12c.7-.59 1.64-.8 2.52-.56l4.66 1.27s.09 0 .13-.02c.04-.03.06-.07.07-.12l.4-4.81c.08-.91.59-1.72 1.38-2.17l4.19-2.39s.07-.06.08-.11c0-.05 0-.09-.03-.13l-3.12-3.68c-.59-.7-.8-1.64-.56-2.52l1.27-4.66s0-.09-.02-.13a.16.16 0 0 0-.11-.07l-4.81-.4c-.91-.08-1.72-.59-2.17-1.38l-2.39-4.19s-.06-.07-.11-.08c-.04 0-.09 0-.13.03l-3.68 3.12c-.69.59-1.64.8-2.52.56l-4.66-1.27s-.09 0-.13.02c-.04.03-.06.07-.07.12l-.4 4.81c-.08.91-.59 1.72-1.38 2.17l-4.19 2.39s-.07.06-.08.11c0 .05 0 .09.03.13l3.12 3.68c.59.7.8 1.64.56 2.52l-1.27 4.66s0 .09.02.13c.03.04.06.06.12.07l4.81.4c.06 0 .11.01.17.02Z" class="cls-5eid1"/><path d="M1009.66 518.82c-.71-.1-1.38-.39-1.95-.86l-7.8-6.33c-.53-.43-1.23-.57-1.89-.38l-9.63 2.85c-1.15.34-2.38.15-3.38-.51-1-.67-1.64-1.73-1.76-2.92l-1.04-9.99c-.07-.68-.47-1.27-1.07-1.6l-8.83-4.79a4.022 4.022 0 0 1-1.2-6.06l6.33-7.8c.43-.53.57-1.23.38-1.89l-2.85-9.63c-.34-1.15-.15-2.38.51-3.38.67-1 1.73-1.64 2.93-1.76l9.99-1.04c.68-.07 1.27-.47 1.6-1.07l4.8-8.83a4.022 4.022 0 0 1 6.06-1.2l7.8 6.33c.53.43 1.23.57 1.89.38l9.63-2.85c1.15-.34 2.38-.15 3.38.51 1 .67 1.64 1.73 1.76 2.92l1.04 9.99c.07.68.47 1.27 1.07 1.6l8.83 4.79a4.022 4.022 0 0 1 1.2 6.06l-6.33 7.8c-.43.53-.57 1.23-.38 1.89l2.85 9.63c.34 1.15.15 2.38-.51 3.38-.67 1-1.73 1.64-2.93 1.76l-9.99 1.04c-.68.07-1.27.47-1.6 1.07l-4.8 8.83a3.99 3.99 0 0 1-2.75 2.02c-.46.09-.92.1-1.36.04m-10.47-9.57c.71.1 1.38.39 1.95.86l7.8 6.33a2.058 2.058 0 0 0 3.11-.62l4.8-8.83c.63-1.16 1.8-1.94 3.12-2.08l9.99-1.04c.61-.06 1.16-.39 1.5-.9s.44-1.14.26-1.73l-2.85-9.63a4.01 4.01 0 0 1 .73-3.67l6.33-7.8a2.058 2.058 0 0 0-.62-3.11l-8.83-4.79a4.04 4.04 0 0 1-2.08-3.12l-1.04-9.99c-.06-.61-.39-1.16-.9-1.5s-1.14-.44-1.73-.26l-9.63 2.85c-1.27.38-2.64.1-3.67-.73l-7.8-6.33a2.058 2.058 0 0 0-3.11.62l-4.8 8.83a4.04 4.04 0 0 1-3.12 2.08l-9.99 1.04c-.61.06-1.16.39-1.5.9s-.44 1.14-.26 1.73l2.85 9.63c.38 1.27.1 2.64-.73 3.67l-6.33 7.8a2.058 2.058 0 0 0 .62 3.11l8.83 4.79c1.17.63 1.94 1.8 2.08 3.12l1.04 9.99c.06.61.39 1.16.9 1.5s1.14.44 1.73.26l9.63-2.85c.57-.17 1.15-.21 1.72-.12Zm-15.09-68.63c2.39-4.41 3.99-9.19 4.69-14.14 2.98 4.05 6.69 7.49 10.92 10.21-4.4-1.02-8.31-3.78-11.1-7.29l1.73-.44c-.8 4.4-2.9 8.65-6.24 11.65Zm38.6.49c2.68-6.33 12.09-6.18 13.28 1.14.3 1.97-.17 3.97-1.23 5.48.29-1.82.25-3.58-.27-5.14-1.82-5.65-8.07-5.11-11.78-1.49Z" class="cls-5eid1"/><path d="M1023.85 444.11c1.39-5.1 8.63-6.05 8.56.26-.1 1.4-.65 2.67-1.51 3.65.71-6.48-2.02-8.02-7.05-3.91m24.3 59.6c6.33 2.68 6.17 12.09-1.14 13.28-1.97.3-3.97-.17-5.48-1.23 1.82.3 3.58.25 5.14-.27 5.65-1.81 5.11-8.06 1.49-11.78Z" class="cls-5eid1"/><path d="M1045.15 504.86c5.1 1.39 6.05 8.63-.26 8.56-1.4-.1-2.67-.65-3.65-1.51 6.48.71 8.02-2.02 3.91-7.05m-60.16 23.75c-2.63 6.35-12.05 6.25-13.29-1.05-.31-1.97.14-3.97 1.19-5.49-.28 1.82-.22 3.58.3 5.13 1.85 5.64 8.1 5.06 11.79 1.41Z" class="cls-5eid1"/><path d="M983.82 525.62c-1.35 5.11-8.59 6.11-8.56-.2.09-1.4.63-2.68 1.48-3.66-.66 6.48 2.07 8.01 7.07 3.86Zm-24.17-59.26c-6.06-3.24-5.05-12.6 2.35-13.12 1.99-.12 3.93.53 5.35 1.72-1.79-.46-3.54-.57-5.14-.2-5.79 1.29-5.82 7.57-2.56 11.6" class="cls-5eid1"/><path d="M962.74 465.49c-4.95-1.84-5.24-9.15 1.04-8.5 1.38.22 2.6.89 3.5 1.83-6.39-1.29-8.17 1.28-4.54 6.66Zm84.83 2.55c4.8 1.42 9.81 2.01 14.8 1.67-3.35 3.75-5.95 8.09-7.74 12.79.09-4.52 1.99-8.91 4.85-12.37l.78 1.6c-4.47.12-9.06-1.05-12.69-3.7Zm-88.52 35.79c-4.44-2.33-9.24-3.87-14.2-4.5 4.01-3.03 7.4-6.78 10.06-11.06-.96 4.42-3.67 8.36-7.14 11.2l-.46-1.72c4.41.75 8.69 2.78 11.74 6.08m66.04 25.96c-.55.96-1.1 1.9-1.59 2.86-.51.95-.96 1.92-1.38 2.89-.83 1.96-1.5 3.95-1.97 6l-.49 2.11-1.26-1.77c-.61-.86-1.26-1.69-1.95-2.5-.68-.81-1.42-1.57-2.17-2.33-.76-.74-1.56-1.47-2.39-2.15-.82-.71-1.7-1.35-2.58-2.04 1.08.29 2.11.73 3.11 1.23.99.52 1.96 1.11 2.86 1.79.91.67 1.76 1.43 2.55 2.24s1.51 1.69 2.17 2.62l-1.75.34c.52-2.2 1.36-4.32 2.53-6.24.57-.97 1.23-1.88 1.94-2.73.73-.84 1.51-1.64 2.38-2.32Z" class="cls-5eid1"/><circle cx="976.53" cy="717.72" r="53.39" class="cls-5eid6"/><circle cx="984.9" cy="721.18" r="43.58" class="cls-5eid3"/><circle cx="992.16" cy="724.76" r="30.8" class="cls-5eid2"/><circle cx="995.77" cy="724.76" r="12.29" class="cls-5eid4"/><path d="m963.22 289.52 18.53 22.31a8.76 8.76 0 0 0 7.56 3.13l28.88-2.67c5.47-.51 10.05 4.08 9.55 9.55l-2.67 28.88a8.76 8.76 0 0 0 3.13 7.56l22.31 18.53c4.22 3.51 4.22 9.99 0 13.5l-22.31 18.53a8.76 8.76 0 0 0-3.13 7.56l2.67 28.88c.51 5.47-4.08 10.05-9.55 9.55l-28.88-2.67a8.76 8.76 0 0 0-7.56 3.13l-18.53 22.31c-3.51 4.22-9.99 4.22-13.5 0l-18.53-22.31a8.76 8.76 0 0 0-7.56-3.13l-28.88 2.67c-5.47.51-10.05-4.08-9.55-9.55l2.67-28.88a8.76 8.76 0 0 0-3.13-7.56l-22.31-18.53c-4.22-3.51-4.22-9.99 0-13.5l22.31-18.53a8.76 8.76 0 0 0 3.13-7.56l-2.67-28.88c-.51-5.47 4.08-10.05 9.55-9.55l28.88 2.67c2.88.27 5.71-.9 7.56-3.13l18.53-22.31c3.51-4.22 9.99-4.22 13.5 0" class="cls-5eid1"/><path d="m962.23 303.31 15.81 19.04a7.48 7.48 0 0 0 6.45 2.67l24.64-2.28c4.67-.43 8.58 3.48 8.15 8.15l-2.28 24.64a7.48 7.48 0 0 0 2.67 6.45l19.04 15.81c3.6 2.99 3.6 8.53 0 11.52l-19.04 15.81a7.48 7.48 0 0 0-2.67 6.45l2.28 24.64c.43 4.67-3.48 8.58-8.15 8.15l-24.64-2.28a7.48 7.48 0 0 0-6.45 2.67l-15.81 19.04c-2.99 3.6-8.53 3.6-11.52 0l-15.81-19.04a7.48 7.48 0 0 0-6.45-2.67l-24.64 2.28c-4.67.43-8.58-3.48-8.15-8.15l2.28-24.64a7.48 7.48 0 0 0-2.67-6.45l-19.04-15.81c-3.6-2.99-3.6-8.53 0-11.52l19.04-15.81a7.48 7.48 0 0 0 2.67-6.45l-2.28-24.64c-.43-4.67 3.48-8.58 8.15-8.15l24.64 2.28a7.48 7.48 0 0 0 6.45-2.67l15.81-19.04c2.99-3.6 8.53-3.6 11.52 0" class="cls-5eid6"/><path d="m961.15 318.43 12.83 15.45a6.09 6.09 0 0 0 5.23 2.17l20-1.85c3.79-.35 6.96 2.82 6.61 6.61l-1.85 20c-.18 2 .63 3.95 2.17 5.23l15.45 12.83c2.93 2.43 2.93 6.92 0 9.35l-15.45 12.83a6.09 6.09 0 0 0-2.17 5.23l1.85 20c.35 3.79-2.82 6.96-6.61 6.61l-20-1.85c-2-.18-3.95.63-5.23 2.17l-12.83 15.45c-2.43 2.93-6.92 2.93-9.35 0l-12.83-15.45a6.09 6.09 0 0 0-5.23-2.17l-20 1.85c-3.79.35-6.96-2.82-6.61-6.61l1.85-20c.18-2-.63-3.95-2.17-5.23l-15.45-12.83c-2.93-2.43-2.93-6.92 0-9.35l15.45-12.83a6.09 6.09 0 0 0 2.17-5.23l-1.85-20c-.35-3.79 2.82-6.96 6.61-6.61l20 1.85c2 .18 3.95-.63 5.23-2.17l12.83-15.45c2.43-2.93 6.92-2.93 9.35 0" class="cls-5eid3"/><path d="m959.93 335.37 9.49 11.43a4.49 4.49 0 0 0 3.87 1.6l14.79-1.37c2.8-.26 5.15 2.09 4.89 4.89l-1.37 14.79c-.14 1.48.46 2.93 1.6 3.87l11.43 9.49a4.505 4.505 0 0 1 0 6.92l-11.43 9.49a4.49 4.49 0 0 0-1.6 3.87l1.37 14.79c.26 2.8-2.09 5.15-4.89 4.89l-14.79-1.37c-1.48-.14-2.93.46-3.87 1.6l-9.49 11.43a4.505 4.505 0 0 1-6.92 0l-9.49-11.43a4.49 4.49 0 0 0-3.87-1.6l-14.79 1.37c-2.8.26-5.15-2.09-4.89-4.89l1.37-14.79c.14-1.48-.46-2.93-1.6-3.87l-11.43-9.49a4.505 4.505 0 0 1 0-6.92l11.43-9.49a4.49 4.49 0 0 0 1.6-3.87l-1.37-14.79a4.495 4.495 0 0 1 4.89-4.89l14.79 1.37c1.48.14 2.93-.46 3.87-1.6l9.49-11.43a4.505 4.505 0 0 1 6.92 0" class="cls-5eid2"/><path d="m958.93 349.38 6.73 8.11c.67.81 1.7 1.23 2.75 1.14l10.49-.97a3.19 3.19 0 0 1 3.47 3.47l-.97 10.49c-.1 1.05.33 2.07 1.14 2.75l8.11 6.73a3.187 3.187 0 0 1 0 4.91l-8.11 6.73c-.81.67-1.23 1.7-1.14 2.75l.97 10.49a3.19 3.19 0 0 1-3.47 3.47l-10.49-.97c-1.05-.1-2.07.33-2.75 1.14l-6.73 8.11a3.187 3.187 0 0 1-4.91 0l-6.73-8.11c-.67-.81-1.7-1.23-2.75-1.14l-10.49.97a3.19 3.19 0 0 1-3.47-3.47l.97-10.49c.1-1.05-.33-2.07-1.14-2.75l-8.11-6.73a3.187 3.187 0 0 1 0-4.91l8.11-6.73c.81-.67 1.23-1.7 1.14-2.75l-.97-10.49a3.19 3.19 0 0 1 3.47-3.47l10.49.97c1.05.1 2.07-.33 2.75-1.14l6.73-8.11a3.187 3.187 0 0 1 4.91 0" class="cls-5eid4"/><path d="M955.7 413.97h-.15a4.82 4.82 0 0 1-3.65-1.85l-5.17-6.62a.26.26 0 0 0-.23-.1l-8.39.52c-1.44.08-2.82-.46-3.8-1.51a4.8 4.8 0 0 1-1.27-3.89l1.03-8.34a.27.27 0 0 0-.09-.24l-6.3-5.56a4.8 4.8 0 0 1-1.63-3.75c.04-1.43.72-2.76 1.85-3.65l6.62-5.17c.07-.05.11-.14.1-.23l-.52-8.39c-.09-1.43.46-2.82 1.51-3.8a4.81 4.81 0 0 1 3.89-1.27l8.34 1.03c.09.01.18-.02.24-.09l5.56-6.3c.95-1.08 2.3-1.68 3.75-1.63a4.8 4.8 0 0 1 3.65 1.85l5.17 6.62c.06.07.14.11.23.1l8.39-.52a4.802 4.802 0 0 1 5.07 5.39s-1.03 8.34-1.03 8.34c-.01.09.02.18.09.24l6.3 5.56c1.08.95 1.67 2.32 1.63 3.75a4.79 4.79 0 0 1-1.85 3.65l-6.62 5.17c-.07.06-.11.14-.1.23l.52 8.39a4.802 4.802 0 0 1-5.39 5.07l-8.34-1.03c-.09 0-.18.02-.24.09l-5.56 6.3a4.8 4.8 0 0 1-3.61 1.63Zm-9.18-13.12a4.8 4.8 0 0 1 3.79 1.85l5.17 6.62c.05.07.12.1.21.1s.16-.03.21-.09l5.56-6.3a4.8 4.8 0 0 1 4.2-1.59l8.34 1.03c.08 0 .16-.01.22-.07s.09-.13.09-.22l-.52-8.39c-.1-1.59.59-3.11 1.84-4.09l6.62-5.17c.07-.05.1-.12.11-.21 0-.08-.03-.16-.09-.21l-6.3-5.56a4.8 4.8 0 0 1-1.59-4.2l1.02-8.34a.26.26 0 0 0-.07-.22.25.25 0 0 0-.21-.08l-8.39.52c-1.58.1-3.11-.59-4.09-1.84l-5.17-6.62c-.05-.07-.12-.1-.21-.1-.07 0-.16.03-.21.09l-5.56 6.3a4.79 4.79 0 0 1-4.19 1.59l-8.34-1.03c-.09 0-.16.01-.22.07s-.09.13-.09.22l.52 8.39c.1 1.58-.59 3.11-1.84 4.09l-6.62 5.17c-.07.05-.1.12-.11.21 0 .08.03.16.09.21l6.3 5.56a4.8 4.8 0 0 1 1.59 4.2l-1.02 8.34c-.01.08.01.16.07.22s.13.09.22.09l8.39-.52h.3Z" class="cls-5eid1"/><path d="M974.27 440.81c-1.24 0-2.48-.33-3.58-.99l-15.02-8.95a3.6 3.6 0 0 0-3.34-.18l-15.88 7.33c-1.89.88-4.06.86-5.94-.04a6.97 6.97 0 0 1-3.77-4.6l-4.29-16.96a3.59 3.59 0 0 0-2.24-2.49l-16.41-6.04a6.98 6.98 0 0 1-4.18-4.23c-.7-1.97-.48-4.12.58-5.92l8.95-15.03c.61-1.02.67-2.27.18-3.34L902 363.49c-.88-1.89-.86-4.06.04-5.94s2.57-3.26 4.6-3.77l16.95-4.29a3.59 3.59 0 0 0 2.49-2.24l6.04-16.41a6.98 6.98 0 0 1 4.23-4.18c1.97-.7 4.12-.48 5.91.58l15.03 8.95c1.02.61 2.27.67 3.34.18l15.88-7.33c1.89-.88 4.06-.86 5.94.04s3.26 2.57 3.77 4.6l4.29 16.96a3.59 3.59 0 0 0 2.24 2.49l16.41 6.04c1.96.72 3.48 2.26 4.18 4.23s.48 4.12-.58 5.91l-8.95 15.03a3.6 3.6 0 0 0-.18 3.34l7.33 15.88c.88 1.89.86 4.06-.04 5.94a6.97 6.97 0 0 1-4.6 3.77l-16.95 4.29a3.59 3.59 0 0 0-2.49 2.24l-6.04 16.41a6.98 6.98 0 0 1-4.23 4.18c-.76.27-1.55.4-2.34.4Zm-20.44-13.85c1.24 0 2.48.33 3.58.99l15.02 8.95c.92.55 2.03.66 3.04.3a3.59 3.59 0 0 0 2.17-2.14l6.04-16.41c.8-2.17 2.61-3.8 4.85-4.36l16.95-4.29c1.04-.26 1.9-.97 2.36-1.93.46-.97.47-2.08.02-3.05l-7.33-15.88c-.97-2.1-.84-4.53.34-6.51l8.95-15.03c.55-.92.66-2.03.3-3.03a3.59 3.59 0 0 0-2.14-2.17l-16.41-6.04a6.99 6.99 0 0 1-4.36-4.85l-4.29-16.96c-.26-1.04-.97-1.9-1.93-2.36-.97-.46-2.08-.47-3.05-.02l-15.88 7.33c-2.1.97-4.53.84-6.51-.34l-15.03-8.95c-.92-.55-2.03-.66-3.03-.3a3.59 3.59 0 0 0-2.17 2.14l-6.04 16.41c-.8 2.17-2.61 3.8-4.85 4.36l-16.95 4.29c-1.04.26-1.9.97-2.36 1.93-.46.97-.47 2.08-.02 3.05l7.33 15.88c.97 2.1.84 4.53-.34 6.51l-8.95 15.02c-.55.92-.66 2.03-.3 3.04a3.59 3.59 0 0 0 2.14 2.17l16.41 6.04c2.17.8 3.8 2.61 4.36 4.85l4.29 16.95c.26 1.04.97 1.9 1.93 2.36.97.46 2.08.47 3.05.02l15.88-7.33c.93-.43 1.93-.64 2.93-.64m-43.2-114.43c3-8.19 4.57-16.83 4.53-25.53 6.15 6.23 13.39 11.22 21.37 14.85-7.84-.65-15.26-4.43-20.95-9.78l2.87-1.18c-.28 7.78-2.82 15.62-7.81 21.64Zm66.6-8.84c3.02-11.58 19.28-13.67 23.16-1.37 1.01 3.31.71 6.87-.74 9.76.05-3.21-.47-6.23-1.75-8.78-4.55-9.27-15.17-6.78-20.67.39" class="cls-5eid1"/><path d="M979.96 308.56c1.11-9.14 13.35-12.59 14.8-1.7a10.7 10.7 0 0 1-1.68 6.67c-.41-11.34-5.5-13.31-13.12-4.97m56.82 96.56c11.58 3.02 13.67 19.28 1.36 23.16-3.31 1.01-6.87.7-9.76-.74 3.21.05 6.23-.47 8.78-1.75 9.28-4.54 6.78-15.17-.39-20.67Z" class="cls-5eid1"/><path d="M1031.9 407.85c9.13 1.11 12.59 13.35 1.7 14.8a10.7 10.7 0 0 1-6.67-1.68c11.34-.41 13.31-5.49 4.97-13.12m-97.66 56c-2.94 11.6-19.19 13.8-23.15 1.52-1.03-3.31-.75-6.87.68-9.76-.03 3.21.51 6.22 1.81 8.77 4.61 9.24 15.22 6.68 20.67-.53Z" class="cls-5eid1"/><path d="M931.48 459c-1.05 9.14-13.27 12.68-14.79 1.8-.2-2.43.41-4.77 1.64-6.68.48 11.34 5.58 13.27 13.16 4.88Zm-56.51-96c-11.25-4.06-11.86-20.44.75-23.19 3.39-.7 6.91-.08 9.65 1.63-3.19-.34-6.24-.1-8.9.94-9.65 3.68-8.13 14.49-1.49 20.62Z" class="cls-5eid1"/><path d="M880.07 360.72c-9-1.93-11.32-14.44-.34-14.9 2.44.04 4.7.88 6.48 2.28-11.33-.63-13.75 4.26-6.14 12.62m146.75-16.9c8.63 1.25 17.41 1 25.91-.83-4.83 7.3-8.22 15.42-10.12 23.98-.98-7.8 1.19-15.84 5.25-22.52l1.75 2.56c-7.67 1.33-15.87.47-22.79-3.18Zm-143.49 83.87c-8.23-2.89-16.89-4.34-25.59-4.19 6.15-6.23 11.04-13.54 14.56-21.57-.54 7.85-4.22 15.31-9.5 21.08l-1.22-2.85c7.78.18 15.66 2.61 21.74 7.52Zm120.28 28.13c-.71 1.8-1.43 3.54-2.03 5.32-.64 1.76-1.17 3.55-1.65 5.33-.93 3.58-1.59 7.18-1.9 10.83l-.32 3.77-2.61-2.74c-1.27-1.33-2.6-2.6-3.98-3.81-1.38-1.22-2.84-2.35-4.33-3.46-1.5-1.09-3.05-2.13-4.66-3.11-1.6-1.01-3.27-1.91-4.96-2.86 1.93.23 3.82.73 5.67 1.34 1.84.65 3.65 1.42 5.37 2.37 1.74.92 3.39 2.02 4.96 3.21 1.57 1.2 3.03 2.54 4.4 3.96l-2.93 1.03c.35-3.91 1.27-7.78 2.78-11.39.74-1.81 1.64-3.54 2.66-5.2 1.05-1.64 2.18-3.21 3.52-4.6Zm-299.74 738.59 9.56 11.51a4.5 4.5 0 0 0 3.9 1.61l14.89-1.38c2.82-.26 5.18 2.1 4.92 4.92l-1.38 14.89c-.14 1.49.47 2.94 1.61 3.9l11.51 9.56a4.52 4.52 0 0 1 0 6.96l-11.51 9.56a4.5 4.5 0 0 0-1.61 3.9l1.38 14.89c.26 2.82-2.1 5.18-4.92 4.92l-14.89-1.38c-1.49-.14-2.94.47-3.9 1.61l-9.56 11.51a4.52 4.52 0 0 1-6.96 0l-9.56-11.51a4.5 4.5 0 0 0-3.9-1.61l-14.89 1.38c-2.82.26-5.18-2.1-4.92-4.92l1.38-14.89c.14-1.49-.47-2.94-1.61-3.9l-11.51-9.56a4.52 4.52 0 0 1 0-6.96l11.51-9.56a4.5 4.5 0 0 0 1.61-3.9l-1.38-14.89a4.522 4.522 0 0 1 4.92-4.92l14.89 1.38c1.49.14 2.94-.47 3.9-1.61l9.56-11.51a4.52 4.52 0 0 1 6.96 0" class="cls-5eid1"/><path d="m703.36 1201.53 8.15 9.82c.81.98 2.06 1.5 3.33 1.38l12.71-1.18a3.86 3.86 0 0 1 4.2 4.2l-1.18 12.71c-.12 1.27.4 2.51 1.38 3.33l9.82 8.15a3.86 3.86 0 0 1 0 5.94l-9.82 8.15c-.98.81-1.5 2.06-1.38 3.33l1.18 12.71a3.86 3.86 0 0 1-4.2 4.2l-12.71-1.18c-1.27-.12-2.51.4-3.33 1.38l-8.15 9.82a3.86 3.86 0 0 1-5.94 0l-8.15-9.82c-.81-.98-2.06-1.5-3.33-1.38l-12.71 1.18a3.86 3.86 0 0 1-4.2-4.2l1.18-12.71c.12-1.27-.4-2.51-1.38-3.33l-9.82-8.15a3.86 3.86 0 0 1 0-5.94l9.82-8.15c.98-.81 1.5-2.06 1.38-3.33l-1.18-12.71a3.86 3.86 0 0 1 4.2-4.2l12.71 1.18c1.27.12 2.51-.4 3.33-1.38l8.15-9.82a3.86 3.86 0 0 1 5.94 0" class="cls-5eid6"/><path d="m702.8 1209.32 6.62 7.97c.66.8 1.67 1.21 2.7 1.12l10.31-.95a3.138 3.138 0 0 1 3.41 3.41l-.95 10.31a3.11 3.11 0 0 0 1.12 2.7l7.97 6.62a3.13 3.13 0 0 1 0 4.82l-7.97 6.62c-.8.66-1.21 1.67-1.12 2.7l.95 10.31a3.138 3.138 0 0 1-3.41 3.41l-10.31-.95a3.11 3.11 0 0 0-2.7 1.12l-6.62 7.97a3.13 3.13 0 0 1-4.82 0l-6.62-7.97c-.66-.8-1.67-1.21-2.7-1.12l-10.31.95a3.138 3.138 0 0 1-3.41-3.41l.95-10.31a3.11 3.11 0 0 0-1.12-2.7l-7.97-6.62a3.13 3.13 0 0 1 0-4.82l7.97-6.62c.8-.66 1.21-1.67 1.12-2.7l-.95-10.31a3.138 3.138 0 0 1 3.41-3.41l10.31.95c1.03.1 2.04-.32 2.7-1.12l6.62-7.97a3.13 3.13 0 0 1 4.82 0" class="cls-5eid3"/><path d="m702.18 1218.06 4.9 5.89c.49.59 1.24.9 2 .83l7.63-.71c1.44-.13 2.66 1.08 2.52 2.52l-.71 7.63c-.07.76.24 1.51.83 2l5.89 4.9c1.12.93 1.12 2.64 0 3.57l-5.89 4.9c-.59.49-.9 1.24-.83 2l.71 7.63c.13 1.44-1.08 2.66-2.52 2.52l-7.63-.71c-.76-.07-1.51.24-2 .83l-4.9 5.89a2.317 2.317 0 0 1-3.57 0l-4.9-5.89c-.49-.59-1.24-.9-2-.83l-7.63.71c-1.44.13-2.66-1.08-2.52-2.52l.71-7.63c.07-.76-.24-1.51-.83-2l-5.89-4.9a2.317 2.317 0 0 1 0-3.57l5.89-4.9c.59-.49.9-1.24.83-2l-.71-7.63c-.13-1.44 1.08-2.66 2.52-2.52l7.63.71c.76.07 1.51-.24 2-.83l4.9-5.89a2.317 2.317 0 0 1 3.57 0" class="cls-5eid2"/><path d="m701.66 1225.28 3.47 4.18c.35.42.88.64 1.42.59l5.41-.5a1.65 1.65 0 0 1 1.79 1.79l-.5 5.41c-.05.54.17 1.07.59 1.42l4.18 3.47c.79.66.79 1.87 0 2.53l-4.18 3.47c-.42.35-.64.88-.59 1.42l.5 5.41a1.65 1.65 0 0 1-1.79 1.79l-5.41-.5a1.65 1.65 0 0 0-1.42.59l-3.47 4.18c-.66.79-1.87.79-2.53 0l-3.47-4.18a1.65 1.65 0 0 0-1.42-.59l-5.41.5a1.65 1.65 0 0 1-1.79-1.79l.5-5.41a1.65 1.65 0 0 0-.59-1.42l-4.18-3.47c-.79-.66-.79-1.87 0-2.53l4.18-3.47c.42-.35.64-.88.59-1.42l-.5-5.41a1.65 1.65 0 0 1 1.79-1.79l5.41.5c.54.05 1.07-.17 1.42-.59l3.47-4.18c.66-.79 1.87-.79 2.53 0" class="cls-5eid4"/><path d="M700 1258.6h-.08c-.74-.02-1.43-.37-1.88-.95l-2.67-3.42s-.07-.06-.12-.05l-4.33.27a2.494 2.494 0 0 1-2.62-2.78l.53-4.3s-.01-.09-.05-.12l-3.25-2.87c-.56-.49-.86-1.2-.84-1.94s.37-1.43.95-1.88l3.42-2.67s.06-.07.05-.12l-.27-4.33c-.05-.74.24-1.45.78-1.96s1.28-.75 2-.66l4.3.53s.09-.01.12-.05l2.87-3.25c.49-.55 1.19-.87 1.94-.84.74.02 1.43.37 1.88.95l2.67 3.42s.07.06.12.05l4.33-.27c.73-.04 1.45.24 1.96.78s.75 1.27.66 2l-.53 4.3c0 .05.01.09.05.12l3.25 2.87c.56.49.86 1.2.84 1.94s-.37 1.43-.95 1.88l-3.42 2.67s-.06.07-.05.12l.27 4.33c.05.74-.24 1.45-.78 1.96s-1.27.75-2 .66l-4.3-.53s-.09.01-.12.05l-2.87 3.25c-.47.54-1.15.84-1.86.84m-4.74-6.77c.76 0 1.48.35 1.96.95l2.67 3.42s.06.05.11.05.08-.01.11-.05l2.87-3.25c.54-.61 1.35-.92 2.16-.82l4.3.53s.08 0 .11-.04c.03-.03.05-.07.04-.11l-.27-4.33c-.05-.82.3-1.61.95-2.11l3.42-2.67s.05-.06.05-.11c0-.04-.01-.08-.05-.11l-3.25-2.87c-.61-.54-.92-1.35-.82-2.16l.53-4.3s0-.08-.04-.11c-.03-.03-.06-.05-.11-.04l-4.33.27c-.82.05-1.61-.3-2.11-.95l-2.67-3.42s-.06-.05-.11-.05c-.04 0-.08.01-.11.05l-2.87 3.25c-.54.61-1.35.92-2.16.82l-4.3-.53s-.08 0-.11.04c-.03.03-.05.07-.04.11l.27 4.33c.05.82-.3 1.61-.95 2.11l-3.42 2.67s-.05.06-.05.11c0 .04.01.08.05.11l3.25 2.87c.61.54.92 1.35.82 2.16l-.53 4.3s0 .08.04.11c.03.03.07.05.11.04l4.33-.27z" class="cls-5eid1"/><path d="M709.57 1272.44c-.64 0-1.28-.17-1.84-.51l-7.75-4.62a1.84 1.84 0 0 0-1.72-.09l-8.19 3.78c-.98.45-2.09.44-3.07-.02a3.58 3.58 0 0 1-1.94-2.37l-2.21-8.74c-.15-.59-.58-1.07-1.15-1.28l-8.46-3.12a3.6 3.6 0 0 1-2.15-2.18c-.36-1.01-.25-2.13.3-3.05l4.62-7.75c.31-.52.35-1.17.09-1.72l-3.78-8.19c-.45-.98-.44-2.09.02-3.07.46-.97 1.33-1.68 2.37-1.94l8.74-2.21c.59-.15 1.07-.58 1.28-1.15l3.12-8.46a3.6 3.6 0 0 1 2.18-2.15c1.02-.36 2.13-.25 3.05.3l7.75 4.62c.52.31 1.17.35 1.72.09l8.19-3.78c.98-.45 2.1-.44 3.07.02s1.68 1.33 1.94 2.37l2.21 8.74c.15.59.58 1.07 1.16 1.28l8.46 3.12c1.01.37 1.79 1.17 2.15 2.18s.25 2.13-.3 3.05l-4.62 7.75a1.84 1.84 0 0 0-.09 1.72l3.78 8.19a3.6 3.6 0 0 1-2.39 5l-8.74 2.21c-.59.15-1.07.58-1.28 1.15l-3.12 8.46a3.6 3.6 0 0 1-2.18 2.15c-.39.14-.8.21-1.21.21Zm-10.54-7.14c.64 0 1.28.17 1.85.51l7.75 4.62c.47.28 1.04.34 1.57.15.52-.18.93-.59 1.12-1.11l3.12-8.46a3.6 3.6 0 0 1 2.5-2.25l8.74-2.21c.54-.14.98-.5 1.22-1s.24-1.07 0-1.57l-3.78-8.19c-.5-1.08-.43-2.34.18-3.36l4.62-7.75c.28-.47.34-1.04.15-1.56-.18-.52-.59-.93-1.11-1.12l-8.46-3.12a3.6 3.6 0 0 1-2.25-2.5l-2.21-8.74c-.14-.54-.5-.98-1-1.22s-1.07-.24-1.57 0l-8.19 3.78c-1.08.5-2.34.43-3.36-.18l-7.75-4.62c-.48-.28-1.05-.34-1.57-.15-.52.18-.93.59-1.12 1.11l-3.12 8.46a3.6 3.6 0 0 1-2.5 2.25l-8.74 2.21c-.54.14-.98.5-1.22 1s-.24 1.07 0 1.57l3.78 8.19c.5 1.08.43 2.34-.18 3.36l-4.62 7.75a1.84 1.84 0 0 0-.15 1.57c.18.52.59.93 1.11 1.12l8.46 3.12a3.6 3.6 0 0 1 2.25 2.5l2.21 8.74c.14.54.5.98 1 1.22s1.07.24 1.57 0l8.19-3.78c.48-.22 1-.33 1.51-.33Zm-22.28-59.02c1.55-4.22 2.36-8.68 2.34-13.16 3.17 3.21 6.91 5.79 11.02 7.66-4.04-.33-7.87-2.28-10.81-5.04l1.48-.61c-.15 4.01-1.45 8.06-4.03 11.16Zm34.35-4.56c1.56-5.97 9.94-7.05 11.95-.71.52 1.71.36 3.54-.38 5.03.03-1.66-.24-3.21-.9-4.53-2.34-4.78-7.83-3.49-10.66.2Z" class="cls-5eid1"/><path d="M712.51 1204.24c.57-4.71 6.88-6.49 7.63-.88.1 1.25-.23 2.46-.87 3.44-.21-5.85-2.83-6.86-6.77-2.56Zm29.3 49.79c5.97 1.56 7.05 9.94.7 11.95-1.71.52-3.54.36-5.03-.38 1.66.03 3.21-.24 4.53-.9 4.78-2.34 3.5-7.82-.2-10.66Z" class="cls-5eid1"/><path d="M739.29 1255.44c4.71.57 6.49 6.89.87 7.63-1.25.1-2.46-.23-3.44-.87 5.85-.21 6.86-2.83 2.56-6.77Zm-50.36 28.88c-1.52 5.98-9.89 7.11-11.94.78-.53-1.71-.39-3.54.35-5.03-.02 1.66.26 3.21.93 4.52 2.38 4.77 7.85 3.44 10.66-.27" class="cls-5eid1"/><path d="M687.5 1281.82c-.54 4.71-6.84 6.54-7.63.93-.1-1.25.21-2.46.84-3.44.25 5.85 2.88 6.84 6.78 2.52Zm-29.14-49.51c-5.8-2.1-6.11-10.54.39-11.96 1.75-.36 3.56-.04 4.98.84-1.65-.18-3.22-.05-4.59.49-4.98 1.9-4.19 7.47-.77 10.63Z" class="cls-5eid1"/><path d="M660.99 1231.14c-4.64-1-5.84-7.45-.18-7.68 1.26.02 2.43.45 3.34 1.18-5.84-.32-7.09 2.2-3.17 6.51Zm75.68-8.72c4.45.64 8.98.52 13.36-.43a36.9 36.9 0 0 0-5.22 12.36c-.51-4.02.61-8.17 2.71-11.61l.9 1.32c-3.95.69-8.18.24-11.75-1.64m-74 43.25c-4.24-1.49-8.71-2.24-13.19-2.16 3.17-3.21 5.69-6.98 7.51-11.12-.28 4.05-2.18 7.9-4.9 10.87l-.63-1.47c4.01.09 8.08 1.34 11.21 3.88m62.03 14.51c-.36.93-.74 1.83-1.05 2.75-.33.91-.6 1.83-.85 2.75-.48 1.84-.82 3.71-.98 5.58l-.16 1.94-1.35-1.41c-.65-.69-1.34-1.34-2.05-1.96-.71-.63-1.46-1.21-2.23-1.79-.78-.56-1.57-1.1-2.4-1.6-.82-.52-1.69-.98-2.56-1.47 1 .12 1.97.38 2.93.69.95.33 1.88.73 2.77 1.22.9.47 1.75 1.04 2.56 1.66s1.56 1.31 2.27 2.04l-1.51.53c.18-2.02.65-4.01 1.44-5.87.38-.93.85-1.83 1.37-2.68.54-.84 1.13-1.65 1.82-2.37Zm132.13-233.6 8.78 10.57a4.14 4.14 0 0 0 3.58 1.48l13.69-1.27a4.154 4.154 0 0 1 4.52 4.52l-1.27 13.69c-.13 1.37.43 2.71 1.48 3.58l10.57 8.78c2 1.66 2 4.74 0 6.4l-10.57 8.78a4.14 4.14 0 0 0-1.48 3.58l1.27 13.69a4.154 4.154 0 0 1-4.52 4.52l-13.69-1.27c-1.37-.13-2.71.43-3.58 1.48l-8.78 10.57c-1.66 2-4.74 2-6.4 0l-8.78-10.57a4.14 4.14 0 0 0-3.58-1.48l-13.69 1.27a4.154 4.154 0 0 1-4.52-4.52l1.27-13.69c.13-1.37-.43-2.71-1.48-3.58l-10.57-8.78c-2-1.66-2-4.74 0-6.4l10.57-8.78a4.14 4.14 0 0 0 1.48-3.58l-1.27-13.69a4.154 4.154 0 0 1 4.52-4.52l13.69 1.27c1.37.13 2.71-.43 3.58-1.48l8.78-10.57c1.66-2 4.74-2 6.4 0" class="cls-5eid1"/><path d="m856.36 1053.12 7.49 9.02c.75.9 1.89 1.37 3.06 1.27l11.68-1.08c2.21-.2 4.07 1.65 3.86 3.86l-1.08 11.68a3.55 3.55 0 0 0 1.27 3.06l9.02 7.49a3.547 3.547 0 0 1 0 5.46l-9.02 7.49c-.9.75-1.37 1.89-1.27 3.06l1.08 11.68c.2 2.21-1.65 4.07-3.86 3.86l-11.68-1.08a3.55 3.55 0 0 0-3.06 1.27l-7.49 9.02a3.547 3.547 0 0 1-5.46 0l-7.49-9.02c-.75-.9-1.89-1.37-3.06-1.27l-11.68 1.08c-2.21.2-4.07-1.65-3.86-3.86l1.08-11.68a3.55 3.55 0 0 0-1.27-3.06l-9.02-7.49a3.547 3.547 0 0 1 0-5.46l9.02-7.49c.9-.75 1.37-1.89 1.27-3.06l-1.08-11.68c-.2-2.21 1.65-4.07 3.86-3.86l11.68 1.08a3.55 3.55 0 0 0 3.06-1.27l7.49-9.02a3.547 3.547 0 0 1 5.46 0" class="cls-5eid6"/><path d="m855.84 1060.28 6.08 7.32c.61.73 1.53 1.12 2.48 1.03l9.48-.88c1.79-.17 3.3 1.34 3.13 3.13l-.88 9.48c-.09.95.3 1.87 1.03 2.48l7.32 6.08a2.874 2.874 0 0 1 0 4.43l-7.32 6.08c-.73.61-1.12 1.53-1.03 2.48l.88 9.48c.17 1.79-1.34 3.3-3.13 3.13l-9.48-.88c-.95-.09-1.87.3-2.48 1.03l-6.08 7.32a2.874 2.874 0 0 1-4.43 0l-6.08-7.32a2.87 2.87 0 0 0-2.48-1.03l-9.48.88c-1.79.17-3.3-1.34-3.13-3.13l.88-9.48c.09-.95-.3-1.87-1.03-2.48l-7.32-6.08a2.874 2.874 0 0 1 0-4.43l7.32-6.08c.73-.61 1.12-1.53 1.03-2.48l-.88-9.48a2.876 2.876 0 0 1 3.13-3.13l9.48.88c.95.09 1.87-.3 2.48-1.03l6.08-7.32a2.874 2.874 0 0 1 4.43 0" class="cls-5eid3"/><path d="m855.27 1068.31 4.5 5.42c.45.54 1.14.82 1.84.76l7.01-.65c1.33-.12 2.44.99 2.32 2.32l-.65 7.01c-.06.7.22 1.39.76 1.84l5.42 4.5c1.03.85 1.03 2.43 0 3.28l-5.42 4.5c-.54.45-.82 1.14-.76 1.84l.65 7.01c.12 1.33-.99 2.44-2.32 2.32l-7.01-.65c-.7-.06-1.39.22-1.84.76l-4.5 5.42a2.127 2.127 0 0 1-3.28 0l-4.5-5.42c-.45-.54-1.14-.82-1.84-.76l-7.01.65c-1.33.12-2.44-.99-2.32-2.32l.65-7.01c.06-.7-.22-1.39-.76-1.84l-5.42-4.5a2.127 2.127 0 0 1 0-3.28l5.42-4.5c.54-.45.82-1.14.76-1.84l-.65-7.01c-.12-1.33.99-2.44 2.32-2.32l7.01.65c.7.06 1.39-.22 1.84-.76l4.5-5.42a2.127 2.127 0 0 1 3.28 0" class="cls-5eid2"/><path d="m854.79 1074.95 3.19 3.84c.32.38.81.59 1.3.54l4.97-.46c.94-.09 1.73.7 1.64 1.64l-.46 4.97c-.05.5.16.98.54 1.3l3.84 3.19c.73.6.73 1.72 0 2.32l-3.84 3.19c-.38.32-.59.81-.54 1.3l.46 4.97c.09.94-.7 1.73-1.64 1.64l-4.97-.46c-.5-.05-.98.16-1.3.54l-3.19 3.84c-.6.73-1.72.73-2.32 0l-3.19-3.84c-.32-.38-.81-.59-1.3-.54l-4.97.46c-.94.09-1.73-.7-1.64-1.64l.46-4.97c.05-.5-.16-.98-.54-1.3l-3.84-3.19c-.73-.6-.73-1.72 0-2.32l3.84-3.19c.38-.32.59-.81.54-1.3l-.46-4.97c-.09-.94.7-1.73 1.64-1.64l4.97.46c.5.05.98-.16 1.3-.54l3.19-3.84c.6-.73 1.72-.73 2.32 0" class="cls-5eid4"/><path d="M853.26 1105.56h-.07c-.68-.02-1.31-.34-1.73-.88l-2.45-3.14s-.07-.05-.11-.05l-3.97.25c-.68.04-1.34-.22-1.8-.71-.47-.5-.69-1.17-.6-1.84l.49-3.95s-.01-.08-.04-.11l-2.99-2.64a2.278 2.278 0 0 1 .11-3.51l3.14-2.45s.05-.07.05-.11l-.25-3.97c-.04-.68.22-1.34.71-1.8.5-.47 1.17-.69 1.84-.6l3.95.49s.08-.01.11-.04l2.64-2.99c.45-.51 1.09-.8 1.78-.77.68.02 1.31.34 1.73.88l2.45 3.14s.07.05.11.05l3.97-.25c.67-.04 1.34.22 1.8.71.47.5.69 1.17.6 1.84s-.49 3.95-.49 3.95c0 .04.01.08.04.11l2.99 2.64a2.278 2.278 0 0 1-.11 3.51l-3.14 2.45s-.05.07-.05.11l.25 3.97c.04.68-.22 1.34-.71 1.8-.49.47-1.16.69-1.84.6l-3.95-.49s-.08.01-.11.04l-2.64 2.99c-.43.49-1.05.77-1.71.77m-4.35-6.22c.7 0 1.36.32 1.8.88l2.45 3.14s.06.05.1.05.07-.01.1-.04l2.64-2.99c.5-.56 1.24-.85 1.99-.75l3.95.49s.08 0 .1-.03c.03-.03.04-.06.04-.1l-.25-3.97c-.05-.75.28-1.48.87-1.94l3.14-2.45s.05-.06.05-.1-.01-.07-.04-.1l-2.99-2.64c-.56-.5-.85-1.24-.75-1.99l.49-3.95s0-.08-.03-.1a.13.13 0 0 0-.1-.04l-3.98.25c-.75.05-1.48-.28-1.94-.87l-2.45-3.14s-.06-.05-.1-.05c-.03 0-.07.01-.1.04l-2.64 2.99c-.5.56-1.24.85-1.99.75l-3.95-.49s-.08 0-.1.03c-.03.03-.04.06-.04.1l.25 3.97c.05.75-.28 1.48-.87 1.94l-3.14 2.45s-.05.06-.05.1.01.07.04.1l2.99 2.64c.56.5.85 1.24.75 1.99l-.49 3.95s0 .08.03.1c.03.03.06.04.1.04l3.97-.25h.14Z" class="cls-5eid1"/><path d="M862.06 1118.28c-.59 0-1.17-.16-1.7-.47l-7.12-4.24c-.48-.29-1.07-.32-1.58-.08l-7.53 3.47c-.9.41-1.92.41-2.82-.02a3.35 3.35 0 0 1-1.79-2.18l-2.04-8.04c-.14-.54-.53-.98-1.06-1.18l-7.78-2.86a3.3 3.3 0 0 1-1.98-2c-.33-.93-.23-1.95.28-2.8l4.24-7.12c.29-.48.32-1.07.08-1.58l-3.47-7.53c-.41-.9-.41-1.92.02-2.82.43-.89 1.22-1.54 2.18-1.79l8.03-2.04c.54-.14.98-.53 1.18-1.06l2.86-7.78c.34-.93 1.07-1.65 2-1.98s1.95-.23 2.8.28l7.12 4.24c.48.29 1.07.32 1.58.08l7.53-3.47c.9-.41 1.93-.41 2.82.02s1.54 1.22 1.79 2.18l2.03 8.04c.14.54.53.98 1.06 1.18l7.78 2.86c.93.34 1.65 1.07 1.98 2s.23 1.95-.28 2.8l-4.24 7.12c-.29.48-.32 1.07-.08 1.58l3.47 7.53c.41.9.41 1.92-.02 2.82-.43.89-1.22 1.54-2.18 1.79l-8.03 2.03c-.54.14-.98.53-1.18 1.06l-2.86 7.78a3.295 3.295 0 0 1-3.11 2.17Zm-9.69-6.56c.59 0 1.18.16 1.7.47l7.12 4.24a1.705 1.705 0 0 0 2.47-.88l2.86-7.78a3.32 3.32 0 0 1 2.3-2.07l8.03-2.03c.49-.12.9-.46 1.12-.92s.22-.98 0-1.45l-3.47-7.53c-.46-.99-.4-2.15.16-3.09l4.24-7.12a1.705 1.705 0 0 0-.88-2.47l-7.78-2.86a3.32 3.32 0 0 1-2.07-2.3l-2.03-8.04c-.12-.49-.46-.9-.92-1.12s-.99-.22-1.45 0l-7.53 3.47c-.99.46-2.15.4-3.09-.16l-7.12-4.24a1.705 1.705 0 0 0-2.47.88l-2.86 7.78a3.32 3.32 0 0 1-2.3 2.07l-8.03 2.04c-.49.12-.9.46-1.12.92s-.22.98 0 1.45l3.47 7.53c.46.99.4 2.15-.16 3.09l-4.24 7.12a1.705 1.705 0 0 0 .88 2.47l7.78 2.86a3.32 3.32 0 0 1 2.07 2.3l2.04 8.03c.12.49.46.9.92 1.12s.99.22 1.45 0l7.53-3.47c.44-.2.92-.31 1.39-.31Zm-20.47-54.23c1.42-3.88 2.17-7.97 2.15-12.1 2.91 2.95 6.35 5.32 10.13 7.04-3.71-.31-7.23-2.1-9.93-4.63l1.36-.56c-.13 3.69-1.33 7.4-3.7 10.25Zm31.56-4.19c1.43-5.49 9.13-6.48 10.98-.65.48 1.57.33 3.26-.35 4.62.02-1.52-.22-2.95-.83-4.16-2.15-4.39-7.19-3.21-9.8.19" class="cls-5eid1"/><path d="M864.76 1055.61c.52-4.33 6.33-5.97 7.02-.81a5.05 5.05 0 0 1-.8 3.16c-.19-5.37-2.6-6.31-6.22-2.35m26.92 45.76c5.49 1.43 6.48 9.14.65 10.98-1.57.48-3.26.33-4.62-.35 1.52.02 2.95-.22 4.16-.83 4.4-2.15 3.21-7.19-.18-9.8Z" class="cls-5eid1"/><path d="M889.37 1102.66c4.33.53 5.97 6.33.8 7.02a5.05 5.05 0 0 1-3.16-.8c5.37-.19 6.31-2.6 2.35-6.22Zm-46.28 26.54c-1.39 5.5-9.09 6.54-10.97.72-.49-1.57-.36-3.25.32-4.63-.01 1.52.24 2.95.86 4.16 2.18 4.38 7.21 3.16 9.79-.25" class="cls-5eid1"/><path d="M841.78 1126.9c-.5 4.33-6.29 6.01-7.01.85-.1-1.15.2-2.26.78-3.16.23 5.37 2.65 6.29 6.23 2.31M815 1081.41c-5.33-1.93-5.62-9.69.35-10.99 1.61-.33 3.27-.04 4.57.77-1.51-.16-2.96-.05-4.22.45-4.57 1.74-3.85 6.87-.71 9.77Z" class="cls-5eid1"/><path d="M817.42 1080.33c-4.26-.92-5.37-6.84-.16-7.06 1.15.02 2.23.42 3.07 1.08-5.37-.3-6.52 2.02-2.91 5.98m69.55-8.01c4.09.59 8.25.47 12.28-.39-2.29 3.46-3.89 7.31-4.8 11.36-.47-3.7.56-7.51 2.49-10.67l.83 1.21c-3.63.63-7.52.22-10.8-1.51m-68.01 39.74c-3.9-1.37-8-2.06-12.13-1.98 2.91-2.95 5.23-6.42 6.9-10.22-.26 3.72-2 7.26-4.5 9.99l-.58-1.35c3.69.08 7.42 1.24 10.3 3.57Zm57 13.34c-.34.85-.68 1.68-.96 2.52-.3.84-.55 1.68-.78 2.52-.44 1.69-.75 3.4-.9 5.13l-.15 1.78-1.24-1.3c-.6-.63-1.23-1.23-1.89-1.81-.65-.58-1.35-1.11-2.05-1.64-.71-.51-1.45-1.01-2.21-1.47-.76-.48-1.55-.9-2.35-1.36.92.11 1.81.35 2.69.64.87.31 1.73.67 2.55 1.12.83.43 1.6.96 2.35 1.52.74.57 1.44 1.2 2.09 1.88l-1.39.49c.16-1.85.6-3.69 1.32-5.4.35-.86.78-1.68 1.26-2.46.5-.78 1.04-1.52 1.67-2.18ZM350.77 677.62l16.32 19.65a7.75 7.75 0 0 0 6.66 2.76l25.44-2.35c4.82-.45 8.86 3.59 8.41 8.41l-2.35 25.44a7.75 7.75 0 0 0 2.76 6.66l19.65 16.32c3.72 3.09 3.72 8.8 0 11.89l-19.65 16.32a7.75 7.75 0 0 0-2.76 6.66l2.35 25.44c.45 4.82-3.59 8.86-8.41 8.41l-25.44-2.35a7.75 7.75 0 0 0-6.66 2.76l-16.32 19.65c-3.09 3.72-8.8 3.72-11.89 0l-16.32-19.65a7.75 7.75 0 0 0-6.66-2.76l-25.44 2.35c-4.82.45-8.86-3.59-8.41-8.41l2.35-25.44a7.75 7.75 0 0 0-2.76-6.66l-19.65-16.32c-3.72-3.09-3.72-8.8 0-11.89l19.65-16.32a7.75 7.75 0 0 0 2.76-6.66l-2.35-25.44c-.45-4.82 3.59-8.86 8.41-8.41l25.44 2.35c2.54.23 5.03-.8 6.66-2.76l16.32-19.65c3.09-3.72 8.8-3.72 11.89 0" class="cls-5eid1"/><path d="m349.9 689.77 13.93 16.77a6.6 6.6 0 0 0 5.68 2.35l21.71-2.01c4.11-.38 7.56 3.07 7.18 7.18l-2.01 21.71c-.2 2.17.68 4.29 2.35 5.68l16.77 13.93c3.18 2.64 3.18 7.51 0 10.15l-16.77 13.93a6.6 6.6 0 0 0-2.35 5.68l2.01 21.71c.38 4.11-3.07 7.56-7.18 7.18l-21.71-2.01c-2.17-.2-4.29.68-5.68 2.35l-13.93 16.77c-2.64 3.18-7.51 3.18-10.15 0l-13.93-16.77a6.6 6.6 0 0 0-5.68-2.35l-21.71 2.01c-4.11.38-7.56-3.07-7.18-7.18l2.01-21.71c.2-2.17-.68-4.29-2.35-5.68l-16.77-13.93c-3.18-2.64-3.18-7.51 0-10.15l16.77-13.93a6.6 6.6 0 0 0 2.35-5.68l-2.01-21.71c-.38-4.11 3.07-7.56 7.18-7.18l21.71 2.01c2.17.2 4.29-.68 5.68-2.35l13.93-16.77c2.64-3.18 7.51-3.18 10.15 0" class="cls-5eid6"/><path d="m348.94 703.09 11.31 13.61a5.35 5.35 0 0 0 4.61 1.91l17.62-1.63c3.34-.31 6.13 2.49 5.82 5.82l-1.63 17.62c-.16 1.76.55 3.48 1.91 4.61l13.61 11.31c2.58 2.14 2.58 6.1 0 8.24l-13.61 11.31a5.35 5.35 0 0 0-1.91 4.61l1.63 17.62c.31 3.34-2.49 6.13-5.82 5.82l-17.62-1.63c-1.76-.16-3.48.55-4.61 1.91l-11.31 13.61c-2.14 2.58-6.1 2.58-8.24 0l-11.31-13.61a5.35 5.35 0 0 0-4.61-1.91l-17.62 1.63c-3.34.31-6.13-2.49-5.82-5.82l1.63-17.62c.16-1.76-.55-3.48-1.91-4.61l-13.61-11.31c-2.58-2.14-2.58-6.1 0-8.24l13.61-11.31a5.35 5.35 0 0 0 1.91-4.61l-1.63-17.62c-.31-3.34 2.49-6.13 5.82-5.82l17.62 1.63c1.76.16 3.48-.55 4.61-1.91l11.31-13.61c2.14-2.58 6.1-2.58 8.24 0" class="cls-5eid3"/><path d="m347.87 718.02 8.36 10.07c.83 1 2.11 1.53 3.41 1.41l13.03-1.21a3.96 3.96 0 0 1 4.31 4.31l-1.21 13.03c-.12 1.3.41 2.58 1.41 3.41l10.07 8.36a3.953 3.953 0 0 1 0 6.09l-10.07 8.36c-1 .83-1.53 2.11-1.41 3.41l1.21 13.03a3.96 3.96 0 0 1-4.31 4.31l-13.03-1.21c-1.3-.12-2.58.41-3.41 1.41l-8.36 10.07a3.953 3.953 0 0 1-6.09 0l-8.36-10.07c-.83-1-2.11-1.53-3.41-1.41l-13.03 1.21a3.96 3.96 0 0 1-4.31-4.31l1.21-13.03c.12-1.3-.41-2.58-1.41-3.41l-10.07-8.36a3.953 3.953 0 0 1 0-6.09l10.07-8.36c1-.83 1.53-2.11 1.41-3.41l-1.21-13.03a3.96 3.96 0 0 1 4.31-4.31l13.03 1.21c1.3.12 2.58-.41 3.41-1.41l8.36-10.07a3.953 3.953 0 0 1 6.09 0" class="cls-5eid2"/><path d="m346.98 730.35 5.93 7.14c.59.71 1.5 1.09 2.42 1l9.25-.86a2.817 2.817 0 0 1 3.06 3.06l-.86 9.25c-.09.92.29 1.83 1 2.42l7.14 5.93a2.81 2.81 0 0 1 0 4.32l-7.14 5.93c-.71.59-1.09 1.5-1 2.42l.86 9.25a2.817 2.817 0 0 1-3.06 3.06l-9.25-.86c-.92-.09-1.83.29-2.42 1l-5.93 7.14a2.81 2.81 0 0 1-4.32 0l-5.93-7.14c-.59-.71-1.5-1.09-2.42-1l-9.25.86a2.817 2.817 0 0 1-3.06-3.06l.86-9.25c.09-.92-.29-1.83-1-2.42l-7.14-5.93a2.81 2.81 0 0 1 0-4.32l7.14-5.93c.71-.59 1.09-1.5 1-2.42l-.86-9.25a2.817 2.817 0 0 1 3.06-3.06l9.25.86c.92.09 1.83-.29 2.42-1l5.93-7.14a2.81 2.81 0 0 1 4.32 0" class="cls-5eid4"/><path d="M344.14 787.26h-.13a4.21 4.21 0 0 1-3.21-1.63l-4.56-5.83a.23.23 0 0 0-.21-.09l-7.39.46a4.243 4.243 0 0 1-4.47-4.75l.9-7.35c0-.08-.02-.16-.08-.21l-5.55-4.9a4.22 4.22 0 0 1-1.43-3.31 4.21 4.21 0 0 1 1.63-3.21l5.83-4.56c.06-.05.1-.12.09-.2l-.46-7.39c-.08-1.26.41-2.48 1.33-3.35s2.18-1.28 3.42-1.12l7.35.9c.08 0 .16-.02.21-.08l4.9-5.55c.84-.95 2.03-1.48 3.31-1.43 1.26.04 2.44.63 3.21 1.63l4.56 5.83c.05.06.13.1.21.09l7.39-.46c1.25-.08 2.48.4 3.35 1.32s1.28 2.17 1.12 3.42-.9 7.35-.9 7.35c0 .08.02.16.08.21l5.55 4.9c.95.84 1.47 2.04 1.43 3.31a4.21 4.21 0 0 1-1.63 3.21l-5.83 4.56c-.06.05-.1.12-.09.2l.46 7.39c.08 1.26-.4 2.48-1.33 3.35-.92.87-2.16 1.28-3.42 1.12l-7.35-.9c-.08 0-.16.02-.21.08l-4.9 5.55c-.81.92-1.96 1.43-3.18 1.43Zm-8.09-11.56c1.3 0 2.54.6 3.34 1.63l4.56 5.84q.075.09.18.09c.08 0 .14-.03.19-.08l4.9-5.55a4.21 4.21 0 0 1 3.7-1.4l7.35.9c.07 0 .14-.01.19-.06s.08-.12.08-.19l-.46-7.39a4.22 4.22 0 0 1 1.62-3.6l5.83-4.56q.09-.075.09-.18c0-.07-.02-.14-.08-.19l-5.55-4.9a4.25 4.25 0 0 1-1.4-3.7l.9-7.35c0-.07-.01-.14-.06-.19a.22.22 0 0 0-.19-.07l-7.39.46a4.22 4.22 0 0 1-3.6-1.62l-4.56-5.84a.23.23 0 0 0-.18-.09.25.25 0 0 0-.19.08l-4.9 5.55a4.24 4.24 0 0 1-3.7 1.4l-7.35-.9c-.08 0-.14.01-.19.06s-.08.12-.08.19l.46 7.39a4.22 4.22 0 0 1-1.62 3.6l-5.83 4.56q-.09.075-.09.18c0 .07.02.14.08.19l5.55 4.9c1.05.93 1.57 2.31 1.4 3.7l-.9 7.35c0 .07.01.14.06.19s.11.08.19.08l7.39-.46h.26Z" class="cls-5eid1"/><path d="M360.5 810.91c-1.1 0-2.18-.29-3.15-.87l-13.24-7.89c-.9-.53-2-.59-2.94-.15l-13.99 6.46a6.16 6.16 0 0 1-8.56-4.08l-3.78-14.94a3.16 3.16 0 0 0-1.97-2.19l-14.46-5.32a6.15 6.15 0 0 1-3.68-3.73c-.61-1.73-.43-3.63.51-5.21l7.89-13.24c.53-.9.59-2 .15-2.94l-6.46-13.99a6.16 6.16 0 0 1 4.08-8.56l14.94-3.78c1.01-.26 1.83-.99 2.19-1.97l5.32-14.46a6.1 6.1 0 0 1 3.72-3.68c1.73-.61 3.63-.43 5.21.51l13.24 7.89c.9.53 2 .59 2.94.15l13.99-6.46a6.16 6.16 0 0 1 8.56 4.08l3.78 14.94c.26 1.01.99 1.83 1.97 2.19l14.46 5.32a6.15 6.15 0 0 1 3.68 3.73c.61 1.73.43 3.63-.51 5.21l-7.89 13.24c-.53.9-.59 2-.15 2.94l6.46 13.99a6.16 6.16 0 0 1-4.08 8.56l-14.94 3.78c-1.01.26-1.83.99-2.19 1.97l-5.32 14.46a6.1 6.1 0 0 1-3.72 3.68c-.67.24-1.37.35-2.06.35Zm-18.01-12.2c1.09 0 2.19.29 3.15.87l13.24 7.89c.81.48 1.78.58 2.67.26.89-.31 1.59-1 1.91-1.89l5.32-14.46c.7-1.91 2.3-3.35 4.27-3.84l14.94-3.78a3.165 3.165 0 0 0 2.1-4.39l-6.46-13.99c-.85-1.85-.74-3.99.3-5.74l7.89-13.24c.48-.81.58-1.78.26-2.67s-1-1.59-1.89-1.91l-14.46-5.32c-1.91-.7-3.34-2.3-3.84-4.27l-3.78-14.94a3.165 3.165 0 0 0-4.39-2.1l-13.99 6.46c-1.85.85-3.99.74-5.74-.3l-13.24-7.89c-.81-.48-1.79-.58-2.67-.26-.89.31-1.59 1-1.91 1.89l-5.32 14.46c-.7 1.91-2.3 3.35-4.27 3.84l-14.94 3.78a3.165 3.165 0 0 0-2.1 4.39l6.46 13.99c.85 1.85.74 3.99-.3 5.74l-7.89 13.24c-.48.81-.58 1.79-.26 2.67.32.89 1 1.59 1.89 1.91l14.46 5.32c1.91.7 3.35 2.3 3.84 4.27l3.78 14.94a3.165 3.165 0 0 0 4.39 2.1l13.99-6.46c.82-.38 1.7-.57 2.58-.57Zm-38.06-100.82c2.64-7.22 4.03-14.83 3.99-22.49 5.42 5.49 11.8 9.89 18.83 13.08-6.91-.57-13.44-3.9-18.46-8.61l2.53-1.04c-.25 6.85-2.48 13.76-6.89 19.06m58.68-7.79c2.66-10.2 16.98-12.04 20.41-1.21.89 2.92.62 6.06-.65 8.6.04-2.83-.42-5.48-1.54-7.74-4-8.17-13.37-5.97-18.21.35Z" class="cls-5eid1"/><path d="M365.52 694.4c.97-8.05 11.76-11.09 13.04-1.5.16 2.14-.39 4.2-1.48 5.87-.36-9.99-4.84-11.72-11.56-4.37m50.05 85.07c10.2 2.66 12.04 16.98 1.2 20.41-2.92.89-6.06.62-8.6-.65 2.83.05 5.49-.41 7.74-1.54 8.17-4 5.97-13.37-.34-18.21Z" class="cls-5eid1"/><path d="M411.27 781.87c8.05.98 11.09 11.76 1.49 13.04-2.14.16-4.2-.39-5.87-1.48 9.99-.36 11.72-4.84 4.38-11.56m-86.03 49.34c-2.59 10.22-16.9 12.15-20.4 1.34-.91-2.91-.66-6.05.6-8.6-.03 2.83.45 5.48 1.59 7.72 4.06 8.14 13.41 5.88 18.21-.47Z" class="cls-5eid1"/><path d="M322.8 826.93c-.92 8.05-11.69 11.17-13.03 1.58a9.4 9.4 0 0 1 1.44-5.88c.43 9.99 4.92 11.69 11.59 4.3m-49.78-84.58c-9.91-3.58-10.44-18.01.66-20.43 2.99-.62 6.09-.07 8.5 1.43-2.81-.3-5.5-.09-7.84.83-8.5 3.24-7.16 12.77-1.32 18.17" class="cls-5eid1"/><path d="M277.51 740.35c-7.93-1.7-9.98-12.72-.3-13.12 2.15.03 4.14.77 5.71 2.01-9.98-.55-12.12 3.75-5.41 11.11m129.29-14.89c7.61 1.1 15.34.88 22.83-.73-4.25 6.43-7.24 13.59-8.92 21.12-.87-6.87 1.05-13.96 4.62-19.84l1.54 2.26c-6.76 1.17-13.98.41-20.07-2.81m-126.42 73.88c-7.25-2.55-14.88-3.83-22.54-3.69 5.42-5.49 9.73-11.93 12.83-19-.48 6.91-3.72 13.49-8.37 18.57l-1.08-2.51c6.85.16 13.8 2.3 19.15 6.63Zm105.97 24.79c-.62 1.58-1.26 3.12-1.79 4.69-.56 1.55-1.03 3.12-1.46 4.69-.82 3.15-1.4 6.33-1.67 9.54l-.28 3.32-2.3-2.41a56 56 0 0 0-3.51-3.36c-1.22-1.07-2.5-2.07-3.81-3.05-1.32-.96-2.69-1.88-4.11-2.74-1.41-.89-2.88-1.68-4.37-2.52 1.7.2 3.36.64 5 1.18 1.62.57 3.22 1.25 4.73 2.09 1.53.81 2.98 1.78 4.37 2.83 1.38 1.06 2.67 2.23 3.88 3.49l-2.58.9c.3-3.45 1.12-6.86 2.45-10.03.65-1.59 1.45-3.12 2.34-4.58.92-1.44 1.92-2.82 3.1-4.05Zm414.81 246.18 21.56 25.95c2.15 2.59 5.44 3.95 8.79 3.64l33.59-3.11c6.36-.59 11.69 4.74 11.1 11.1l-3.11 33.59c-.31 3.35 1.05 6.64 3.64 8.79l25.95 21.56c4.91 4.08 4.91 11.62 0 15.7l-25.95 21.56a10.2 10.2 0 0 0-3.64 8.79l3.11 33.59c.59 6.36-4.74 11.69-11.1 11.1l-33.59-3.11c-3.35-.31-6.64 1.05-8.79 3.64l-21.56 25.95c-4.08 4.91-11.62 4.91-15.7 0l-21.56-25.95a10.2 10.2 0 0 0-8.79-3.64l-33.59 3.11c-6.36.59-11.69-4.74-11.1-11.1l3.11-33.59c.31-3.35-1.05-6.64-3.64-8.79l-25.95-21.56c-4.91-4.08-4.91-11.62 0-15.7l25.95-21.56c2.59-2.15 3.95-5.44 3.64-8.79l-3.11-33.59c-.59-6.36 4.74-11.69 11.1-11.1l33.59 3.11c3.35.31 6.64-1.05 8.79-3.64l21.56-25.95c4.08-4.91 11.62-4.91 15.7 0" class="cls-5eid1"/><path d="m800.01 1086.36 18.39 22.15a8.72 8.72 0 0 0 7.5 3.11l28.67-2.65c5.43-.5 9.98 4.05 9.48 9.48l-2.65 28.67c-.26 2.86.9 5.67 3.11 7.5l22.15 18.39c4.19 3.48 4.19 9.92 0 13.4l-22.15 18.39a8.72 8.72 0 0 0-3.11 7.5l2.65 28.67c.5 5.43-4.05 9.98-9.48 9.48l-28.67-2.65c-2.86-.26-5.67.9-7.5 3.11l-18.39 22.15c-3.48 4.19-9.92 4.19-13.4 0l-18.39-22.15a8.72 8.72 0 0 0-7.5-3.11l-28.67 2.65c-5.43.5-9.98-4.05-9.48-9.48l2.65-28.67c.26-2.86-.9-5.67-3.11-7.5l-22.15-18.39c-4.19-3.48-4.19-9.92 0-13.4l22.15-18.39a8.72 8.72 0 0 0 3.11-7.5l-2.65-28.67c-.5-5.43 4.05-9.98 9.48-9.48l28.67 2.65c2.86.26 5.67-.9 7.5-3.11l18.39-22.15c3.48-4.19 9.92-4.19 13.4 0" class="cls-5eid6"/><path d="m798.74 1103.94 14.93 17.97a7.07 7.07 0 0 0 6.09 2.52l23.26-2.15c4.41-.41 8.1 3.29 7.69 7.69l-2.15 23.26c-.21 2.32.73 4.6 2.52 6.09l17.97 14.93c3.4 2.83 3.4 8.05 0 10.88l-17.97 14.93a7.07 7.07 0 0 0-2.52 6.09l2.15 23.26c.41 4.41-3.29 8.1-7.69 7.69l-23.26-2.15c-2.32-.21-4.6.73-6.09 2.52l-14.93 17.97c-2.83 3.4-8.05 3.4-10.88 0l-14.93-17.97a7.07 7.07 0 0 0-6.09-2.52l-23.26 2.15c-4.41.41-8.1-3.29-7.69-7.69l2.15-23.26c.21-2.32-.73-4.6-2.52-6.09l-17.97-14.93c-3.4-2.83-3.4-8.05 0-10.88l17.97-14.93a7.07 7.07 0 0 0 2.52-6.09l-2.15-23.26c-.41-4.41 3.29-8.1 7.69-7.69l23.26 2.15c2.32.21 4.6-.73 6.09-2.52l14.93-17.97c2.83-3.4 8.05-3.4 10.88 0" class="cls-5eid3"/><path d="m797.33 1123.66 11.04 13.3a5.25 5.25 0 0 0 4.5 1.87l17.21-1.59c3.26-.3 5.99 2.43 5.69 5.69l-1.59 17.21c-.16 1.72.54 3.4 1.87 4.5l13.3 11.04c2.52 2.09 2.52 5.95 0 8.05l-13.3 11.04a5.25 5.25 0 0 0-1.87 4.5l1.59 17.21c.3 3.26-2.43 5.99-5.69 5.69l-17.21-1.59c-1.72-.16-3.4.54-4.5 1.87l-11.04 13.3c-2.09 2.52-5.95 2.52-8.05 0l-11.04-13.3a5.25 5.25 0 0 0-4.5-1.87l-17.21 1.59c-3.26.3-5.99-2.43-5.69-5.69l1.59-17.21c.16-1.72-.54-3.4-1.87-4.5l-13.3-11.04c-2.52-2.09-2.52-5.95 0-8.05l13.3-11.04a5.25 5.25 0 0 0 1.87-4.5l-1.59-17.21a5.23 5.23 0 0 1 5.69-5.69l17.21 1.59c1.72.16 3.4-.54 4.5-1.87l11.04-13.3c2.09-2.52 5.95-2.52 8.05 0" class="cls-5eid2"/><path d="m796.16 1139.95 7.83 9.43c.78.94 1.98 1.44 3.2 1.32l12.21-1.13a3.717 3.717 0 0 1 4.04 4.04l-1.13 12.21c-.11 1.22.38 2.41 1.32 3.2l9.43 7.83c1.79 1.48 1.79 4.22 0 5.71l-9.43 7.83c-.94.78-1.44 1.98-1.32 3.2l1.13 12.21a3.717 3.717 0 0 1-4.04 4.04l-12.21-1.13c-1.22-.11-2.41.38-3.2 1.32l-7.83 9.43c-1.48 1.79-4.22 1.79-5.71 0l-7.83-9.43a3.7 3.7 0 0 0-3.2-1.32l-12.21 1.13a3.717 3.717 0 0 1-4.04-4.04l1.13-12.21c.11-1.22-.38-2.41-1.32-3.2l-9.43-7.83c-1.79-1.48-1.79-4.22 0-5.71l9.43-7.83c.94-.78 1.44-1.98 1.32-3.2l-1.13-12.21a3.717 3.717 0 0 1 4.04-4.04l12.21 1.13c1.22.11 2.41-.38 3.2-1.32l7.83-9.43c1.48-1.79 4.22-1.79 5.71 0" class="cls-5eid4"/><path d="M792.41 1215.09h-.17a5.55 5.55 0 0 1-4.24-2.15l-6.02-7.7a.3.3 0 0 0-.27-.12l-9.76.61a5.63 5.63 0 0 1-4.43-1.75 5.61 5.61 0 0 1-1.48-4.52l1.19-9.7a.35.35 0 0 0-.1-.28l-7.33-6.47a5.6 5.6 0 0 1-1.89-4.37 5.58 5.58 0 0 1 2.15-4.24l7.7-6.02c.08-.06.13-.17.12-.27l-.61-9.76c-.1-1.67.54-3.28 1.75-4.42a5.63 5.63 0 0 1 4.52-1.48l9.7 1.19c.1.01.21-.03.27-.1l6.47-7.33c1.11-1.25 2.68-1.96 4.37-1.89 1.67.05 3.22.83 4.24 2.15l6.02 7.7c.06.08.17.13.27.12l9.76-.61c1.65-.1 3.28.53 4.42 1.75a5.54 5.54 0 0 1 1.48 4.52s-1.19 9.7-1.19 9.7c-.01.11.03.21.1.28l7.33 6.47c1.25 1.1 1.94 2.7 1.89 4.36a5.55 5.55 0 0 1-2.15 4.24l-7.7 6.02c-.08.06-.13.17-.12.27l.61 9.76c.1 1.67-.53 3.28-1.75 4.42a5.53 5.53 0 0 1-4.52 1.48l-9.7-1.19c-.1-.01-.21.03-.28.11l-6.47 7.33a5.58 5.58 0 0 1-4.19 1.89Zm-10.68-15.26c1.72 0 3.35.79 4.41 2.15l6.02 7.71q.09.12.24.12c.11.01.18-.03.25-.11l6.47-7.33a5.6 5.6 0 0 1 4.88-1.85l9.7 1.19c.1.01.18-.02.26-.08.07-.07.11-.15.1-.25l-.61-9.76a5.63 5.63 0 0 1 2.14-4.76l7.7-6.02q.12-.09.12-.24c0-.1-.03-.18-.11-.25l-7.33-6.47a5.57 5.57 0 0 1-1.85-4.88l1.19-9.7a.34.34 0 0 0-.08-.26.3.3 0 0 0-.25-.1l-9.76.61a5.63 5.63 0 0 1-4.76-2.14l-6.02-7.71a.28.28 0 0 0-.24-.12c-.08 0-.18.03-.25.11l-6.47 7.33a5.57 5.57 0 0 1-4.88 1.85l-9.7-1.19c-.1 0-.18.02-.26.08-.07.07-.11.15-.1.25l.61 9.76c.11 1.84-.68 3.62-2.14 4.76l-7.7 6.02q-.12.09-.12.24c0 .1.03.18.11.25l7.33 6.47a5.57 5.57 0 0 1 1.85 4.88l-1.19 9.7c-.01.1.02.18.08.26.07.07.15.11.25.1l9.76-.61c.12 0 .23-.01.35-.01" class="cls-5eid1"/><path d="M814.01 1246.31c-1.45 0-2.88-.39-4.16-1.15l-17.48-10.41c-1.19-.7-2.64-.78-3.89-.2l-18.47 8.53c-2.2 1.02-4.72 1-6.91-.04a8.11 8.11 0 0 1-4.39-5.35l-5-19.72a4.15 4.15 0 0 0-2.6-2.89l-19.09-7.03a8.1 8.1 0 0 1-4.86-4.92c-.81-2.29-.56-4.8.68-6.88l10.42-17.48c.7-1.18.78-2.64.2-3.89l-8.53-18.47c-1.02-2.2-1-4.72.04-6.91a8.1 8.1 0 0 1 5.35-4.38l19.72-5a4.15 4.15 0 0 0 2.89-2.6l7.03-19.09a8.1 8.1 0 0 1 4.92-4.86c2.29-.81 4.8-.56 6.88.68l17.48 10.41c1.18.7 2.64.78 3.89.2l18.47-8.53c2.2-1.02 4.73-1 6.91.04a8.11 8.11 0 0 1 4.39 5.35l4.99 19.72a4.14 4.14 0 0 0 2.61 2.89l19.09 7.03c2.28.84 4.05 2.63 4.86 4.92s.56 4.8-.68 6.88l-10.41 17.48a4.16 4.16 0 0 0-.2 3.89l8.53 18.47c1.02 2.2 1 4.72-.04 6.91a8.11 8.11 0 0 1-5.35 4.39l-19.72 4.99a4.15 4.15 0 0 0-2.89 2.6l-7.03 19.09a8.1 8.1 0 0 1-4.92 4.86c-.89.31-1.81.47-2.72.47Zm-23.78-16.11c1.45 0 2.89.38 4.17 1.15l17.48 10.41a4.168 4.168 0 0 0 6.05-2.14l7.03-19.09a8.13 8.13 0 0 1 5.64-5.08l19.72-4.99a4.16 4.16 0 0 0 2.74-2.25c.54-1.12.54-2.42.02-3.55l-8.53-18.47a8.11 8.11 0 0 1 .4-7.58l10.41-17.48a4.168 4.168 0 0 0-2.14-6.05l-19.09-7.03a8.13 8.13 0 0 1-5.08-5.64l-4.99-19.72a4.16 4.16 0 0 0-2.25-2.74 4.16 4.16 0 0 0-3.55-.02l-18.47 8.53a8.11 8.11 0 0 1-7.58-.4l-17.48-10.41a4.168 4.168 0 0 0-6.05 2.14l-7.03 19.09a8.13 8.13 0 0 1-5.64 5.08l-19.72 5a4.16 4.16 0 0 0-2.74 2.25 4.16 4.16 0 0 0-.02 3.55l8.53 18.47c1.13 2.44.98 5.27-.4 7.58l-10.41 17.48a4.168 4.168 0 0 0 2.14 6.05l19.09 7.03c2.52.93 4.42 3.04 5.08 5.64l5 19.72a4.16 4.16 0 0 0 2.25 2.74c1.12.54 2.42.54 3.55.02l18.47-8.53c1.09-.5 2.25-.75 3.41-.75Zm-50.26-133.12c3.49-9.53 5.32-19.58 5.27-29.7 7.15 7.25 15.58 13.05 24.86 17.27-9.12-.75-17.75-5.15-24.38-11.37l3.34-1.38c-.33 9.05-3.28 18.17-9.09 25.17Zm77.48-10.28c3.51-13.47 22.42-15.9 26.95-1.59 1.18 3.86.82 8-.86 11.35.06-3.74-.55-7.24-2.04-10.21-5.29-10.79-17.65-7.88-24.05.46Z" class="cls-5eid1"/><path d="M820.63 1092.47c1.29-10.63 15.53-14.65 17.22-1.98.22 2.83-.52 5.54-1.96 7.75-.48-13.19-6.39-15.48-15.27-5.78Zm66.09 112.33c13.47 3.52 15.9 22.43 1.59 26.95-3.86 1.18-8 .82-11.35-.86 3.74.06 7.24-.55 10.21-2.04 10.79-5.28 7.89-17.65-.45-24.05" class="cls-5eid1"/><path d="M881.05 1207.97c10.63 1.29 14.65 15.53 1.97 17.22-2.83.22-5.54-.52-7.75-1.96 13.19-.47 15.48-6.39 5.78-15.26m-113.61 65.15c-3.42 13.49-22.32 16.05-26.94 1.77-1.2-3.85-.87-7.99.79-11.35-.03 3.74.6 7.24 2.11 10.2 5.36 10.75 17.7 7.77 24.04-.62" class="cls-5eid1"/><path d="M764.23 1267.47c-1.22 10.64-15.43 14.75-17.21 2.09-.24-2.83.48-5.55 1.9-7.77.56 13.19 6.49 15.44 15.3 5.68Zm-65.74-111.68c-13.09-4.73-13.79-23.78.87-26.98 3.95-.82 8.04-.09 11.22 1.89-3.72-.4-7.26-.11-10.36 1.1-11.23 4.28-9.46 16.86-1.74 23.99Z" class="cls-5eid1"/><path d="M704.43 1153.15c-10.47-2.25-13.17-16.8-.4-17.33 2.84.04 5.47 1.02 7.54 2.65-13.18-.73-16 4.96-7.14 14.68m170.71-19.66c10.04 1.45 20.25 1.17 30.14-.97-5.62 8.49-9.56 17.94-11.77 27.89-1.14-9.08 1.38-18.43 6.1-26.2l2.03 2.98c-8.92 1.55-18.46.54-26.51-3.7Zm-166.92 97.55c-9.57-3.37-19.65-5.05-29.76-4.87 7.15-7.25 12.84-15.75 16.94-25.09-.63 9.13-4.91 17.82-11.05 24.53l-1.42-3.32c9.05.21 18.22 3.03 25.29 8.75m139.92 32.73c-.82 2.09-1.66 4.12-2.36 6.19-.74 2.05-1.36 4.13-1.92 6.2-1.09 4.16-1.85 8.36-2.2 12.6l-.37 4.38-3.03-3.19a69 69 0 0 0-4.63-4.43c-1.61-1.42-3.3-2.73-5.03-4.03a85 85 0 0 0-5.42-3.62c-1.86-1.17-3.8-2.22-5.77-3.33 2.25.27 4.44.85 6.6 1.56 2.14.75 4.25 1.65 6.25 2.76 2.03 1.07 3.94 2.34 5.76 3.74s3.53 2.95 5.12 4.61l-3.41 1.19c.4-4.55 1.47-9.05 3.24-13.25.86-2.1 1.91-4.12 3.1-6.04 1.22-1.9 2.54-3.73 4.1-5.35Z" class="cls-5eid1"/><path d="M639.56 45.64c.32-.16.63-.31.95-.46 19.21-8.95 42.43-1.99 53.4 16.64 11.66 19.81 5.05 45.32-14.76 56.99s-45.32 5.05-56.99-14.76a42.4 42.4 0 0 1-3.53-7.66c9.63 13.22 27.92 17.23 42.31 8.76 15.31-9.01 20.42-28.74 11.41-44.05-6.91-11.74-20.12-17.48-32.8-15.46Z" class="cls-5eid6"/><path d="M639.56 45.64c.32-.16.63-.31.95-.46a40 40 0 0 1 1.77-.53c15.97-4.35 33.66 2.53 42.64 17.79 10.72 18.2 4.98 41.45-12.8 51.92s-40.89 4.2-51.6-14c-.18-.31-.36-.62-.53-.93a27 27 0 0 1-.74-1.4c-.21-.54-.41-1.08-.6-1.63 9.63 13.22 27.92 17.23 42.31 8.76 15.31-9.01 20.42-28.74 11.41-44.05-6.91-11.74-20.12-17.48-32.8-15.46Z" class="cls-5eid3"/><path d="M639.56 45.64c.32-.16.63-.31.95-.46a40 40 0 0 1 1.77-.53c12.79-1.43 25.82 4.58 32.77 16.38 9.43 16.02 4.09 36.65-11.94 46.09-14.51 8.54-32.81 4.97-43.13-7.69a27 27 0 0 1-.74-1.4c-.21-.54-.41-1.08-.6-1.63 9.63 13.22 27.92 17.23 42.31 8.76 15.31-9.01 20.42-28.74 11.41-44.05-6.91-11.74-20.12-17.48-32.8-15.46Z" class="cls-5eid2"/><path d="M576.84 1032.09c-.05.73-.11 1.46-.18 2.18-4.2 43.6-40.95 77.69-85.66 77.69-47.53 0-86.06-38.53-86.06-86.06s38.53-86.06 86.06-86.06c4.7 0 9.31.38 13.81 1.11 1.19.19 2.37.4 3.53.64-33.67 3.29-59.98 31.68-59.98 66.21 0 36.74 29.79 66.53 66.53 66.53 28.17 0 52.25-17.51 61.95-42.23Z" class="cls-5eid6"/><path d="M576.84 1032.09c-.05.73-.11 1.46-.18 2.18-.28 1.24-.58 2.48-.91 3.7-9 33.01-39.81 57.31-76.41 57.31-43.67 0-79.07-34.59-79.07-77.26s35.4-77.26 79.07-77.26c.74 0 1.47.01 2.2.03q1.65.03 3.27.15c1.19.19 2.37.4 3.53.64-33.67 3.29-59.98 31.68-59.98 66.21 0 36.74 29.79 66.53 66.53 66.53 28.17 0 52.25-17.51 61.95-42.23" class="cls-5eid3"/><path d="M576.84 1032.09c-.05.73-.11 1.46-.18 2.18-.28 1.24-.58 2.48-.91 3.7-10.87 24.28-35.24 41.2-63.56 41.2-38.44 0-69.59-31.16-69.59-69.6 0-34.82 25.56-63.66 58.95-68.78q1.65.03 3.27.15c1.19.19 2.37.4 3.53.64-33.67 3.29-59.98 31.68-59.98 66.21 0 36.74 29.79 66.53 66.53 66.53 28.17 0 52.25-17.51 61.95-42.23Z" class="cls-5eid2"/><path d="M406.36 410.59v16.95c0-.4-.02-.79-.07-1.18a9.1 9.1 0 0 0-.79-2.8 9.7 9.7 0 0 0-2.04-2.93c-.28-.28-.58-.53-.89-.77a9.9 9.9 0 0 0-3.96-1.85 10.1 10.1 0 0 0-4.3 0c-3.09.67-5.64 2.77-6.89 5.55a9.6 9.6 0 0 0-.85 3.97v105.06h-3.55V427.53c0-1.42-.31-2.76-.86-3.97a9.7 9.7 0 0 0-2.04-2.93 9.97 9.97 0 0 0-7-2.85c-.74 0-1.46.08-2.15.23a9.87 9.87 0 0 0-6.89 5.55 9.6 9.6 0 0 0-.85 3.97v105.06h-3.55V427.53c0-1.42-.31-2.76-.85-3.97-.5-1.1-1.19-2.09-2.05-2.93a9.97 9.97 0 0 0-7-2.85c-.73 0-1.46.08-2.15.23-3.09.67-5.64 2.77-6.89 5.55a9.6 9.6 0 0 0-.85 3.97v105.06h-3.55V427.53c0-1.42-.31-2.76-.85-3.97-.5-1.1-1.19-2.09-2.05-2.93a9.97 9.97 0 0 0-7-2.85c-.73 0-1.45.08-2.15.23a9.8 9.8 0 0 0-3.84 1.77 9.76 9.76 0 0 0-3.05 3.78c-.3.66-.52 1.36-.67 2.08-.13.61-.19 1.24-.19 1.89v-16.95c0-3.34 2.71-6.12 6.23-6.4 6.08-.49 15.3-2.42 23.85-9.07a40.4 40.4 0 0 0 9.27-10.12c2.68-4.17 9.08-4.2 11.68.02a38.8 38.8 0 0 0 7.61 8.98c8.69 7.58 18.65 9.68 25.02 10.19 3.5.28 6.18 3.07 6.18 6.4Z" class="cls-5eid6"/><path d="M406.36 507.77v16.96c0 3.34-2.71 6.12-6.24 6.39-6.08.49-15.3 2.42-23.85 9.08a40 40 0 0 0-9.27 10.12c-2.67 4.16-9.08 4.19-11.67-.02a38.8 38.8 0 0 0-7.62-8.97c-8.69-7.58-18.65-9.68-25.02-10.2-3.5-.28-6.18-3.07-6.18-6.39v-16.96c0 .64.06 1.27.19 1.88.16.82.43 1.61.78 2.35a9.84 9.84 0 0 0 2.94 3.55 9.93 9.93 0 0 0 5.99 1.99c3.93 0 7.33-2.26 8.93-5.54.62-1.28.97-2.71.97-4.23V402.73h3.55v105.05c0 1.51.35 2.95.97 4.23a9.91 9.91 0 0 0 8.93 5.54c3.93 0 7.33-2.26 8.93-5.54.62-1.28.97-2.71.97-4.23V402.73h3.55v105.05c0 1.51.34 2.95.97 4.23.48 1 1.14 1.9 1.92 2.68a9.93 9.93 0 0 0 7 2.86c3.93 0 7.33-2.26 8.93-5.54.62-1.28.97-2.71.97-4.23V402.73h3.55v105.05c0 1.51.35 2.95.98 4.23.48 1 1.14 1.9 1.92 2.68a9.9 9.9 0 0 0 7 2.86c2.31 0 4.43-.78 6.11-2.08 1.18-.91 2.16-2.1 2.82-3.45a9.5 9.5 0 0 0 .97-4.22Z" class="cls-5eid6"/><path d="M316.71 414.3v110.29h89.58V414.3zm85.86 106.58h-82.14V418.02h82.14z" class="cls-5eid6"/><path d="M320.42 423.57V512h-3.9v-4.23c0 .64.06 1.27.19 1.88v-84c-.13.61-.19 1.24-.19 1.89v-3.97zm19.44 84.2c0 1.51.35 2.95.97 4.23h-5.5c.62-1.28.97-2.71.97-4.23v-80.23c0-1.42-.31-2.76-.85-3.97h5.26a9.6 9.6 0 0 0-.85 3.97zm23.35 0c0 1.51.34 2.95.97 4.23h-5.5c.62-1.28.97-2.71.97-4.23v-80.23c0-1.42-.31-2.76-.85-3.97h5.26a9.6 9.6 0 0 0-.85 3.97zm23.35 0c0 1.51.35 2.95.98 4.23h-5.51c.62-1.28.97-2.71.97-4.23v-80.23c0-1.42-.31-2.76-.86-3.97h5.27a9.6 9.6 0 0 0-.85 3.97zm19.72-81.4v82.59c.05-.39.07-.78.07-1.18v4.23h-3.79v-88.43h3.79v3.97c0-.4-.02-.79-.07-1.18" class="cls-5eid4"/><path d="M1014.93 923.77v16.95c0-.4-.02-.79-.07-1.18a9.1 9.1 0 0 0-.79-2.8 9.7 9.7 0 0 0-2.04-2.93c-.28-.28-.58-.53-.89-.77a9.9 9.9 0 0 0-3.96-1.85 10.1 10.1 0 0 0-4.3 0c-3.09.67-5.64 2.77-6.89 5.55a9.6 9.6 0 0 0-.85 3.97v105.06h-3.55V940.71c0-1.42-.31-2.76-.86-3.97a9.7 9.7 0 0 0-2.04-2.93 9.97 9.97 0 0 0-7-2.85c-.74 0-1.46.08-2.15.23a9.87 9.87 0 0 0-6.89 5.55 9.6 9.6 0 0 0-.85 3.97v105.06h-3.55V940.71c0-1.42-.31-2.76-.85-3.97-.5-1.1-1.19-2.09-2.05-2.93a9.97 9.97 0 0 0-7-2.85c-.73 0-1.46.08-2.15.23-3.09.67-5.64 2.77-6.89 5.55a9.6 9.6 0 0 0-.85 3.97v105.06h-3.55V940.71c0-1.42-.31-2.76-.85-3.97-.5-1.1-1.19-2.09-2.05-2.93a9.97 9.97 0 0 0-7-2.85c-.73 0-1.45.08-2.15.23a9.8 9.8 0 0 0-3.84 1.77 9.76 9.76 0 0 0-3.05 3.78c-.3.66-.52 1.36-.67 2.08-.13.61-.19 1.24-.19 1.89v-16.95c0-3.34 2.71-6.12 6.23-6.4 6.08-.49 15.3-2.42 23.85-9.07a40.4 40.4 0 0 0 9.27-10.12c2.68-4.17 9.08-4.2 11.68.02a38.8 38.8 0 0 0 7.61 8.98c8.69 7.58 18.65 9.68 25.02 10.19 3.5.28 6.18 3.07 6.18 6.4Z" class="cls-5eid6"/><path d="M1014.93 1020.95v16.96c0 3.34-2.71 6.12-6.24 6.39-6.08.49-15.3 2.42-23.85 9.08a40 40 0 0 0-9.27 10.12c-2.67 4.16-9.08 4.19-11.67-.02a38.8 38.8 0 0 0-7.62-8.97c-8.69-7.58-18.65-9.68-25.02-10.2-3.5-.28-6.18-3.07-6.18-6.39v-16.96c0 .64.06 1.27.19 1.88.16.82.43 1.61.78 2.35a9.84 9.84 0 0 0 2.94 3.55 9.93 9.93 0 0 0 5.99 1.99c3.93 0 7.33-2.26 8.93-5.54.62-1.28.97-2.71.97-4.23V915.91h3.55v105.05c0 1.51.35 2.95.97 4.23a9.91 9.91 0 0 0 8.93 5.54c3.93 0 7.33-2.26 8.93-5.54.62-1.28.97-2.71.97-4.23V915.91h3.55v105.05c0 1.51.34 2.95.97 4.23.48 1 1.14 1.9 1.92 2.68a9.93 9.93 0 0 0 7 2.86c3.93 0 7.33-2.26 8.93-5.54.62-1.28.97-2.71.97-4.23V915.91h3.55v105.05c0 1.51.35 2.95.98 4.23.48 1 1.14 1.9 1.92 2.68a9.9 9.9 0 0 0 7 2.86c2.31 0 4.43-.78 6.11-2.08 1.18-.91 2.16-2.1 2.82-3.45a9.5 9.5 0 0 0 .97-4.22Z" class="cls-5eid6"/><path d="M925.28 927.48v110.29h89.58V927.48zm85.86 106.58H929V931.2h82.14z" class="cls-5eid6"/><path d="M929 936.75v88.43h-3.9v-4.23c0 .64.06 1.27.19 1.88v-84c-.13.61-.19 1.24-.19 1.89v-3.97zm19.44 84.2c0 1.51.35 2.95.97 4.23h-5.5c.62-1.28.97-2.71.97-4.23v-80.23c0-1.42-.31-2.76-.85-3.97h5.26a9.6 9.6 0 0 0-.85 3.97zm23.35 0c0 1.51.34 2.95.97 4.23h-5.5c.62-1.28.97-2.71.97-4.23v-80.23c0-1.42-.31-2.76-.85-3.97h5.26a9.6 9.6 0 0 0-.85 3.97zm23.34 0c0 1.51.35 2.95.98 4.23h-5.51c.62-1.28.97-2.71.97-4.23v-80.23c0-1.42-.31-2.76-.86-3.97h5.27a9.6 9.6 0 0 0-.85 3.97zm19.73-81.41v82.59c.05-.39.07-.78.07-1.18v4.23h-3.79v-88.43h3.79v3.97c0-.4-.02-.79-.07-1.18" class="cls-5eid4"/></svg>