<svg xmlns="http://www.w3.org/2000/svg" viewBox="0 0 2000 2000" width="300" height="300" fill="none"><defs><style>.cls-eid61{fill:#2e0249}.cls-eid62{fill:#d390cc}.cls-eid63{fill:#47023d}</style></defs><path d="M1449.54 1891.44H550.47c-55.09 0-99.92-44.82-99.92-99.91V678.69c0-55.09 44.82-99.92 99.92-99.92h899.07c55.09 0 99.92 44.82 99.92 99.92v1112.83c0 55.09-44.82 99.91-99.92 99.91ZM550.46 616.21c-34.46 0-62.49 28.03-62.49 62.49v1112.83c0 34.45 28.03 62.48 62.49 62.48h899.07c34.46 0 62.49-28.03 62.49-62.48V678.69c0-34.45-28.03-62.49-62.49-62.49H550.46Z" class="cls-eid61"/><path d="m764.553 586.922 4.41-.068.114 7.349-4.41.068zm-.203-14.582-.23-14.53 4.41-.07.23 14.53zm-.45-29.06-.23-14.53 4.41-.07.23 14.53zm-.45-29.06-.23-14.53 4.41-.07.23 14.53zm-.45-29.06-.23-14.53 4.41-.07.23 14.53zm-.45-29.06-.23-14.53 4.41-.07.23 14.53zm-.45-29.06-.23-14.53 4.41-.07.23 14.53zm-.45-29.06-.23-14.53 4.41-.07.23 14.53zm-.585-36.41 4.41-.069.115 7.35-4.41.068zm289.615 417.9-.11-7.29 2.2-.09 2.21-.04.11 7.35zm-.34-21.88-.23-14.53 4.41-.07.23 14.53zm-.45-29.06-.23-14.53 4.41-.07.23 14.53zm-.45-29.06-.23-14.53 4.41-.07.23 14.53zm-.45-29.06-.23-14.53 4.41-.07.23 14.53zm-.45-29.06-.23-14.53 4.41-.07.23 14.53zm-.45-29.06-.23-14.53 4.41-.07.23 14.53zm-.45-29.06-.23-14.53 4.41-.07.23 14.53zm-.48-29.07-.11-7.35 4.41-.07.11 7.3z" class="cls-eid63"/><path d="M1283.7 448.59c-35.42 97.55-125.26 170.43-235.46 178.92-11.29.87-22.47 1.04-33.5.54-21.59-.97-42.59-4.48-62.7-10.26-31.22-8.97-60.28-23.41-85.98-42.28-.89-.64-1.76-1.29-2.63-1.95a269 269 0 0 1-19.08-15.76 188 188 0 0 1-3.59-3.31c-2.72-2.55-5.39-5.16-8-7.82-.82-.83-1.63-1.67-2.44-2.51-22.84-23.84-41.45-51.9-54.5-83.03-10.99-26.22-18.04-54.63-20.34-84.53-8.96-116.43 56.58-221.39 156.48-268.04-39.95 48.54-61.92 111.99-56.71 179.62 3.42 44.46 18.17 85.33 41.2 120.01 27.58 41.53 67.03 74.18 113.13 93.46 35.67 14.92 75.33 21.83 116.53 18.66 61.78-4.76 116.65-31.39 157.58-71.73Z" class="cls-eid61"/><path d="M834.44 819.38c-1.7.22-2.42-.41-2.25-2.19.13-1.31-.09-2.65-1.88-2.51-1.8.14-1.76-.95-1.76-2.19 0-9.15-.03-18.29-.03-27.44v-90.26c0-9.15.03-18.29.03-27.44 0-1.25-.04-2.34 1.76-2.19 1.8.14 2.01-1.2 1.88-2.51-.17-1.78.54-2.41 2.25-2.19 1.93.25 2.42-.8 2.33-2.51-.08-1.55-.13-3.11-.01-4.65.17-2.09-.77-2.69-2.73-2.65-4.88.1-9.77-.05-14.64.1-1.87.06-2.63-.6-2.89-2.37-.34-2.4-1.29-4.61-2.37-6.77-3.89-7.82-10.22-13.34-17.18-18.25-6.07-4.28-12.62-7.65-19.42-10.56v-8.74c0-3.05-1.55-5.75-3.9-7.34v-11.43c0-3.72-3.02-6.74-6.74-6.74s-6.74 3.02-6.74 6.74v11.43a8.85 8.85 0 0 0-3.9 7.34v8.79c-9.7 4.04-18.73 9.23-26.62 16.28-6.02 5.37-10.75 11.58-12.41 19.69-.32 1.53-1.09 1.92-2.57 1.89-5.04-.07-10.07.03-15.11-.01-1.73-.02-2.61.55-2.5 2.42.1 1.62.09 3.26.02 4.88-.08 1.76.59 2.7 2.43 2.44s2.29.64 2.15 2.28c-.09 1.02.06 2.42 1.29 2.32 2.87-.23 2.4 1.61 2.4 3.28v143.19c0 1.66.47 3.51-2.4 3.28-1.24-.1-1.38 1.3-1.29 2.32.15 1.64-.31 2.54-2.15 2.28-1.85-.26-2.51.68-2.43 2.44.07 1.63.08 3.26-.02 4.88-.11 1.86.77 2.44 2.5 2.42 5.04-.04 10.08.06 15.11-.01.39 0 .73.02 1.03.09.82.18 1.31.68 1.54 1.81 1.67 8.11 6.39 14.31 12.41 19.69 5.17 4.62 10.82 8.43 16.83 11.65 6.24 2.19 13.12 3.4 20.34 3.4s14.54-1.29 20.94-3.61c3.17-1.71 6.25-3.59 9.21-5.67 6.96-4.91 13.29-10.43 17.18-18.25 1.08-2.16 2.03-4.37 2.37-6.77.18-1.21.59-1.9 1.42-2.2.39-.14.87-.19 1.46-.17 4.88.14 9.76 0 14.64.1 1.96.04 2.89-.56 2.73-2.65-.12-1.54-.07-3.1.01-4.65.09-1.7-.4-2.76-2.33-2.51Zm-116.53-42.79v-73.3c0-9.06 2.07-17.57 6.23-25.47v124.25c-.21-.39-.41-.79-.61-1.19-3.76-7.56-5.62-15.67-5.63-24.28Zm19 12.9c-1.31 5.55-3.5 10.85-6.62 15.9-1.04 1.68-1.58 2.52-2.13 2.52V671.97c.54 0 1.09.84 2.13 2.52 5.55 9.01 8.15 18.83 8.15 29.38v.38h-.01c-.05 11.9-.02 23.8-.02 35.69 0 11.9-.02 23.79.02 35.69h.01v.38c0 4.64-.5 9.13-1.53 13.48m21.64 11.03c-4.11-4.97-7.38-10.35-8.77-16.46-.47-2.07-.73-4.21-.74-6.45-.03-12.56-.03-25.12-.03-37.68s0-25.12.03-37.68c.02-8.89 4-16.26 9.51-22.91 1.72-2.08 3.62-4 5.66-5.77v132.7a49 49 0 0 1-5.66-5.77Zm25.38-16.43c-1.97 8.3-6.76 15.13-13.19 21.17V674.62c8.49 7.97 14.12 17.32 14.19 29.63h-.04c0 1.18 0 2.36-.01 3.54-.18 10.71-.01 21.43-.01 32.15s-.17 21.44.01 32.15c0 1.18 0 2.36.01 3.54h.04c-.02 2.99-.36 5.8-1 8.46m12.9 5.48a44.2 44.2 0 0 1-1.22-9.95c-.1-13.23-.13-26.45-.15-39.68.02-13.23.06-26.45.15-39.68.07-9.85 3.44-18.79 8.71-27.07.04-.06.08-.11.11-.17v133.83c-.04-.06-.08-.11-.11-.17-3.44-5.4-6.07-11.08-7.5-17.11Zm19.11-13.44c0 8.87-1.86 17.18-5.72 24.93-.54 1.1-1.13 2.18-1.75 3.26V675.57c5.05 8.66 7.47 18.07 7.47 28.18v35.11h.04v2.16h-.04zm284.3 160.83c-1.19.15-1.69-.29-1.57-1.53.09-.92-.06-1.85-1.32-1.75s-1.23-.66-1.23-1.54c0-6.41-.02-12.81-.02-19.21v-63.16c0-6.4.02-12.8.02-19.21 0-.87-.03-1.64 1.23-1.54s1.41-.84 1.32-1.75c-.12-1.24.38-1.68 1.57-1.53 1.35.18 1.7-.56 1.63-1.75-.06-1.08-.09-2.18 0-3.25.12-1.46-.54-1.88-1.91-1.86-3.42.07-6.84-.03-10.25.07-1.31.04-1.84-.42-2.02-1.66-.24-1.68-.9-3.22-1.66-4.74-2.72-5.48-7.15-9.34-12.03-12.78-4.25-2.99-8.84-5.35-13.6-7.4v-6.12c0-2.14-1.08-4.02-2.73-5.14v-8c0-2.61-2.11-4.72-4.72-4.72s-4.72 2.11-4.72 4.72v8c-1.65 1.11-2.73 3-2.73 5.14v6.15c-6.79 2.83-13.11 6.46-18.64 11.39-4.21 3.76-7.52 8.11-8.69 13.78-.22 1.07-.76 1.34-1.8 1.33-3.53-.05-7.05.02-10.58 0-1.21-.01-1.83.39-1.75 1.69.07 1.13.07 2.28.01 3.42-.05 1.23.41 1.89 1.7 1.71s1.61.45 1.5 1.59c-.06.71.04 1.7.91 1.63 2.01-.16 1.68 1.13 1.68 2.29v100.23c0 1.16.33 2.46-1.68 2.29-.87-.07-.97.91-.91 1.63.1 1.15-.22 1.78-1.5 1.59-1.29-.18-1.76.47-1.7 1.71.05 1.14.06 2.28-.01 3.42-.08 1.3.54 1.71 1.75 1.69 3.53-.03 7.06.04 10.58 0 .28 0 .51.01.72.06.58.12.92.47 1.08 1.26 1.17 5.67 4.48 10.02 8.69 13.78 3.62 3.23 7.58 5.9 11.78 8.15 4.37 1.53 9.18 2.38 14.24 2.38s10.18-.9 14.66-2.53c2.22-1.2 4.37-2.51 6.45-3.97 4.87-3.44 9.31-7.3 12.03-12.78.75-1.51 1.42-3.06 1.66-4.74.12-.85.41-1.33 1-1.54.27-.1.61-.13 1.03-.12 3.41.1 6.83 0 10.25.07 1.37.03 2.03-.39 1.91-1.86-.09-1.08-.05-2.17 0-3.25.07-1.19-.28-1.93-1.63-1.75ZM1018.67 907v-51.32c0-6.34 1.45-12.3 4.36-17.83v86.97c-.14-.28-.29-.55-.42-.83-2.63-5.29-3.94-10.97-3.94-17Zm13.3 9.03c-.92 3.88-2.45 7.6-4.63 11.13-.72 1.17-1.11 1.76-1.49 1.76v-95.16c.38 0 .76.59 1.49 1.76 3.89 6.3 5.71 13.18 5.7 20.57v.27c-.03 8.33-.02 16.66-.01 24.99 0 8.33-.02 16.65.01 24.99v.27c0 3.25-.35 6.39-1.07 9.44Zm15.15 7.72c-2.88-3.48-5.17-7.24-6.14-11.52-.33-1.45-.51-2.95-.51-4.52-.02-8.79-.02-17.58-.02-26.37s0-17.58.02-26.37c.01-6.22 2.8-11.38 6.66-16.04 1.2-1.45 2.53-2.8 3.96-4.04v92.9a33.6 33.6 0 0 1-3.96-4.04Zm17.77-11.5c-1.38 5.81-4.73 10.59-9.23 14.82v-91.45c5.94 5.58 9.88 12.13 9.93 20.74h-.03v2.48c-.13 7.5-.01 15 0 22.51 0 7.5-.12 15.01 0 22.51v2.48h.03c-.01 2.09-.25 4.06-.7 5.92Zm9.03 3.83c-.54-2.25-.83-4.57-.85-6.97-.07-9.26-.09-18.52-.11-27.78.02-9.26.04-18.52.11-27.78.05-6.89 2.41-13.15 6.1-18.95.03-.04.05-.08.08-.12v93.69s-.05-.08-.08-.12c-2.41-3.78-4.25-7.75-5.25-11.98Zm13.37-9.41c0 6.21-1.3 12.03-4 17.45q-.57 1.155-1.23 2.28v-90.13c3.53 6.06 5.23 12.65 5.23 19.73v24.57h.03v1.52h-.03v24.57Zm229.87-137.99c-1.04.13-1.48-.25-1.37-1.34.08-.8-.05-1.62-1.15-1.53s-1.07-.58-1.07-1.34c0-5.59-.02-11.17-.02-16.76v-55.12c0-5.59.02-11.17.02-16.76 0-.76-.02-1.43 1.07-1.34 1.1.09 1.23-.73 1.15-1.53-.1-1.08.33-1.47 1.37-1.34 1.18.15 1.48-.49 1.42-1.53-.05-.95-.08-1.9 0-2.84.1-1.28-.47-1.64-1.67-1.62-2.98.06-5.96-.03-8.94.06-1.14.04-1.61-.37-1.76-1.45-.21-1.46-.79-2.81-1.44-4.13-2.37-4.78-6.24-8.15-10.49-11.14-3.71-2.61-7.71-4.67-11.86-6.45v-5.34c0-1.86-.94-3.51-2.38-4.48v-6.98a4.12 4.12 0 0 0-8.24 0v6.98a5.4 5.4 0 0 0-2.38 4.48v5.37c-5.92 2.47-11.44 5.63-16.26 9.94-3.68 3.28-6.56 7.07-7.58 12.02-.19.94-.67 1.17-1.57 1.16-3.08-.04-6.15.02-9.23 0-1.06-.01-1.6.34-1.53 1.48.06.99.06 1.99.01 2.98-.05 1.07.36 1.65 1.49 1.49 1.12-.16 1.4.39 1.31 1.39-.05.62.03 1.48.79 1.42 1.75-.14 1.47.99 1.47 2v87.43c0 1.01.28 2.14-1.47 2-.76-.06-.84.8-.79 1.42.09 1-.19 1.55-1.31 1.39-1.13-.16-1.53.41-1.49 1.49.04.99.05 1.99-.01 2.98-.07 1.14.47 1.49 1.53 1.48 3.08-.03 6.15.03 9.23 0 .24 0 .45 0 .63.05.5.11.8.41.94 1.1 1.02 4.95 3.9 8.74 7.58 12.02 3.15 2.82 6.61 5.15 10.28 7.11 3.81 1.34 8.01 2.08 12.42 2.08s8.88-.79 12.79-2.21c1.93-1.04 3.81-2.19 5.62-3.46 4.25-3 8.12-6.37 10.49-11.14.66-1.32 1.24-2.67 1.44-4.13.11-.74.36-1.16.87-1.34.24-.09.53-.12.89-.1 2.98.09 5.96 0 8.94.06 1.2.03 1.77-.34 1.67-1.62-.08-.94-.04-1.89 0-2.84.06-1.04-.25-1.68-1.42-1.53ZM1246 742.55v-44.76c0-5.53 1.26-10.73 3.81-15.55v75.87c-.13-.24-.25-.48-.37-.72-2.29-4.62-3.43-9.57-3.44-14.83Zm11.6 7.88c-.8 3.39-2.14 6.63-4.04 9.71-.63 1.02-.97 1.54-1.3 1.54v-83.01c.33 0 .67.51 1.3 1.54 3.39 5.5 4.98 11.5 4.98 17.94v.23c-.03 7.27-.01 14.53-.01 21.8 0 7.26-.01 14.53.01 21.8v.23c0 2.83-.3 5.58-.94 8.23Zm13.21 6.74c-2.51-3.04-4.51-6.32-5.36-10.05a17.5 17.5 0 0 1-.45-3.94c-.02-7.67-.02-15.34-.02-23.01s0-15.34.02-23.01c.01-5.43 2.44-9.93 5.81-13.99 1.05-1.27 2.21-2.44 3.45-3.52v81.03a28.7 28.7 0 0 1-3.45-3.52Zm15.5-10.03c-1.2 5.07-4.13 9.24-8.05 12.92v-79.77c5.18 4.87 8.62 10.58 8.66 18.09h-.02v2.16c-.11 6.54 0 13.09 0 19.63 0 6.55-.1 13.09 0 19.63v2.16h.02c0 1.82-.22 3.54-.61 5.17Zm7.88 3.34a26.6 26.6 0 0 1-.74-6.08c-.06-8.08-.08-16.15-.09-24.23.01-8.08.03-16.15.09-24.23.04-6.01 2.1-11.47 5.32-16.53l.07-.1v81.72l-.07-.1c-2.1-3.3-3.7-6.76-4.58-10.45m11.67-8.21c0 5.41-1.14 10.49-3.49 15.22-.33.67-.69 1.33-1.07 1.99v-78.62c3.08 5.29 4.56 11.03 4.56 17.21v21.44h.02v1.32h-.02z" class="cls-eid63"/><path d="M1273.88 660.98h4.41v7.35h-4.41zm0-14.92v-14.92h4.41v14.92zm0-29.84V601.3h4.41v14.92zm0-29.84v-14.92h4.41v14.92zm0-29.84v-14.92h4.41v14.92zm0-29.84v-14.92h4.41v14.92zm0-29.84v-14.92h4.41v14.92zm-.05-37.2h4.41v7.35h-4.41z" class="cls-eid63"/><path d="M1033.54 706.01h-.12c-4.89 0-9.86-.25-14.77-.75l.44-4.39c4.77.48 9.59.73 14.33.73h.12zm14.9-.79-.47-4.38c4.79-.51 9.6-1.28 14.27-2.29l.93 4.31c-4.83 1.05-9.79 1.84-14.74 2.37Zm-44.54-2.19c-4.83-.97-9.69-2.2-14.46-3.64l1.28-4.22c4.63 1.4 9.36 2.59 14.05 3.54zm73.67-4.13-1.4-4.18c4.55-1.52 9.06-3.32 13.42-5.33l1.85 4c-4.5 2.08-9.16 3.94-13.87 5.51m-102.17-4.49c-4.56-1.85-9.12-3.95-13.53-6.23l2.02-3.92c4.3 2.22 8.73 4.26 13.17 6.06l-1.66 4.08Zm129.22-8.03-2.28-3.78c4.07-2.46 8.1-5.19 11.97-8.11l2.66 3.52c-3.99 3.02-8.14 5.83-12.35 8.37m-155.68-5.6a170 170 0 0 1-12.23-8.49l2.67-3.51c3.85 2.92 7.86 5.71 11.92 8.28l-2.36 3.73Zm179.46-12.34-2.99-3.24c3.49-3.22 6.92-6.7 10.18-10.32l3.27 2.95a164 164 0 0 1-10.47 10.6Zm-203.16-5.65a177 177 0 0 1-10.61-10.42l3.22-3.01c3.3 3.52 6.78 6.94 10.35 10.17l-2.95 3.27Zm223.12-16.42-3.51-2.67c2.89-3.8 5.69-7.81 8.33-11.91l3.71 2.38c-2.7 4.2-5.56 8.3-8.52 12.2Zm-243.44-5.27c-3.06-3.86-6.01-7.91-8.76-12.02l3.67-2.45c2.68 4.01 5.56 7.96 8.54 11.73l-3.46 2.74Zm259.53-19.74-3.88-2.1c2.35-4.35 4.5-8.74 6.41-13.05l4.03 1.78c-1.95 4.42-4.16 8.92-6.56 13.37m-276.04-4.97c-.63-1.13-1.25-2.28-1.86-3.42-2.73.14-5.46.21-8.13.23l-.02-4.41c3.06-.02 6.2-.12 9.32-.3l1.42-.08.66 1.27c.79 1.52 1.62 3.06 2.46 4.57l-3.85 2.15Zm-24.87-3.76c-5.02-.42-10-1.07-14.78-1.95l.79-4.34c4.64.85 9.47 1.49 14.35 1.89l-.37 4.39Zm-29.3-5.42c-4.83-1.44-9.55-3.16-14.05-5.11l1.76-4.04c4.34 1.88 8.9 3.54 13.56 4.93l-1.26 4.23Zm343.42-7.79-.58-4.37a97.6 97.6 0 0 0 14.06-2.92l1.22 4.24c-4.73 1.36-9.67 2.38-14.7 3.05m-370.8-4.14c-2.77-1.65-5.5-3.44-8.11-5.31-1.42-1.02-2.84-2.09-4.22-3.18l2.74-3.46c1.33 1.05 2.7 2.08 4.06 3.06 2.51 1.8 5.13 3.52 7.79 5.11l-2.26 3.79Zm399.57-4.17-1.87-4c4.31-2.01 8.5-4.39 12.45-7.07l2.47 3.65c-4.15 2.81-8.54 5.3-13.06 7.41Zm-423.02-14.35c-3.43-3.51-6.73-7.32-9.79-11.31l3.5-2.68c2.95 3.85 6.13 7.52 9.44 10.91zm447.82-2.4-3-3.24c3.43-3.18 6.75-6.7 9.85-10.48l3.41 2.8c-3.23 3.93-6.68 7.6-10.26 10.92m-466.01-21.25c-2.53-4.19-4.89-8.61-7.03-13.15l3.99-1.88c2.08 4.4 4.37 8.7 6.82 12.75zm485.03-1.79-3.72-2.37c2.52-3.94 4.92-8.18 7.14-12.59l3.94 1.98a146 146 0 0 1-7.36 12.98m-497.76-25.13c-1.65-4.59-3.14-9.37-4.42-14.21l4.26-1.13c1.25 4.72 2.7 9.38 4.31 13.84l-4.15 1.49Zm511.21-1.45-4.1-1.63c1.75-4.39 3.37-9.01 4.84-13.71l4.21 1.31c-1.5 4.81-3.16 9.53-4.95 14.03m-518.84-27.28c-.86-4.81-1.55-9.76-2.06-14.72l4.39-.45c.49 4.84 1.17 9.68 2.01 14.39zm527.72-1.08-4.29-1.02c1.12-4.69 2.1-9.49 2.93-14.28l4.35.75c-.84 4.88-1.85 9.78-2.99 14.56Zm-530.75-28.46a215 215 0 0 1 .06-14.85l4.41.17c-.1 2.75-.16 5.52-.16 8.23 0 2.11.03 4.23.09 6.31l-4.41.13Zm535.8-.83-4.38-.46c.34-3.26.51-5.66.6-7.11l4.4.26c-.09 1.49-.26 3.97-.62 7.31m-530.3-28.37-4.39-.45c.5-4.86 1.17-9.81 1.98-14.71l4.35.72c-.8 4.8-1.45 9.66-1.94 14.43Zm4.76-28.73-4.3-.98c1.09-4.77 2.34-9.6 3.72-14.36l4.23 1.23c-1.36 4.68-2.58 9.42-3.65 14.11m8.1-27.99-4.16-1.46c1.62-4.61 3.4-9.27 5.29-13.84l4.07 1.69c-1.86 4.5-3.61 9.08-5.21 13.62Z" class="cls-eid63"/><path d="M1053.31 584.4c-4.91-.06-9.89-.25-14.81-.56l.28-4.4c4.84.31 9.75.49 14.58.55zm14.81-.21-.18-4.41c4.19-.17 7.46-.4 9.63-.56 1.48-.1 3.13-.22 4.95-.37l.36 4.39c-1.84.15-3.51.27-5 .38-2.19.15-5.51.39-9.76.56Zm-44.38-1.67c-4.9-.57-9.84-1.27-14.67-2.09l.74-4.35c4.76.81 9.61 1.5 14.44 2.06zm73.87-.82-.58-4.37c4.84-.64 9.68-1.41 14.4-2.3l.82 4.33c-4.8.9-9.72 1.69-14.64 2.34m-103.08-4.15c-4.83-1.1-9.66-2.33-14.36-3.68l1.21-4.24c4.62 1.32 9.37 2.54 14.12 3.62zm132.21-1.35-1.06-4.28c4.71-1.17 9.43-2.49 14.03-3.93l1.31 4.21c-4.68 1.46-9.49 2.81-14.28 4m-160.69-6.82c-4.67-1.64-9.32-3.43-13.84-5.32l1.71-4.07c4.44 1.86 9.01 3.62 13.59 5.23zm188.99-2.02-1.57-4.12c4.53-1.72 9.06-3.61 13.44-5.59l1.82 4.02c-4.47 2.03-9.08 3.94-13.69 5.7Zm-216.33-9.46c-4.43-2.19-8.83-4.54-13.08-6.99l2.2-3.82c4.17 2.4 8.49 4.71 12.84 6.86l-1.95 3.95Zm243.33-2.79-2.07-3.89c4.27-2.27 8.52-4.71 12.62-7.25l2.32 3.75a233 233 0 0 1-12.87 7.39M913.02 543.1c-4.1-2.73-8.17-5.62-12.08-8.61l2.67-3.51c3.84 2.93 7.83 5.77 11.85 8.44l-2.44 3.67Zm294.25-3.58-2.56-3.59c3.42-2.43 6.82-5 10.1-7.62.5-.4.99-.79 1.48-1.19l2.78 3.42c-.5.41-1 .81-1.51 1.21-3.34 2.68-6.81 5.29-10.3 7.77Zm-317.83-14.4a231 231 0 0 1-10.87-10.09l3.1-3.13c3.42 3.39 7 6.72 10.66 9.9l-2.89 3.33Zm340.84-4.32-3-3.23c3.54-3.28 7.03-6.72 10.35-10.23l3.2 3.04c-3.39 3.57-6.95 7.08-10.56 10.43Zm-361.89-16.56c-3.26-3.7-6.44-7.54-9.45-11.44l3.49-2.69c2.94 3.82 6.06 7.59 9.26 11.22l-3.31 2.92Zm382.32-4.94-3.38-2.83c3.09-3.7 6.12-7.55 8.99-11.46l3.55 2.61c-2.92 3.98-6 7.9-9.16 11.67Zm-400.43-18.55c-2.73-4.08-5.37-8.31-7.85-12.59l3.81-2.21a226 226 0 0 0 7.7 12.34l-3.66 2.45Zm418-5.34-3.71-2.39c1.89-2.92 3.73-5.94 5.49-8.95l3.81 2.22c-1.79 3.07-3.67 6.13-5.59 9.11ZM835.4 455.1c-2.18-4.38-4.26-8.91-6.2-13.47l4.06-1.72c1.9 4.48 3.94 8.93 6.08 13.23l-3.95 1.97Zm-11.57-27.29c-1.64-4.59-3.17-9.33-4.57-14.1l4.23-1.24c1.38 4.68 2.89 9.35 4.5 13.86l-4.15 1.48Zm-8.37-28.42c-1.12-4.73-2.15-9.61-3.04-14.49l4.34-.8c.89 4.81 1.89 9.61 3 14.28l-4.29 1.02Zm-5.37-29.12c-.65-4.84-1.2-9.79-1.64-14.71l4.39-.39c.43 4.86.97 9.74 1.61 14.51l-4.37.59Zm-2.62-29.48c-.22-4.88-.33-9.85-.34-14.79h4.41c.01 4.87.13 9.78.34 14.6l-4.41.2Zm4.34-29.41-4.41-.17c.19-4.92.49-9.89.88-14.76l4.39.35c-.39 4.82-.68 9.72-.87 14.58Zm2.35-29.11-4.38-.54c.64-5.15 1.38-10.08 2.19-14.65l4.34.77c-.8 4.5-1.53 9.36-2.16 14.43Zm5.28-28.63-4.27-1.09a279 279 0 0 1 4.04-14.25l4.21 1.32c-1.45 4.61-2.78 9.33-3.98 14.02m8.71-27.81-4.13-1.54c1.72-4.6 3.58-9.22 5.55-13.73l4.04 1.76c-1.93 4.44-3.77 8.99-5.46 13.52Zm11.62-26.73-3.95-1.97c2.18-4.38 4.52-8.78 6.95-13.08l3.84 2.17c-2.39 4.24-4.69 8.57-6.84 12.88m14.33-25.4-3.73-2.36c2.62-4.14 5.39-8.29 8.23-12.31l3.6 2.54a301 301 0 0 0-8.1 12.13m16.8-23.85-3.48-2.71c3.01-3.86 6.16-7.71 9.38-11.46l3.34 2.87c-3.17 3.69-6.28 7.49-9.25 11.29Z" class="cls-eid62"/><path d="M1108.44 647.62c-4.7 0-9.5-.2-14.24-.58l.36-4.39c4.63.38 9.3.57 13.88.57h.61l.02 4.41h-.63Zm15.5-.71-.41-4.39c4.83-.45 9.66-1.11 14.35-1.99l.81 4.33c-4.83.9-9.8 1.59-14.76 2.05Zm-44.51-1.7c-4.85-.8-9.75-1.82-14.56-3.01l1.06-4.28c4.7 1.17 9.48 2.16 14.22 2.94zm73.77-3.77-1.22-4.24c4.65-1.34 9.26-2.92 13.69-4.69l1.64 4.09c-4.57 1.83-9.31 3.45-14.11 4.83Zm-102.61-3.4c-4.67-1.56-9.35-3.32-13.91-5.24l1.71-4.06c4.46 1.88 9.03 3.6 13.6 5.12zm130.27-7.68-2.05-3.9c4.27-2.25 8.44-4.74 12.41-7.41l2.46 3.66c-4.1 2.76-8.41 5.33-12.82 7.65m-157.65-3.84a199 199 0 0 1-12.97-7.26l2.29-3.77c4.14 2.52 8.41 4.91 12.69 7.1l-2.01 3.92Zm182.37-12.82-2.85-3.36c3.65-3.09 7.18-6.43 10.49-9.93l3.2 3.03c-3.42 3.61-7.07 7.07-10.84 10.26m-207.74-2.62c-1.86-1.32-3.72-2.7-5.55-4.09-2.02.26-4.05.51-6.06.73l-.47-4.38c2.28-.25 4.58-.53 6.86-.83l.91-.12.73.56c2.01 1.55 4.08 3.08 6.15 4.55l-2.56 3.59Zm-38.7-1.88c-.83 0-1.67 0-2.52-.01l.05-4.41c.83 0 1.66.01 2.47.01 3.98 0 8.05-.1 12.09-.31l.22 4.4c-4.11.21-8.25.31-12.31.31Zm-17.35-.65c-4.99-.38-9.96-.94-14.76-1.65l.65-4.36c4.7.7 9.56 1.24 14.45 1.61l-.33 4.4Zm-29.37-4.4c-4.89-1.12-9.72-2.45-14.35-3.94l1.35-4.2c4.51 1.45 9.22 2.75 13.99 3.84zm-28.31-9.17c-4.6-1.98-9.11-4.18-13.39-6.56l2.14-3.86c4.16 2.3 8.53 4.45 12.99 6.36l-1.74 4.05Zm341.97-2.93-3.51-2.67c2.88-3.79 5.62-7.81 8.15-11.95l3.76 2.3c-2.61 4.27-5.43 8.42-8.41 12.32Zm-368.01-11.54c-2.88-2.02-5.71-4.18-8.41-6.4-1.11-.92-2.23-1.87-3.32-2.83l2.91-3.31c1.05.93 2.14 1.85 3.21 2.73 2.62 2.16 5.36 4.24 8.14 6.2zm383.56-13.86-3.96-1.93c2.08-4.28 4.01-8.76 5.75-13.32l4.12 1.57a168 168 0 0 1-5.9 13.68Zm-405.95-5.8c-3.32-3.63-6.51-7.5-9.48-11.52l3.55-2.62c2.88 3.89 5.97 7.65 9.19 11.16l-3.25 2.98Zm416.56-22-4.24-1.22c1.33-4.62 2.49-9.37 3.46-14.11l4.32.88c-.99 4.86-2.18 9.73-3.54 14.46Zm-434.29-1.94c-2.49-4.18-4.85-8.6-7.02-13.12l3.98-1.9c2.11 4.41 4.41 8.71 6.83 12.77l-3.79 2.26Zm-12.87-26.8a200 200 0 0 1-4.75-14.08l4.23-1.26c1.4 4.71 2.97 9.34 4.65 13.76l-4.12 1.57Zm453.06-.43-4.38-.52c.25-2.09.45-4.09.61-6.13l4.39.35c-.16 2.1-.37 4.16-.62 6.3m-461.56-28.01c-1.07-4.7-2.02-9.6-2.84-14.55l4.35-.72c.8 4.86 1.74 9.67 2.79 14.29l-4.3.97Zm-4.85-29.22c-.53-4.81-.96-9.77-1.27-14.75l4.4-.27c.31 4.91.73 9.8 1.25 14.54zm-1.87-29.54c-.04-2.3-.06-4.62-.06-6.91 0-2.61.03-5.26.08-7.88l4.41.09c-.05 2.59-.08 5.21-.08 7.79 0 2.26.02 4.56.06 6.83zm5-29.3-4.4-.25c.28-4.85.65-9.8 1.1-14.73l4.39.4a412 412 0 0 0-1.09 14.58m2.67-29.13-4.38-.55c.6-4.82 1.3-9.74 2.06-14.63l4.36.68c-.76 4.84-1.45 9.71-2.04 14.49Zm4.5-28.93-4.34-.79c.88-4.82 1.89-9.7 2.98-14.49l4.3.99a352 352 0 0 0-2.95 14.3Zm6.52-28.45-4.25-1.17c1.31-4.73 2.74-9.49 4.26-14.17l4.19 1.36c-1.5 4.61-2.91 9.32-4.2 13.98" class="cls-eid62"/><path d="m671.88 464.58 7.77 15.74 17.37 2.53-12.57 12.25 2.97 17.3-15.54-8.17-15.53 8.17 2.96-17.3-12.57-12.25 17.37-2.53zm509.59 193.37 7.32 14.83 16.36 2.38-11.84 11.55 2.8 16.3-14.64-7.7-14.64 7.7 2.8-16.3-11.85-11.55 16.37-2.38zM1040.65 450.3l5.68 11.52 12.71 1.85-9.19 8.96 2.17 12.66-11.37-5.97-11.37 5.97 2.17-12.66-9.2-8.96 12.71-1.85zm139.71-70.44 7.66 15.52 17.13 2.49-12.39 12.09 2.92 17.06-15.32-8.05-15.33 8.05 2.93-17.06-12.4-12.09 17.14-2.49z" class="cls-eid63"/><path d="m1333.26 513.15 7.32 14.83 16.36 2.38-11.84 11.54 2.8 16.3-14.64-7.69-14.64 7.69 2.8-16.3-11.85-11.54 16.37-2.38zm-235.47 226.78 4.05 8.21 9.06 1.32-6.55 6.39 1.55 9.02-8.11-4.26-8.1 4.26 1.55-9.02-6.56-6.39 9.06-1.32zm-219.61 8.29 6.92 14.02 15.47 2.25-11.2 10.91 2.65 15.42-13.84-7.28-13.85 7.28 2.65-15.42-11.2-10.91 15.48-2.25zM629.62 629.13l5.29 10.72 11.83 1.72-8.56 8.34 2.02 11.79-10.58-5.57-10.58 5.57 2.02-11.79-8.56-8.34 11.83-1.72zm91.69-285.74 5.3 10.72 11.83 1.72-8.56 8.34 2.02 11.79-10.59-5.57-10.58 5.57 2.02-11.79-8.56-8.34 11.83-1.72zm212.27-11.89 4.55 9.22 10.17 1.48-7.36 7.17 1.74 10.13-9.1-4.78-9.1 4.78 1.74-10.13-7.36-7.17 10.17-1.48z" class="cls-eid61"/><path d="m940.6 695.32 4.55 9.22 10.18 1.48-7.36 7.17 1.74 10.14-9.11-4.79-9.1 4.79 1.74-10.14-7.36-7.17 10.17-1.48z" class="cls-eid63"/></svg>