<svg xmlns="http://www.w3.org/2000/svg" viewBox="0 0 2000 2000" width="300" height="300" fill="none"><defs><style>.cls-6fat1{fill:#fff}.cls-6fat3{fill:#2180aa}</style></defs><path d="M1646.26 1735.61H415c-65.13 0-118.12-52.99-118.12-118.12V253.68c0-65.13 52.99-118.12 118.12-118.12h1231.25c65.13 0 118.12 52.99 118.12 118.12V1617.5c0 65.13-52.99 118.12-118.12 118.12ZM415 182.44c-39.28 0-71.23 31.96-71.23 71.23v1363.82c0 39.28 31.96 71.23 71.23 71.23h1231.25c39.28 0 71.23-31.96 71.23-71.23V253.68c0-39.28-31.96-71.23-71.23-71.23H415Z" style="fill:#00517c"/><path d="M826.78 1861.26c-1.05-1.76-8.24-18.68-22.62-52.52-28.02-65.94-41.94-98.95-48.42-118.59-21.31-64.57-7.11-61.32-29.95-142.38-16.14-57.28-30.72-85.52-17.78-97.76 11.44-10.81 38.49-3.61 56.56 6.46 74.51 41.53 54.83 164.46 98.57 175.33 25.01 6.21 53.33-28.54 73.52-53.33 22.19-27.24 55.46-77.27 117.96-263.39 6-17.86 18.43-55.34 41.21-58.17 9.98-1.24 20.83 4.46 27.47 12.12 23.89 27.55-7.68 79.55-34.94 203.14-10.01 45.39-9.21 54.07-7.07 54.77 8.82 2.87 72.62-119.48 113.11-197.14 10.74-20.59 29.5-56.81 52.45-55.65 15.1.77 25.35 17.38 25.92 18.31 18.38 30.13-10.93 71.76-58.17 173.88-21.38 46.22-50.59 109.36-42.51 114.34 2.62 1.62 10.11-2.31 56.24-56.34 77.02-90.2 103.68-134.85 133.03-129.21.76.15 13.05 2.69 19.67 12.87 35.92 55.26-156.61 241.23-146.14 251.28 5.12 4.92 60.5-30.7 130.91-66 6.57-3.29 29.21-13.49 41.09-5.9 10.91 6.97 11.64 23.62 11.72 25.55 1.92 43.74-82.4 57.44-157.15 139.28-30.18 33.04-21.95 36.67-64.64 86.45-43.11 50.27-64.66 75.41-95.34 91.3-90.96 47.11-229.84 6.19-274.71-68.68Z" class="cls-6fat3"/><path d="M1056.66 1916.65c-.95-.23-9.1-3.49-25.4-10.02-31.76-12.71-47.62-19.1-56.45-23.52-29.03-14.52-23.16-18.23-58.29-37.78-24.83-13.82-39.3-18.38-39.08-26.88.19-7.51 11.73-14.25 21.22-16.97 39.14-11.25 74.14 36.79 92.54 25.63 10.52-6.38 8.29-27.66 6.69-42.84-1.75-16.68-7.5-44.79-49.48-128.59-4.03-8.04-12.54-24.87-5.83-33.53 2.94-3.8 8.52-5.55 13.35-5.22 17.37 1.18 24.35 29.37 57.02 80.2 12 18.67 15.21 21.32 16.16 20.83 3.94-2.02-16.02-64.8-28.68-104.65-3.36-10.57-9.31-29.11-1.19-36.49 5.34-4.86 14.42-2.74 14.92-2.61 16.39 3.92 20.62 27.85 39.3 78.22 8.46 22.8 20 53.93 24.41 52.88 1.43-.34 2.62-4.2-.15-38.01-4.62-56.44-10.76-80.49 1.02-88.53.31-.21 5.3-3.51 10.98-2.33 30.8 6.43 28.97 134.22 35.9 134.05 3.39-.08 9.97-30.82 21.71-66.54 1.09-3.33 5.26-14.43 11.83-15.9 6.03-1.35 11.91 4.01 12.59 4.63 15.46 14.07-8.28 47.23-5.73 100.09 1.03 21.34 5.03 19.78 7.52 50.98 2.51 31.52 3.77 47.28-1.17 63.01-14.66 46.65-75.26 79.91-115.71 69.9ZM343.5 121.23c-40.68-39.52-90.37-51.92-121.79-33.7-36.68 21.27-36.15 77.13-36 83.49C188.53 293.5 410.36 370.23 421.62 374c75.05-120.64 102.55-233.88 58.21-285.7-3.57-4.18-30.13-35.22-65.87-32.17-29.92 2.55-56.81 28.18-70.47 65.11Z" class="cls-6fat1"/><path d="M343.69 122.06c-1.8-1.16-4.05-2.82-5.86-4.29-2.82-2.19-5.76-4.39-8.69-6.43-29.44-20.68-74.74-38.31-107.29-15.8-17.24 12.62-24.57 34.78-27.29 55.6-1.06 8.1-1.53 16.36-1.06 24.5.63 9.46 2.5 18.83 5.56 27.81 23.53 67.26 97.3 113.33 159.7 140.76 21.05 9.21 42.87 17.41 64.75 24.15l-6.93 2.5c32.91-58 63.16-119.44 73.29-185.84 3.32-24.47 4-50.46-5.44-73.52-5.57-13.99-15.99-25.58-27.77-34.71-36.1-27.94-73.31-13.98-98.43 20.46-2.51 3.56-4.87 7.17-7.07 10.94-2.58 4.46-4.9 9.39-7.47 13.88Zm-.38-1.66c1.27-6.06 3.54-11.78 6.19-17.36.89-2.12 2.41-4.84 3.48-6.89.42-.84 1.4-2.57 1.91-3.37 16.8-28.49 46.31-48.83 80.49-41.22 22.13 5.09 42.99 20.63 56.11 38.78 53.64 78.58-20.42 222.17-67.57 290.88-67.22-26.05-164.03-76.78-211.44-130.91-20.16-22.92-34.74-51.84-34.41-82.92.56-30.6 9.38-64.91 36.01-83.09 21.34-14.3 49.23-13.07 72.37-4.33 19.56 7.31 37.05 19.43 51.64 34.22.55.55 1.78 1.84 2.3 2.36 1.12 1.19 1.77 2.36 2.92 3.84Z" class="cls-6fat3"/><path d="M1711.48 139.28c27.18-25.22 60.37-33.13 81.36-21.51 24.5 13.57 24.15 49.22 24.05 53.28-1.89 78.16-150.09 127.12-157.61 129.53-50.14-76.98-68.51-149.24-38.89-182.32 2.39-2.67 20.13-22.47 44.01-20.53 19.99 1.63 37.96 17.98 47.08 41.55" class="cls-6fat1"/><path d="M1711.6 138.73c.92-1.15 1.49-2.06 2.5-2.97 4.45-4.42 9.26-8.48 14.46-12.03 39.23-26.75 84.92-19.18 92.38 32.94 5.77 34.31-14.47 61.31-39.8 81.71-30.09 23.94-64.29 41.68-99.24 57.3-7.89 3.44-15.91 6.7-24.1 9.64l-1.82-2.59c-28.08-41.19-58.17-96.35-55.39-147.71 1.48-22.54 11.66-40.73 31.09-52.67 19.19-12.14 41.5-11.65 58.95 3.26 10.04 8.81 17.52 20.27 20.98 33.12Zm-.25 1.08c-19.31-39.4-56.42-53.77-87.8-17.24-33.61 43.17 14.15 135.37 39.04 175.84l-4.51-1.61c14.41-4.22 28.79-9.36 42.71-15.11 41.7-17.5 92.62-47.05 107.99-92.06 5.42-16.57 3.62-36.19-3.63-51.83-14.05-29.49-50.41-23.96-74.47-10.61a124 124 0 0 0-14.28 9.06c-1.57 1.17-3.45 2.6-5.04 3.57Zm-1422.6 38.18c-12.43-16.08-29.42-22.99-41.48-18.12-14.08 5.69-16.72 25.52-16.99 27.79-5.2 43.58 69.59 82.02 73.39 83.93 32.72-38.98 48.21-77.75 35.11-98.37-1.06-1.66-8.9-14.01-21.73-14.74-10.74-.61-21.57 7.12-28.29 19.52Z" class="cls-6fat3"/></svg>