<svg xmlns="http://www.w3.org/2000/svg" viewBox="0 0 2000 2000" width="300" height="300" fill="none"><defs><style>.cls-2fat1{fill:#3690ea}.cls-2fat2{fill:#fcfc7c}.cls-2fat3{fill:#f27a38}</style></defs><path d="M436.59 687.34c-61.35 99.45-85.7 114.1-96.7 109.87-11.48-4.41-7.79-29.14-21.03-93.69-10.43-50.86-15.65-76.3-26.87-84.72-52.65-39.56-220.14 109.14-235.09 92.37-13.21-14.82 128.38-118.74 107.08-210.33-17.81-76.59-139.2-100.15-131.94-130.02 8.63-35.5 177.75 6.89 212.24-53.54 40.69-71.29-133.3-237.89-114.73-256.22 19.93-19.67 207.38 184.52 298.29 137.67 56.56-29.15 57.05-145.86 78.4-143.41 12.05 1.39 7.55 38.07 35.47 79.31 8.08 11.94 45.15 63.07 92.64 60.28 34.6-2.04 58.5-31.75 78.08-56.09 42.71-53.1 44.75-101.24 57.68-100.7 21.42.9.86 132.47 61.75 172.9 72.48 48.12 219.12-60.31 232.72-39.05 11.95 18.68-107.43 92.81-91.78 141.5 17.52 54.48 193.06 42.74 193.12 59.28.03 8.87-50.5 9.68-112.81 38.24-36.01 16.5-62.78 36.24-80.11 50.72-215.58 9.88-358.63 12.32-417.04 4.4-12.79-1.73-53.03-8.24-85.2 14.56-16.3 11.55-25.25 26.89-30.08 37.23l-4.08 169.47Z" class="cls-2fat3"/><path d="M453.11 697.1c-61.35 99.45-85.7 114.1-96.7 109.87-11.48-4.41-7.79-29.14-21.03-93.69-10.43-50.86-15.65-76.3-26.87-84.72C255.86 589 88.37 737.7 73.42 720.93 60.21 706.11 201.8 602.19 180.5 510.6 162.69 434.01 41.3 410.45 48.56 380.58c8.63-35.5 177.75 6.89 212.24-53.54 40.69-71.29-133.3-237.89-114.73-256.22C166 51.15 353.45 255.34 444.36 208.49c56.56-29.15 57.05-145.86 78.4-143.41 12.05 1.39 7.55 38.07 35.47 79.31 8.08 11.94 45.15 63.07 92.64 60.28 34.6-2.04 58.5-31.75 78.08-56.09 42.71-53.1 44.75-101.24 57.68-100.7 21.42.9.86 132.47 61.75 172.9 72.48 48.12 219.12-60.31 232.72-39.05 11.95 18.68-107.43 92.81-91.78 141.5 17.52 54.48 193.06 42.74 193.12 59.28.03 8.87-50.5 9.68-112.81 38.24-36.01 16.5-62.78 36.24-80.11 50.72-215.58 9.88-358.63 12.32-417.04 4.4-12.79-1.73-53.03-8.24-85.2 14.56-16.3 11.55-25.25 26.89-30.08 37.23l-4.08 169.47Z" class="cls-2fat2"/><path d="M1530.82 1299.05c33.14-103.83 51.88-122.57 62.79-121.22 11.39 1.41 13.62 24.62 40.14 80.07 20.9 43.69 31.35 65.53 43.4 70.64 56.56 23.95 174.68-148.36 191.99-136.55 15.29 10.44-89.46 136.39-49.55 214.49 33.37 65.32 148.54 59.3 148.7 87.98.19 34.07-162.44 33.79-180.05 96.26-20.78 73.69 174.23 185.3 161.54 206.08-13.61 22.29-229.26-120.31-300.99-57.44-44.63 39.12-18.79 144.87-38.66 147.46-11.22 1.46-15.41-32.75-49.96-63.8-10.01-8.99-55.07-46.92-97.43-33.69-30.86 9.64-45.8 41.91-58.04 68.36-26.7 57.68-17.71 101.72-29.53 104.14-19.59 4.01-30.61-119.71-94.83-142.59-76.44-27.23-184.75 103.93-201.85 87.75-15.02-14.22 76.34-108.2 51.21-148.74-27.11-43.74-178.55 15.09-188.15-10.16-4.22-11.1 22.87-27.73 66.42-70.39 34.54-33.83 59.36-64.37 74.5-84.21 192.64-35.33 333.03-60.92 390.15-67.26 13.63-1.51 50.31-5.02 73.84-32.37 12.15-14.13 16.8-30.02 18.84-40.47l-34.47-154.31Z" class="cls-2fat3"/><path d="M1489.88 1289.78c47.08-99.08 72.2-120.43 86.57-117.07 12.69 2.97 13.54 24.47 40.14 80.07 20.9 43.69 31.35 65.53 43.4 70.64 56.56 23.95 174.68-148.36 191.99-136.55 15.29 10.44-89.46 136.39-49.55 214.49 33.37 65.32 148.54 59.3 148.7 87.98.19 34.07-162.44 33.79-180.05 96.26-20.78 73.69 174.23 185.3 161.54 206.08-13.61 22.29-229.26-120.31-300.99-57.44-44.63 39.12-18.79 144.87-38.66 147.46-11.22 1.46-15.41-32.75-49.96-63.8-10.01-8.99-55.07-46.92-97.43-33.69-30.86 9.64-45.8 41.91-58.04 68.36-26.7 57.68-17.71 101.72-29.53 104.14-19.59 4.01-30.61-119.71-94.83-142.59-75.86-27.03-179.68 106.5-201.84 87.75-21.24-17.96 76.85-137.82 43.8-179.92-32.84-41.82-170.42 24.55-182.46-1.08-6.03-12.82 25.53-36.57 70.18-83.13 44.31-46.22 75.86-88.17 95.72-116.63 44.3 1.44 107.63 1.88 183.75-3.2 147.8-9.87 173.58-29.23 186.25-41.68 56.11-55.19 38.07-155.46 31.33-186.43Z" class="cls-2fat2"/><path d="M1389.43 1537.7H545.09c-64.55 0-117.06-52.51-117.06-117.06V576.3c0-64.55 52.51-117.06 117.06-117.06h844.34c64.55 0 117.06 52.51 117.06 117.06v844.34c0 64.55-52.51 117.06-117.06 117.06M545.09 492.44c-46.24 0-83.85 37.62-83.85 83.85v844.34c0 46.24 37.62 83.85 83.85 83.85h844.34c46.24 0 83.85-37.62 83.85-83.85V576.29c0-46.24-37.62-83.85-83.85-83.85z" class="cls-2fat3"/><path d="M278.05 563.2c-.32 3.2-.8 5.45-1.45 6.76s-1.73 2.51-3.25 3.61c-2.97 2.16-6.05 2.95-9.27 2.36s-6.48-3.08-9.78-7.51c-3.74-5.02-5.61-7.54-9.36-12.56-3.34-4.49-4.8-8.38-4.35-11.68s2.23-6.09 5.34-8.35c2.38-1.73 4.81-2.59 7.27-2.58 2.46 0 5.1 1.08 7.9 3.22 2.81 2.14 5.01 3.38 6.63 3.72 3.26.57 8 .15 14.24-1.2s12.25-3.99 18.07-7.79c7.81-5.1 14.85-11.95 18.68-20.62 2.23-4.87 2.25-9.14 0-12.81-1.51-2.45-3.85-4.18-7.05-5.18s-7.38-.85-12.46.37c-3.35.81-10.43 3.49-21.01 8.06-9.93 4.3-20.12 8.74-30.8 10.74-7.69 1.45-15.1.92-22.07-1.49s-12.57-6.41-16.75-12.06c-7.64-10.33-6.95-21.73-4.21-33.06 3.4-14.09 15.6-26.34 27.79-34.36 5.83-3.84 11.65-6.84 17.39-8.93s11.4-3.25 16.94-3.47c1.44-4.36 3.68-7.46 6.69-9.29 3.39-2.06 6.79-2.7 10.16-1.93s6.45 3.55 9.26 8.3c3.55 6.02 5.33 9.03 8.88 15.05 2.85 4.82 3.83 8.87 2.97 12.16-.86 3.28-2.9 5.89-6.15 7.86-2.75 1.66-5.61 2.33-8.5 2.14-2.23-.15-4.81-1.57-7.64-4.35q-4.245-4.17-7.44-5.13c-3.64-1.11-8.11-1.17-13.39-.12-5.29 1.05-10.76 3.62-16.22 7.03-5.97 3.74-13.1 10.7-15.64 17.63-2.33 6.36-2.3 11.31.14 14.77 1.65 2.35 4.18 3.98 7.56 4.89s7.43.85 11.69-.42c7.68-2.29 15.43-6.07 22.95-9.2 9.56-3.98 19.46-7.86 29.76-9.71 7.4-1.33 14.71-.52 21.71 2.28s12.52 7.88 16.69 14.94c5.4 9.13 6.72 20.18 3.07 30.23-5.15 14.14-16.15 26.04-28.62 34.06-5.49 3.53-11.27 6.56-17.32 8.82-6.05 2.27-12.39 3.86-19.05 4.79Zm162.74-212.9c8.37 20.32 16.74 40.64 25.11 60.97 5.71 12.72 4.35 27.58-.77 40.09-5.3 12.97-16.12 23.48-28.59 29.5-6.55 3.16-13.33 5.02-20.24 5.64s-13.79-.04-20.68-1.99-12.9-4.55-18.02-7.86c-5.11-3.31-9.82-8.86-14.08-16.71l-31.44-57.96c-4.92 2.67-9.07 3.71-12.47 3.1-3.41-.61-5.95-2.39-7.62-5.36-1.7-3.03-1.9-6.14-.55-9.31 1.34-3.17 4.91-6.37 10.71-9.5 10.4-5.61 20.85-11.1 31.38-16.48 5.81-2.91 10.44-3.98 13.87-3.25 3.42.73 5.88 2.68 7.39 5.81q2.265 4.695 0 9.39c-2.265 4.695-5.09 6.08-10.78 8.94-3.41 1.71-5.12 2.58-8.52 4.32 10.34 20.17 20.67 40.33 31.01 60.5 3.18 6.2 8.92 10.13 16.54 12.29 6.92 1.96 16.81.8 23.18-2.42 4.94-2.5 9.39-5.84 12.85-10.25s5.66-9.49 6.59-15.28c.57-3.64-.03-7.51-1.83-11.6-9.11-20.75-18.23-41.49-27.34-62.24-3.49 1.53-5.23 2.31-8.71 3.87-5.8 2.61-10.36 3.53-13.73 2.71-3.37-.81-5.8-2.78-7.28-5.94-1.48-3.15-1.43-6.29.16-9.4 1.59-3.12 5.34-6.04 11.26-8.7 10.79-4.75 21.62-9.38 32.51-13.89 5.99-2.47 10.68-3.21 14.02-2.26s5.64 3.05 6.92 6.29c1.25 3.17 1.03 6.26-.63 9.29s-5.07 5.58-10.23 7.7Zm98.39 35.07c2.49 7.58 4.99 15.16 7.48 22.75 7.74-2.56 15.53-5.02 23.34-7.37 5.58-1.69 9.88-1.82 12.86-.44s4.94 3.76 5.89 7.1c.94 3.27.52 6.28-1.22 9.03s-5.33 4.92-10.79 6.57c-16.36 5.04-32.59 10.41-48.73 16.12-5.37 1.93-9.55 2.33-12.59 1.16s-5.18-3.37-6.4-6.63c-1.2-3.19-1.01-6.23.59-9.13s5.12-5.35 10.54-7.3c1.42-.51 2.14-.77 3.56-1.27-10.15-28.59-20.3-57.18-30.44-85.77-1.55.55-2.33.83-3.88 1.38-5.97 2.14-10.58 2.71-13.87 1.63-3.29-1.07-5.56-3.23-6.79-6.49s-.94-6.38.88-9.36 5.78-5.6 11.88-7.79a1385 1385 0 0 1 58.86-19.25c14.28-4.62 31.13-5.56 44.87.83 10.82 5.03 20.07 14.75 22.75 26.63 1.47 6.52 1.48 13.28-.35 19.96-1.38 5.02-4.42 10.41-9.03 16.19s-9.52 10.57-14.8 14.36c-6.69 4.8-14.57 7.35-22.26 10-7.48 2.27-14.95 4.63-22.37 7.09Zm-7.27-22.1c7.43-2.45 14.9-4.82 22.39-7.1 8.76-2.56 17.49-6.88 23.37-13.98 5.05-6.09 6.79-12.32 5.12-18.53-1.42-5.26-5.28-9.16-11.55-11.67-7.88-3.14-16.17-1.16-24.06.56q-14.535 4.35-28.95 9.09l13.69 41.61Zm138.45-22.39c2.14 11.18 4.27 22.37 6.41 33.55 20.33-3.78 40.69-7.05 61.19-9.81-.65-5-.97-7.5-1.62-12.49-.72-5.55-.1-9.66 1.89-12.31s4.85-4.21 8.56-4.65c3.63-.43 6.74.42 9.29 2.54 2.56 2.12 4.12 5.97 4.71 11.53 1.26 11.89 2.53 23.77 3.79 35.66-37.1 4.14-73.8 10.09-110.31 17.89-5.58 1.22-9.77 1.08-12.63-.47s-4.7-4.01-5.5-7.4c-.78-3.31-.2-6.31 1.76-8.98s5.76-4.65 11.39-5.88l3.7-.8c-6.38-29.66-12.77-59.32-19.15-88.98-1.61.35-2.41.52-4.02.87-6.2 1.36-10.84 1.32-13.97-.17s-5.1-3.92-5.89-7.31c-.8-3.39-.11-6.45 2.08-9.17s6.45-4.81 12.78-6.2c39.5-8.42 79.22-14.93 119.34-19.55 1.31 11.73 2.62 23.46 3.92 35.19.61 5.49-.13 9.55-2.2 12.18-2.07 2.64-5.01 4.18-8.84 4.65s-7.08-.29-9.76-2.3-4.41-5.78-5.16-11.33c-.65-4.81-.98-7.22-1.63-12.03-20.35 2.84-40.58 6.14-60.78 9.91l6.3 33c8.83-1.69 13.26-2.49 22.14-3.99-1.01-5.97-1.05-9.91-.09-11.84 1.96-4.09 5.34-6.53 10.11-7.28 3.76-.59 7.02.12 9.76 2.12 2.73 2 4.49 5.78 5.3 11.32l3.87 26.5c.73 5.02.58 8.48-.44 10.39-2.04 3.9-5.18 6.17-9.46 6.84-4.52.71-8.3-.54-11.38-3.78-1.48-1.51-2.74-5.29-3.77-11.33-8.69 1.48-13.02 2.26-21.67 3.91Zm149.62-12.95c.48 9.75.95 19.5 1.43 29.24 3.52-.17 5.28-.25 8.81-.39 5.87-.24 10.11.72 12.66 2.8 2.56 2.08 3.87 4.87 3.95 8.35.08 3.4-1.08 6.21-3.48 8.44s-6.46 3.42-12.2 3.65c-12.06.54-24.09 1.24-36.14 2.1-5.72.44-9.88-.29-12.51-2.22s-4.11-4.62-4.43-8.09c-.31-3.39.68-6.28 3.01-8.65s6.39-3.8 12.16-4.24c1.52-.12 2.28-.17 3.8-.28l-6.57-90.78c-1.65.12-2.48.18-4.13.31-6.36.48-10.98-.2-13.88-2.11s-4.52-4.59-4.84-8.05.79-6.4 3.35-8.79 7.1-3.87 13.59-4.36c20.41-1.43 40.8-2.4 61.26-2.91 15.24-.66 33.32 2.27 44.42 12.04 8.72 7.67 15.25 17.12 14.83 30.02-.24 7.23-2.83 13.78-7.63 19.61-5.72 6.95-13.56 11.25-21.29 15.55 6.1 4.89 11.88 10.79 16.89 16.77 5.35 6.47 9.87 13.58 14.45 20.59 6.23.21 10.32 1.01 12.26 2.3 3.48 2.51 5.1 5.89 4.88 10.12-.17 3.4-1.54 6.11-4.07 8.15s-6.68 2.93-12.45 2.72c-5.48-.19-8.22-.27-13.7-.39-12.6-19.15-27.63-42.84-49.59-52.44-8.29.2-16.58.51-24.86.93Zm-1.14-23.24c8-.39 12-.55 20.02-.79 7.43-.23 14.05-1.38 19.89-3.49 7.84-2.83 13.18-5.68 15.94-8.71 2.76-3.02 4.16-6 4.18-8.95.03-4.39-2.6-8.48-7.95-12.22-6.91-4.83-15.48-4.96-23.51-5.35-10.15.22-20.3.58-30.44 1.08.63 12.81 1.25 25.62 1.88 38.43Z"/><path d="M267.24 547.92c-.32 3.2-.8 5.45-1.45 6.76s-1.73 2.51-3.25 3.61c-2.97 2.16-6.05 2.95-9.27 2.36s-6.48-3.08-9.78-7.51c-3.74-5.02-5.61-7.54-9.36-12.56-3.34-4.49-4.8-8.38-4.35-11.68s2.23-6.09 5.34-8.35c2.38-1.73 4.81-2.59 7.27-2.58 2.46 0 5.1 1.08 7.9 3.22 2.81 2.14 5.01 3.38 6.63 3.72 3.26.57 8 .15 14.24-1.2 6.23-1.35 12.25-3.99 18.07-7.79 7.81-5.1 14.85-11.95 18.68-20.62 2.23-4.87 2.25-9.14 0-12.81-1.51-2.45-3.85-4.18-7.05-5.18s-7.38-.85-12.46.37c-3.35.81-10.43 3.49-21.01 8.06-9.93 4.3-20.12 8.74-30.8 10.74-7.69 1.45-15.1.92-22.07-1.49s-12.57-6.41-16.75-12.06c-7.64-10.33-6.95-21.73-4.21-33.06 3.4-14.08 15.6-26.34 27.79-34.36 5.83-3.84 11.65-6.84 17.39-8.93s11.4-3.25 16.94-3.47c1.44-4.36 3.68-7.46 6.69-9.29 3.39-2.06 6.79-2.7 10.16-1.93s6.45 3.55 9.26 8.3c3.55 6.02 5.33 9.03 8.88 15.05 2.85 4.82 3.83 8.87 2.97 12.16-.86 3.28-2.9 5.89-6.15 7.86-2.75 1.66-5.61 2.33-8.5 2.14-2.23-.15-4.81-1.57-7.64-4.35s-5.31-4.49-7.43-5.13c-3.64-1.11-8.11-1.17-13.39-.12-5.29 1.05-10.76 3.62-16.22 7.03-5.97 3.74-13.1 10.7-15.63 17.63-2.33 6.36-2.3 11.31.14 14.77 1.65 2.35 4.18 3.98 7.56 4.89s7.43.85 11.69-.42c7.68-2.29 15.43-6.07 22.95-9.2 9.56-3.98 19.46-7.86 29.76-9.71 7.4-1.33 14.71-.52 21.71 2.28s12.52 7.88 16.69 14.94c5.4 9.13 6.72 20.18 3.07 30.23-5.15 14.14-16.15 26.04-28.62 34.06-5.49 3.53-11.27 6.56-17.32 8.82-6.05 2.27-12.39 3.86-19.05 4.79Zm162.74-212.91c8.37 20.32 16.74 40.64 25.11 60.97 5.71 12.72 4.35 27.58-.77 40.09-5.3 12.97-16.12 23.48-28.59 29.5-6.55 3.16-13.33 5.02-20.24 5.64s-13.79-.03-20.68-1.99c-6.89-1.95-12.9-4.55-18.02-7.86-5.11-3.31-9.82-8.86-14.08-16.71l-31.44-57.96c-4.92 2.67-9.07 3.71-12.47 3.1-3.41-.61-5.95-2.39-7.62-5.36-1.7-3.03-1.9-6.14-.55-9.31 1.34-3.17 4.91-6.37 10.71-9.5 10.4-5.61 20.85-11.1 31.38-16.48 5.81-2.91 10.44-3.98 13.87-3.25 3.42.73 5.88 2.68 7.39 5.81q2.265 4.695 0 9.39c-1.5 3.13-5.09 6.08-10.78 8.94-3.41 1.71-5.12 2.58-8.52 4.32 10.34 20.17 20.67 40.33 31.01 60.5 3.18 6.2 8.92 10.13 16.54 12.29 6.92 1.96 16.81.8 23.18-2.42 4.94-2.5 9.39-5.84 12.85-10.25s5.66-9.49 6.59-15.28c.57-3.64-.03-7.51-1.83-11.6-9.11-20.75-18.23-41.49-27.35-62.24-3.49 1.53-5.23 2.31-8.71 3.87-5.8 2.61-10.36 3.53-13.73 2.71-3.37-.81-5.8-2.78-7.28-5.94-1.48-3.15-1.43-6.29.16-9.4 1.59-3.12 5.34-6.04 11.26-8.7 10.79-4.75 21.62-9.38 32.51-13.89 5.99-2.47 10.68-3.21 14.02-2.26s5.64 3.05 6.92 6.29c1.25 3.17 1.03 6.26-.63 9.29s-5.07 5.58-10.23 7.7Zm98.39 35.08c2.49 7.58 4.99 15.16 7.48 22.75 7.74-2.56 15.53-5.02 23.34-7.37 5.58-1.69 9.88-1.82 12.86-.44s4.94 3.76 5.89 7.1c.94 3.27.52 6.28-1.22 9.03s-5.33 4.92-10.79 6.57c-16.36 5.04-32.59 10.41-48.73 16.12-5.37 1.93-9.55 2.33-12.59 1.16s-5.18-3.37-6.4-6.63c-1.2-3.19-1.01-6.23.59-9.13s5.12-5.35 10.53-7.3c1.43-.51 2.14-.77 3.56-1.27-10.15-28.59-20.3-57.18-30.44-85.77-1.55.55-2.33.83-3.88 1.38-5.97 2.14-10.58 2.71-13.87 1.63-3.29-1.07-5.56-3.23-6.79-6.49s-.94-6.38.88-9.36 5.78-5.6 11.88-7.79a1385 1385 0 0 1 58.86-19.25c14.28-4.62 31.13-5.56 44.87.83 10.82 5.03 20.07 14.75 22.75 26.63 1.47 6.52 1.48 13.28-.35 19.96-1.38 5.02-4.42 10.41-9.03 16.19s-9.52 10.57-14.8 14.36c-6.69 4.8-14.57 7.35-22.26 10-7.48 2.27-14.95 4.63-22.37 7.09Zm-7.27-22.1c7.43-2.45 14.9-4.82 22.39-7.1 8.76-2.56 17.49-6.88 23.37-13.98 5.05-6.09 6.79-12.32 5.12-18.53-1.42-5.26-5.28-9.16-11.55-11.67-7.88-3.14-16.17-1.16-24.06.56q-14.535 4.35-28.95 9.09c4.56 13.87 9.13 27.74 13.69 41.61Zm138.46-22.39c2.14 11.18 4.27 22.37 6.41 33.55 20.33-3.78 40.7-7.05 61.19-9.81-.65-5-.97-7.5-1.62-12.49-.72-5.55-.1-9.66 1.89-12.31s4.85-4.21 8.56-4.65c3.63-.43 6.74.42 9.29 2.54s4.12 5.97 4.71 11.53c1.26 11.89 2.53 23.77 3.79 35.66-37.1 4.14-73.8 10.09-110.31 17.89-5.58 1.22-9.77 1.08-12.63-.47s-4.7-4.01-5.5-7.4c-.78-3.31-.2-6.31 1.76-8.98s5.76-4.65 11.39-5.88l3.7-.8c-6.38-29.66-12.77-59.32-19.15-88.98-1.61.35-2.41.52-4.02.87-6.2 1.36-10.84 1.32-13.97-.17s-5.1-3.92-5.89-7.31c-.8-3.39-.11-6.45 2.08-9.17s6.45-4.81 12.78-6.2c39.5-8.42 79.22-14.93 119.34-19.55 1.31 11.73 2.62 23.46 3.92 35.19.61 5.49-.13 9.55-2.2 12.18-2.07 2.64-5.01 4.18-8.84 4.65s-7.08-.29-9.76-2.3-4.41-5.78-5.16-11.33c-.65-4.81-.98-7.22-1.63-12.03-20.35 2.84-40.58 6.14-60.78 9.91l6.3 33c8.84-1.69 13.26-2.49 22.14-3.99-1.01-5.97-1.05-9.91-.09-11.84 1.96-4.09 5.34-6.53 10.11-7.28 3.76-.59 7.02.12 9.76 2.12 2.73 2 4.49 5.78 5.3 11.32l3.87 26.5c.73 5.02.58 8.48-.44 10.39-2.04 3.9-5.18 6.17-9.46 6.84-4.52.71-8.3-.54-11.38-3.78-1.48-1.51-2.74-5.29-3.77-11.33-8.69 1.48-13.02 2.26-21.67 3.91Zm149.61-12.95c.48 9.75.95 19.5 1.43 29.24 3.52-.17 5.28-.25 8.81-.39 5.87-.24 10.11.72 12.66 2.8 2.56 2.08 3.87 4.87 3.95 8.35.08 3.4-1.08 6.21-3.48 8.44s-6.46 3.42-12.2 3.66c-12.06.54-24.09 1.24-36.14 2.1-5.72.44-9.88-.29-12.51-2.22s-4.11-4.62-4.43-8.09c-.31-3.39.68-6.28 3.01-8.65s6.39-3.8 12.16-4.24c1.52-.12 2.28-.17 3.8-.28l-6.57-90.78c-1.65.12-2.48.18-4.13.31-6.36.48-10.98-.2-13.88-2.11s-4.52-4.59-4.84-8.05.79-6.4 3.35-8.79 7.1-3.87 13.59-4.36c20.41-1.43 40.8-2.4 61.26-2.91 15.24-.66 33.32 2.27 44.42 12.04 8.72 7.67 15.25 17.12 14.83 30.02-.24 7.23-2.83 13.78-7.63 19.61-5.72 6.95-13.56 11.25-21.29 15.55 6.1 4.89 11.88 10.79 16.89 16.77 5.35 6.47 9.87 13.58 14.45 20.59 6.23.21 10.32 1.01 12.26 2.3 3.48 2.51 5.1 5.89 4.88 10.12-.17 3.4-1.54 6.11-4.07 8.15s-6.68 2.93-12.45 2.72c-5.48-.19-8.22-.27-13.7-.39-12.6-19.15-27.63-42.84-49.59-52.44-8.29.2-16.58.51-24.86.93Zm-1.14-23.24c8-.39 12-.55 20.02-.79 7.43-.23 14.05-1.38 19.89-3.49 7.84-2.83 13.18-5.68 15.94-8.71 2.76-3.02 4.16-6 4.18-8.95.03-4.39-2.6-8.48-7.95-12.22-6.91-4.83-15.48-4.96-23.51-5.35-10.15.22-20.3.58-30.44 1.08.63 12.81 1.25 25.62 1.88 38.43Z" class="cls-2fat1"/><path d="M258.31 540.23c-.32 3.2-.8 5.45-1.45 6.76s-1.73 2.51-3.25 3.61c-2.97 2.16-6.05 2.95-9.27 2.36s-6.48-3.08-9.78-7.51c-3.74-5.02-5.61-7.54-9.36-12.56-3.34-4.49-4.8-8.38-4.35-11.68s2.23-6.09 5.34-8.35c2.38-1.73 4.81-2.59 7.27-2.58 2.46 0 5.1 1.08 7.9 3.22 2.81 2.14 5.01 3.38 6.63 3.72 3.26.57 8 .15 14.24-1.2 6.23-1.35 12.25-3.99 18.07-7.79 7.81-5.1 14.85-11.95 18.68-20.62 2.23-4.87 2.25-9.14 0-12.81-1.51-2.45-3.85-4.18-7.05-5.18s-7.38-.85-12.46.37c-3.35.81-10.43 3.49-21.01 8.06-9.93 4.3-20.12 8.74-30.8 10.74-7.69 1.45-15.1.92-22.07-1.49s-12.57-6.41-16.75-12.06c-7.64-10.33-6.95-21.73-4.21-33.06 3.4-14.08 15.6-26.34 27.79-34.36 5.83-3.84 11.65-6.84 17.39-8.93s11.4-3.25 16.94-3.47c1.44-4.36 3.68-7.46 6.69-9.29 3.39-2.06 6.79-2.7 10.16-1.93s6.45 3.55 9.26 8.3c3.55 6.02 5.33 9.03 8.88 15.05 2.85 4.82 3.83 8.87 2.97 12.16-.86 3.28-2.9 5.89-6.15 7.86-2.75 1.66-5.61 2.33-8.5 2.14-2.23-.15-4.81-1.57-7.64-4.35s-5.31-4.49-7.43-5.13c-3.64-1.11-8.11-1.17-13.39-.12-5.29 1.05-10.76 3.62-16.22 7.03-5.97 3.74-13.1 10.7-15.63 17.63-2.33 6.36-2.3 11.31.14 14.77 1.65 2.35 4.18 3.98 7.56 4.89s7.43.85 11.69-.42c7.68-2.29 15.43-6.07 22.95-9.2 9.56-3.98 19.46-7.86 29.76-9.71 7.4-1.33 14.71-.52 21.71 2.28s12.52 7.88 16.69 14.94c5.4 9.13 6.72 20.18 3.07 30.23-5.15 14.14-16.15 26.04-28.62 34.06-5.49 3.53-11.27 6.56-17.32 8.82-6.05 2.27-12.39 3.86-19.05 4.79Zm162.73-212.9c8.37 20.32 16.74 40.64 25.11 60.97 5.71 12.72 4.35 27.58-.77 40.09-5.3 12.97-16.12 23.48-28.59 29.5-6.55 3.16-13.33 5.02-20.24 5.64s-13.79-.03-20.68-1.99c-6.89-1.95-12.9-4.55-18.02-7.86-5.11-3.31-9.82-8.86-14.08-16.71l-31.44-57.96c-4.92 2.67-9.07 3.71-12.47 3.1-3.41-.61-5.95-2.39-7.62-5.36-1.7-3.03-1.9-6.14-.55-9.31 1.34-3.17 4.91-6.37 10.71-9.5 10.4-5.61 20.85-11.1 31.38-16.48 5.81-2.91 10.44-3.98 13.87-3.25 3.42.73 5.88 2.68 7.39 5.81q2.265 4.695 0 9.39c-1.5 3.13-5.09 6.08-10.78 8.94-3.41 1.71-5.12 2.58-8.52 4.32 10.34 20.17 20.67 40.33 31.01 60.5 3.18 6.2 8.92 10.13 16.54 12.29 6.92 1.96 16.81.8 23.18-2.42 4.94-2.5 9.39-5.84 12.85-10.25s5.66-9.49 6.59-15.28c.57-3.64-.03-7.51-1.83-11.6-9.11-20.75-18.23-41.49-27.35-62.24-3.49 1.53-5.23 2.31-8.71 3.87-5.8 2.61-10.36 3.53-13.73 2.71-3.37-.81-5.8-2.78-7.28-5.94-1.48-3.15-1.43-6.29.16-9.4 1.59-3.12 5.34-6.04 11.26-8.7 10.79-4.75 21.62-9.38 32.51-13.89 5.99-2.47 10.68-3.21 14.02-2.26s5.64 3.05 6.92 6.29c1.25 3.17 1.03 6.26-.63 9.29s-5.07 5.58-10.23 7.7Zm98.4 35.07c2.49 7.58 4.99 15.16 7.48 22.75 7.74-2.56 15.53-5.02 23.34-7.37 5.58-1.69 9.88-1.82 12.86-.44s4.94 3.76 5.89 7.1c.94 3.27.52 6.28-1.22 9.03s-5.33 4.92-10.79 6.57c-16.36 5.04-32.59 10.41-48.73 16.12-5.37 1.93-9.55 2.33-12.59 1.16s-5.18-3.37-6.4-6.63c-1.2-3.19-1.01-6.23.59-9.13s5.12-5.35 10.53-7.3c1.43-.51 2.14-.77 3.56-1.27-10.15-28.59-20.3-57.18-30.44-85.77-1.55.55-2.33.83-3.88 1.38-5.97 2.14-10.58 2.71-13.87 1.63-3.29-1.07-5.56-3.23-6.79-6.49s-.94-6.38.88-9.36 5.78-5.6 11.88-7.79a1385 1385 0 0 1 58.86-19.25c14.28-4.62 31.13-5.56 44.87.83 10.82 5.03 20.07 14.75 22.75 26.63 1.47 6.52 1.48 13.28-.35 19.96-1.38 5.02-4.42 10.41-9.03 16.19s-9.52 10.57-14.8 14.36c-6.69 4.8-14.57 7.35-22.26 10-7.48 2.27-14.95 4.63-22.37 7.09Zm-7.27-22.1c7.43-2.45 14.9-4.82 22.39-7.1 8.76-2.56 17.49-6.88 23.37-13.98 5.05-6.09 6.79-12.32 5.12-18.53-1.42-5.26-5.28-9.16-11.55-11.67-7.88-3.14-16.17-1.16-24.06.56q-14.535 4.35-28.95 9.09c4.56 13.87 9.13 27.74 13.69 41.61Zm138.45-22.38c2.14 11.18 4.27 22.37 6.41 33.55 20.33-3.78 40.7-7.05 61.19-9.81-.65-5-.97-7.5-1.62-12.49-.72-5.55-.1-9.66 1.89-12.31s4.85-4.21 8.56-4.65c3.63-.43 6.74.42 9.29 2.54s4.12 5.97 4.71 11.53c1.26 11.89 2.53 23.77 3.79 35.66-37.1 4.14-73.8 10.09-110.31 17.89-5.58 1.22-9.77 1.08-12.63-.47s-4.7-4.01-5.5-7.4c-.78-3.31-.2-6.31 1.76-8.98s5.76-4.65 11.39-5.88l3.7-.8c-6.38-29.66-12.77-59.32-19.15-88.98-1.61.35-2.41.52-4.02.87-6.2 1.36-10.84 1.32-13.97-.17s-5.1-3.92-5.89-7.31c-.8-3.39-.11-6.45 2.08-9.17s6.45-4.81 12.78-6.2c39.5-8.42 79.22-14.93 119.34-19.55 1.31 11.73 2.62 23.46 3.92 35.19.61 5.49-.13 9.55-2.2 12.18-2.07 2.64-5.01 4.18-8.84 4.65s-7.08-.29-9.76-2.3-4.41-5.78-5.16-11.33c-.65-4.81-.98-7.22-1.63-12.03-20.35 2.84-40.58 6.14-60.78 9.91l6.3 33c8.84-1.69 13.26-2.49 22.14-3.99-1.01-5.97-1.05-9.91-.09-11.84 1.96-4.09 5.34-6.53 10.11-7.28 3.76-.59 7.02.12 9.76 2.12 2.73 2 4.49 5.78 5.3 11.32l3.87 26.5c.73 5.02.58 8.48-.44 10.39-2.04 3.9-5.18 6.17-9.46 6.84-4.52.71-8.3-.54-11.38-3.78-1.48-1.51-2.74-5.29-3.77-11.33-8.69 1.48-13.02 2.26-21.67 3.91Zm149.61-12.96c.48 9.75.95 19.5 1.43 29.24 3.52-.17 5.28-.25 8.81-.39 5.87-.24 10.11.72 12.66 2.8 2.56 2.08 3.87 4.87 3.95 8.35.08 3.4-1.08 6.21-3.48 8.44s-6.46 3.42-12.2 3.66c-12.06.54-24.09 1.24-36.14 2.1-5.72.44-9.88-.29-12.51-2.22s-4.11-4.62-4.43-8.09c-.31-3.39.68-6.28 3.01-8.65s6.39-3.8 12.16-4.24c1.52-.12 2.28-.17 3.8-.28l-6.57-90.78c-1.65.12-2.48.18-4.13.31-6.36.48-10.98-.2-13.88-2.11s-4.52-4.59-4.84-8.05.79-6.4 3.35-8.79 7.1-3.87 13.59-4.36c20.41-1.43 40.8-2.4 61.26-2.91 15.24-.66 33.32 2.27 44.42 12.04 8.72 7.67 15.25 17.12 14.83 30.02-.24 7.23-2.83 13.78-7.63 19.61-5.72 6.95-13.56 11.25-21.29 15.55 6.1 4.89 11.88 10.79 16.89 16.77 5.35 6.47 9.87 13.58 14.45 20.59 6.23.21 10.32 1.01 12.26 2.3 3.48 2.51 5.1 5.89 4.88 10.12-.17 3.4-1.54 6.11-4.07 8.15s-6.68 2.93-12.45 2.72c-5.48-.19-8.22-.27-13.7-.39-12.6-19.15-27.63-42.84-49.59-52.44-8.29.2-16.58.51-24.86.93Zm-1.14-23.24c8-.39 12-.55 20.02-.79 7.43-.23 14.05-1.38 19.89-3.49 7.84-2.83 13.18-5.68 15.94-8.71 2.76-3.02 4.16-6 4.18-8.95.03-4.39-2.6-8.48-7.95-12.22-6.91-4.83-15.48-4.96-23.51-5.35-10.15.22-20.3.58-30.44 1.08.63 12.81 1.25 25.62 1.88 38.43Z" class="cls-2fat3"/><path d="M1314.74 1707.6c-2.81-30.21-5.63-60.42-8.44-90.62-5.24.41-9.21-.4-11.86-2.37s-4.07-4.66-4.3-8.06c-.24-3.47.82-6.37 3.12-8.7s6.3-3.72 12.04-4.27c16.56-1.5 33.07-3.77 49.44-6.68 7.61-1.37 15.27-1.48 23.12-.34s14.52 3.19 20.01 6.24c4.16 2.31 8.8 5.71 13.98 10.19s9.53 9.11 12.97 13.95c3.45 4.84 6.33 11.13 8.59 18.9l3.1 10.68c1.94 8.91 3.4 17.83 1.56 26.76-1.51 7.34-5.54 16.29-10.48 22.09-5.24 6.16-10.54 11.23-15.82 14.77-10.27 6.95-22.97 10.36-35 12.55a871 871 0 0 1-58.44 7.94c-7.05.67-12.19-.02-15.35-1.95s-4.84-4.64-5.08-8.11c-.23-3.4 1.06-6.29 3.83-8.69 2.77-2.41 7.09-3.8 13.01-4.28m28.28-3.21c9.97-1.33 19.92-2.88 29.82-4.63 8.26-1.89 17.18-3.57 24.11-8.77 6.51-4.88 10.9-10.53 13.23-16.61s2.39-13.27.34-21.57c-1.06-4.27-1.59-6.41-2.65-10.69-1.76-7.12-4.84-12.98-9.11-17.64-4.75-5.62-12.36-11.63-19.57-13.77-6.39-1.9-13.84-2.06-22.46-.53-8.55 1.53-17.16 2.87-25.77 4zm220.42-83.01a828 828 0 0 1-61.16 27.35c-.44 6.26-.69 9.4-1.25 15.68 2.57-.97 3.85-1.47 6.41-2.47 6.31-2.47 11.18-3.3 14.68-2.42s5.94 2.91 7.29 6.12c1.32 3.14 1.05 6.27-.86 9.4s-6.13 6.03-12.64 8.57c-12.15 4.77-24.45 9.16-36.84 13.27-6.65 2.2-11.75 2.65-15.22 1.46s-5.7-3.46-6.7-6.8c-1-3.33-.35-6.49 1.91-9.48s6.71-5.44 13.37-7.49c4.22-33.13 6.76-66.27 7.58-99.66-5.96 2.39-8.95 3.55-14.97 5.79-5.54 2.06-9.88 2.45-12.95 1.24s-5.16-3.48-6.29-6.77-.88-6.35.71-9.19 5.04-5.2 10.37-7.18a728 728 0 0 0 47.06-19.73c31.18 28.01 63.97 53.69 98.56 77.35 5.73-3.28 9.77-5 12.21-5.05 4.91-.03 8.45 1.66 10.58 5.14 1.77 2.91 1.99 6.04.6 9.39-1.39 3.36-5.11 6.84-11.19 10.34-11.31 6.53-22.82 12.7-34.46 18.61-6.25 3.16-11.22 4.36-14.82 3.7-3.61-.66-6.14-2.58-7.63-5.73-1.46-3.08-1.32-6.21.35-9.41 1.68-3.2 5.55-6.27 11.59-9.33 2.45-1.24 3.67-1.87 6.11-3.13-5-3.8-7.48-5.72-12.4-9.59Zm-20.42-15.84c-13.02-10.7-25.76-21.68-38.25-33 .05 16.87-.3 33.7-1.05 50.56a868 868 0 0 0 39.31-17.56Z"/><path d="M1631.92 1598.58c-16.35-25.55-32.7-51.11-49.06-76.66-4.42 2.74-8.29 3.81-11.52 3.27-3.23-.55-5.72-2.3-7.48-5.21-1.8-2.98-2.21-6.02-1.26-9.14.95-3.11 3.83-6.16 8.63-9.24 13.97-8.88 27.54-18.43 40.69-28.47 5.82-4.63 13.46-8.59 20.43-10.94 7.48-2.51 14.43-3.87 20.74-3.7 4.78.13 10.49 1 17.18 2.58s12.7 3.67 18 6.37 10.76 6.96 16.33 12.83c3.06 3.23 4.59 4.84 7.65 8.07 5.81 7.04 11.19 14.31 13.61 23.11 2 7.26 2.46 17.11.7 24.55-1.88 7.91-4.3 14.88-7.4 20.47-5.98 10.9-15.72 19.78-25.44 27.26a870 870 0 0 1-48.07 33.68c-5.9 3.79-10.73 5.51-14.39 5.22-3.66-.28-6.38-1.93-8.19-4.91-1.76-2.91-1.96-6.06-.63-9.45s4.49-6.59 9.48-9.69m23.49-15.7c8.23-5.74 16.34-11.66 24.32-17.74 6.49-5.48 13.66-11.07 17.45-18.87 3.57-7.34 4.91-14.4 4.21-20.89s-3.93-12.92-9.56-19.35c-2.9-3.31-4.35-4.97-7.25-8.28-4.83-5.52-10.26-9.31-16.21-11.47-6.83-2.81-16.37-4.63-23.78-3.21-6.57 1.26-13.28 4.54-20.24 9.85-6.88 5.26-13.9 10.38-21.01 15.32 17.36 24.88 34.71 49.77 52.06 74.65Z"/><path d="M1297.75 1702.34c-2.81-30.21-5.63-60.42-8.44-90.62-5.24.41-9.21-.4-11.86-2.37s-4.07-4.66-4.3-8.06c-.24-3.47.82-6.37 3.12-8.7s6.3-3.72 12.04-4.27c16.56-1.5 33.07-3.77 49.44-6.68 7.61-1.37 15.27-1.48 23.12-.34s14.52 3.19 20.01 6.24c4.16 2.31 8.8 5.71 13.98 10.19s9.53 9.11 12.97 13.95c3.45 4.84 6.33 11.13 8.59 18.9l3.1 10.68c1.94 8.91 3.4 17.83 1.56 26.76-1.51 7.34-5.54 16.29-10.48 22.09-5.24 6.16-10.54 11.23-15.82 14.77-10.27 6.95-22.97 10.36-35 12.55a871 871 0 0 1-58.44 7.94c-7.05.67-12.19-.02-15.35-1.95s-4.84-4.64-5.08-8.11c-.23-3.4 1.06-6.29 3.83-8.69 2.77-2.41 7.09-3.8 13.01-4.28m28.28-3.21c9.97-1.33 19.92-2.88 29.82-4.63 8.26-1.89 17.18-3.57 24.11-8.77 6.51-4.88 10.9-10.53 13.23-16.61s2.39-13.27.34-21.57c-1.06-4.27-1.59-6.41-2.65-10.69-1.76-7.12-4.84-12.98-9.11-17.64-4.75-5.62-12.36-11.63-19.57-13.77-6.39-1.9-13.84-2.06-22.46-.53-8.55 1.53-17.16 2.87-25.77 4zm220.42-83.02a828 828 0 0 1-61.16 27.35c-.44 6.26-.69 9.4-1.25 15.68 2.57-.97 3.85-1.47 6.41-2.47 6.31-2.47 11.18-3.3 14.68-2.42s5.94 2.91 7.29 6.12c1.32 3.14 1.05 6.27-.86 9.4s-6.13 6.03-12.64 8.57c-12.15 4.77-24.45 9.16-36.84 13.27-6.65 2.2-11.75 2.65-15.22 1.46s-5.7-3.46-6.7-6.8c-1-3.33-.35-6.49 1.91-9.48s6.71-5.44 13.37-7.49c4.22-33.13 6.76-66.27 7.58-99.66-5.96 2.39-8.95 3.55-14.97 5.79-5.54 2.06-9.88 2.45-12.95 1.24s-5.16-3.48-6.29-6.77-.88-6.35.71-9.19 5.04-5.2 10.37-7.18a728 728 0 0 0 47.06-19.73c31.18 28.01 63.97 53.69 98.56 77.35 5.73-3.28 9.77-5 12.21-5.05 4.91-.03 8.45 1.66 10.58 5.14 1.77 2.91 1.99 6.04.6 9.39-1.39 3.36-5.11 6.84-11.19 10.34-11.31 6.53-22.82 12.7-34.46 18.61-6.25 3.16-11.22 4.36-14.82 3.7-3.61-.66-6.14-2.58-7.63-5.73-1.46-3.08-1.32-6.21.35-9.41 1.68-3.2 5.55-6.27 11.59-9.33 2.45-1.24 3.67-1.87 6.11-3.13-5-3.8-7.48-5.72-12.4-9.59Zm-20.42-15.84c-13.02-10.7-25.76-21.68-38.25-33 .05 16.87-.3 33.7-1.05 50.56a868 868 0 0 0 39.31-17.56Z" class="cls-2fat1"/><path d="M1614.92 1593.32c-16.35-25.55-32.7-51.11-49.06-76.66-4.42 2.74-8.29 3.81-11.52 3.27-3.23-.55-5.72-2.3-7.48-5.21-1.8-2.98-2.21-6.02-1.26-9.14.95-3.11 3.83-6.16 8.63-9.24 13.97-8.88 27.54-18.43 40.69-28.47 5.82-4.63 13.46-8.59 20.43-10.94 7.48-2.51 14.43-3.87 20.74-3.7 4.78.13 10.49 1 17.18 2.58s12.7 3.67 18 6.37 10.76 6.96 16.33 12.83c3.06 3.23 4.59 4.84 7.65 8.07 5.81 7.04 11.19 14.31 13.61 23.11 2 7.26 2.46 17.11.7 24.55-1.88 7.91-4.3 14.88-7.4 20.47-5.98 10.9-15.72 19.78-25.44 27.26a870 870 0 0 1-48.07 33.68c-5.9 3.79-10.73 5.51-14.39 5.22-3.66-.28-6.38-1.93-8.19-4.91-1.76-2.91-1.96-6.06-.63-9.45s4.49-6.59 9.48-9.69m23.49-15.7c8.23-5.74 16.34-11.66 24.32-17.74 6.49-5.48 13.66-11.07 17.45-18.87 3.57-7.34 4.91-14.4 4.21-20.89s-3.93-12.92-9.56-19.35c-2.9-3.31-4.35-4.97-7.25-8.28-4.83-5.52-10.26-9.31-16.21-11.47-6.83-2.81-16.37-4.63-23.78-3.21-6.57 1.26-13.28 4.54-20.24 9.85-6.88 5.26-13.9 10.38-21.01 15.32 17.36 24.88 34.71 49.77 52.06 74.65Z" class="cls-2fat1"/><path d="M1286.31 1699.48c-2.81-30.21-5.63-60.42-8.44-90.62-5.24.41-9.21-.4-11.86-2.37s-4.07-4.66-4.3-8.06c-.24-3.47.82-6.37 3.12-8.7s6.3-3.72 12.04-4.27c16.56-1.5 33.07-3.77 49.44-6.68 7.61-1.37 15.27-1.48 23.12-.34s14.52 3.19 20.01 6.24c4.16 2.31 8.8 5.71 13.98 10.19s9.53 9.11 12.97 13.95c3.45 4.84 6.33 11.13 8.59 18.9l3.1 10.68c1.94 8.91 3.4 17.83 1.56 26.76-1.51 7.34-5.54 16.29-10.48 22.09-5.24 6.16-10.54 11.23-15.82 14.77-10.27 6.95-22.97 10.36-35 12.55a871 871 0 0 1-58.44 7.94c-7.05.67-12.19-.02-15.35-1.95s-4.84-4.64-5.08-8.11c-.23-3.4 1.06-6.29 3.83-8.69 2.77-2.41 7.09-3.8 13.01-4.28m28.28-3.21c9.97-1.33 19.92-2.88 29.82-4.63 8.26-1.89 17.18-3.57 24.11-8.77 6.51-4.88 10.9-10.53 13.23-16.61s2.39-13.27.34-21.57c-1.06-4.27-1.59-6.41-2.65-10.69-1.76-7.12-4.84-12.98-9.11-17.64-4.75-5.62-12.36-11.63-19.57-13.77-6.39-1.9-13.84-2.06-22.46-.53-8.55 1.53-17.16 2.87-25.77 4zm220.42-83.02a828 828 0 0 1-61.16 27.35c-.44 6.26-.69 9.4-1.25 15.68 2.57-.97 3.85-1.47 6.41-2.47 6.31-2.47 11.18-3.3 14.68-2.42s5.94 2.91 7.29 6.12c1.32 3.14 1.05 6.27-.86 9.4s-6.13 6.03-12.64 8.57c-12.15 4.77-24.45 9.16-36.84 13.27-6.65 2.2-11.75 2.65-15.22 1.46s-5.7-3.46-6.7-6.8c-1-3.33-.35-6.49 1.91-9.48s6.71-5.44 13.37-7.49c4.22-33.13 6.76-66.27 7.58-99.66-5.96 2.39-8.95 3.55-14.97 5.79-5.54 2.06-9.88 2.45-12.95 1.24s-5.16-3.48-6.29-6.77-.88-6.35.71-9.19 5.04-5.2 10.37-7.18a728 728 0 0 0 47.06-19.73c31.18 28.01 63.97 53.69 98.56 77.35 5.73-3.28 9.77-5 12.21-5.05 4.91-.03 8.45 1.66 10.58 5.14 1.77 2.91 1.99 6.04.6 9.39-1.39 3.36-5.11 6.84-11.19 10.34-11.31 6.53-22.82 12.7-34.46 18.61-6.25 3.16-11.22 4.36-14.82 3.7-3.61-.66-6.14-2.58-7.63-5.73-1.46-3.08-1.32-6.21.35-9.41 1.68-3.2 5.55-6.27 11.59-9.33 2.45-1.24 3.67-1.87 6.11-3.13-5-3.8-7.48-5.72-12.4-9.59Zm-20.42-15.84c-13.02-10.7-25.76-21.68-38.25-33 .05 16.87-.3 33.7-1.05 50.56a868 868 0 0 0 39.31-17.56Z" class="cls-2fat3"/><path d="M1603.48 1590.46c-16.35-25.55-32.7-51.11-49.06-76.66-4.42 2.74-8.29 3.81-11.52 3.27-3.23-.55-5.72-2.3-7.48-5.21-1.8-2.98-2.21-6.02-1.26-9.14.95-3.11 3.83-6.16 8.63-9.24 13.97-8.88 27.54-18.43 40.69-28.47 5.82-4.63 13.46-8.59 20.43-10.94 7.48-2.51 14.43-3.87 20.74-3.7 4.78.13 10.49 1 17.18 2.58s12.7 3.67 18 6.37 10.76 6.96 16.33 12.83c3.06 3.23 4.59 4.84 7.65 8.07 5.81 7.04 11.19 14.31 13.61 23.11 2 7.26 2.46 17.11.7 24.55-1.88 7.91-4.3 14.88-7.4 20.47-5.98 10.9-15.72 19.78-25.44 27.26a870 870 0 0 1-48.07 33.68c-5.9 3.79-10.73 5.51-14.39 5.22-3.66-.28-6.38-1.93-8.19-4.91-1.76-2.91-1.96-6.06-.63-9.45s4.49-6.59 9.48-9.69m23.49-15.7c8.23-5.74 16.34-11.66 24.32-17.74 6.49-5.48 13.66-11.07 17.45-18.87 3.57-7.34 4.91-14.4 4.21-20.89s-3.93-12.92-9.56-19.35c-2.9-3.31-4.35-4.97-7.25-8.28-4.83-5.52-10.26-9.31-16.21-11.47-6.83-2.81-16.37-4.63-23.78-3.21-6.57 1.26-13.28 4.54-20.24 9.85-6.88 5.26-13.9 10.38-21.01 15.32 17.36 24.88 34.71 49.77 52.06 74.65Z" class="cls-2fat3"/></svg>