<svg xmlns="http://www.w3.org/2000/svg" viewBox="0 0 2000 2000" width="300" height="300" fill="none"><defs><style>.cls-5fat1{fill:#5b2516}.cls-5fat2{fill:#602515}.cls-5fat3{fill:#0f422c}.cls-5fat4{fill:#124c31}.cls-5fat5{fill:#723824}.cls-5fat6{fill:#071c12}.cls-5fat7{fill:#0a3320}</style></defs><path d="M1749.88 1842.79h-29.52v-23.04h6.48v-6.48h23.04zm-64.66 0h-35.14v-23.04h35.14zm-70.28 0h-35.14v-23.04h35.14zm-70.28 0h-35.14v-23.04h35.14zm-70.28 0h-35.14v-23.04h35.14zm-70.28 0h-35.14v-23.04h35.14zm-70.28 0h-35.14v-23.04h35.14zm-70.28 0h-35.14v-23.04h35.14zm-70.28 0h-35.14v-23.04h35.14zm-70.28 0h-35.14v-23.04h35.14zm-70.28 0h-35.14v-23.04h35.14zm-70.28 0h-35.14v-23.04h35.14zm-70.28 0H877v-23.04h35.14zm-70.28 0h-35.14v-23.04h35.14zm-70.28 0h-35.14v-23.04h35.14zm-70.28 0h-35.14v-23.04h35.14zm-70.28 0h-35.14v-23.04h35.14zm-70.28 0H525.6v-23.04h35.14zm-70.28 0h-35.14v-23.04h35.14zm-70.28 0h-35.14v-23.04h35.14zm-70.28 0h-35.14v-23.04h35.14zm-70.26 0h-29.52v-29.52h23.04v6.48h6.48zm-6.48-64.66h-23.04v-35.14h23.04zm0-70.28h-23.04v-35.14h23.04zm0-70.28h-23.04v-35.14h23.04zm0-70.28h-23.04v-35.14h23.04zm0-70.28h-23.04v-35.14h23.04zm0-70.28h-23.04v-35.14h23.04zm0-70.28h-23.04v-35.14h23.04zm0-70.28h-23.04v-35.14h23.04zm0-70.28h-23.04v-35.14h23.04zm0-70.28h-23.04v-35.14h23.04zm0-70.28h-23.04v-35.14h23.04zm0-70.28h-23.04v-35.14h23.04zm0-70.28h-23.04v-35.14h23.04zm0-70.28h-23.04v-35.14h23.04zm0-70.28h-23.04v-35.14h23.04zm0-70.28h-23.04v-35.14h23.04zm0-70.28h-23.04v-35.14h23.04zm0-70.28h-23.04v-35.14h23.04zm0-70.28h-23.04v-35.14h23.04zm0-70.28h-23.04v-35.14h23.04zm0-70.27h-23.04v-29.52h29.52v23.04h-6.48zm1412.06-6.48h-35.14v-23.04h35.14zm-70.28 0h-35.14v-23.04h35.14zm-70.28 0h-35.14v-23.04h35.14zm-70.28 0h-35.14v-23.04h35.14zm-70.28 0h-35.14v-23.04h35.14zm-70.28 0h-35.14v-23.04h35.14zm-70.28 0h-35.14v-23.04h35.14zm-70.28 0h-35.14v-23.04h35.14zm-70.28 0h-35.14v-23.04h35.14zm-70.28 0h-35.14v-23.04h35.14zm-70.28 0h-35.14v-23.04h35.14zm-70.28 0H877v-23.04h35.14zm-70.28 0h-35.14v-23.04h35.14zm-70.28 0h-35.14v-23.04h35.14zm-70.28 0h-35.14v-23.04h35.14zm-70.28 0h-35.14v-23.04h35.14zm-70.28 0H525.6v-23.04h35.14zm-70.28 0h-35.14v-23.04h35.14zm-70.28 0h-35.14v-23.04h35.14zm-70.28 0h-35.14v-23.04h35.14zm1399.98 6.48h-23.04v-6.48h-6.48v-23.04h29.52zm0 1405.59h-23.04v-35.14h23.04zm0-70.28h-23.04v-35.14h23.04zm0-70.28h-23.04v-35.14h23.04zm0-70.28h-23.04v-35.14h23.04zm0-70.28h-23.04v-35.14h23.04zm0-70.28h-23.04v-35.14h23.04zm0-70.28h-23.04v-35.14h23.04zm0-70.28h-23.04v-35.14h23.04zm0-70.28h-23.04v-35.14h23.04zm0-70.28h-23.04v-35.14h23.04zm0-70.28h-23.04v-35.14h23.04zm0-70.28h-23.04v-35.14h23.04zm0-70.28h-23.04v-35.14h23.04zm0-70.28h-23.04v-35.14h23.04zm0-70.28h-23.04v-35.14h23.04zm0-70.28h-23.04v-35.14h23.04zm0-70.28h-23.04v-35.14h23.04zm0-70.28h-23.04v-35.14h23.04zm0-70.28h-23.04v-35.14h23.04zm0-70.28h-23.04v-35.14h23.04z" class="cls-5fat6"/><path d="M1281.96 371.46H718.04l3.76-12.35.93-3.04 14.28-46.82 4.84-15.88 49.21-161.3c11.6-38.04 56.68-64.03 106.27-60.79 13.06.86 24.39 2.55 34.06 4.52 32.17 6.55 40.83 15.04 71.42 16.26 39.9 1.6 54.72-11.64 97.75-17.72.22-.04.45-.06.68-.1 53.57-7.44 105.01 19.88 116.43 61.71 14.31 52.42 28.62 104.83 42.92 157.25l4.38 16.05c4.25 15.56 8.49 31.13 12.75 46.69l.87 3.17c1.12 4.12 2.25 8.24 3.37 12.35" class="cls-5fat3"/><path d="M1281.96 371.46c-1.12-4.11-2.25-8.23-3.37-12.35l-.87-3.17c-4.25-15.55-8.49-31.12-12.75-46.69l-4.38-16.05c-14.3-52.42-28.61-104.83-42.92-157.25-11.41-41.83-62.86-69.14-116.43-61.71-.23.04-.46.06-.68.1-43.03 6.08-57.85 19.33-97.75 17.72-30.59-1.22-39.25-9.71-71.42-16.26-9.67-1.97-21-3.66-34.06-4.52-37.09-2.43-71.65 11.5-91.57 34.6 34.85-13.85 82.56-25.54 127.4-7.15 32.95 13.52 34.97 32.36 67.67 42.29 55.72 16.93 87.88-25.42 121.24-8.46 35.6 18.1 51.62 93.1 25.38 140.98-46.56 84.95-217.23 68.26-217.11 78.01.08 6.61 78.55 13.83 351.61 19.89Z" class="cls-5fat7"/><path d="M1442.56 326.61c-43.3 130.2-274.42 199.49-458.66 197.37-15.9-.18-334.45-7.4-419.18-182.33-8.44-17.42-19.32-40.67-9.4-58.27 31.12-55.21 207.79 49.91 449.26 46.99 234.37-2.83 406.72-105.94 439.53-50.1 8.68 14.76 2.97 32.75-1.55 46.34" class="cls-5fat3"/><path d="M1444.11 280.26c-24.03-40.88-122.85 3.44-266.04 31.23 80.85 28.94 98.76 52.36 98.52 69.1-.78 54.33-193.89 106.11-355.65 107.27-103.02.74-187.83-19.09-245.33-37.09 125.33 69.24 296.73 73.08 308.29 73.22 184.24 2.12 415.35-67.17 458.66-197.37 4.52-13.59 10.23-31.58 1.55-46.34Z" class="cls-5fat7"/><path d="M1277.73 355.94c-19.12 5.32-40.34 10.63-63.46 15.52-58.86 12.44-130.17 22.17-211.17 22.41-83.64.25-157.1-9.66-217.37-22.41a1023 1023 0 0 1-62.98-15.39l14.28-46.82 4.84-15.88a1313.7 1313.7 0 0 0 258.42 25.78c101.66.04 189.84-11.73 260.32-25.95l4.38 16.05c4.25 15.56 8.49 31.13 12.75 46.69Z" class="cls-5fat6"/><ellipse cx="830.25" cy="204.01" class="cls-5fat4" rx="80.83" ry="33.37" transform="rotate(-74.77 830.271 203.998)"/><path d="M698.2 426.76c-5.39 7.96-48.85-4.11-78.01-33.84-30.95-31.55-41.41-78.54-32.99-83.61 5.51-3.32 23.76 15.95 60.24 54.47 36.3 38.33 54.46 57.5 50.75 62.97Z" class="cls-5fat4"/><path d="M1044.78 1736.66c78.35-38.84 164.26 77.93 258.85 41.27 27.68-10.73 59.47-37.49 62.47-72.02 2.8-32.31-20.81-57.64-28.01-64.84 7.4 2.08 30.26 9.5 47.38 32.35 19.2 25.63 18.02 53.1 17.5 60.18 2.9-3.87 8.41-12.34 9.82-24.43 1.97-16.87-5.35-29.47-7.77-33.26 5.04 5.36 17.85 20.39 21.08 43.66 4.2 30.26-10.82 52.54-14.41 57.57 5.12-3.9 12.62-10.78 18.13-21.49 2.29-4.45 3.78-8.67 4.76-12.32.08 8.47-.53 20.25-3.68 33.79-21.27 91.5-128.13 132.56-139.08 136.59-122.78 45.22-286.37-17.48-297.15-90.48-4.62-31.26 17.79-70.55 50.1-86.57Z" class="cls-5fat5"/><path d="M1434.59 1743.33c-.98 3.66-2.47 7.87-4.76 12.32-5.51 10.7-13.01 17.58-18.13 21.48 3.58-5.03 18.61-27.31 14.41-57.57-3.23-23.27-16.04-38.3-21.08-43.66 2.41 3.8 9.74 16.39 7.77 33.26-1.41 12.09-6.92 20.56-9.82 24.43.52-7.07 1.7-34.54-17.5-60.18-11.57-15.44-25.76-23.84-36.03-28.3 7.7 8.2 19.29 22.75 26.19 43.74 16.34 49.71-7.71 92.72-11.81 99.78-23.85 41.08-63.04 54.69-72.84 57.78 12-.59 32.43-3.22 54.37-14.83 14.58-7.71 25.13-16.9 32.13-24.1-5.79 11.08-15.24 26.24-30.28 40.78-74.2 71.73-223.53 69.21-305.23-4.94-20.21-18.35-33.53-38.57-42.42-55.9-4.65 11.99-6.56 24.42-4.88 35.79 10.79 73 174.37 135.7 297.16 90.48 10.94-4.03 117.81-45.1 139.08-136.59 3.15-13.54 3.76-25.32 3.68-33.79Z" class="cls-5fat2"/><path d="M1219.32 1781.18c-3.37 2.57-6.71 5.12-9.97 7.68 3.59-2.34 6.9-4.91 9.97-7.68" class="cls-5fat1"/><path d="M955.22 1736.66c-78.35-38.84-164.26 77.93-258.85 41.27-27.68-10.73-59.47-37.49-62.47-72.02-2.8-32.31 20.81-57.64 28.01-64.84-7.4 2.08-30.26 9.5-47.38 32.35-19.2 25.63-18.02 53.1-17.5 60.18-2.9-3.87-8.41-12.34-9.82-24.43-1.97-16.87 5.35-29.47 7.77-33.26-5.04 5.36-17.85 20.39-21.08 43.66-4.2 30.26 10.82 52.54 14.41 57.57-5.12-3.9-12.62-10.78-18.13-21.49a62 62 0 0 1-4.76-12.32c-.08 8.47.53 20.25 3.68 33.79 21.27 91.5 128.13 132.56 139.08 136.59 122.78 45.22 286.37-17.48 297.15-90.48 4.62-31.26-17.79-70.55-50.1-86.57Z" class="cls-5fat5"/><path d="M565.41 1743.33c.98 3.66 2.47 7.87 4.76 12.32 5.51 10.7 13.01 17.58 18.13 21.48-3.58-5.03-18.61-27.31-14.41-57.57 3.23-23.27 16.04-38.3 21.08-43.66-2.41 3.8-9.74 16.39-7.77 33.26 1.41 12.09 6.92 20.56 9.82 24.43-.52-7.07-1.7-34.54 17.5-60.18 11.57-15.44 25.76-23.84 36.03-28.3-7.7 8.2-19.29 22.75-26.19 43.74-16.34 49.71 7.71 92.72 11.81 99.78 23.85 41.08 63.04 54.69 72.84 57.78-12-.59-32.43-3.22-54.37-14.83-14.58-7.71-25.13-16.9-32.13-24.1 5.79 11.08 15.24 26.24 30.28 40.78 74.2 71.73 223.53 69.21 305.23-4.94 20.21-18.35 33.53-38.57 42.42-55.9 4.65 11.99 6.56 24.42 4.88 35.79-10.79 73-174.37 135.7-297.16 90.48-10.94-4.03-117.81-45.1-139.08-136.59-3.15-13.54-3.76-25.32-3.68-33.79Z" class="cls-5fat2"/><path d="M755.61 1021.72c4.18 3.19 8.32 6.35 12.35 9.52a99.4 99.4 0 0 1-12.35-9.52" class="cls-5fat1"/></svg>