<svg xmlns="http://www.w3.org/2000/svg" viewBox="0 0 2000 2000" width="300" height="300" fill="none"><defs><style>.cls-4fat1{fill:#065e75}.cls-4fat2{fill:#136482}.cls-4fat3{fill:#8dc1c6}.cls-4fat4{fill:#b7e1e5}.cls-4fat5{fill:#357f93}</style></defs><path d="M1619.39 445.56c-112.9-72.7-225.82-145.39-338.72-218.1h-.02c-9.24-5.97-18.49-11.92-27.73-17.87l-17.78-11.45c-5.28-.02-10.55-.05-15.83-.07l-32.91-.15c-10.91-.05-21.83-.09-32.74-.14-112.77-.5-225.55-1.01-338.32-1.52-8.42-.03-16.82-.07-25.24-.11-.15.09-.29.18-.44.27l-25.92 15.93c-34.71 21.32-69.42 42.65-104.13 63.98l-.01.01c-5.72 3.5-11.44 7.02-17.16 10.54-86.53 53.17-173.06 106.33-259.59 159.5-39.3 24.15-61.79 68.14-58.45 114.08 16.79 230.42 28.49 460.99 35.11 691.72 4.5 156.7 6.65 313.45 6.46 470.27-.09 68.15 55.28 123.42 123.57 123.42h1007.2c67.63 0 122.74-54.24 123.57-121.71q2.085-170.745 7.68-341.34c9.02-274.69 24.88-549.14 47.56-823.37 3.76-45.4-17.78-89.19-56.14-113.89Zm-281.45 1246.33H656.16c-96.87 0-175.4-78.53-175.4-175.4V834.7c0-96.87 78.53-175.4 175.4-175.4h681.78c96.87 0 175.4 78.53 175.4 175.4v681.79c0 96.87-78.53 175.4-175.4 175.4" class="cls-4fat3"/><path d="M1591.84 464.33c-85.4-55.1-170.79-110.21-256.19-165.31-4.21-2.71-8.41-5.43-12.62-8.14-34.04-21.96-68.07-43.93-102.11-65.89-2.33 0-4.66-.02-6.99-.03-23.65-.11-47.3-.22-70.95-.32l-32.73-.15h-.01c-83.62-.38-167.25-.75-250.87-1.12l-26.14-.12c-13.98-.07-27.96-.13-41.94-.19l-21.63 13.32c-34.37 21.16-68.73 42.32-103.1 63.48l-14.76 9.09c-84.54 52.06-169.09 104.11-253.63 156.17-37.94 23.36-59.65 65.92-56.42 110.36 16.2 222.9 27.5 445.95 33.89 669.16 4.34 151.58 6.42 303.23 6.23 454.93-.08 65.93 53.36 119.4 119.29 119.4h972.27c65.28 0 118.48-52.47 119.28-117.75 1.34-110.11 3.81-220.18 7.42-330.2 8.7-265.73 24.01-531.23 45.91-796.51 3.62-43.92-17.17-86.29-54.2-110.18m-78.5 1052.16c0 96.87-78.53 175.4-175.4 175.4H656.16c-96.87 0-175.4-78.53-175.4-175.4V834.7c0-96.87 78.53-175.4 175.4-175.4h681.78c96.87 0 175.4 78.53 175.4 175.4z" style="fill:#a2d1d9"/><path d="M905.74 463.23c-4.37 7.46-14.51 9.04-20.9 3.21a970 970 0 0 0-106.19-84.13 970.6 970.6 0 0 0-128.48-74.15c-9.32-4.47-10.43-17.27-2.02-23.3 18.3-13.1 38.81-30.36 58.89-52.81a361 361 0 0 0 43.34-59.8c79.79 49.11 159.58 98.21 239.37 147.32-28.01 47.88-56.01 95.77-84.02 143.65Z" class="cls-4fat3"/><path d="M1072.73 463.23c4.37 7.46 14.51 9.04 20.9 3.21a970 970 0 0 1 106.19-84.13 970.6 970.6 0 0 1 128.48-74.15c9.32-4.47 10.43-17.27 2.02-23.3a360.5 360.5 0 0 1-58.89-52.81 361 361 0 0 1-43.34-59.8c-79.79 49.11-159.58 98.21-239.37 147.32 28.01 47.88 56.01 95.77 84.02 143.65Z" class="cls-4fat3"/><path d="M1197.7 305.88a1271.5 1271.5 0 0 1-203.5 9.16 1271.5 1271.5 0 0 1-211.34-25.28c-11.18-45.21-22.37-90.42-33.55-135.63h478.8c-10.14 50.58-20.27 101.16-30.41 151.75" class="cls-4fat3"/><path d="M1106.71 309.79c-15.5 35.64-30.98 71.29-46.47 106.95-1 2.34-2.02 4.66-3.04 7-7.08 16.31-14.18 32.61-21.26 48.92h-87.27c-.83-1.72-1.64-3.42-2.46-5.14-4.11-8.59-8.24-17.2-12.35-25.79l-20.56-42.95c-1.03-2.16-2.08-4.33-3.11-6.49-13.16-27.5-26.32-55-39.48-82.49h235.99Z" class="cls-4fat2"/><path d="M1060.18 659.3H922.56c.22-1.87.45-3.74.67-5.61 1.31-10.85 2.6-21.6 3.91-32.24 2.67-21.89 5.33-43.32 8.02-64.2 1.4-10.95 2.79-21.74 4.19-32.37 2.53-19.16 5.05-37.81 7.57-55.87.09-.63.17-1.25.26-1.87.35-2.47.69-4.93 1.04-7.38h87.87c.42 3.2.84 6.42 1.26 9.65.12.87.24 1.75.35 2.63.54 4.12 1.07 8.26 1.61 12.44 1.24 9.57 2.47 19.31 3.7 29.18 2.36 18.87 4.73 38.25 7.07 58.09 1.15 9.66 2.31 19.42 3.45 29.29 2.21 19.06 4.42 38.5 6.65 58.26m26.64 1032.59c-33.91 32.76-67.83 65.52-101.74 98.28-14.45-14.82-28.9-29.63-43.34-44.45-7.16-7.33-14.31-14.67-21.45-22-10.36-10.61-20.7-21.22-31.05-31.83z" class="cls-4fat2"/><path d="M1086.82 1691.89c-33.91 32.76-67.83 65.52-101.74 98.28-14.45-14.82-28.9-29.63-43.34-44.45-7.16-7.33-14.31-14.67-21.45-22-10.36-10.61-20.7-21.22-31.05-31.83zm19.89-1382.1c-.63 1.44-1.26 2.89-1.88 4.33-14.87 34.2-29.73 68.41-44.59 102.62-1.01 2.34-2.02 4.66-3.04 7-.07.15-.13.31-.2.46-1.01 2.32-2.01 4.63-3.02 6.95l-16.62 38.25c.11.88.23 1.76.34 2.64.54 4.12 1.07 8.26 1.61 12.44 1.24 9.57 2.47 19.31 3.7 29.18 2.36 18.87 4.73 38.25 7.07 58.09 1.15 9.66 2.31 19.42 3.45 29.29 2.21 19.06 4.42 38.5 6.65 58.26h-61.43c5.42-14.43 10.51-28.57 14.96-42.17 3.96-12.09 7.43-23.75 10.19-34.8 6.24-24.87 8.94-46.64 5.83-63.3-1.99-10.65-6.35-19.21-13.69-25.14-17.1-13.83-51.9-14.6-60.1-21.23-1.14-.92-1.77-1.96-1.76-3.16.03-3.98 7.05-6.54 16.54-9.74 10.19-3.45 23.22-7.63 33.52-15.13 6.29-4.56 11.55-10.35 14.54-17.96 2.7-6.88 2.58-12.8 2.44-19.42-.34-17.06-7.05-34.67-15.2-45.05-4.71-5.99-9.9-9.58-14.63-9.25-6.51.45-10.2 8.17-16.52 19.55-.46.83-.93 1.68-1.42 2.55-8.96 15.94-22.24 37.53-41.43 62.83-1.72-3.59-3.43-7.18-5.15-10.77-2.12-4.43-4.24-8.85-6.36-13.28l-7.2-15.06c-1.03-2.16-2.08-4.33-3.11-6.49-13.16-27.5-26.32-55-39.48-82.49z" class="cls-4fat1"/><path d="M1060.23 416.74c-1 2.34-2.02 4.66-3.04 7L946.2 467.52c-4.11-8.59-8.24-17.2-12.35-25.79l123.5-48.73c.96 7.84 1.93 15.76 2.87 23.75Zm-17.55-69-129.37 51.03c-1.03-2.16-2.08-4.33-3.11-6.49.99-8.1 1.99-16.16 3-24.13l125.95-49.69c1.18 9.65 2.37 19.41 3.53 29.29Z" class="cls-4fat5"/><path d="M902.22 445.1c-4.37 7.46-14.51 9.04-20.9 3.21a970 970 0 0 0-106.19-84.13 970.6 970.6 0 0 0-128.48-74.15c-9.32-4.47-10.43-17.27-2.02-23.3 18.3-13.1 38.81-30.36 58.89-52.81a361 361 0 0 0 43.34-59.8c79.79 49.11 159.58 98.21 239.37 147.32-28.01 47.88-56.01 95.77-84.02 143.65Z" class="cls-4fat4"/><path d="M1069.22 445.1c4.37 7.46 14.51 9.04 20.9 3.21a970 970 0 0 1 106.19-84.13 970.6 970.6 0 0 1 128.48-74.15c9.32-4.47 10.43-17.27 2.02-23.3a360.5 360.5 0 0 1-58.89-52.81 361 361 0 0 1-43.34-59.8c-79.79 49.11-159.58 98.21-239.37 147.32 28.01 47.88 56.01 95.77 84.02 143.65Z" class="cls-4fat4"/><path d="m1043 513.66-107.85 43.59c1.4-10.95 2.79-21.74 4.19-32.37l99.96-40.4c1.24 9.57 2.47 19.3 3.7 29.18m10.52 87.38-130.29 52.65c1.31-10.85 2.6-21.6 3.9-32.24l122.94-49.69c1.15 9.65 2.31 19.41 3.45 29.29Zm21.46 1090.85-133.24 53.83c-7.16-7.33-14.31-14.67-21.45-22l78.76-31.83z" class="cls-4fat5"/><rect width="430.54" height="155.31" x="1114.78" y="472.93" class="cls-4fat3" rx="36.39" ry="36.39"/><rect width="403.28" height="129.19" x="1128.41" y="486" class="cls-4fat4" rx="32.13" ry="32.13"/><path d="M1192.18 556.69c-1.67-1.18-3.76-2-6.27-2.49v-.44c1.48-.6 2.75-1.36 3.82-2.3 2.83-2.46 4.24-6.08 4.24-10.87s-1.66-7.91-4.97-10q-3.63-2.31-9.93-2.64c-.68-.03-1.39-.05-2.12-.05-1.31 0-3.41.04-6.3.13s-4.81.13-5.76.13h-4.91q.57 11.76.57 27.33c0 8.43-.11 16.3-.33 23.63-.07 2.25-.15 4.46-.24 6.61 6.22.17 10.39.26 12.52.26 7.66 0 13.68-1.52 18.07-4.55q6.75-4.695 6.75-13.26c0-5.27-1.71-9.1-5.14-11.49m-16.5-23.05c2.51 0 4.62.34 6.3 1.01 2.94 1.16 4.62 3.35 5.02 6.54.07.51.1 1.05.1 1.61 0 2.19-.52 3.99-1.56 5.39-.66.9-1.54 1.64-2.62 2.21-1.33.72-3.09 1.25-5.29 1.57-1.86.29-4.02.42-6.49.42-1.6 0-3.08-.03-4.41-.09v-1.71q0-3.21-.03-5.82c-.04-5.46-.14-8.95-.3-10.46 2.37-.44 5.47-.67 9.28-.67m11.05 43.38c-2.76 1.85-7.42 2.78-13.99 2.78-2.62 0-4.44-.13-5.48-.4v-.18q-.15-3.03-.24-6.33c-.13-4.49-.2-9.34-.2-14.57 1.66-.18 3.58-.27 5.77-.27 5.56 0 9.82.8 12.78 2.38 3.36 1.81 5.05 4.64 5.05 8.5v.67c-.14 3.36-1.37 5.84-3.67 7.42Zm29.69 2.69-.03-.75c-.07-2.01-.13-4.07-.18-6.17-.11-4.59-.16-9.39-.16-14.39 6.87 0 13.33.14 19.38.4v-6.59c-5.67.36-12.13.53-19.38.53v-1.77c0-2.07 0-4.02-.03-5.84-.04-4.31-.11-7.95-.22-10.91 8.4 0 16.35.18 23.85.53l.32-6.59h-30.91q.57 11.76.57 27.33c0 8.37-.11 16.19-.33 23.47-.07 2.31-.15 4.57-.24 6.77h32.96l.24-6.68c-8.18.44-16.79.66-25.84.66m66.01-15.45c-.85-1.98-2.12-3.76-3.81-5.37q-3.39-3.225-11.04-6.81c-4.47-2.09-7.36-3.65-8.67-4.69-2.02-1.65-3.03-3.69-3.03-6.14 0-.73.07-1.41.22-2.04.87-3.71 4.29-5.57 10.29-5.57 4.66 0 9.07.71 13.21 2.13l.98-7.03c-2.4-.92-6.84-1.37-13.33-1.37-5.72 0-10.16 1.53-13.29 4.59l-.43.43c-2.52 2.68-3.78 6.1-3.78 10.23 0 .32 0 .63.03.94.19 3.76 1.55 6.93 4.1 9.49 1.99 2.01 5.46 4.2 10.43 6.59 4.71 2.27 7.88 4.08 9.48 5.44.74.63 1.37 1.29 1.89 2q1.71 2.385 1.71 5.34c0 1.79-.47 3.3-1.4 4.53-2 2.64-6.17 3.96-12.5 3.96-1.85 0-3.74-.18-5.68-.52-2.39-.42-4.84-1.11-7.37-2.05l-.24 1.15-1.19 5.8c3.98 1.26 8.53 1.9 13.66 1.9 14.04 0 21.06-5.46 21.06-16.36 0-2.38-.43-4.57-1.3-6.57m46.9-29.86.21-6.24h-40.65l-.21 6.32c7.16-.34 12.75-.52 16.76-.53h.25c.17 5.78.25 12.96.25 21.54 0 7.84-.1 15.66-.29 23.47-.06 2.26-.13 4.51-.2 6.77h7.48c-.06-2.28-.11-4.54-.16-6.77-.02-1.35-.05-2.69-.07-4.03 0-.31-.02-.62-.02-.93-.11-6.35-.16-12.52-.16-18.51q0-13.05.09-21.54c5.75 0 11.32.15 16.72.45m62.16 1.17c-.93-1.04-1.97-1.98-3.12-2.8-4.46-3.25-10.52-4.87-18.18-4.87-.71 0-2.18.04-4.42.13-.36.01-.7.03-1.02.04-1.73.06-3.05.09-3.97.09h-4.5c.41 7.84.62 16.95.62 27.33 0 11.02-.21 21.1-.62 30.24 6.63.41 11.36.62 14.2.62 8.69 0 15.51-3.16 20.46-9.46 2.72-3.46 4.68-7.23 5.9-11.32 1.01-3.36 1.52-6.93 1.52-10.7 0-7.76-2.29-14.19-6.87-19.3m-21.55 44.85c-2.02 0-4.11-.23-6.3-.71-.01-.14-.01-.28-.01-.42-.3-8.05-.44-15.99-.44-23.8 0-7.26-.1-14.31-.32-21.18.73-.11 1.41-.2 2.03-.27 1.06-.11 1.95-.17 2.67-.17 8.07 0 14.04 2.19 17.89 6.58 3.86 4.4 5.79 9.86 5.79 16.41 0 2.46-.25 4.78-.76 6.97-.82 3.58-2.32 6.81-4.5 9.67-1.99 2.62-4.57 4.49-7.74 5.63q-3.63 1.29-8.31 1.29m81.68-1.46c-1.41-4.12-3.59-10.06-6.54-17.81-.16-.41-.32-.84-.48-1.27-.35-.92-.72-1.87-1.09-2.85-.4-1.06-.8-2.08-1.18-3.08-5.56-14.63-8.5-23.1-8.84-25.42-.02-.15-.03-.27-.03-.37h-9.49c0 1.77-3.52 11.53-10.56 29.29-7.03 17.76-10.54 27.19-10.54 28.28h8.25c0-1.12.47-3.38 1.41-6.77.85-3.04 2.07-6.99 3.67-11.85h23.59c3.44 10.44 5.16 16.64 5.16 18.62h8.63c0-.71-.65-2.97-1.96-6.77m-33.71-17.64c6.63-17.48 9.94-26.67 9.94-27.59h.45q0 .375.51 2.04c.91 2.98 3.03 9.04 6.38 18.18.68 1.85 1.41 3.83 2.19 5.93.17.47.35.95.53 1.44zm85.78-9.28v-.02c-.5-6.5-2.76-11.98-6.77-16.45-4.58-5.12-11.68-7.67-21.3-7.67-.3 0-.72.01-1.28.02-.79.02-1.83.06-3.14.11-1.34.05-2.47.09-3.4.11-.63.01-1.15.02-1.59.02h-4.5c.41 7.84.62 16.95.62 27.33 0 11.02-.21 21.1-.62 30.24 6.63.41 11.36.62 14.2.62 8.69 0 15.51-3.16 20.46-9.46.38-.49.75-.98 1.09-1.48 4.23-5.97 6.34-12.82 6.34-20.54 0-.96-.04-1.91-.11-2.83m-28.32 28.38c-2.02 0-4.11-.23-6.29-.71 0-.22-.02-.43-.02-.65-.3-7.97-.44-15.83-.44-23.57 0-7.26-.1-14.31-.32-21.18 1.99-.3 3.56-.44 4.7-.44.5 0 1 .01 1.49.03 7.32.25 12.79 2.43 16.4 6.55 3.86 4.4 5.79 9.86 5.79 16.41 0 5.31-1.17 9.99-3.53 14.04-.51.9-1.09 1.76-1.73 2.6-2.3 3.03-5.39 5.06-9.28 6.1-2.03.55-4.29.82-6.77.82" class="cls-4fat3"/><path d="M1192.18 556.69c-.46-2.04-1.28-3.78-2.45-5.23-1.09-1.35-2.48-2.44-4.19-3.27-1.39-.68-2.98-1.19-4.78-1.54v-.46c2.77-1.11 4.85-2.77 6.24-5 1.42-2.25 2.13-5.09 2.13-8.5 0-.73-.04-1.43-.13-2.1-.9-7.27-6.75-10.91-17.55-10.91-1.36 0-3.55.05-6.55.14s-5 .14-5.99.14h-5.11c.4 8.03.6 17.37.6 28 0 11.3-.2 21.64-.6 31 2.45.07 4.59.12 6.42.16 3.02.08 5.22.11 6.59.11.15 0 .3 0 .44-.01 7.76-.05 13.87-1.6 18.35-4.65 2.05-1.4 3.65-3.06 4.8-4.97 1.48-2.46 2.22-5.33 2.22-8.63 0-1.55-.15-2.97-.44-4.28m-31.56-28.53c-.05-.81-.09-1.45-.14-1.91 2.47-.45 5.68-.67 9.65-.67s6.96.79 8.94 2.37c1.88 1.52 2.85 3.75 2.91 6.7v.31c0 3.68-1.45 6.28-4.34 7.79-2.35 1.25-6 1.93-10.95 2.02-.42.02-.85.02-1.29.02q-2.505 0-4.59-.09c0-7.99-.07-13.5-.2-16.54Zm20.99 41.87c-2.87 1.91-7.71 2.86-14.54 2.86h-.06c-2.69 0-4.57-.14-5.64-.41-.31-6.34-.47-13.55-.47-21.62 1.69-.18 3.63-.27 5.83-.27h.17c4.34 0 7.92.46 10.73 1.38 4.71 1.53 7.29 4.35 7.73 8.46.05.42.07.86.07 1.31 0 3.81-1.27 6.57-3.82 8.29m34.6 2.76c-1.24.01-2.49.01-3.74.01-.26-6.8-.38-14.08-.38-21.85 1.33 0 2.65 0 3.96.02 5.67.04 11.07.17 16.19.39v-6.75c-4.85.3-10.26.47-16.22.52-1.28.01-2.59.02-3.93.02 0-6.89-.07-12.56-.2-16.99-.01-.69-.04-1.36-.06-1.99q13.095 0 24.78.54l.35-6.75h-32.14c.39 8.03.59 17.37.59 28 0 11.3-.2 21.64-.59 31h34.26l.26-6.84c-7.38.39-15.08.61-23.13.67m60.92-21.34c-2.36-2.2-6.18-4.53-11.48-6.98-4.65-2.14-7.65-3.74-9.01-4.8-.19-.15-.37-.31-.54-.46-1.74-1.61-2.61-3.56-2.61-5.84 0-.34.02-.67.04-.98q.675-6.81 10.89-6.81c4.84 0 9.42.72 13.73 2.17l1.02-7.2q-3.75-1.41-13.86-1.41c-5.95 0-10.56 1.57-13.82 4.71q-4.38 4.215-4.38 10.92 0 5.07 2.67 8.79c.48.67 1.02 1.31 1.63 1.91 2.07 2.06 5.68 4.31 10.84 6.75 4.9 2.33 8.19 4.19 9.86 5.58 2.49 2.08 3.74 4.59 3.74 7.52 0 .62-.06 1.21-.17 1.76-.92 4.63-5.68 6.94-14.28 6.94-4.28 0-8.8-.87-13.56-2.63l-1.49 7.12c1.23.39 2.51.72 3.85.98 2.37.49 4.91.79 7.61.9.9.05 1.81.07 2.74.07 6.66 0 11.82-1.17 15.44-3.51 4.16-2.68 6.31-6.91 6.44-12.69.01-.19.01-.38.01-.57q0-7.245-5.31-12.24m35.33-25.56c5.97 0 11.77.15 17.38.46l.21-6.39h-42.25l-.21 6.48c7.59-.37 13.49-.55 17.68-.55l.06 2.27c.05 1.81.08 3.74.11 5.79.06 4.17.09 8.85.09 14.01 0 10.37-.17 20.7-.52 31h7.79c-.04-1.35-.07-2.7-.1-4.03 0-.31-.02-.62-.02-.93-.21-9.02-.31-17.71-.31-26.04 0-7.79.02-14.39.07-19.8 0-.78 0-1.54.02-2.27m82 1.66c-4.76-5.24-12.15-7.87-22.15-7.87-.74 0-2.27.05-4.59.14-2.33.09-4.06.14-5.19.14h-4.67c.14 2.59.25 5.33.34 8.2.19 6 .29 12.61.29 19.8 0 11.3-.21 21.64-.63 31 2.11.13 4.03.24 5.77.33 3.94.2 6.93.31 8.98.31s3.85-.15 5.64-.47c6.4-1.1 11.61-4.18 15.63-9.23 1.11-1.39 2.1-2.84 2.96-4.33 3.18-5.43 4.76-11.51 4.76-18.24 0-7.95-2.38-14.54-7.14-19.78m-3.97 36.28c-.52.9-1.11 1.77-1.75 2.6-3.64 4.73-9.2 7.09-16.69 7.09-2.09 0-4.28-.24-6.54-.72-.31-8.4-.47-16.68-.47-24.84 0-4.72-.04-9.36-.14-13.92-.04-2-.08-3.99-.15-5.97-.01-.61-.03-1.21-.05-1.82q3.105-.45 4.89-.45 12.585 0 18.6 6.75c.06.07.13.14.18.22 3.89 4.47 5.83 10 5.83 16.6 0 5.47-1.23 10.29-3.71 14.46m58.04-14.28c-6.97-17.95-10.46-27.81-10.46-29.59h-9.86c0 .87-.83 3.6-2.5 8.2-1.83 5.04-4.65 12.31-8.47 21.82-7.31 18.2-10.96 27.86-10.96 28.98h8.58q0-2.43 2.94-11.85.81-2.625 1.86-5.79c.15-.47.31-.95.47-1.44h24.53c.14.43.28.85.42 1.27 3.29 9.94 4.94 15.87 4.94 17.81h8.97c0-1.66-3.49-11.46-10.46-29.41m-26.61 4.4c2.91-7.58 5.21-13.64 6.89-18.18 1.25-3.38 2.16-5.92 2.72-7.61q.72-2.13.72-2.49h.47c0 .29.22 1.12.65 2.49.04.12.08.24.12.37 1.34 4.14 4.41 12.62 9.22 25.42zm82.13-26.4c-4.76-5.24-12.15-7.87-22.15-7.87-.74 0-2.27.05-4.59.14s-4.05.14-5.19.14h-4.67c.14 2.59.25 5.32.35 8.18.19 6.01.29 12.62.29 19.82 0 11.3-.22 21.64-.64 31 .55.03 1.09.07 1.61.1 6 .35 10.37.54 13.08.54h.06c5.92 0 11.01-1.39 15.26-4.19 2.23-1.44 4.24-3.28 6.02-5.51 5.14-6.47 7.71-13.99 7.71-22.57 0-7.95-2.38-14.54-7.14-19.78m-.36 24.47v.02c-.42 5.51-2.22 10.31-5.36 14.39a16.8 16.8 0 0 1-5.18 4.47c-3.13 1.75-6.96 2.62-11.5 2.62-2.1 0-4.28-.24-6.55-.72-.31-8.4-.47-16.68-.47-24.84 0-4.77-.05-9.45-.14-14.06-.04-2.01-.09-4-.15-5.98-.01-.56-.03-1.11-.05-1.67q3.105-.45 4.89-.45 12.585 0 18.6 6.75c4.01 4.51 6.02 10.11 6.02 16.82 0 .9-.03 1.78-.11 2.65" class="cls-4fat1"/></svg>