<svg xmlns="http://www.w3.org/2000/svg" viewBox="0 0 2000 2000" width="300" height="300" fill="none"><defs><style>.cls-son52{fill:#fbdf07}.cls-son53{fill:#f45611}.cls-son54{fill:#ff7545}.cls-son55{fill:#3fc43f}.cls-son56{fill:#88ccea}.cls-son57{fill:#5aaddb}.cls-son58{fill:#f789bb}.cls-son59{fill:#f94892}.cls-son510{fill:#32b232}</style></defs><path d="M606.65 1593.78c2.36-8.72 23.31-81.22 98-112.46 80.3-33.58 151.28 10.42 157.41 14.37-1.3 9.08-14.71 92.81-92.64 134.52-63.07 33.75-124.51 16.5-136.84 12.76-8.64-16.4-17.28-32.79-25.93-49.19" class="cls-son55"/><path d="M659.76 1648.86c-13.38-1.86-23.04-4.63-27.18-5.88-8.64-16.4-17.28-32.8-25.93-49.19 1.18-4.36 7.01-24.67 21.88-47.79 4.88-7.58 30.49-45.21 76.13-64.67 75.32-32.13 148.93 9.42 157.41 14.38-37.66 8.32-92.21 25.5-148.36 63.46-29.15 19.71-52.22 40.61-70 59.31 2.68 5.07 5.35 10.13 16.06 30.39Z" class="cls-son510"/><path d="M631.81 1563.87c-5.76-7.24-54.74-66.75-129.49-58.72-80.36 8.63-119.01 87.66-122.28 94.63 5.05 8.14 52.81 82.39 134.8 82.85 66.36.37 108.98-47.85 117.41-57.8-.15-20.32-.29-40.64-.44-60.96" class="cls-son55"/><path d="M612.63 1644.46c10.12-8.66 16.79-16.3 19.62-19.64-.15-20.32-.29-40.64-.44-60.96-2.88-3.62-16.57-20.31-38.88-35.09-7.32-4.85-44.78-28.17-90.62-23.64-75.66 7.49-117.54 85.48-122.28 94.63 34.43-11.25 86.54-22.57 149.09-14.57 32.48 4.15 60.51 12.58 83.25 21.58l.24 37.68Z" class="cls-son510"/><path d="M1659.24 1723.51H456.69c-73.33 0-132.99-59.66-132.99-132.99V387.97c0-73.33 59.66-132.99 132.99-132.99h1202.55c73.33 0 132.99 59.66 132.99 132.99v1202.55c0 73.33-59.66 132.99-132.99 132.99M456.69 288.18c-55.02 0-99.79 44.76-99.79 99.79v1202.55c0 55.02 44.76 99.79 99.79 99.79h1202.55c55.02 0 99.79-44.76 99.79-99.79V387.97c0-55.02-44.76-99.79-99.79-99.79z" class="cls-son52"/><path d="M351.42 1668.08c12.31-1.42 26.56-66.75 8.25-127.89-29.07-97.03-140.01-182.9-226.06-159.93-31.47 8.4-72.06 34.69-78.86 73.94-5.15 29.75 9.85 62.61 32.78 82.55 62.54 54.39 153.13-14.28 215.36 38.32 41.11 34.75 36.67 94.37 48.53 93.01m16.67-176.32c-11.35.1-36.6-57.63-31.71-115.22 7.75-91.41 91.35-181.92 173.19-170.77 29.94 4.08 71.48 23.37 85.05 58.25 10.29 26.44 3.02 57.98-13.84 78.68-45.99 56.46-140.61 4.31-186.66 59.11-30.42 36.2-15.1 89.85-26.04 89.95Zm-79.94-140.6c7.66-2.38 7.62-31.09 2.14-54.39-11.93-50.72-58.24-113.56-108.35-107.09-18.6 2.4-44.37 14.22-52.68 35.88-6.3 16.41-1.66 36.08 8.9 49.04 26.13 32.06 75.37 3.57 116.31 37.64 21.46 17.86 26.56 41.13 33.69 38.92Zm12.47-83.47c-5.41 1.24-16.28-16.7-20.58-34.97-7.44-31.61.29-81.94 31.84-90.73 12.44-3.47 32.53-3.32 45 7.12 9.45 7.91 13.15 20.58 10.89 30.9-5.49 25.06-46.06 21.3-60.13 52.36-7.98 17.62-1.96 34.17-7.03 35.33Z" class="cls-son57"/><path d="M537.59 1236.03c-.72 3.9-22.92-5-49.17 5.75-28.23 11.56-34.59 34.96-50.62 32.15-9.81-1.72-18.5-12.44-18.22-21.59.54-17.36 33.45-30.54 58.52-32.62 31.83-2.64 60.31 11.85 59.48 16.31Zm-285.6 202.45c-2.27 3.26-18.8-14.03-47.15-15.09-30.48-1.14-45.95 17.53-59.38 8.35-8.22-5.62-11.71-18.97-7.66-27.19 7.67-15.58 43.09-13.98 66.77-5.51 30.07 10.75 50.02 35.72 47.42 39.44m-92.23-221.1c.55 3.37 13.08-4.85 28.62 3.87 16.71 9.38 21.18 29.51 30.35 26.71 5.61-1.71 10.28-11.19 9.8-19.11-.9-15.03-20.37-25.71-34.94-26.95-18.49-1.57-34.47 11.62-33.84 15.47Zm137.88-21.29c2.13-.26-2.73-8.34 3.13-17.89 6.3-10.27 19.06-12.59 17.53-18.42-.94-3.57-6.78-6.73-11.77-6.63-9.46.2-16.65 12.17-17.78 21.29-1.44 11.58 6.46 21.94 8.89 21.64Z" class="cls-son56"/><path d="M1767.33 1682.36c-8.51.48-25.79-42.13-20.51-85.69 8.37-69.14 73.53-140.27 134.52-134.75 22.31 2.02 52.88 15.1 62.06 40.9 6.96 19.56.63 43.58-12.58 59.76-36.03 44.15-105.43 8.19-141.46 51.1-23.8 28.34-13.83 68.23-22.03 68.69Zm-31.87-117.53c7.71-1.26 18.07-43.32 8.04-81.77-15.92-61.04-83.13-112.61-137.29-95.51-19.81 6.26-45.71 24.18-50.83 49.4-3.89 19.11 4.72 39.64 18.56 51.7 37.75 32.89 95.78-13.49 133.38 18.27 24.84 20.98 20.72 59.12 28.14 57.91m37.76-104.61c-5.47-.72-8.79-20.17-7.79-36.61 2.17-35.76 26.21-83.75 60.92-85.21 12.89-.54 31.72 4.46 39.88 18.16 6.18 10.38 5.34 24.25-.31 34.27-13.96 24.77-50.66 11.21-74.42 39.08-12.45 14.61-13.2 30.97-18.29 30.31Zm-18.19-55.1c3.81.21 9.08-13.21 9.86-26.1 1.35-22.29-9.76-55.49-32.16-57.77-8.84-.9-22.43 1.55-29.66 10.08-5.48 6.46-6.51 15.48-3.78 22.21 6.64 16.34 33.7 9.06 46.85 28.46 7.46 11.01 5.31 22.92 8.88 23.12Z" class="cls-son57"/><path d="M1590.77 1411.32c.94 2.56 14.94-6.06 33.99-1.84 20.47 4.54 27.52 19.65 38.05 15.88 6.45-2.31 11.09-10.59 9.82-16.75-2.39-11.7-26.23-16.79-43.46-15.27-21.88 1.93-39.48 15.07-38.4 17.99Zm217.15 103.86c1.92 1.94 11.1-11.7 30.19-15.73 20.52-4.33 33.18 6.52 41.21-1.27 4.91-4.77 5.72-14.22 2.02-19.32-7.02-9.66-30.83-4.44-45.89 4.06-19.12 10.8-29.72 30.04-27.53 32.26m36.69-160.59c.02 2.34-9.43-1.76-18.94 5.97-10.23 8.3-10.91 22.47-17.45 21.64-4-.51-8.27-6.38-8.87-11.81-1.14-10.29 10.81-19.8 20.53-22.34 12.35-3.22 24.71 3.85 24.74 6.53Zm-95.91 1.67c-1.47.07.87-5.97-4.21-11.76-5.47-6.22-14.38-6.3-14.02-10.43.22-2.53 3.81-5.35 7.2-5.86 6.44-.97 12.7 6.3 14.53 12.35 2.33 7.68-1.82 15.62-3.5 15.7" class="cls-son56"/><path d="M1090.44 1520.76c-7.69-.24-24.58-44.31-21.05-87.42 5.59-68.43 62.57-134.07 117.97-123.4 20.27 3.9 48.34 19.56 57.4 46.14 6.87 20.14 1.83 43.63-9.67 58.7-31.37 41.11-95.27-.7-126.67 39.16-20.74 26.33-10.57 67.06-17.98 66.83Z" class="cls-son57"/><path d="M1206.22 1333.45c-.5 2.91-15.51-4.4-33.33 2.94-19.17 7.89-23.57 25.29-34.41 22.72-6.64-1.57-12.49-9.86-12.26-16.72.43-13.02 22.78-22 39.77-22.86 21.57-1.09 40.81 10.59 40.24 13.92Z" class="cls-son56"/><path d="M1037.9 1405.3c-2.71 3.08-27.02-5.42-44.01-21.96-26.97-26.26-35.33-72.65-12.04-91.68 8.52-6.96 24.64-13.01 38.92-7.43 10.82 4.23 19.02 14.53 21.48 24.53 6.7 27.28-32.6 38.89-26.44 65.76 4.07 17.74 24.7 27.82 22.09 30.79Z" class="cls-son57"/><path d="M998.16 1292.14c1.06 1.23-7.11 4.83-10.06 14.72-3.17 10.64 2.67 18.54-2.08 22.1-2.91 2.18-8.39 1.68-11.21-.82-5.35-4.74-1.55-17.06 3.84-24.34 6.86-9.24 18.3-13.06 19.51-11.66" class="cls-son56"/><path d="M1080.54 1578.02c5.69-2.42 2.91-43.08-14.87-77.08-28.22-53.97-94.06-90.82-131.94-66.17-13.86 9.02-29.45 29.84-26.93 54.04 1.91 18.34 13.94 35.96 27.87 44.88 37.99 24.33 71.33-28.07 108.91-4.76 24.83 15.4 31.47 51.41 36.96 49.08Z" class="cls-son57"/><path d="M927.81 1459.31c1.4 2.22 10.11-8.05 26.07-7.24 17.17.87 26.58 13.73 33.83 8.52 4.44-3.19 5.92-11.61 3.34-17.12-4.9-10.45-24.83-11.29-37.9-7.08-16.59 5.34-26.94 20.38-25.34 22.92" class="cls-son56"/><path d="M565.74 300.08c0 5.12-58.05 7.55-58.51 12.55-.47 5.09 56.16 18.05 55.24 23s-58.44-3.24-59.82 1.6c-1.39 4.9 51.87 28.1 50.04 32.81-1.84 4.75-56.82-14.01-59.08-9.49s45.79 37.19 43.12 41.48-53.27-24.24-56.32-20.21c-3.06 4.05 38.2 44.95 34.78 48.69-3.42 3.75-47.93-33.59-51.68-30.17-3.74 3.42 29.35 51.17 25.3 54.23-4.04 3.05-40.97-41.79-45.29-39.11s19.47 55.68 14.92 57.95c-4.52 2.26-32.56-48.62-37.31-46.78-4.71 1.82 8.87 58.31 3.96 59.71-4.85 1.38-22.99-53.81-28.01-52.88-4.95.92-2.04 58.94-7.14 59.41-5 .46-12.71-57.12-17.83-57.12s-12.83 57.58-17.83 57.12c-5.09-.47-2.19-58.49-7.14-59.41-5.02-.93-23.16 54.25-28.01 52.88-4.9-1.39 8.67-57.88 3.96-59.71s-32.79 49.03-37.31 46.78c-4.55-2.27 19.22-55.28 14.92-57.95-4.32-2.68-41.25 42.17-45.29 39.11-4.05-3.06 29.04-50.81 25.3-54.23-3.75-3.42-48.26 33.92-51.68 30.17s37.85-44.64 34.78-48.69c-3.05-4.04-53.65 24.52-56.32 20.21-2.67-4.3 45.39-36.93 43.12-41.48-2.26-4.52-57.24 14.24-59.08 9.49-1.82-4.71 51.44-27.9 50.04-32.81-1.38-4.85-58.88 3.42-59.82-1.6-.92-4.95 55.71-17.9 55.24-23-.46-5-58.51-7.43-58.51-12.55s58.05-7.55 58.51-12.55c.47-5.09-56.16-18.05-55.24-23 .93-5.02 58.44 3.24 59.82-1.6s-51.87-28.1-50.04-32.81 56.82 14.01 59.08 9.49c2.27-4.55-45.79-37.19-43.12-41.48s53.27 24.24 56.32 20.21c3.06-4.05-38.2-44.95-34.78-48.69 3.42-3.75 47.93 33.59 51.68 30.17s-29.35-51.17-25.3-54.23c4.04-3.05 40.97 41.79 45.29 39.11s-19.47-55.68-14.92-57.95c4.52-2.26 32.56 48.62 37.31 46.78s-8.87-58.31-3.96-59.71c4.85-1.38 22.99 53.81 28.01 52.88 4.95-.92 2.04-58.94 7.14-59.41s12.71 57.12 17.83 57.12 12.83-57.58 17.83-57.12c5.09.47 2.19 58.49 7.14 59.41s23.16-54.25 28.01-52.88-8.67 57.88-3.96 59.71c4.75 1.84 32.79-49.03 37.31-46.78 4.55 2.27-19.22 55.28-14.92 57.95s41.25-42.17 45.29-39.11c4.05 3.06-29.04 50.81-25.3 54.23 3.75 3.42 48.26-33.92 51.68-30.17 3.42 3.74-37.85 44.64-34.78 48.69 3.05 4.04 53.65-24.52 56.32-20.21 2.67 4.3-45.39 36.93-43.12 41.48s57.24-14.24 59.08-9.49c1.82 4.71-51.44 27.9-50.04 32.81 1.38 4.85 58.88-3.42 59.82 1.6.92 4.95-55.71 17.9-55.24 23 .46 5 58.51 7.43 58.51 12.55" class="cls-son52"/><path d="M1251.44 1644.76c2.27-10.97 22.72-101.96 107.33-133.06 90.97-33.44 175.18 32.12 182.47 37.97-1.03 11.56-12.19 117.98-100 162.19-71.06 35.78-142.89 5.93-157.32-.42-10.82-22.23-21.65-44.46-32.47-66.69Z" class="cls-son55"/><path d="M1315.59 1722.41c-15.55-4.05-26.84-8.82-31.69-10.95-10.82-22.23-21.65-44.46-32.47-66.7 1.14-5.49 6.82-30.98 22.79-58.98 5.24-9.19 32.87-54.59 84.55-74.08 85.3-32.17 172.43 30.53 182.46 37.98-43.05 6.09-105.13 21.53-168 63.6-32.64 21.84-58.19 45.98-77.75 67.92 3.35 6.87 6.7 13.74 20.11 41.21" class="cls-son510"/><path d="M1298.28 1622.99c-9.81-2.95-91.93-26.11-156.4 28.33-69.31 58.52-56.55 154.68-55.3 163.07 9.7 4.21 99.76 41.53 176.19-9.76 61.85-41.51 71.74-112.19 73.45-126.54-12.65-18.36-25.29-36.73-37.94-55.09Z" class="cls-son55"/><path d="M1330.09 1708.29c4.06-14.25 5.56-25.39 6.13-30.21-12.65-18.36-25.29-36.73-37.94-55.09-4.91-1.48-27.89-8-57.71-7.35-9.78.21-58.93 2.65-98.7 35.68-65.65 54.52-56.52 151.77-55.29 163.07 25.05-31.93 66.47-75.07 129.48-107.27 32.71-16.71 63.94-26.74 90.6-32.9 3.9 5.68 7.81 11.36 23.42 34.08Z" class="cls-son510"/><path d="M1307.72 1660.2c3.08-7.83 27.64-73.54-11.79-134.31-42.4-65.34-121.05-66.84-127.93-66.85-4.09 7.57-40.68 78.13-4.63 148.5 29.17 56.95 85.62 74.16 97.1 77.4 15.75-8.25 31.5-16.49 47.24-24.74Z" class="cls-son55"/><path d="M1236.48 1675.99c11.23 5.2 20.14 7.86 23.99 8.95 15.75-8.25 31.5-16.49 47.25-24.74 1.54-3.91 8.45-22.3 10.05-47.3.52-8.2 2.04-49.59-21.84-87.02-39.42-61.77-118.71-66.45-127.93-66.85 24.03 24.97 55.98 65.06 77.53 121.8 11.19 29.46 17.08 56.83 20.16 79.89-4.87 2.54-9.74 5.09-29.22 15.27Z" class="cls-son510"/><path d="M1637.49 1634.49c1.61-4.08 14.42-38.36-6.15-70.07-22.12-34.09-63.15-34.87-66.74-34.88-2.13 3.95-21.22 40.76-2.42 77.47 15.22 29.71 44.67 38.69 50.66 40.38 8.22-4.3 16.43-8.6 24.65-12.91Z" class="cls-son55"/><path d="M1600.32 1642.73c5.86 2.71 10.51 4.1 12.52 4.67 8.22-4.3 16.43-8.6 24.65-12.91.8-2.04 4.41-11.63 5.24-24.68.27-4.28 1.07-25.87-11.39-45.4-20.56-32.22-61.93-34.67-66.74-34.87 12.54 13.03 29.2 33.94 40.45 63.54 5.84 15.37 8.91 29.65 10.52 41.68-2.54 1.33-5.08 2.65-15.24 7.96Z" class="cls-son510"/><path d="M1595.59 1633.97c.98 3.62 9.64 33.64 39.88 44.9 32.51 12.11 61.04-8.24 63.5-10.06-.55-3.79-6.2-38.74-37.78-54.34-25.55-12.62-50.31-3.79-55.28-1.9-3.44 7.13-6.88 14.26-10.33 21.39Z" class="cls-son55"/><path d="M1616.87 1609.41c-5.4 1.12-9.29 2.54-10.96 3.17-3.44 7.13-6.88 14.26-10.33 21.39.49 1.81 2.9 10.22 8.97 19.58 1.99 3.07 12.44 18.28 30.91 25.32 30.5 11.62 60.09-7.76 63.5-10.06-15.23-2.55-37.29-8.4-60.07-22.97-11.82-7.56-21.2-15.79-28.43-23.22 1.07-2.2 2.13-4.41 6.4-13.22Z" class="cls-son510"/><path d="M1513.8 1786.47c3.7.56 34.68 4.7 57.14-18.46 24.16-24.9 16.99-59.2 16.31-62.19-3.7-1.02-37.97-9.9-64.94 12.75-21.83 18.32-23.69 44.54-23.96 49.85 5.15 6.02 10.29 12.04 15.44 18.05Z" class="cls-son55"/><path d="M1499.87 1757.11c-1.14 5.39-1.41 9.52-1.5 11.31 5.15 6.02 10.29 12.04 15.44 18.06 1.85.28 10.52 1.45 21.54-.34 3.61-.59 21.74-4.04 35.61-18.13 22.9-23.25 17.05-58.14 16.31-62.19-8.45 12.92-22.68 30.77-45.18 45.77-11.68 7.78-22.98 13.06-32.68 16.69-1.59-1.86-3.18-3.72-9.53-11.17Z" class="cls-son510"/><path d="M1519.77 1778.06c.48 3.4 4.01 31.71-16.57 46.46-22.12 15.86-52.43 1.94-55.07.68-.89-3.49-8.59-35.77 11.55-54.61 16.3-15.25 39.49-11.1 44.19-10.16l15.9 17.64Z" class="cls-son55"/><path d="M1493.86 1759.24c4.78.18 8.43.86 10.01 1.17l15.9 17.64c.24 1.7 1.24 9.63-.39 18.97-.53 3.07-3.67 18.33-16.18 27.49-20.66 15.11-51.49 2.23-55.07.68 11.46-4.62 27.31-13.26 40.67-29.84 6.93-8.61 11.65-17.43 14.9-25.21-1.64-1.82-3.28-3.63-9.84-10.9" class="cls-son510"/><path d="M1516.47 1776.64c1.94-1.85 18.29-16.91 36.97-10.55 20.09 6.84 24.99 32.37 25.39 34.62-1.81 2.15-18.79 21.66-39.87 17.43-17.06-3.42-24.94-20.01-26.48-23.42 1.33-6.03 2.65-12.06 3.98-18.08Z" class="cls-son55"/><path d="M1516.28 1801.6a49 49 0 0 1-3.79-6.88c1.33-6.03 2.65-12.06 3.98-18.08.97-.92 5.54-5.15 12.21-8.35 2.19-1.05 13.29-5.98 24.77-2.2 18.95 6.25 24.75 31.65 25.39 34.62-8.13-5.17-20.79-11.31-37.36-12.27-8.6-.5-16.34.51-22.75 1.98-.41 1.86-.82 3.73-2.45 11.18" class="cls-son510"/><path d="M372.13 393.27c-51.38 0-93.19-41.8-93.19-93.19s41.8-93.19 93.19-93.19 93.19 41.8 93.19 93.19-41.8 93.19-93.19 93.19m0-165.71c-39.99 0-72.52 32.53-72.52 72.52s32.53 72.52 72.52 72.52 72.52-32.53 72.52-72.52-32.53-72.52-72.52-72.52" style="fill:#fff"/><path d="M1286.31 1509.72s48.64-1.35 38.02 67.94-53.78 104.84-69.72 36.28 9.54-111.58 31.7-104.22" class="cls-son53"/><path d="M1423.6 1626.84s15.82 46.01-53.47 56.58-116.12-20-55.45-55.69 109.34-24.23 108.93-.89Z" class="cls-son53"/><path d="M1360.74 1781.6s-35.73 33.03-73.34-26.12-28.52-114.33 28.61-73.2c57.12 41.13 66.26 90.29 44.73 99.32" class="cls-son53"/><path d="M1168.82 1766.18s-37-31.6 17.32-75.9c54.32-44.31 110.18-41.77 76.06 19.8-34.12 61.56-81.87 76.41-93.37 56.1Z" class="cls-son53"/><path d="M1137.85 1594.14s17.56-45.37 77.35-8.79c59.79 36.59 75.89 90.14 6.5 78.32s-99.21-51.95-83.85-69.53" class="cls-son53"/><path d="M1304.44 1679.18c-2.83-2.78-6.1-5.52-9.82-8.21-.61-.45-1.21-.86-1.81-1.24-.59-.4-1.16-.77-1.72-1.1-.77-.48-1.52-.91-2.25-1.3l-.06-.03s.04.02.05.01c.8.28 1.65.55 2.54.79.08.02.16.05.23.06 6.7 1.76 15.71 2.14 25.78.6 31.4-4.78 24.24-25.63 24.24-25.63.17-9.49-17.56-14.65-41.03-3.94-1.42.63-2.84 1.34-4.31 2.1-1.32.7-2.66 1.43-4.02 2.24-1.46.86-2.77 1.71-3.96 2.55-.31.22-.62.44-.91.66.22-.31.44-.63.64-.97 3.83-5.88 7.01-14.57 8.61-24.94 4.81-31.39-17.23-30.78-17.23-30.78-9.76-3.24-20.96 15.11-14.91 44.69a98 98 0 0 0 .55 2.54c.26 1.17.56 2.26.85 3.3-.91-1.23-1.96-2.47-3.11-3.73-3.94-4.27-9.21-8.61-15.61-12.52-27.09-16.57-35.06 3.98-35.06 3.98-6.96 7.96 6.56 26.15 38 31.5.44.07.85.15 1.27.2.02.01.04 0 .05.01.88.13 1.72.24 2.54.31 1.42.14 2.75.22 3.96.23.41 0 .79 0 1.17-.02-.2.03-.41.06-.63.12-1.39.25-2.86.63-4.39 1.14-2.36.75-4.84 1.79-7.41 3.1-4.41 2.23-9.04 5.24-13.68 9.02-24.61 20.08-7.85 34.4-7.85 34.4 4.96 8.73 24.68 3.12 39.89-21.31a80 80 0 0 0 2.43-4.11c.82-1.5 1.54-2.93 2.14-4.27.83-1.85 1.44-3.55 1.87-5.11-.15 1.64-.1 3.47.13 5.43.17 1.29.41 2.64.73 4.04 1.43 6.29 4.55 13.64 9.3 21.13 17.04 26.8 33.23 11.84 33.23 11.84 8.37-3.51 6.52-20.35-10.44-36.8Zm-40.9-19.15c0 .08.01.16 0 .24-.35-.03-.72-.03-1.1-.03.38-.06.75-.13 1.1-.22Z" class="cls-son54"/><circle cx="1273.68" cy="1659.33" r="19.74" class="cls-son53"/><path d="M940.47 1685.63c1.82-6.74 18.01-62.75 75.71-86.88 62.04-25.94 116.87 8.05 121.61 11.1-1 7.02-11.36 71.7-71.57 103.92-48.72 26.07-96.2 12.75-105.72 9.86-6.68-12.67-13.35-25.34-20.03-38" class="cls-son55"/><path d="M981.5 1728.19c-10.34-1.44-17.8-3.58-21-4.54-6.68-12.67-13.35-25.34-20.03-38.01.91-3.37 5.41-19.06 16.9-36.92 3.77-5.86 23.56-34.93 58.81-49.96 58.19-24.82 115.06 7.28 121.61 11.11-29.1 6.43-71.24 19.7-114.62 49.03-22.52 15.22-40.35 31.38-54.08 45.82 2.07 3.91 4.13 7.83 12.4 23.48Z" class="cls-son510"/><path d="M951.47 1693.35c4.92-.22 46.04-1.35 74.63 32.26 30.74 36.14 19.64 80.28 18.61 84.12-4.93.83-50.63 7.73-85.2-25.82-27.97-27.16-29.19-61.92-29.29-68.95z" class="cls-son55"/><path d="M931.67 1730.05c-1.25-7.26-1.41-12.73-1.45-15.09l21.25-21.61c2.46-.11 13.97-.45 28.44 3.44 4.75 1.28 28.53 8.35 46.19 28.82 29.16 33.79 19.78 78.9 18.61 84.12-10.56-18.18-28.51-43.66-57.53-66.53a232.3 232.3 0 0 0-42.39-26.53c-2.19 2.23-4.37 4.46-13.12 13.37Z" class="cls-son510"/><path d="M664.48 1639.84c1.21 4.78 10.59 44.83-16.58 79.6-29.21 37.38-74.68 35.4-78.65 35.16-1.81-4.66-17.77-48.04 8.15-88.65 20.97-32.87 54.78-41.06 61.64-42.57 8.48 5.49 16.96 10.98 25.45 16.47Z" class="cls-son55"/><path d="M624.54 1627.83c6.86-2.69 12.19-3.95 14.49-4.46 8.48 5.49 16.96 10.98 25.45 16.47.6 2.39 3.25 13.6 2.35 28.55-.3 4.91-2.43 29.62-18.93 51.05-27.23 35.36-73.3 35.25-78.65 35.16 15.68-14 37.03-36.72 53.59-69.74a231.4 231.4 0 0 0 17.45-46.87l-15.74-10.16Z" class="cls-son510"/><path d="M784.91 1824.49c-3.78.18-35.39 1.12-57.43-24.68-23.7-27.73-15.24-61.69-14.45-64.64 3.79-.65 38.91-6.03 65.55 19.71 21.55 20.83 22.55 47.56 22.64 52.96-5.43 5.55-10.87 11.1-16.3 16.65Z" class="cls-son55"/><path d="M800.07 1796.24c.97 5.58 1.11 9.79 1.14 11.6-5.43 5.55-10.87 11.1-16.3 16.65-1.89.09-10.74.37-21.87-2.6-3.65-.97-21.95-6.37-35.56-22.08-22.48-25.93-15.34-60.63-14.45-64.64 8.15 13.96 22 33.52 44.34 51.05 11.6 9.1 22.9 15.63 32.64 20.32 1.68-1.72 3.36-3.43 10.07-10.3Z" class="cls-son510"/><path d="M784.75 1811.79c.94-3.11 9.22-28.91 36.37-39.34 29.18-11.21 54.2 5.33 56.36 6.82-.56 3.25-6.26 33.16-34.67 47.31-22.99 11.45-44.87 4.61-49.26 3.14-2.93-5.98-5.86-11.95-8.79-17.93Z" class="cls-son55"/><path d="M803.24 1832.12c-4.79-.81-8.22-1.9-9.7-2.4-2.93-5.98-5.86-11.96-8.79-17.93.47-1.55 2.78-8.78 8.36-16.93 1.83-2.67 11.42-15.91 28.01-22.41 27.38-10.74 53.37 4.95 56.35 6.82-13.61 2.59-33.37 8.18-53.93 21.22a152.7 152.7 0 0 0-25.75 20.55c.91 1.85 1.81 3.69 5.44 11.08Z" class="cls-son510"/><path d="M476.19 1737.62c-1.44 2.91-13.92 26.97-42.42 32.72-30.64 6.18-52.55-14.3-54.43-16.12 1.09-3.11 11.7-31.65 42.08-40.87 24.58-7.46 45.01 2.94 49.09 5.12 1.89 6.38 3.78 12.76 5.67 19.15Z" class="cls-son55"/><path d="M461.35 1714.49c4.58 1.6 7.79 3.25 9.16 3.98l5.67 19.15c-.72 1.45-4.2 8.2-11.06 15.29-2.25 2.33-13.92 13.78-31.36 17.43-28.79 6.02-51.79-13.78-54.43-16.12 13.85-.28 34.27-2.5 56.71-11.93a152.2 152.2 0 0 0 28.82-15.97c-.59-1.97-1.17-3.94-3.52-11.83Z" class="cls-son510"/><path d="M467.57 1724.09c1.03-3.08 10.11-28.61 37.56-38.19 29.51-10.3 54.01 7.01 56.12 8.56-.66 3.23-7.28 32.95-36.12 46.22-23.34 10.74-44.99 3.22-49.33 1.61-2.74-6.07-5.49-12.13-8.23-18.2" class="cls-son55"/><path d="M485.41 1744.98c-4.76-.96-8.16-2.16-9.62-2.7-2.74-6.07-5.49-12.13-8.23-18.2.52-1.54 3.05-8.69 8.88-16.66 1.91-2.61 11.91-15.55 28.69-21.54 27.7-9.89 53.19 6.6 56.12 8.56-13.68 2.17-33.61 7.15-54.56 19.54a152.4 152.4 0 0 0-26.38 19.75c.85 1.87 1.7 3.75 5.1 11.24Z" class="cls-son510"/><path d="M965.23 1690.65c-1.57-5.8-15.49-53.97-65.12-74.73-53.36-22.31-100.52 6.92-104.6 9.55.86 6.04 9.77 61.67 61.56 89.39 41.91 22.43 82.74 10.96 90.93 8.48 5.74-10.9 11.49-21.79 17.23-32.69" class="cls-son55"/><path d="M929.94 1727.25c8.89-1.24 15.31-3.08 18.06-3.91 5.74-10.9 11.49-21.79 17.23-32.69-.78-2.9-4.66-16.39-14.54-31.76-3.24-5.04-20.26-30.04-50.59-42.97-50.05-21.35-98.97 6.26-104.59 9.55 25.03 5.53 61.27 16.94 98.58 42.17 19.37 13.09 34.7 26.99 46.51 39.41-1.78 3.37-3.56 6.73-10.67 20.2Z" class="cls-son510"/><path d="M1474.3 1509.5s-5.52 16.6-27.63 4.5c-22.1-12.1-28.81-31.05-3.69-28.01s36.53 16.94 31.32 23.52Z" class="cls-son53"/><path d="M1417.86 1541.49s-17.49-.31-12.55-25.02 21.03-36.77 25.63-11.89-5.25 39.92-13.09 36.91Z" class="cls-son53"/><path d="M1373.3 1501.23s-6.77-16.13 17.84-21.57 42.13 4.41 21.22 18.66c-20.92 14.25-38.65 11.29-39.05 2.91Z" class="cls-son53"/><path d="M1402.09 1438.29s15.22-8.62 23.52 15.18c8.29 23.8.57 42.36-16.04 23.26-16.61-19.09-15.76-37.05-7.48-38.44" class="cls-son53"/><path d="M1464.02 1448.96s13.17 11.51-6.54 27.21-39.78 14.56-27.26-7.43 29.74-27.13 33.8-19.78" class="cls-son53"/><path d="M1414.82 1494.8c1.29-.62 2.62-1.38 3.98-2.31.23-.15.44-.3.64-.46.21-.15.4-.3.58-.45.26-.2.49-.4.71-.6l.02-.02s-.01 0-.01.02c-.19.24-.39.49-.58.76-.02.02-.04.05-.05.07-1.42 2.05-2.65 5.04-3.37 8.64-2.24 11.19 5.68 11.34 5.68 11.34 3.19 1.22 7.11-4.13 6.37-13.38-.04-.56-.1-1.13-.18-1.72-.08-.53-.16-1.08-.26-1.63-.11-.6-.24-1.15-.38-1.65-.04-.13-.07-.27-.11-.39.08.11.16.23.25.34 1.52 2.02 4.06 4.16 7.37 5.97 10.01 5.48 12.52-2.04 12.52-2.04 2.29-2.9-2.53-8.94-13.27-10.53-.3-.04-.61-.09-.92-.12-.43-.06-.83-.09-1.22-.12.53-.16 1.08-.36 1.64-.59 1.93-.8 4.04-2.05 6.15-3.74 8.93-7.12 2.96-12.33 2.96-12.33-1.83-3.33-9.64-1-15.31 8.97-.08.14-.15.27-.22.4 0 0 0 .01-.01.02a19 19 0 0 0-.99 2.13c-.05.14-.1.27-.14.4.01-.07.03-.15.04-.23.09-.5.14-1.05.15-1.62.04-.89 0-1.85-.14-2.88-.21-1.76-.66-3.7-1.37-5.73-3.76-10.78-10.66-6.88-10.66-6.88-3.56.6-4.09 7.96 2.3 16.1.34.44.71.88 1.09 1.32.41.46.8.88 1.18 1.25.52.51 1.02.92 1.5 1.26-.54-.25-1.16-.46-1.85-.62-.46-.1-.94-.19-1.46-.25-2.3-.29-5.17-.14-8.28.55-11.15 2.46-8.08 9.77-8.08 9.77.16 3.26 6.07 4.7 13.72 1Zm11.5-11.47s-.05-.02-.08-.03c.05-.12.1-.24.14-.37-.03.14-.05.27-.06.4" class="cls-son54"/><circle cx="1425.3" cy="1486.84" r="7.1" class="cls-son53"/><path d="M840.85 1832.19s-5.52 16.6-27.63 4.5c-22.1-12.1-28.81-31.05-3.69-28.01s36.53 16.94 31.32 23.52Z" class="cls-son53"/><path d="M784.41 1864.18s-17.49-.31-12.55-25.02 21.03-36.77 25.63-11.89-5.25 39.92-13.09 36.91Z" class="cls-son53"/><path d="M739.84 1823.92s-6.77-16.13 17.84-21.57 42.13 4.41 21.22 18.66c-20.92 14.25-38.65 11.29-39.05 2.91Z" class="cls-son53"/><path d="M768.64 1760.98s15.22-8.62 23.52 15.18c8.29 23.8.57 42.36-16.04 23.26-16.61-19.09-15.76-37.05-7.48-38.44" class="cls-son53"/><path d="M830.57 1771.65s13.17 11.51-6.54 27.21-39.78 14.56-27.26-7.43 29.74-27.13 33.8-19.78" class="cls-son53"/><path d="M781.37 1817.49c1.29-.62 2.62-1.38 3.98-2.31.23-.15.44-.3.64-.46.21-.15.4-.3.58-.45.26-.2.49-.4.71-.6l.02-.02s-.01 0-.01.02c-.19.24-.39.49-.58.76-.02.02-.04.05-.05.07-1.42 2.05-2.65 5.04-3.37 8.64-2.24 11.19 5.68 11.34 5.68 11.34 3.19 1.22 7.11-4.13 6.37-13.38-.04-.56-.1-1.13-.18-1.72-.08-.53-.16-1.08-.26-1.63-.11-.6-.24-1.15-.38-1.65-.04-.13-.07-.27-.11-.39.08.11.16.23.25.34 1.52 2.02 4.06 4.16 7.37 5.97 10.01 5.48 12.52-2.04 12.52-2.04 2.29-2.9-2.53-8.94-13.27-10.53-.3-.04-.61-.09-.92-.12-.43-.06-.83-.09-1.22-.12.53-.16 1.08-.36 1.64-.59 1.93-.8 4.04-2.05 6.15-3.74 8.93-7.12 2.96-12.33 2.96-12.33-1.83-3.33-9.64-1-15.31 8.97-.08.14-.15.27-.22.4 0 0 0 .01-.01.02a19 19 0 0 0-.99 2.13c-.05.14-.1.27-.14.4.01-.07.03-.15.04-.23.09-.5.14-1.05.15-1.62.04-.89 0-1.85-.14-2.88-.21-1.76-.66-3.7-1.37-5.73-3.76-10.78-10.66-6.88-10.66-6.88-3.56.6-4.09 7.96 2.3 16.1.34.44.71.88 1.09 1.32.41.46.8.88 1.18 1.25.52.51 1.02.92 1.5 1.26-.54-.25-1.16-.46-1.85-.62-.46-.1-.94-.19-1.46-.25-2.3-.29-5.17-.14-8.28.55-11.15 2.46-8.08 9.77-8.08 9.77.16 3.26 6.07 4.7 13.72 1Zm11.5-11.47s-.05-.02-.08-.03c.05-.12.1-.24.14-.37-.03.14-.05.27-.06.4" class="cls-son54"/><circle cx="791.85" cy="1809.53" r="7.1" class="cls-son53"/><path d="M672.9 1505.41s32.92 10.44 9.64 54.42c-23.28 43.97-60.52 57.74-55.2 8.06 5.31-49.68 32.43-72.58 45.57-62.47Z" class="cls-son53"/><path d="M737.61 1615.96s-.13 34.54-49.05 25.45c-48.92-9.08-73.18-40.5-24.18-50.28s78.95 9.27 73.23 24.82Z" class="cls-son53"/><path d="M659.36 1705.05s-31.66 13.81-43.07-34.62 7.56-83.3 36.26-42.4 23.35 75.99 6.81 77.02" class="cls-son53"/><path d="M534.29 1649.93s-17.43-29.82 29.32-46.84c46.75-17.03 83.61-2.29 46.37 31.02s-72.71 32.13-75.69 15.82" class="cls-son53"/><path d="M553.67 1527.36s22.36-26.32 53.91 12.16 29.84 78.14-13.92 54.02c-43.76-24.11-54.39-57.98-39.99-66.18" class="cls-son53"/><path d="M645.51 1623.25c-1.25-2.53-2.8-5.13-4.67-7.79-.3-.44-.61-.86-.92-1.25q-.45-.615-.9-1.14c-.41-.51-.81-.96-1.21-1.39l-.03-.03s.02.02.03.02c.47.38.98.76 1.52 1.12.05.03.09.07.14.09 4.08 2.75 10.03 5.1 17.14 6.42 22.16 4.12 22.23-11.53 22.23-11.53 2.33-6.33-8.35-13.92-26.59-12.22-1.1.09-2.22.24-3.38.4-1.05.16-2.12.34-3.21.56-1.18.24-2.26.5-3.25.79-.26.08-.52.15-.77.23.22-.16.44-.32.66-.5 3.94-3.05 8.1-8.13 11.59-14.71 10.55-19.92-4.37-24.66-4.37-24.66-5.79-4.45-17.58 5.24-20.42 26.48-.08.6-.16 1.21-.22 1.83-.1.84-.16 1.65-.2 2.41-.33-1.04-.74-2.11-1.22-3.23-1.64-3.78-4.16-7.92-7.54-12.04-14.29-17.43-24.43-5.51-24.43-5.51-6.52 3.71-1.7 19.06 18.13 29.99.28.15.54.3.8.43.01.01.03.01.03.02.56.29 1.1.56 1.63.8.92.43 1.79.79 2.6 1.08.28.09.53.18.79.26-.14-.02-.29-.05-.45-.06-.99-.16-2.07-.25-3.2-.26-1.76-.05-3.66.07-5.69.35-3.48.47-7.29 1.4-11.27 2.86-21.19 7.72-13.29 21.23-13.29 21.23 1.28 7.01 15.82 7.85 31.72-4.98.87-.68 1.73-1.42 2.59-2.19.9-.81 1.72-1.61 2.43-2.36.99-1.04 1.79-2.04 2.44-2.99-.48 1.07-.88 2.3-1.18 3.67-.19.9-.34 1.87-.45 2.88-.51 4.55-.13 10.21 1.3 16.33 5.17 21.95 19.51 15.69 19.51 15.69 6.43-.4 9.12-12.12 1.59-27.11Zm-22.95-22.38c-.01.05-.03.11-.06.16-.23-.1-.47-.19-.73-.27.27.05.54.09.79.11" class="cls-son54"/><circle cx="629.52" cy="1602.77" r="14.01" class="cls-son53"/><path d="M988.84 1618.25s27.75 8.8 8.12 45.86c-19.62 37.06-51 48.66-46.52 6.79s27.33-61.17 38.4-52.65" class="cls-son59"/><path d="M1043.38 1711.41s-.11 29.11-41.34 21.45-61.68-34.14-20.38-42.37c41.3-8.24 66.54 7.81 61.72 20.92" class="cls-son59"/><path d="M977.43 1786.5s-26.68 11.64-36.3-29.18 6.37-70.2 30.56-35.73 19.68 64.04 5.74 64.91" class="cls-son59"/><path d="M872.02 1740.04s-14.69-25.13 24.71-39.48 70.47-1.93 39.08 26.14-61.28 27.08-63.79 13.34" class="cls-son59"/><path d="M888.36 1636.74s18.85-22.18 45.43 10.25c26.59 32.43 25.15 65.85-11.73 45.53s-45.84-48.86-33.7-55.78" class="cls-son59"/><path d="M965.76 1717.56c-1.05-2.13-2.36-4.32-3.94-6.57-.26-.37-.51-.72-.78-1.06-.25-.34-.5-.66-.76-.96-.34-.43-.68-.81-1.02-1.17l-.03-.03s.02.02.03.02c.4.32.83.64 1.28.94.04.03.08.06.12.08 3.44 2.31 8.46 4.3 14.45 5.41 18.68 3.47 18.73-9.71 18.73-9.71 1.96-5.33-7.04-11.73-22.41-10.3-.93.08-1.87.2-2.85.34-.88.14-1.79.29-2.71.47-.99.2-1.9.42-2.74.66-.22.06-.44.13-.65.19.19-.13.37-.27.55-.42 3.32-2.57 6.83-6.85 9.77-12.4 8.89-16.79-3.68-20.78-3.68-20.78-4.88-3.75-14.82 4.42-17.21 22.32-.07.5-.14 1.02-.19 1.54-.08.71-.13 1.39-.17 2.03-.28-.87-.62-1.78-1.03-2.72-1.38-3.19-3.51-6.68-6.36-10.14-12.05-14.69-20.59-4.64-20.59-4.64-5.5 3.13-1.43 16.07 15.28 25.27.23.13.45.25.68.36.01.01.02.01.03.02.47.24.93.47 1.37.68.77.36 1.51.67 2.19.91.23.08.45.15.66.22-.12-.02-.25-.05-.38-.05-.84-.13-1.74-.21-2.7-.22-1.48-.04-3.09.06-4.8.3-2.93.4-6.14 1.18-9.5 2.41-17.85 6.5-11.2 17.89-11.2 17.89 1.08 5.91 13.33 6.62 26.73-4.2.73-.58 1.45-1.19 2.18-1.85.76-.69 1.45-1.36 2.05-1.99.83-.88 1.51-1.72 2.06-2.52-.41.9-.74 1.94-.99 3.09-.16.76-.29 1.57-.38 2.43-.43 3.83-.11 8.6 1.1 13.77 4.36 18.5 16.45 13.22 16.45 13.22 5.42-.34 7.69-10.21 1.34-22.85Zm-19.34-18.86s-.02.09-.05.14c-.19-.08-.4-.16-.62-.23q.345.06.66.09Z" class="cls-son58"/><circle cx="952.28" cy="1700.29" r="11.81" class="cls-son59"/><path d="M1639.89 1580.5s16.15 5.12 4.73 26.7c-11.42 21.57-29.69 28.33-27.08 3.95s15.91-35.61 22.36-30.65Z" class="cls-son59"/><path d="M1671.64 1634.73s-.06 16.95-24.07 12.49c-24-4.46-35.91-19.87-11.86-24.67 24.04-4.79 38.74 4.55 35.93 12.18" class="cls-son59"/><path d="M1633.25 1678.44s-15.53 6.77-21.13-16.99 3.71-40.87 17.79-20.8 11.46 37.28 3.34 37.79" class="cls-son59"/><path d="M1571.89 1651.4s-8.55-14.63 14.38-22.98c22.94-8.36 41.02-1.12 22.75 15.22s-35.68 15.76-37.13 7.76" class="cls-son59"/><path d="M1581.4 1591.27s10.97-12.91 26.45 5.97 14.64 38.34-6.83 26.51-26.68-28.45-19.62-32.47Z" class="cls-son59"/><path d="M1626.46 1638.31c-.61-1.24-1.37-2.52-2.29-3.82-.15-.22-.3-.42-.45-.61-.15-.2-.29-.39-.44-.56-.2-.25-.4-.47-.59-.68l-.02-.02s0 .01.02.01c.23.19.48.37.74.55.02.02.05.03.07.04 2 1.35 4.92 2.5 8.41 3.15 10.87 2.02 10.91-5.65 10.91-5.65 1.14-3.1-4.1-6.83-13.05-5.99-.54.05-1.09.12-1.66.2-.51.08-1.04.17-1.58.28-.58.12-1.11.25-1.6.39-.13.04-.26.08-.38.11.11-.08.22-.16.32-.24 1.93-1.5 3.97-3.99 5.69-7.22 5.18-9.77-2.14-12.1-2.14-12.1-2.84-2.18-8.62 2.57-10.02 12.99-.04.29-.08.59-.11.9-.05.41-.08.81-.1 1.18-.16-.51-.36-1.04-.6-1.58-.81-1.86-2.04-3.89-3.7-5.91-7.01-8.55-11.99-2.7-11.99-2.7-3.2 1.82-.83 9.35 8.89 14.71.14.07.26.15.39.21a19 19 0 0 0 .82.4c.45.21.88.39 1.28.53.14.05.26.09.39.13-.07-.01-.14-.03-.22-.03-.49-.08-1.01-.12-1.57-.13-.86-.02-1.8.03-2.79.17-1.71.23-3.57.69-5.53 1.4-10.39 3.79-6.52 10.42-6.52 10.42.63 3.44 7.76 3.85 15.56-2.44.42-.34.85-.7 1.27-1.07.44-.4.84-.79 1.19-1.16.49-.51.88-1 1.2-1.47-.24.52-.43 1.13-.58 1.8-.09.44-.17.92-.22 1.41-.25 2.23-.07 5.01.64 8.01 2.54 10.77 9.57 7.7 9.57 7.7 3.15-.2 4.48-5.95.78-13.3Zm-11.26-10.98s-.01.05-.03.08c-.11-.05-.23-.09-.36-.13.13.02.26.04.39.05" class="cls-son58"/><circle cx="1618.61" cy="1628.26" r="6.88" class="cls-son59"/><path d="M1530.09 1718.52s16.15 5.12 4.73 26.7c-11.42 21.57-29.69 28.33-27.08 3.95s15.91-35.61 22.36-30.65Z" class="cls-son59"/><path d="M1561.84 1772.76s-.06 16.95-24.07 12.49c-24-4.46-35.91-19.87-11.86-24.67 24.04-4.79 38.74 4.55 35.93 12.18" class="cls-son59"/><path d="M1523.45 1816.47s-15.53 6.77-21.13-16.99 3.71-40.87 17.79-20.8 11.46 37.28 3.34 37.79" class="cls-son59"/><path d="M1462.09 1789.43s-8.55-14.63 14.38-22.98c22.94-8.36 41.02-1.12 22.75 15.22s-35.68 15.76-37.13 7.76" class="cls-son59"/><path d="M1471.59 1729.29s10.97-12.91 26.45 5.97 14.64 38.34-6.83 26.51-26.68-28.45-19.62-32.47Z" class="cls-son59"/><path d="M1516.65 1776.34c-.61-1.24-1.37-2.52-2.29-3.82-.15-.22-.3-.42-.45-.61-.15-.2-.29-.39-.44-.56-.2-.25-.4-.47-.59-.68l-.02-.02s0 .01.02.01c.23.19.48.37.74.55.02.02.05.03.07.04 2 1.35 4.92 2.5 8.41 3.15 10.87 2.02 10.91-5.65 10.91-5.65 1.14-3.1-4.1-6.83-13.05-5.99-.54.05-1.09.12-1.66.2-.51.08-1.04.17-1.58.28-.58.12-1.11.25-1.6.39-.13.04-.26.08-.38.11.11-.08.22-.16.32-.24 1.93-1.5 3.97-3.99 5.69-7.22 5.18-9.77-2.14-12.1-2.14-12.1-2.84-2.18-8.62 2.57-10.02 12.99-.04.29-.08.59-.11.9-.05.41-.08.81-.1 1.18-.16-.51-.36-1.04-.6-1.58-.81-1.86-2.04-3.89-3.7-5.91-7.01-8.55-11.99-2.7-11.99-2.7-3.2 1.82-.83 9.35 8.89 14.71.14.07.26.15.39.21a19 19 0 0 0 .82.4c.45.21.88.39 1.28.53.14.05.26.09.39.13-.07-.01-.14-.03-.22-.03-.49-.08-1.01-.12-1.57-.13-.86-.02-1.8.03-2.79.17-1.71.23-3.57.69-5.53 1.4-10.39 3.79-6.52 10.42-6.52 10.42.63 3.44 7.76 3.85 15.56-2.44.42-.34.85-.7 1.27-1.07.44-.4.84-.79 1.19-1.16.49-.51.88-1 1.2-1.47-.24.52-.43 1.13-.58 1.8-.09.44-.17.92-.22 1.41-.25 2.23-.07 5.01.64 8.01 2.54 10.77 9.57 7.7 9.57 7.7 3.15-.2 4.48-5.95.78-13.3Zm-11.26-10.98s-.01.05-.03.08c-.11-.05-.23-.09-.36-.13.13.02.26.04.39.05" class="cls-son58"/><circle cx="1508.81" cy="1766.29" r="6.88" class="cls-son59"/><path d="M815.62 1454.23s16.15 5.12 4.73 26.7c-11.42 21.57-29.69 28.33-27.08 3.95s15.91-35.61 22.36-30.65Z" class="cls-son59"/><path d="M847.37 1508.46s-.06 16.95-24.07 12.49c-24-4.46-35.91-19.87-11.86-24.67s38.74 4.55 35.93 12.18" class="cls-son59"/><path d="M808.98 1552.17s-15.53 6.77-21.13-16.99 3.71-40.87 17.79-20.8 11.46 37.28 3.34 37.79" class="cls-son59"/><path d="M747.62 1525.13s-8.55-14.63 14.38-22.98c22.94-8.36 41.02-1.12 22.75 15.22s-35.68 15.76-37.13 7.76" class="cls-son59"/><path d="M757.12 1464.99s10.97-12.91 26.45 5.97 14.64 38.34-6.83 26.51-26.68-28.45-19.62-32.47Z" class="cls-son59"/><path d="M802.18 1512.04c-.61-1.24-1.37-2.52-2.29-3.82-.15-.22-.3-.42-.45-.61-.15-.2-.29-.39-.44-.56-.2-.25-.4-.47-.59-.68l-.02-.02s0 .01.02.01c.23.19.48.37.74.55.02.02.05.03.07.04 2 1.35 4.92 2.5 8.41 3.15 10.87 2.02 10.91-5.65 10.91-5.65 1.14-3.1-4.1-6.83-13.05-5.99-.54.05-1.09.12-1.66.2-.51.08-1.04.17-1.58.28-.58.12-1.11.25-1.6.39-.13.04-.26.08-.38.11.11-.08.22-.16.32-.24 1.93-1.5 3.97-3.99 5.69-7.22 5.18-9.77-2.14-12.1-2.14-12.1-2.84-2.18-8.62 2.57-10.02 12.99-.04.29-.08.59-.11.9-.05.41-.08.81-.1 1.18-.16-.51-.36-1.04-.6-1.58-.81-1.86-2.04-3.89-3.7-5.91-7.01-8.55-11.99-2.7-11.99-2.7-3.2 1.82-.83 9.35 8.89 14.71.14.07.26.15.39.21a19 19 0 0 0 .82.4c.45.21.88.39 1.28.53.14.05.26.09.39.13-.07-.01-.14-.03-.22-.03-.49-.08-1.01-.12-1.57-.13-.86-.02-1.8.03-2.79.17-1.71.23-3.57.69-5.53 1.4-10.39 3.79-6.52 10.42-6.52 10.42.63 3.44 7.76 3.85 15.56-2.44.42-.34.85-.7 1.27-1.07.44-.4.84-.79 1.19-1.16.49-.51.88-1 1.2-1.47-.24.52-.43 1.13-.58 1.8-.09.44-.17.92-.22 1.41-.25 2.23-.07 5.01.64 8.01 2.54 10.77 9.57 7.7 9.57 7.7 3.15-.2 4.48-5.95.78-13.3Zm-11.26-10.98s-.01.05-.03.08c-.11-.05-.23-.09-.36-.13.13.02.26.04.39.05" class="cls-son58"/><circle cx="794.34" cy="1501.99" r="6.88" class="cls-son59"/><path d="M497.33 1680.57s16.15 5.12 4.73 26.7c-11.42 21.57-29.69 28.33-27.08 3.95s15.91-35.61 22.36-30.65Z" class="cls-son59"/><path d="M529.08 1734.8s-.06 16.95-24.07 12.49c-24-4.46-35.91-19.87-11.86-24.67 24.04-4.79 38.74 4.55 35.93 12.18" class="cls-son59"/><path d="M490.69 1778.51s-15.53 6.77-21.13-16.99 3.71-40.87 17.79-20.8 11.46 37.28 3.34 37.79" class="cls-son59"/><path d="M429.33 1751.47s-8.55-14.63 14.38-22.98c22.94-8.36 41.02-1.12 22.75 15.22s-35.68 15.76-37.13 7.76" class="cls-son59"/><path d="M438.83 1691.34s10.97-12.91 26.45 5.97 14.64 38.34-6.83 26.51-26.68-28.45-19.62-32.47Z" class="cls-son59"/><path d="M483.89 1738.38c-.61-1.24-1.37-2.52-2.29-3.82-.15-.22-.3-.42-.45-.61-.15-.2-.29-.39-.44-.56-.2-.25-.4-.47-.59-.68l-.02-.02s0 .01.02.01c.23.19.48.37.74.55.02.02.05.03.07.04 2 1.35 4.92 2.5 8.41 3.15 10.87 2.02 10.91-5.65 10.91-5.65 1.14-3.1-4.1-6.83-13.05-5.99-.54.05-1.09.12-1.66.2-.51.08-1.04.17-1.58.28-.58.12-1.11.25-1.6.39-.13.04-.26.08-.38.11.11-.08.22-.16.32-.24 1.93-1.5 3.97-3.99 5.69-7.22 5.18-9.77-2.14-12.1-2.14-12.1-2.84-2.18-8.62 2.57-10.02 12.99-.04.29-.08.59-.11.9-.05.41-.08.81-.1 1.18-.16-.51-.36-1.04-.6-1.58-.81-1.86-2.04-3.89-3.7-5.91-7.01-8.55-11.99-2.7-11.99-2.7-3.2 1.82-.83 9.35 8.89 14.71.14.07.26.15.39.21a19 19 0 0 0 .82.4c.45.21.88.39 1.28.53.14.05.26.09.39.13-.07-.01-.14-.03-.22-.03-.49-.08-1.01-.12-1.57-.13-.86-.02-1.8.03-2.79.17-1.71.23-3.57.69-5.53 1.4-10.39 3.79-6.52 10.42-6.52 10.42.63 3.44 7.76 3.85 15.56-2.44.42-.34.85-.7 1.27-1.07.44-.4.84-.79 1.19-1.16.49-.51.88-1 1.2-1.47-.24.52-.43 1.13-.58 1.8-.09.44-.17.92-.22 1.41-.25 2.23-.07 5.01.64 8.01 2.54 10.77 9.57 7.7 9.57 7.7 3.15-.2 4.48-5.95.78-13.3Zm-11.26-10.98s-.01.05-.03.08c-.11-.05-.23-.09-.36-.13.13.02.26.04.39.05" class="cls-son58"/><circle cx="476.05" cy="1728.33" r="6.88" class="cls-son59"/></svg>