<svg xmlns="http://www.w3.org/2000/svg" viewBox="0 0 2000 2000" width="300" height="300" fill="none"><defs><style>.cls-6col2{fill:#fff}.cls-6col3{fill:#ef9830}.cls-6col4{fill:#894111}.cls-6col5{fill:#7c3108}.cls-6col8{fill:#f4a651}.cls-6col9{fill:#aa0f0f}</style></defs><path d="M1506.48 1789.17H387.16c-85.15 0-154.43-69.28-154.43-154.43V515.42c0-85.15 69.28-154.43 154.43-154.43h1119.32c85.15 0 154.43 69.28 154.43 154.43v1119.32c0 85.15-69.28 154.43-154.43 154.43M387.16 393.99c-66.96 0-121.43 54.47-121.43 121.43v1119.32c0 66.96 54.47 121.43 121.43 121.43h1119.32c66.96 0 121.43-54.47 121.43-121.43V515.42c0-66.96-54.47-121.43-121.43-121.43z" class="cls-6col9"/><path d="M1929.57 1449.02c-129.4-69.31-258.8 67.76-388.21-39.13 10.8-67.04 21.6-135.78 32.39-205.95 129.4 69.31 258.8-67.76 388.21 39.13-10.8 67.04-21.6 135.78-32.39 205.95" class="cls-6col9"/><path d="M1954.72 1288.3c-129.4-97.94-258.8 39.68-388.21-37.49 1.05-6.76 2.1-13.54 3.15-20.33 129.4 73.71 258.8-63.71 388.21 38.09q-1.575 9.84-3.15 19.74Z" class="cls-6col2"/><path d="M1947.39 1334.56c-129.4-89.21-258.81 48.64-388.21-36.8q1.575-10.05 3.15-20.13c129.4 81.85 258.8-55.94 388.21 36.98q-1.575 9.96-3.15 19.95" class="cls-6col2"/><path d="M1940.06 1381.3c-129.4-80.79-258.8 56.97-388.21-37.07 1.05-6.63 2.1-13.27 3.15-19.93 129.4 90.3 258.8-47.54 388.21 36.83-1.05 6.71-2.1 13.42-3.15 20.16Z" class="cls-6col2"/><path d="M1932.73 1428.51c-129.4-72.7-258.81 64.65-388.21-38.3q1.575-9.825 3.15-19.71c129.4 99.07 258.8-38.49 388.21 37.65-1.05 6.77-2.1 13.56-3.15 20.36" class="cls-6col2"/><path d="M1756.45 1343.52c-67.15 13.08-134.3 27.65-201.44-19.21 6.31-39.99 12.62-80.52 18.93-121.54 67.15 35.87 134.3 16.22 201.45 3.98-6.31 45.54-12.62 91.15-18.93 136.77Z" style="fill:#002664"/><path d="M1594.27 1222.88c.7 2.31 1.4 4.61 2.09 6.91 2.16 1.11 4.33 2.17 6.49 3.18-1.83 1.02-3.65 2-5.48 2.94.06 2.27.12 4.54.17 6.81-1.83-1.71-3.65-3.45-5.48-5.23-2.13.22-4.26.4-6.39.52.7-1.94 1.39-3.89 2.09-5.84-1.37-2.18-2.75-4.37-4.12-6.59 2.26.7 4.52 1.35 6.77 1.93 1.28-1.53 2.56-3.07 3.84-4.64Zm37.58 9.44c.7 2.14 1.4 4.28 2.09 6.41 2.16.6 4.33 1.16 6.49 1.68-1.83 1.43-3.65 2.83-5.48 4.2.06 2.26.12 4.51.17 6.77-1.83-1.28-3.65-2.58-5.48-3.92-2.13.75-4.26 1.45-6.39 2.12.7-2.12 1.39-4.24 2.09-6.37-1.37-1.83-2.75-3.68-4.12-5.54 2.26.12 4.52.19 6.77.22 1.28-1.84 2.56-3.7 3.84-5.57Zm37.59 1.62c.7 2.02 1.4 4.03 2.09 6.05 2.16.23 4.33.43 6.49.6-1.83 1.72-3.65 3.42-5.48 5.11.06 2.25.12 4.49.17 6.74-1.83-.97-3.65-1.95-5.48-2.96q-3.195 1.695-6.39 3.3c.7-2.25 1.39-4.51 2.09-6.77-1.37-1.57-2.75-3.16-4.12-4.76 2.26-.32 4.52-.67 6.77-1.05 1.28-2.08 2.56-4.16 3.84-6.26Zm37.59-3.75c.7 1.94 1.4 3.88 2.09 5.82 2.16 0 4.33-.02 6.49-.05-1.83 1.89-3.65 3.78-5.48 5.66.06 2.24.12 4.48.17 6.72-1.83-.78-3.65-1.56-5.48-2.36-2.13 1.37-4.26 2.73-6.39 4.06.7-2.34 1.39-4.68 2.09-7.02-1.37-1.41-2.75-2.82-4.12-4.24 2.26-.61 4.52-1.24 6.77-1.89l3.84-6.69Zm37.58-6.66c.7 1.91 1.4 3.82 2.09 5.73 2.16-.09 4.33-.19 6.49-.28-1.83 1.95-3.65 3.9-5.48 5.85.06 2.24.12 4.47.17 6.71-1.83-.71-3.65-1.41-5.48-2.12l-6.39 4.41c.7-2.38 1.39-4.76 2.09-7.14-1.37-1.33-2.75-2.66-4.12-4 2.26-.75 4.52-1.51 6.77-2.27 1.28-2.29 2.56-4.59 3.84-6.88Zm-142.49 33.22c.7 2.27 1.4 4.53 2.09 6.79 2.16.99 4.33 1.94 6.49 2.84a224 224 0 0 1-5.48 3.23c.06 2.27.12 4.53.17 6.8a405 405 0 0 1-5.48-4.92c-2.13.35-4.26.64-6.39.89.7-1.98 1.39-3.97 2.09-5.96-1.37-2.1-2.75-4.21-4.12-6.35 2.26.57 4.52 1.08 6.77 1.54 1.28-1.6 2.56-3.22 3.84-4.85Zm37.59 7.6c.7 2.11 1.4 4.22 2.09 6.32 2.16.51 4.33.98 6.49 1.42-1.83 1.5-3.65 2.97-5.48 4.42.06 2.25.12 4.51.17 6.76-1.83-1.2-3.65-2.43-5.48-3.69q-3.195 1.26-6.39 2.4c.7-2.15 1.39-4.31 2.09-6.46-1.37-1.77-2.75-3.55-4.12-5.35 2.26.01 4.52-.01 6.77-.08 1.28-1.9 2.56-3.81 3.84-5.74Zm37.58.3c.7 2 1.4 3.99 2.09 5.99 2.16.17 4.33.31 6.49.43-1.83 1.77-3.65 3.52-5.48 5.25.06 2.24.12 4.49.17 6.73-1.83-.92-3.65-1.85-5.48-2.81-2.13 1.19-4.26 2.35-6.39 3.49.7-2.27 1.39-4.55 2.09-6.83-1.37-1.53-2.75-3.07-4.12-4.63 2.26-.39 4.52-.81 6.77-1.26 1.28-2.12 2.56-4.24 3.84-6.37Zm37.59-4.56c.7 1.93 1.4 3.86 2.09 5.79 2.16-.03 4.33-.08 6.49-.13-1.83 1.92-3.65 3.82-5.48 5.73.06 2.24.12 4.48.17 6.72-1.83-.75-3.65-1.51-5.48-2.28q-3.195 2.1-6.39 4.17c.7-2.35 1.4-4.71 2.09-7.06-1.37-1.38-2.75-2.77-4.12-4.17 2.26-.65 4.52-1.32 6.77-2l3.84-6.75Zm37.59-6.96c.7 1.91 1.4 3.82 2.09 5.73 2.16-.09 4.33-.19 6.49-.28l-5.48 5.84c.06 2.24.12 4.47.17 6.71-1.83-.71-3.65-1.41-5.48-2.12-2.13 1.48-4.26 2.95-6.39 4.43.7-2.38 1.39-4.77 2.09-7.15-1.37-1.33-2.75-2.65-4.12-3.98 2.26-.76 4.52-1.53 6.77-2.3 1.28-2.3 2.56-4.59 3.84-6.89Zm-167.06 28.44c.7 2.36 1.4 4.71 2.09 7.05 2.16 1.25 4.33 2.45 6.49 3.6-1.83.9-3.65 1.77-5.48 2.59.06 2.27.12 4.55.17 6.82-1.83-1.83-3.65-3.69-5.48-5.59q-3.195.12-6.39.09c.7-1.89 1.39-3.79 2.09-5.7-1.37-2.27-2.75-4.56-4.12-6.88 2.26.86 4.52 1.66 6.77 2.4q1.92-2.16 3.84-4.38Zm37.59 11.63c.7 2.18 1.4 4.35 2.09 6.52 2.16.71 4.33 1.37 6.49 2-1.83 1.34-3.65 2.65-5.48 3.94.06 2.26.12 4.52.17 6.77-1.83-1.37-3.65-2.77-5.48-4.19-2.13.64-4.26 1.23-6.39 1.78.7-2.08 1.39-4.17 2.09-6.26-1.37-1.9-2.75-3.83-4.12-5.76 2.26.24 4.52.44 6.77.58 1.28-1.78 2.56-3.57 3.84-5.38Zm37.58 3.24c.7 2.04 1.4 4.08 2.09 6.12 2.16.3 4.33.57 6.49.82-1.83 1.66-3.65 3.31-5.48 4.93.06 2.25.12 4.5.17 6.74a384 384 0 0 1-5.48-3.15q-3.195 1.575-6.39 3.06c.7-2.22 1.39-4.45 2.09-6.68-1.37-1.63-2.75-3.26-4.12-4.92 2.26-.23 4.51-.49 6.77-.79q1.92-3.045 3.84-6.12Zm37.59-2.7c.7 1.96 1.4 3.91 2.09 5.86 2.16.04 4.33.06 6.49.06-1.83 1.86-3.65 3.72-5.48 5.56.06 2.24.12 4.48.17 6.72-1.83-.81-3.65-1.63-5.48-2.47-2.13 1.32-4.26 2.63-6.39 3.92.7-2.32 1.39-4.65 2.09-6.97-1.37-1.44-2.75-2.88-4.12-4.34 2.26-.56 4.52-1.13 6.77-1.73 1.28-2.2 2.56-4.4 3.84-6.62Zm37.59-6.19c.7 1.91 1.4 3.83 2.09 5.74 2.16-.08 4.33-.17 6.49-.27-1.83 1.95-3.65 3.89-5.48 5.83.06 2.24.12 4.47.17 6.71-1.83-.71-3.65-1.43-5.48-2.15-2.13 1.46-4.26 2.92-6.39 4.37.7-2.38 1.39-4.75 2.09-7.13-1.37-1.34-2.75-2.68-4.12-4.03 2.26-.73 4.52-1.47 6.77-2.22 1.28-2.28 2.56-4.57 3.84-6.86Zm-142.25 26.74c.7 2.31 1.4 4.62 2.09 6.92 2.17 1.12 4.33 2.2 6.49 3.22-1.83 1.01-3.65 1.98-5.48 2.91.06 2.27.12 4.54.17 6.81a381 381 0 0 1-5.48-5.26c-2.13.21-4.26.38-6.39.49.7-1.94 1.39-3.88 2.09-5.83-1.37-2.18-2.75-4.39-4.12-6.62 2.26.72 4.52 1.37 6.77 1.97q1.92-2.28 3.84-4.62Zm37.58 9.62c.7 2.14 1.4 4.28 2.09 6.42 2.16.61 4.33 1.18 6.49 1.71a398 398 0 0 1-5.48 4.18c.06 2.26.12 4.51.17 6.77-1.83-1.29-3.65-2.6-5.48-3.94-2.13.74-4.26 1.43-6.39 2.09.7-2.12 1.39-4.24 2.09-6.36-1.37-1.84-2.75-3.69-4.12-5.56 2.26.13 4.52.21 6.77.25 1.28-1.84 2.56-3.69 3.84-5.56Zm37.59 1.75c.7 2.02 1.4 4.04 2.09 6.05 2.16.23 4.33.44 6.49.62-1.83 1.72-3.65 3.42-5.48 5.09.06 2.25.12 4.49.17 6.74-1.83-.97-3.65-1.96-5.48-2.98-2.13 1.12-4.26 2.21-6.39 3.28.7-2.25 1.4-4.5 2.09-6.76-1.37-1.58-2.75-3.17-4.12-4.77 2.26-.31 4.52-.66 6.77-1.03 1.28-2.07 2.56-4.16 3.84-6.25Zm37.59-3.66c.7 1.94 1.4 3.88 2.09 5.82 2.17 0 4.33-.02 6.49-.04-1.83 1.89-3.65 3.77-5.48 5.65.06 2.24.12 4.48.17 6.72-1.83-.78-3.65-1.57-5.48-2.37q-3.195 2.055-6.39 4.05c.7-2.34 1.39-4.68 2.09-7.02-1.37-1.41-2.75-2.83-4.12-4.25 2.26-.61 4.52-1.23 6.77-1.87q1.92-3.33 3.84-6.69Zm37.59-6.62c.7 1.91 1.4 3.82 2.09 5.73 2.16-.09 4.33-.19 6.49-.28-1.83 1.95-3.65 3.9-5.48 5.85.06 2.24.12 4.47.17 6.71-1.83-.71-3.65-1.41-5.48-2.12l-6.39 4.41c.7-2.38 1.39-4.76 2.09-7.14-1.37-1.33-2.75-2.66-4.12-4 2.26-.75 4.52-1.51 6.77-2.27 1.28-2.29 2.56-4.58 3.84-6.88Z" class="cls-6col2"/><rect width="23.18" height="635.9" x="1514.03" y="1156.65" class="cls-6col9" rx="9.39" ry="9.39" transform="rotate(8.26 1525.383 1474.372)"/><path d="M210.61 435.79a1010 1010 0 0 1-16.6-61.49c-21.51-90.95-32.92-136.56-14.71-155.17 13.98-14.29 46.59-9.15 111.82 1.13 58.12 9.16 87.18 13.73 104.21 30.23 16.34 15.82 15.72 27.89 56.41 89.5 6.46 9.78 11.93 17.73 15.58 22.98-85.57 24.27-171.14 48.55-256.71 72.82" style="fill:#a05522"/><path d="M291.11 220.25c-65.23-10.28-97.84-15.41-111.82-1.13-4.35 4.45-7.01 10.45-8.24 18.23 6.13-7.28 16.73-17.53 30.68-18.44 34.86-2.26 51.01 56.43 89.75 57.16 23.22.44 28.28-20.44 51.89-23.96 21.98-3.27 54.17 9.37 100.27 75.39-32.57-50.89-33.13-62.35-48.3-77.04-17.04-16.5-46.09-21.07-104.21-30.23Z" class="cls-6col4"/><path d="M38.05 419.93c33.76 10.63 72.34 18.87 115.11 21.56 200.63 12.61 352.18-105.82 404.59-151.17 1.04 15.37.69 37.84-7.13 62.89-25.21 80.73-105.86 117.19-140.23 132.73-94.9 42.9-226.96 48.97-323.38-20.31-22.75-16.35-38.81-33.5-48.97-45.7Z" class="cls-6col5"/><path d="M465.96 358.24c-87.58 21.41-175.15 42.83-262.73 64.24a94.44 94.44 0 0 1-9.9-51.04c79.91-20.28 159.82-40.56 239.74-60.85 7.46 5.97 17.61 15.77 25.55 30.37a98.5 98.5 0 0 1 7.35 17.27Z" class="cls-6col5"/><path d="M458.61 340.97c-7.94-14.6-18.09-24.39-25.55-30.37 4.44 8.94 4.16 15.31 3.28 19.27-5.49 24.66-51.34 33.29-200.36 61.62-2.3.44-38.9 7.4-40.95 7.79.06.28.11.56.18.84 2.06 9.27 5.19 16.8 8.02 22.36 87.58-21.41 175.15-42.83 262.73-64.24a98 98 0 0 0-7.35-17.27" style="fill:#722905"/><path d="M221.735 356.405a5.87 5.87 0 0 1 7.334 3.86l16.42 52.911-11.194 3.474-16.42-52.911a5.87 5.87 0 0 1 3.86-7.334" class="cls-6col3"/><path d="m190.91 398.51-.762-2.454a3.98 3.98 0 0 1 2.622-4.981l40.552-12.584 3.12 10.057-40.551 12.584a3.98 3.98 0 0 1-4.981-2.622" class="cls-6col3"/><path d="M229.03 360.27a5.857 5.857 0 0 0-7.33-3.86c-2.62.81-4.25 3.3-4.11 5.92.64-2.12 2.21-3.71 4.1-4.05.32-.06 1.71-.27 3.06.5 1.26.71 1.85 1.91 2.12 2.53 1.19 2.72 16.75 41.15 10.39 43.72-.61.25-1.19.07-1.66-.07-5.05-1.51-2.45-12.1-6.87-15.54-7.4-5.76-27.88 13.68-35.57 7.69-1.6-1.24-2.16-3.21-2.4-4.63-.75.99-1.04 2.31-.64 3.59l.76 2.46c.65 2.1 2.88 3.27 4.98 2.62l30.62-9.5 7.76 25.01 11.19-3.47-16.42-52.91Z" style="fill:#d87f1e"/><path d="M38.05 419.93c1.36-11.77 114.91 19.46 273.44-23.91 154.26-42.2 238.05-124.1 246.52-113 8.84 11.59-68.95 118.71-194.26 163.72-160.59 57.69-327.36-12.43-325.69-26.81Z" class="cls-6col4"/><path d="M226.73 370.35c-.43.08-.44-2.45-2.53-4.43-1.74-1.65-3.28-1.35-3.72-2.64-.5-1.46.82-3.71 2.16-3.84 1.97-.19 3.55 4.27 3.73 4.76 1.07 3.01.83 6.06.36 6.15" class="cls-6col8"/><ellipse cx="198.86" cy="394.95" class="cls-6col8" rx="5.09" ry="2" transform="rotate(-10.27 198.95 395.08)"/></svg>