<svg xmlns="http://www.w3.org/2000/svg" viewBox="0 0 2000 2000" width="300" height="300" fill="none"><defs><style>.cls-3col1{fill:#7f4328}.cls-3col2{fill:#995530}</style></defs><path d="M1368.24 631.02a521 521 0 0 0-47.53-41.97c-80.42-62.79-179.75-102.5-288.01-109.13-10.72-.66-21.53-.99-32.41-.99-12.72 0-25.32.45-37.81 1.36-106.26 7.61-203.71 47.1-282.83 108.95a520 520 0 0 0-51.05 45.58c-78.19 79.55-131.02 184.07-145.44 300.51a524 524 0 0 0-3.99 64.76c0 1.7 0 3.4.03 5.1 1.31 136.39 55.01 260.26 141.95 352.43 15.09 16 31.19 31.05 48.19 45.05 90 74.08 205.29 118.57 330.97 118.57s240.38-44.27 330.3-118.02a523 523 0 0 0 48.62-45.34c.02 0 0 0 0 0 88.16-93.34 142.21-219.25 142.21-357.77s-58.56-274.71-153.2-369.06Zm-798.35 370.35c0-238.42 193.28-431.69 431.69-431.69s431.69 193.28 431.69 431.69-193.28 431.69-431.69 431.69-431.69-193.28-431.69-431.69" class="cls-3col2"/><path d="M1368.24 631.02a521 521 0 0 0-47.53-41.97c-80.42-62.79-179.75-102.5-288.01-109.13-10.72-.66-21.53-.99-32.41-.99-12.72 0-25.32.45-37.81 1.36-106.26 7.61-203.71 47.1-282.83 108.95a520 520 0 0 0-51.05 45.58c-78.19 79.55-131.02 184.07-145.44 300.51a524 524 0 0 0-3.99 64.76c0 1.7 0 3.4.03 5.1 1.31 136.39 55.01 260.26 141.95 352.43 15.09 16 31.19 31.05 48.19 45.05 90 74.08 205.29 118.57 330.97 118.57s240.38-44.27 330.3-118.02a523 523 0 0 0 48.62-45.34c.02 0 0 0 0 0 88.16-93.34 142.21-219.25 142.21-357.77s-58.56-274.71-153.2-369.06Zm-367.95 864.13c-273.42 0-495.07-221.65-495.07-495.07s221.65-495.07 495.07-495.07 495.07 221.65 495.07 495.07-221.65 495.07-495.07 495.07" class="cls-3col1"/><path d="M1046.69 271.36c5.86-14.76 10.13-32.94 8.87-53.54-2.54-41.46-27.48-92.28-55.23-92.25-27.83.03-52.35 51.19-55.23 92.25-1.45 20.69 2.57 39 8.16 53.86 13.25 35.2 20.36 72.42 21.59 110.01.44 13.39.55 42.36.82 64.25-.95 1.1-1.69 2.4-2.16 3.85a79.5 79.5 0 0 1-4.61 11.22 79 79 0 0 1-5.23 8.91c-2.85 4.2-2.59 9.83.81 13.59 2.63 2.91 6.43 4.74 10.66 4.74h44.9c1.03-.05 6.47-.4 10.56-4.95.14-.16.28-.32.41-.48 3.04-3.7 3.16-8.99.55-13.01a84 84 0 0 1-5.16-9.12 82 82 0 0 1-4.26-10.58c-.47-1.45-1.23-2.75-2.2-3.85.79-21.51 1.71-50.03 2.32-63.02 1.8-38.4 10.24-76.15 24.42-111.88Z" class="cls-3col2"/><path d="M1022.27 383.24c-.61 12.99-1.54 41.51-2.33 63.02.97 1.1 1.73 2.39 2.2 3.84a83 83 0 0 0 4.26 10.58c1.66 3.42 3.42 6.46 5.16 9.12 2.62 4.02 2.5 9.31-.55 13.01-.13.16-.27.32-.41.47-4.09 4.56-9.52 4.91-10.56 4.96h-44.9c-4.23 0-8.04-1.83-10.67-4.74a10.56 10.56 0 0 1-2.43-4.58h31.69c1.04-.05 6.47-.4 10.56-4.96.14-.16.28-.32.41-.48 3.04-3.69 3.16-8.99.55-13-1.74-2.66-3.5-5.71-5.16-9.12-1.8-3.72-3.19-7.29-4.26-10.58-.47-1.45-1.23-2.75-2.2-3.84.79-21.51 1.72-50.03 2.33-63.03 1.8-38.39 10.24-76.14 24.41-111.87 5.86-14.76 10.14-32.94 8.87-53.54-1.86-30.31-15.69-65.62-33.83-82.41 1.62-.34 3.26-.53 4.91-.53 27.74-.03 52.69 50.79 55.23 92.26 1.26 20.6-3.02 38.78-8.87 53.54-14.17 35.73-22.61 73.48-24.41 111.88" class="cls-3col1"/><path d="M948.7 1728.64c-5.86 14.76-10.13 32.94-8.87 53.54 2.54 41.46 27.48 92.28 55.23 92.25 27.83-.03 52.35-51.19 55.23-92.25 1.45-20.69-2.57-39-8.16-53.86-13.25-35.2-20.36-72.42-21.59-110.01-.44-13.39-.55-42.36-.82-64.25.95-1.1 1.69-2.4 2.16-3.85 1.13-3.48 2.62-7.27 4.61-11.22 1.68-3.35 3.47-6.31 5.23-8.91 2.85-4.2 2.59-9.83-.81-13.59a14.33 14.33 0 0 0-10.66-4.74h-44.9c-1.03.05-6.47.4-10.56 4.95-.14.16-.28.32-.41.48-3.04 3.7-3.16 8.99-.55 13.01a84 84 0 0 1 5.16 9.12c1.81 3.72 3.19 7.29 4.26 10.58.47 1.45 1.23 2.75 2.2 3.85-.79 21.51-1.71 50.03-2.32 63.02-1.8 38.4-10.24 76.15-24.42 111.88Z" class="cls-3col2"/><path d="M988.07 1533.29c-3.04 3.7-3.16 8.99-.54 13.01 1.74 2.66 3.5 5.7 5.15 9.12 1.81 3.72 3.19 7.29 4.27 10.57a10.9 10.9 0 0 0 2.19 3.85c-.78 21.51-1.71 50.03-2.32 63.02-1.8 38.4-10.25 76.14-24.42 111.88-5.86 14.76-10.13 32.94-8.86 53.54 1.63 26.78 12.62 57.46 27.68 75.83-26.17-4.36-48.96-52.4-51.39-91.93-1.25-20.6 3.02-38.79 8.87-53.55 14.17-35.73 22.61-73.47 24.42-111.87.6-12.99 1.53-41.51 2.32-63.02-.97-1.1-1.73-2.39-2.19-3.85a84 84 0 0 0-9.42-19.7c-2.62-4.01-2.51-9.3.54-13 .14-.17.27-.32.42-.48 4.08-4.56 9.52-4.9 10.55-4.96h44.9c4.23 0 8.04 1.84 10.67 4.74 2.82 3.14 3.48 7.56 1.98 11.37h-33.84c-1.03.05-6.47.39-10.55 4.95-.15.16-.28.32-.42.48Z" class="cls-3col1"/><path d="M1527.03 490.11c14.48-6.52 30.21-16.6 43.64-32.26 27.04-31.53 44.52-85.37 24.58-104.67-20-19.36-73.22.31-103.87 27.77-15.44 13.84-25.3 29.79-31.64 44.34-15 34.49-35.8 66.16-61.09 94-9 9.91-29.09 30.79-44.14 46.69-1.45.13-2.88.55-4.23 1.26a80.5 80.5 0 0 1-11.12 4.85 78 78 0 0 1-9.96 2.75c-4.97 1.03-8.7 5.25-8.88 10.33-.14 3.92 1.31 7.88 4.35 10.83l32.23 31.26c.78.69 4.92 4.22 11.03 3.79q.315-.015.63-.06c4.76-.54 8.53-4.25 9.45-8.96.61-3.12 1.46-6.53 2.65-10.14 1.3-3.93 2.78-7.45 4.31-10.56.67-1.37 1.03-2.83 1.1-4.29 15.54-14.89 36.06-34.72 45.54-43.62 28.03-26.31 60.37-47.53 95.42-63.31" class="cls-3col2"/><path d="M1570.67 457.85c-13.43 15.66-29.16 25.74-43.64 32.27-35.05 15.78-67.39 37-95.42 63.31-9.48 8.9-30 28.73-45.54 43.62-.07 1.47-.43 2.92-1.1 4.29a84.5 84.5 0 0 0-4.31 10.57c-1.19 3.6-2.03 7.02-2.65 10.14-.92 4.71-4.69 8.42-9.45 8.96-.2.03-.42.05-.63.06-6.11.43-10.25-3.1-11.03-3.79l-32.23-31.26a14.3 14.3 0 0 1-4.35-10.82c.07-1.98.68-3.82 1.68-5.38l23.53 22.82c.77.69 4.92 4.22 11.03 3.8.21 0 .42-.04.62-.06 4.77-.54 8.53-4.25 9.45-8.96.61-3.13 1.47-6.53 2.66-10.15 1.29-3.93 2.78-7.45 4.31-10.56.67-1.37 1.03-2.83 1.1-4.29 15.54-14.89 36.06-34.73 45.55-43.62 28.02-26.32 60.36-47.53 95.41-63.31 14.48-6.52 30.21-16.6 43.65-32.26 19.67-22.95 34.29-57.7 33.1-82.36 1.01.69 1.97 1.48 2.85 2.33 19.94 19.31 2.47 73.14-24.58 104.68Z" class="cls-3col1"/><path d="M1727.52 1018.64c14.76 5.86 32.94 10.13 53.54 8.87 41.46-2.54 92.28-27.48 92.25-55.23-.03-27.83-51.19-52.35-92.25-55.23-20.69-1.45-39 2.57-53.86 8.16-35.2 13.25-72.42 20.36-110.01 21.59-13.39.44-42.36.55-64.25.82-1.1-.95-2.4-1.69-3.85-2.16a79.5 79.5 0 0 1-11.22-4.61 79 79 0 0 1-8.91-5.23c-4.2-2.85-9.83-2.59-13.59.81a14.33 14.33 0 0 0-4.74 10.66v44.9c.05 1.03.4 6.47 4.95 10.56.16.14.32.28.48.41 3.7 3.04 8.99 3.16 13.01.55a84 84 0 0 1 9.12-5.16c3.72-1.81 7.29-3.19 10.58-4.26 1.45-.47 2.75-1.23 3.85-2.2 21.51.79 50.03 1.71 63.02 2.32 38.4 1.8 76.15 10.24 111.88 24.42Z" class="cls-3col2"/><path d="M1873.31 972.28c.03 27.75-50.79 52.7-92.26 55.23-20.59 1.26-38.78-3.01-53.54-8.86-35.73-14.17-73.48-22.62-111.87-24.42-13-.61-41.52-1.54-63.03-2.32-1.1.97-2.39 1.72-3.84 2.19a83 83 0 0 0-10.58 4.27 82 82 0 0 0-9.12 5.15c-4.02 2.62-9.3 2.5-13-.55-.17-.13-.32-.27-.48-.41-4.56-4.08-4.91-9.52-4.96-10.55V947.1c0-4.22 1.83-8.03 4.74-10.66 1.75-1.57 3.87-2.47 6.07-2.7v31.9c.05 1.03.39 6.47 4.95 10.55.16.14.32.28.48.41 3.7 3.04 8.99 3.17 13.01.55 2.66-1.74 5.7-3.5 9.12-5.15 3.72-1.81 7.29-3.19 10.57-4.27a10.9 10.9 0 0 0 3.85-2.19c21.51.78 50.03 1.71 63.02 2.32 38.4 1.8 76.14 10.25 111.88 24.42 14.76 5.86 32.94 10.13 53.54 8.86 29.57-1.81 63.91-15.02 81.15-32.52.19 1.21.3 2.42.3 3.65Z" class="cls-3col1"/><path d="M1485.15 1553.18c7.77 13.85 19.2 28.62 35.99 40.62 33.8 24.15 88.98 36.79 106.44 15.22 17.51-21.63-6.78-72.9-36.85-101.01-15.15-14.16-31.91-22.57-46.97-27.59-35.68-11.89-69.07-29.81-99.04-52.54-10.67-8.09-33.24-26.25-50.41-39.84-.26-1.43-.8-2.82-1.63-4.1a80.5 80.5 0 0 1-5.81-10.65 78.5 78.5 0 0 1-3.62-9.67c-1.47-4.86-6-8.2-11.07-7.93-3.92.21-7.73 2.01-10.4 5.29l-28.29 34.87c-.62.83-3.77 5.28-2.8 11.32.03.21.07.42.11.62.96 4.7 4.99 8.12 9.76 8.62 3.17.33 6.64.88 10.34 1.74 4.03.94 7.67 2.11 10.9 3.35 1.42.55 2.91.78 4.37.72 16.21 14.16 37.77 32.85 47.48 41.51 28.69 25.59 52.68 55.92 71.5 89.44Z" class="cls-3col2"/><path d="M1621.43 1614.37c-21.9 13.64-69.79 1.21-100.3-20.58-16.78-11.99-28.22-26.77-35.99-40.62-18.82-33.52-42.82-63.85-71.5-89.44-9.71-8.65-31.27-27.35-47.48-41.5-1.46.06-2.94-.18-4.37-.72-3.23-1.23-6.88-2.4-10.91-3.35-3.69-.86-7.17-1.41-10.33-1.74-4.77-.49-8.8-3.92-9.76-8.61-.05-.2-.08-.42-.12-.62-.97-6.04 2.19-10.49 2.8-11.32l28.29-34.86c2.66-3.29 6.48-5.09 10.4-5.3 3.75-.19 7.2 1.59 9.35 4.48l-24.33 29.99c-.62.84-3.77 5.28-2.8 11.32.03.21.07.42.11.62.96 4.7 4.98 8.12 9.76 8.62 3.17.32 6.64.87 10.34 1.74 4.03.95 7.67 2.12 10.9 3.36 1.43.55 2.91.77 4.37.71 16.21 14.16 37.78 32.85 47.48 41.5 28.68 25.59 52.69 55.93 71.5 89.45 7.77 13.84 19.2 28.62 36 40.61 21.92 15.66 52.81 26.48 76.59 26.27Z" class="cls-3col1"/><path d="M472.97 494.67c-14.48-6.52-30.21-16.6-43.64-32.26-27.04-31.53-44.52-85.37-24.58-104.67 20-19.36 73.22.31 103.87 27.77 15.44 13.84 25.3 29.79 31.64 44.34 15 34.49 35.8 66.16 61.09 94 9 9.91 29.09 30.79 44.14 46.69 1.45.13 2.88.55 4.23 1.26 3.23 1.71 6.94 3.39 11.12 4.85 3.54 1.23 6.89 2.12 9.96 2.75 4.97 1.03 8.7 5.25 8.88 10.33.14 3.92-1.31 7.88-4.35 10.83l-32.23 31.26c-.78.69-4.92 4.22-11.03 3.79q-.315-.015-.63-.06c-4.76-.54-8.53-4.25-9.45-8.96-.61-3.12-1.46-6.53-2.65-10.14-1.3-3.93-2.78-7.45-4.31-10.56-.67-1.37-1.03-2.83-1.1-4.29-15.54-14.89-36.06-34.72-45.54-43.62-28.03-26.31-60.37-47.53-95.42-63.31" class="cls-3col2"/><path d="M679.67 589.74c.15 3.92-1.31 7.88-4.34 10.82l-32.24 31.26c-.77.69-4.92 4.21-11.03 3.8l-.63-.06c-2.9-.32-5.42-1.83-7.16-4.02l25.02-24.25c3.04-2.95 4.49-6.91 4.35-10.83-.19-5.07-3.91-9.29-8.88-10.32-3.06-.64-6.41-1.52-9.95-2.76a78 78 0 0 1-11.13-4.85c-1.34-.71-2.78-1.12-4.22-1.26-15.06-15.89-35.14-36.78-44.15-46.69-25.29-27.84-46.09-59.51-61.09-94-6.33-14.55-16.19-30.5-31.63-44.34-21-18.82-52.57-33.96-76.81-35.42 20.74-17.77 72.7 1.69 102.84 28.7 15.45 13.84 25.3 29.79 31.63 44.35 15 34.49 35.8 66.16 61.1 94 9 9.91 29.09 30.79 44.14 46.69 1.45.13 2.89.55 4.23 1.26 3.23 1.71 6.94 3.39 11.12 4.85 3.54 1.23 6.89 2.12 9.96 2.75 4.97 1.04 8.7 5.25 8.87 10.33Z" class="cls-3col1"/><path d="M272.48 1018.64c-14.76 5.86-32.94 10.13-53.54 8.87-41.46-2.54-92.28-27.48-92.25-55.23.03-27.83 51.19-52.35 92.25-55.23 20.69-1.45 39 2.57 53.86 8.16 35.2 13.25 72.42 20.36 110.01 21.59 13.39.44 42.36.55 64.25.82 1.1-.95 2.4-1.69 3.85-2.16 3.48-1.13 7.27-2.62 11.22-4.61 3.35-1.68 6.31-3.47 8.91-5.23 4.2-2.85 9.83-2.59 13.59.81 2.91 2.63 4.74 6.43 4.74 10.66v44.9c-.05 1.03-.4 6.47-4.95 10.56-.16.14-.32.28-.48.41-3.7 3.04-8.99 3.16-13.01.55a84 84 0 0 0-9.12-5.16 82 82 0 0 0-10.58-4.26c-1.45-.47-2.75-1.23-3.85-2.2-21.51.79-50.03 1.71-63.02 2.32-38.4 1.8-76.15 10.24-111.88 24.42Z" class="cls-3col2"/><path d="M489.37 947.1v44.91c-.05 1.03-.4 6.47-4.96 10.55l-.47.41c-1.42 1.17-3.07 1.9-4.8 2.22v-39.13c0-4.23-1.83-8.03-4.74-10.66-3.77-3.41-9.39-3.67-13.6-.82a81 81 0 0 1-8.9 5.23c-3.95 2-7.75 3.48-11.22 4.61-1.45.47-2.75 1.21-3.85 2.15-21.89-.26-50.87-.37-64.25-.82-37.59-1.23-74.81-8.34-110-21.59-14.86-5.59-33.18-9.61-53.86-8.16-29.73 2.09-64.76 15.52-81.83 33.33 3.43-26.59 52.45-49.51 92.06-52.3 20.68-1.45 38.99 2.57 53.86 8.17 35.2 13.25 72.42 20.36 110 21.59 13.39.44 42.36.55 64.25.82 1.1-.95 2.4-1.69 3.85-2.16 3.48-1.12 7.27-2.62 11.22-4.6a79 79 0 0 0 8.9-5.24c4.2-2.84 9.83-2.58 13.6.82 2.91 2.63 4.74 6.43 4.74 10.66Z" class="cls-3col1"/><path d="M514.85 1553.18c-7.77 13.85-19.2 28.62-35.99 40.62-33.8 24.15-88.98 36.79-106.44 15.22-17.51-21.63 6.78-72.9 36.85-101.01 15.15-14.16 31.91-22.57 46.97-27.59 35.68-11.89 69.07-29.81 99.04-52.54 10.67-8.09 33.24-26.25 50.41-39.84.26-1.43.8-2.82 1.63-4.1 1.99-3.07 3.99-6.62 5.81-10.65 1.54-3.42 2.72-6.67 3.62-9.67 1.47-4.86 6-8.2 11.07-7.93 3.92.21 7.73 2.01 10.4 5.29l28.29 34.87c.62.83 3.77 5.28 2.8 11.32-.03.21-.07.42-.11.62-.96 4.7-4.99 8.12-9.76 8.62-3.17.33-6.64.88-10.34 1.74-4.03.94-7.67 2.11-10.9 3.35-1.42.55-2.91.78-4.37.72-16.21 14.16-37.77 32.85-47.48 41.51-28.69 25.59-52.68 55.92-71.5 89.44Z" class="cls-3col2"/><path d="M669.31 1407.17c-.04.2-.07.42-.11.62-.71 3.45-3.08 6.23-6.18 7.64l-24.8-30.58a14.27 14.27 0 0 0-10.4-5.29c-5.07-.27-9.6 3.07-11.06 7.94-.91 3-2.09 6.26-3.63 9.67a79 79 0 0 1-5.81 10.65c-.83 1.28-1.36 2.67-1.62 4.1-17.17 13.59-39.75 31.75-50.41 39.84-29.97 22.72-63.35 40.65-99.04 52.54-15.06 5.01-31.82 13.42-46.97 27.59-19.3 18.04-36.21 45.61-41.22 68.77-7.59-24.52 14.55-67.71 41.22-92.66 15.15-14.16 31.91-22.57 46.97-27.59 35.69-11.89 69.07-29.81 99.04-52.54 10.67-8.09 33.24-26.25 50.41-39.84.26-1.43.8-2.82 1.62-4.09 2-3.07 3.99-6.62 5.81-10.66 1.54-3.42 2.72-6.67 3.63-9.67 1.47-4.85 6-8.2 11.06-7.94 3.92.21 7.73 2.01 10.4 5.3l28.29 34.86c.61.84 3.77 5.28 2.8 11.32Z" class="cls-3col1"/></svg>