<svg xmlns="http://www.w3.org/2000/svg" viewBox="0 0 2000 2000" width="300" height="300" fill="none"><defs><style>.cls-ind31{fill:#d8cbcb}.cls-ind32{fill:#e21d27}.cls-ind34{fill:#c61022}.cls-ind35{fill:#cc1123}.cls-ind36{fill:#f9c9a5}.cls-ind37{fill:#ccbaba}</style></defs><path d="M574.89 1392.86v36.55c-1.87 6.31-3.74 12.62-5.6 18.93-4.23 14.25-8.44 28.5-12.66 42.75-18.85-6.84-37.69-13.68-56.54-20.52-3.64-1.32-7.29-2.65-10.93-3.97-4.93-1.79-9.86-3.58-14.79-5.36-57.33-20.81-114.65-41.61-171.98-62.41 18.68-10.36 37.35-20.71 56.03-31.07-7.39-18.42-14.77-36.85-22.16-55.27 35.59 10.84 71.85 22.39 108.72 34.69a4330 4330 0 0 1 110.25 38.46c6.59 2.4 13.14 4.8 19.66 7.22m1112.41 5.97c-57.4 20.83-114.8 41.65-172.2 62.49-2.91 1.05-5.83 2.11-8.74 3.17-2.15.78-4.31 1.56-6.46 2.34-22.28 8.09-44.56 16.17-66.84 24.26-3.3-11.16-6.61-22.31-9.91-33.47a101.5 101.5 0 0 0 1.87-16.01c.05-1.32.08-2.66.08-4v-48.55c7.05-2.59 14.15-5.17 21.29-7.75a4320 4320 0 0 1 207.04-68.82c-7.39 18.42-14.78 36.85-22.16 55.27 18.67 10.36 37.35 20.71 56.03 31.07" class="cls-ind36"/><path d="M575.62 1449.87q-3.18-.75-6.33-1.53c-11.48-2.81-22.59-5.71-33.33-8.67 3.08-12.61 7.54-27.05 14.11-42.57 1.67-3.96 3.4-7.78 5.16-11.46a285.5 285.5 0 0 1 19.48-34.55c.06.01.12.02.18.04v86.48c0 4.15.24 8.24.73 12.26m903.05-23.5c-16.88 5.24-34.78 10.37-53.65 15.24.05-1.32.08-2.66.08-4v-77.9c6.87 6.24 14.08 13.42 21.29 21.6.73.81 1.45 1.64 2.17 2.48a270.5 270.5 0 0 1 30.11 42.58M931.07 415.41c-12.77 2.48-31.98 8.22-54 23.66-6-.16-14.01-.95-23.06-3.55a91.4 91.4 0 0 1-22.55-9.92c.28 3.69 1.29 9.44 4.96 15.25 1.17 1.86 2.43 3.42 3.64 4.73-5.12 1.28-13.65 2.65-23.66.59a51 51 0 0 1-10.92-3.55c.04 3.11.57 10.21 5.46 17.15 2.63 3.73 5.66 6.18 7.89 7.69-4.75-.21-45.19-1.32-72.81 30.75-24.1 27.98-20.7 60.64-20.02 66.23 54.05-44.28 84.26-49.36 102.06-45 5.06 1.24 20.13 5.95 41.74 7.15 14.11.78 25.76-.22 33.37-1.18-8.57 7.9-23.65 19.68-45.51 27.2-33.95 11.69-63.64 6.01-75.85 2.96.42 4.77 1.87 13.58 8.44 20.19 25.69 25.86 98.4-13.3 111.7 6.42 1.68 2.49 3.45 7.46-.61 17.74l224.87 2.7c-33.87-17.44-42.96-34.17-44.77-46.5-2.62-17.91 9.64-29.91 7.1-56.14-1.4-14.4-6.56-25.81-10.63-33.12 4.05-2.37 8.37-5.28 12.74-8.87 13.15-10.8 20.95-22.99 25.48-31.93-12.1 12.7-27.39 17.78-37.97 12.89-2.22-1.03-5.3-2.99-8.14-6.97 2.73-2.3 5.92-5.51 8.77-9.81 6.77-10.22 7.59-20.55 7.61-25.67-3.18 4.5-9.17 11.92-18.81 17.74-37.61 22.72-79.06-9.97-136.52 1.18Z" class="cls-ind36"/><path d="M678.05 690.55c-3.47 0-6.9.17-10.28.51-49.74 4.92-89.1 45.18-92.62 95.32-.17 2.42-.26 4.87-.26 7.33v321.06c-1.73-.5-3.41-1.02-5.06-1.54-220.45-69.67-328.55-408.08-243.37-659.97 36.72-108.56 103.83-184.74 153.05-230.64-26.04 146.68 8.05 212.98 44.11 246.42 56.98 52.83 140.8 43.91 226.85 126.15 30.27 28.93 48.97 57.83 59.56 76.42 11.09-1.43 22.18-2.85 33.26-4.27-7.1-7.49-14.21-14.98-21.32-22.48a65.3 65.3 0 0 0 21.32 7.1c13.48 2.03 24.43-.58 30.11-2.36-10.87-6.71-21.74-13.41-32.61-20.11 6.46 1.7 17.08 3.68 30.1 2.36a84 84 0 0 0 26.35-7.09l-28.86-16.95c9.59-1.59 20.99-4.26 33.33-8.86.87-.32 1.75-.66 2.63-1a173.4 173.4 0 0 0 51.23-31.15l44.43 13.41c.87.27 1.74.53 2.61.79 0 6.71.02 13.43.03 20.14.03 24.56.07 49.13.1 73.69v6.4c0 2.13 0 4.27.01 6.4v2.92H678.04Zm324.7 850.21c-.68 3.6-1.54 7.32-2.61 11.12-.01.05-.02.11-.04.16-.03.11-.06.22-.1.33-2.34 7.94-6 18.04-11.94 28.91-4.03 7.39-9.12 15.13-15.56 22.8-22.62 26.93-51.68 40.75-94.08 54.4a716 716 0 0 1-43.83 12.58q-2.4.615-4.86 1.23c-37.66 9.27-85.2 17.88-141.99 21.68q8.58-16.32 17.13-33.21c.36-.71.72-1.41 1.07-2.12 14.62-28.93 29.16-59.1 43.45-90.49 4.1-9.03 8.19-18.16 12.26-27.39z" class="cls-ind36"/><path d="M917.04 522.68c-3.74-8.95-25.93.52-64.33-13.24-25.08-8.99-28.61-17.68-43.17-19.96-17.52-2.74-44.08 4.89-83.11 52.1-1.68 11.45-.75 20.2-.43 22.85 54.05-44.28 84.26-49.36 102.06-45 5.06 1.24 20.13 5.95 41.74 7.15 14.11.78 25.76-.22 33.37-1.18-8.57 7.9-23.65 19.68-45.51 27.2-33.95 11.69-63.64 6.01-75.85 2.96.35 4.01 1.44 10.87 5.69 16.89 12.24 3.55 31.65 7.34 54.23 3.46 43.95-7.54 80.51-40.8 75.31-53.24Zm167.37 10.45c2.58-9.02 5.51-19.02 4.14-33.15-.64-6.54-2.05-12.45-3.78-17.65.24 2.02.55 4.05 1.14 6 3.47 15.26-8.29 30.52-1.5 44.81Zm-195.95-77.51c25.67-2.97 27.21-26.02 55.82-31.34 26.57-4.95 38.58 12.45 81.56 10.88 11.96-.44 21.72-2.17 28.13-3.58.06.01.16.04.27.08 3.98 1.27 3.04 8.2 5.45 12.15 4.53 7.42 20.85 4.25 21.33 7.1.51 3.1-18.85 7.12-18.47 10.57.22 1.99 6.95 3.08 14.75 3.69.25.17.52.36.79.56.25.19.49.39.72.59 3.79-2.27 7.79-5 11.84-8.32 13.15-10.8 20.95-22.99 25.48-31.93-12.1 12.7-27.39 17.78-37.97 12.89-2.22-1.03-5.3-2.99-8.14-6.97 2.73-2.3 5.92-5.51 8.77-9.81 6.77-10.22 7.59-20.55 7.61-25.67-3.18 4.5-9.17 11.92-18.81 17.74-37.61 22.72-79.06-9.97-136.52 1.18-12.77 2.48-31.98 8.22-54 23.66-6-.16-14.01-.95-23.06-3.55a91.4 91.4 0 0 1-22.55-9.92c.1 1.37.31 3.03.72 4.87 13.64 12.87 33.99 27.74 56.28 25.16ZM490.8 781.47c26.52 23.36 57.14 40.24 84.09 51.03v105.62C452.65 842.18 423.32 708.3 415.53 662.61c8.71 28.81 28.44 77.62 75.27 118.86m-20.7 166.77c21.56 14.49 56.89 34.69 104.79 47.59v56.97c-44.91-27.19-79.2-66.93-104.79-104.56m124.19-273.21c25.34 10.71 50.2 14.12 73.48 16.03-49.74 4.92-89.1 45.18-92.62 95.32-24.91-20.04-52.36-46.01-74.95-79.42-57.93-85.69-58.43-182.55-50.8-248.38 35.03 141.68 94.28 195.05 144.89 216.45m181.26 899.48c-.57-.93-.1-2.13 1.24-3.63 4.83-5.47 21.16-14.96 40.81-30.12h54.47c-26.68 16.8-52.92 27.36-71.32 32.24-14.08 3.74-23.58 4.16-25.2 1.51m227.2-33.75c-.68 3.6-1.54 7.32-2.61 11.12-.01.05-.02.11-.04.16-.03.11-.06.22-.1.33-2.34 7.94-6 18.04-11.94 28.91-4.03 7.39-9.12 15.13-15.56 22.8-22.62 26.93-51.68 40.75-94.08 54.4a716 716 0 0 1-43.83 12.58q-2.4.615-4.86 1.23c-37.66 9.27-85.2 17.88-141.99 21.68 15.89-3.03 47.17-10 83.86-26.26 1.12-.5 2.25-1 3.39-1.52 36.05-16.4 76.97-41.76 113.46-81.04 1.91-2.06 3.79-4.12 5.61-6.19a332 332 0 0 0 29.18-38.2z" class="cls-ind36"/><path d="M1312.24 1693.95v.02c-57.26-3.84-105.13-12.56-142.94-21.92-1.31-.33-2.6-.65-3.88-.98-16.67-4.22-31.3-8.55-43.85-12.59-42.4-13.65-71.47-27.47-94.09-54.4a140.3 140.3 0 0 1-15.56-22.79c-5.94-10.87-9.6-20.98-11.93-28.92-.04-.11-.07-.22-.1-.33-.14-.51-.28-1.01-.41-1.51-.9-3.33-1.64-6.6-2.24-9.77h241.09c4.07 9.23 8.16 18.36 12.28 27.39 14.28 31.4 28.81 61.57 43.43 90.51.27.53.54 1.07.81 1.6 5.77 11.41 11.56 22.62 17.35 33.64.01.02.02.03.03.05Zm117.93-580.72c-1.65.52-3.34 1.04-5.07 1.55V793.71c0-2.38-.08-4.73-.24-7.07-3.4-50.21-42.72-90.57-92.47-95.57-3.44-.34-6.92-.52-10.44-.52H997.24v-9.32c0-2.13.01-4.27.01-6.4.03-24.59.07-49.17.1-73.76l.03-20.07c.87-.26 1.74-.52 2.61-.79l44.43-13.41c4.95 6.66 20.36 25.49 48.29 33.12 4.28 1.17 8.41 1.95 12.31 2.45 8.29 1.05 15.56.82 21.17.25 1.02-.1 1.99-.21 2.9-.33l-26.34 22.47a84 84 0 0 0 26.34 7.09 84.9 84.9 0 0 0 30.11-2.36c-10.87 6.7-21.74 13.4-32.62 20.11 5.69 1.78 16.63 4.39 30.11 2.36a65.5 65.5 0 0 0 21.33-7.1c-7.11 7.5-14.22 14.99-21.33 22.48 11.09 1.42 22.18 2.84 33.27 4.27 10.58-18.59 29.29-47.49 59.56-76.42 86.04-82.24 169.86-73.32 226.84-126.15 36.06-33.44 70.16-99.74 44.12-246.42 49.22 45.9 116.33 122.08 153.04 230.64 85.19 251.89-22.91 590.3-243.36 659.97Z" class="cls-ind36"/><path d="M1199.5 1572.98c-18.4-4.89-44.6-15.44-71.25-32.22h54.47c19.61 15.13 35.92 24.62 40.79 30.09 1.36 1.52 1.83 2.73 1.26 3.66-1.63 2.65-11.15 2.23-25.27-1.53m112.71 120.92c.13.02.25.05.37.07-.11-.01-.23-.02-.34-.02-57.15-3.85-104.92-12.56-142.67-21.92-1.31-.32-2.61-.65-3.89-.98a709 709 0 0 1-43.78-12.57c-42.39-13.65-71.46-27.47-94.08-54.4-4.77-5.68-8.99-13.26-13.68-22.81-4.06-8.25-8.48-17.97-13.92-29.23-.03-.05-.05-.11-.08-.16-.21-.45-.43-.9-.65-1.35-1.61-3.35-3.15-6.61-4.63-9.77h82.23c8.26 12.61 17.9 25.46 29.16 38.19 1.83 2.07 3.7 4.14 5.62 6.2 36.48 39.26 77.36 64.62 113.41 81.01.88.4 1.74.79 2.61 1.18 36.76 16.39 68.2 23.47 84.32 26.56m112.89-697.98c48.08-12.9 83.51-33.15 105.12-47.68-25.65 37.72-60.04 77.56-105.12 104.76zm-.24-209.28c-3.4-50.21-42.72-90.57-92.47-95.57 23.33-1.9 48.24-5.3 73.64-16.04 50.61-21.4 109.86-74.77 144.89-216.45 7.64 65.83 7.14 162.69-50.8 248.38-22.69 33.56-50.26 59.6-75.26 79.68m159.93-124.03c-7.79 45.74-37.17 179.82-159.69 275.78V832.63c27.03-10.78 57.8-27.7 84.43-51.16 46.82-41.24 66.55-90.05 75.26-118.86m-846.91 18.62h513.93v9.32H737.88z" class="cls-ind36"/><path d="M731.16 674.83v15.72h13.45v-2.92h500.47v2.92h13.45v-15.72z" class="cls-ind36"/><path d="M737.88 681.23h256.96v9.32H737.88zm256.96 0h256.97v9.32H994.84z" class="cls-ind36"/><path d="M1683.46 1494.95v98.03h126.37c42.12-32.68 84.24-65.35 126.37-98.03z" class="cls-ind32"/><path d="M1683.46 1494.95V1691h252.74c-42.13-32.67-84.25-65.35-126.37-98.02h-119.22v-98.03z" class="cls-ind31"/><path d="M1499.91 1461.32h252.73v98.03h-252.73z" class="cls-ind34"/><path d="M1499.91 1559.35h252.73v98.02h-252.73z" class="cls-ind31"/><path d="m1752.64 1657.37-69.18 33.63v-33.63c10.85-.28 21.94-.43 33.26-.45 12.24-.01 24.22.14 35.92.45" class="cls-ind37"/><path d="m1499.91 1461.32 92.76 45.51-92.76 23.42z" class="cls-ind35"/><path d="M316.54 1494.87v98.03H190.17c-42.12-32.68-84.24-65.35-126.37-98.03z" class="cls-ind32"/><path d="M316.54 1494.87v196.05H63.8c42.13-32.67 84.25-65.35 126.37-98.02h119.22v-98.03z" class="cls-ind31"/><path d="M247.36 1461.24h252.73v98.03H247.36z" class="cls-ind34"/><path d="M247.36 1559.27h252.73v98.02H247.36z" class="cls-ind31"/><path d="m247.36 1657.29 69.18 33.63v-33.63c-10.85-.28-21.94-.43-33.26-.45-12.24-.01-24.22.14-35.92.45" class="cls-ind37"/><path d="m500.09 1461.24-92.76 45.51 92.76 23.42z" class="cls-ind35"/><path d="M1592.75 1506.75v99.6c-149.9 36.61-347.28 70.12-579.82 71.52-244.07 1.48-450.65-32.88-605.6-70.41v-100.71c152.95 39.09 360.57 76.05 607.52 74.52 233.2-1.44 430.18-36.76 577.9-74.52" class="cls-ind32"/><path d="M1592.75 1602.23v101.6c-148.94 37.53-347.31 72.49-581.99 73.53-244.61 1.08-450.66-35.04-603.43-73.53v-101.6c152.95 39.09 360.57 76.05 607.52 74.52 233.2-1.44 430.18-36.76 577.9-74.52" style="fill:#eae4e4"/></svg>