<svg xmlns="http://www.w3.org/2000/svg" viewBox="0 0 2000 2000" width="300" height="300" fill="none"><defs><style>.cls-ind12{fill:#e21d27}.cls-ind13{fill:#eae4e4}</style></defs><path d="M1000 146.22c-389.72 0-705.66 315.93-705.66 705.65 0 258.74 139.26 484.96 346.9 607.79a702 702 0 0 0 69.48 36.04c9 4.05 18.1 7.92 27.3 11.59a700 700 0 0 0 93.37 29.97c5.09 1.25 10.21 2.44 15.34 3.57a691 691 0 0 0 57.48 10.25 712 712 0 0 0 95.37 6.45h.42c13.29 0 26.49-.37 39.59-1.09 5.68-.32 11.34-.7 16.98-1.15 15.36-1.21 30.58-2.92 45.65-5.12q8.625-1.245 17.19-2.7 13.965-2.385 27.75-5.31a695 695 0 0 0 51.21-12.9q4.08-1.185 8.13-2.43c5.07-1.54 10.11-3.15 15.13-4.81q6.105-2.01 12.15-4.14c1.74-.61 3.49-1.23 5.23-1.86 6.15-2.21 12.26-4.5 18.32-6.88a703.7 703.7 0 0 0 112.21-55.99c201.67-124.21 336.12-347.04 336.12-601.28 0-389.72-315.94-705.65-705.66-705.65m-6.48 1277.46a2034 2034 0 0 0-236.46 17.29c-175.48-91.13-295.34-274.53-295.34-485.92 0-302.21 244.99-547.21 547.21-547.21s547.2 245 547.2 547.21c0 209.16-117.34 390.91-289.79 483a2034 2034 0 0 0-272.82-14.37" class="cls-ind12"/><path d="M1000 264.13c-351.57 0-636.57 285.01-636.57 636.57 0 235.76 128.16 441.58 318.61 551.59a632.8 632.8 0 0 0 155.28 64.01c5.02 1.32 10.06 2.58 15.13 3.78 6.89 1.64 13.83 3.16 20.81 4.57 6.86 1.39 13.76 2.66 20.69 3.83 13.93 2.33 28.02 4.22 42.25 5.63 5.37.54 10.76 1.01 16.17 1.4a644 644 0 0 0 55.77 1.71c10.63-.13 21.21-.53 31.71-1.18 5.74-.35 11.47-.78 17.16-1.29 15.56-1.38 30.95-3.32 46.16-5.8 5.83-.95 11.63-1.98 17.4-3.08 11.33-2.17 22.56-4.65 33.67-7.41 9.26-2.31 18.44-4.81 27.54-7.52 51.79-15.4 100.81-37.22 146.15-64.52 184.94-111.37 308.64-314.1 308.64-545.72 0-351.56-285-636.57-636.57-636.57m266.34 1173.92a2034 2034 0 0 0-272.82-14.37 2034 2034 0 0 0-236.46 17.29c-175.48-91.13-295.34-274.53-295.34-485.92 0-302.21 244.99-547.21 547.21-547.21s547.2 245 547.2 547.21c0 209.16-117.34 390.91-289.79 483" class="cls-ind13"/><path d="M1266.34 1438.05c-76.72 40.98-164.35 64.21-257.41 64.21-46.61 0-91.85-5.83-135.05-16.79a543 543 0 0 1-116.82-44.5 2034 2034 0 0 1 236.46-17.29c97.94-1.43 189.26 4.31 272.82 14.37" style="fill:#fff"/><path d="m1702.79 1853.79-255.38-73.38 73.38-255.38 255.38 73.38c-54.79 30.33-109.59 60.67-164.38 91 30.33 54.79 60.67 109.59 91 164.38m-1405.58 0 255.38-73.38-73.38-255.38-255.38 73.38c54.79 30.33 109.59 60.67 164.38 91-30.33 54.79-60.67 109.59-91 164.38" style="fill:#c61022"/><path d="M1613.48 1510.89a642 642 0 0 1-3.26 39.83 639.4 639.4 0 0 1-18.85 97.74 639.5 639.5 0 0 1-39.52 105.94c-28.23-7.3-58.54-14.54-90.81-21.41-126.76-27.04-283.77-48.65-463.84-47.68-177.86.97-332.59 23.71-457.19 51.32-26 5.76-50.69 11.74-74 17.77-14.55-71.01-29.11-142.02-43.65-213.03-1.75-8.52-3.49-17.04-5.24-25.56a2037 2037 0 0 1 224.12-56.15c13.35-2.55 26.95-5.02 40.8-7.37 24.25-4.13 49.27-7.93 75.02-11.32a2034 2034 0 0 1 236.46-17.29c97.94-1.43 189.26 4.31 272.82 14.37 21.03 2.53 41.56 5.33 61.59 8.37 14.13 2.14 28 4.39 41.61 6.73 94.57 16.33 176.6 37.36 243.94 57.74" class="cls-ind12"/><path d="M649.18 1627.53c-.23-1.14-.51-2.11-.83-2.91-.33-.79-.7-1.43-1.1-1.91-.41-.48-.87-.82-1.39-1.02-.52-.19-1.04-.24-1.57-.13-9.28 1.85-13.91 2.81-23.17 4.78l-23.04-108.19a2.1 2.1 0 0 0-.54-1.03c-.29-.31-.77-.5-1.44-.59-.68-.09-1.59-.07-2.74.04-1.14.11-2.55.35-4.23.71-1.26.28-2.3.52-3.13.74-.83.21-1.55.45-2.15.72-.6.26-1.09.51-1.48.73s-.71.45-.95.7c-9.03 8.32-17.97 16.73-26.82 25.24-.53.53-.94 1.03-1.23 1.49-.29.47-.47.99-.56 1.54s-.09 1.22-.01 2 .25 1.71.5 2.78c.35 1.46.73 2.63 1.12 3.54q.6 1.35 1.47 1.8c.57.29 1.24.28 2-.03.75-.31 1.71-.94 2.86-1.88 8.94-8.08 13.46-12.09 22.57-20.06 6.94 31.15 13.87 62.3 20.8 93.45-10.67 2.38-15.99 3.6-26.63 6.13-.53.13-.97.38-1.33.77-.36.38-.62.88-.79 1.49-.16.6-.25 1.34-.25 2.21s.14 1.87.41 3c.29 1.2.63 2.19 1.02 2.96s.83 1.37 1.31 1.79.94.69 1.38.82c.45.12.9.13 1.35.02 22.05-5.15 44.15-9.98 66.33-14.5.46-.1.88-.29 1.26-.6s.69-.75.92-1.33q.33-.855.39-2.16c.03-.86-.07-1.9-.31-3.11m89.23-125.49c-.02-.94-.12-2-.28-3.15-.2-1.41-.46-2.56-.8-3.43s-.74-1.56-1.21-2.09c-.47-.52-1.09-.83-1.86-.91-.76-.09-1.64-.06-2.63.08-6.97 1.02-13.94 2.08-20.91 3.16-19.58 3.04-39.12 6.32-58.63 9.84-.63.12-1.17.36-1.6.74-.44.38-.78.9-1.02 1.57-.23.68-.36 1.47-.37 2.4 0 .92.1 1.99.33 3.2.43 2.3 1.09 4.02 1.99 5.17.9 1.16 2.01 1.61 3.33 1.37 21.63-3.9 43.29-7.52 65.01-10.87a2869 2869 0 0 0-32.7 113.59c-.25.9-.36 1.66-.31 2.28.04.62.38 1.08 1.01 1.4.63.31 1.59.46 2.87.43 1.29-.03 3.05-.24 5.29-.62 1.71-.3 3.15-.59 4.32-.89s2.11-.65 2.81-1.07c.71-.42 1.28-.9 1.69-1.47.41-.56.72-1.25.92-2.07 9.81-37.08 20.33-73.92 31.59-110.58.29-.96.53-1.86.74-2.71l.03-.12c.18-.81.3-1.64.35-2.49.05-.89.07-1.81.04-2.76m185.97 95.94c-.08-.87-.41-2-1.02-3.4-6.28-14.55-12.66-29.05-19.15-43.5-3.39-7.54-6.8-15.08-10.26-22.6-6.57-14.39-13.26-28.72-20.07-43.01-.77-1.64-1.55-3.28-2.33-4.92-.33-.69-.77-1.26-1.3-1.71s-1.27-.77-2.21-.96-2.15-.28-3.65-.26c-1.5 0-3.38.11-5.65.29-2.12.16-3.88.35-5.25.56-1.05.16-1.96.36-2.71.59-.23.07-.45.14-.65.22-.86.33-1.51.75-1.93 1.24s-.74 1.1-.97 1.84c-3.36 11.3-6.67 22.61-9.91 33.94-2 6.98-3.98 13.96-5.93 20.96-6.12 21.86-12 43.78-17.67 65.78-.38 1.48-.54 2.65-.47 3.53.06.87.36 1.51.91 1.91.54.39 1.44.61 2.68.64s2.82-.06 4.75-.26c1.85-.19 3.36-.41 4.5-.65 1.15-.25 2.02-.55 2.62-.9.61-.35 1.05-.76 1.34-1.21a5 5 0 0 0 .65-1.58c3.04-12.46 4.59-18.69 7.77-31.14 18.17-1.62 36.34-3.04 54.54-4.28 5.29 11.95 7.9 17.93 13.04 29.91.3.57.62 1.04.94 1.41s.8.65 1.45.84q.96.285 2.82.33c1.23.03 2.88-.01 4.94-.12s3.7-.26 4.93-.45c1.22-.19 2.09-.53 2.6-1.01s.73-1.15.65-2.03m-82.76-38.27c1.68-6.3 3.38-12.59 5.11-18.88 1.88-6.92 3.79-13.84 5.72-20.75 2.3-8.29 4.64-16.58 7.01-24.86.04 0 .06 0 .11-.01 4.61 9.8 9.17 19.61 13.69 29.44 3.58 7.78 7.14 15.57 10.65 23.38 1.23 2.69 2.44 5.38 3.65 8.07-15.33 1.02-30.64 2.22-45.94 3.61m175.92-42.53q.99-1.515.99-4.92c.01-2.2-.29-3.84-.88-4.91s-1.48-1.61-2.67-1.61c-11.4 0-17.1.05-28.5.21-2.17-.48-4.5-.85-6.98-1.1-2.49-.25-5.17-.34-8.03-.28q-7.98.18-14.67 2.58c-4.46 1.59-8.24 3.81-11.35 6.64-3.1 2.84-5.47 6.28-7.12 10.3-1.25 3.06-1.95 6.4-2.13 10.02-.06 1.14-.07 2.31-.02 3.5.18 4.28.94 7.9 2.29 10.87a28.7 28.7 0 0 0 5.33 7.92c-2.43 2.56-4.42 5.43-5.99 8.61s-2.26 6.74-2.1 10.7c.12 2.85 1.02 5.47 2.7 7.87s4.19 4.34 7.52 5.84c-2.08 1.7-3.9 3.41-5.47 5.13s-2.86 3.51-3.89 5.37a21.6 21.6 0 0 0-2.19 5.84 24 24 0 0 0-.53 6.25c.15 3.37 1.01 6.47 2.58 9.29s4 5.2 7.3 7.15c3.29 1.95 7.45 3.44 12.49 4.48 5.04 1.03 11.11 1.46 18.22 1.3 7.38-.16 13.77-1.05 19.18-2.71 5.41-1.65 9.86-3.85 13.36-6.62 3.5-2.78 6.11-5.97 7.82-9.61 1.72-3.63 2.58-7.45 2.59-11.48 0-3.82-.76-7.18-2.29-10.07-1.54-2.88-3.68-5.31-6.43-7.28-2.76-1.97-6.02-3.48-9.79-4.51-3.77-1.04-7.91-1.59-12.42-1.66-9.48-.24-14.23-.33-23.72-.46-3.63-.03-6.56-.75-8.8-2.17-2.23-1.42-3.39-3.26-3.47-5.53q-.105-2.925.99-5.19c.73-1.52 1.69-2.88 2.87-4.09 1.88 1.37 4.51 2.47 7.88 3.32q5.07 1.275 10.65 1.14c5.28-.11 10.07-.91 14.38-2.4 4.32-1.49 8.04-3.59 11.18-6.31.4-.35.79-.7 1.16-1.07 2.58-2.5 4.61-5.46 6.08-8.86 1.47-3.38 2.29-7.2 2.48-11.45.03-.66.04-1.32.04-1.99-.02-3.04-.51-5.98-1.49-8.79q-1.47-4.23-5.13-7.71c5.37-.04 8.05-.05 13.43-.05q1.56 0 2.55-1.5m-65.86 84.65c.75-1.36 1.79-2.79 3.1-4.29 1.32-1.5 3.02-3.1 5.11-4.78 9.35.04 14.02.08 23.36.24 5.41.03 9.71 1.07 12.9 3.08s4.79 4.9 4.82 8.66c.01 2.21-.42 4.32-1.29 6.34-.88 2.02-2.33 3.81-4.36 5.39s-4.7 2.86-8 3.85c-3.31.99-7.43 1.53-12.36 1.64-7.76.17-13.83-.74-18.24-2.78-4.42-2.03-6.71-5.14-6.86-9.36-.04-1.36.06-2.69.31-4s.76-2.64 1.51-3.99m1.64-72.38c.72-2.39 1.86-4.52 3.43-6.39 1.58-1.86 3.58-3.35 6.02-4.45 2.43-1.1 5.32-1.7 8.66-1.77 6.46-.15 11.48 1.44 15.02 4.73 3.55 3.29 5.35 7.92 5.42 13.89.01.59-.01 1.18-.05 1.76-.12 1.91-.47 3.76-1.04 5.55-.76 2.35-1.93 4.42-3.51 6.23s-3.59 3.23-6.03 4.28c-2.43 1.05-5.32 1.61-8.65 1.68-6.2.14-11.06-1.38-14.61-4.58-3.54-3.21-5.42-7.69-5.61-13.46-.02-.47-.02-.95 0-1.41.04-2.09.36-4.11.95-6.06m167.65-19.66c-.3-.37-.75-.72-1.36-1.04-.62-.33-1.48-.57-2.59-.72-1.11-.16-2.5-.28-4.18-.36-1.75-.09-3.16-.11-4.25-.06s-1.98.2-2.69.46c-.72.26-1.2.56-1.46.91-.26.34-.4.77-.43 1.29l-.84 18.68c-.32 7.07-.64 14.15-.95 21.22-.33 7.08-.64 14.16-.96 21.24-4.91 5.29-9.47 9.29-13.71 11.99-4.23 2.69-8.41 3.97-12.56 3.84-3.22-.1-6.01-.78-8.39-2.04a16.45 16.45 0 0 1-5.87-5.21c-1.52-2.21-2.64-4.87-3.35-7.96q-1.065-4.65-.9-12.33l.09-4.41c.15-6.85.3-13.69.44-20.54.19-8.67.38-17.35.56-26.02.01-.52-.12-.96-.39-1.33-.27-.36-.74-.69-1.39-1-.66-.3-1.55-.52-2.66-.64a54 54 0 0 0-4.19-.22c-1.68-.03-3.08 0-4.2.08s-2.03.26-2.73.55c-.7.28-1.18.6-1.42.95-.25.35-.38.79-.39 1.31-.11 9.21-.23 18.41-.35 27.61-.08 6.8-.17 13.6-.26 20.4l-.06 5.11c-.08 6.35.41 11.76 1.46 16.22s2.83 8.37 5.31 11.75c2.49 3.38 5.76 6.09 9.81 8.12 4.06 2.04 9.07 3.13 15.05 3.31 5.12.15 10.21-.94 15.3-3.28s10.32-6.15 15.74-11.42c-.21 4.63-.32 6.94-.53 11.57q-.045.78.24 1.32c.18.37.55.7 1.1.98.55.29 1.31.52 2.27.69.95.18 2.2.3 3.73.38 1.4.07 2.58.07 3.55 0 .97-.08 1.76-.24 2.37-.46.62-.23 1.05-.52 1.3-.86q.375-.51.42-1.29l2.76-51.1c.39-7.2.78-14.4 1.16-21.6.27-4.91.54-9.83.8-14.74.03-.52-.11-.96-.4-1.34Zm85.71 13.67c-.04-.72-.08-1.33-.14-1.82-.06-.5-.19-.95-.39-1.36-.21-.41-.65-.91-1.33-1.5s-1.7-1.29-3.06-2.1-3.02-1.61-4.99-2.37q-2.955-1.155-6.66-2.07c-2.47-.61-4.97-1.03-7.48-1.24-.29-.02-.57-.05-.85-.06-5.37-.4-10.15-.07-14.32.97-4.4 1.1-8.11 2.73-11.13 4.88-.74.53-1.43 1.08-2.09 1.67-2.02 1.79-3.65 3.83-4.89 6.13a23.7 23.7 0 0 0-2.79 9.71c-.19 2.9 0 5.53.6 7.86.19.79.44 1.55.73 2.27 1.14 2.88 2.74 5.4 4.78 7.56s4.39 4.04 7.04 5.63c2.65 1.6 5.37 3.06 8.17 4.39s5.51 2.61 8.14 3.84 4.97 2.59 7.02 4.07 3.66 3.13 4.82 4.93c1.16 1.79 1.63 3.92 1.4 6.38-.22 2.39-.86 4.41-1.92 6.07a11.8 11.8 0 0 1-4.26 3.97c-1.77.98-3.82 1.66-6.14 2.05s-4.88.46-7.69.23c-3.74-.3-7.01-1-9.82-2.09q-4.215-1.635-7.26-3.42-3.06-1.785-5.13-3.24c-2.07-1.455-2.44-1.49-3.18-1.54-.47-.03-.9.06-1.28.26-.39.2-.7.55-.93 1.06-.24.5-.45 1.17-.64 2-.19.84-.33 1.87-.41 3.1-.13 2-.07 3.6.18 4.79.26 1.18.73 2.13 1.42 2.82.69.7 1.81 1.51 3.35 2.43 1.54.91 3.43 1.83 5.67 2.74s4.79 1.71 7.64 2.42 5.86 1.19 9.05 1.45c5.17.42 9.96.21 14.39-.63 4.42-.84 8.31-2.3 11.66-4.39 3.36-2.09 6.06-4.79 8.11-8.11s3.31-7.2 3.76-11.65c.37-3.74.04-7.04-1.01-9.88s-2.56-5.34-4.55-7.49c-1.98-2.14-4.32-4.03-7.02-5.64-2.7-1.62-5.45-3.11-8.25-4.46-2.8-1.36-5.56-2.67-8.28-3.94-2.71-1.27-5.12-2.63-7.2-4.1-2.09-1.47-3.76-3.11-5-4.93-.54-.79-.94-1.65-1.22-2.57-.34-1.2-.46-2.51-.35-3.94.13-1.81.62-3.47 1.47-4.96.84-1.5 2.01-2.76 3.52-3.78s3.4-1.75 5.66-2.19c2.27-.43 4.86-.53 7.77-.28 3.26.28 6.12.89 8.58 1.82 2.46.94 4.59 1.9 6.38 2.88.74.4 1.42.8 2.04 1.17.89.54 1.66 1.05 2.31 1.54 1.1.82 1.97 1.26 2.59 1.32.41.04.8-.04 1.17-.23s.69-.53.99-1.03c.29-.49.53-1.13.71-1.93q.21-.915.36-2.1c.03-.24.05-.49.08-.74.1-1.03.13-1.91.1-2.63m75.66 1.97c-.24-.59-.55-1.03-.94-1.31-.38-.28-.85-.46-1.41-.53-9.61-1.3-14.42-1.93-24.05-3.11.56-4.59.97-7.9 1.39-11.34.34-2.78.7-5.64 1.15-9.32.05-.45-.04-.89-.27-1.31s-.65-.82-1.24-1.18c-.6-.37-1.46-.69-2.56-.95-1.11-.27-2.55-.5-4.31-.71-1.68-.2-3.1-.3-4.24-.3s-2.06.1-2.76.31c-.7.22-1.2.5-1.49.86s-.46.77-.51 1.22c-.84 7.42-1.32 11.52-2.09 18.26-.08.77-.17 1.57-.27 2.42-1.92-.22-3.49-.4-4.96-.56-2.53-.28-4.78-.53-8.08-.88-.55-.06-1.07 0-1.55.18-.47.18-.88.52-1.21 1.04q-.51.78-.9 2.01c-.16.52-.3 1.11-.41 1.79-.07.4-.13.82-.18 1.28-.24 2.32-.11 4.03.4 5.13.52 1.1 1.29 1.7 2.33 1.81 5.22.56 7.83.85 13.05 1.45-1.93 16.95-3.87 33.89-5.8 50.84-.57 5.03-.58 9.45-.04 13.27.54 3.81 1.74 7.05 3.58 9.72 1.84 2.66 4.34 4.79 7.51 6.38 3.16 1.6 7.06 2.68 11.69 3.28 1.51.19 3.05.29 4.59.3 1.55 0 3.02-.05 4.41-.16 1.4-.1 2.65-.31 3.77-.62s1.98-.68 2.58-1.12 1.11-1.19 1.52-2.25c.42-1.05.75-2.51 1.01-4.38.16-1.15.22-2.13.19-2.92-.02-.79-.09-1.42-.19-1.89-.11-.47-.3-.81-.58-1.01s-.58-.33-.91-.37c-.54-.07-1.16-.01-1.86.19-.71.2-1.55.4-2.52.59-.98.2-2.09.36-3.32.49-1.24.13-2.62.1-4.15-.1-4.73-.61-7.82-2.55-9.27-5.84-1.46-3.28-1.83-7.92-1.09-13.9 1.99-16.16 3.97-32.32 5.96-48.48 9.56 1.18 14.34 1.79 23.89 3.09 1.04.14 1.93-.26 2.69-1.21.76-.94 1.3-2.57 1.62-4.88.17-1.22.24-2.26.22-3.11-.03-.86-.16-1.58-.39-2.17m102.97 16.58c-.24-.41-.64-.82-1.21-1.22-.56-.41-1.39-.76-2.48-1.07-1.08-.3-2.45-.61-4.11-.92-1.72-.32-3.13-.53-4.21-.63-1.09-.11-2.01-.07-2.75.09s-1.26.39-1.57.7c-.31.3-.5.71-.6 1.22-3.65 20.07-7.31 40.14-10.97 60.21-5.59 4.58-10.66 7.93-15.24 10.03-4.57 2.09-8.9 2.8-13.01 2.1-3.19-.53-5.87-1.58-8.07-3.16a16.4 16.4 0 0 1-5.12-5.95c-1.22-2.4-1.98-5.18-2.27-8.35-.28-3.16-.03-7.27.77-12.33 2.65-16.79 5.3-33.58 7.95-50.36.08-.51.01-.97-.21-1.37-.22-.39-.64-.79-1.25-1.18s-1.47-.72-2.56-.99-2.47-.53-4.13-.78c-1.66-.26-3.06-.42-4.18-.49s-2.05-.02-2.79.17c-.73.18-1.25.44-1.54.75-.3.32-.48.73-.56 1.25-2.61 17.51-5.21 35.03-7.82 52.54-.94 6.29-1.18 11.71-.73 16.27.44 4.56 1.68 8.68 3.69 12.37 2.02 3.68 4.9 6.8 8.66 9.37 3.75 2.56 8.58 4.32 14.51 5.31 5.07.84 10.27.45 15.65-1.18s11.09-4.69 17.19-9.18c-.83 4.55-1.25 6.83-2.09 11.39-.09.51-.07.96.06 1.34.14.39.46.76.97 1.12q.765.54 2.16.99c.93.31 2.15.6 3.66.88 1.38.26 2.56.42 3.54.47.97.05 1.78.01 2.42-.13s1.11-.37 1.41-.68c.29-.3.49-.71.59-1.22 5.49-28.67 10.97-57.34 16.46-86 .1-.51.03-.97-.22-1.38m83.39 21.97c-.15-.44-.52-.99-1.12-1.67-.59-.67-1.52-1.51-2.76-2.5q-1.875-1.485-4.65-3.03c-1.86-1.03-3.98-2.01-6.36-2.96-2.38-.94-4.81-1.69-7.28-2.24-5.63-1.26-10.71-1.64-15.23-1.16-4.53.49-8.44 1.6-11.74 3.32-3.29 1.73-5.96 3.99-7.99 6.78-2.04 2.8-3.4 5.88-4.09 9.24-.78 3.82-.79 7.22-.04 10.23.75 3 2 5.71 3.74 8.13s3.82 4.6 6.25 6.54c2.42 1.95 4.94 3.77 7.55 5.46q3.915 2.55 7.59 4.92c2.44 1.57 4.59 3.24 6.44 4.98 1.84 1.75 3.22 3.6 4.14 5.54q1.365 2.91.54 6.51c-.54 2.34-1.46 4.26-2.74 5.76s-2.87 2.62-4.77 3.35q-2.85 1.095-6.39 1.2c-2.37.07-4.93-.21-7.69-.81-3.69-.82-6.85-1.95-9.5-3.42-2.65-1.46-4.91-2.92-6.77-4.37-1.87-1.45-3.42-2.76-4.67-3.91-1.24-1.15-2.23-1.8-2.96-1.95-.46-.1-.9-.07-1.31.08-.41.14-.76.45-1.07.92-.3.47-.6 1.1-.9 1.9s-.58 1.8-.82 3.01c-.41 1.97-.56 3.56-.46 4.77.09 1.21.44 2.21 1.03 2.99.59.79 1.59 1.74 3 2.86s3.17 2.28 5.28 3.49c2.11 1.2 4.53 2.35 7.27 3.44 2.75 1.08 5.68 1.97 8.82 2.66 5.1 1.12 9.9 1.57 14.42 1.34s8.58-1.15 12.21-2.77c3.62-1.61 6.68-3.92 9.17-6.93 2.49-3 4.26-6.68 5.3-11.03q1.32-5.49.33-9.93c-.66-2.96-1.84-5.64-3.52-8.03-1.69-2.4-3.77-4.59-6.24-6.56s-5.01-3.82-7.62-5.54-5.18-3.4-7.71-5.03c-2.54-1.62-4.74-3.3-6.62-5.04-1.89-1.74-3.32-3.6-4.31-5.57s-1.23-4.19-.7-6.66c.38-1.78 1.09-3.35 2.13-4.72 1.05-1.37 2.39-2.46 4.02-3.26 1.64-.81 3.62-1.28 5.93-1.4 2.32-.12 4.91.14 7.78.78 3.2.71 5.97 1.71 8.3 2.97q3.48 1.905 5.97 3.72c1.65 1.22 2.97 2.31 3.96 3.28.99.96 1.79 1.52 2.4 1.66.41.1.81.07 1.2-.07s.77-.43 1.12-.88c.36-.45.69-1.05.97-1.82.29-.76.57-1.68.82-2.76.24-1.01.39-1.87.45-2.59.07-.72.1-1.32.11-1.82s-.06-.97-.21-1.4" class="cls-ind13"/></svg>