<svg xmlns="http://www.w3.org/2000/svg" viewBox="0 0 1500 1500" width="300" height="300" fill="none"><defs><style>.cls-6bi1{fill:#f4bf2a}.cls-6bi2{fill:#8672dd}.cls-6bi3{fill:#e8a90c}.cls-6bi4{fill:#80ccdd}.cls-6bi5{fill:#ffce55}.cls-6bi6{fill:#66b4cc}.cls-6bi7{fill:#48a2b7}.cls-6bi8{fill:#8169cc}.cls-6bi9{fill:#6b5da8}</style></defs><path d="M334.96 798.41c-5.22-3.83-9.94-7.69-14.14-11.55-3.09-2.84-5.9-5.69-8.42-8.54-10.72-12.09-16.63-24.56-17.54-37.06-.26-3.46-.16-7.35-.07-11.47.29-12.24.65-27.46-7.53-44.11a77 77 0 0 0-1.76-3.36c-.39-.7-.79-1.39-1.21-2.08-1.55-2.6-3.28-5.12-5.16-7.54-3.32-4.27-7.14-8.27-11.43-11.95-.5-.43-.57-1.19-.16-1.7.41-.52 1.15-.58 1.65-.16 3.55 3.05 6.78 6.3 9.69 9.74 2.99 3.54 5.64 7.29 7.92 11.22.26.44.51.88.76 1.32.63 1.13 1.22 2.27 1.79 3.42 8.44 17.2 8.08 32.76 7.78 45.26-.09 4.06-.18 7.89.06 11.23.87 11.95 6.57 23.94 16.93 35.62 1.89 2.13 3.95 4.27 6.16 6.39 4.13 3.98 8.83 7.94 14.07 11.89.19 1.14.4 2.29.61 3.43m35.47 19.06c-.35.71-.71 1.42-1.11 2.13-3.32-1.76-6.54-3.53-9.64-5.29.4-.73.77-1.45 1.1-2.14 3.11 1.78 6.32 3.54 9.65 5.3" class="cls-6bi6"/><path d="M143.46 549.71c-1.47-23.88 7.21-61.59 36.08-77.04 28.23-15.11 62.35-1.75 80.32 12.65 37.62 30.16 46.81 98.91 19.37 171.1 1.32 2.27 4.37 6.81 10 10.05 4.03 2.32 7.79 3.06 10.14 3.33-2.13 3.16-7.37 10-16.68 13.83a35.5 35.5 0 0 1-13.11 2.64 62.7 62.7 0 0 1-.71-23.64c-72.73-17.05-122.38-63.68-125.41-112.9Z" class="cls-6bi6"/><path d="M268.87 662.62c-.63 3.91-1.05 8.88-.63 14.57.25 3.39.75 6.43 1.34 9.07 3.21-.03 7.91-.5 13.11-2.64 3.29-1.35 6.07-3.08 8.38-4.89 4.24-3.31 6.92-6.9 8.3-8.94-2.35-.27-6.11-1.01-10.14-3.33-5.13-2.96-8.12-6.99-9.61-9.4-.06-.1-.12-.19-.17-.28-72.62-17.09-122.17-63.68-125.21-112.86-1.38-22.37 6.15-56.87 30.83-73.84-1.87.74-3.71 1.6-5.53 2.57-28.87 15.45-37.56 53.16-36.08 77.04 3.04 49.22 52.68 95.86 125.41 112.91Z" class="cls-6bi7"/><path d="M280.36 680.49c2.71-.03 6.48-.37 10.71-1.75 4.24-3.31 6.92-6.9 8.3-8.94-2.35-.27-6.11-1.01-10.14-3.33-5.13-2.96-8.12-6.99-9.61-9.4a62.8 62.8 0 0 0 .75 23.41Z" class="cls-6bi6"/><path d="M270.19 523.59c7.94 16.56 7.79 28.01 9.6 27.85 2.34-.21 6.6-19.77-2.19-35.5-7.39-13.23-21.72-19.66-23.27-17.87-1.36 1.57 7.84 8.8 15.86 25.52" class="cls-6bi4"/><ellipse cx="241.66" cy="491.2" class="cls-6bi6" rx="4.64" ry="4.8" transform="rotate(-3.22 241.327 490.671)"/><ellipse cx="279.31" cy="565.86" class="cls-6bi6" rx="4.64" ry="4.8" transform="rotate(-3.22 278.931 565.255)"/><path d="M345.65 570.61c1.81 3.11 4.14 6.33 7 9.64-.15.42-.3.83-.44 1.24-3.08-3.53-5.6-6.96-7.53-10.28q-.51-.87-.96-1.74c-3.2-6.09-4.47-11.94-3.78-17.4.21-1.65.62-3.48 1.06-5.41 1.3-5.74 2.92-12.88.65-21.51-.15-.58-.32-1.17-.51-1.74a36.6 36.6 0 0 0-2.09-5.14 39.7 39.7 0 0 0-4.25-6.72c-.2-.25-.16-.62.09-.82.24-.2.59-.17.79.08 1.38 1.78 2.6 3.62 3.64 5.53 1.07 1.95 1.96 3.96 2.66 6.03a36 36 0 0 1 .75 2.47c2.35 8.91.69 16.21-.63 22.07-.43 1.91-.84 3.7-1.04 5.3-.63 4.96.45 10.27 3.2 15.83.43.85.89 1.71 1.39 2.57m26.09 28.04a.56.56 0 0 1-.42.24c-.13 0-.26-.03-.37-.12-4.6-3.6-8.71-7.13-12.3-10.58-.42-.91-.8-1.82-1.14-2.72 4 4.02 8.71 8.14 14.12 12.37.25.19.3.56.11.81" class="cls-6bi8"/><path d="M286.81 447.4c1.58-11.4 9.26-28.34 24.33-32.88 14.74-4.43 29.55 5.11 36.65 13.6 14.86 17.79 12.65 51.07-7.15 82.48.41 1.2 1.41 3.62 3.76 5.69a12.4 12.4 0 0 0 4.46 2.53c-1.3 1.29-4.42 4.01-9.18 4.93-2.65.51-4.91.29-6.43 0-.03-1.3.03-2.78.23-4.4.34-2.72 1.01-5.02 1.68-6.81-32.66-14.95-51.62-41.65-48.37-65.14Z" class="cls-6bi8"/><path d="M335.17 512.54c-.67 1.79-1.34 4.08-1.68 6.81-.21 1.62-.26 3.1-.23 4.4 1.52.29 3.78.52 6.43 0 1.68-.32 3.15-.87 4.41-1.51 2.31-1.16 3.92-2.59 4.76-3.42-1.08-.35-2.78-1.06-4.46-2.53-2.14-1.88-3.16-4.07-3.63-5.34-.02-.05-.04-.1-.05-.15-32.6-14.96-51.52-41.63-48.27-65.1 1.48-10.67 8.31-26.22 21.56-31.87q-1.425.255-2.85.69c-15.08 4.53-22.76 21.48-24.33 32.88-3.25 23.49 15.71 50.19 48.37 65.14Z" class="cls-6bi9"/><path d="M338.89 522.05c1.28.24 3.09.44 5.21.19 2.31-1.16 3.92-2.59 4.76-3.42-1.08-.35-2.78-1.06-4.46-2.53-2.14-1.88-3.16-4.07-3.63-5.34a29.6 29.6 0 0 0-1.64 6.7c-.21 1.62-.26 3.1-.23 4.4Z" class="cls-6bi8"/><path d="M349.02 447.14c2.17 8.56 1.01 13.94 1.87 14.04 1.12.12 4.99-8.69 2.35-16.94-2.22-6.94-8.37-11.33-9.27-10.64-.79.61 2.86 4.89 5.05 13.54" class="cls-6bi2"/><ellipse cx="338.65" cy="429.16" class="cls-6bi8" rx="2.31" ry="2.23" transform="rotate(-81.8 338.687 429.168)"/><ellipse cx="349.3" cy="467.93" class="cls-6bi8" rx="2.31" ry="2.23" transform="rotate(-81.8 349.332 467.941)"/><path d="M362.75 889.74c-5.37-.61-10.16-1.56-14.35-2.84-1.14-.35-2.23-.72-3.28-1.12-7.27-2.74-12.58-6.73-15.76-11.85-.89-1.41-1.72-3.09-2.6-4.86-2.61-5.27-5.87-11.83-13.07-17.09-.49-.36-.99-.7-1.5-1.04h-.01c-.33-.21-.65-.42-.98-.61-1.24-.76-2.52-1.44-3.86-2.04h-.01a39.4 39.4 0 0 0-7.55-2.54.596.596 0 0 1-.45-.69c.07-.31.36-.5.67-.43 2.2.5 4.31 1.17 6.32 1.99 2.06.83 4.02 1.82 5.87 2.98.2.13.41.26.61.39.52.34 1.02.69 1.52 1.06 7.44 5.43 10.77 12.13 13.44 17.52.87 1.75 1.69 3.4 2.54 4.77 3.05 4.89 8.15 8.71 15.17 11.36.76.29 1.55.56 2.36.81 4.17 1.36 8.98 2.37 14.39 3.02.17.4.34.81.52 1.21Zm20.67.24c.01.18-.06.34-.17.45-.1.08-.22.14-.36.14-2.8.05-5.51.05-8.11-.02.15-.38.3-.75.45-1.13 2.45.05 4.98.05 7.6 0 .31-.01.58.24.59.56" class="cls-6bi8"/><path d="M222.06 826.3c-5.97-9.83-10.72-27.82-1.89-40.86 8.63-12.75 26.14-14.7 37.01-12.59 22.76 4.42 42.05 31.62 46.53 68.48 1.07.67 3.38 1.92 6.5 2.04 2.23.09 4-.44 5.06-.85-.2 1.82-.9 5.91-4 9.62a17.1 17.1 0 0 1-4.99 4.06c-.84-.99-1.74-2.18-2.6-3.56a30.6 30.6 0 0 1-2.99-6.34c-34.77 9.02-66.33.28-78.63-19.98Z" class="cls-6bi8"/><path d="M300.7 846.28a30.3 30.3 0 0 0 2.99 6.34c.86 1.39 1.76 2.57 2.6 3.56 1.36-.73 3.26-1.99 4.99-4.06 1.1-1.31 1.89-2.67 2.47-3.95 1.06-2.36 1.4-4.48 1.53-5.66-1.06.41-2.83.94-5.06.85-2.85-.11-5.02-1.16-6.19-1.85-.05-.03-.09-.06-.14-.08-34.73 8.98-66.24.24-78.54-20.01-5.59-9.21-10.11-25.58-3.4-38.32-.63.73-1.22 1.51-1.78 2.33-8.83 13.03-4.09 31.03 1.89 40.86 12.31 20.27 43.87 29 78.63 19.98Z" class="cls-6bi9"/><path d="M309.59 851.32c1.15-.62 2.68-1.61 4.17-3.14 1.06-2.36 1.4-4.48 1.53-5.66-1.06.41-2.83.94-5.06.85-2.85-.11-5.02-1.16-6.19-1.85.61 1.79 1.53 3.95 2.96 6.24.86 1.39 1.76 2.57 2.6 3.56Z" class="cls-6bi8"/><path d="M270.15 786.82c7.08 5.27 9.58 10.18 10.32 9.7.95-.61-1.62-9.89-8.87-14.62-6.11-3.98-13.64-3.5-13.9-2.4-.23.97 5.31 1.99 12.46 7.31Z" class="cls-6bi2"/><ellipse cx="250.76" cy="779.42" class="cls-6bi8" rx="2.23" ry="2.31" transform="rotate(-30.95 250.827 779.529)"/><ellipse cx="283.49" cy="802.77" class="cls-6bi8" rx="2.23" ry="2.31" transform="rotate(-30.95 283.566 802.865)"/><path d="M408.96 453.86c-.6 2.19-1.24 4.27-1.85 6.25-.97 3.16-1.88 6.14-2.43 8.8-.77 3.8-.95 7.77-.53 11.9-.56.78-1.1 1.56-1.63 2.35-.75-5.09-.65-9.97.3-14.62.56-2.77 1.49-5.79 2.47-9 .16-.52.32-1.05.48-1.58 2.82-9.23 5.91-20.58 3.32-34.6-.19-1.01-.4-2.01-.64-3.01-.15-.64-.31-1.27-.48-1.9-.65-2.37-1.44-4.69-2.39-7v-.02c-1.65-4.08-3.76-8.05-6.32-11.89a1 1 0 0 1 .25-1.36c.44-.31 1.03-.21 1.32.24a69 69 0 0 1 5.45 9.77c1.56 3.42 2.81 6.93 3.73 10.5.11.4.21.8.3 1.21.24 1.02.46 2.04.65 3.07 2.26 12.2.37 22.35-2 30.89m6.03 55.44c-.68.12-1.36.25-2.04.37-1.72-2.81-3.24-5.56-4.55-8.26-.32-.65-.62-1.3-.91-1.94.65-.12 1.31-.24 1.96-.35.21.46.43.92.66 1.39 1.39 2.86 3.02 5.79 4.88 8.79" class="cls-6bi1"/><path d="M326.42 285.31c4.1-19.02 19.19-46.63 45.18-52.38 25.42-5.62 49.2 12.34 60.09 27.56 22.82 31.88 14.89 87.72-22.46 138.2.53 2.07 1.92 6.29 5.62 10.07 2.64 2.7 5.43 4.11 7.21 4.84-2.36 2.01-7.97 6.21-16.1 7.16-4.54.53-8.32-.14-10.84-.82a51.1 51.1 0 0 1 4.65-18.67c-53.19-29.34-81.79-76.76-73.35-115.96" class="cls-6bi1"/><path d="M399.76 401.26a51.6 51.6 0 0 0-3.7 11.27c-.55 2.71-.83 5.2-.95 7.4 2.52.68 6.31 1.35 10.84.82 2.87-.34 5.43-1.08 7.63-1.98 4.05-1.66 6.93-3.88 8.46-5.18-1.78-.72-4.56-2.13-7.21-4.84-3.37-3.44-4.82-7.26-5.45-9.47-.02-.09-.05-.17-.07-.26-53.09-29.34-81.63-76.71-73.2-115.87 3.84-17.81 17.32-43.16 40.37-51.03-1.62.17-3.26.44-4.9.8-26 5.74-41.09 33.36-45.18 52.38-8.45 39.2 20.16 86.62 73.35 115.96Z" class="cls-6bi3"/><path d="M404.83 417.78c2.13.57 5.15 1.14 8.77.98 4.05-1.66 6.93-3.88 8.46-5.18-1.78-.72-4.56-2.13-7.21-4.84-3.37-3.44-4.82-7.26-5.45-9.47a51 51 0 0 0-4.57 18.5Z" class="cls-6bi1"/><path d="M429.13 293.03c2.57 14.71-.06 23.64 1.39 23.91 1.88.35 9.51-14.02 6.09-28.27-2.88-11.98-12.68-20.16-14.29-19.11-1.41.93 4.21 8.61 6.8 23.47Z" class="cls-6bi5"/><ellipse cx="419.91" cy="260.58" class="cls-6bi5" rx="3.9" ry="3.78" transform="rotate(-77.53 419.88 260.583)"/><ellipse cx="429.21" cy="327.82" class="cls-6bi5" rx="3.9" ry="3.78" transform="rotate(-77.53 429.19 327.82)"/><path d="M1232.31 660.75c-4.3 3.69-8.13 7.69-11.44 11.97h-.01c-1.88 2.43-3.6 4.93-5.15 7.52-.42.69-.82 1.38-1.21 2.08a77 77 0 0 0-1.76 3.36c-8.18 16.65-7.82 31.87-7.53 44.11.1 4.12.19 8.01-.06 11.47-.92 12.5-6.82 24.97-17.55 37.06-2.52 2.85-5.33 5.7-8.42 8.54-4.2 3.86-8.91 7.71-14.13 11.54-.8.59-1.6 1.18-2.43 1.77-10.53 7.49-22.99 14.92-37.32 22.22 0 0 0 .01-.01.01-.85.43-1.71.87-2.58 1.3-.26.13-.54.16-.8.09-.32-.09-.61-.31-.76-.65-.28-.6-.04-1.32.55-1.61 10.73-5.37 20.44-10.82 29.09-16.3a238 238 0 0 0 11.18-7.54c1.26-.9 2.49-1.81 3.69-2.72 5.24-3.94 9.93-7.9 14.06-11.88 2.21-2.12 4.27-4.26 6.16-6.39 10.36-11.68 16.06-23.67 16.93-35.62.25-3.34.16-7.17.06-11.23-.29-12.5-.66-28.06 7.79-45.26.57-1.15 1.16-2.29 1.79-3.42.25-.44.5-.88.76-1.32 2.27-3.92 4.91-7.66 7.91-11.2 2.9-3.45 6.14-6.71 9.7-9.76.49-.42 1.23-.36 1.64.16.42.51.35 1.27-.15 1.7" class="cls-6bi6"/><path d="M1356.54 549.71c1.47-23.88-7.21-61.59-36.08-77.04-28.23-15.11-62.35-1.75-80.32 12.65-37.62 30.16-46.81 98.91-19.37 171.1-1.32 2.27-4.37 6.81-10 10.05a26.3 26.3 0 0 1-10.14 3.33c2.13 3.16 7.37 10 16.68 13.83 5.2 2.13 9.9 2.61 13.11 2.64a62.7 62.7 0 0 0 .71-23.64c72.73-17.05 122.38-63.68 125.41-112.9Z" class="cls-6bi6"/><path d="M1231.13 662.62c.63 3.91 1.05 8.88.63 14.57-.25 3.39-.75 6.43-1.34 9.07-3.21-.03-7.91-.5-13.11-2.64a35.3 35.3 0 0 1-8.38-4.89c-4.24-3.31-6.92-6.9-8.3-8.94 2.35-.27 6.11-1.01 10.14-3.33 5.13-2.96 8.12-6.99 9.61-9.4.06-.1.12-.19.17-.28 72.62-17.09 122.17-63.68 125.21-112.86 1.38-22.37-6.15-56.87-30.83-73.84 1.87.74 3.71 1.6 5.53 2.57 28.87 15.45 37.56 53.16 36.08 77.04-3.04 49.22-52.68 95.86-125.41 112.91Z" class="cls-6bi7"/><path d="M1219.64 680.49c-2.71-.03-6.48-.37-10.71-1.75-4.24-3.31-6.92-6.9-8.3-8.94 2.35-.27 6.11-1.01 10.14-3.33 5.13-2.96 8.12-6.99 9.61-9.4a62.8 62.8 0 0 1-.75 23.41Z" class="cls-6bi6"/><path d="M1229.81 523.59c-7.94 16.56-7.79 28.01-9.6 27.85-2.34-.21-6.6-19.77 2.19-35.5 7.39-13.23 21.72-19.66 23.27-17.87 1.36 1.57-7.84 8.8-15.86 25.52" class="cls-6bi4"/><ellipse cx="1258.34" cy="491.2" class="cls-6bi6" rx="4.8" ry="4.64" transform="rotate(-86.78 1258.403 491.173)"/><ellipse cx="1220.69" cy="565.86" class="cls-6bi6" rx="4.8" ry="4.64" transform="rotate(-86.78 1220.748 565.842)"/><path d="M1141.67 587.88c-2.67 2.58-5.62 5.2-8.85 7.87-.39-.18-.78-.36-1.17-.53 3.28-2.68 6.27-5.31 8.97-7.91.36.19.71.37 1.05.57m23.54-76.33c-1.68 2.15-3.1 4.4-4.26 6.73-.66 1.33-1.23 2.66-1.71 4.03h-.01c-.12.36-.25.72-.37 1.09-.18.58-.35 1.17-.5 1.75-2.27 8.63-.66 15.77.64 21.51.44 1.93.86 3.76 1.06 5.41.69 5.46-.57 11.31-3.78 17.41-.3.57-.62 1.15-.96 1.73-1.93 3.32-4.44 6.75-7.53 10.27-.14-.41-.28-.81-.44-1.22 2.86-3.32 5.19-6.54 7.01-9.65.5-.86.96-1.72 1.38-2.57 2.76-5.55 3.83-10.87 3.21-15.83-.2-1.6-.61-3.39-1.04-5.3-1.33-5.86-2.98-13.16-.64-22.07a36 36 0 0 1 .75-2.47c.7-2.07 1.59-4.09 2.66-6.04 1.05-1.9 2.27-3.74 3.65-5.52a.55.55 0 0 1 .79-.08c.24.2.28.57.09.82" class="cls-6bi8"/><path d="M1213.19 447.4c-1.58-11.4-9.26-28.34-24.33-32.88-14.74-4.43-29.55 5.11-36.65 13.6-14.86 17.79-12.65 51.07 7.15 82.48-.41 1.2-1.41 3.62-3.76 5.69a12.4 12.4 0 0 1-4.46 2.53c1.3 1.29 4.42 4.01 9.18 4.93 2.65.51 4.91.29 6.43 0 .03-1.3-.03-2.78-.23-4.4-.34-2.72-1.01-5.02-1.68-6.81 32.66-14.95 51.62-41.65 48.37-65.14Z" class="cls-6bi8"/><path d="M1164.83 512.54c.67 1.79 1.34 4.08 1.68 6.81.21 1.62.26 3.1.23 4.4-1.52.29-3.78.52-6.43 0-1.68-.32-3.15-.87-4.41-1.51a19 19 0 0 1-4.76-3.42c1.08-.35 2.78-1.06 4.46-2.53 2.14-1.88 3.16-4.07 3.63-5.34.02-.05.04-.1.05-.15 32.6-14.96 51.52-41.63 48.27-65.1-1.48-10.67-8.31-26.22-21.56-31.87q1.425.255 2.85.69c15.08 4.53 22.76 21.48 24.33 32.88 3.25 23.49-15.71 50.19-48.37 65.14Z" class="cls-6bi9"/><path d="M1161.11 522.05c-1.28.24-3.09.44-5.21.19a19 19 0 0 1-4.76-3.42c1.08-.35 2.78-1.06 4.46-2.53 2.14-1.88 3.16-4.07 3.63-5.34a29.6 29.6 0 0 1 1.64 6.7c.21 1.62.26 3.1.23 4.4Z" class="cls-6bi8"/><path d="M1150.98 447.14c-2.17 8.56-1.01 13.94-1.87 14.04-1.12.12-4.99-8.69-2.35-16.94 2.22-6.94 8.37-11.33 9.27-10.64.79.61-2.86 4.89-5.05 13.54" class="cls-6bi2"/><ellipse cx="1161.35" cy="429.16" class="cls-6bi8" rx="2.23" ry="2.31" transform="rotate(-8.2 1160.663 428.99)"/><ellipse cx="1150.7" cy="467.93" class="cls-6bi8" rx="2.23" ry="2.31" transform="rotate(-8.2 1150.035 467.701)"/><path d="M1200.67 845.06c.06.31-.14.62-.45.69a39.7 39.7 0 0 0-7.55 2.54h-.01a37 37 0 0 0-3.85 2.04c-.33.19-.65.4-.98.61h-.01c-.51.34-1.01.68-1.5 1.04-7.21 5.26-10.46 11.82-13.08 17.09-.88 1.77-1.71 3.45-2.59 4.86-3.19 5.12-8.49 9.11-15.76 11.85-1.05.4-2.15.77-3.29 1.12-4.19 1.28-8.98 2.23-14.34 2.84.18-.4.35-.81.52-1.21 5.41-.65 10.21-1.66 14.38-3.01.81-.26 1.6-.53 2.36-.82 7.02-2.65 12.13-6.47 15.17-11.36.86-1.37 1.68-3.02 2.54-4.77 2.68-5.39 6-12.09 13.45-17.52.5-.36 1-.71 1.52-1.05a36.7 36.7 0 0 1 6.48-3.38c2.01-.82 4.12-1.49 6.32-1.99.31-.07.61.12.67.43" class="cls-6bi8"/><path d="M1277.94 826.3c5.97-9.83 10.72-27.82 1.89-40.86-8.63-12.75-26.14-14.7-37.01-12.59-22.76 4.42-42.05 31.62-46.53 68.48-1.07.67-3.38 1.92-6.5 2.04-2.23.09-4-.44-5.06-.85.2 1.82.9 5.91 4 9.62a17.1 17.1 0 0 0 4.99 4.06c.84-.99 1.74-2.18 2.6-3.56 1.45-2.33 2.38-4.54 2.99-6.34 34.77 9.02 66.33.28 78.63-19.98Z" class="cls-6bi8"/><path d="M1199.3 846.28a30.3 30.3 0 0 1-2.99 6.34c-.86 1.39-1.76 2.57-2.6 3.56-1.36-.73-3.26-1.99-4.99-4.06-1.1-1.31-1.89-2.67-2.47-3.95-1.06-2.36-1.4-4.48-1.53-5.66 1.06.41 2.83.94 5.06.85 2.85-.11 5.02-1.16 6.19-1.85.05-.03.09-.06.14-.08 34.73 8.98 66.24.24 78.54-20.01 5.59-9.21 10.11-25.58 3.4-38.32.63.73 1.22 1.51 1.78 2.33 8.83 13.03 4.09 31.03-1.89 40.86-12.31 20.27-43.87 29-78.63 19.98Z" class="cls-6bi9"/><path d="M1190.41 851.32c-1.15-.62-2.68-1.61-4.17-3.14-1.06-2.36-1.4-4.48-1.53-5.66 1.06.41 2.83.94 5.06.85 2.85-.11 5.02-1.16 6.19-1.85-.61 1.79-1.53 3.95-2.96 6.24-.86 1.39-1.76 2.57-2.6 3.56Z" class="cls-6bi8"/><path d="M1229.85 786.82c-7.08 5.27-9.58 10.18-10.32 9.7-.95-.61 1.62-9.89 8.87-14.62 6.11-3.98 13.64-3.5 13.9-2.4.23.97-5.31 1.99-12.46 7.31Z" class="cls-6bi2"/><ellipse cx="1249.24" cy="779.42" class="cls-6bi8" rx="2.31" ry="2.23" transform="rotate(-59.05 1249.123 779.418)"/><ellipse cx="1216.51" cy="802.77" class="cls-6bi8" rx="2.31" ry="2.23" transform="rotate(-59.05 1216.393 802.765)"/><path d="M1089.9 500.51c.86-1.77 1.63-3.53 2.31-5.26-.37 1.72-.79 3.44-1.2 5.15-.31 1.3-.64 2.67-.95 4.04-2.82 5.28-6.41 10.76-10.75 16.42-.33-.69-.59-1.41-.8-2.15 4.77-6.32 8.57-12.4 11.39-18.2m1.01-77.15c-2.59 14 .51 25.34 3.31 34.57.16.54.33 1.08.49 1.61.99 3.21 1.91 6.23 2.48 9 .94 4.65 1.04 9.53.29 14.61-.52-.78-1.07-1.56-1.62-2.34.41-4.12.24-8.1-.54-11.9-.54-2.66-1.45-5.64-2.42-8.8-.61-1.98-1.25-4.06-1.85-6.25-2.37-8.54-4.26-18.69-2.01-30.89.19-1.03.41-2.05.65-3.07.1-.41.2-.81.3-1.21.93-3.57 2.17-7.08 3.74-10.5 1.52-3.34 3.34-6.61 5.44-9.77.3-.45.89-.55 1.32-.24a1 1 0 0 1 .26 1.36c-2.56 3.84-4.67 7.78-6.33 11.86 0 0 .01.01 0 .02 0 0 .01 0 0 0-.94 2.31-1.74 4.65-2.39 7.02a65 65 0 0 0-1.12 4.91Z" class="cls-6bi1"/><path d="M1173.58 285.31c-4.1-19.02-19.19-46.63-45.18-52.38-25.42-5.62-49.2 12.34-60.09 27.56-22.82 31.88-14.89 87.72 22.46 138.2-.53 2.07-1.92 6.29-5.62 10.07-2.64 2.7-5.43 4.11-7.21 4.84 2.36 2.01 7.97 6.21 16.1 7.16 4.54.53 8.32-.14 10.84-.82a51.1 51.1 0 0 0-4.65-18.67c53.19-29.34 81.79-76.76 73.35-115.96" class="cls-6bi1"/><path d="M1100.24 401.26c1.35 2.93 2.77 6.72 3.7 11.27.55 2.71.83 5.2.95 7.4-2.52.68-6.31 1.35-10.84.82-2.87-.34-5.43-1.08-7.63-1.98-4.05-1.66-6.93-3.88-8.46-5.18 1.78-.72 4.56-2.13 7.21-4.84 3.37-3.44 4.82-7.26 5.45-9.47.02-.09.05-.17.07-.26 53.09-29.34 81.63-76.71 73.2-115.87-3.84-17.81-17.32-43.16-40.37-51.03 1.62.17 3.26.44 4.9.8 26 5.74 41.09 33.36 45.18 52.38 8.45 39.2-20.16 86.62-73.35 115.96Z" class="cls-6bi3"/><path d="M1095.17 417.78c-2.13.57-5.15 1.14-8.77.98-4.05-1.66-6.93-3.88-8.46-5.18 1.78-.72 4.56-2.13 7.21-4.84 3.37-3.44 4.82-7.26 5.45-9.47a51 51 0 0 1 4.57 18.5Z" class="cls-6bi1"/><path d="M1070.87 293.03c-2.57 14.71.06 23.64-1.39 23.91-1.88.35-9.51-14.02-6.09-28.27 2.88-11.98 12.68-20.16 14.29-19.11 1.41.93-4.21 8.61-6.8 23.47Z" class="cls-6bi5"/><ellipse cx="1080.09" cy="260.58" class="cls-6bi5" rx="3.78" ry="3.9" transform="rotate(-12.47 1080.366 260.627)"/><ellipse cx="1070.79" cy="327.82" class="cls-6bi5" rx="3.78" ry="3.9" transform="rotate(-12.47 1071.073 327.875)"/><path d="M1156.28 569.48c-.17-.48-.36-.96-.54-1.44a451 451 0 0 0-5.91-14.71c-14.48-34.24-33.1-66.16-55.61-95.4-1.05-1.37-2.1-2.72-3.17-4.07a438 438 0 0 0-34.21-38.46c-39.85-39.85-86.26-71.13-137.93-92.99-53.5-22.63-110.33-34.1-168.91-34.1s-115.4 11.47-168.91 34.1c-51.67 21.86-98.08 53.14-137.93 92.99a437 437 0 0 0-34.2 38.46 205 205 0 0 0-3.19 4.1c-22.51 29.23-41.12 61.14-55.6 95.37a451 451 0 0 0-5.91 14.71c-.18.48-.36.95-.54 1.43-18.36 48.74-27.65 100.05-27.65 152.77 0 20.52 1.41 40.83 4.21 60.85l.54 3.77a428.8 428.8 0 0 0 27.02 98.65c.18.47.37.93.56 1.39.58 1.42 1.17 2.84 1.77 4.25 21.86 51.67 53.14 98.08 92.99 137.93s86.26 71.14 137.93 92.99c53.51 22.63 110.33 34.11 168.91 34.11s115.41-11.48 168.91-34.11c51.67-21.85 98.08-53.14 137.93-92.99s71.14-86.26 92.99-137.93c.6-1.41 1.19-2.83 1.77-4.25.19-.46.38-.92.56-1.38a429 429 0 0 0 27.02-98.66c.19-1.26.37-2.51.54-3.77 2.81-20.02 4.22-40.33 4.22-60.85 0-52.72-9.3-104.03-27.66-152.76m9.38 225.49c-.19 1.14-.4 2.29-.61 3.43a417.7 417.7 0 0 1-27.27 90.13c-.17.4-.34.81-.52 1.21-64.94 149.57-214.08 254.44-387.26 254.44s-322.31-104.87-387.25-254.44c-.18-.4-.35-.81-.52-1.21a417.8 417.8 0 0 1-27.27-90.12c-.21-1.14-.42-2.29-.61-3.43-4.13-23.64-6.28-47.94-6.28-72.74 0-49.33 8.51-96.71 24.14-140.75.14-.41.29-.82.44-1.23 12.43-34.69 29.27-67.27 49.87-97.1.53-.79 1.07-1.57 1.63-2.35C480.5 371.76 607.06 300.31 750 300.31s269.51 71.45 345.86 180.5c.55.78 1.1 1.56 1.62 2.34 20.6 29.83 37.45 62.43 49.87 97.11.16.41.3.81.44 1.22 15.64 44.04 24.15 91.43 24.15 140.76 0 24.8-2.15 49.1-6.28 72.73" class="cls-6bi6"/><path d="M1155.24 756.78c7.42-5.91 15.1-12.03 15.38-20.3s-6.96-14.89-13.97-21.29c-4.5-4.11-10.09-9.22-10.24-12.33-.15-3.25 5-8.95 9.13-13.54 6.3-6.97 12.81-14.19 11.75-22.26-1.07-8.19-9.29-13.52-17.25-18.68-5.12-3.32-11.49-7.45-12.15-10.52-.69-3.15 3.44-9.62 6.76-14.81 5.06-7.93 10.3-16.14 7.91-23.94-1.54-5.04-5.77-8.45-10.89-11.23-.34-.2-.69-.38-1.05-.57-2.59-1.34-5.38-2.55-8.14-3.74-5.61-2.43-12.59-5.46-13.76-8.39-1.19-2.98 1.8-10.02 4.21-15.69 3.68-8.67 7.49-17.64 3.84-24.96-3.67-7.35-13.16-9.71-22.34-11.98-5.95-1.47-13.34-3.31-14.99-6.02-1.3-2.14-.49-7.15.62-12.09.31-1.37.64-2.74.95-4.04.41-1.71.83-3.43 1.2-5.15 1.61-7.46 2.39-14.75-1.52-20.14-4.83-6.64-14.56-7.4-23.98-8.13-6.11-.48-13.72-1.08-15.8-3.49-2.07-2.41-1.53-10.03-1.09-16.15.68-9.42 1.38-19.15-4.46-24.91s-15.56-4.92-24.96-4.1c-6.12.53-13.73 1.19-16.18-.86-2.44-2.04-3.14-9.63-3.71-15.73-.87-9.41-1.78-19.14-8.5-23.87-6.69-4.71-16.14-2.29-25.27.05-5.95 1.53-13.36 3.43-16.12 1.81-2.73-1.6-4.67-8.96-6.24-14.88-2.41-9.15-4.91-18.61-12.33-22.17-7.36-3.54-16.27.41-24.88 4.23-5.63 2.49-12.64 5.59-15.64 4.45-2.94-1.12-6.07-8.05-8.59-13.62-3.9-8.63-7.93-17.56-15.86-19.85-7.83-2.26-15.95 3.1-23.8 8.29-5.14 3.4-11.55 7.63-14.72 6.99-3.07-.62-7.29-6.92-10.69-11.98-5.28-7.88-10.74-16.03-18.96-16.98-8.06-.93-15.18 5.67-22.05 12.06-4.53 4.21-10.16 9.46-13.43 9.34-3.26-.11-8.53-5.72-12.76-10.23-6.43-6.84-13.07-13.91-21.2-13.52-8.26.4-14.26 8.15-20.06 15.66-3.73 4.82-8.37 10.82-11.47 11.23-3.21.42-9.31-4.24-14.22-7.98-7.48-5.7-15.21-11.6-23.18-9.87-8.06 1.75-12.69 10.38-17.17 18.73-2.89 5.39-6.48 12.08-9.49 13-3.07.95-9.85-2.63-15.3-5.49-8.33-4.39-16.95-8.93-24.54-5.9-7.64 3.05-10.77 12.32-13.8 21.28-1.96 5.8-4.4 13.02-7.23 14.43-2.86 1.43-10.13-.97-15.96-2.9-8.96-2.95-18.22-6.01-25.21-1.76-7.02 4.26-8.59 13.91-10.09 23.24-.98 6.05-2.2 13.58-4.77 15.44-2.58 1.88-10.13.71-16.2-.23-9.32-1.45-18.97-2.95-25.18 2.4-6.22 5.35-6.18 15.11-6.14 24.55.03 6.14.06 13.77-2.18 16.04-2.23 2.27-9.86 2.35-16 2.41-9.44.1-19.21.2-24.47 6.5-5.25 6.29-3.61 15.9-2.03 25.2 1.03 6.06 2.31 13.59.47 16.21-1.82 2.59-9.33 3.92-15.36 4.99-.15.03-.29.05-.44.08-.65.11-1.31.23-1.96.35-8.52 1.54-16.89 3.53-20.7 10.01-4.14 7.05-.94 16.26 2.15 25.17 2.02 5.81 4.53 13.04 3.14 15.93-1.37 2.85-8.54 5.39-14.3 7.44-8.92 3.17-18.15 6.44-21.09 14.14-1.61 4.22-.9 8.73.82 13.31.34.9.72 1.81 1.14 2.72 1.25 2.8 2.79 5.61 4.32 8.4 2.96 5.4 6.64 12.13 5.74 15.23-.87 3.01-7.5 6.71-12.84 9.67-8.28 4.61-16.85 9.38-18.47 17.48-1.6 7.98 4.41 15.62 10.21 23 3.82 4.86 8.58 10.9 8.2 14.12-.36 3.1-6.28 7.82-11.05 11.61-7.42 5.92-15.1 12.03-15.38 20.3s6.97 14.9 13.98 21.3c4.49 4.11 10.09 9.22 10.23 12.33.16 3.24-4.99 8.95-9.13 13.53-6.3 6.98-12.81 14.19-11.75 22.26 1.07 8.19 9.3 13.52 17.25 18.68 5.12 3.32 11.49 7.46 12.16 10.52.29 1.36-.31 3.33-1.34 5.55-.33.69-.7 1.41-1.1 2.14-1.28 2.36-2.88 4.86-4.32 7.12-5.07 7.94-10.3 16.14-7.92 23.95 2.41 7.88 11.4 11.77 20.08 15.53 5.61 2.44 12.6 5.46 13.76 8.39 1.2 2.98-1.8 10.03-4.2 15.69-.63 1.47-1.26 2.95-1.85 4.43-.15.38-.3.75-.45 1.13-2.67 6.86-4.42 13.64-1.54 19.4 3.67 7.36 13.16 9.71 22.33 11.98 5.95 1.48 13.35 3.31 14.99 6.02 1.66 2.73-.13 10.16-1.57 16.14-2.2 9.17-4.49 18.65.33 25.28 4.82 6.64 14.56 7.4 23.97 8.14 6.12.48 13.73 1.07 15.8 3.48 2.08 2.42 1.53 10.03 1.09 16.16-.68 9.41-1.38 19.15 4.46 24.91 5.84 5.75 15.56 4.91 24.97 4.1 6.11-.53 13.73-1.19 16.17.85s3.15 9.63 3.71 15.74c.88 9.41 1.78 19.14 8.5 23.86 6.69 4.72 16.14 2.29 25.27-.05 5.96-1.53 13.37-3.43 16.13-1.81 2.72 1.6 4.67 8.97 6.23 14.88 2.42 9.15 4.91 18.61 12.33 22.17 7.37 3.54 16.27-.41 24.89-4.22 5.62-2.5 12.63-5.6 15.64-4.45 2.93 1.12 6.07 8.05 8.58 13.61 3.9 8.63 7.94 17.56 15.86 19.85 7.84 2.26 15.95-3.1 23.8-8.28 5.15-3.4 11.55-7.63 14.73-7 3.06.62 7.29 6.92 10.68 11.98 5.28 7.88 10.75 16.03 18.96 16.98 8.07.94 15.18-5.67 22.06-12.06 4.53-4.21 10.2-9.45 13.43-9.34 3.25.12 8.52 5.72 12.76 10.23 6.26 6.66 12.72 13.54 20.55 13.54.22 0 .43-.01.64-.02 8.26-.39 14.26-8.15 20.07-15.66 3.72-4.82 8.36-10.82 11.46-11.22 3.21-.42 9.32 4.23 14.22 7.97 7.48 5.7 15.22 11.6 23.19 9.87 8.06-1.75 12.69-10.38 17.16-18.73 2.89-5.38 6.48-12.08 9.49-13 3.08-.94 9.86 2.63 15.3 5.5 8.34 4.39 16.95 8.93 24.54 5.9 7.65-3.06 10.78-12.32 13.81-21.29 1.95-5.8 4.39-13.01 7.22-14.42 2.87-1.43 10.13.96 15.97 2.89 8.95 2.96 18.21 6.01 25.21 1.76 7.02-4.26 8.58-13.91 10.09-23.23.98-6.05 2.2-13.58 4.76-15.45 2.59-1.88 10.14-.7 16.2.24 9.33 1.45 18.97 2.94 25.19-2.4 6.21-5.35 6.17-15.11 6.13-24.56-.02-6.13-.05-13.77 2.18-16.04 2.24-2.26 9.87-2.34 16-2.41 9.45-.09 19.21-.19 24.47-6.49 5.26-6.29 3.62-15.91 2.03-25.21-1.03-6.05-2.31-13.59-.47-16.2 1.83-2.59 9.33-3.92 15.36-4.99 9.31-1.65 18.94-3.35 23.1-10.45 4.14-7.05.95-16.26-2.14-25.16-2.02-5.81-4.53-13.04-3.14-15.94 1.36-2.84 8.54-5.39 14.3-7.43 8.92-3.17 18.14-6.45 21.08-14.15 2.91-7.63-1.76-16.17-6.28-24.42-2.95-5.41-6.63-12.14-5.74-15.24.87-3.01 7.51-6.7 12.84-9.67 8.28-4.61 16.85-9.38 18.48-17.47.36-1.8.33-3.59.01-5.35-.15-.83-.37-1.66-.65-2.48-1.72-5.19-5.7-10.24-9.58-15.18-3.82-4.85-8.57-10.89-8.2-14.12.36-3.09 6.29-7.81 11.05-11.61m-11.5 32.53c3.67 4.66 8.68 11.04 8.08 14.04-.12.6-.48 1.23-1.03 1.88-2.29 2.74-7.78 5.79-12.01 8.15-4.89 2.73-9.89 5.5-13.48 9.01 0 0 0 .01-.01.01-2.14 2.1-3.77 4.45-4.57 7.21-2.15 7.45 2.33 15.64 6.66 23.56 2.85 5.21 6.75 12.35 5.65 15.23-1.12 2.95-8.85 5.7-14.48 7.7-8.46 3-17.21 6.11-20.54 13.04-3.35 6.98-.29 15.79 2.66 24.3 1.95 5.62 4.62 13.32 3.05 16-1.59 2.71-9.64 4.14-15.53 5.18-8.85 1.56-18 3.19-22.43 9.48-4.45 6.33-2.89 15.51-1.38 24.39 1 5.87 2.37 13.91.37 16.3-2.01 2.41-10.18 2.49-16.14 2.56-9 .09-18.3.19-23.72 5.68-5.42 5.5-5.38 14.81-5.35 23.81.03 5.96.06 14.13-2.31 16.17-2.37 2.03-10.43.78-16.32-.13-8.9-1.38-18.1-2.81-24.35 1.73-6.24 4.53-7.72 13.71-9.16 22.59-.95 5.89-2.26 13.96-4.94 15.59-2.66 1.62-10.4-.94-16.05-2.8-8.56-2.83-17.41-5.75-24.33-2.3-6.89 3.44-9.86 12.24-12.74 20.75-1.91 5.67-4.53 13.42-7.46 14.59-2.87 1.15-10.07-2.64-15.33-5.41-7.98-4.21-16.24-8.56-23.65-6.29-7.34 2.25-11.72 10.42-15.96 18.32-2.83 5.28-6.71 12.51-9.8 13.18-3.01.65-9.47-4.27-14.19-7.87-7.18-5.48-14.61-11.14-22.32-10.13-7.59.99-13.26 8.32-18.74 15.41-3.67 4.74-8.7 11.24-11.88 11.4-3.05.14-8.6-5.76-12.66-10.07-6.2-6.6-12.61-13.43-20.4-13.69-.16 0-.31-.01-.47-.01-7.6 0-14.32 6.25-20.82 12.29-4.33 4.02-10.27 9.54-13.3 9.19-3.17-.37-7.75-7.2-11.09-12.18-4.99-7.44-10.15-15.13-17.66-16.64-7.62-1.53-15.41 3.62-22.95 8.6-4.95 3.27-11.73 7.75-14.68 6.89-3.05-.88-6.43-8.35-8.89-13.81-3.7-8.17-7.52-16.62-14.69-19.36-7.24-2.76-15.77 1.02-24.02 4.67-5.43 2.41-12.87 5.71-15.67 4.37-2.84-1.37-4.93-9.28-6.45-15.06-2.3-8.69-4.67-17.67-11.3-21.56-6.68-3.92-15.7-1.6-24.43.64-5.77 1.48-13.66 3.5-16.21 1.71-2.56-1.81-3.32-9.95-3.87-15.89-.84-8.96-1.7-18.22-7.61-23.16-5.93-4.95-15.21-4.15-24.18-3.37-5.94.51-14.07 1.21-16.29-.98-2.23-2.19-1.65-10.34-1.22-16.29.65-8.97 1.32-18.26-3.72-24.11-5.03-5.85-14.31-6.58-23.28-7.28-5.95-.46-14.09-1.1-15.93-3.64-1.84-2.52.07-10.45 1.47-16.24 2.11-8.76 4.29-17.81.28-24.42-4-6.58-13.02-8.82-21.75-10.98-5.8-1.44-13.74-3.41-15.14-6.22-1.39-2.78 1.8-10.28 4.12-15.75 3.53-8.3 7.17-16.88 4.3-24.07-2.85-7.14-11.37-10.83-19.6-14.4-5.49-2.38-13.01-5.64-13.94-8.66-.9-2.95 3.48-9.8 6.67-14.81 1.63-2.56 3.29-5.15 4.69-7.75.4-.71.76-1.42 1.11-2.13 2.14-4.42 3.38-8.85 2.44-13.18-1.63-7.49-9.4-12.54-16.92-17.41-5.03-3.27-11.92-7.74-12.33-10.89-.4-3.04 5.04-9.06 9.01-13.46 6.06-6.71 12.32-13.65 11.95-21.43-.36-7.64-7.2-13.89-13.8-19.92-4.44-4.05-10.51-9.6-10.4-12.81.11-3.2 6.54-8.32 11.24-12.06 7-5.58 14.24-11.35 15.12-18.95.9-7.73-4.89-15.08-10.48-22.19-3.66-4.66-8.68-11.03-8.08-14.04.63-3.12 7.8-7.11 13.04-10.02 7.83-4.36 15.93-8.87 18.06-16.24 2.15-7.45-2.33-15.64-6.66-23.56-2.85-5.21-6.75-12.34-5.65-15.23 1.13-2.95 8.85-5.69 14.49-7.7 8.46-3 17.2-6.11 20.53-13.04 3.35-6.98.3-15.78-2.66-24.3-1.95-5.62-4.62-13.32-3.05-15.99 1.59-2.72 9.65-4.14 15.53-5.18.38-.07.76-.13 1.14-.2.68-.12 1.36-.25 2.04-.37 7.79-1.46 15.35-3.37 19.26-8.92 4.45-6.32 2.89-15.5 1.37-24.39-1-5.87-2.36-13.91-.37-16.3 2.01-2.4 10.18-2.49 16.15-2.55 8.99-.09 18.3-.19 23.72-5.69 5.41-5.5 5.38-14.8 5.34-23.81-.02-5.96-.06-14.12 2.31-16.16s10.43-.79 16.32.13c8.9 1.38 18.1 2.8 24.35-1.74 6.24-4.53 7.73-13.71 9.16-22.59.96-5.89 2.26-13.96 4.95-15.59 2.66-1.61 10.4.94 16.05 2.81 8.56 2.82 17.4 5.75 24.33 2.29 6.88-3.44 9.85-12.24 12.73-20.75 1.91-5.66 4.53-13.42 7.46-14.59 2.88-1.15 10.08 2.65 15.33 5.42 7.99 4.2 16.24 8.55 23.65 6.28 7.34-2.24 11.73-10.42 15.97-18.32 2.83-5.28 6.7-12.51 9.8-13.18 3.01-.65 9.47 4.28 14.18 7.87 7.19 5.48 14.62 11.15 22.32 10.13 7.6-.99 13.26-8.32 18.74-15.4 3.67-4.75 8.7-11.25 11.89-11.4 3.08-.15 8.6 5.76 12.65 10.07 6.2 6.6 12.62 13.42 20.41 13.68 7.79.27 14.65-6.11 21.28-12.27 4.34-4.03 10.27-9.54 13.31-9.19 3.17.37 7.74 7.19 11.09 12.18 4.98 7.44 10.14 15.13 17.65 16.63 7.62 1.53 15.42-3.62 22.96-8.6 4.94-3.26 11.72-7.74 14.68-6.89 3.04.88 6.42 8.36 8.89 13.81 3.69 8.18 7.51 16.63 14.69 19.36 7.24 2.77 15.77-1.01 24.01-4.67 5.44-2.41 12.88-5.7 15.67-4.36 2.84 1.36 4.93 9.28 6.46 15.06 2.29 8.68 4.66 17.66 11.3 21.56 6.67 3.91 15.7 1.6 24.43-.64 5.76-1.48 13.66-3.51 16.2-1.72 2.57 1.81 3.32 9.95 3.88 15.89.83 8.96 1.69 18.22 7.61 23.16 5.93 4.96 15.2 4.15 24.18 3.38 5.93-.52 14.06-1.22 16.29.97 2.23 2.2 1.64 10.34 1.21 16.29-.64 8.98-1.31 18.26 3.72 24.12 5.04 5.84 14.31 6.57 23.28 7.27 5.95.47 14.1 1.1 15.94 3.64 1.83 2.52-.08 10.45-1.47 16.24-1.75 7.28-3.56 14.77-1.81 20.89.21.74.47 1.46.8 2.15.21.47.46.93.73 1.38 4 6.59 13.02 8.82 21.74 10.99 5.8 1.43 13.74 3.4 15.15 6.22 1.38 2.77-1.8 10.27-4.13 15.74-3.52 8.3-7.17 16.88-4.3 24.07 2.86 7.14 11.37 10.83 19.61 14.4 1.12.49 2.33 1.01 3.54 1.56.39.17.78.35 1.17.53 4.35 2.03 8.55 4.36 9.22 6.57.9 2.95-3.47 9.81-6.67 14.81-4.85 7.61-9.88 15.48-8.23 23.06 1.62 7.5 9.4 12.54 16.92 17.42 5.02 3.26 11.91 7.73 12.33 10.88.39 3.04-5.04 9.06-9.01 13.46-6.06 6.72-12.33 13.66-11.96 21.43.37 7.65 7.2 13.89 13.81 19.93 4.39 4.01 10.4 9.5 10.4 12.71v.09c-.11 3.2-6.55 8.33-11.24 12.07-7 5.58-14.24 11.34-15.12 18.94-.9 7.73 4.88 15.08 10.47 22.19M583.26 182.83c-3.43.95-5.14 1.43-8.56 2.42l11.58 39.94a748 748 0 0 0-53.34 18.28c-5.12-12.88-10.24-25.76-15.35-38.64-3.4 1.35-5.09 2.04-8.47 3.43 11.46 27.67 22.92 55.34 34.39 83.01 2.89-1.2 4.34-1.79 7.25-2.94-5.07-12.77-10.14-25.54-15.22-38.31a744 744 0 0 1 52.7-18.06c3.83 13.19 7.65 26.39 11.48 39.58 2.93-.85 4.4-1.26 7.35-2.07-7.94-28.88-15.87-57.76-23.81-86.64m75.23-15.79c-1.9.28-2.84.42-4.74.71-9.17 31.53-16.62 63.3-22.34 95.64 3.27-.74 4.9-1.09 8.17-1.78 1.7-9.66 3.61-19.31 5.72-28.9 13.3-2.5 26.7-4.52 40.15-6.06 4.83 8.53 9.49 17.19 13.96 25.92 3.31-.31 4.97-.45 8.29-.71-14.88-29.22-31.25-57.39-49.21-84.82m-11.87 58.38c3.49-15.07 7.29-30.01 11.41-44.92 8.29 13.04 16.27 26.2 24 39.57-11.85 1.42-23.67 3.2-35.41 5.35m140.98-55.78c-5.38-5.72-13.71-8.93-24.8-9.16-11.01-.12-21.96-.06-32.97.19l2.88 89.8c3.02-.09 4.53-.13 7.56-.19l-.63-34.88c8.34-.15 12.51-.15 20.86 0 10.38.19 18.42-2.08 24.35-7.08 6.03-5.08 9.44-11.3 10-18.82.56-7.44-1.83-14.09-7.25-19.86m-1.3 19.16c-.36 5.99-2.93 10.77-7.57 14.44-4.63 3.67-10.58 5.37-17.97 5.23-8.5-.15-12.75-.15-21.24 0-.25-13.66-.5-27.31-.74-40.97 9.72-.17 14.58-.16 24.31.04 7.43.16 13.31 2.29 17.51 6.27 4.2 3.99 6.06 9 5.7 14.99m98-5.62c-4.44-6.5-12.21-10.98-23.17-12.94a947 947 0 0 0-32.68-4.98c-3.73 29.71-7.46 59.43-11.2 89.14 3.01.38 4.51.58 7.51 1 1.62-11.52 3.23-23.04 4.84-34.56 8.28 1.16 12.41 1.82 20.66 3.28 10.26 1.81 18.59.85 25.27-3.16 6.77-4.06 11.14-9.67 12.87-17.01 1.71-7.26.38-14.21-4.1-20.77m-4.28 18.73c-1.3 5.86-4.59 10.18-9.77 13.07s-11.35 3.63-18.65 2.34c-8.4-1.49-12.61-2.16-21.04-3.34 1.89-13.53 3.78-27.05 5.68-40.58 9.65 1.35 14.46 2.12 24.07 3.85 7.35 1.33 12.85 4.36 16.39 8.96 3.55 4.59 4.61 9.84 3.32 15.7m101.71 2.65a829 829 0 0 0-44.56 33.99c-4.22-18.19-9-36.14-14.39-54.02-3.76-1.08-5.64-1.6-9.42-2.61 6.7 20.43 12.57 40.97 17.65 61.87-3.74 11.27-7.47 22.55-11.21 33.82 2.91.96 4.36 1.45 7.25 2.46 3.9-11.22 7.8-22.43 11.69-33.65a775 775 0 0 1 52.14-38.16c-3.65-1.51-5.48-2.25-9.15-3.7" class="cls-6bi8"/><path d="M506.65 1153.87c-1.25-5.27-3.44-9.66-6.55-13.2s-6.61-6.4-10.52-8.59c-3.91-2.2-7.57-3.93-10.99-5.17-7.94-2.9-15.08-4.33-21.5-4.23s-12.72.48-18.91 1.15c-.3.82-.32 1.87-.03 3.17.27 1.29.7 2.45 1.26 3.47s1.15 1.66 1.76 1.91c.71.3 2.1.09 4.16-.63s4.81-1.36 8.25-1.94c3.42-.58 7.39-.62 11.9-.14-4.97 6.02-10.39 12.97-16.3 20.83-6 8-11.97 16.02-17.91 24.05-5.76 7.79-11.51 15.59-17.19 23.44-5.4 7.46-10.14 13.93-14.17 19.44-4.03 5.52-6.91 9.52-8.63 11.88-1.3 1.77-2.68 3.61-3.99 5.48-1.32 1.87-2.27 3.54-2.83 5.03-1.09 2.84-.95 5.74.43 8.7 1.39 2.97 3.67 5.13 6.84 6.46 6.66-9.71 13.21-19.49 19.55-29.37 6.36-9.92 12.71-19.93 19.09-29.87 1.86.74 3.87 1.49 6.04 2.26 2.16.76 4.28 1.54 6.37 2.34 4.73 1.8 9.46 3.86 14.21 6.18 4.74 2.32 8.95 5.09 12.65 8.34q5.55 4.86 7.98 11.25c1.62 4.27 1.67 9.2.1 14.79-1.76 6.3-5.15 11.82-10.25 16.49s-11.53 8.24-19.3 10.62c-7.78 2.37-16.56 3.19-26.09 2.59-9.75-.62-20.81-3.53-29.72-7.35-6.06-2.6-10.15-4.66-12.04-6.19-1.89-1.52-3.29-2.5-4.23-2.91-.82-.36-1.37-.21-1.62.47-2.23 5.9-2.07 11.02.41 15.1 2.48 4.07 7.16 7.59 14.02 10.42 5.53 2.29 12.09 4.04 19.63 5.17 7.54 1.14 15.39 1.36 23.46.64 8.08-.72 15.82-2.55 23.17-5.45 7.35-2.91 13.72-7.12 19.14-12.57 5.41-5.46 9.18-12.36 11.41-20.64.87-3.23 1.27-6.79 1.21-10.69-.06-3.89-.97-7.9-2.7-12.03-1.72-4.12-4.73-8.18-8.98-12.2-4.26-4.01-10.1-7.77-17.53-11.37 4.48.54 9.16.6 14 .19s9.53-1.61 14.02-3.58c4.5-1.98 8.5-4.98 12-8.98 3.5-4.01 6.11-9.32 7.89-15.92 1.97-7.3 2.29-13.58 1.03-18.84m-11.03 13.86c-2.14 7.55-5.35 13.38-9.7 17.45-4.36 4.06-9.44 6.85-15.23 8.29-5.79 1.45-11.9 1.85-18.29 1.19a83.7 83.7 0 0 1-18.88-4.22c6.85-10.52 13.73-21.13 20.73-31.44 6.37-9.36 13.01-18.72 20.19-27.59l1.14.42.99.36c4.55 1.66 8.61 3.9 12.19 6.74 3.59 2.85 6.11 6.6 7.59 11.28 1.47 4.69 1.25 10.53-.73 17.52m58.7 106.7c-5.72 7.91-11.5 16.71-19.73 22.21-5.64 3.76-10.7 5.08-14.83 4.04-2.92-.73-4.9-2.1-5.92-4.09s-.97-5.47.17-10.44c1.1-4.82 3.2-9.69 6.25-14.61 3.04-4.93 6.3-9.54 9.76-13.85 3.45-4.31 6.46-8.19 9.05-11.61 2.59-3.41 4.05-5.99 4.41-7.7s.22-3.09-.39-4.13c-.61-1.05-1.49-1.7-2.61-1.98-2.38-.58-5.11.36-8.22 2.8-3.12 2.44-6.28 5.79-9.51 10.06s-6.31 8.91-9.22 13.92c-2.92 5.01-5.49 9.85-7.68 14.52-2.2 4.68-3.7 8.64-4.49 11.89-1.2 4.95-1.03 9.53.57 13.73 1.59 4.19 4.91 6.97 9.93 8.27 7.36 1.9 15.18.28 23.05-4.92 9.17-6.06 15.94-15.36 20.88-25.12-.59-1.19-.88-1.79-1.47-2.99m12.11-74.5c-.95-1.25-2.3-2.07-4.03-2.46-2.72-.6-5.66-.08-8.85 1.56s-5.13 4.02-5.79 7.15c-.54 2.57-.19 4.64 1.04 6.2 1.24 1.57 2.81 2.57 4.7 3 2.76.64 5.61-.09 8.5-2.22 2.89-2.12 4.57-4.55 5.09-7.27.51-2.72.29-4.71-.66-5.96m68.45 88.27c-1.4 3.07-3.44 6.32-6.12 9.74a70 70 0 0 1-9.1 9.54c-3.37 2.95-6.76 5.24-10.16 6.89-3.39 1.65-6.58 2.25-9.54 1.8-1.35-.21-2.5-.8-3.43-1.75-.94-.96-1.24-2.6-.92-4.91.42-3.03 1.67-6.38 3.72-10.04q3.075-5.505 6.21-11.88c2.09-4.26 3.39-8.49 3.94-12.69.6-4.63.19-8.6-1.22-11.9-1.4-3.32-3.14-6.17-5.22-8.57s-3.89-4.58-5.42-6.54c-1.53-1.95-2.4-4.15-2.04-5.78.11-.5.73-1.79 1.6-3.72.87-1.92 1.36-3.24 1.46-3.96.11-.72.13-1.87.08-3.43-.06-1.56-.76-2.46-2.11-2.69-1.12-.19-2.82.99-5.13 3.54s-3.81 5.91-4.48 10.08c-.34 2.16-.06 4.07.86 5.71-3.93 8.48-7.82 16.02-11.65 22.64-3.82 6.61-6.93 11.61-9.25 15.02.48 1.96.72 2.94 1.2 4.91 2.61-3.65 6.1-8.95 10.4-15.93s8.34-14.37 12.14-22.14c2.04 2.14 3.88 4.49 5.53 7.05 1.64 2.57 2.18 5.94 1.58 10.13-.52 3.61-1.9 7.59-4.18 11.94-2.28 4.36-4.61 8.73-7.01 13.12-2.39 4.4-3.94 8.75-4.61 13.07-.66 4.33.05 8.05 2.18 11.15 2.14 3.1 5.39 5.01 9.74 5.7 5.46.87 11.03-.21 16.63-3.26 5.59-3.04 10.81-7.29 15.6-12.73 4.79-5.43 8.61-11.09 11.49-16.93-1.11-1.27-1.66-1.91-2.77-3.18m156.44 2.67q-2.835 9.645-7.62 17.94c-3.19 5.54-6.5 10.03-9.89 13.48-3.38 3.45-6.53 5.23-9.39 5.33-1.49.06-2.79-.52-3.87-1.72-1.09-1.21-1.67-3.2-1.75-5.98-.09-3.5.48-7.24 1.71-11.23 1.23-3.98 2.4-8.12 3.53-12.4q1.68-6.42 1.44-12.99c-.17-4.96-1.46-9.55-3.82-13.77-2.36-4.23-5.96-6.26-10.84-6.15-5.12.12-9.81 2.73-14.18 7.87-4.37 5.13-8.36 11.87-12.03 20.13-3.87 8.73-7.31 17.89-10.18 27.02-.29-4.39-.03-9.97.75-16.75.79-6.77 1.92-13.66 3.38-20.64 1.47-6.99 3.09-13.03 4.88-18.12 5.27-3.89 10.19-9.07 14.72-15.53 4.52-6.46 8.38-13.39 11.59-20.77 3.2-7.37 5.63-14.57 7.34-21.57 1.71-6.99 2.45-12.98 2.29-17.94-.1-3.21-.68-6.41-1.73-9.59-1.04-3.17-2.5-4.73-4.39-4.68-2.42.07-5.19 2.62-8.39 7.64-3.21 5.03-6.58 11.72-10.19 20.04-3.96 9.13-7.62 18.49-11.08 27.78-3.75 10.1-7.34 20.39-10.54 30.72-4.53 1.06-8.62 1.8-12.23 2.25-3.62.44-7.06.58-10.31.41-2.78-.14-5.5-.51-8.14-1.11-2.65-.6-5.4-1.3-8.25-2.09 1.63-3.83 3.58-7.9 5.84-12.22 2.25-4.31 4.47-8.68 6.67-13.09 2.2-4.4 4.24-8.61 6.14-12.61 1.9-3.99 3.43-7.54 4.59-10.63 1.17-3.09 1.77-5.37 1.82-6.83.07-1.6-.29-2.9-1.07-3.88-.77-.98-1.65-1.5-2.62-1.55-2.27-.11-5.08 2.45-8.52 7.66s-7.19 12.12-11.32 20.66c-4.44 9.16-8.53 18.64-12.2 28.14-1.48-.41-2.8-.93-3.97-1.55-1.16-.62-2.37-1.06-3.62-1.33l-.4 4.8c.99.69 1.96 1.32 2.9 1.92s1.97 1.17 3.1 1.71c-2.46 6.23-4.8 12.69-7.02 19.37-2.21 6.69-4.11 12.99-5.65 18.92-1.55 5.94-2.52 11.01-2.89 15.23-.64 7.27.38 12.91 3.13 16.91s6.9 6.26 12.43 6.7c7.65.61 15.16-2 22.28-7.49 7.15-5.5 14.05-14.11 18.09-22.2-.35 3.49-.53 7.03-.51 10.61q.015 5.37.99 9.9c.66 3.02 1.53 5.42 2.61 7.21s2.37 2.7 3.88 2.74c1.88.05 3.7-1.33 5.44-4.15 1.74-2.81 3.48-6.5 5.21-11.08 1.72-4.57 3.46-9.41 5.21-14.51 1.74-5.09 3.61-9.9 5.6-14.42 1.99-4.53 4.15-8.25 6.51-11.19 2.36-2.93 4.94-4.42 7.77-4.46q2.835-.045 4.74 2.22c1.27 1.5 1.94 4.08 2.02 7.73.07 3.51-.28 7.21-1.05 11.09-.77 3.89-1.61 7.7-2.53 11.44s-1.36 7.15-1.32 10.21c.06 4.1 1.25 7.47 3.61 10.13 2.35 2.65 5.73 3.93 10.11 3.79 5-.16 9.74-2.07 14.14-5.72 4.39-3.65 8.32-8.51 11.74-14.58 3.42-6.06 6.15-12.84 8.2-20.32-1.16-1.14-1.74-1.71-2.89-2.86m-57.74-62.11c2.73-7.31 5.4-13.72 8.02-19.23 2.63-5.51 4.94-9.86 6.99-13.04 2.04-3.19 3.42-4.8 4.17-4.82.33.29.46 1.16.39 2.62-.14 2.93-.88 6.86-2.25 11.78-1.37 4.93-3.25 10.24-5.66 15.9-2.42 5.66-5.22 11.21-8.42 16.63-3.19 5.43-6.71 10.1-10.52 14.02 2.12-8.6 4.55-16.55 7.28-23.86m-26.72 51.1c-1 4.21-1.93 8.63-2.78 13.28-4.69 9.45-9.4 18.91-17.07 26.35-6.47 6.26-13.04 9.23-19.5 8.75-3.74-.28-6.29-1.84-7.64-4.66-1.35-2.83-1.79-7.3-1.33-13.41.59-7.72 2.12-15.43 4.54-23.14 2.41-7.7 5.22-15.24 8.39-22.62 2.98.95 5.95 1.74 8.9 2.37 2.96.62 6.07 1.02 9.34 1.19 3.16.16 6.5.1 10.02-.2q5.28-.45 10.92-1.83c-1.52 5.07-2.79 9.71-3.79 13.92m187.97-2.76c-1.32 7.25-3.29 13.56-5.9 18.94-2.61 5.37-5.45 9.63-8.49 12.74-3.05 3.12-5.88 4.88-8.46 5.3-1.84.3-3.1-.39-3.77-2.05-.67-1.67-1.27-4.45-1.81-8.36-1.02-7.36-1.12-15.63-.42-24.74.72-9.46 1.95-19.06 3.49-28.4 1.59-9.65 3.31-19.38 5.19-29.01 1.86-9.51 3.52-18.37 5.03-26.53s2.62-15.15 3.38-20.96c.76-5.8.9-9.93.45-12.37-.28-1.57-.88-2.79-1.79-3.64-.9-.85-1.82-1.19-2.75-1-1.66.34-3.24 2.55-4.81 6.64-1.56 4.09-3.04 9.49-4.46 16.2-1.43 6.71-2.83 14.27-4.23 22.65s-2.8 17.12-4.19 26.22c-1.39 9.09-2.67 18.2-4.2 26.8-1.97 11.1-4.48 22.44-8.69 33.12-3.73 9.45-7.68 16.93-11.82 22.28-4.14 5.36-7.93 8.21-11.26 8.56-1.98.22-3.64-.53-4.97-2.23-1.33-1.69-2.12-4.07-2.39-7.13-.3-3.34-.01-7.44.84-12.29.84-4.86 2.16-9.98 3.92-15.39 1.77-5.4 3.89-10.48 6.35-15.26 2.46-4.77 5.29-8.8 8.49-12.08 3.19-3.29 6.6-5.19 10.28-5.72 1.48-.21 2.84-.15 4.05.18 1.21.34 2.12.98 2.72 1.92.38-.65.58-1.31.61-1.98.03-.66 0-1.29-.07-1.87-.31-2.31-1.23-3.9-2.74-4.78s-3.52-1.13-6.02-.78c-4.44.64-8.7 2.72-12.83 6.26-4.14 3.54-8.02 8.03-11.66 13.5s-6.81 11.29-9.51 17.49-4.8 12.36-6.27 18.5-2.06 11.6-1.71 16.41c.32 4.37 1.32 7.88 3.02 10.51 1.7 2.64 3.75 4.51 6.17 5.6 2.41 1.1 4.69 1.54 6.81 1.32 3.87-.39 7.79-2.46 11.68-6.21s7.71-8.85 11.38-15.29c3.67-6.43 6.97-13.55 9.89-21.34-.33 4.17-.55 8.04-.66 11.59s-.02 6.56.28 9.02c.52 4.2 1.92 7.98 4.23 11.33 2.32 3.35 5.91 4.67 10.76 3.92 4.34-.68 8.64-3.12 12.82-7.32 4.18-4.19 7.83-9.63 10.93-16.29 3.09-6.66 5.16-13.98 6.23-21.92-1.25-.82-1.87-1.23-3.12-2.06m94.77-24.12c-2.03 10.22-3.87 20.76-8.95 30.01-3.84 6.98-7.43 10.92-10.58 11.81-2.06.58-3.78.04-5.15-1.62s-2.3-3.55-2.81-5.67c-.58-2.41-.7-5.16-.37-8.27.32-3.11.83-6.23 1.51-9.37.68-3.13 1.24-5.93 1.68-8.41.45-2.47.51-4.34.19-5.61s-1.06-2.19-2.19-2.77a9.6 9.6 0 0 0-3.61-1.02c-1.26-.1-2.2-.14-2.81-.12-.35.1-.59.62-.73 1.56-1.36 4.61-2.96 9.87-4.83 15.78a203 203 0 0 1-6.35 17.33c-2.35 5.63-4.89 10.41-7.57 14.35-2.69 3.95-5.46 6.24-8.28 6.89-3.06.7-5.11-1.6-6.15-6.89-.81-4.14-1-8.96-.58-14.42.41-5.47 1.32-11.17 2.69-17.1s3.1-11.54 5.19-16.85q3.12-7.95 7.14-13.38c4.02-5.43 5.58-5.86 8.75-6.72 3.06-.83 5.43-.24 7.14 1.77 1.7 2.01 2.95 4.58 3.71 7.68.32 1.27.54 2.57.68 3.89s.26 2.64.34 3.98c2.69-.6 4.75-1.87 6.18-3.8 1.42-1.92 1.68-4.65.77-8.17-1.26-4.93-3.84-8.42-7.68-10.49s-7.99-2.49-12.48-1.27c-4.5 1.21-8.67 3.81-12.57 7.8s-7.4 8.81-10.51 14.47c-3.11 5.67-5.75 11.76-7.9 18.28-2.16 6.52-3.67 12.95-4.48 19.3s-.79 12.03.13 17.05c1.12 6.16 3.33 10.47 6.67 12.89 3.34 2.41 7 3.18 10.97 2.29 4.57-1.03 8.62-4.11 12.05-9.21 3.44-5.09 6.85-12.2 10.12-21.31.07.88.16 1.69.26 2.41.1.73.23 1.44.39 2.15.87 3.83 2.8 7.14 5.82 9.87 3.02 2.74 6.88 3.49 11.53 2.21 4.52-1.25 8.68-4.17 12.4-8.74 3.71-4.57 6.77-10.39 9.13-17.43 2.35-7.03 3.74-14.75 4.17-23.13-1.22-.8-1.82-1.2-3.03-2m87.93-30.14c-1.33-.55-1.99-.83-3.32-1.38.73 8.86-.59 19.88-4.13 28.1-3.3 7.67-7.19 13.91-11.67 18.5-.14-9.3-.61-18.28-1.4-26.95-.78-8.67-1.74-16.18-2.82-22.55-1.08-6.36-2.04-10.63-2.83-12.81-.88.05-1.64.17-2.27.36-.63.18-1.29.41-1.95.68-2.78 1.14-4.39 3.12-4.86 5.96-.47 2.85-.6 5.41-.31 7.61.26 1.89.59 3.82.93 5.71s.6 3.5.8 4.82a128 128 0 0 1-3.15 15.35c-1.34 4.94-2.98 9.2-4.9 12.78-1.93 3.59-4.09 5.81-6.45 6.66-2.24.82-4.05.62-5.41-.59s-2.4-2.99-3.14-5.35c-.86-2.77-1.46-6.18-1.82-10.2q-.525-6.045-.63-12.72c-.07-4.45 0-8.52.2-12.22s.51-6.63.93-8.8c-.43-.93-1.33-1.6-2.72-2.01q-2.07-.63-4.14-.69c-1.38-.04-2.35.04-2.9.24-1.23.44-2.2 2.56-2.95 6.37-.76 3.8-1.18 8.44-1.28 13.92-.1 5.49.06 11 .5 16.52.43 5.52 1.19 10.17 2.3 13.92 1.2 4.05 2.91 7.07 5.14 9.07 2.23 1.99 4.67 3.19 7.3 3.58 2.62.39 5.08.18 7.34-.63 4.9-1.75 8.7-5.93 11.31-12.49s4.61-13.93 5.99-22.1c.93 7.27 1.62 14.31 2.06 21.12.44 6.82 1.94 15.1.72 18.35-1.2 3.16-7.04 8.02-10.48 12.12s-6.44 8.24-8.97 12.42-4.36 8.37-5.45 12.56c-1.08 4.19-1 8.52.3 12.99 1.18 4.04 3.32 6.62 6.44 7.71s6.28 1.09 9.46-.02c4.58-1.59 8.3-5.55 11.08-11.8 2.77-6.26 4.79-13.98 6.08-23.04 1.34-9.36 2.02-19.15 2.01-28.63 3.74-4.13 7.22-8.89 10.42-14.29 3.2-5.39 5.64-11.3 7.34-17.7 1.69-6.4 2.11-13.22 1.3-20.45m-34.64 97.68c-2.55 6.99-5.06 10.91-7.08 11.61-1.64.57-3.02.27-4.13-.88s-1.85-2.36-2.22-3.61c-1.25-4.17-1.07-8.45.48-12.82 1.56-4.38 3.99-8.8 7.28-13.3 3.3-4.49 6.79-8.98 10.48-13.47-.29 10.85-1.1 22.31-4.81 32.47" class="cls-6bi6"/></svg>