<svg xmlns="http://www.w3.org/2000/svg" viewBox="0 0 1500 1500" width="300" height="300" fill="none"><defs><style>.cls-4bi1{fill:#ffb84c}.cls-4bi2{fill:#ffd371}.cls-4bi4{fill:#f77979}.cls-4bi6{fill:#ffc578}.cls-4bi7{fill:#f16767}.cls-4bi8{fill:#ffdf9f}.cls-4bi9{fill:#ad6bdb}.cls-4bi10{fill:#a459d1}</style></defs><path d="M1233.01 981.54c-5.19 4.83-9.76 10-13.67 15.49a91 91 0 0 0-7.41 12.26h-.01c-.7 1.41-1.37 2.82-1.99 4.25-9.2 21.04-7.66 39.73-6.42 54.75.42 5.06.81 9.84.74 14.11-.27 15.44-6.88 31.18-19.64 46.79-1.71 2.09-3.54 4.19-5.5 6.3-5.43 5.88-11.77 11.8-19 17.74v-3.87c7.31-6.14 13.65-12.25 19-18.31 1.11-1.25 2.17-2.5 3.19-3.75 12.33-15.07 18.72-30.2 18.97-44.95.08-4.13-.31-8.83-.72-13.81-1.27-15.36-2.85-34.47 6.66-56.19.64-1.46 1.31-2.9 2.03-4.33q.42-.84.87-1.68c2.61-4.98 5.7-9.74 9.25-14.3 3.44-4.46 7.32-8.68 11.62-12.68.6-.56 1.55-.53 2.11.08.56.6.52 1.54-.08 2.1" class="cls-4bi7"/><path d="M1382.92 836.44c.17-29.47-13.56-75.23-51.34-92.23-36.95-16.62-79.34 2.16-101.14 21.1-45.64 39.68-52.4 124.84-12.39 211.71-1.51 2.88-5.06 8.67-11.99 13.05a33.9 33.9 0 0 1-12.65 4.79c2.93 3.74 10.08 11.79 22.18 15.85 6.75 2.27 12.76 2.52 16.84 2.34.56-3.29.98-7.07 1.05-11.25.12-7.03-.76-13.1-1.84-17.87 91.19-25.98 150.93-86.75 151.28-147.48Z" class="cls-4bi7"/><path d="M1231.65 983.92a75.2 75.2 0 0 1 1.84 17.87c-.07 4.18-.49 7.96-1.05 11.25-4.08.18-10.09-.07-16.85-2.34a45.5 45.5 0 0 1-11-5.43c-5.62-3.78-9.29-8-11.18-10.42 2.97-.49 7.69-1.66 12.65-4.79 6.31-3.99 9.82-9.16 11.53-12.22.07-.12.13-.24.2-.36 91.04-26.02 150.67-86.74 151.02-147.41.16-27.6-11.87-69.5-44.44-88.66 2.42.79 4.83 1.71 7.21 2.78 37.78 17 51.51 62.77 51.34 92.23-.34 60.73-60.09 121.5-151.28 147.48Z" style="fill:#d84e4e"/><path d="M1218.33 1006.69c-3.45.15-8.26 0-13.73-1.41-5.62-3.78-9.29-8-11.18-10.42 2.97-.49 7.69-1.66 12.65-4.79 6.31-3.99 9.82-9.16 11.53-12.22 1.05 4.73 1.9 10.7 1.78 17.6-.07 4.18-.49 7.96-1.05 11.25Z" class="cls-4bi7"/><path d="M1220.04 813.08c-8.9 20.91-7.9 34.98-10.21 34.9-2.99-.1-9.79-23.85.25-43.79 8.45-16.78 26.2-25.67 28.29-23.58 1.84 1.84-9.34 11.36-18.33 32.48Z" class="cls-4bi4"/><circle cx="1253.98" cy="771.28" r="5.91" class="cls-4bi4"/><circle cx="1211.47" cy="865.68" r="5.91" class="cls-4bi4"/><path d="M299.28 893.94v2.88c-7.17-5.25-13.51-10.5-19-15.73-4.44-4.22-8.33-8.43-11.64-12.62-9.75-12.33-14.8-24.76-15.01-36.95-.05-3.38.25-7.15.57-11.14.94-11.87 2.12-26.63-4.91-43.24q-.72-1.695-1.53-3.36a71.5 71.5 0 0 0-5.66-9.68c-2.99-4.33-6.48-8.42-10.45-12.24-.46-.44-.48-1.18-.06-1.66.43-.47 1.15-.5 1.61-.06 3.28 3.16 6.25 6.5 8.88 10.01v.04c2.72 3.6 5.08 7.33 7.08 11.26.23.44.44.88.66 1.32.55 1.14 1.06 2.27 1.55 3.42 7.27 17.16 6.06 32.25 5.09 44.38-.31 3.93-.61 7.65-.55 10.91.19 11.65 5.07 23.59 14.49 35.5 2.86 3.61 6.15 7.25 9.88 10.9 5.43 5.32 11.77 10.68 19 16.06" class="cls-4bi10"/><path d="M117.07 637.27c-.13-23.27 10.36-59.41 39.24-72.84 28.24-13.13 60.64 1.7 77.3 16.67 34.88 31.34 40.05 98.6 9.47 167.19 1.16 2.28 3.87 6.85 9.16 10.3 3.79 2.47 7.4 3.4 9.67 3.79-2.24 2.95-7.7 9.31-16.95 12.52a34.5 34.5 0 0 1-12.87 1.85c-.43-2.6-.75-5.58-.81-8.88-.1-5.55.58-10.35 1.41-14.12-69.69-20.52-115.35-68.51-115.62-116.47Z" class="cls-4bi10"/><path d="M232.69 753.74c-.82 3.77-1.5 8.56-1.41 14.12.06 3.3.38 6.29.8 8.88 3.12.14 7.71-.06 12.87-1.85 3.27-1.13 6.06-2.66 8.4-4.29 4.3-2.99 7.1-6.32 8.54-8.23a25.5 25.5 0 0 1-9.67-3.79c-4.82-3.15-7.5-7.23-8.82-9.65-.05-.1-.1-.19-.15-.28-69.58-20.55-115.15-68.5-115.42-116.41-.12-21.79 9.07-54.88 33.97-70.02-1.85.62-3.69 1.35-5.51 2.2-28.88 13.42-39.37 49.57-39.24 72.84.26 47.96 45.92 95.95 115.61 116.47Z" style="fill:#894bb5"/><path d="M242.87 771.73c2.63.12 6.31 0 10.5-1.12 4.3-2.99 7.1-6.32 8.54-8.23a25.5 25.5 0 0 1-9.67-3.79c-4.82-3.15-7.5-7.23-8.82-9.65-.8 3.73-1.45 8.45-1.36 13.9.06 3.3.38 6.29.8 8.88Z" class="cls-4bi10"/><path d="M241.56 618.82c6.8 16.52 6.03 27.63 7.8 27.56 2.29-.08 7.49-18.84-.19-34.59-6.45-13.25-20.02-20.27-21.62-18.63-1.41 1.45 7.14 8.97 14.01 25.65Z" class="cls-4bi9"/><ellipse cx="215.62" cy="585.81" class="cls-4bi9" rx="4.52" ry="4.67"/><ellipse cx="248.11" cy="660.37" class="cls-4bi9" rx="4.52" ry="4.67"/><path d="M299.28 1113.63v41.23l-16.72 5.53c-.06.02-.13.04-.19.06-.69.22-1.4.35-2.09.39a9.1 9.1 0 0 1-9.13-5.94c-.21-.57-.42-1.13-.63-1.69l-4.05-10.98c-.63-1.71-1.26-3.43-1.9-5.15l-2.85-7.71c-.06-.15-.11-.3-.16-.45-1.53-4.12-3.05-8.24-4.57-12.36-1.99-5.37-3.97-10.74-5.95-16.11-2.53-6.85-5.06-13.68-7.58-20.52-1.99-5.37-3.97-10.75-5.95-16.12-2.54-6.84-5.06-13.68-7.58-20.53-1.99-5.36-3.97-10.74-5.96-16.11-2.52-6.84-5.05-13.68-7.57-20.52-1.99-5.38-3.97-10.75-5.96-16.12-2.52-6.84-5.05-13.68-7.57-20.52-1.99-5.38-3.97-10.75-5.96-16.12-.03-.09-.06-.17-.09-.25-1.79-4.83.79-10.19 5.68-11.8l7.36-2.46s.01.01.02 0h.03l.69-.22h.02l1.88-.63 13.93-4.62 2.28-.75h.01l.34-.12h.01l7.36-2.44c4.91-1.62 10.19 1.15 11.63 6.12.98 3.42 1.98 6.84 2.96 10.26 1.57 5.42 3.15 10.86 4.72 16.28l6 20.72c1.57 5.42 3.14 10.86 4.72 16.28 1.99 6.91 3.99 13.81 5.99 20.72 1.57 5.43 3.14 10.85 4.72 16.27 1.03 3.58 2.07 7.16 3.11 10.74l2.88 9.98c1.57 5.43 3.14 10.86 4.72 16.28l6 20.72c1.56 5.43 3.14 10.85 4.71 16.28z" class="cls-4bi7"/><path d="M196.91 953.88c1.99 5.38 3.97 10.75 5.96 16.12l52.87-6.75c-1.58-5.42-3.15-10.86-4.72-16.28zm13.53 36.64c1.99 5.38 3.97 10.75 5.96 16.12l50.06-6.39c-1.58-5.42-3.15-10.86-4.72-16.28zm13.53 36.65c1.99 5.37 3.97 10.75 5.95 16.12l47.24-6.03c-1.58-5.42-3.15-10.85-4.71-16.27l-48.48 6.19Zm13.54 36.63c1.98 5.37 3.96 10.75 5.95 16.12l44.42-5.67c-1.58-5.42-3.15-10.86-4.72-16.28zm-56.18-142.46c7.81 15.3 27.35 21.76 40.83 16 11.18-4.78 21.59-19.42 18.97-35.79-2.58-16.12-16.89-28.25-34.14-42.87-7.19-6.09-13.38-10.3-17.51-12.92-1.37 4.18-3.32 10.65-5.18 18.87-6.01 26.67-9.78 43.4-2.98 56.72Zm69.71 179.11c1.98 5.37 3.96 10.74 5.95 16.11l41.6-5.31c-1.57-5.43-3.15-10.85-4.71-16.27zm48.24 32.19v16.9l-19 2.42-3.24.42-6.52.83-4.05-10.98c-.63-1.71-1.26-3.43-1.9-5.15l2.18-.28 13.53-1.73z" class="cls-4bi1"/><path d="M185.66 923.08c6.97 13.66 24.42 19.43 36.46 14.28 9.99-4.27 19.28-17.34 16.94-31.96-2.3-14.4-15.08-25.23-30.48-38.28-6.42-5.44-11.95-9.2-15.64-11.53-1.22 3.74-2.97 9.51-4.62 16.85-5.36 23.82-8.73 38.76-2.66 50.65Z" class="cls-4bi2"/><path d="M199.7 929.29c4.11 8.05 14.39 11.45 21.48 8.42 5.88-2.52 11.36-10.22 9.98-18.83-1.36-8.48-8.89-14.86-17.96-22.56a81 81 0 0 0-9.21-6.79c-.72 2.2-1.75 5.6-2.72 9.93-3.16 14.03-5.14 22.83-1.57 29.84Z" class="cls-4bi8"/><path d="M1199.39 210.76c-.02.08-.05.17-.07.25-1.52 5.52-3.04 11.04-4.57 16.57-1.94 7.02-3.87 14.06-5.81 21.08-1.53 5.53-3.04 11.05-4.57 16.57-1.94 7.03-3.87 14.06-5.81 21.09-1.53 5.52-3.04 11.04-4.57 16.56-1.94 7.03-3.87 14.06-5.82 21.09-1.52 5.52-3.04 11.05-4.56 16.56-1.94 7.04-3.88 14.06-5.82 21.09-1.52 5.52-3.05 11.04-4.57 16.56-.28 1.01-.55 2.02-.83 3.03l-4.98 18.06c-.19.68-.37 1.35-.56 2.03-.75-.74-1.53-1.46-2.34-2.15-7.79-6.69-17.92-10.73-28.97-10.73h-6.62l2.4-12.01c.47-2.33.93-4.66 1.4-6.99l1.92-9.63c1.41-7.05 2.82-14.1 4.22-21.15 1.12-5.54 2.22-11.08 3.33-16.62 1.4-7.06 2.81-14.1 4.22-21.15 1.11-5.54 2.22-11.08 3.32-16.62 1.41-7.05 2.82-14.1 4.22-21.15 1.12-5.54 2.22-11.08 3.33-16.62 1.4-7.06 2.81-14.1 4.22-21.15 1.11-5.54 2.22-11.09 3.32-16.63.69-3.49 1.4-6.98 2.09-10.47 1.01-5.07 6.04-8.28 11.07-7.08l7.55 1.81.36.09 2.33.56 14.26 3.42 1.95.46h.02l.65.17 7.6 1.82c5.01 1.2 8.04 6.31 6.66 11.28Z" class="cls-4bi1"/><path d="M1199.32 211.01c-1.53 5.53-3.04 11.05-4.57 16.57l-53.26-2.25c1.11-5.54 2.22-11.08 3.32-16.62l54.5 2.31Zm-10.38 37.65c-1.53 5.53-3.04 11.05-4.57 16.57l-50.42-2.13c1.11-5.54 2.22-11.08 3.32-16.62l51.67 2.19Zm-10.38 37.66c-1.53 5.52-3.04 11.05-4.57 16.56l-47.58-2.01c1.11-5.54 2.22-11.07 3.32-16.61zm-10.39 37.65c-1.52 5.52-3.04 11.05-4.56 16.56l-44.74-1.89c1.11-5.54 2.22-11.08 3.32-16.62z" class="cls-4bi6"/><path d="M1212.09 177.27c-6.49 15.9-25.41 23.99-39.33 19.39-11.55-3.82-23.16-17.53-21.93-34.06 1.21-16.29 14.44-29.58 30.39-45.61 6.65-6.68 12.46-11.4 16.36-14.35 1.72 4.05 4.21 10.33 6.75 18.36 8.24 26.07 13.41 42.42 7.77 56.26Z" class="cls-4bi1"/><path d="M1157.78 361.62c-1.52 5.52-3.04 11.04-4.57 16.55l-41.9-1.77c1.1-5.54 2.22-11.07 3.32-16.61l43.14 1.83Zm-10.37 37.65c-.19.68-.37 1.35-.56 2.03-.75-.74-1.53-1.46-2.34-2.15z" class="cls-4bi6"/><path d="M1207.93 179.36c-5.79 14.2-22.69 21.43-35.12 17.32-10.31-3.41-20.68-15.65-19.58-30.41 1.08-14.54 12.89-26.41 27.13-40.72 5.94-5.97 11.12-10.18 14.6-12.81 1.53 3.62 3.76 9.22 6.03 16.4 7.36 23.28 11.98 37.88 6.93 50.24Z" class="cls-4bi2"/><path d="M1194.46 186.74c-3.41 8.37-13.37 12.62-20.69 10.2-6.08-2.01-12.18-9.22-11.54-17.92.63-8.57 7.6-15.56 15.99-23.99 3.5-3.51 6.55-6 8.6-7.55.9 2.13 2.22 5.43 3.55 9.66 4.34 13.71 7.06 22.32 4.09 29.6" class="cls-4bi8"/><path d="M1105.1 388.42h-44.19c-.44-3.41-.89-6.82-1.34-10.23-.39-2.92-.78-5.85-1.16-8.77-.55-4.2-1.11-8.4-1.66-12.61l-2.22-16.8q-1.395-10.695-2.82-21.39c-.73-5.6-1.47-11.2-2.21-16.8l-2.82-21.39c-.73-5.6-1.47-11.2-2.21-16.8-.47-3.53-.93-7.07-1.4-10.59-.68-5.13 3.05-9.79 8.19-10.27l7.76-.72h.01l.32-.04 2.4-.22 14.6-1.36h.01l1.99-.19h.01l.69-.06h.02l7.77-.73c5.13-.48 9.64 3.39 9.94 8.53 0 .09 0 .18.02.26.33 5.73.67 11.44 1.01 17.16.43 7.28.87 14.56 1.29 21.83l1.02 17.16 1.29 21.83 1.02 17.16c.43 7.28.86 14.55 1.28 21.84.09 1.4.17 2.8.25 4.2.27 4.31.52 8.63.78 12.95.12 2.02.23 4.03.35 6.05Z" class="cls-4bi7"/><path d="M1096.8 248.24c.34 5.72.68 11.44 1.01 17.16l-51.14 15.03c-.73-5.6-1.47-11.21-2.21-16.81l52.34-15.39Zm2.31 38.99c.34 5.72.68 11.44 1.01 17.16l-48.42 14.23c-.73-5.6-1.47-11.21-2.21-16.81l49.61-14.58Zm2.31 38.99c.33 5.71.68 11.44 1.01 17.15l-45.69 13.43c-.73-5.6-1.47-11.2-2.21-16.8zm3.33 56.15-20.58 6.05h-23.26c-.44-3.41-.89-6.82-1.34-10.23l29.85-8.77 14.3-4.2c.09 1.4.17 2.8.25 4.2.27 4.31.52 8.63.78 12.95m-6.73-170.19c-1.01 17.14-16.32 30.9-30.98 31.03-12.16.11-27.57-9.13-31.74-25.17-4.11-15.8 4.13-32.66 14.07-52.97 4.14-8.47 8.12-14.8 10.86-18.86 2.93 3.28 7.32 8.42 12.31 15.2 16.2 22.02 26.37 35.83 25.49 50.76Z" class="cls-4bi1"/><path d="M1094.75 215.51c-.91 15.31-14.57 27.59-27.66 27.71-10.86.1-24.62-8.15-28.34-22.48-3.67-14.11 3.69-29.16 12.56-47.3 3.7-7.56 7.25-13.22 9.69-16.84 2.62 2.93 6.53 7.52 10.99 13.58 14.47 19.66 23.55 32 22.76 45.32Z" class="cls-4bi2"/><path d="M1084.38 226.83c-.53 9.02-8.59 16.26-16.3 16.33-6.4.06-14.5-4.8-16.7-13.24-2.16-8.31 2.17-17.18 7.4-27.87 2.18-4.45 4.27-7.79 5.71-9.92 1.54 1.73 3.85 4.43 6.48 8 8.53 11.58 13.87 18.85 13.41 26.7" class="cls-4bi8"/><path d="M299.28 1186.06v13.85l-13.1 9.38a7.4 7.4 0 0 1-5.62 1.27 7.42 7.42 0 0 1-4.61-2.79c-.3-.39-.6-.77-.9-1.16-2.85-3.71-5.69-7.42-8.55-11.13-3.63-4.72-7.25-9.43-10.88-14.16-2.85-3.7-5.7-7.4-8.54-11.11-3.63-4.72-7.26-9.43-10.89-14.15-2.84-3.7-5.69-7.42-8.54-11.12-3.63-4.72-7.25-9.44-10.88-14.16-2.85-3.7-5.7-7.41-8.55-11.11-3.63-4.72-7.25-9.44-10.88-14.16-2.85-3.7-5.69-7.41-8.55-11.12-3.62-4.71-7.25-9.44-10.87-14.15-2.86-3.71-5.7-7.42-8.55-11.12-.04-.06-.09-.11-.13-.17-2.57-3.33-1.86-8.13 1.56-10.58l5.2-3.72.47-.34 1.32-.94 9.73-6.97h.01l1.58-1.14h.01l.24-.17.01-.01 5.15-3.69c3.43-2.45 8.22-1.58 10.54 1.95 1.6 2.42 3.21 4.85 4.8 7.28 2.54 3.84 5.08 7.7 7.63 11.54 3.23 4.9 6.46 9.79 9.69 14.69 2.54 3.85 5.08 7.7 7.63 11.55 3.23 4.9 6.45 9.8 9.69 14.69 2.54 3.85 5.08 7.7 7.62 11.54 3.14 4.77 6.29 9.52 9.44 14.29.08.13.17.27.26.4 1.64 2.49 3.28 4.99 4.93 7.48.9 1.36 1.79 2.72 2.69 4.07 2.53 3.84 5.06 7.67 7.6 11.51l2.1 3.18c.38.58.76 1.15 1.14 1.73.69 1.05 1.39 2.11 2.09 3.16 1.46 2.22 2.92 4.43 4.38 6.65l9.71 14.69c.94 1.43 1.87 2.85 2.82 4.27" class="cls-4bi1"/><path d="M169.36 1069.12c2.85 3.71 5.7 7.41 8.55 11.12l39.57-18.08c-2.54-3.84-5.09-7.7-7.62-11.54zm19.43 25.27c2.85 3.71 5.7 7.41 8.55 11.12l37.46-17.12c-2.54-3.84-5.09-7.7-7.62-11.54zm19.43 25.28c2.85 3.7 5.7 7.41 8.55 11.12l35.35-16.15c-2.54-3.84-5.08-7.69-7.62-11.54zm19.43 25.27c2.84 3.71 5.69 7.42 8.54 11.12l33.25-15.19c-2.54-3.84-5.09-7.7-7.62-11.54l-34.16 15.61Z" class="cls-4bi6"/><path d="M149.33 1047.53c9.79 10.03 26.59 10.33 35.7 2.57 7.56-6.44 12.12-20.37 6.11-32.49-5.92-11.94-20.01-17.92-37-25.14-7.08-3.01-12.92-4.78-16.78-5.82-.05 3.59 0 9.1.54 15.96 1.78 22.24 2.9 36.2 11.43 44.92" class="cls-4bi1"/><path d="M247.08 1170.21c2.84 3.71 5.69 7.41 8.54 11.11l31.13-14.22c-2.54-3.85-5.08-7.69-7.62-11.54l-32.06 14.65Zm52.2 15.85v9.47l-19 8.69-5.23 2.39c-2.85-3.71-5.69-7.42-8.55-11.13l13.78-6.3 16.18-7.39c.94 1.43 1.87 2.85 2.82 4.27" class="cls-4bi6"/><path d="M153.13 1047.84c8.74 8.95 23.74 9.22 31.88 2.29 6.75-5.75 10.82-18.19 5.45-29.01-5.29-10.66-17.87-16-33.04-22.44-6.32-2.68-11.54-4.27-14.98-5.2-.05 3.21 0 8.13.48 14.25 1.59 19.86 2.59 32.32 10.21 40.11" class="cls-4bi2"/><path d="M165.58 1049.27c5.15 5.28 13.99 5.43 18.78 1.35 3.98-3.39 6.37-10.72 3.21-17.1-3.11-6.28-10.53-9.43-19.46-13.22-3.73-1.58-6.8-2.52-8.83-3.06-.03 1.89 0 4.79.28 8.4.94 11.7 1.53 19.04 6.01 23.64Z" class="cls-4bi8"/><path d="M280.28 1151.96v5.33c.69 1.05 1.39 2.11 2.09 3.16 1.46 2.22 2.92 4.43 4.38 6.65l9.71 14.69c.94 1.43 1.87 2.85 2.82 4.27v-36.52zm0 0v5.33c.69 1.05 1.39 2.11 2.09 3.16 1.46 2.22 2.92 4.43 4.38 6.65l9.71 14.69c.94 1.43 1.87 2.85 2.82 4.27v-36.52zm0 0v5.33c.69 1.05 1.39 2.11 2.09 3.16 1.46 2.22 2.92 4.43 4.38 6.65l9.71 14.69c.94 1.43 1.87 2.85 2.82 4.27v-36.52zm0 0v5.33c.69 1.05 1.39 2.11 2.09 3.16 1.46 2.22 2.92 4.43 4.38 6.65l9.71 14.69c.94 1.43 1.87 2.85 2.82 4.27v-36.52zm0 0v5.33c.69 1.05 1.39 2.11 2.09 3.16 1.46 2.22 2.92 4.43 4.38 6.65l9.71 14.69c.94 1.43 1.87 2.85 2.82 4.27v-36.52zm0 0v5.33c.69 1.05 1.39 2.11 2.09 3.16 1.46 2.22 2.92 4.43 4.38 6.65l9.71 14.69c.94 1.43 1.87 2.85 2.82 4.27v-36.52zm872.11-770.75a68 68 0 0 0-5.1-3.28 63.2 63.2 0 0 0-31.75-8.51H343.85c-35.06 0-63.57 28.52-63.57 63.57v771.7c0 1.98.09 3.94.28 5.87 2.96 32.31 30.21 57.7 63.29 57.7h771.69c35.06 0 63.57-28.52 63.57-63.57v-771.7c0-21.33-10.56-40.24-26.72-51.78m7.72 823.48c0 24.57-19.99 44.57-44.57 44.57H343.85c-24.58 0-44.57-20-44.57-44.57v-771.7c0-24.57 19.99-44.57 44.57-44.57h771.69c11.05 0 21.18 4.04 28.97 10.73.81.69 1.59 1.41 2.34 2.15 8.19 8.09 13.26 19.31 13.26 31.69zm-879.83-52.73v5.33c.69 1.05 1.39 2.11 2.09 3.16 1.46 2.22 2.92 4.43 4.38 6.65l9.71 14.69c.94 1.43 1.87 2.85 2.82 4.27v-36.52zm0 0v5.33c.69 1.05 1.39 2.11 2.09 3.16 1.46 2.22 2.92 4.43 4.38 6.65l9.71 14.69c.94 1.43 1.87 2.85 2.82 4.27v-36.52zm0 0v5.33c.69 1.05 1.39 2.11 2.09 3.16 1.46 2.22 2.92 4.43 4.38 6.65l9.71 14.69c.94 1.43 1.87 2.85 2.82 4.27v-36.52zm0 0v5.33c.69 1.05 1.39 2.11 2.09 3.16 1.46 2.22 2.92 4.43 4.38 6.65l9.71 14.69c.94 1.43 1.87 2.85 2.82 4.27v-36.52zm0 0v5.33c.69 1.05 1.39 2.11 2.09 3.16 1.46 2.22 2.92 4.43 4.38 6.65l9.71 14.69c.94 1.43 1.87 2.85 2.82 4.27v-36.52zm-99.33-783.07 28.4 17.62c1.08.67 2.42.77 3.59.26l30.61-13.4c2.93-1.28 6.07 1.35 5.3 4.46l-7.98 32.45c-.3 1.23.02 2.54.86 3.49l22.21 24.97c2.13 2.39.59 6.19-2.6 6.42l-33.33 2.44c-1.27.09-2.41.8-3.05 1.9l-16.89 28.84c-1.62 2.76-5.7 2.47-6.91-.49l-12.62-30.94a3.85 3.85 0 0 0-2.75-2.31l-32.64-7.15c-3.13-.68-4.11-4.66-1.67-6.72l25.53-21.56c.97-.82 1.48-2.07 1.35-3.33l-3.29-33.26c-.32-3.19 3.16-5.35 5.88-3.66Z" class="cls-4bi1"/><path d="m360.21 301.01 1.67 14.77c.09.8.57 1.5 1.27 1.87l13.11 7c1.78.95 1.7 3.53-.14 4.36l-13.53 6.15c-.73.33-1.25 1-1.39 1.79l-2.61 14.63c-.35 1.99-2.83 2.7-4.19 1.21l-10.03-10.97a2.44 2.44 0 0 0-2.13-.77l-14.72 2.04c-2 .28-3.45-1.86-2.45-3.61l7.33-12.93c.4-.7.42-1.54.07-2.26l-6.49-13.37c-.88-1.81.7-3.85 2.68-3.45l14.56 2.98c.78.16 1.6-.08 2.17-.63l10.71-10.31c1.45-1.4 3.88-.52 4.1 1.48Z" class="cls-4bi7"/><path d="m265.52 193.46 11.06 42.24a5.5 5.5 0 0 0 3.45 3.78l41.07 14.83c4.29 1.55 4.94 7.35 1.1 9.81l-36.75 23.57a5.52 5.52 0 0 0-2.53 4.45l-1.41 43.64c-.15 4.56-5.46 6.97-8.99 4.08l-33.78-27.67a5.51 5.51 0 0 0-5.02-1.03l-41.94 12.14c-4.38 1.27-8.32-3.04-6.66-7.29l15.87-40.67c.66-1.69.44-3.59-.57-5.09l-24.51-36.14c-2.56-3.78.32-8.85 4.87-8.58l43.59 2.53c1.81.1 3.55-.69 4.66-2.12l26.79-34.47c2.8-3.6 8.51-2.43 9.67 1.98Zm1076.77 1030.16-39.59 9.18a4.7 4.7 0 0 0-3.31 2.86l-14.88 37.82c-1.43 3.62-6.39 4.04-8.4.7l-20.97-34.82c-.8-1.32-2.2-2.17-3.74-2.27l-40.57-2.47c-3.89-.24-5.82-4.83-3.26-7.77l26.64-30.7a4.7 4.7 0 0 0 1-4.26l-10.19-39.35c-.98-3.77 2.79-7.02 6.38-5.5l37.43 15.84c1.42.6 3.05.47 4.36-.37l34.27-21.85c3.28-2.09 7.54.49 7.21 4.37l-3.5 40.49c-.13 1.54.5 3.05 1.69 4.03l31.37 25.84c3.01 2.48 1.87 7.32-1.93 8.2Z" class="cls-4bi10"/><path d="m1072.48 1393.2-5.09-30.04c-.27-1.62-1.33-3-2.81-3.69l-27.63-12.84c-3.75-1.74-3.87-7.02-.21-8.94l26.99-14.12a5 5 0 0 0 2.64-3.82l3.67-30.24c.5-4.1 5.48-5.85 8.44-2.96l21.77 21.31a4.97 4.97 0 0 0 4.45 1.33l29.9-5.85c4.06-.79 7.26 3.41 5.42 7.11l-13.54 27.29a4.98 4.98 0 0 0 .11 4.64l14.8 26.62c2.01 3.61-1 7.96-5.08 7.35l-30.14-4.44a5 5 0 0 0-4.38 1.54l-20.75 22.31c-2.81 3.03-7.88 1.51-8.57-2.56Z" class="cls-4bi1"/><path d="m1207.87 1351.91-6.09-18.9c-.25-.78-.87-1.39-1.66-1.63l-19.02-5.7c-1.99-.6-2.43-3.21-.75-4.43l16.09-11.63c.67-.48 1.06-1.26 1.04-2.09l-.46-19.85c-.05-2.07 2.3-3.3 3.98-2.08l16.03 11.71c.67.49 1.53.61 2.3.34l18.73-6.57c1.96-.69 3.85 1.17 3.21 3.14l-6.18 18.87c-.26.78-.11 1.64.39 2.3l12.04 15.79c1.26 1.65.08 4.03-2 4.02l-19.85-.05c-.82 0-1.6.4-2.06 1.08l-11.3 16.33c-1.18 1.71-3.8 1.32-4.44-.66Z" class="cls-4bi7"/></svg>