<svg xmlns="http://www.w3.org/2000/svg" viewBox="0 0 1500 1500" width="300" height="300" fill="none"><defs><style>.cls-3bi1{fill:#bd1fff}.cls-3bi2{fill:#ffd41d}</style></defs><path d="M1217.1 278.89H731.15v11h474.95v799.33l11-.16zm-920.68 920.68V405.91l-11 .15v804.51h337.53l-.15-11zm963.94-66.07 2.61 13.63c.11.57.49 1.04 1.02 1.27l12.71 5.58c1.33.58 1.41 2.44.14 3.14l-12.16 6.7c-.5.28-.84.79-.9 1.36l-1.38 13.81c-.14 1.44-1.88 2.1-2.94 1.1l-10.13-9.5c-.42-.39-1.01-.56-1.57-.43l-13.56 2.96c-1.42.31-2.57-1.14-1.96-2.45l5.9-12.57c.24-.52.22-1.13-.07-1.63l-7-11.99c-.73-1.25.29-2.8 1.73-2.62l13.77 1.73c.57.07 1.14-.14 1.52-.57l9.23-10.37c.96-1.08 2.75-.59 3.03.84Z" class="cls-3bi2"/><path d="m1257.6 1143.03 1.5 7.85c.06.33.28.6.58.73l7.32 3.21c.76.34.81 1.4.08 1.81l-7 3.85c-.29.16-.48.45-.52.78l-.79 7.95c-.08.83-1.08 1.21-1.69.63l-5.83-5.47a1 1 0 0 0-.9-.25l-7.81 1.7c-.82.18-1.48-.66-1.13-1.41l3.4-7.23c.14-.3.13-.65-.04-.94l-4.03-6.9c-.42-.72.17-1.61 1-1.51l7.93 1c.33.04.66-.08.88-.33l5.32-5.97c.56-.62 1.58-.34 1.74.48Z" class="cls-3bi1"/><path d="m737.16 1281.27 3.9 10.72c.16.44.53.78.99.9l11.04 2.87c1.15.3 1.46 1.79.52 2.52l-8.99 7.02c-.37.29-.58.75-.55 1.22l.68 11.38c.07 1.19-1.25 1.94-2.24 1.28l-9.45-6.38a1.46 1.46 0 0 0-1.33-.15l-10.61 4.17c-1.11.44-2.24-.59-1.91-1.73l3.15-10.96c.13-.45.03-.94-.27-1.31l-7.24-8.81c-.76-.92-.13-2.31 1.06-2.35l11.4-.39c.47-.02.91-.26 1.16-.66l6.14-9.61c.64-1 2.16-.84 2.56.28Z" class="cls-3bi2"/><path d="m736.17 1289.35 2.24 6.17c.09.26.31.45.57.52l6.35 1.65c.66.17.84 1.03.3 1.45l-5.17 4.04c-.21.17-.33.43-.32.7l.39 6.55a.832.832 0 0 1-1.29.74l-5.44-3.67a.84.84 0 0 0-.77-.08l-6.11 2.4a.829.829 0 0 1-1.1-1l1.81-6.31a.79.79 0 0 0-.16-.75l-4.17-5.07a.825.825 0 0 1 .61-1.35l6.56-.23c.27 0 .52-.15.67-.38l3.53-5.53c.37-.58 1.24-.48 1.48.16Z" class="cls-3bi1"/><path d="m1286.44 1240.49 6.14 23.44c.25.97.97 1.76 1.92 2.1l22.79 8.23c2.38.86 2.74 4.08.61 5.45l-20.4 13.09c-.85.54-1.37 1.47-1.4 2.47l-.79 24.22c-.08 2.53-3.03 3.87-4.99 2.26l-18.75-15.36c-.78-.64-1.82-.85-2.79-.57l-23.28 6.74c-2.43.7-4.62-1.69-3.7-4.05l8.81-22.58c.37-.94.25-1.99-.32-2.83l-13.6-20.06c-1.42-2.1.18-4.91 2.71-4.76l24.19 1.4c1 .06 1.97-.38 2.59-1.18l14.87-19.14c1.55-2 4.73-1.35 5.37 1.1Z" class="cls-3bi2"/><path d="m1282.75 1257.39 3.54 13.5c.15.56.56 1.01 1.1 1.21l13.12 4.74c1.37.5 1.58 2.35.35 3.13l-11.74 7.53c-.49.31-.79.84-.81 1.42l-.45 13.94c-.05 1.46-1.74 2.23-2.87 1.3l-10.79-8.84a1.75 1.75 0 0 0-1.6-.33l-13.4 3.88c-1.4.41-2.66-.97-2.13-2.33l5.07-13c.21-.54.14-1.15-.18-1.63l-7.83-11.55c-.82-1.21.1-2.83 1.56-2.74l13.93.81c.58.03 1.14-.22 1.49-.68l8.56-11.02c.89-1.15 2.72-.78 3.09.63Z" class="cls-3bi1"/><path d="m1139.5 1261.23 14.53 13.64c.6.57 1.45.8 2.25.62l19.47-4.23c2.03-.44 3.69 1.64 2.81 3.52l-8.49 18.03c-.35.75-.31 1.62.1 2.34l10.04 17.21c1.05 1.8-.42 4.02-2.49 3.76l-19.77-2.5c-.82-.1-1.64.2-2.19.82l-13.27 14.87c-1.39 1.55-3.95.84-4.34-1.2l-3.73-19.58a2.5 2.5 0 0 0-1.46-1.83l-18.24-8.02c-1.91-.84-2.02-3.5-.2-4.5l17.46-9.6c.72-.4 1.21-1.13 1.29-1.95l1.99-19.83c.21-2.07 2.7-3.01 4.22-1.58Z" class="cls-3bi2"/><path d="m1144.32 1274.62 8.36 7.85c.35.33.83.46 1.3.36l11.21-2.44c1.17-.25 2.13.94 1.62 2.03l-4.89 10.38c-.2.43-.18.93.06 1.34l5.78 9.91c.6 1.04-.24 2.31-1.43 2.16l-11.38-1.44c-.47-.06-.94.12-1.26.47l-7.64 8.56c-.8.89-2.28.49-2.5-.69l-2.15-11.27c-.09-.47-.4-.86-.84-1.05l-10.5-4.62c-1.1-.48-1.16-2.01-.11-2.59l10.05-5.53c.42-.23.69-.65.74-1.12l1.15-11.41c.12-1.19 1.56-1.73 2.43-.91Z" class="cls-3bi1"/><path d="m697.12 298.35 6.14 23.44c.25.97.97 1.76 1.92 2.1l22.79 8.23c2.38.86 2.74 4.08.61 5.45l-20.4 13.09c-.85.54-1.37 1.47-1.4 2.47l-.79 24.22c-.08 2.53-3.03 3.87-4.99 2.26l-18.75-15.36c-.78-.64-1.82-.85-2.79-.57l-23.28 6.74c-2.43.7-4.62-1.69-3.7-4.05l8.81-22.58c.37-.94.25-1.99-.32-2.83l-13.6-20.06c-1.42-2.1.18-4.91 2.71-4.76l24.19 1.4c1 .06 1.97-.38 2.59-1.18l14.87-19.14c1.55-2 4.73-1.35 5.37 1.1Z" class="cls-3bi2"/><path d="m693.43 315.26 3.54 13.5c.15.56.56 1.01 1.1 1.21l13.12 4.74c1.37.5 1.58 2.35.35 3.13l-11.74 7.53c-.49.31-.79.84-.81 1.42l-.45 13.94c-.05 1.46-1.74 2.23-2.87 1.3l-10.79-8.84a1.75 1.75 0 0 0-1.6-.33l-13.4 3.88c-1.4.41-2.66-.97-2.13-2.33l5.07-13c.21-.54.14-1.15-.18-1.63l-7.83-11.55c-.82-1.21.1-2.83 1.56-2.74l13.93.81c.58.03 1.14-.22 1.49-.68l8.56-11.02c.89-1.15 2.72-.78 3.09.63Z" class="cls-3bi1"/><path d="m236.75 322.49 12 9.32c.5.39 1.15.5 1.76.31l14.48-4.61c1.51-.48 2.92.98 2.38 2.48l-5.15 14.3c-.21.59-.12 1.25.25 1.77l8.86 12.35c.93 1.29-.03 3.08-1.62 3.03l-15.19-.48a1.9 1.9 0 0 0-1.6.78l-9.01 12.24c-.94 1.28-2.94.92-3.38-.6l-4.23-14.59c-.18-.61-.64-1.09-1.24-1.28l-14.42-4.79c-1.51-.5-1.79-2.51-.47-3.4l12.57-8.54c.52-.35.84-.94.84-1.57l.09-15.2c0-1.59 1.84-2.47 3.09-1.5Z" class="cls-3bi2"/><path d="m241.37 332.3 6.91 5.36c.29.22.66.29 1.01.18l8.34-2.65c.87-.28 1.68.57 1.37 1.42l-2.97 8.23c-.12.34-.07.72.14 1.02l5.1 7.11c.53.74-.02 1.77-.93 1.74l-8.74-.28c-.36-.01-.71.16-.92.45l-5.19 7.05c-.54.74-1.69.53-1.95-.35l-2.44-8.4c-.1-.35-.37-.63-.71-.74l-8.3-2.76c-.87-.29-1.03-1.45-.27-1.96l7.24-4.91c.3-.2.48-.54.48-.91l.05-8.75c0-.91 1.06-1.42 1.78-.86Z" class="cls-3bi1"/><path d="m389.49 171.92-1.3 15.14c-.05.63.2 1.24.69 1.64l11.73 9.66c1.23 1.01.76 2.99-.78 3.35l-14.8 3.44c-.61.14-1.12.58-1.35 1.17l-5.56 14.14c-.58 1.48-2.6 1.65-3.42.29l-7.85-13.01c-.33-.54-.9-.89-1.53-.92l-15.17-.91c-1.58-.1-2.37-1.97-1.33-3.17l9.95-11.48c.41-.48.56-1.13.41-1.74l-3.82-14.71c-.4-1.54 1.14-2.86 2.6-2.25l14 5.92c.58.25 1.25.19 1.78-.15l12.81-8.18c1.34-.85 3.08.2 2.94 1.78Z" class="cls-3bi2"/><path d="m383.75 181.14-.75 8.72c-.03.36.12.72.4.95l6.76 5.56c.71.58.44 1.72-.45 1.93l-8.52 1.98c-.35.08-.64.33-.78.67l-3.2 8.14c-.33.85-1.5.95-1.97.17l-4.52-7.49a1.11 1.11 0 0 0-.88-.53l-8.73-.53c-.91-.05-1.37-1.13-.77-1.82l5.73-6.61c.24-.27.33-.65.23-1l-2.2-8.47c-.23-.88.65-1.65 1.5-1.29l8.06 3.41c.33.14.72.11 1.02-.09l7.37-4.71c.77-.49 1.77.11 1.69 1.02Z" class="cls-3bi1"/><path d="m256.8 219.55-10.35 20.57c-.43.85-.41 1.86.05 2.7l11.08 20.19c1.16 2.11-.61 4.63-2.98 4.27l-22.76-3.48c-.94-.14-1.9.18-2.55.88l-15.77 16.78c-1.65 1.75-4.59.85-4.98-1.52l-3.72-22.72c-.15-.94-.76-1.75-1.63-2.16l-20.83-9.82c-2.18-1.03-2.23-4.1-.09-5.21l20.46-10.56c.85-.44 1.43-1.27 1.55-2.21l2.9-22.84c.3-2.39 3.21-3.39 4.92-1.7l16.37 16.2c.68.67 1.65.97 2.58.79l22.62-4.3c2.36-.45 4.22 2.01 3.14 4.16Z" class="cls-3bi2"/><path d="m243.55 229.28-5.96 11.84c-.25.49-.24 1.07.03 1.55l6.38 11.62c.67 1.21-.35 2.67-1.72 2.46l-13.1-2.01a1.69 1.69 0 0 0-1.47.51l-9.08 9.66c-.95 1.01-2.64.49-2.87-.87l-2.14-13.08c-.09-.54-.44-1.01-.94-1.24l-11.99-5.65c-1.25-.59-1.28-2.36-.05-3l11.78-6.08c.49-.25.82-.73.89-1.27l1.67-13.15c.17-1.37 1.85-1.95 2.83-.98l9.42 9.32c.39.39.95.56 1.49.45l13.02-2.48c1.36-.26 2.43 1.16 1.8 2.39Z" class="cls-3bi1"/><path d="m681.21 1216.82 5.82 22.2c.24.92.92 1.66 1.82 1.99l21.58 7.79c2.26.81 2.6 3.86.58 5.16l-19.32 12.39c-.8.51-1.3 1.39-1.33 2.34l-.74 22.94c-.08 2.4-2.87 3.66-4.72 2.14l-17.75-14.54c-.74-.6-1.72-.81-2.64-.54l-22.04 6.38c-2.3.67-4.37-1.6-3.5-3.83l8.34-21.38c.35-.89.23-1.89-.3-2.68l-12.88-18.99c-1.35-1.98.17-4.65 2.56-4.51l22.91 1.33c.95.06 1.87-.36 2.45-1.11l14.08-18.12c1.47-1.89 4.48-1.28 5.08 1.04" class="cls-3bi2"/><path d="m677.71 1232.83 3.35 12.78c.14.53.53.96 1.05 1.14l12.43 4.49c1.3.47 1.5 2.22.33 2.97l-11.12 7.13c-.46.3-.75.8-.77 1.35l-.43 13.2c-.04 1.38-1.65 2.11-2.72 1.23l-10.22-8.37c-.42-.35-.99-.46-1.52-.31l-12.69 3.67c-1.33.38-2.52-.92-2.01-2.21l4.8-12.31c.2-.51.13-1.09-.17-1.54l-7.41-10.93c-.77-1.14.1-2.68 1.47-2.6l13.19.77c.55.03 1.08-.21 1.41-.64l8.11-10.43c.85-1.09 2.58-.74 2.93.6Z" class="cls-3bi1"/><path d="M290.61 332.57c-.89 0-2.54-.34-3.67-2.59-.63-1.26-.95-2.71-.95-4.31 0-.76.08-1.93.24-3.56.15-1.54.26-2.86.34-3.99l.02-.16c.29-1.99.48-3.62.55-4.84.38-4.51.69-8.87.91-12.99.13-2.46.24-4.45.32-5.96-3.99.59-7.82.88-11.44.88-1.86 0-3.49-.49-4.86-1.45-1.56-1.1-2.39-2.75-2.39-4.77 0-1.53.45-2.75 1.33-3.64.91-.91 2.32-1.33 4.44-1.33l6.08.11c2.97.11 5.53.19 7.65.21.3-5.54.46-10.07.46-13.49 0-8.71-.08-16.68-.23-23.67v-4.26c0-1.73.7-3.23 2.04-4.33a6.6 6.6 0 0 1 4.29-1.54c.85 0 2.92.34 3.66 3.48.34 1.45.51 3.06.51 4.79s-.19 5.14-.58 10.41c-.59 11.39-.68 13.59-.68 13.88l-.5 14.23c6.23-.28 15.84-1.18 28.62-2.69.31-2.84.78-8.1 1.4-15.69.3-4.86.57-8.53.8-10.87l.68-8.85c.98-11.1 1.48-18.1 1.48-20.82 0-1.6.65-2.96 1.89-3.96 1.12-.9 2.42-1.35 3.87-1.35s4.05.78 4.05 5.99c0 1.75-.38 6.18-1.15 13.55-.83 9.34-1.29 14.62-1.36 15.66l-1.31 16.78q-.39 4.995-.63 7.95c.22-.08.44-.16.64-.25l.16-.06c1.59-.53 2.84-.79 3.82-.79 1.29 0 2.59.62 3.98 1.9 1.28 1.18 2.12 2.21 2.12 3.41s-.52 3.46-4.01 4.53c-1.52.5-3.36.82-5.45.95-.78.05-1.45.08-2.01.11-.09 1.89-.22 3.93-.39 6.09l-.57 7.18-.34 3.57-.22 3.58-.69 8.81c-.5 6.33-3.4 7.66-5.76 7.66s-3.57-2.37-4.3-4.15c-.91-2.2-1.35-4-1.35-5.49 0-.77.35-1.59 1.25-2.94.42-.64.7-1.49.82-2.53.3-2.13.64-5.66 1.02-10.53.29-3.81.52-7.19.68-10.09-2.27.21-4.68.49-7.2.82l-10.33 1.03c-4.35.44-7.99.75-10.85.93-.28 4.65-.58 10.21-.92 16.56-.47 8.87-.57 12.03-.57 13.12 0 .33.04.95.25 2.02.22 1.13.32 2 .32 2.66 0 1.39-.82 2.64-2.43 3.72-1.39.93-2.53 1.36-3.56 1.36Zm-.06-14.1c-.08 1.14-.19 2.48-.34 4.03-.18 1.84-.22 2.74-.22 3.17 0 .97.18 1.82.53 2.52.09.17.16.28.21.35.18-.06.57-.22 1.23-.66.39-.26.57-.45.64-.54-.01-.31-.07-.84-.25-1.75-.22-1.12-.32-2.03-.32-2.77 0-1.65.19-6.14.57-13.33s.72-13.38 1.03-18.37l.11-1.79 1.79-.09c3-.15 7.18-.49 12.44-1.02l10.26-1.03c3.38-.45 6.64-.8 9.62-1.03l2.25-.17-.1 2.26c-.16 3.39-.43 7.59-.8 12.49-.38 4.96-.73 8.57-1.04 10.73-.18 1.62-.67 3.07-1.46 4.25-.34.51-.5.8-.57.94.04.69.27 1.86 1.04 3.74.4.97.71 1.43.87 1.63 1-.3 1.37-2.26 1.5-3.93l.68-8.78.23-3.62.35-3.6.57-7.15c.22-2.83.37-5.44.45-7.77l.06-1.93h1.94c.56 0 1.81-.06 3.7-.17 1.75-.1 3.25-.36 4.44-.76l.05-.02c.41-.12.84-.31 1.05-.49-.15-.16-.36-.39-.69-.69-.86-.79-1.26-.84-1.27-.84-.3 0-1.01.07-2.48.56-1.19.5-2.54.88-4.03 1.13l-2.53.42.21-2.56c.15-1.82.44-5.39.85-10.71l1.31-16.76c.07-1.07.52-6.23 1.37-15.75.75-7.16 1.13-11.57 1.13-13.16 0-1.18-.15-1.74-.25-1.98-.45.03-.82.18-1.18.47-.28.23-.39.45-.39.83 0 2.88-.49 9.8-1.49 21.15l-.68 8.87c-.23 2.33-.5 5.95-.8 10.8-.77 9.51-1.3 15.21-1.61 17.48l-.21 1.53-1.53.18c-15.27 1.82-26.27 2.83-32.68 2.98l-2.12.05.64-18.42c0-.3.07-2.16.69-14.06.38-5.14.57-8.55.57-10.16 0-1.43-.14-2.73-.4-3.88-.04-.16-.08-.28-.11-.38-.52.06-.97.25-1.4.61-.42.34-.59.71-.59 1.25v4.22c.15 6.98.23 14.97.23 23.71 0 3.88-.19 9.13-.57 15.62l-.11 1.88h-1.89c-2.48 0-5.72-.08-9.65-.23l-6-.11c-1.26 0-1.64.21-1.64.22 0 0-.08.23-.08.75 0 .89.33 1.25.69 1.5.69.48 1.52.72 2.55.72 4.13 0 8.57-.41 13.22-1.22l2.47-.43-.13 2.51c-.08 1.45-.23 4.26-.46 8.44-.23 4.16-.53 8.55-.92 13.06-.08 1.29-.26 2.96-.57 5.06Zm80.55 11.94c-1.3 0-2.43-.38-3.36-1.12-.73-.59-1.61-1.67-1.61-3.5 0-.74.17-2.08 1.47-5.94 1.17-3.45 1.48-4.46 1.57-4.76l.06-.18c.2-.5.67-1.8 1.78-5.14.99-2.96 2.28-6.6 3.84-10.83q1.05-2.85 1.8-4.86c-2.05.5-3.69.92-4.92 1.27-4.06 1.07-5.26 1.21-5.9 1.21-1.51 0-2.78-.67-3.56-1.89-.63-.96-.95-2.04-.95-3.19 0-1.96.81-2.97 1.49-3.48.67-.5 1.6-.91 2.93-1.29 2.99-.71 6.09-1.4 9.31-2.09 2.43-.52 4.27-.9 5.56-1.15.56-1.68.99-3.13 1.29-4.33l.03-.1c.31-1 .71-2.25 1.21-3.75.48-1.45 1.03-3.27 1.62-5.43l1.72-5.85c2.87-10.12 4.56-16 5.03-17.48.44-1.24.84-2.16 1.25-2.88.7-1.25 1.83-1.93 3.17-1.93 1.18 0 2.3.12 3.35.37.52-.69 1.12-1.19 1.81-1.5s1.5-.46 2.48-.46c2.19 0 4.24 1.8 6.47 5.68 1.83 3.2 3.62 7.01 5.31 11.32 1 2.54 2.28 6.36 3.81 11.38 1.13 3.71 1.94 6.37 2.47 8.16.31-.07.6-.15.86-.24l1.47-.49c.11-.05.33-.17.68-.46.58-.49 1.12-.85 1.64-1.11.95-.47 2.03-.45 3.04.06.93.43 2.59 1.64 2.59 4.64 0 .8-.19 1.65-.56 2.51-.41.93-.98 1.66-1.71 2.17-.83.66-2.11 1.15-4.11 1.56-.53.11-1.01.2-1.43.29.28 1.32.39 1.8.43 1.97l.02.09c.55 1.97 1.12 4.6 1.75 8.05 1.35 7.6 2.76 14.14 4.18 19.45.59 2.71.64 3.26.64 3.6 0 1.34-.55 2.53-1.59 3.44-.97.85-2.18 1.29-3.48 1.29-.97 0-2.39-.34-3.64-1.99-.73-.96-1.23-1.82-1.54-2.62l-.06-.19c-.7-2.64-1.34-5.61-1.92-8.82-.57-3.2-1.24-7.04-2-11.53-.3-1.96-.79-4.38-1.46-7.23-.39-1.65-.7-2.97-.94-3.98-4.63.67-11.78 1.8-21.3 3.39l-5.45.94-2 5.62-3.19 9.11c-2.62 8.15-4.52 14.55-5.65 18.98a7.45 7.45 0 0 1-1.85 3.56c-1.06 1.12-2.43 1.71-3.96 1.71Zm1.89-14.12c-.2.65-.73 2.28-1.6 4.83-1.2 3.55-1.26 4.51-1.26 4.66 0 .29.07.34.1.38.13.11.36.25.86.25.44 0 .75-.14 1.06-.46.43-.45.71-1.02.86-1.72 1.16-4.59 3.09-11.07 5.75-19.34l6-17.01 7.76-1.34c10.89-1.82 18.7-3.05 23.21-3.66l1.78-.24.43 1.74c.23.92.69 2.85 1.37 5.79.69 2.95 1.2 5.48 1.51 7.5.75 4.45 1.42 8.28 1.99 11.47.55 3.07 1.16 5.89 1.82 8.39.12.3.39.79.94 1.52.23.3.4.41.46.41.35 0 .61-.09.85-.31.21-.18.23-.3.23-.43 0-.02-.06-.49-.52-2.65-1.43-5.33-2.86-11.98-4.23-19.68-.6-3.27-1.16-5.85-1.67-7.68h.03c-.13-.39-.22-.79-.3-1.17-.15-.71-.38-1.77-.67-3.18l-.45-2.13 1.32-.16v-1.17s-.09.01-.13.02l-1.71.23-.47-1.66c-.44-1.53-1.4-4.74-2.95-9.83-1.5-4.91-2.75-8.64-3.71-11.08-1.62-4.14-3.33-7.77-5.06-10.8-1.99-3.47-3-3.67-3.01-3.67-.55 0-.77.09-.81.11s-.16.12-.32.34c-.07.11-.14.2-.21.3 1.36 1.02 2.82 2.97 4.58 6.08 1.71 3.04 3.14 6.05 4.23 8.94 1.08 2.77 2.25 6.42 3.48 10.83s3 10.79 3 10.79l-5.32.79-10.93 1.71-16.53 2.83.98-3.12c3.93-12.55 6.85-21.69 8.68-27.17.77-2.4 1.92-5.12 3.39-8.07l1.01-2.38c-.78-.22-1.64-.35-2.58-.37-.29.54-.58 1.23-.89 2.09-.43 1.37-2.11 7.22-4.98 17.32l-1.72 5.83c-.6 2.19-1.17 4.08-1.67 5.6-.48 1.44-.87 2.65-1.17 3.61-.39 1.56-.98 3.47-1.75 5.7l-.38 1.1-1.14.21c-1.19.22-3.42.68-6.62 1.36-3.19.68-6.26 1.36-9.13 2.04-.78.23-1.2.42-1.4.53-.01.07-.03.19-.03.37 0 .38.1.7.3 1.02.03.04.09.06.2.06.13 0 .99-.06 4.85-1.07 1.91-.53 4.85-1.27 8.72-2.18l3.7-.87-1.38 3.54c-.54 1.38-1.62 4.27-3.12 8.35-1.55 4.19-2.83 7.8-3.8 10.71-.9 2.69-1.5 4.41-1.83 5.26Zm28.5-66.34-.11.24c-1.39 2.79-2.47 5.34-3.19 7.58-1.67 5.01-4.25 13.06-7.68 24l10.11-1.73 11.83-1.84-1.79-6.42c-1.19-4.28-2.32-7.8-3.36-10.47-1.03-2.72-2.37-5.54-3.98-8.41-.72-1.28-1.33-2.24-1.83-2.95m21.08 30.59.33 1.18 1.83-.36c1.93-.4 2.39-.75 2.41-.76l.19-.14c.16-.1.28-.33.36-.5.15-.35.23-.66.23-.91 0-.54-.09-.8-.18-.92-.14.1-.32.23-.53.4-.62.52-1.21.88-1.79 1.12l-.11.04-1.54.51c-.37.12-.77.24-1.2.34m48.27 40.75c-1.01 0-3.44-.39-4.13-4.02l-.03-.37s-.04-.34-.26-1.74c-.21-1.33-.31-3.11-.31-5.44 0-5.89-.23-15.68-.68-29.12-.23-6.84-.34-11.77-.34-14.66 0-2.47.04-4.78.12-6.86.02-.57.04-1.09.05-1.55-3.61 1.04-6.82 2.1-9.58 3.18-1.07.51-2.61 1.35-4.56 2.5-.93.54-1.86 1.06-2.77 1.53-1.19.62-2.12.91-2.92.91s-2.05-.26-3.11-1.5c-.76-.89-1.17-2.01-1.17-3.24 0-1.89 1.62-3.53 5.42-5.48 2.97-1.52 6.61-3 10.83-4.39 4.2-1.39 8.14-2.44 11.7-3.14 4.23-.78 8.96-1.18 14.06-1.18 7.17 0 12.93.96 17.12 2.86 5.87 2.66 7.1 6.83 7.1 9.86 0 5.06-2.07 9.46-6.15 13.07-3.78 3.35-9.1 6.55-15.79 9.51-2.35 1.06-4.81 2.08-7.29 3.01-1.43.54-2.57.95-3.43 1.26.34 8.65.51 16.15.51 22.29 0 1.88.21 3.39.61 4.49.72 1.94.87 2.7.87 3.26 0 1.05-.37 2.56-2.13 3.76-1.17.8-2.43 1.2-3.75 1.2Zm-.18-4.65c.08.37.17.56.22.65.51-.01.97-.18 1.45-.51.38-.26.38-.4.38-.46 0 .04-.07-.39-.62-1.87-.58-1.56-.87-3.49-.87-5.88 0-6.45-.19-14.4-.57-23.63l-.06-1.55 1.49-.45c.71-.21 2.28-.78 4.66-1.67 2.39-.9 4.77-1.88 7.06-2.91 6.33-2.8 11.3-5.77 14.77-8.85 3.23-2.86 4.8-6.15 4.8-10.07 0-1.75-.49-4.29-4.75-6.21-3.68-1.66-8.88-2.5-15.48-2.5-4.86 0-9.34.37-13.32 1.11-3.38.66-7.15 1.68-11.19 3.01-4.02 1.33-7.47 2.73-10.26 4.16-2.29 1.18-3.02 1.89-3.23 2.14.03.21.11.33.19.42.06.07.09.1.11.11.02-.02.33-.1 1.04-.46.86-.45 1.73-.93 2.59-1.44 2.12-1.25 3.74-2.14 4.95-2.71l.12-.05c3.54-1.38 7.79-2.75 12.63-4.06l2.52-.68v2.61c0 .77-.04 2.15-.11 4.35-.07 2.03-.11 4.29-.11 6.71 0 2.84.11 7.73.34 14.53.45 13.48.68 23.32.68 29.25 0 2.09.09 3.72.26 4.82.2 1.3.27 1.82.3 2.1Zm-.45-34.71v-2.2c0-2.75-.04-5.06-.11-6.87l-.12-8.38c0-2.02.06-4.17.17-6.4.12-2.27.21-3.7.3-4.36l.19-1.54 1.54-.19c3.71-.46 7.4-.7 10.96-.7 4.97 0 9.25.57 12.7 1.69 5.19 1.69 6.28 4.94 6.28 7.37 0 3.67-1.98 7.09-5.89 10.18-3.54 2.79-7.94 5.35-13.09 7.61-7.24 2.98-9.61 3.47-10.76 3.58l-2.19.21Zm4.08-26.17c-.04.61-.09 1.43-.14 2.52-.11 2.17-.17 4.24-.17 6.17l.11 8.29c.05 1.24.09 2.75.1 4.47 1.48-.45 3.79-1.27 7.4-2.76 4.79-2.11 8.91-4.49 12.18-7.07 2.9-2.29 4.37-4.65 4.37-7.04 0-1.13-.4-2.55-3.52-3.57-3.05-.99-6.91-1.5-11.46-1.5-2.88 0-5.86.16-8.86.48Zm71.34 65.53c-1.01 0-3.44-.39-4.13-4.02l-.03-.37s-.04-.34-.26-1.74c-.21-1.33-.31-3.11-.31-5.44 0-5.89-.23-15.68-.68-29.12-.23-6.84-.34-11.77-.34-14.66 0-2.47.04-4.78.12-6.86.02-.57.04-1.09.05-1.55-3.61 1.04-6.82 2.1-9.58 3.18-1.07.51-2.61 1.35-4.56 2.5-.93.54-1.86 1.06-2.77 1.53-1.19.62-2.12.91-2.92.91s-2.05-.26-3.11-1.5c-.76-.89-1.17-2.01-1.17-3.24 0-1.89 1.62-3.53 5.42-5.48 2.97-1.52 6.61-3 10.83-4.39 4.2-1.39 8.14-2.44 11.7-3.14 4.23-.78 8.96-1.18 14.06-1.18 7.17 0 12.93.96 17.12 2.86 5.87 2.66 7.1 6.83 7.1 9.86 0 5.06-2.07 9.46-6.15 13.07-3.78 3.35-9.1 6.55-15.79 9.51-2.35 1.06-4.81 2.08-7.29 3.01-1.43.54-2.57.95-3.43 1.26.34 8.65.51 16.15.51 22.29 0 1.88.21 3.39.61 4.49.72 1.94.87 2.7.87 3.26 0 1.05-.37 2.56-2.13 3.76-1.17.8-2.43 1.2-3.75 1.2Zm-.18-4.65c.08.37.17.56.22.65.51-.01.97-.18 1.45-.51.38-.26.38-.4.38-.46 0 .04-.07-.39-.62-1.87-.58-1.56-.87-3.49-.87-5.88 0-6.45-.19-14.4-.57-23.63l-.06-1.55 1.49-.45c.71-.21 2.28-.78 4.66-1.67 2.39-.9 4.77-1.88 7.06-2.91 6.33-2.8 11.3-5.77 14.77-8.85 3.23-2.86 4.8-6.15 4.8-10.07 0-1.75-.49-4.29-4.75-6.21-3.68-1.66-8.88-2.5-15.48-2.5-4.86 0-9.34.37-13.32 1.11-3.38.66-7.15 1.68-11.19 3.01-4.02 1.33-7.47 2.73-10.26 4.16-2.29 1.18-3.02 1.89-3.23 2.14.03.21.11.33.19.42.06.07.09.1.11.11.02-.02.33-.1 1.04-.46.86-.45 1.73-.93 2.59-1.44 2.12-1.25 3.74-2.14 4.95-2.71l.12-.05c3.54-1.38 7.79-2.75 12.63-4.06l2.52-.68v2.61c0 .77-.04 2.15-.11 4.35-.07 2.03-.11 4.29-.11 6.71 0 2.84.11 7.73.34 14.53.45 13.48.68 23.32.68 29.25 0 2.09.09 3.72.26 4.82.2 1.3.27 1.82.3 2.1Zm-.45-34.71v-2.2c0-2.75-.04-5.06-.11-6.87l-.12-8.38c0-2.02.06-4.17.17-6.4.12-2.27.21-3.7.3-4.36l.19-1.54 1.54-.19c3.71-.46 7.4-.7 10.96-.7 4.97 0 9.25.57 12.7 1.69 5.19 1.69 6.28 4.94 6.28 7.37 0 3.67-1.98 7.09-5.89 10.18-3.54 2.79-7.94 5.35-13.09 7.61-7.24 2.98-9.61 3.47-10.76 3.58l-2.19.21Zm4.08-26.17c-.04.61-.09 1.43-.14 2.52-.11 2.17-.17 4.24-.17 6.17l.11 8.29c.05 1.24.09 2.75.1 4.47 1.48-.45 3.79-1.27 7.4-2.76 4.79-2.11 8.91-4.49 12.18-7.07 2.9-2.29 4.37-4.65 4.37-7.04 0-1.13-.4-2.55-3.52-3.57-3.05-.99-6.91-1.5-11.46-1.5-2.88 0-5.86.16-8.86.48ZM626 318.55c-3.16 0-4.28-2.03-4.28-3.94 0-1.16.3-4.24 2.89-17.54 1.2-6.18 2.29-11.5 3.26-15.91l-.17.14c-1.8 1.42-4.02 2.14-6.6 2.14-3.8 0-7.37-2.67-10.91-8.15-3.15-4.88-6.34-10.81-9.48-17.63l-1.11-2.22c-1.04-2.15-2.07-3.98-3.07-5.49-1.76-2.63-1.93-3.17-1.93-3.85 0-.47.16-2.06 2.22-2.75.78-.26 1.63-.39 2.52-.39 3.43 0 6.24 2.75 8.57 8.42 2.69 6.42 5.4 12.05 8.04 16.7 1.58 2.79 4.02 6.11 6.64 6.11 1.4 0 2.61-.47 3.68-1.43 1.26-1.13 2.3-2.47 3.09-3.99.8-1.52 1.78-3.76 2.94-6.65 1.15-2.91 2.04-5.32 2.63-7.17 2.99-8.97 3.79-11.71 3.93-12.44.43-1.81.81-3.04 1.18-3.82.63-1.35 1.83-2.12 3.29-2.12 1.27 0 2.48.42 3.59 1.25 1.6 1.21 1.94 2.62 1.94 3.6 0 1.49-.26 3.07-.78 4.71-.47 1.48-1.23 3.61-2.32 6.49-.84 1.98-1.9 4.82-3.17 8.5-3.29 9.63-5.83 20.44-7.55 32.13-.22 1.91-.45 4.02-.67 6.29-.22 2.21-.33 4.1-.33 5.61 0 .51.17.99.51 1.49.9 1.32 1.2 2.01 1.2 2.72 0 1-.56 2.08-1.95 3.74a27 27 0 0 1-3.58 3.52c-1.62 1.32-2.96 1.93-4.22 1.93m-.28-4.01c.07 0 .16.01.28.01 0 0 .5-.05 1.7-1.03 1.11-.9 2.13-1.91 3.03-2.98.43-.52.69-.88.85-1.11-.08-.13-.2-.31-.34-.52-.8-1.17-1.2-2.43-1.2-3.75 0-1.65.12-3.67.35-6.01q.345-3.435.69-6.42c1.76-11.98 4.36-23.03 7.73-32.91 1.33-3.83 2.39-6.67 3.24-8.68 1.02-2.7 1.77-4.81 2.21-6.2.39-1.24.59-2.42.59-3.5 0-.13-.28-.35-.34-.4-.39-.29-.71-.4-.95-.44-.17.41-.43 1.22-.81 2.78-.14.72-.73 2.91-4.04 12.82-.61 1.91-1.53 4.41-2.72 7.4-.99 2.5-1.85 4.49-2.61 6.04l1.83-2.06-1.94 7.85c-1.28 5.19-2.88 12.74-4.77 22.42-2.27 11.68-2.79 15.54-2.81 16.7Zm-26.37-67.58c.14.22.31.47.5.77 1.1 1.66 2.22 3.65 3.33 5.94l1.13 2.26c3.09 6.71 6.19 12.47 9.24 17.19 2.67 4.14 5.28 6.32 7.55 6.32 1.68 0 3.03-.42 4.12-1.28q.315-.255.66-.54c-1.03.38-2.13.58-3.29.58-3.7 0-7.01-2.66-10.12-8.14-2.72-4.8-5.5-10.56-8.26-17.14-1.58-3.83-3.3-5.94-4.86-5.95Zm138.19 997.29c-1.19 0-2.26-.34-3.18-1.01-.77-.56-1.67-1.62-1.67-3.5 0-1.75.69-3.34 1.99-4.58 1.12-1.07 2.59-1.93 4.37-2.55.79-.32 1.94-.65 3.42-.98 1.63-.29 3.02-.72 4.21-1.32 2.45-1.23 5.39-3.17 8.73-5.77 3.35-2.61 6.01-4.97 7.92-7.02 3.17-3.4 5.61-6.42 7.24-9 1.52-2.39 2.25-4.78 2.25-7.31 0-.7-.19-1.22-1.14-1.67-1.24-.59-2.83-.89-4.73-.89-5.33 0-10.24.94-14.61 2.8-1.98.88-3.37 1.52-4.11 1.89-2.81 1.25-5.1 2.22-6.89 2.92a98 98 0 0 1-5.83 2.04c-.86.27-1.59.5-2.17.69l.15 2.93c0 1.09.06 2.9.17 5.38.11 2.52.17 4.93.17 7.16 0 5.37-.4 9.82-1.19 13.22l-.03.1c-.39 1.35-.85 2.33-1.41 3.01-.78.93-2.02 1.4-3.7 1.4-1.12 0-2.18-.36-3.14-1.08-1.1-.83-1.71-2-1.71-3.31 0-.35 0-.63 1.11-4.43.63-2.16.95-4.08.95-5.71 0-5.85-.27-13.44-.79-22.57l-.34-5.23c-.46-5-.69-9.05-.69-11.99 0-2.25.16-5.13.46-8.56.13-1.45.25-2.67.35-3.69-2.27.76-4.92 1.81-7.92 3.14-1.21.5-2.78 1.4-4.71 2.68-2.98 1.91-4.19 2.16-4.99 2.16s-2.05-.26-3.11-1.5c-.76-.89-1.17-2.01-1.17-3.24 0-2.46 2.56-4.6 8.82-7.41 5.15-2.31 10.84-4.37 16.9-6.14 5.43-1.61 10.33-2.81 14.57-3.58 4.28-.78 8.74-1.17 13.24-1.17s8.09.88 11.09 2.6c3.3 1.91 5.05 4.77 5.05 8.29 0 5.94-2.63 12.04-7.83 18.2 1.32-.09 2.58-.13 3.78-.13 3.83 0 7.2.82 10 2.43 2.17 1.25 4.76 3.83 4.76 9.03 0 4.06-1.47 8.15-4.37 12.17-2.71 3.76-6.46 8.04-11.15 12.73-3.48 3.48-7.64 6.93-12.35 10.25-3.1 2.17-6.19 4.06-9.18 5.61-3.25 1.69-5.73 2.51-7.59 2.51m29.41-49.6c2.49 0 4.66.43 6.44 1.28 2.21 1.05 3.42 2.93 3.42 5.28 0 3.26-.97 6.44-2.88 9.45-1.77 2.79-4.36 6.01-7.69 9.59-2.04 2.2-4.87 4.71-8.38 7.45-3.55 2.77-6.71 4.85-9.4 6.2-1.54.77-3.3 1.33-5.23 1.66-1.16.26-2.13.54-2.79.8-1.32.46-2.3 1.03-3.01 1.7-.52.5-.75 1.02-.75 1.69 0 .2.03.27.04.27.23.16.48.24.81.24.67 0 2.3-.27 5.75-2.06 2.83-1.47 5.77-3.27 8.72-5.34 4.52-3.18 8.49-6.48 11.82-9.81 4.54-4.54 8.15-8.66 10.74-12.24 2.4-3.32 3.61-6.63 3.61-9.83 0-2.71-.88-4.48-2.76-5.56-2.19-1.26-4.89-1.9-8.01-1.9-2.56 0-5.46.22-8.61.66l-6.02.84 4.34-4.25c6.86-6.72 10.34-13.22 10.34-19.32 0-2.09-.97-3.62-3.05-4.82-2.38-1.37-5.44-2.07-9.09-2.07-4.26 0-8.48.37-12.52 1.11-4.09.74-8.86 1.92-14.15 3.48-5.9 1.72-11.41 3.72-16.39 5.95-5.19 2.32-6.26 3.6-6.45 3.9.02.26.11.4.2.5.04.04.06.07.08.09.24-.07.99-.34 2.79-1.49 2.15-1.43 3.9-2.43 5.33-3.01 4.51-1.99 8.33-3.41 11.31-4.19l2.92-.77-.43 2.99c-.15 1.01-.37 3.22-.67 6.56-.3 3.31-.45 6.07-.45 8.2 0 2.81.23 6.74.68 11.68l.35 5.3c.53 9.22.8 16.89.8 22.82 0 2.01-.37 4.3-1.1 6.83-.63 2.17-.85 3.02-.92 3.35.02.02.05.04.09.08.34.26.58.28.74.28.38 0 .6-.04.7-.07.11-.17.31-.57.55-1.4.71-3.1 1.08-7.23 1.08-12.26 0-2.17-.06-4.52-.17-6.98-.11-2.54-.17-4.34-.17-5.51l-.3-5.74 1.37-.52c.64-.24 1.87-.64 3.75-1.23 1.78-.56 3.66-1.21 5.58-1.95 1.72-.67 3.96-1.62 6.63-2.81.72-.36 2.13-1.01 4.22-1.94 4.89-2.09 10.33-3.14 16.2-3.14Zm-38.35 10-.13-2.07c-.46-7.53-.69-13.87-.69-18.82 0-3.65.67-8.18 2-13.48l.27-1.08 1.06-.34c2.7-.87 6.39-1.66 11.26-2.41 4.79-.73 8.84-1.11 12.05-1.11s5.96.55 8.02 1.67c2.4 1.31 3.67 3.35 3.67 5.92 0 5.69-2.61 11.22-7.76 16.45-4.95 5.03-11.23 9.17-18.66 12.3-1.49.63-3.15 1.23-4.91 1.78-1.88.59-3.19.9-4.1.99l-2.07.2Zm4.8-32.3c-1.07 4.5-1.61 8.34-1.61 11.41 0 4.35.18 9.81.54 16.25.36-.1.77-.22 1.25-.37 1.64-.51 3.17-1.06 4.55-1.64 6.94-2.92 12.78-6.76 17.36-11.42 4.39-4.45 6.61-9.04 6.61-13.65 0-.76-.19-1.65-1.58-2.4-1.45-.78-3.5-1.18-6.11-1.18-3 0-6.85.36-11.44 1.06-3.97.61-7.18 1.26-9.57 1.94m76.57 68.61c-.18 0-.37 0-.56-.03-3.16-.23-3.84-4.85-4.14-6.83-.5-3.39-1.03-9.86-1.56-19.22-.3-6.12-.57-12.21-.8-18.11-.23-6.04-.38-10.5-.46-13.65 0-1.28.23-2.25.71-3 .45-.71 1.38-1.55 3.23-1.55 2.64 0 4.49 1.27 5.21 3.56.53 1.68.78 4.52.78 8.93l-.11 13.47c0 7.56.23 13.7.68 18.26v.13c.04.27.19 1.5 1.01 7.07.56 3.35.82 5.48.82 6.68 0 1.43-.67 2.66-1.88 3.45-.88.57-1.86.85-2.92.85Zm-3.49-58.38q-.03.18-.03.51c.07 3.08.22 7.53.45 13.54.23 5.88.5 11.96.8 18.05.52 9.22 1.03 15.57 1.52 18.84.32 2.16.69 3.08.88 3.43.3-.02.48-.12.61-.2a.2.2 0 0 0 .07-.06c-.01-.68-.15-2.26-.79-6.09-.89-6.04-1.03-7.14-1.05-7.49-.46-4.67-.69-10.93-.69-18.6l.11-13.47c0-4.82-.32-6.85-.59-7.7-.11-.35-.24-.75-1.31-.77Zm3.25 54.37h.03zm-3.56-68.28c-1.75 0-3.5-.69-5.18-2.04-1.18-.94-2.74-2.4-2.74-4.18 0-1.4.61-2.69 1.82-3.84 1.18-1.12 2.47-1.69 3.83-1.69h.33l.31.1c1.46.49 2.71 1.29 3.69 2.37.61.61 1.35 1.48 2.16 2.52 1.19 1.55 1.56 2.26 1.56 3.04 0 1.39-.75 3.71-5.76 3.71Zm-3.91-6.36c.11.17.42.56 1.23 1.2.96.77 1.86 1.16 2.68 1.16.52 0 .92-.03 1.22-.07-.06-.08-.12-.16-.19-.25-.7-.91-1.33-1.65-1.88-2.2-.5-.54-1.04-.92-1.68-1.19-.3.1-.6.34-.82.55s-.49.51-.56.8m41.75 78.07c-3.73 0-4.31-5.24-4.5-6.97-.39-3.51-.62-8.66-.7-15.3-.08-1.62-.13-3.99-.17-7.18-.04-3.13-.13-6.87-.28-11.13-.23-6.53-.34-11.27-.34-14.09s1.94-4.62 5.19-4.62c2.2 0 3.8 1.19 4.28 3.18.31 1.29.46 3.45.46 6.8v8.6c1.2-2.41 2.44-4.65 3.71-6.69 2.75-4.4 5.5-7.83 8.18-10.19 2.95-2.6 5.6-3.86 8.1-3.86 1.97 0 3.88.45 5.68 1.35 1.79.9 3.24 2.06 4.34 3.47 1.19 1.53 1.79 3.08 1.79 4.59 0 1.28-.68 2.53-2.07 3.81-1.35 1.24-2.59 1.84-3.8 1.84-.72 0-1.81-.21-2.9-1.21-.6-.55-1.22-1.28-1.92-2.23q-.585-.825-1.53-1.41c-.56-.34-1.1-.51-1.64-.51-.37 0-2.45.38-7.21 7.8-3.58 5.6-7.15 12.73-10.61 21.21.08 1.64.2 3.65.38 6.12.19 2.67.32 4.66.4 5.95l.35 4.68c0 1.41-.32 2.68-.95 3.79-.57 1.01-1.78 2.2-4.24 2.2m-.8-55.29c-.9 0-1.13.2-1.13.2s-.06.1-.06.42c0 2.78.11 7.47.34 13.95.15 4.28.25 8.06.29 11.22.04 3.1.1 5.49.17 7.11.08 6.58.3 11.6.67 14.98.24 2.21.62 3.09.8 3.39.2-.02.43-.07.49-.18.27-.48.41-1.05.42-1.73l-.34-4.48c-.08-1.32-.21-3.28-.4-5.94-.13-1.81-.23-3.38-.31-4.74l-.21.54v-28.77c0-3.66-.19-5.21-.34-5.86a.4.4 0 0 0-.03-.1c-.02 0-.14-.02-.36-.02Zm22.69-.47c1.28 0 2.53.37 3.72 1.09 1.11.68 2.02 1.52 2.71 2.5.51.7.97 1.25 1.37 1.62.12.11.19.15.21.16.01-.02.37-.14 1.07-.78.69-.63.79-.95.79-.95 0-.52-.33-1.24-.96-2.05-.72-.93-1.72-1.72-2.96-2.34-1.25-.62-2.53-.93-3.89-.93-1.45 0-3.33.99-5.46 2.86-.04.04-.08.07-.13.11 1.24-.86 2.4-1.28 3.54-1.28Zm54.49 55.41c-.94 0-1.79-.31-2.46-.89-.56-.49-1.01-1.18-1.35-2.11-.5-1.16-.97-3.26-1.42-6.35-.42-2.92-.75-6.19-.98-9.73-.23-3.11-.4-6.8-.52-10.96-.09-3.32-.15-6.58-.17-9.72-3.47.6-7.06 1.3-10.69 2.1-5.55 1.15-6.98 1.3-7.61 1.3-1.31 0-2.55-.38-3.68-1.14-1.34-.89-2.09-2.25-2.09-3.83 0-2.42 1.39-3.4 2.21-3.76.97-.43 2.31-.63 4.23-.63 1.01 0 2.58-.2 4.64-.59 2.69-.51 3.71-.73 4.1-.83l.11-.02c3.87-.75 6.75-1.29 8.73-1.65-.03-1.27-.1-2.77-.2-4.48-.15-3.51-.23-6.23-.23-8.1 0-3.07.1-5.4.3-7.13.21-1.81.62-3.46 1.22-4.92.9-2.26 2.78-3.52 5.27-3.52 1.25 0 2.16.3 2.78.93.62.62.93 1.5.93 2.67 0 .42-.07 1.26-.6 4.33-.36 2.08-.54 4.91-.54 8.44 0 2.79.08 5.94.23 9.37l.03.81c3.73-.69 9.7-1.95 17.79-3.78.05-.06.17-.21.31-.51.77-1.68 1.82-2.53 3.13-2.53 1.41 0 2.77.7 4.04 2.07 1.22 1.33 1.84 2.76 1.84 4.26 0 1.99-.9 3.61-2.6 4.66-1.38.86-3.53 1.45-6.78 1.88-6.9 1.2-10.81 1.89-11.65 2.04l-5.76.98c.01 3.43.07 7.01.17 10.68.11 4.26.28 8.07.51 11.31.29 4.23.8 7.48 1.5 9.67 1.02 3.18 1.23 3.86 1.29 4.12l.06.24v.25c0 1-.4 2.47-2.3 3.76-1.29.87-2.57 1.32-3.8 1.32Zm-2.9-44.48v2.35c0 3.82.06 7.84.17 11.97.11 4.1.28 7.73.51 10.8.22 3.45.54 6.62.95 9.44.49 3.36.9 4.81 1.17 5.43.09.25.17.4.22.49.41-.04.9-.25 1.44-.62.25-.17.4-.31.48-.4-.15-.49-.46-1.47-1.09-3.43-.82-2.53-1.37-6.01-1.69-10.62-.23-3.3-.4-7.16-.52-11.48-.11-4.32-.17-8.52-.17-12.48v-1.69l9.08-1.54c.81-.15 4.73-.83 11.73-2.05 3.47-.46 4.79-1.03 5.27-1.32.52-.32.71-.66.71-1.27 0-.46-.26-.99-.79-1.55-.23-.25-.43-.43-.6-.55-.68 1.47-1.65 2.37-2.86 2.67-10.31 2.33-16.99 3.71-20.47 4.25l-2.22.35-.2-5.33c-.15-3.48-.23-6.69-.23-9.54 0-3.81.2-6.79.6-9.12.32-1.84.45-2.77.5-3.23-.63.07-.98.36-1.24 1.01-.47 1.14-.79 2.44-.95 3.88-.18 1.55-.27 3.79-.27 6.67 0 1.81.08 4.47.23 7.89.15 2.59.23 4.74.23 6.36v1.69l-1.67.28c-1.78.3-5.24.94-10.27 1.92-.68.17-2.08.45-4.28.87-2.34.45-4.11.66-5.39.66-1.43 0-2.13.13-2.44.22v.17c0 .18.01.31.3.5.48.32.94.46 1.46.46.22 0 1.36-.09 6.78-1.21 4.49-.99 8.94-1.84 13.2-2.52l2.32-.37Zm53.28 48.93c-4.29 0-4.51-3-4.51-3.6 0-4.58-.19-13.33-.57-25.99-.39-12.88-.68-21.08-.91-25.08-.68-13.46-1.32-21.84-1.91-24.93-.95-4.96-.95-5.24-.95-5.5 0-1.54.88-2.83 2.42-3.53 1.11-.51 2.43-.75 4.02-.75 2.83 0 3.75 3.46 4.33 9.03.5 4.86.86 11.14 1.09 18.67l.11 3.18c.15 2.36.27 9.02.34 20.29.04 5.62.07 10.42.08 14.45 2.1-5.06 4.13-9.76 6.07-14.06 3.11-6.92 6.75-13.48 10.83-19.51 4.47-6.61 8.66-9.83 12.83-9.83 3.76 0 6.84 2.85 9.15 8.48 2.1 5.12 3.11 12.43 3.11 22.36 0 4.27.08 10.24.23 17.74l.11 11.99c0 1.43-.5 2.71-1.45 3.73-.99 1.05-2.32 1.6-3.85 1.6-1.15 0-2.17-.28-3.02-.83-1.11-.71-1.72-1.81-1.72-3.11l.23-7.92c.38-9.33.57-17.02.57-22.86 0-8.39-.58-14.29-1.71-17.52-1.11-3.14-2.08-3.85-2.33-3.85-.96 0-4.65 1.12-11.65 15.46-5.34 10.94-10.57 23.06-15.55 36.03-.42 1.16-1 2.34-1.73 3.45-1.04 1.59-2.27 2.39-3.67 2.39Zm-.51-4.03s.07 0 .1.01v-9.61c0-5.09-.04-13.12-.11-24.55-.08-11.04-.19-17.81-.34-20.12l-.12-3.25c-.23-7.44-.59-13.63-1.07-18.39-.35-3.39-.77-4.84-1.01-5.42-.69.05-1.26.17-1.7.37-.02 0-.03.02-.05.02.07.45.27 1.62.85 4.62.63 3.32 1.28 11.65 1.97 25.47.23 4.02.53 12.26.91 25.18.37 12.32.56 20.95.57 25.68Zm33.8-59.13c-2.66 0-5.95 2.79-9.51 8.07-3.94 5.84-7.47 12.2-10.49 18.91-3.06 6.79-6.36 14.63-9.83 23.29l-3.52 8.81c.09-.09.22-.25.39-.5.56-.85 1-1.75 1.33-2.66 5.03-13.12 10.31-25.35 15.7-36.4 5.9-12.08 10.74-17.71 15.25-17.71 3.81 0 5.54 4.91 6.1 6.52 1.3 3.71 1.94 9.88 1.94 18.85 0 5.89-.19 13.63-.57 22.99l-.22 7.59c.2.09.44.13.73.13.54 0 .78-.17.94-.34.26-.27.37-.56.37-.97l-.11-11.95c-.15-7.51-.23-13.5-.23-17.8 0-9.27-.95-16.28-2.81-20.84-1.63-3.98-3.46-6-5.44-6Zm43.32 58.6c-3.24 0-5.99-1.5-8.17-4.46-2.03-2.77-3.07-6.7-3.07-11.67 0-6.33 2.14-13.26 6.37-20.6 4.14-7.19 8.93-13.47 14.24-18.67 5.73-5.6 9.85-8.21 12.97-8.21 1.97 0 3.25.47 4.09 1.12l-.05-2.04c-.23-8.38-.34-12.93-.34-13.5 0-4.74.2-8.07.61-10.18.21-1.03.45-1.75.78-2.28.4-.64 1.22-1.4 2.89-1.4 1.15 0 2.28.36 3.37 1.06 1.32.86 2.05 2.17 2.05 3.67l-.23 5.63c0 1.56-.08 4.5-.23 8.98-.15 4.37-.23 8.86-.23 13.33 0 8.63.19 17.52.57 26.42.38 8.92.68 14.86.91 17.65v.16c0 .36.04.77.1 1.2.07.52.15.99.22 1.43.43 3 .48 3.81.48 4.21 0 1.49-.87 2.79-2.6 3.86-1.46.91-2.61 1.33-3.62 1.33-1.65 0-2.93-.81-3.5-2.21-.37-.89-.55-2.02-.55-3.44 0-4.19.12-8.64.35-13.21l.11-6.32c0-1.59-.02-3.61-.07-6.11-3.01 8.1-6.31 15.14-9.84 21.03-5.26 8.78-11.19 13.23-17.62 13.23Zm22.34-59.62c-.89 0-3.65.69-10.17 7.07-5.05 4.94-9.62 10.93-13.57 17.81-3.87 6.73-5.83 12.99-5.83 18.61 0 4.1.77 7.24 2.29 9.3 1.4 1.91 3.02 2.83 4.94 2.83 4.92 0 9.7-3.8 14.19-11.28.6-.99 1.19-2.03 1.77-3.09-4.58 7.58-9.67 11.42-15.16 11.42-2.51 0-4.48-1.26-5.57-3.54a13.9 13.9 0 0 1-1.33-5.99c0-5.48 1.73-11.44 5.15-17.71 3.33-6.13 7.18-11.5 11.42-15.98 6-6.33 8.45-7.18 10.06-7.18 1.49 0 2.16.76 2.43 1.26.06-.11.12-.23.18-.34.56-1.1.86-2.06.86-2.79 0-.09-.01-.13-.01-.15-.03.01-.38-.25-1.63-.25Zm8.15 5.32.58 8.97c.15 2.37.27 5.34.35 8.8.08 3.57.11 6.32.11 8.42l-.11 6.42c-.23 4.57-.34 8.95-.34 13.07 0 .81.08 1.32.15 1.62.18-.05.62-.21 1.41-.7.45-.28.64-.48.7-.57-.02-.27-.09-1.09-.43-3.49-.07-.42-.15-.93-.23-1.48-.08-.58-.13-1.15-.13-1.68-.23-2.87-.54-8.83-.91-17.73a630 630 0 0 1-.57-26.59c0-4.51.08-9.04.23-13.46.15-4.41.23-7.4.23-8.88v-.08l.23-5.59c0-.03 0-.09-.23-.24-.3-.19-.58-.32-.85-.38-.03.11-.06.25-.09.41-.35 1.82-.53 5-.53 9.41 0 .3.04 2.44.34 13.4l.24 9.89-.09.3s-.03.1-.04.15Zm-11.99 2.08c-1.11.84-2.76 2.28-5.14 4.79-4.01 4.23-7.64 9.32-10.81 15.14-3.09 5.68-4.66 11-4.66 15.8 0 1.54.31 2.93.95 4.27.43.9.98 1.26 1.96 1.26 4.71 0 9.3-4.37 13.66-12.98 4.39-8.68 8.29-18.6 11.6-29.52-.61 1.06-1.26 2.06-1.96 2.97-1.29 1.69-1.97 2.49-3.13 2.49-.52 0-1.04-.15-1.54-.46-.8-.48-1.25-1.25-1.25-2.11 0-.46.1-.99.32-1.65m45.11 51.54c-3.02 0-5.43-1-7.15-2.96-1.65-1.88-2.49-4.32-2.49-7.24 0-3.39 1.42-7.78 4.33-13.4 2.78-5.37 6.38-10.88 10.69-16.39 4.33-5.53 8.73-10.14 13.07-13.71 2.97-2.41 5.3-4 7.13-4.88 1.96-.94 3.7-1.39 5.31-1.39s3.17.48 4.77 1.41c1.55.91 2.88 2.19 3.96 3.81 1.13 1.7 1.7 3.64 1.7 5.78 0 1.52-.23 3-.7 4.44 1.03.5 1.96 1.78 2.18 4.64.08 1.3.18 3.88.29 7.5l.29 9.23c.08 2.51.15 4.94.23 7.29.07 2.2.14 4.02.22 5.4.03.08.13.27.39.54.9.96 1.34 1.88 1.34 2.79 0 1.32-.48 2.7-1.46 4.22-1.15 1.78-2.48 2.68-3.96 2.68-1.22 0-3.46-.47-4.8-3.61-.79-1.84-1.19-3.98-1.19-6.37 0-1.86.11-7.24.34-16.47l.08-3.06c-2.56 4.18-5 7.94-7.27 11.21-3.05 4.38-6.97 8.56-11.65 12.43-4.91 4.05-10.17 6.1-15.64 6.1Zm30.89-55.97c-.99 0-2.19.34-3.58 1-1.52.73-3.65 2.2-6.33 4.37-4.11 3.38-8.3 7.78-12.45 13.08-4.16 5.31-7.62 10.61-10.29 15.76-2.57 4.97-3.88 8.86-3.88 11.56 0 1.95.49 3.46 1.5 4.61.94 1.08 2.29 1.6 4.14 1.6 4.52 0 8.92-1.74 13.09-5.19 3.99-3.29 7.38-6.82 10.1-10.49-2.58 3.21-5.42 6.07-8.49 8.52-4.14 3.32-8.55 5-13.11 5-3.25 0-5.19-2.03-5.19-5.42 0-3.1 1.31-7.06 4-12.11 2.55-4.8 5.8-9.71 9.66-14.6 3.86-4.91 7.6-8.9 11.11-11.86 3.35-2.92 6.17-4.35 8.59-4.35 2.19 0 4.05.87 5.38 2.51 1.24 1.54 1.87 3.36 1.87 5.42v.24c.22-.86.33-1.73.33-2.64 0-1.36-.34-2.52-1.03-3.56-.75-1.12-1.62-1.97-2.66-2.58-.97-.57-1.9-.86-2.75-.86Zm4.09 18.45 1.52 1.27c1.38 1.16 2.09 2.94 2.09 5.3l-.11 4.38c-.23 9.06-.34 14.57-.34 16.36s.29 3.46.86 4.8c.42.99.8 1.15 1.02 1.18.1-.07.35-.29.71-.85.57-.88.75-1.47.8-1.82-.05-.07-.13-.16-.24-.29-.82-.87-1.3-1.8-1.43-2.74l-.02-.17c-.08-1.43-.16-3.33-.23-5.63-.08-2.35-.15-4.79-.23-7.3l-.29-9.23c-.11-3.57-.21-6.11-.28-7.35-.03-.4-.07-.7-.11-.93l-2.74.81c-.14.45-.3.88-.47 1.32l-.14.28c-.12.21-.25.41-.37.62Zm-5.23-12.98c-.78 0-2.6.44-5.98 3.38-3.33 2.81-6.88 6.61-10.57 11.3-3.71 4.71-6.83 9.42-9.27 14.01-2.34 4.4-3.53 7.84-3.53 10.23 0 1.42.4 1.42 1.19 1.42 3.67 0 7.14-1.35 10.61-4.12 3.63-2.91 6.94-6.43 9.82-10.48 2.94-4.14 6.24-9.28 9.8-15.28.78-2 1.17-4.19 1.17-6.53 0-1.13-.32-2.09-.98-2.91-.57-.7-1.27-1.02-2.26-1.02m66.47 73.41c-3.1 0-3.97-4.05-4.29-5.57-.6-2.83-.9-7.03-.9-12.85 0-4.32.43-10.19 1.27-17.44l.75-6.89c-.97 1.36-2.01 2.7-3.1 4.01-3.39 4.07-7.03 6.14-10.83 6.14s-7.1-3-9.8-8.92c-2.41-5.29-4.32-11.34-5.67-17.99-1.37-6.72-2.04-11.55-2.04-14.76 0-4.5 2.84-4.85 3.71-4.85 1.93 0 4.4 1.11 5.17 6.38 3.8 27.82 8.7 29.98 10.1 29.98 1.49 0 2.79-.6 3.97-1.83 1.46-1.53 3.23-3.97 5.28-7.26.93-1.5 1.96-3.56 3.05-6.12 1.06-2.47 1.89-4.56 2.48-6.23l.78-11.24c.18-2.04.44-3.41.84-4.34.61-1.46 1.95-2.31 3.67-2.31 1.36 0 2.63.67 3.79 2 1.08 1.25 1.63 2.55 1.63 3.88 0 1.86-.42 5.68-1.27 11.68-.91 6.64-1.4 10.41-1.47 11.19-.99 9.34-1.69 16.52-2.11 21.37-.41 4.81-.62 9.22-.62 13.11 0 3.09.23 5.52.68 7.25.45 1.75.94 3.12 1.44 4.09.91 1.76 1.08 2.36 1.08 2.91 0 1.06-.52 2.56-3.02 3.66-1.47.64-3.01.97-4.57.97Zm2.91-61.76-2.86 26.34c-.82 7.12-1.24 12.83-1.24 17 0 5.45.27 9.49.81 12.01.31 1.45.61 2.11.78 2.4.88-.05 1.72-.25 2.57-.62q.255-.12.42-.21c-.1-.21-.24-.49-.43-.86-.65-1.25-1.22-2.86-1.76-4.92-.54-2.08-.81-4.78-.81-8.25 0-4 .21-8.53.63-13.45.41-4.88 1.13-12.08 2.11-21.41.05-.51.25-2.28 1.49-11.35.82-5.74 1.23-9.48 1.23-11.13 0-.33-.23-.77-.65-1.26-.5-.57-.77-.62-.77-.62h-.03c-.12.36-.33 1.19-.48 2.96l-.81 11.75-.09.25c-.44 1.25-1.01 2.74-1.7 4.43l1.59-3.05Zm-33.48-13.17c-.02.16-.04.37-.04.65 0 2.9.66 7.6 1.96 13.97 1.29 6.35 3.1 12.12 5.39 17.13 1.37 3 3.55 6.58 6.16 6.58s5.06-1.52 7.6-4.51c-1.78 1.56-3.83 2.36-6.12 2.36-6.57 0-10.91-10.31-14.07-33.42-.21-1.43-.56-2.36-.89-2.74Zm-342.55-30.4 3.52 6.54c.15.27.42.45.72.49l7.39.81c.77.08 1.11 1.02.57 1.58l-5.14 5.37c-.21.22-.3.54-.24.84l1.51 7.27a.931.931 0 0 1-1.32 1.03l-6.69-3.22a.95.95 0 0 0-.87.03l-6.45 3.69c-.67.39-1.5-.17-1.39-.94l1-7.36a.94.94 0 0 0-.3-.82l-5.5-5c-.57-.52-.3-1.48.46-1.61l7.31-1.33c.3-.06.56-.26.69-.54l3.05-6.77c.32-.71 1.31-.74 1.68-.06" class="cls-3bi2"/><path d="m834.21 1162.13 2.03 3.77c.08.16.24.26.42.28l4.25.47c.44.05.64.59.33.91l-2.96 3.09c-.12.13-.17.31-.14.48l.87 4.19c.09.44-.36.79-.76.6l-3.85-1.86a.52.52 0 0 0-.5.02l-3.71 2.12c-.39.22-.86-.1-.8-.54l.57-4.24a.55.55 0 0 0-.17-.47l-3.17-2.88a.54.54 0 0 1 .27-.93l4.21-.76a.57.57 0 0 0 .4-.31l1.76-3.9c.18-.41.75-.43.97-.03Z" class="cls-3bi1"/></svg>