<svg xmlns="http://www.w3.org/2000/svg" viewBox="0 0 2000 2000" width="300" height="300" fill="none"><defs><style>.cls-2hol2{fill:#e8c73d}.cls-2hol3{fill:#db4992}.cls-2hol4{fill:#73aa2b}</style></defs><path d="M1559.8 596.85c-6.59-22.16-25.31-32.93-48.42-35.06-22.16-2.03-34.02 12.54-40.73 29.53-9.15 23.15-17 47.35-21.15 71.82-6.46 38.06-13.17 75.07-36.98 107.31-9.47 12.83-9.44 20.14-18.75 42.05-12.78 30.08-19.18 45.12-23.15 58.39-18.95 63.28 14.6 91.27-10.77 133.13-3.2 5.28-15.19 25.06-35.07 28.23-6.34 1.01-12.33 4.1-28.75-6.4-24.84-15.88-50.34-26.14-79.81-28.15-13.97-.96-24.29-8.32-26.83-24.44-1.16-7.38-5.53-15.08-10.51-20.86-11.29-13.13-24.92-10.62-32.21 4.91-2.02 4.3-3.97 8.63-5.95 12.95-3.13-2.3-7.99-5.91-13.84-10.45-30.75-23.9-37.9-31.01-47.91-32.43-6.44-.92-13.5-.41-21.42 2.08-.39.12-.87 0-1.31-.05-20.03-2.37-40.06-4.69-60.09-7.12-11.53-1.4-22.09-.05-29.68 10.03-8.97 11.91-20.24 12.89-32.9 6.96-7.18-3.36-14.39-6.71-21.31-10.55-14-7.77-27.86-7.84-43.25-3.25-18.47 5.5-37.59 9.35-56.69 12.09-26.55 3.81-37.43 11.15-43.86 36.6-10.93 43.25 1.29 80.72 33.57 110.42 5.26 4.84 10.87 9.31 16.68 13.55v-13.78c0-32.99 26.75-59.74 59.75-59.74h376.85c32.99 0 59.74 26.75 59.74 59.74v376.85c0 33-26.75 59.75-59.74 59.75h-201.16c12.12 4.56 31.42 17.7 63.15 30.25 30.91 12.22 46.93 11.98 56.2 27.46 8.79 14.68 22.86 18.74 38.84 12.4 4.47-1.77 8.91-4.53 13.52-4.89 28.69-2.24 50.99-14.2 65.26-40.02 3.37-6.08 8.98-10.87 12.98-16.65 40.86-59.06 87.2-114.74 93.05-191.75 2.9-38.24 13.66-75.97 21.97-113.69 12.4-56.3 4.76-111.12-9.48-165.81-2.15-8.26-2.7-17.42-1.77-25.92 1.35-12.48 4.74-23.98 10.23-34.48 7.02-13.41 14.86-20.05 20.78-26.53 17.05-18.69 13.8-30.48 27.94-61.96 22.39-49.89 51.21-67.3 42.71-84.27-5.08-10.15-18.87-10.92-18.47-18.47.55-10.39 26.89-13.46 27.85-26.32.49-6.61-6.23-9.14-4.76-15.24 2.15-8.92 17.67-8.18 19.4-15.69 2.13-9.26-19.34-19.71-17.1-24.71 1.62-3.61 12.93 1.51 23.52-2.5 11.98-4.55 16.81-18.44 21.65-32.99 0 0 12.65-43.58-1.82-92.33m-741.09 864.36v-328.2c-.37.08-.75.17-1.13.27-34.57 8.85-71.58 54.48-75.29 92.8-2.16 22.34-5.07 44.62-8.13 66.86-.48 3.45-2.78 7.68-5.58 9.59-10.42 7.13-21.2 13.8-32.21 19.99-19.82 11.15-31.57 25.73-30.63 50.53.76 19.96 29.4 88.35 45.65 100.19.36.26.75.48 1.09.76 13.27 10.88 26.56 21.76 39.82 32.67 18.7 15.37 36.72 31.68 56.2 45.98 60.37 44.31 125.62 44.96 193.15 19.31 4.45-1.69 10.81-4.29 12.12-9.45 1.68-6.62-6.22-12.06-4.08-15.94 2.45-4.43 13.41 1.4 21.55-3.85 8.44-5.45 3.89-16.37 10.01-21.55.09-.08.18-.15.28-.21H878.46c-33 0-59.75-26.75-59.75-59.75" class="cls-2hol4"/><path d="M1315.06 460.66c-7.01 58.32-8.15 125.19-31.5 188.7-4.66 12.67-5.24 26.79-8.82 39.94-2.27 8.33-5.35 17-10.31 23.9-4.11 5.71-9 10.25-14.96 10.82-4.55.43-5.69-2.46-12.95-4.6-2.57-.76-14.53-4.28-18.26-.12-4.6 5.13 2.02 23.44 15.39 33.86 12.06 9.4 21.27 5.9 27.19 13.85 4.9 6.58 4.76 17.26-3.77 38.34-10.7 26.43-30.16 74.53-54.72 72.48-27.71-2.31-51.35-67.61-34.89-91.84 2.78-4.1 8.53-9.69 13.26-21 2.64-6.3 4.45-14.03 5.87-26.62 1.42-12.54.96-25.31-1.3-39.06-5.86-35.68-6.56-73-3.68-109.16 4.51-56.57 13.74-112.77 21.16-169.1 2.84-21.57 7.4-42.49 22.38-59.7 21.4-24.59 57.56-21.7 73.39 6.81 14.62 26.32 15.6 55.59 16.5 92.52Zm-294.04 86.43c-.95 18.91-.76 37.97-3.28 56.66-1.48 10.98-6.16 21.98-11.44 31.88-5.48 10.28-14.41 11.26-24.64 4.67-12.45-8.03-25.73-14.78-38.24-22.73-5.05-3.21-9.98-7.47-13.32-12.37-24.63-36.09-40.21-75.53-39.9-119.77.33-47.1.77-94.25 3.57-141.23.85-14.2 7.97-28.93 15.31-41.63 14.84-25.69 42.08-28.28 63.28-7.03 17.48 17.52 26.02 40.06 29.71 63.74 4.94 31.73 7.51 63.82 11 95.77 3.34 30.55 6.56 61.12 9.83 91.68-.62.12-1.24.25-1.86.37Zm-264 93.59c1.09 20.55-6.32 36.75-24.59 46.4-18.11 9.57-36.2 6.03-52.51-4.79-15.7-10.41-27.66-23.93-32.37-43.26-11.74-48.13-25-95.9-35.95-144.21-5.17-22.8-1.68-45.69 11.22-66.16 16.74-26.57 41.02-30.92 64.58-10.69 28.69 24.63 43.52 56.22 48.12 93.93 3.72 30.5 11.15 60.53 16.52 90.84 2.22 12.54 3.35 25.28 4.97 37.93Zm-362.28 384.07c5.74-.35 31.79-1.16 56.77 15.77 16.08 10.89 28.29 27.43 36.79 49.62 8.49 22.19 15.24 45.05 24.02 67.11 4.31 10.83 11.45 20.54 17.33 30.75 1.51 2.63 5.13 9.29 6.82 12.46 3.5 6.57 26.81 50.24 18.41 57.52-7.77 6.74-41.86-18.48-61.18-35.79-23.86-21.38-21.85-27.7-40.4-40.4-20.44-14-26.94-9.09-61.42-24.53-31.69-14.18-51.21-22.92-59.78-43.58-8.91-21.47-1.08-43.98-.08-46.74 5.09-14.02 13.52-22.4 15.29-24.11 16.76-16.22 38.02-17.52 47.43-18.09ZM782.46 850c0 9.67 1.22 19.56-.45 28.94-1.03 5.79-6.42 10.82-9.93 16.14-2.46 3.72-2.74 4.32-3.97 5.27 0 0-4.44 3.47-12.13 2.62-8.27-.92-23.96-17.07-43.07-76.97-13.14-41.18-11.32-51.13-8.21-58.49 6.69-15.83 23.98-30.2 34.37-26.68 4.43 1.5 7.24 6.13 9.75 10.26 6.58 10.85 4.16 19.11 9.23 21.55 4.78 2.3 8.41-4.32 13.54-2.93 11.76 3.18 11.43 43.03 11.24 65.8-.05 6.2-.23 11.26-.38 14.48Zm206.97-42.47c-16.65 4.83-34.35-11.19-38.99-15.39-26.96-24.39-31.87-69.92-15.93-84.85 1.22-1.15 7.39-7.69 15.65-7 7.09.59 13.66 6.44 20.82 7.51 7.06 1.05 15.52.85 21.73-2.17 6.51-3.16 11.39-4.12 14.71-2.18 3.7 2.15 4.75 7.36 5.14 11.56 1.2 13.04 7.69 83.59-23.13 92.52" class="cls-2hol4"/><path d="M1577.41 1493.31c1.46-1.08 2.92-2.17 4.39-3.24 5.31-3.86 10.34-2.18 11.7 4.3.6 2.86.64 6.24-.33 8.93-2.13 5.87-.03 10.25 4.47 13.15 9.51 6.12 16.15 14.27 21.54 24.18 3.56 6.55 6.14 6.62 8.45 7.46 7.25 2.61 14.92-1.8 16.97-2.98 16.24-9.34 10.17-24.92 28.21-42.62 3.78-3.71 8.7-7.57 18.55-15.29 7.17-5.62 8.51-8.08 14.05-10.63 13.94-6.41 23.02-17.57 32.22-29.13 5.91-7.43 13.02-14.09 20.36-20.16 5.39-4.45 12.05-7.14 19.1-2.37 7.35 4.98 11.64 12.05 9.75 20.7-4.16 19.01-16.45 31.28-16.45 31.28-4.31 3.98-8.5 7.75-13.35 7.05-4.29-.61-7.13-4.42-8.34-3.51-1.68 1.26 3.59 8.73 1.16 11.44-1.97 2.2-7.03-.92-9.4 1.67-1.62 1.77.17 3.86-1.22 5.99-2.7 4.13-12.09.29-14.19 3.67-1.53 2.46 2.95 5.26 2.78 9.6-.29 7.26-13.16 7.77-29.88 20.35-10.55 7.94-11.64 12.49-20.81 15.6-3.18 1.08-7.04 1.86-11.87 5.05-3.78 2.5-7.04 5.73-9.8 9.66-1.88 2.68-3.39 5.85-4.2 9.01-5.33 20.96-12.9 40.74-27.46 57.32-9.76 11.1-20.33 21.76-28.37 34.04-16.19 24.73-42 34.82-66.61 47.06-2.41 1.2-5.18 1.77-7.43 3.18-9.55 6.01-19.24 5.9-29.26 1.35-1.61-.73-3.61-.63-5.44-.86-6.52-.83-10.49-4.79-10.72-11.33-.25-6.9-5.66-9.78-13.76-19.59-12.23-14.8-15.21-25.07-19.94-24.12-3.01.61-3.5 5.11-7.33 5.37-3.7.26-6.29-3.72-7.93-2.69-1.44.91.21 4.19-1.58 6.1-1.39 1.49-4 1.18-5.81.93-27.37-3.88-49.11-16.16-61.16-42.16-3.89-8.39-6.91-17.19-10.34-25.79-2.43-6.1-4.87-12.21-7.31-18.31-.06-.16-.15-.3-.22-.45-3.26-6.97-.22-35.18 3.22-42.01 4.27-8.48 10.9-11.2 19.6-11.27 4.83-.04 9.68-.28 14.49-.75 1.29-.12 2.84-1.11 3.64-2.18 5.14-6.89 10.23-13.82 15.08-20.91 8.32-12.15 29.16-20.61 42.38-17.18 6.58 1.7 11.41 5.5 15.17 11.03 1.65 2.42 3.73 4.56 5.62 6.82.43-.29.86-.57 1.29-.86-2.5-4.48-5.16-8.87-7.47-13.45-3.79-7.5-8.18-14.83-10.82-22.73-5.33-15.92-2.5-30.73 9.16-43.21 6.86-7.34 11.86-7.79 21.46-4.16 6.91 2.61 14.03 4.86 21.24 6.42 6.01 1.31 10.64 3.89 13.89 9.08 1.61 2.57 3.41 5.02 5.19 7.47 3.15 4.33 7.1 6.08 12.31 3.75 4.41-1.97 8.19-.48 11.8 2.12 6.26 4.51 12.55 9 18.82 13.49.14.1.28.23.43.26 3.11.63 5.57 1.76 7.56 3.26 3.09 2.33 4.17 6.03 10.06 19.72 1.12 2.6 2.08 4.71 2.71 6.06Zm-68.99 118.71c2.61-8.49 12.95-4.21 30.13-19.93 5.4-4.95 11.22-8.71 17.85-8.83 3.65-.06 6.33 3.88 10.56 2.85.65-.16 3.24-.88 4.58-3.17 1.79-3.07.05-7.22-1.72-9.88-.66-1-1.57-1.92-2.79-2.73-1-.67-1.97-2.16-2.03-3.32-.2-4.08-2.82-5.53-6.16-6.2-2.11-.43-3.8-1.21-5.16-2.33-2.9-2.4-3.82-5.98-3.96-6.66-1.08-5.27 2.52-7.83 2.98-11.98 1.11-10.17-17.21-24.71-26.84-20.85-6.97 2.79-7.48 14.44-11.51 14.17-3.94-.27-4.73-11.46-9.28-11.84-3.59-.3-4.34 6.55-9.93 7.61-4.34.82-10.34-2.33-14.2-4.81-1.68-1.08-3.6-2.14-5.51-2.39-1.67-.22-2.77 1.53-3.35 2.25-7.97 9.94-9.27 19.1-9.27 19.1-2.29 16.11 5.67 18.99 4.84 33.52-1.09 18.97-15.45 27.56-10.16 36.52 1.9 3.23 3.83 2.22 12.76 11.14 2.09 2.09 3.98 4.14 7.38 5.64 1.55.68 5.08 2.19 9.18 1.41 3.92-.74 3.98-2.74 7.94-4.03 6-1.96 9.2 1.53 12.01-.44 3.41-2.38-.36-8.16 1.68-14.8Zm-24.04 32.17c-.45-.34-.91-.67-1.36-1.01-5.96 3.97-7.79 8.36-5.1 13.27 1.45-1.05 2.84-2.07 4.22-3.08-1.16-1.57-2-2.71-2.69-3.65 1.83-2.06 3.38-3.8 4.93-5.54Z" class="cls-2hol3"/><path d="M1730 1354.75c-13.12 18.25-25.86 40.45-45.42 57.41-3.9 3.39-6.71 8.01-10.33 11.75-2.3 2.37-4.93 4.71-7.87 6.1-2.43 1.16-4.91 1.77-7.01.86-1.6-.7-1.45-1.88-3.49-3.94-.72-.73-4.08-4.12-6.1-3.42-2.49.87-3.65 8.23-1.1 14.19 2.3 5.38 6.04 5.91 6.55 9.67.43 3.11-1.59 6.67-8.35 12.15-8.47 6.88-23.88 19.4-31.73 14.18-8.86-5.9-4.71-32.15 5.28-37.22 1.69-.86 4.65-1.67 8.33-4.59 2.05-1.62 4.08-3.88 6.89-7.84 2.79-3.94 5-8.3 6.78-13.33 4.63-13.04 11.29-25.67 18.94-37.26 11.96-18.13 25.44-35.25 38.34-52.76 4.94-6.7 10.33-12.87 18.53-15.87 11.71-4.28 23.3 3.36 23.34 15.84.03 11.52-5.05 21.51-11.56 34.05Zm-114.51-25.37c-3.81 6.16-7.27 12.58-11.57 18.38-2.53 3.41-6.13 6.23-9.72 8.57-3.74 2.43-6.91 1.11-9.12-2.99-2.69-4.99-5.89-9.71-8.61-14.68-1.1-2.01-1.96-4.35-2.18-6.61-1.59-16.65.48-32.74 8.76-47.51 8.81-15.72 17.67-31.44 27.29-46.67 2.91-4.6 8.02-8.22 12.82-11.12 9.72-5.87 19.33-1.7 22.51 9.34 2.62 9.1 1.32 18.23-1.82 26.85-4.21 11.54-9.28 22.78-14.01 34.13-4.53 10.86-9.1 21.69-13.65 32.54-.23-.07-.46-.15-.69-.22Zm-105.76-17.42c-3.43 7.09-8.91 11.15-16.81 11.01-7.84-.14-13.24-4.67-16.71-11.31-3.34-6.39-4.85-13.13-2.85-20.48 4.96-18.3 9.34-36.76 14.6-54.97 2.48-8.6 7.88-15.62 15.99-20.1 10.52-5.81 19.46-2.78 23.62 8.35 5.06 13.56 4.2 26.88-1.23 40.37-4.39 10.91-7.45 22.35-11.25 33.5-1.57 4.61-3.55 9.09-5.34 13.63Zm-192.37 61.77c1.99.94 10.87 5.49 16.11 15.77 3.38 6.62 4.41 14.42 3.16 23.43-1.25 9-3.22 17.91-4.35 26.93-.56 4.43.04 9 .12 13.5.02 1.16 0 4.06-.02 5.44-.04 2.85-.3 21.79-4.46 22.68-3.85.82-10.61-13.93-13.89-23.3-4.05-11.57-2.2-13.32-6.07-21-4.26-8.47-7.35-8.02-16.05-19.57-8-10.61-12.93-17.14-11.98-25.65.98-8.84 7.77-14.94 8.61-15.68 4.3-3.76 8.67-5.01 9.58-5.25 8.62-2.34 15.98 1.15 19.24 2.7m162.21 13.08c-1.79 3.24-3.21 6.78-5.5 9.62-1.41 1.75-4.15 2.44-6.31 3.57-1.51.79-1.72.94-2.3 1.03 0 0-2.13.34-4.55-1.36-2.6-1.83-4.88-10.15-.21-33.75 3.21-16.23 5.65-19.23 8.06-21.12 5.17-4.07 13.62-5.69 16.45-2.59 1.21 1.32 1.29 3.39 1.37 5.24.2 4.85-2.14 7.17-.89 8.93 1.18 1.65 3.62.11 5.08 1.52 3.35 3.24-4.12 16.53-8.39 24.13-1.16 2.07-2.16 3.73-2.8 4.78Zm77.21 24.01c-6.47-1.46-9.44-10.1-10.22-12.36-4.53-13.16 2.24-29.32 10.34-31.38.62-.16 3.9-1.21 6.54.54 2.27 1.51 3.39 4.68 5.59 6.36 2.17 1.66 5.04 3.15 7.68 3.29 2.77.14 4.58.72 5.33 1.99.84 1.41.23 3.34-.42 4.82-2.01 4.59-12.87 29.43-24.85 26.73Zm-72.4 233.37c-1.55 1.74-3.1 3.48-4.93 5.54.69.94 1.53 2.08 2.69 3.65-1.38 1.01-2.78 2.02-4.22 3.08-2.69-4.91-.87-9.3 5.1-13.27.45.34.91.67 1.36 1.01Z" class="cls-2hol3"/><path d="M475.98 735.08c.1-1.74.2-3.47.32-5.21.43-6.27 4.75-8.93 10.34-5.94 2.46 1.31 4.98 3.36 6.35 5.73 3 5.17 7.5 6.32 12.39 4.79 10.33-3.22 20.39-3.09 30.97-.96 7 1.41 8.63-.44 10.66-1.62 6.37-3.71 7.84-12.05 8.23-14.28 3.12-17.65-12.04-22.76-13.95-46.87-.4-5.05-.21-11.04.17-23 .28-8.71-.7-11.2.83-16.84 3.86-14.16 1.25-27.68-1.59-41.53-1.82-8.9-2.35-18.2-2.29-27.32.04-6.69 2.16-13.23 9.99-15.47 8.17-2.34 15.99-1.14 21.17 5.56 11.4 14.73 12.85 31.28 12.85 31.28.28 5.61.46 10.99-3.02 14.13-3.08 2.77-7.62 2.52-7.69 3.97-.1 2.01 8.61 2.73 9.11 6.17.4 2.79-4.99 4.59-4.55 7.92.31 2.28 2.94 2.25 3.64 4.57 1.38 4.51-7.21 9.05-6.02 12.67.86 2.63 5.67 1.07 8.75 3.86 5.15 4.67-2.38 14.43-3.42 34.42-.66 12.62 2.01 16.21-1.33 24.85-1.16 3-2.96 6.3-3.58 11.81-.49 4.31-.12 8.69 1.07 13.12.81 3.02 2.21 6.08 4.04 8.61 12.1 16.78 21.97 34.49 25.19 55.35 2.16 13.98 3.48 28.28 7.55 41.72 8.2 27.06-.25 52.2-6.37 77.77-.6 2.5-1.88 4.88-2.22 7.4-1.46 10.7-7.48 17.74-16.98 22.3-1.53.73-2.68 2.26-3.97 3.46-4.61 4.28-9.96 4.76-14.9.91-5.22-4.06-10.65-1.86-22.82-1.94-18.37-.12-27.74-4.24-29.94-.18-1.4 2.58 1.6 5.71-.56 8.68-2.08 2.87-6.6 2.33-6.85 4.17-.22 1.61 3.2 2.42 3.5 4.9.24 1.93-1.59 3.66-2.89 4.83-19.66 17.7-42.02 26.11-68.49 18.98-8.55-2.3-16.85-5.48-25.27-8.25-5.97-1.97-11.95-3.92-17.92-5.88-.15-.05-.31-.07-.47-.12-7.12-1.89-25.95-21.44-28.85-28.16-3.6-8.34-1.52-14.87 3.77-21.3 2.94-3.57 5.73-7.27 8.35-11.09.7-1.02.93-2.77.63-4.01-1.9-8-3.86-15.99-6.08-23.9-3.81-13.57 2.78-34.05 13.42-41.65 5.29-3.78 11.04-4.99 17.41-4.36 2.79.28 5.63.06 8.45.07.05-.49.11-.98.16-1.48-4.82-.91-9.68-1.67-14.45-2.78-7.83-1.83-15.9-3.11-23.33-6.02-14.95-5.87-24.08-17.04-26.08-33.25-1.17-9.54 1.57-13.48 10.13-18.3 6.16-3.46 12.18-7.31 17.75-11.64 4.65-3.6 9.39-5.42 15.19-4.62 2.87.4 5.78.58 8.67.78 5.11.35 8.82-1.48 10.31-6.73 1.26-4.45 4.68-6.31 8.8-7.36 7.16-1.82 14.3-3.68 21.46-5.53.16-.04.34-.06.46-.16 2.37-1.9 4.71-3.01 7.03-3.55 3.61-.84 6.99.64 20.65 4.73 2.6.78 4.74 1.37 6.11 1.74Zm44.73 123.52c-4.62-7.13 4.86-12.09 3.87-34.34-.31-7 .5-13.58 4.49-18.52 2.19-2.72 6.73-2.26 8.58-6 .28-.58 1.35-2.92.48-5.3-1.16-3.2-5.26-4.47-8.31-4.81-1.14-.13-2.37-.03-3.72.37-1.1.33-2.8.12-3.68-.55-3.12-2.36-5.78-1.33-8.34.72-1.61 1.29-3.22 2.05-4.88 2.35-3.54.65-6.74-.87-7.32-1.18-4.53-2.44-4.2-6.66-6.97-9.54-6.78-7.06-28.7-2.55-31.78 6.89-2.23 6.83 6.01 14.36 3.33 17.15-2.62 2.72-11.31-3.57-14.39-.47-2.42 2.45 2.15 7.21-.52 11.96-2.07 3.69-8.06 6.16-12.25 7.46-1.83.57-3.78 1.33-5.14 2.58-1.18 1.09-.58 2.97-.41 3.85 2.4 11.95 8.32 18.53 8.32 18.53 10.41 11.57 17.42 7.5 27.56 17.03 13.25 12.45 10.73 28.26 20.56 29.89 3.54.58 3.98-1.44 16.01-2.52 2.82-.25 5.48-.38 8.67-1.95 1.45-.72 4.72-2.38 6.67-5.87 1.86-3.33.44-4.6 1.92-8.3 2.25-5.6 6.77-5.81 7.05-9.08.34-3.96-6.21-4.74-9.82-10.32Zm8.85 37.39c-.52.13-1.05.25-1.57.38-.75 6.81 1.35 10.85 6.61 11.89.12-1.71.23-3.35.34-4.99-1.86-.11-3.22-.2-4.33-.27-.39-2.61-.71-4.81-1.04-7.01Z" class="cls-2hol2"/><path d="M468.02 538.03c5.33 20.83 13.79 43.81 14.23 68.59.09 4.94 1.76 9.84 2.28 14.8.33 3.14.43 6.51-.36 9.52-.65 2.49-1.72 4.69-3.68 5.67-1.5.75-2.27-.09-5.03.14-.98.08-5.53.46-6.25 2.38-.89 2.36 3.79 7.73 9.74 9.52 5.36 1.61 8.04-.8 11.12 1.13 2.54 1.6 3.91 5.26 3.79 13.59-.15 10.44-.43 29.44-9.08 31.99-9.77 2.88-26.48-16.28-24.07-26.73.41-1.77 1.63-4.44 1.75-8.93.07-2.5-.34-5.38-1.52-9.86-1.18-4.47-3.02-8.77-5.61-13.16-6.73-11.41-11.9-24.05-15.71-36.78-5.95-19.91-10.24-40.32-15.17-60.53-1.89-7.74-3.1-15.48-.26-23.34 4.05-11.23 16.78-15.03 25.95-7.39 8.47 7.05 12.68 16.91 17.88 29.4Zm-88.94 68.44c2.18 6.58 4.77 13.06 6.38 19.78.95 3.94.81 8.32.32 12.4-.51 4.24-3.43 5.75-7.79 4.86-5.31-1.09-10.74-1.64-16.06-2.7-2.15-.43-4.4-1.23-6.19-2.46-13.19-9.06-23.73-20.46-29.48-35.6-6.12-16.12-12.22-32.28-17.48-48.69-1.59-4.96-1.11-10.93-.29-16.24 1.66-10.73 10.62-15.23 20.67-10.78 8.29 3.67 14.19 10.23 18.58 17.82 5.89 10.18 11.01 20.79 16.44 31.24 5.19 9.99 10.33 20 15.49 30-.2.12-.39.25-.59.37m-77.73 66.9c3.09 6.87 2.71 13.38-2.25 19.09-4.92 5.66-11.56 6.85-18.56 5.32-6.74-1.47-12.61-4.51-16.78-10.48-10.38-14.88-21.23-29.43-31.36-44.47-4.78-7.1-6.62-15.37-4.93-24.07 2.2-11.29 9.91-15.99 20.63-12.2 13.06 4.61 22.3 13.43 28.86 25.69 5.31 9.92 11.82 19.19 17.67 28.82 2.42 3.99 4.49 8.19 6.72 12.29Zm-72.81 179.08c1.91-.88 10.7-4.6 21.47-2.13 6.93 1.59 13.29 5.62 19.13 12.07s11.17 13.36 17.09 19.73c2.91 3.13 6.63 5.5 9.99 8.2.86.7 2.98 2.49 3.98 3.35 2.07 1.78 15.8 13.6 13.9 17.2-1.76 3.33-16.74-.76-25.62-4.12-10.98-4.14-11.13-6.56-19.14-8.44-8.83-2.07-10.4.46-24.22-.24-12.7-.65-20.52-1.04-26.18-6.96-5.89-6.15-6.19-14.87-6.22-15.94-.12-5.46 1.65-9.44 2.03-10.25 3.57-7.76 10.66-11.01 13.8-12.46Zm109.21-110.99c1.28 3.3 3.01 6.52 3.68 9.94.41 2.11-.76 4.54-1.25 6.83-.35 1.6-.37 1.84-.66 2.32 0 0-1.06 1.77-3.79 2.5-2.94.78-10.44-2.65-24.9-20.57-9.94-12.32-10.63-15.96-10.55-18.88.19-6.29 4.19-13.48 8.2-13.66 1.71-.07 3.28 1.13 4.69 2.21 3.68 2.83 3.95 5.97 6.01 6.13 1.94.15 2.3-2.59 4.23-2.79 4.44-.47 9.6 13.18 12.55 20.98.8 2.12 1.41 3.87 1.79 4.99m65.04-41.9c-5.05 3.85-13.21.73-15.35-.09-12.43-4.76-20.14-19.65-16.67-26.86.27-.55 1.5-3.6 4.41-4.46 2.5-.74 5.51.39 8.1-.19 2.55-.58 5.41-1.76 7.13-3.62 1.8-1.94 3.34-2.91 4.73-2.69 1.55.25 2.6 1.88 3.28 3.27 2.14 4.29 13.69 27.52 4.36 34.65Zm126.77 196.43c.33 2.2.65 4.41 1.04 7.01 1.12.07 2.47.15 4.33.27-.11 1.64-.22 3.28-.34 4.99-5.26-1.04-7.36-5.08-6.61-11.89.52-.13 1.05-.25 1.57-.38Z" class="cls-2hol2"/><path d="M1054.15 1520.96h-12.62c3.04-2.38 7.08-2.08 12.62 0" style="fill:#fff"/></svg>