<svg fill="none" xmlns="http://www.w3.org/2000/svg" width="300" height="300" viewBox="0 0 300 300"><g clip-path="url(#a)" transform="translate(20 10)"><path d="M21.154 244.231c-15.973-27.959 4.249-45.996 16.144-61.036 1.784-5.383-.874-20.202 15.63-24.002 17.324-3.988 26.406 14.234 27.55 15.693 3.622 4.617 11.165 13.471 19.341 9.779.443 1.652-2.85 11.119-12.75 6.968.496 2.109 1.486 3.692 2.475 4.746 2.475 2.637 3.422 2.94 7.425 4.219 4.95 1.583 13.154.052 26.775-4.814 0 0 12.823-4.678 17.842 5.869 2.729 5.736 2.49 11.083 1.704 14.767-.514 2.408-1.209 3.43-2.764 4.746s-4.179 1.855-6.434 2.644c-27.364 9.58-20.593 18.661-36.665 26.12-17.395 8.075-65.735 12.744-76.273-5.699" fill="#000"/><path d="M39.613 137.195c-3.242-6.484 22.964-28.174 35.314-36.471 5.596-8.105 4.63-27.788 39.086-53.843 34.817-26.33 103.904 42.65 118.376 71.789-3.208 7.529-7.066 17.247-11.206 27.787-1.774 4.516 7.733 1.733 3.102 19.683-6.368 17.367-16.21 18.525-23.736 18.525C168.71 218.821 174.29 247.791 190.5 264c8.063 8.063-87.129 13.171-103.624 4.052-13.614-7.525-18.79-79.339-40.595-94.39l8.384-14.469c-4.632-4.631-11.81-15.515-15.052-21.998Z" stroke="#000" stroke-width="5.789"/><path d="M130.336 6.622c-20.063 5.246-22.218 29.886-16.044 41.421 1.966 1.58-9.263 14.473 5.789 14.473-4.052-2.878-1.737-12.429 8.684-8.684 4.92 2.466 39.721 7.225 53.838 16.789 17.946 12.157 9.438 19.767 15.052 26.63 9.642 11.787 17.515 16.865 32.686 24.953 22.889-9.902 24.578-23.286-.457-63.383C198.591 8.7 155.415.064 130.336 6.621Z" fill="#000" stroke="#000" stroke-width="3.473"/><path d="M143.816 195.664c3.474 1.918 6.368 7.844 6.947 16.21m2.316-19.683c4.466 4.014 5.954 8.027 6.947 15.051" stroke="#000" stroke-width="5.789" stroke-linecap="round"/><defs><clipPath id="a"><path fill="#fff" d="M0 0h276v276H0z"/></clipPath></defs></g></svg>