<svg fill="none" xmlns="http://www.w3.org/2000/svg" width="300" height="300" viewBox="0 0 300 300"><g transform="translate(13 10)"><g clip-path="url(#a)"><path d="M30.84 51.71c-6.586-3.708-13.355 1.289-15.066 4.024-3.76-1.441-9.524-3.235-13.52 2.351-3.139 4.39-2.332 11.53 5.956 17.008 6.334 4.187 14.222 7.577 14.419 6.308.809-5.216 5.607-9.328 9.487-12.693 5.415-4.696 5.311-13.29-1.275-16.998" fill="#FF5130"/><path d="M5.997 28.746C9.633 18.584 20.944 18.579 25.37 19.86c2.71-5.083 6.994-11.372 16.807-10.644 8.488.63 13.926 10.657 11.422 22.984-2.707 13.317-10.57 24.74-11.585 22.697-2.951-5.939-14.998-5.659-22.364-5.828-9.839-.227-17.289-10.162-13.653-20.324" fill="#E1472A"/><path d="M7.109 26.758c3.57-10.13 14.796-10.092 19.194-8.796 2.672-5.064 6.9-11.326 16.642-10.563 8.426.66 13.861 10.69 11.421 22.984C51.73 43.667 43.968 55.04 42.953 52.995c-2.951-5.938-14.907-5.703-22.218-5.9C10.97 46.832 3.538 36.888 7.11 26.758" fill="#FF5130"/><path d="M43.716 15.194c5.758-6.467 14.95-3.57 17.82-1.243 3.538-2.959 9.116-7.046 15.523-2.48 5.034 3.589 6.815 11.624-.127 20.642-5.306 6.892-12.592 13.498-13.277 12.196-2.816-5.35-9.544-8.02-15-10.224-7.613-3.074-10.696-12.424-4.939-18.89" fill="#E1472A"/></g><g clip-path="url(#b)"><path d="M245.159 51.71c6.587-3.708 13.356 1.289 15.067 4.024 3.759-1.441 9.524-3.235 13.519 2.351 3.14 4.39 2.333 11.53-5.954 17.008-6.335 4.187-14.223 7.577-14.42 6.308-.809-5.216-5.606-9.328-9.487-12.693-5.415-4.696-5.311-13.29 1.275-16.998" fill="#FF5130"/><path d="M270.003 28.746c-3.636-10.162-14.947-10.167-19.373-8.885-2.711-5.083-6.994-11.372-16.808-10.644-8.487.63-13.925 10.657-11.421 22.984 2.707 13.317 10.57 24.74 11.585 22.697 2.951-5.939 14.998-5.659 22.363-5.828 9.84-.227 17.289-10.162 13.654-20.324" fill="#E1472A"/><path d="M268.891 26.758c-3.57-10.13-14.796-10.092-19.194-8.796-2.672-5.064-6.899-11.326-16.642-10.563-8.426.66-13.861 10.69-11.421 22.984 2.636 13.284 10.398 24.656 11.413 22.612 2.951-5.938 14.907-5.703 22.218-5.9 9.766-.263 17.197-10.207 13.626-20.337" fill="#FF5130"/><path d="M232.284 15.194c-5.758-6.467-14.95-3.57-17.821-1.243-3.537-2.959-9.115-7.046-15.522-2.48-5.034 3.589-6.815 11.624.127 20.642 5.306 6.892 12.592 13.498 13.277 12.196 2.816-5.35 9.544-8.02 15-10.224 7.613-3.074 10.696-12.424 4.939-18.89" fill="#E1472A"/></g><g clip-path="url(#c)"><path d="M74.911 237.586c-6.587-3.709-13.356 1.288-15.067 4.024-3.759-1.441-9.523-3.235-13.519 2.351-3.14 4.389-2.333 11.529 5.955 17.007 6.334 4.187 14.222 7.578 14.42 6.308.808-5.215 5.606-9.327 9.487-12.692 5.414-4.696 5.31-13.29-1.276-16.998" fill="#FF5130"/><path d="M53.382 231.84c-3.636-10.162-14.947-10.166-19.373-8.884-2.71-5.084-6.994-11.373-16.807-10.645-8.488.63-13.926 10.658-11.422 22.984 2.707 13.318 10.57 24.74 11.585 22.697 2.951-5.939 14.998-5.658 22.364-5.828 9.839-.226 17.289-10.161 13.653-20.324" fill="#E1472A"/><path d="M52.27 229.852c-3.57-10.13-14.796-10.092-19.194-8.796-2.672-5.064-6.9-11.326-16.642-10.562-8.426.66-13.861 10.689-11.421 22.984 2.636 13.283 10.398 24.655 11.413 22.612 2.951-5.939 14.907-5.704 22.218-5.901 9.766-.262 17.197-10.207 13.626-20.337" fill="#FF5130"/><path d="M2.422 191.855c5.028-7.049 14.48-5.158 17.584-3.153 3.198-3.323 8.304-7.987 15.165-4.136 5.39 3.026 8.026 10.823 2.095 20.535-4.534 7.423-11.066 14.776-11.888 13.555-3.375-5.016-10.35-6.948-16.012-8.551-7.9-2.237-11.972-11.2-6.944-18.25" fill="#E1472A"/></g><g clip-path="url(#d)"><path d="M201.089 237.586c6.586-3.709 13.355 1.288 15.067 4.024 3.759-1.441 9.523-3.235 13.519 2.351 3.139 4.389 2.333 11.529-5.955 17.007-6.335 4.187-14.223 7.578-14.419 6.308-.809-5.215-5.607-9.327-9.488-12.692-5.414-4.696-5.311-13.29 1.276-16.998" fill="#FF5130"/><path d="M222.618 231.84c3.636-10.162 14.947-10.167 19.373-8.884 2.711-5.084 6.994-11.373 16.807-10.645 8.488.63 13.926 10.658 11.422 22.984-2.707 13.318-10.57 24.74-11.585 22.697-2.951-5.939-14.998-5.658-22.364-5.828-9.839-.226-17.289-10.161-13.653-20.324" fill="#E1472A"/><path d="M223.73 229.852c3.57-10.13 14.796-10.092 19.194-8.796 2.672-5.064 6.899-11.326 16.642-10.562 8.426.66 13.861 10.689 11.421 22.984-2.636 13.283-10.398 24.655-11.413 22.612-2.951-5.939-14.907-5.704-22.218-5.901-9.766-.262-17.197-10.207-13.626-20.337" fill="#FF5130"/><path d="M273.578 191.855c-5.028-7.049-14.479-5.158-17.584-3.153-3.198-3.323-8.304-7.987-15.165-4.136-5.391 3.026-8.026 10.823-2.095 20.535 4.534 7.423 11.066 14.776 11.888 13.555 3.375-5.016 10.351-6.948 16.012-8.551 7.9-2.237 11.972-11.2 6.944-18.25" fill="#E1472A"/></g><defs><clipPath id="a"><path fill="#fff" d="M0 7h83.321v75.509H0z"/></clipPath><clipPath id="b"><path fill="#fff" d="M276 7h-83.321v75.509H276z"/></clipPath><clipPath id="c"><path fill="#fff" d="M0 181.453h80.717v85.924H0z"/></clipPath><clipPath id="d"><path fill="#fff" d="M276 181.453h-80.717v85.924H276z"/></clipPath></defs></g></svg>