<svg fill="none" xmlns="http://www.w3.org/2000/svg" width="300" height="300" viewBox="0 0 300 300"><path fill="#000" d="M224.739 220.029c4.27-16.053 1.444-25.601 0-37.947 0 0-4.165-6.76-9.494 7.643-1.54 4.163-8.205 10.143-20.722 10.143-15.9 0-7.442-10.143-21.626-17.786-12.203-6.575-27.765-1.878-27.765-1.878v101.301c31.8 1.467 40.251-19.356 51.576-28.455 14.913-11.981 25.322-22.834 28.031-33.021"/><path fill="#000" d="M70.26 220.029c-4.269-16.053-1.443-25.601 0-37.947 0 0 4.166-6.76 9.495 7.643 1.54 4.163 8.205 10.143 20.722 10.143 15.9 0 7.442-10.143 21.626-17.786 12.203-6.575 27.765-1.878 27.765-1.878v101.301c-31.123 1.174-40.251-19.356-51.576-28.455-14.913-11.981-25.322-22.834-28.031-33.021z"/><path fill="#fff" d="M173 203.506c0 6.709-9.58 3.919-23.387 3.919S123 210.215 123 203.506c0-4.065 4.108-7.663 10.417-9.868 4.104-1.435 9.438 0 14.881 0s10.181-1.435 14.285 0c6.309 2.205 10.417 5.803 10.417 9.868"/><path fill="#000" d="M165 14.316C120.952-1.921 77.5 31.062 86 59.079c7.801 0 26.431-8.267 54.5 2 30.462 11.142 57.147 16.056 73-5 4.8-6.375 11-20.44 11-30.37 0-9.38-3.14-11.994-3.605-11.393-2.081 2.684-5.896 10.065-18.033 11.393-10.173 1.113-12.875-2.183-37.862-11.393"/><path fill="#000" d="M230.318 72.976c.277-9.98-13.173-13.747-21.145-13.862 0 0 2.083 5.198 4.509 16.982 1.712 8.314 1.595 26.566 2.769 33.963.495 3.12 2.201 4.284 2.773 2.08 2.426-9.358 10.747-26.686 11.094-39.163m-165.314 0c-.277-9.98 13.174-13.747 21.145-13.862 0 0-2.083 5.198-4.51 16.982-1.711 8.314-1.594 26.566-2.768 33.963-.495 3.12-2.201 4.284-2.773 2.08-2.426-9.358-10.747-26.686-11.094-39.163"/></svg>