<svg fill="none" xmlns="http://www.w3.org/2000/svg" width="300" height="300" viewBox="0 0 300 300"><g transform="translate(10 10)"><g clip-path="url(#a)"><circle cx="137.111" cy="143.446" r="123.451" stroke="#3C4858" stroke-width="1.012"/><path fill="#3C4858" d="M153.108 20.356c-27.929-.864-89.114-.694-123.663 77.658-23.668 64.39.604 149.418 93.597 168.426-67.954-8.303-116.312-70.121-108.01-138.075C23.336 60.41 85.155 12.053 153.109 20.355z"/><path fill="#3C4858" d="M122.439 20.356c27.928-.864 89.114-.694 123.663 77.658 23.668 64.39-.604 149.418-93.597 168.426 67.954-8.303 116.311-70.121 108.009-138.075-8.303-67.955-70.121-116.312-138.075-108.01z"/><path fill="#3C4858" d="M246.962 96.421c-30.502-80.014-91.6-83.308-119.536-83.872 68.29-4.821 127.558 46.63 132.38 114.919v12.942zM18.72 162.166s2.024-33.393 6.071-47.559c4.047-14.167 7.224-19.906 12.143-28.078 23.753-39.464 58.208-50.161 83.481-53.38 0 0-4.553.198-7.083.507-2.53.308-12.45 2.008-19.824 4.553-22.743 7.847-42.855 22.46-57.586 42.5-13.567 18.454-20.112 41.036-21.863 65.833l4.66 15.624z"/><path fill="#3C4858" d="m256.755 106.313 1.122 9.753c.501 10.92-1.346 21.57-2.88 32.945-3.035 51.607-43.727 105.337-118.236 108.064 36.913 1.605 70.756-13.104 94.559-37.737 20.3-21.009 27.874-48.458 29.243-79.94l-2.686-23.332a69 69 0 0 0-1.122-9.753m-234.043 5.49-3.426 30.668c-.858 8.69-.963 16.923-.303 24.789 3.124 16.395 9.79 32.498 19.343 47.838 17.436 28 46.734 50.741 89.967 58.536-36.77-3.628-68.194-22.972-88.276-50.721-12.382-17.109-19.313-35.132-21.034-55.653-3.495-18.339-2.558-37.044 3.729-55.457"/><path fill="#ED583C" d="M118.955 40.932c-1.219-1.747-3.697-2.75-6.27-3.902l-4.241-1.692c.082.885-.933 4.491 3.168 8.052 1.973 1.712 6.769 4.37 9.282 4.654.17-1.164.428-3.723-1.939-7.112"/><path fill="#fff" d="M114.602 41.084c1.862 1.354 4.692 4.55 4.692 4.55s-4.208-3.63-5.139-4.306-3.277-2.952-3.277-2.952z"/><path fill="#fff" d="M113.606 40.656c-.247 1.316-.627 2.117-.627 2.117l.417-2.44zm1.138.732c1.307-.033 2.141-.285 2.141-.285l-2.418.02zm2.087 1.839c.33.973.327 1.899.327 1.899s.022-.402-.014-1.732z"/><path fill="#ED583C" d="M177.411 239.825c1.466 1.629 4.124 2.338 6.898 3.189l4.546 1.189c-.196-.893.383-4.704-4.257-7.82-2.232-1.499-7.467-3.604-10.069-3.576-.026 1.211.035 3.857 2.882 7.018"/><path fill="#fff" d="M181.838 239.117c-2.073-1.146-5.369-4.052-5.369-4.052s4.757 3.173 5.794 3.746 3.721 2.599 3.721 2.599z"/><path fill="#fff" d="M182.909 239.427c.086-1.375.371-2.241.371-2.241l-.115 2.546zm-1.255-.602c-1.33.199-2.15.562-2.15.562l2.467-.326zm-2.364-1.613c-.461-.952-.576-1.898-.576-1.898s.029.413.234 1.767z"/><path fill="#ED583C" d="M190.541 231.519c1.61 1.788 4.527 2.567 7.572 3.5l4.989 1.306c-.215-.98.42-5.164-4.673-8.584-2.449-1.645-8.195-3.955-11.05-3.924-.029 1.329.038 4.232 3.162 7.702"/><path fill="#fff" d="M195.4 230.742c-2.275-1.258-5.893-4.447-5.893-4.447s5.222 3.482 6.359 4.111c1.138.629 4.085 2.853 4.085 2.853z"/><path fill="#fff" d="M196.576 231.082c.093-1.509.407-2.46.407-2.46s-.06 1.297-.127 2.795zm-1.378-.661c-1.46.219-2.36.617-2.36.617l2.707-.358zm-2.595-1.77c-.505-1.045-.631-2.083-.631-2.083s.031.453.257 1.939z"/><path fill="#ED583C" d="M83.66 273.277c-1.603-1.706-2.122-4.599-2.78-7.628l-.862-4.944c.933.288 5.042.011 7.946 5.228 1.396 2.509 3.17 8.269 2.91 11.036-1.292-.08-4.102-.381-7.214-3.692"/><path fill="#fff" d="M84.807 268.627c1.036 2.309 3.836 6.076 3.836 6.076s-2.954-5.346-3.472-6.501c-.518-1.154-2.435-4.192-2.435-4.192z"/><path fill="#fff" d="M84.572 267.459c1.472.032 2.42-.195 2.42-.195s-1.263-.047-2.72-.104zm.53 1.39c-.33 1.399-.79 2.239-.79 2.239l.567-2.597zm1.507 2.66c.972.576 1.969.782 1.969.782s-.437-.067-1.86-.407zm22.488-7.877c-2.009.914-4.116 1.045-7.024 1.33l-4.39-1.589c.372-.842 1.132-5.131 6.335-7.278 2.502-1.032 8.622-1.747 11.184-1.199-.216 1.2-.565 6.216-6.105 8.736"/><path fill="#ED583C" d="M110.35 261.977c-1.773 1.314-4.538 1.482-7.445 1.767l-4.724.264c.373-.842 2.144-5.557 7.346-7.703 2.502-1.032 6.509-1.224 9.071-.676-.217 1.2-.806 3.798-4.248 6.348"/><path fill="#fff" d="M106.123 260.393c2.275-.717 6.109-2.924 6.109-2.924s-5.329 2.179-6.467 2.537-4.192 1.82-4.192 1.82z"/><path fill="#fff" d="M105.004 260.485c.191-1.374.083-2.286.083-2.286l-.396 2.535zm1.359-.344c1.273.463 2.009.985 2.009.985l-2.369-.815zm2.656-1.119c.645-.847.947-1.757.947-1.757s-.11.401-.584 1.696zm13.932 9.676c-1.478.784-3.066.98-5.252 1.329l-3.394-1c.243-.654.621-3.933 4.457-5.796 1.845-.896 6.441-1.719 8.405-1.422-.109.918-.142 4.728-4.216 6.889"/><path fill="#ED583C" d="M123.823 267.388c-1.281 1.076-3.365 1.33-5.551 1.679l-3.56.418c.243-.654 1.366-4.302 5.202-6.165 1.845-.896 4.866-1.225 6.829-.929-.108.918-.435 2.91-2.92 4.997"/><path fill="#fff" d="M120.553 266.385c1.687-.647 4.486-2.493 4.486-2.493s-3.931 1.893-4.775 2.216-3.087 1.57-3.087 1.57z"/><path fill="#fff" d="M119.71 266.506c.082-1.048-.043-1.733-.043-1.733l-.182 1.935zm1.013-.322c.984.291 1.564.652 1.564.652l-1.829-.508zm1.957-.969c.449-.671.636-1.373.636-1.373s-.066.309-.364 1.31zm-33.63-18.944c-2.198.614-8.077 6.739-9.051 8.943l1.513.748c1.486 1.897 9.537 2.975 11.486-1.434 1.126-2.547 6.555-5.509 7.735-7.95-1.117-.585-7.414-1.496-11.682-.307z"/><path fill="#ED583C" d="M90.37 246.904c-2.199.613-4.093 2.763-6.172 4.957l-3.216 3.689c.924.231 5.898 1.779 10.956-1.105 2.432-1.387 5.134-4.537 6.314-6.977-1.117-.585-3.613-1.754-7.882-.564"/><path fill="#fff" d="M88.978 251.362c2.03-1.403 6.269-3.131 6.269-3.131s-5.165 2.968-6.18 3.669-4.15 2.266-4.15 2.266z"/><path fill="#fff" d="M88.193 252.217c1.243.717 1.919 1.385 1.919 1.385l-2.322-1.288zm1.144-.892c.43-1.333.471-2.266.471-2.266s-.388 1.138-.839 2.452zm2.6-1.458a7 7 0 0 1 2.037.343s-.398-.164-1.756-.6l-.28.257zm78.087 15.169c.85-1.778.217-3.786-.028-6.384l-3.409-2.603c-.675.47-3.531.985-4.529 5.91-.48 2.368-.107 6.54.809 8.693 1.015-.394 5.506-2.167 7.157-5.616"/><path fill="#ED583C" d="M168.785 266.416c.851-1.778.529-4.23.285-6.827l-.571-4.186c-.675.469-4.507 2.823-5.505 7.748-.48 2.369.032 5.913.948 8.066 1.015-.393 3.192-1.352 4.843-4.801"/><path fill="#fff" d="M166.678 262.979c-.241 2.116-1.525 5.852-1.525 5.852s1.004-5.042 1.125-6.1.884-3.984.884-3.984z"/><path fill="#fff" d="M166.569 261.983c-1.172.4-1.99.46-1.99.46l2.155-.777zm-.07 1.249c.622 1.038 1.204 1.594 1.204 1.594l-1.117-1.938zm-.53 2.519c-.633.709-1.38 1.129-1.38 1.129s.334-.166 1.388-.801zm19.954-2.786c1.067-2.001.439-4.343.288-7.341l-3.79-3.165c-.799.506-4.109.956-5.503 6.569-.671 2.699-.451 7.515.494 10.036 1.187-.401 6.44-2.215 8.511-6.099"/><path fill="#ED583C" d="M184.43 264.489c1.067-2.001.82-4.837.669-7.836l-.447-4.841c-.799.505-5.324 3.02-6.718 8.633-.671 2.7-.26 6.802.685 9.323 1.187-.402 3.739-1.394 5.811-5.279"/><path fill="#fff" d="M182.18 260.432c-.384 2.421-2.048 6.653-2.048 6.653s1.408-5.748 1.6-6.958c.192-1.211 1.216-4.537 1.216-4.537z"/><path fill="#fff" d="M182.104 259.281c-1.368.402-2.312.429-2.312.429l2.517-.786zm-.144 1.434c.664 1.223 1.306 1.893 1.306 1.893l-1.188-2.285zm-.735 2.868a7 7 0 0 1-1.644 1.229s.392-.173 1.637-.851zm23.552-7.224c.7-2.602-1.483-8.987-2.459-12.418l-4.404 1.194c-.79.8-4.501 2.205-4.614 9.075-.054 3.305 1.488 8.82 3.256 11.486 1.267-.783 6.862-4.287 8.221-9.337"/><path fill="#ED583C" d="M203.456 258.524c.701-2.603-.344-5.819-1.321-9.25l-1.811-5.485c-.791.799-5.356 4.92-5.468 11.79-.055 3.305 1.518 7.943 3.287 10.609 1.266-.783 3.955-2.614 5.313-7.664"/><path fill="#fff" d="M199.767 254.429c.203 2.905-.591 8.248-.591 8.248s.093-7.029-.008-8.482.194-5.577.194-5.577z"/><path fill="#fff" d="M199.371 253.116c-1.476.832-2.561 1.116-2.561 1.116l2.704-1.583zm.217 1.699c1.096 1.239 2.018 1.842 2.018 1.842l-1.986-2.327zm-.084 3.517a8.3 8.3 0 0 1-1.573 1.862s.407-.305 1.666-1.422z"/><path fill="#ED583C" d="M166.632 241.434c1.842.672 3.321 2.639 4.955 4.656l2.508 3.372c-.807.136-3.775 1.893-7.913-.914-1.99-1.35-5.488-4.988-6.336-7.156.996-.427 3.211-1.261 6.786.042"/><path fill="#fff" d="M167.527 245.343c-1.645-1.336-5.159-3.098-5.159-3.098s4.225 2.885 5.047 3.553 3.402 2.217 3.402 2.217z"/><path fill="#fff" d="M168.142 246.128c-1.112.531-1.735 1.058-1.735 1.058l2.073-.948zm-.92-.84c-.28-1.17-.253-1.971-.253-1.971l.555 2.155zm-2.129-1.421c-.944-.064-1.767.158-1.767.158s.352-.114 1.544-.397z"/><path fill="#ED583C" d="M74.822 264.513c-.092-2.567-1.946-5.206-3.798-8.058l-3.19-4.49c-.496.95-3.885 3.939-2.06 10.232.877 3.026 3.996 8.858 6.356 10.791.934-1.068 2.87-3.492 2.692-8.475"/><path fill="#fff" d="M70.312 261.817c1 2.59 1.775 7.682 1.775 7.682s-1.888-6.432-2.388-7.727-1.387-5.136-1.387-5.136z"/><path fill="#fff" d="M69.582 260.732c-1.111 1.171-2.02 1.735-2.02 1.735l2.02-2.201zm.675 1.486c1.345.822 2.355 1.113 2.355 1.113l-2.462-1.564zm.911 3.229c-.303 1.202-.912 2.138-.912 2.138s.285-.392 1.12-1.763z"/><path fill="#ED583C" d="M154.753 6.9c.531 1.813 2.354 3.373 4.213 5.085l3.126 2.649c.188-.763 2.107-3.475-.354-7.642-1.184-2.004-4.501-5.62-6.563-6.59-.485.921-1.452 2.98-.422 6.499z"/><path fill="#fff" d="M158.514 8.044c-1.194-1.673-2.677-5.165-2.677-5.165s2.532 4.255 3.129 5.092 1.935 3.418 1.935 3.418z"/><path fill="#fff" d="M159.239 8.691c.595-1.025 1.153-1.583 1.153-1.583s-.497.888-1.068 1.915zm-.758-.943c-1.125-.353-1.91-.386-1.91-.386s.961.319 2.069.69zm-1.244-2.142c.002-.908.275-1.68.275-1.68s-.136.329-.494 1.449z"/><path fill="#ED583C" d="M137.242 6.626c.997 1.593 3.164 2.595 5.408 3.733l3.709 1.694c-.026-.781 1.081-3.898-2.402-7.225-1.674-1.6-5.829-4.168-8.065-4.542-.216 1.014-.587 3.248 1.35 6.34"/><path fill="#fff" d="M141.152 6.706c-1.595-1.28-3.958-4.225-3.958-4.225s3.574 3.393 4.372 4.033c.797.64 2.776 2.753 2.776 2.753l-3.19-2.56z"/><path fill="#fff" d="M142.022 7.13c.293-1.143.677-1.828.677-1.828s-.236.985-.506 2.123zm-.981-.698c-1.173-.035-1.934.145-1.934.145l2.168.102zm-1.77-1.716c-.243-.871-.19-1.684-.19-1.684s-.041.352-.082 1.521zm25.161 28.183c1.246-1.753 2.166-2.357 3.107-7.756s-2.601-6.41-2.601-6.41c-.813.368-4.18 1.43-6.168 6.567-.956 2.47-1.847 7.985-1.261 10.51 1.166-.216 4.506.49 6.923-2.911"/><path fill="#ED583C" d="M164.871 31.272c1.246-1.752 1.354-4.48 1.573-7.349l.162-4.66c-.814.37-4.59.567-6.578 5.704-.956 2.47-1.847 7.984-1.261 10.51 1.166-.216 3.687-.804 6.104-4.205"/><path fill="#fff" d="M163.242 27.106c-.653 2.246-2.728 6.033-2.728 6.033s2.017-5.262 2.343-6.385 1.69-4.14 1.69-4.14z"/><path fill="#fff" d="M163.309 26.002c-1.336.192-2.228.087-2.228.087l2.464-.396zm-.308 1.342c.477 1.254 1.001 1.98 1.001 1.98l-.843-2.336zm-1.037 2.622c-.813.639-1.695.94-1.695.94s.39-.111 1.643-.581zm18.371 7.928c1.751-1.531 3.765-.836 5.756-5.816s.602-6.769.602-6.769c-.949.185-6.222-1.236-9.604 3.672-1.627 2.36-4.218 9-4.235 11.806 1.281.066 4.083.08 7.481-2.893"/><path fill="#ED583C" d="M181.743 37.86c1.751-1.532 2.551-4.376 3.501-7.34l1.342-4.865c-.949.184-4.974-.556-8.357 4.352-1.627 2.36-3.949 7.94-3.967 10.746 1.281.065 4.083.08 7.481-2.893"/><path fill="#fff" d="M181.074 33.066c-1.251 2.2-4.386 5.665-4.386 5.665s3.444-5.033 4.07-6.133 2.819-3.933 2.819-3.933l-2.503 4.4z"/><path fill="#fff" d="M181.422 31.92c-1.454-.134-2.366-.469-2.366-.469s1.249.095 2.693.202zm-.661 1.335c.187 1.44.557 2.335.557 2.335s-.141-1.239-.301-2.67zm-1.75 2.5c-1.017.468-2.02.563-2.02.563s.438-.019 1.875-.199z"/><path fill="#ED583C" d="M180.66 7.806c1.054 1.811.919 4.47.878 7.275l-.253 4.539c-.757-.43-4.407-.956-5.884-6.119-.71-2.483-1.089-7.915-.297-10.316 1.112.313 3.509 1.106 5.556 4.621"/><path fill="#fff" d="M178.71 11.708c-.436-2.239-2.116-6.099-2.116-6.099s1.494 5.288 1.712 6.407 1.276 4.168 1.276 4.168z"/><path fill="#fff" d="M178.678 12.786c-1.28-.304-2.155-.28-2.155-.28l2.357.601zm-.181-1.33c.574-1.176 1.147-1.834 1.147-1.834l-1.025 2.193zm-.776-2.638c-.733-.692-1.563-1.06-1.563-1.06s.369.14 1.544.708zm-37.167 12.878c.832-1.721 2.912-2.974 5.055-4.373l4.998-1.957c.041.545 1.692 1.924 1.183 4.554a7.9 7.9 0 0 1-1.725 3.623c-1.516 1.803-7.954 4.087-10.174 4.712-.331-1.002-.952-3.219.663-6.559"/><path fill="#ED583C" d="M142.196 21.742c.832-1.722 2.912-2.974 5.055-4.374l3.562-2.122c.061.792 1.524 3.82-1.628 7.57-1.517 1.803-5.432 4.86-7.652 5.484-.331-1-.952-3.218.663-6.558"/><path fill="#fff" d="M146.141 21.228c-1.471 1.47-3.534 4.71-3.534 4.71s3.238-3.826 3.974-4.561c.735-.736 2.502-3.09 2.502-3.09z"/><path fill="#fff" d="M146.973 20.703c.423 1.123.887 1.773.887 1.773l-.747-2.09zm-.914.814c-1.182.165-1.971.067-1.971.067s1.012-.158 2.18-.343zm-1.6 1.931c-.149.907-.005 1.723-.005 1.723s-.081-.35-.251-1.529zM80.256 33.896c-.994-2.196-.508-5.301-.114-8.585l.856-5.3c.821.558 9.298 1.485 10.364 7.638.513 2.959-4.047 9.294-5.26 12.052-1.247-.445-3.917-1.543-5.846-5.805M100 26.506c.564-1.831 2.488-3.424 4.452-5.171l3.3-2.706c.196.765 4.754 5.78 2.15 10.005-1.253 2.032-7.304 3.403-9.478 4.406-.508-.921-1.52-2.98-.424-6.534"/><path fill="#ED583C" d="M109.566 24.315c-.376 2.289-2.372 4.469-4.39 6.84l-3.428 3.706c-.345-.898-3.104-3.904-.72-9.357 1.147-2.622 4.664-7.536 7.041-9.035.733 1.047 2.228 3.405 1.497 7.846"/><path fill="#fff" d="M105.135 26.288c1.209-2.22 2.497-6.701 2.497-6.701s-2.458 5.57-3.062 6.681c-.605 1.11-1.853 4.46-1.853 4.46z"/><path fill="#fff" d="M104.345 27.187c-.883-1.157-1.651-1.75-1.651-1.75s.742 1.005 1.597 2.167zm.786-1.264c1.324-.604 2.28-.766 2.28-.766s-1.128.537-2.429 1.159zm1.199-2.801c-.139-1.105-.59-2.002-.59-2.002s.216.379.823 1.688z"/><path fill="#ED583C" d="M98.947 53.31c-2.15-1.398-3.469-4.387-4.972-7.485l-2.227-5.117c1.063.05 5.332-1.406 9.791 3.432 2.144 2.326 5.554 8.07 6.015 11.143-1.385.276-4.436.74-8.607-1.973"/><path fill="#fff" d="M98.92 47.948c1.711 2.21 5.673 5.507 5.673 5.507s-4.546-4.965-5.401-6.07-3.692-3.86-3.692-3.86z"/><path fill="#fff" d="M98.361 46.748c1.564-.38 2.505-.892 2.505-.892l-2.903.653zm.93 1.358c.023 1.608-.238 2.648-.238 2.648s-.042-1.38-.093-2.974zm2.302 2.459c1.181.35 2.289.293 2.289.293s-.479.05-2.074.083z"/><path fill="#ED583C" d="M90.65 54.542c-1.49-2.177-4.598-3.462-7.82-4.934l-5.32-2.168c.078 1.093-1.318 5.52 3.767 9.991 2.446 2.15 8.438 5.52 11.61 5.92.252-1.432.656-4.582-2.237-8.809"/><path fill="#fff" d="M85.133 54.645c2.316 1.706 5.802 5.703 5.802 5.703s-5.217-4.557-6.375-5.41c-1.158-.854-4.06-3.705-4.06-3.705z"/><path fill="#fff" d="M83.885 54.099c-.353 1.617-.858 2.598-.858 2.598l.602-3.002zm1.419.924c1.655-.015 2.719-.31 2.719-.31l-3.062-.023zm2.586 2.308c.388 1.207.356 2.348.356 2.348s.04-.494.035-2.136z"/><path fill="#ED583C" d="M82.263 33.643c-.945-2.09-.483-5.044-.108-8.168l.814-5.043c.782.53 4.732 1.36 5.746 7.215.488 2.815.264 8.895-.89 11.519-1.185-.423-3.726-1.468-5.562-5.523"/><path fill="#fff" d="M84.867 29.424c.215 2.524 1.607 6.94 1.607 6.94s-1.019-5.994-1.126-7.256c-.108-1.263-.911-4.732-.911-4.732z"/><path fill="#fff" d="M85.03 28.225c1.371.424 2.336.456 2.336.456s-1.17-.383-2.52-.828zm.042 1.495c-.77 1.271-1.477 1.966-1.477 1.966s.644-1.102 1.385-2.375zm.541 2.991c.724.82 1.592 1.287 1.592 1.287s-.388-.182-1.613-.893l.02-.394z"/><circle cx="11.786" cy="197.832" r="3.036" fill="#ED583C" transform="rotate(5.993 11.786 197.832)"/><path stroke="#ED583C" stroke-width="1.012" d="M12.128 189.728s-1.88 3.364.161 8.156"/><path stroke="#3C4858" stroke-width="2.024" d="M30.235 206.962c.661-3.806-4.518-4.143-7.49-7.545-1.102-1.263-1.9-2.947-1.984-5.387m0 0c-1.447.424-4.677.616-6.012-2.01-1.336-2.627-2.132-2.53-2.45-3.615m8.462 5.625c-.092-2.679-2.723-3.686-2.462-6"/><circle r="3.036" fill="#ED583C" transform="scale(-1 1)rotate(-12.907 166.355 1140.912)"/><path stroke="#ED583C" stroke-width="1.012" d="M252.939 58.206s.689 3.791-2.794 7.665"/><circle cx="256.073" cy="69.042" r="3.036" fill="#ED583C" transform="rotate(.25 256.073 69.042)"/><path stroke="#ED583C" stroke-width="1.012" d="M252.397 58.309s1.171-.203 1.227.281c.22 1.877.96 6.826 2.955 10.454"/><path stroke="#3C4858" stroke-width="2.024" d="M236.41 73.48c-.447-3.837 2.371-2.621 5.529-5.852 1.171-1.198 2.063-2.835 2.283-5.267m0 0c1.422.505 2.912-2.519 5.301-2.519 2.946 0 3.464-1.573 3.464-2.622m-8.765 5.142c.242-2.67.131-2.817.001-5.142"/><circle cx="254.633" cy="221.116" r="3.036" fill="#ED583C"/><path stroke="#ED583C" stroke-width="1.012" d="M254.127 213.021s-1.518 3.542 1.012 8.095"/><circle r="3.036" fill="#ED583C" transform="scale(-1 1)rotate(-12.657 880.553 1232.502)"/><path stroke="#ED583C" stroke-width="1.012" d="M253.621 212.515s-1.996 6.369-5.462 10.257"/><circle cx="258.792" cy="219.4" r="2.312" fill="#ED583C" transform="rotate(-18.463 258.792 219.4)"/><path stroke="#ED583C" stroke-width="1.012" d="M253.115 212.515s1.055.082 1.135.231c.49.899 2.396 4.233 4.907 6.532"/><path stroke="#3C4858" stroke-width="2.024" d="M229.067 224.027c3.205-4.216 10.828-13.053 15.685-14.672m0 0c.674 1.349 2.732 3.845 5.565 3.036s3.542.337 3.542 1.011m-9.107-4.047c2.542-.848 4.553-.515 6.071-2.281s2.53-2.273 4.048.763"/></g><defs><clipPath id="a"><path fill="#fff" d="M0 .869h276v276H0z"/></clipPath></defs></g></svg>