<svg fill="none" xmlns="http://www.w3.org/2000/svg" width="300" height="300" viewBox="0 0 300 300"><g transform="translate(10 10)"><path d="M29.313 46.438A8.69 8.69 0 0 1 38 37.751h20.054a8.69 8.69 0 0 1 8.687 8.687v54.131c0 7.382-5.984 13.366-13.365 13.366H42.678c-7.381 0-13.365-5.984-13.365-13.366z" fill="#399390"/><path d="M2 111.131a33.41 33.41 0 0 1 22.227-31.486l6.94-2.466h35.406l5.94 2.226A33.41 33.41 0 0 1 94.2 110.727l-.133 133.536c-.007 7.376-5.989 13.352-13.365 13.352H15.366C7.984 257.615 2 251.631 2 244.249z" fill="#399390"/><mask id="a" maskUnits="userSpaceOnUse" x="2" y="77" width="93" height="181"><path d="M2 111.131a33.41 33.41 0 0 1 22.227-31.486l6.94-2.466h35.406l5.94 2.226A33.41 33.41 0 0 1 94.2 110.727l-.133 133.536c-.007 7.376-5.989 13.352-13.365 13.352H15.366C7.984 257.615 2 251.631 2 244.249z" fill="#399390"/></mask><g mask="url(#a)"><path d="M10.093 88.802c8.43 1.22 12.982-2.134 20.231-3.353s12.14 0 20.906 3.353c8.768 3.353 9.442 2.397 16.523 1.178s10.453-4.53 17.197-4.53 16.354 7.273 16.354 7.273l-6.707 158.188c-.303 7.155-6.192 12.8-13.354 12.8H15.29c-7.352 0-13.323-5.937-13.366-13.289L.988 88.802s.675-1.22 9.105 0" fill="#2B7D7B"/></g><rect x="33.359" y="13.692" width="28.999" height="24.058" rx="6.683" fill="#5F3A59"/><rect x="10.688" y="118.613" width="74.847" height="120.959" rx="8.019" fill="#FFE09E"/><path d="M206.354 34.746a8.69 8.69 0 0 1 8.688-8.688h20.053a8.69 8.69 0 0 1 8.688 8.688v54.13c0 7.382-5.984 13.366-13.366 13.366H219.72c-7.382 0-13.366-5.984-13.366-13.366z" fill="#4081A5"/><path d="M179.041 99.438a33.41 33.41 0 0 1 22.228-31.486l6.939-2.465h35.406l5.94 2.226a33.41 33.41 0 0 1 21.687 31.322l-.132 133.535c-.008 7.377-5.99 13.352-13.366 13.352h-65.336c-7.382 0-13.366-5.984-13.366-13.365z" fill="#4081A5"/><mask id="b" maskUnits="userSpaceOnUse" x="179" y="65" width="93" height="181"><path d="M179.041 99.438a33.41 33.41 0 0 1 22.228-31.486l6.939-2.465h35.406l5.94 2.226a33.41 33.41 0 0 1 21.687 31.322l-.132 133.535c-.008 7.377-5.99 13.352-13.366 13.352h-65.336c-7.382 0-13.366-5.984-13.366-13.365z" fill="#399390"/></mask><g mask="url(#b)"><path d="M187.134 77.11c8.43 1.219 12.982-2.134 20.232-3.353 7.249-1.22 12.139 0 20.906 3.353 8.767 3.352 9.441 2.397 16.522 1.178 7.081-1.22 10.453-4.531 17.197-4.531s16.354 7.274 16.354 7.274l-6.707 158.188c-.303 7.155-6.192 12.799-13.354 12.799H192.33c-7.352 0-13.323-5.937-13.366-13.288l-.934-161.62s.674-1.22 9.104 0" fill="#1A587A"/></g><rect x="210.4" y="2" width="28.999" height="24.058" rx="6.683" fill="#FFE3A6"/><rect x="187.729" y="106.92" width="74.847" height="120.959" rx="8.019" fill="#E2A5FF"/><path d="M109.237 69.501c0-7.381 5.984-13.365 13.366-13.365h47.448c7.382 0 13.366 5.984 13.366 13.365v49.453c0 7.382-5.984 13.366-13.366 13.366h-47.448c-7.382 0-13.366-5.984-13.366-13.366z" fill="#90CAC8"/><path d="M55.107 117.036c0-15.97 11.3-29.707 26.97-32.787l30.836-6.06h70.169l28.12 5.83c15.531 3.22 26.659 16.916 26.631 32.778l-.262 145.861c-.013 7.373-5.993 13.342-13.365 13.342H68.472c-7.381 0-13.365-5.984-13.365-13.366z" fill="#90CAC8"/><mask id="c" maskUnits="userSpaceOnUse" x="55" y="78" width="183" height="198"><path d="M55.107 117.036c0-15.97 11.3-29.707 26.97-32.787l30.836-6.06h70.169l28.12 5.83c15.531 3.22 26.659 16.916 26.631 32.778l-.262 145.861c-.013 7.373-5.993 13.342-13.365 13.342H68.472c-7.381 0-13.365-5.984-13.365-13.366z" fill="#FFB7DE"/></mask><g mask="url(#c)"><path d="M71.145 90.931c16.707 1.337 25.73-2.339 40.097-3.675 14.368-1.337 24.058 0 41.434 3.675 17.375 3.676 18.711 2.628 32.745 1.292s20.717-4.968 34.083-4.968 32.411 7.975 32.411 7.975l-13.422 175.109c-.533 6.965-6.341 12.344-13.326 12.344H68.333c-7.327 0-13.288-5.899-13.365-13.226L53.102 90.931s1.336-1.337 18.043 0" fill="#53AFAC"/></g><rect x="117.257" y="32.078" width="57.472" height="24.058" rx="6.683" fill="#893976"/><rect x="67.47" y="110.601" width="158.383" height="145.685" rx="6.349" fill="#fff" stroke="#53AFAC" stroke-width="3.341"/><path fill="#fff" d="M80.501 117.617h131.651v131.651H80.501z"/></g></svg>