<svg fill="none" xmlns="http://www.w3.org/2000/svg" width="300" height="300" viewBox="0 0 300 300"><g transform="translate(10 10)"><circle cx="138" cy="153" r="111" fill="#fff" stroke="#FF5130" stroke-width="20"/><path d="M88.055 11.586c15.062-14.49 34.681-4.75 41.252 1.287 9.081-6.48 21.928-13.695 38.319-3.976 14.176 8.406 14.965 30.482 0 49.7-16.169 20.763-39.648 33.795-39.648 29.377 0-12.842-21.134-22.737-33.76-29.378-16.867-8.871-21.225-32.52-6.163-47.01" fill="#E1472A"/><path d="M89.833 9.722c14.921-14.49 34.356-4.75 40.866 1.287 8.996-6.48 21.723-13.695 37.961-3.976 14.043 8.406 14.825 30.482 0 49.7-16.018 20.763-39.278 33.795-39.278 29.377 0-12.842-20.935-22.737-33.444-29.377-16.71-8.872-21.026-32.52-6.105-47.01" fill="#FF5130"/><path d="M126.979 32.437c10.281-10.044 25.169-4.185 29.654 0 6.199-4.492 15.909-10.616 25.991-2.313 7.921 6.523 9.942 20.036-2.595 34.166-9.583 10.8-22.411 20.899-23.396 18.664-4.045-9.185-14.876-14.385-23.657-18.664-12.251-5.97-16.278-21.81-5.997-31.853" fill="#E1472A"/></g></svg>