<svg fill="none" xmlns="http://www.w3.org/2000/svg" width="300" height="300" viewBox="0 0 300 300"><g transform="translate(10 15)"><path d="M77.884 104.403c8.269-5.52 33.716-30.651 42.842-27.9 2.491 2.743 1.169 10.707-2.573 23.118-4.679 15.514-26.004 41.937-43.27 49.672-17.266 7.736-41.901 8.272-47.45-6.343-4.438-11.693.298-26.756 8.379-29.066 10.168-2.907 32.827-3.309 42.072-9.481" fill="#AA80F9"/><path d="M46.267 134.868c.526 5.136 2.733 13.481-.522 13.435-3.8-.054-8.196-5.91-9-13.765s2.58-12.807 5.211-13.076c3.971-.406 3.507 5.551 4.311 13.406m-13.103-4.838c.099.967-.406 3.138-1.45 3.174-1.217.041-2.47-1.15-2.621-2.629-.152-1.479.946-2.775 1.793-2.862 1.28-.131 2.126.838 2.278 2.317m.691 8.294c.113 1.101-.417 3.57-1.54 3.603-1.31.039-2.667-1.324-2.84-3.009-.172-1.685 1.002-3.153 1.913-3.246 1.376-.141 2.294.967 2.467 2.652m3.701 6.366c.472.86.91 3.048.03 3.45-1.027.468-2.577-.191-3.3-1.507s-.302-2.903.39-3.283c1.043-.573 2.157.024 2.88 1.34" fill="#FFF8EE"/><path d="M197 102.888c-8.715-4.593-36.367-26.753-45.078-23.106-2.175 2.958-.056 10.67 4.903 22.518 6.2 14.81 29.922 38.665 47.73 44.52s42.14 3.86 46.111-11.112c3.177-11.977-2.867-24.253-11.067-25.703-10.319-1.823-32.856-1.981-42.599-7.117" fill="#AA80F9"/><path d="M228.217 126.98c.007 4.694-2.296 15.054 1.584 14.705 4.531-.407 8.713-6.749 8.702-13.928s-4.582-12.858-7.756-12.853c-4.791.007-2.541 4.897-2.53 12.076m13.164-4.262c.267 1.144 1.671 3.433 2.841 3.072 1.365-.422 2.289-2.266 1.881-4.016s-2.13-2.809-3.102-2.582c-1.468.342-2.029 1.776-1.62 3.526m.273 7.7c-.215 1.156.153 3.816 1.369 3.955 1.419.162 3.006-1.155 3.335-2.922.329-1.766-.822-3.428-1.803-3.611-1.482-.276-2.572.812-2.901 2.578m-2.463 7.365c-.607 1.006-1.199 3.626-.11 4.183 1.272.652 3.221-.024 4.15-1.562s.437-3.498-.418-4.015c-1.29-.779-2.693-.144-3.622 1.394" fill="#FFF8EE"/><path d="M206.358 199.031c-7.485-4.99-20.776-20.855-29.281-19.43-2.551 2.177-16.805 27.023-14.867 38.59 2.423 14.46 27.989 28.658 42.6 37.577 20.116 12.28 40.024 9.852 48.393-5.851 5.323-9.986 3.967-28.727-3.021-31.726-8.794-3.773-26.803-7.812-43.824-19.16" fill="#AA80F9"/><path d="M227.228 235.27c-1.748 5.078-2.93 16.988.953 17.91 4.534 1.076 10.951-4.38 13.624-12.146s.376-15.436-2.696-16.494c-4.637-1.596-9.208 2.964-11.881 10.73m20.433-3.362c-.352 1.022-.326 3.511.836 3.827 1.357.369 3.059-.587 3.597-2.151s-.371-3.26-1.301-3.58c-1.402-.483-2.594.341-3.132 1.904m-2.624 9.266c-.349 1.015-.317 3.488.844 3.805 1.356.37 3.055-.578 3.59-2.13s-.378-3.241-1.308-3.561c-1.402-.483-2.591.334-3.126 1.886m-4.209 8.493c-.381 1.107-.418 3.78.746 4.09 1.359.363 3.1-.709 3.683-2.402s-.291-3.495-1.22-3.814c-1.402-.483-2.626.433-3.209 2.126" fill="#FFF8EE"/><path d="M69.642 196.968c7.485-4.99 20.776-20.855 29.281-19.43 2.551 2.176 16.805 27.022 14.867 38.59-2.423 14.46-27.989 28.658-42.6 37.577-20.116 12.279-40.024 9.852-48.393-5.851-5.323-9.986-3.967-28.727 3.021-31.726 8.794-3.773 26.803-7.812 43.824-19.16" fill="#AA80F9"/><path d="M48.772 233.207c1.748 5.078 2.93 16.988-.953 17.91-4.535 1.076-10.95-4.38-13.624-12.146s-.376-15.436 2.696-16.494c4.637-1.596 9.208 2.964 11.881 10.73m-20.433-3.362c.352 1.022.326 3.511-.836 3.827-1.357.369-3.059-.588-3.597-2.151s.371-3.261 1.3-3.58c1.403-.483 2.595.341 3.133 1.904m2.624 9.266c.349 1.015.317 3.488-.844 3.805-1.356.37-3.055-.578-3.59-2.13s.378-3.241 1.308-3.561c1.402-.483 2.591.334 3.125 1.886m4.21 8.493c.38 1.107.418 3.78-.746 4.09-1.359.362-3.1-.709-3.683-2.403s.29-3.494 1.22-3.814c1.402-.482 2.626.434 3.209 2.127" fill="#FFF8EE"/><path d="M200.299 162.555c4.099 27.9 1.108 47.405-7.438 60.232-8.39 12.594-22.858 19.793-44.348 21.481-43.035.848-63.47-10.935-73.027-27.114-9.91-16.778-9.263-39.911-6.003-64.427 2.306-17.347 8.552-33.144 19.291-44.96 10.668-11.737 26.06-19.873 47.375-21.522 15.896-1.23 30.259 7.11 41.685 21.505 11.429 14.398 19.462 34.367 22.465 54.805Z" fill="#FFF8EE" stroke="#AA80F9" stroke-width="9.591"/><ellipse cx="89.613" cy="29.604" rx="16.591" ry="15.321" transform="rotate(-4.425 89.613 29.604)" fill="#AA80F9"/><ellipse cx="91.501" cy="31.723" rx="13.07" ry="12.07" transform="rotate(-4.425 91.501 31.723)" fill="#FFF8EE"/><ellipse cx="164.578" cy="18.478" rx="15.587" ry="15.321" transform="rotate(-4.425 164.578 18.478)" fill="#AA80F9"/><ellipse cx="163.188" cy="21.719" rx="11.706" ry="11.506" transform="rotate(-4.425 163.188 21.719)" fill="#FFF8EE"/><path d="M183.978 51.03c1.934 24.994-17.977 46.573-48.837 48.961S80.668 88.547 78.374 58.904C76.44 33.909 97.277 11.867 128.137 9.479s53.907 16.556 55.841 41.55" fill="#AA80F9"/><path d="M150.774 72.997c.846 10.934-9.412 20.645-22.913 21.69s-25.131-6.973-25.977-17.907 7.202-16.978 20.702-18.023 27.342 3.306 28.188 14.24" fill="#FFF8EE"/><path d="M121.852 72.362c.249 3.216-2.768 6.072-6.739 6.379s-7.391-2.05-7.64-5.267c-.249-3.215 2.249-3.849 6.22-4.156s7.91-.172 8.159 3.044" fill="#000"/><ellipse rx="2.679" ry="2.633" transform="scale(-1 1)rotate(4.425 -767.744 -1801.488)" fill="#000"/><ellipse rx="2.679" ry="2.633" transform="scale(-1 1)rotate(4.425 -791.61 -1382.763)" fill="#000"/><rect x="55.5" y="106.5" width="171" height="141" rx="6.5" fill="#fff" stroke="#8859C2" stroke-width="3"/></g></svg>