<svg xmlns="http://www.w3.org/2000/svg" viewBox="0 0 1500 1500" width="300" height="300" fill="none"><defs><style>.cls-2ann2{fill:#192e3f}</style></defs><path d="M1245.12 307.17c0-69.23-56.32-125.55-125.55-125.55H539.88v32h579.69c51.59 0 93.55 41.97 93.55 93.55v748.38l32-1.12zm-969.66 937.65c-51.59 0-93.56-41.97-93.56-93.55v-844.1c0-2.66.12-5.28.34-7.88l-32.02-1c-.21 2.94-.32 5.9-.32 8.88v844.1c0 69.23 56.32 125.55 125.56 125.55h399.41l1.81-32z" style="fill:#93c6f9"/><path d="M883.5 1235.25c-5.03 0-8.5-1.12-10.4-3.36s-2.85-5.09-2.85-8.56q0-4.86 2.01-11.58c1.34-4.47 2.74-8.78 4.19-12.92 1.9-5.48 4.19-11.91 6.88-19.29 2.68-7.38 5.56-15.1 8.64-23.15s6.21-15.99 9.4-23.83c3.19-7.83 6.29-14.93 9.31-21.31-7.72.11-14.18.28-19.38.5-5.2.23-9.87.53-14.01.92s-8.67 1.04-13.59 1.93c.34-3.8 2.29-6.77 5.87-8.89q5.37-3.18 14.43-4.53c6.04-.89 12.92-1.34 20.64-1.34s14.62.31 20.72.92c6.1.62 11.83 1.2 17.2 1.76s10.74.9 16.11 1.01c-3.8 3.47-8.17 5.65-13.09 6.54-4.92.9-10.12 1.34-15.6 1.34-1.23 0-2.52-.03-3.86-.08-1.34-.06-2.68-.08-4.03-.08h-4.03c-3.58 8.95-7.69 20.25-12.33 33.89q-6.96 20.475-14.01 46.14c-1.57 5.93-2.99 11.24-4.28 15.94s-2.29 9.01-3.02 12.92-1.09 7.72-1.09 11.41v1.85c0 .67.06 1.28.17 1.85m47.99-9.22c-4.81 0-8.22-1.48-10.23-4.45-2.01-2.96-3.02-6.57-3.02-10.82q0-5.205 1.68-10.74c1.68-5.535 2.6-7.16 4.45-10.4s3.91-5.87 6.21-7.89c2.29-2.01 4.61-3.02 6.96-3.02.56 0 1.15.08 1.76.25s1.2.36 1.76.59c-1.01.9-2.21 2.55-3.61 4.95-1.4 2.41-2.71 5.15-3.94 8.22-1.23 3.08-2.27 6.12-3.1 9.14s-1.26 5.59-1.26 7.72c0 3.36.56 5.79 1.68 7.3s2.57 2.26 4.36 2.26c2.35 0 5.14-1.26 8.39-3.78 3.24-2.52 6.43-5.73 9.56-9.65-3.13-2.57-5.57-5.96-7.3-10.15-1.74-4.19-2.6-8.47-2.6-12.83 0-3.69.64-7.16 1.93-10.4 1.28-3.24 3.16-5.84 5.62-7.8s5.42-2.94 8.89-2.94c4.59 0 7.66 1.23 9.23 3.69s2.35 5.54 2.35 9.23c0 4.36-1.06 9.2-3.19 14.51a86.2 86.2 0 0 1-8.05 15.35c2.01 1.12 4.14 1.68 6.38 1.68 1.79 0 3.8-.36 6.04-1.09s4.45-1.98 6.63-3.78c2.18-1.79 3.94-4.19 5.28-7.21l2.01 1.68q-3.36 7.89-9.48 11.16c-4.08 2.18-7.97 3.27-11.66 3.27-1.46 0-2.85-.14-4.19-.42s-2.63-.7-3.86-1.26c-3.8 5.03-7.97 9.23-12.5 12.58-4.53 3.36-8.92 5.03-13.17 5.03Zm24.66-24.66c2.79-4.14 5.12-8.47 6.96-13 1.85-4.53 2.77-8.81 2.77-12.84 0-3.24-.48-5.62-1.43-7.13s-2.15-2.26-3.61-2.26c-2.24 0-4.53 1.62-6.88 4.87s-3.52 7.33-3.52 12.25c0 3.25.47 6.52 1.43 9.81.95 3.3 2.38 6.07 4.28 8.31Z" class="cls-2ann2"/><path d="M987.52 1267.63c-2.46 0-4.7-.75-6.71-2.26s-3.02-4-3.02-7.47 1.04-6.46 3.1-9.31c2.07-2.85 4.72-5.48 7.97-7.89 3.24-2.41 6.8-4.61 10.65-6.63 3.86-2.01 7.52-3.92 10.99-5.7 1.57-3.92 3.05-8.14 4.45-12.67s2.77-9.53 4.11-15.02c-4.25 6.15-8.7 11.27-13.34 15.35q-6.96 6.12-14.01 6.12c-4.03 0-7.13-1.51-9.31-4.53s-3.27-6.93-3.27-11.74c0-5.81 1.43-11.35 4.28-16.61s6.57-9.9 11.16-13.93 9.45-7.19 14.6-9.48c5.14-2.29 9.95-3.44 14.43-3.44q4.86 0 6.96 1.59t2.1 3.78c0 1.01-.28 1.79-.84 2.35s-.95.9-1.17 1.01c-.56-.89-1.4-1.54-2.52-1.93s-2.52-.59-4.19-.59c-4.36 0-8.59 1.29-12.67 3.86s-7.69 5.87-10.82 9.9-5.62 8.2-7.47 12.5c-1.85 4.31-2.77 8.25-2.77 11.83 0 2.68.53 4.73 1.59 6.12 1.06 1.4 2.49 2.1 4.28 2.1 3.24 0 7.13-2.15 11.66-6.46s8.92-9.53 13.17-15.69c.34-1.56.64-2.96.92-4.19s.64-2.79 1.09-4.7c.34-1.56 1.15-3.38 2.43-5.45s3.33-3.1 6.12-3.1c.56 0 1.12.03 1.68.08.56.06 1.17.2 1.85.42 0 1.79-.53 5.06-1.59 9.82s-2.57 10.29-4.53 16.61a318 318 0 0 1-6.79 19.55c3.69-1.79 7.3-4.08 10.82-6.88 3.52-2.79 6.74-6.01 9.65-9.65a45.7 45.7 0 0 0 6.88-11.83l2.18 1.68c-1.68 5.03-4.36 9.62-8.05 13.76s-7.63 7.72-11.83 10.74c-4.19 3.02-8.03 5.37-11.49 7.05-3.13 7.49-6.43 14.35-9.9 20.55-3.47 6.21-7.08 11.16-10.82 14.85-3.75 3.69-7.75 5.54-12 5.54Zm-.5-5.37c2.24 0 5.28-2.21 9.14-6.63s8.02-12 12.5-22.73c-4.48 2.24-8.64 4.56-12.5 6.96s-7.02 4.95-9.48 7.63-3.69 5.65-3.69 8.89c0 1.79.39 3.21 1.17 4.28q1.17 1.59 2.85 1.59Z" class="cls-2ann2"/><path d="M1064.53 1228.04c-6.82 0-11.94-1.87-15.35-5.62s-5.12-8.36-5.12-13.84c0-5.03 1.26-10.34 3.78-15.94 2.52-5.59 5.87-10.85 10.07-15.77 4.19-4.92 8.81-8.92 13.84-12s10.01-4.61 14.93-4.61c2.57 0 4.95.67 7.13 2.01q3.27 2.01 3.27 8.22c0 6.21-1.26 8.25-3.78 12s-5.82 7.08-9.9 9.98c-4.08 2.91-8.56 5.29-13.42 7.13-4.87 1.85-9.71 2.99-14.51 3.44-.23 1.12-.39 2.18-.5 3.19s-.17 1.96-.17 2.85c0 1.68.19 3.36.59 5.03.39 1.68 1.09 3.22 2.1 4.61q1.515 2.1 4.11 3.27c1.73.78 3.89 1.17 6.46 1.17 4.81 0 9.56-1.37 14.26-4.11s9.06-6.35 13.09-10.82 7.44-9.4 10.23-14.76l2.01 1.51c-3.02 6.71-6.85 12.53-11.49 17.45s-9.68 8.75-15.1 11.49c-5.43 2.74-10.93 4.11-16.53 4.11Zm-8.22-28.19c3.02-1.01 6.43-2.49 10.23-4.45s7.47-4.28 10.99-6.96 6.43-5.65 8.72-8.89 3.44-6.65 3.44-10.23c0-1.23-.23-2.18-.67-2.85-.45-.67-1.4-1.01-2.85-1.01-2.68 0-5.54 1.04-8.56 3.1-3.02 2.07-5.93 4.78-8.72 8.14-2.8 3.36-5.31 7.05-7.55 11.07-2.24 4.03-3.92 8.05-5.03 12.08" class="cls-2ann2"/><path d="M1116.54 1228.37c-4.81 0-8.5-1.4-11.07-4.19-2.57-2.8-3.86-6.93-3.86-12.42 0-3.36.48-7.38 1.43-12.08s2.24-9.7 3.86-15.02c1.62-5.31 3.38-10.49 5.29-15.52-1.12-.22-2.18-.59-3.19-1.09q-1.515-.75-2.85-1.26v-3.02c.89.11 1.96.39 3.19.84s2.63.73 4.19.84c3.13-8.05 6.46-15.49 9.98-22.31s6.91-12.3 10.15-16.44q4.86-6.21 8.22-6.21c.89 0 1.7.31 2.43.92.73.62 1.09 1.54 1.09 2.77 0 1.12-.45 2.71-1.34 4.78-.9 2.07-2.13 4.5-3.69 7.3-1.57 2.8-3.3 5.87-5.2 9.23s-3.92 6.94-6.04 10.74c-2.13 3.8-4.14 7.78-6.04 11.91 2.79.45 5.51.84 8.14 1.17 2.63.34 5.34.5 8.14.5 3.02 0 6.26-.22 9.73-.67q5.205-.675 11.91-2.01c2.91-7.94 6.18-15.83 9.82-23.66q5.445-11.745 11.07-21.39c5.625-9.645 7.32-11.58 10.74-15.44 3.41-3.86 6.35-5.79 8.81-5.79 2.01 0 3.44 1.2 4.28 3.61q1.26 3.615 1.26 6.96c0 3.92-.98 8.53-2.94 13.84s-4.61 10.8-7.97 16.44a97.2 97.2 0 0 1-11.66 15.77c-4.42 4.87-9.09 8.81-14.01 11.83-1.79 4.25-3.38 9.17-4.78 14.76q-2.1 8.385-2.94 16.53c-.56 5.43-.62 9.93-.17 13.51 2.68-7.72 5.7-14.87 9.06-21.48 3.36-6.6 7.13-11.91 11.33-15.94 4.19-4.03 8.75-6.04 13.67-6.04 4.59 0 7.86 1.59 9.82 4.78q2.94 4.785 2.94 10.32c0 3.47-.59 6.82-1.76 10.07s-2.38 6.38-3.61 9.4-1.85 5.93-1.85 8.72c0 2.24.47 3.86 1.43 4.87.95 1.01 2.15 1.51 3.61 1.51q3.855 0 8.64-3.69c3.19-2.46 6.35-5.73 9.48-9.82 3.13-4.08 5.81-8.53 8.05-13.34l2.18 2.01c-2.35 5.48-5.2 10.43-8.56 14.85s-7.05 7.91-11.07 10.49c-4.03 2.57-8.22 3.86-12.58 3.86-3.8 0-6.68-1.01-8.64-3.02s-2.94-4.53-2.94-7.55c0-2.35.45-4.98 1.34-7.89s1.76-5.87 2.6-8.89 1.26-5.87 1.26-8.56c0-2.91-.62-4.98-1.85-6.21s-2.74-1.85-4.53-1.85c-2.8 0-5.31 1.12-7.55 3.36q-3.36 3.36-6.12 8.64c-1.85 3.52-3.58 7.24-5.2 11.16s-3.16 7.63-4.61 11.16c-1.46 3.52-2.91 6.4-4.36 8.64q-2.175 3.36-4.53 3.36c-1.23 0-2.35-.62-3.36-1.85s-1.82-2.97-2.43-5.2c-.62-2.24-.98-4.84-1.09-7.8s.06-6.12.5-9.48c-4.25 7.49-9.48 13.65-15.69 18.46s-12.72 7.21-19.55 7.21Zm4.87-6.21c5.81 0 11.52-2.57 17.11-7.72 5.59-5.14 10.51-12.14 14.76-20.97.78-3.69 1.59-7.21 2.43-10.57s1.98-7.1 3.44-11.24c-3.8.9-7.41 1.51-10.82 1.85s-6.69.5-9.82.5-6.1-.19-8.89-.59c-2.8-.39-5.59-.81-8.39-1.26-2.57 5.93-4.76 12.03-6.54 18.29-1.79 6.27-2.68 12.36-2.68 18.29 0 4.81.73 8.25 2.18 10.32s3.86 3.1 7.21 3.1Zm51.17-59.39c3.91-3.13 7.58-6.9 10.99-11.33 3.41-4.42 6.46-8.95 9.14-13.59s4.78-8.95 6.29-12.92 2.27-7.02 2.27-9.14c0-.89-.23-1.34-.67-1.34q-1.17 0-4.53 3.69c-3.36 3.69-4.78 5.87-7.63 10.24-2.85 4.36-5.68 9.48-8.47 15.35-2.8 5.87-5.26 12.22-7.38 19.04Z" class="cls-2ann2"/><path d="M1248.25 1228.04c-6.82 0-11.94-1.87-15.35-5.62s-5.12-8.36-5.12-13.84c0-5.03 1.26-10.34 3.78-15.94 2.52-5.59 5.87-10.85 10.07-15.77 4.19-4.92 8.81-8.92 13.84-12s10.01-4.61 14.93-4.61c2.57 0 4.95.67 7.13 2.01q3.27 2.01 3.27 8.22c0 6.21-1.26 8.25-3.78 12s-5.82 7.08-9.9 9.98c-4.08 2.91-8.56 5.29-13.42 7.13-4.87 1.85-9.71 2.99-14.51 3.44-.23 1.12-.39 2.18-.5 3.19s-.17 1.96-.17 2.85c0 1.68.19 3.36.59 5.03.39 1.68 1.09 3.22 2.1 4.61q1.515 2.1 4.11 3.27c1.73.78 3.89 1.17 6.46 1.17 4.81 0 9.56-1.37 14.26-4.11s9.06-6.35 13.09-10.82 7.44-9.4 10.23-14.76l2.01 1.51c-3.02 6.71-6.85 12.53-11.49 17.45s-9.68 8.75-15.1 11.49c-5.43 2.74-10.93 4.11-16.53 4.11Zm-8.22-28.19c3.02-1.01 6.43-2.49 10.23-4.45s7.47-4.28 10.99-6.96 6.43-5.65 8.72-8.89 3.44-6.65 3.44-10.23c0-1.23-.23-2.18-.67-2.85-.45-.67-1.4-1.01-2.85-1.01-2.68 0-5.54 1.04-8.56 3.1-3.02 2.07-5.93 4.78-8.72 8.14-2.8 3.36-5.31 7.05-7.55 11.07-2.24 4.03-3.92 8.05-5.03 12.08" class="cls-2ann2"/><path d="M1315.03 1225.02c-3.8 0-6.8-1.01-8.98-3.02q-3.27-3.015-3.27-7.89c0-4.875.78-6.88 2.35-10.57s3.1-7.35 4.61-10.99c1.51-3.63 2.26-6.91 2.26-9.81 0-3.58-1.04-6.23-3.1-7.97a82 82 0 0 0-6.29-4.78c-2.57 6.6-5.26 12.86-8.05 18.79-2.8 5.93-5.09 10.4-6.88 13.42l-1.51-2.85q2.355-4.365 6.12-12.75c2.52-5.59 5-11.97 7.47-19.13-1.12-1.12-1.68-2.46-1.68-4.03q0-5.04 2.85-8.22c1.9-2.12 3.3-3.19 4.19-3.19q1.845 0 2.1 1.59c.17 1.06.25 1.87.25 2.43s-.31 1.65-.92 3.27c-.62 1.62-.92 2.6-.92 2.94 0 1.57.87 2.99 2.6 4.28s3.72 2.74 5.96 4.36 4.22 3.58 5.96 5.87c1.73 2.29 2.6 5.23 2.6 8.81q0 5.04-2.1 10.23c-1.4 3.47-2.8 6.77-4.19 9.9q-2.1 4.695-2.1 8.22c0 2.01.5 3.36 1.51 4.03s2.18 1.01 3.52 1.01q4.02 0 8.31-2.52c2.85-1.68 5.62-3.8 8.31-6.38 2.68-2.57 5.09-5.28 7.21-8.14 2.12-2.85 3.69-5.51 4.7-7.97l2.18 1.68c-2.13 4.7-5.03 9.31-8.72 13.84q-5.535 6.795-12.33 11.16c-6.795 4.365-9.2 4.36-14.01 4.36Zm-585.32 117.26c-5.15-.45-8.33-1.85-9.56-4.19-1.23-2.35-1.85-5.37-1.85-9.06q0-6.045 2.52-14.85c2.52-8.805 3.78-12.27 6.29-19.21 2.52-6.93 5.06-13.87 7.63-20.81-1.34.11-2.77.25-4.28.42s-3.38.39-5.62.67-5.15.7-8.72 1.26c.22-2.91 1.31-5.17 3.27-6.79s4.56-2.82 7.8-3.61c3.24-.78 6.88-1.23 10.91-1.34 3.13-8.61 6.35-17.03 9.65-25.25s6.57-15.74 9.82-22.57c-1.12-.11-2.21-.19-3.27-.25-1.06-.05-2.15-.08-3.27-.08-7.16 0-12.7.73-16.61 2.18-3.92 1.46-6.6 3.69-8.05 6.71-1.46 3.02-2.18 6.88-2.18 11.58 0 2.46.17 4.73.5 6.8.34 2.07.89 4.22 1.68 6.46-3.8-.67-6.6-2.15-8.39-4.45-1.79-2.29-2.68-5.17-2.68-8.64 0-5.81 2.07-10.93 6.21-15.35s9.7-7.89 16.69-10.4c6.99-2.52 14.74-3.78 23.24-3.78 5.93 0 11.66.42 17.2 1.26s10.93 1.26 16.19 1.26c2.35 0 4.5-.14 6.46-.42s3.94-.7 5.96-1.26c-4.14 4.7-7.61 7.83-10.4 9.4-2.8 1.57-5.65 2.35-8.56 2.35-2.57 0-5.9-.36-9.98-1.09s-8.7-1.31-13.84-1.76c-1.46 3.69-3.08 8.14-4.87 13.34s-3.64 10.74-5.54 16.61-3.8 11.72-5.7 17.53c5.59.34 10.88.84 15.86 1.51s9.48 1.06 13.51 1.17c-.9 1.34-1.93 2.38-3.1 3.1-1.17.73-2.83 1.26-4.95 1.59-2.13.34-5.06.59-8.81.76s-8.75.31-15.02.42c-.67 2.35-1.51 5.15-2.52 8.39-1.01 3.25-1.9 6.32-2.68 9.23s-1.4 5.03-1.85 6.38c-2.46 8.61-4.56 16.67-6.29 24.16-1.74 7.49-2.66 14.37-2.77 20.64Zm60.07-9.23q-6.375 0-9.9-4.11c-3.525-4.11-3.52-6.23-3.52-10.49 0-3.58.76-7.58 2.26-12 1.51-4.42 3.61-8.83 6.29-13.25s5.73-8.47 9.14-12.16 7.07-6.68 10.99-8.98c3.91-2.29 7.89-3.44 11.91-3.44 2.12 0 3.75.34 4.87 1.01s1.9 1.51 2.35 2.52c.22-.11.42-.17.59-.17h.59c2.12 0 3.61.84 4.45 2.52s1.26 3.02 1.26 4.03c0 1.34-.56 3.1-1.68 5.29-1.12 2.18-2.21 4.61-3.27 7.3-1.06 2.68-1.59 5.54-1.59 8.56s.78 5.45 2.35 6.96c1.56 1.51 4.08 2.26 7.55 2.26 2.24 0 4.61-1.09 7.13-3.27s5-4.98 7.47-8.39q3.69-5.115 6.63-11.16c2.94-6.045 3.44-7.89 4.45-11.58-1.12-1.12-1.68-2.46-1.68-4.03 0-2.24.45-4.22 1.34-5.96.89-1.73 1.93-3.08 3.1-4.03s2.04-1.43 2.6-1.43q1.845 0 2.1 1.59c.17 1.06.25 1.87.25 2.43s-.31 1.65-.92 3.27c-.62 1.62-.92 2.6-.92 2.94 0 1.57.86 2.99 2.6 4.28 1.73 1.29 3.72 2.74 5.96 4.36s4.22 3.58 5.96 5.87c1.73 2.29 2.6 5.23 2.6 8.81q0 5.04-2.1 10.23c-1.4 3.47-2.8 6.77-4.19 9.9q-2.1 4.695-2.1 8.22c0 2.01.5 3.36 1.51 4.03s2.18 1.01 3.52 1.01q4.02 0 8.31-2.52c2.85-1.68 5.62-3.8 8.31-6.38 2.68-2.57 5.09-5.29 7.21-8.14s3.69-5.51 4.7-7.97l2.18 1.68c-2.13 4.7-5.03 9.31-8.72 13.84s-7.8 8.25-12.33 11.16-9.2 4.36-14.01 4.36c-3.8 0-6.79-1.01-8.98-3.02q-3.27-3.015-3.27-7.89c0-4.875.78-6.88 2.35-10.57 1.56-3.69 3.1-7.35 4.61-10.99 1.51-3.63 2.27-6.91 2.27-9.82 0-3.58-1.04-6.23-3.1-7.97a82 82 0 0 0-6.29-4.78q-1.845 5.7-4.95 12c-2.07 4.19-4.39 8.11-6.96 11.74-2.57 3.64-5.34 6.57-8.3 8.81-2.97 2.24-6.07 3.36-9.31 3.36s-5.96-.64-8.47-1.93q-3.78-1.92-5.79-5.79c-3.47 8.17-7.75 14.85-12.84 20.05q-7.635 7.8-16.53 7.8Zm3.69-7.21c2.57 0 5.31-1.15 8.22-3.44s5.76-5.4 8.56-9.31c2.79-3.91 5.2-8.28 7.21-13.09-.67-2.68-1.01-5.87-1.01-9.56 0-2.57.14-4.81.42-6.71s.67-3.58 1.17-5.03 1.03-2.63 1.59-3.52c-3.8 0-7.36 1.04-10.65 3.1-3.3 2.07-6.29 4.76-8.98 8.05a58 58 0 0 0-6.88 10.65c-1.9 3.8-3.38 7.49-4.45 11.07-1.06 3.58-1.59 6.66-1.59 9.23s.56 4.64 1.68 6.21 2.68 2.35 4.7 2.35Z" class="cls-2ann2"/><path d="M922.82 1335.07c-6.82 0-11.94-1.87-15.35-5.62s-5.12-8.36-5.12-13.84c0-5.03 1.26-10.34 3.78-15.94 2.52-5.59 5.87-10.85 10.07-15.77 4.19-4.92 8.81-8.92 13.84-12s10.01-4.61 14.93-4.61c2.57 0 4.95.67 7.13 2.01q3.27 2.01 3.27 8.22c0 6.21-1.26 8.25-3.78 12s-5.82 7.08-9.9 9.98c-4.08 2.91-8.56 5.29-13.42 7.13s-9.71 2.99-14.51 3.44c-.23 1.12-.39 2.18-.5 3.19s-.17 1.96-.17 2.85c0 1.68.19 3.36.59 5.03.39 1.68 1.09 3.22 2.1 4.61q1.515 2.1 4.11 3.27c1.73.78 3.88 1.17 6.46 1.17 4.81 0 9.56-1.37 14.26-4.11s9.06-6.35 13.09-10.82 7.44-9.4 10.24-14.76l2.01 1.51c-3.02 6.71-6.85 12.53-11.49 17.45s-9.68 8.75-15.1 11.49c-5.43 2.74-10.93 4.11-16.53 4.11Zm-8.22-28.19c3.02-1.01 6.43-2.49 10.23-4.45s7.47-4.28 10.99-6.96 6.43-5.65 8.72-8.89 3.44-6.65 3.44-10.23c0-1.23-.23-2.18-.67-2.85-.45-.67-1.4-1.01-2.85-1.01-2.68 0-5.54 1.04-8.56 3.1-3.02 2.07-5.93 4.78-8.72 8.14-2.8 3.36-5.31 7.05-7.55 11.07-2.24 4.03-3.92 8.05-5.03 12.08" class="cls-2ann2"/><path d="M971.48 1334.23c-3.47 0-5.87-1.71-7.21-5.12s-2.01-7.86-2.01-13.34c0-.22.06-1.98.17-5.29.11-3.3.39-8.86.84-16.69.22-3.02.56-5.09 1.01-6.21s1.9-1.68 4.36-1.68c1.9 0 3.1.36 3.61 1.09.5.73.76 2.15.76 4.28 0 3.69-.25 8.03-.76 13-.5 4.98-.76 9.65-.76 14.01 0 3.25.28 5.62.84 7.13s1.57 2.26 3.02 2.26c2.01 0 4.25-1.15 6.71-3.44s4.98-5.31 7.55-9.06 5-7.74 7.3-12c2.29-4.25 4.33-8.33 6.12-12.25q.33-11.415 2.43-15.18 2.1-3.78 5.28-3.78c3.18 0 3.66.76 4.61 2.27s1.43 2.88 1.43 4.11c0 1.46-.48 2.96-1.43 4.53s-1.93 3.69-2.94 6.38c-1.01 2.68-1.51 6.54-1.51 11.58 0 1.79.17 3.69.5 5.7.34 2.01 1.06 3.69 2.18 5.03s2.85 2.01 5.2 2.01 4.61-.92 6.8-2.77c2.18-1.85 4.33-5.06 6.46-9.65l2.18 1.68c-2.46 5.59-5.17 9.34-8.14 11.24-2.96 1.9-5.79 2.85-8.47 2.85-3.69 0-6.77-1.34-9.23-4.03-2.46-2.68-4.08-6.77-4.87-12.25-2.68 5.48-5.85 10.77-9.48 15.86-3.64 5.09-7.41 9.31-11.33 12.67s-7.66 5.03-11.24 5.03Z" class="cls-2ann2"/><path d="M1046.98 1335.07c-6.82 0-11.94-1.87-15.35-5.62s-5.12-8.36-5.12-13.84c0-5.03 1.26-10.34 3.78-15.94 2.52-5.59 5.87-10.85 10.07-15.77 4.19-4.92 8.81-8.92 13.84-12s10.01-4.61 14.93-4.61c2.57 0 4.95.67 7.13 2.01q3.27 2.01 3.27 8.22c0 6.21-1.26 8.25-3.78 12s-5.82 7.08-9.9 9.98c-4.08 2.91-8.56 5.29-13.42 7.13s-9.71 2.99-14.51 3.44c-.23 1.12-.39 2.18-.5 3.19s-.17 1.96-.17 2.85c0 1.68.19 3.36.59 5.03.39 1.68 1.09 3.22 2.1 4.61q1.515 2.1 4.11 3.27c1.73.78 3.88 1.17 6.46 1.17 4.81 0 9.56-1.37 14.26-4.11s9.06-6.35 13.09-10.82 7.44-9.4 10.24-14.76l2.01 1.51c-3.02 6.71-6.85 12.53-11.49 17.45s-9.68 8.75-15.1 11.49c-5.43 2.74-10.93 4.11-16.53 4.11Zm-8.22-28.19c3.02-1.01 6.43-2.49 10.23-4.45s7.47-4.28 10.99-6.96 6.43-5.65 8.72-8.89 3.44-6.65 3.44-10.23c0-1.23-.23-2.18-.67-2.85-.45-.67-1.4-1.01-2.85-1.01-2.68 0-5.54 1.04-8.56 3.1-3.02 2.07-5.93 4.78-8.72 8.14-2.8 3.36-5.31 7.05-7.55 11.07-2.24 4.03-3.92 8.05-5.03 12.08" class="cls-2ann2"/><path d="M1113.75 1332.05c-3.8 0-6.8-1.01-8.98-3.02q-3.27-3.015-3.27-7.89c0-4.875.78-6.88 2.35-10.57 1.56-3.69 3.1-7.35 4.61-10.99 1.51-3.63 2.26-6.91 2.26-9.82 0-3.58-1.04-6.23-3.1-7.97a82 82 0 0 0-6.29-4.78c-2.57 6.6-5.26 12.86-8.05 18.79-2.8 5.93-5.09 10.4-6.88 13.42l-1.51-2.85q2.355-4.365 6.12-12.75c2.52-5.59 5-11.97 7.47-19.13-1.12-1.12-1.68-2.46-1.68-4.03q0-5.04 2.85-8.22c1.9-2.12 3.3-3.19 4.19-3.19q1.845 0 2.1 1.59c.17 1.06.25 1.87.25 2.43s-.31 1.65-.92 3.27c-.62 1.62-.92 2.6-.92 2.94 0 1.57.86 2.99 2.6 4.28 1.73 1.29 3.72 2.74 5.96 4.36s4.22 3.58 5.96 5.87c1.73 2.29 2.6 5.23 2.6 8.81q0 5.04-2.1 10.23c-1.4 3.47-2.8 6.77-4.19 9.9q-2.1 4.695-2.1 8.22c0 2.01.5 3.36 1.51 4.03s2.18 1.01 3.52 1.01q4.02 0 8.31-2.52c2.85-1.68 5.62-3.8 8.31-6.38 2.68-2.57 5.09-5.29 7.21-8.14s3.69-5.51 4.7-7.97l2.18 1.68c-2.13 4.7-5.03 9.31-8.72 13.84q-5.535 6.795-12.33 11.16c-6.795 4.365-9.2 4.36-14.01 4.36ZM389.38 252.07c8.46 4.9 16.62 8.42 24.49 10.56s15.44 3.07 22.72 2.8c7.27-.26 14.22-1.6 20.82-4.01q9.915-3.6 18.81-9.87c5.66-3.98 10.04-8.39 13.15-13.24s5.01-9.94 5.69-15.28c.68-5.33.21-10.79-1.42-16.38-1.63-5.58-4.36-11.1-8.2-16.54-7.22-10.26-15.72-17.41-25.5-21.44s-20.49-5.39-32.15-4.08-24.08 5.09-37.27 11.35c-13.19 6.25-26.81 14.53-40.85 24.83 9.31 5.66 18.46 10.96 27.47 15.9s17.92 8.97 26.75 12.1q13.245 4.695 26.31 5.91c8.71.81 17.43-.08 26.15-2.66l2.13 5.7c-10.55 3.56-20.9 5.2-31.05 4.94q-15.24-.405-30.24-4.71c-10.01-2.88-20.05-6.8-30.12-11.77s-20.36-10.39-30.85-16.26c-14.41 9.2-28.47 16.32-42.18 21.38-13.72 5.06-26.44 8.04-38.18 8.94s-22.17-.29-31.32-3.56c-9.14-3.28-16.32-8.61-21.52-16.01-3-4.26-4.99-8.62-6-13.08-1-4.46-1.07-8.8-.22-13s2.58-8.21 5.17-12.01c2.59-3.81 6.02-7.21 10.28-10.21 9.01-6.34 18.61-10.04 28.82-11.12s20.87-.23 32 2.53q16.695 4.14 34.32 12.96c11.75 5.87 23.72 12.57 35.89 20.08 17.17-12.39 33.19-21.81 48.07-28.26q22.32-9.675 40.92-10.71c12.4-.69 23.54 1.39 33.43 6.23 9.88 4.84 18.38 12.33 25.5 22.45 4.52 6.42 7.78 13.21 9.78 20.36s2.7 14.15 2.09 21-2.59 13.3-5.94 19.37c-3.35 6.06-8.07 11.23-14.14 15.51-7.26 5.11-15.06 8.56-23.4 10.36s-16.78 2.26-25.33 1.38c-8.55-.87-16.96-2.89-25.23-6.04-8.28-3.16-15.91-7.18-22.9-12.07l3.23-4.31Zm-180.72-35.21c4.76 6.77 11.34 11.52 19.72 14.23s17.92 3.54 28.61 2.5c10.69-1.05 22.22-3.92 34.58-8.6s24.96-10.96 37.79-18.84c-12.49-7.08-23.71-12.67-33.66-16.79s-18.84-7.15-26.68-9.1q-11.76-2.925-20.58-3.21c-5.88-.2-11 .17-15.36 1.1s-8.03 2.16-11.03 3.69c-2.99 1.53-5.5 3.01-7.53 4.43-1.95 1.37-3.79 3.11-5.5 5.2s-3 4.46-3.85 7.1c-.86 2.64-1.08 5.51-.67 8.61s1.79 6.33 4.15 9.68Z" class="cls-2ann2"/></svg>