<svg xmlns="http://www.w3.org/2000/svg" viewBox="0 0 1500 1500" width="300" height="300" fill="none"><defs><style>.cls-1ann1{fill:#d4abff}.cls-1ann2{fill:#c184f7}.cls-1ann3{fill:#f48484}.cls-1ann4{fill:#ffaeae}</style></defs><path d="M627.3 1112.35c-2.41-2.45-3.61-5.77-3.61-9.96s2.12-16.05 6.35-35.58c-2.5-.58-6.55-.87-12.13-.87s-10.92.48-16.02 1.44q-7.365 33.21-7.8 44.46c-3.46 1.93-10.78 2.89-21.94 2.89h-1.44c.29-4.23 2.86-16.89 7.72-37.97s7.87-36.91 9.02-47.49c0-1.54-.48-3.39-1.44-5.56-.96-2.16-1.93-3.92-2.89-5.27l-1.59-2.02.43-2.17c5.68-1.64 14.67-2.45 26.99-2.45 1.15 1.93 1.73 5.05 1.73 9.38s-2.17 16.27-6.5 35.8h27.86c3.37-17.13 5.1-29.35 5.2-36.67 0-1.64-.1-2.98-.29-4.04 7.7-2.98 15.45-4.48 23.24-4.48.29.58.43 2.02.43 4.33 0 5.29-2.33 18.91-7 40.85s-7 35.9-7 41.86c0 2.6.43 3.9 1.3 3.9s3.8-1.25 8.81-3.75l2.6 5.34c-8.57 7.8-16.17 11.69-22.81 11.69-3.75 0-6.83-1.23-9.24-3.68Zm82.72-57.82q.285-.285 1.59-3.75c4.52 0 10.59 1.35 18.19 4.04-2.41 7.99-4.33 16.34-5.77 25.05s-2.17 14.92-2.17 18.62.38 5.56 1.15 5.56c.58 0 2.69-.91 6.35-2.74l1.73-.87 2.6 5.05c-.87.77-2 1.73-3.39 2.89-1.4 1.15-4.02 2.72-7.87 4.69s-7.31 2.96-10.39 2.96c-5.97 0-9.43-2.69-10.39-8.08-6.16 5.39-11.72 8.08-16.67 8.08s-9.14-1.92-12.56-5.77-5.12-9.91-5.12-18.19c0-12.89 2.65-23.07 7.94-30.53q7.935-11.19 19.2-11.19c5.39 0 10.59 1.4 15.59 4.19Zm-16.46 49.23c2.31 0 4.91-.91 7.8-2.74.67-13.57 2.93-26.99 6.78-40.28-2.89-1.25-5.34-1.88-7.36-1.88-3.46 0-6.42 3.39-8.88 10.18-2.45 6.78-3.68 14.27-3.68 22.45s1.78 12.27 5.34 12.27" class="cls-1ann2"/><path d="M732.1 1146.63c-.48-1.15-.72-3.71-.72-7.65s1.88-14.56 5.63-31.83 5.63-30.58 5.63-39.91c0-1.83-.43-3.78-1.3-5.85s-1.78-3.68-2.74-4.84l-1.3-1.59.14-1.88c4.52-1.44 12.51-2.17 23.96-2.17 1.06 2.02 1.73 4.86 2.02 8.52 7.41-6.06 13.59-9.09 18.55-9.09s8.95 2.07 11.98 6.21 4.55 10.2 4.55 18.19c0 13.96-2.55 24.32-7.65 31.11s-11.55 10.18-19.34 10.18c-4.04 0-7.41-.58-10.1-1.73l-1.44-.58 1.01-5.63c.87.19 1.88.29 3.03.29 2.5 0 4.69-1.15 6.57-3.46s3.3-5.24 4.26-8.81c1.92-7.12 2.89-13.71 2.89-19.78q0-12.99-5.34-12.99c-2.79 0-5.77 1.11-8.95 3.32-.39 6.74-2.36 18.53-5.92 35.37q-5.34 25.26-5.34 40.71c-5.2 2.12-11.89 3.41-20.07 3.9Zm68.86 0c-.48-1.15-.72-3.71-.72-7.65s1.88-14.56 5.63-31.83 5.63-30.58 5.63-39.91c0-1.83-.43-3.78-1.3-5.85s-1.78-3.68-2.74-4.84l-1.3-1.59.14-1.88c4.52-1.44 12.51-2.17 23.96-2.17 1.06 2.02 1.73 4.86 2.02 8.52 7.41-6.06 13.59-9.09 18.55-9.09s8.95 2.07 11.98 6.21 4.55 10.2 4.55 18.19c0 13.96-2.55 24.32-7.65 31.11s-11.55 10.18-19.34 10.18c-4.04 0-7.41-.58-10.1-1.73l-1.44-.58 1.01-5.63c.87.19 1.88.29 3.03.29 2.5 0 4.69-1.15 6.57-3.46s3.3-5.24 4.26-8.81c1.92-7.12 2.89-13.71 2.89-19.78q0-12.99-5.34-12.99c-2.79 0-5.77 1.11-8.95 3.32-.39 6.74-2.36 18.53-5.92 35.37q-5.34 25.26-5.34 40.71c-5.2 2.12-11.89 3.41-20.07 3.9Zm85.74-31.76c-8.08 0-12.13-4.43-12.13-13.28 0-2.12.96-8.23 2.89-18.33 1.92-10.1 2.89-18.53 2.89-25.26 0-1.44-.19-2.79-.58-4.04q7.8-3.03 21.36-3.03.72 2.025.72 6.93c0 4.905-1.06 10.06-3.18 20.35q-3.18 15.45-3.18 19.92c0 4.47 1.25 4.48 3.75 4.48 2.98 0 6.59-1.49 10.83-4.48.48-5.68 2.4-20.64 5.77-44.89 3.37-1.35 9.43-2.02 18.19-2.02h2.74c-1.83 7.22-3.61 17.61-5.34 31.18s-3.13 23-4.19 28.29c-2.02 10.59-5.75 19.22-11.19 25.91s-12.54 10.03-21.29 10.03c-3.46 0-6.62-.92-9.46-2.74-2.84-1.83-4.26-4.19-4.26-7.07 0-3.85 2.36-7.36 7.07-10.54s11.07-5.63 19.06-7.36c.87-4.24 1.54-8.32 2.02-12.27-7.8 5.49-15.3 8.23-22.52 8.23Zm7 15.01c-3.23 1.92-4.84 3.8-4.84 5.63s1.03 2.74 3.1 2.74 4.4-.99 7-2.96 4.76-5.17 6.5-9.6c-4.62.87-8.54 2.26-11.77 4.19Zm-472.61 132.81c-.67 2.12-2.19 3.18-4.55 3.18s-5.03-1.3-8.01-3.9c2.89-8.47 9-22.11 18.33-40.93 9.33-18.81 15.4-32.89 18.19-42.22.38-1.54.58-2.6.58-3.18 0-1.44-1.06-3.66-3.18-6.64l-1.15-1.59.29-1.88c8.18-2.31 17.23-3.46 27.14-3.46l8.81.58c1.06 1.44 1.88 3.66 2.45 6.64 1.54 7.31 2.31 26.13 2.31 56.44 0 11.74 1.01 20.02 3.03 24.83.77 1.83 1.54 2.74 2.31 2.74s3.13-.96 7.07-2.89l1.88-.87 2.89 5.2c-3.66 3.56-7.72 6.38-12.2 8.44-4.48 2.07-8.59 3.1-12.34 3.1-9.72 0-14.58-7.55-14.58-22.66v-11.4q-3.75-.87-11.4-.87c-7.65 0-10.68.48-16.75 1.44-4.81 11.16-8.52 21.13-11.12 29.88Zm39.55-40.28.14-16.75c0-14.63-.63-24.54-1.88-29.74-.77 0-1.35.1-1.73.29-2.7 7.41-5.22 13.69-7.58 18.84s-4.91 10.64-7.65 16.46-4.45 9.46-5.12 10.9zM503.8 1265h-2.74q0-6.78 4.11-25.98c4.11-19.2 4.11-20.06 4.11-21.8 0-3.18-1.35-6.54-4.04-10.1l-1.3-1.73.14-1.88c5.2-1.44 13.52-2.17 24.97-2.17 1.25 1.64 1.92 4.62 2.02 8.95 8.37-6.45 15.45-9.67 21.22-9.67 3.46 0 6.23 1.2 8.3 3.61s3.1 5.41 3.1 9.02-1.11 9.84-3.32 18.69c-2.21 8.86-3.32 14.8-3.32 17.83s.38 4.55 1.15 4.55c.58 0 2.6-.91 6.06-2.74l1.73-.87 2.6 5.05c-.87.77-2.02 1.73-3.46 2.89-1.44 1.15-4.11 2.72-8.01 4.69s-7.39 2.96-10.47 2.96c-7.03 0-10.54-3.99-10.54-11.98 0-3.37 1.08-9.57 3.25-18.62 2.17-9.04 3.25-14.87 3.25-17.47s-.82-3.9-2.45-3.9c-2.79 0-6.21 1.2-10.25 3.61-.29 1.64-1.25 5.97-2.89 12.99-3.37 15.11-5.05 25.79-5.05 32.05-3.37 1.35-9.43 2.02-18.19 2.02Zm73.34 0h-2.74q0-6.78 4.11-25.98c4.11-19.2 4.11-20.06 4.11-21.8 0-3.18-1.35-6.54-4.04-10.1l-1.3-1.73.14-1.88c5.2-1.44 13.52-2.17 24.97-2.17 1.25 1.64 1.92 4.62 2.02 8.95 8.37-6.45 15.45-9.67 21.22-9.67 3.46 0 6.23 1.2 8.3 3.61s3.1 5.41 3.1 9.02-1.11 9.84-3.32 18.69c-2.21 8.86-3.32 14.8-3.32 17.83s.38 4.55 1.15 4.55c.58 0 2.6-.91 6.06-2.74l1.73-.87 2.6 5.05c-.87.77-2.02 1.73-3.46 2.89-1.44 1.15-4.11 2.72-8.01 4.69s-7.39 2.96-10.47 2.96c-7.03 0-10.54-3.99-10.54-11.98 0-3.37 1.08-9.57 3.25-18.62 2.17-9.04 3.25-14.87 3.25-17.47s-.82-3.9-2.45-3.9c-2.79 0-6.21 1.2-10.25 3.61-.29 1.64-1.25 5.97-2.89 12.99-3.37 15.11-5.05 25.79-5.05 32.05-3.37 1.35-9.43 2.02-18.19 2.02Zm99.31-55.43c0 4.04-1.3 11-3.9 20.86-2.6 9.87-3.9 16.31-3.9 19.34s.43 4.55 1.3 4.55c.58 0 2.79-.91 6.64-2.74l1.73-.87 2.45 5.05c-.87.77-2.02 1.73-3.46 2.89-1.44 1.15-4.14 2.72-8.08 4.69-3.95 1.97-7.6 2.96-10.97 2.96s-6.02-1.04-7.94-3.1c-1.93-2.07-2.89-4.86-2.89-8.37s1.2-9.77 3.61-18.77c2.4-9 3.61-14.84 3.61-17.54q0-6.06-3.75-11.4l-1.3-1.73.14-1.88c5.1-1.44 13.38-2.17 24.83-2.17 1.25 1.44 1.88 4.19 1.88 8.23m23.46-8.95c4.19 0 7.31.87 9.38 2.6s3.1 5.29 3.1 10.68c0 2.89-.87 8.78-2.6 17.68s-2.6 14.32-2.6 16.24c0 3.85.77 5.77 2.31 5.77 3.66 0 7.67-2.72 12.05-8.16s6.66-9.98 6.86-13.64l-9.82-10.97c.38-4.14 1.39-7.89 3.03-11.26s3.18-5.72 4.62-7.07l2.02-1.88c4.14 0 7.27 1.11 9.38 3.32 2.12 2.22 3.18 4.81 3.18 7.8 0 7.6-1.88 15.64-5.63 24.11s-8.76 15.66-15.01 21.58c-6.26 5.92-12.61 8.88-19.06 8.88-4.04 0-7.15-1.25-9.31-3.75-2.17-2.5-3.25-5.8-3.25-9.89s.31-9.6.94-16.53c.62-6.93.94-13.81.94-20.64 0-1.54-.55-3.37-1.66-5.49s-2.24-3.8-3.39-5.05l.43-1.73c5.2-1.73 9.89-2.6 14.07-2.6Zm42.22 38.98c0-12.03 3.63-21.53 10.9-28.51s15.52-10.47 24.76-10.47c5.68 0 10.34 1.4 14 4.19q5.49 4.185 5.49 11.19c0 7.005-1.18 8.59-3.54 11.77s-5.22 5.63-8.59 7.36c-6.83 3.37-13.09 5.49-18.77 6.35l-3.46.43c.67 9.05 4.38 13.57 11.12 13.57 2.31 0 4.76-.58 7.36-1.73s4.62-2.31 6.06-3.46l2.17-1.73 3.46 4.62c-.77 1.06-2.31 2.45-4.62 4.19-2.31 1.73-4.48 3.18-6.5 4.33q-8.37 4.62-18.33 4.62c-9.96 0-11.89-2.36-15.73-7.07-3.85-4.71-5.77-11.26-5.77-19.63Zm32.34-10.97c2.89-3.27 4.33-7.51 4.33-12.7s-1.54-7.8-4.62-7.8c-3.66 0-6.47 3.1-8.44 9.31s-2.96 12.01-2.96 17.4c4.91-.87 8.81-2.93 11.69-6.21m28.72 36.37h-1.01c-.19-.77-.29-2.53-.29-5.27s1.3-10.13 3.9-22.16q3.9-18.045 3.9-20.64c0-2.98-1.35-6.25-4.04-9.82l-1.3-1.73.14-1.88c5.2-1.44 13.52-2.17 24.97-2.17 1.15 2.5 1.73 6.02 1.73 10.54 1.06-1.73 3.27-4.04 6.64-6.93s6.83-4.33 10.39-4.33c5.2 0 7.8 4.52 7.8 13.57-.48.58-1.13 1.32-1.95 2.24s-2.45 2.19-4.91 3.83c-2.45 1.64-4.84 2.65-7.15 3.03-.1 0-.92-1.3-2.45-3.9-1.54-2.6-2.7-3.9-3.46-3.9-2.41.87-4.52 2.31-6.35 4.33-4.43 19.92-6.64 32.82-6.64 38.69 0 2.12.05 3.61.14 4.48-3.37 1.35-10.06 2.02-20.07 2.02Zm94.27-19.34c0 6.06-2.67 11.02-8.01 14.87s-11.43 5.77-18.26 5.77-12.25-1.44-16.24-4.33-5.99-5.44-5.99-7.65c0-1.35 1.68-3.54 5.05-6.57s6.21-4.88 8.52-5.56c4.81 3.56 8.76 9.19 11.84 16.89 3.56-.29 5.34-1.97 5.34-5.05 0-4.43-3.9-10.71-11.69-18.84-7.8-8.13-11.69-14.6-11.69-19.42s2.17-8.54 6.5-11.19 9.55-3.97 15.66-3.97 10.7 1.08 13.79 3.25c3.08 2.16 4.62 5.1 4.62 8.81s-2.94 8.83-8.81 15.37c.67.67 1.54 1.57 2.6 2.67 1.06 1.11 2.45 3.2 4.19 6.28 1.73 3.08 2.6 5.97 2.6 8.66Zm-7.8-32.91c0-3.37-2.31-5.05-6.93-5.05-2.21 0-4.04.46-5.49 1.37-1.44.92-2.17 1.95-2.17 3.1 0 2.12 2.12 5.1 6.35 8.95l2.17 1.88c4.04-3.46 6.06-6.88 6.06-10.25Zm57.46-7.94q.285-.285 1.59-3.75c4.52 0 10.59 1.35 18.19 4.04-2.41 7.99-4.33 16.34-5.77 25.05s-2.17 14.92-2.17 18.62.38 5.56 1.15 5.56c.58 0 2.69-.91 6.35-2.74l1.73-.87 2.6 5.05c-.87.77-2 1.73-3.39 2.89-1.4 1.15-4.02 2.72-7.87 4.69s-7.31 2.96-10.39 2.96c-5.97 0-9.43-2.69-10.39-8.08-6.16 5.39-11.72 8.08-16.67 8.08s-9.14-1.92-12.56-5.77-5.12-9.91-5.12-18.19c0-12.89 2.65-23.07 7.94-30.53q7.935-11.19 19.2-11.19c5.39 0 10.59 1.4 15.59 4.19Zm-16.46 49.23c2.31 0 4.91-.91 7.8-2.74.67-13.57 2.93-26.99 6.78-40.28-2.89-1.25-5.34-1.88-7.36-1.88-3.46 0-6.42 3.39-8.88 10.18-2.45 6.78-3.68 14.27-3.68 22.45s1.78 12.27 5.34 12.27m45.62 10.96h-1.01c-.19-.77-.29-2.53-.29-5.27s1.3-10.13 3.9-22.16q3.9-18.045 3.9-20.64c0-2.98-1.35-6.25-4.04-9.82l-1.3-1.73.14-1.88c5.2-1.44 13.52-2.17 24.97-2.17 1.15 2.5 1.73 6.02 1.73 10.54 1.06-1.73 3.27-4.04 6.64-6.93s6.83-4.33 10.39-4.33c5.2 0 7.8 4.52 7.8 13.57-.48.58-1.13 1.32-1.95 2.24s-2.45 2.19-4.91 3.83c-2.45 1.64-4.84 2.65-7.15 3.03-.1 0-.92-1.3-2.45-3.9-1.54-2.6-2.7-3.9-3.46-3.9-2.41.87-4.52 2.31-6.35 4.33-4.43 19.92-6.64 32.82-6.64 38.69 0 2.12.05 3.61.14 4.48-3.37 1.35-10.06 2.02-20.07 2.02Zm62.36.15c-8.08 0-12.13-4.43-12.13-13.28 0-2.12.96-8.23 2.89-18.33 1.92-10.1 2.89-18.53 2.89-25.26 0-1.44-.19-2.79-.58-4.04q7.8-3.03 21.36-3.03.72 2.025.72 6.93c0 4.905-1.06 10.06-3.18 20.35q-3.18 15.45-3.18 19.92c0 4.47 1.25 4.48 3.75 4.48 2.98 0 6.59-1.49 10.83-4.48.48-5.68 2.4-20.64 5.77-44.89 3.37-1.35 9.43-2.02 18.19-2.02h2.74c-1.83 7.22-3.61 17.61-5.34 31.18s-3.13 23-4.19 28.29c-2.02 10.59-5.75 19.22-11.19 25.91s-12.54 10.03-21.29 10.03c-3.46 0-6.62-.92-9.46-2.74-2.84-1.83-4.26-4.19-4.26-7.07 0-3.85 2.36-7.36 7.07-10.54s11.07-5.63 19.06-7.36c.87-4.24 1.54-8.32 2.02-12.27-7.8 5.49-15.3 8.23-22.52 8.23Zm7 15.01c-3.23 1.92-4.84 3.8-4.84 5.63s1.03 2.74 3.1 2.74 4.4-.99 7-2.96 4.76-5.17 6.5-9.6c-4.62.87-8.54 2.26-11.77 4.19Z" class="cls-1ann2"/><path d="M1275.65 974.31c-7.52-12.73-28.37-22.17-44.38-12.89-10.12 5.86-15.93 17.8-15.41 30.54-6.96-10.86-19.13-16.8-30.77-14.96-16.45 2.6-25.43 19.72-25.36 32.56 0 1.25.11 4.95 1.73 9.49 4.99 13.99 18.97 20.71 28.37 25.4 13.42 6.68 30.67 15.78 53.51 28.93a494 494 0 0 0 15.1-31.11c6.61-14.95 4.33-11.85 9.94-24.33 7.71-17.14 12.31-23.66 10.68-33.91-.85-5.32-2.95-8.97-3.39-9.72Z" class="cls-1ann4"/><path d="M1286.24 876.93c.5-8.16-6.12-18.94-16.33-19.66-6.45-.45-12.81 3.22-16.52 9.21.18-7.13-3.55-13.62-9.45-16.38-8.34-3.91-17.76 1.15-21.71 7.05-.38.58-1.48 2.3-2.15 4.88-2.05 7.95 2.27 15.36 5.12 20.42 4.07 7.22 9.15 16.73 15.53 29.83 6.25-3.33 11.78-6.57 16.55-9.57 7.66-4.8 5.66-4.09 12.09-8.06 8.84-5.46 12.97-7.02 15.4-12.22 1.26-2.7 1.43-5.02 1.46-5.5Z" class="cls-1ann3"/><path d="M1263.7 735.06c-6.52-9.94-23.63-16.73-36.14-8.67-7.91 5.09-12.12 14.91-11.22 25.12-6.01-8.46-16.01-12.77-25.28-10.85-13.12 2.71-19.68 16.81-19.14 27.12.05 1.01.28 3.98 1.75 7.55 4.54 11.05 16.03 15.92 23.76 19.33 11.03 4.86 25.24 11.51 44.08 21.21a397 397 0 0 0 10.95-25.56c4.74-12.26 3.03-9.69 7.06-19.92 5.54-14.06 8.99-19.48 7.29-27.65-.88-4.24-2.71-7.09-3.09-7.68Z" class="cls-1ann2"/><path d="M1239.68 640.78c-4.95-7.54-17.93-12.7-27.43-6.58-6 3.86-9.2 11.31-8.52 19.07-4.56-6.42-12.15-9.69-19.19-8.23-9.95 2.06-14.94 12.76-14.53 20.58.04.76.21 3.02 1.33 5.73 3.45 8.39 12.17 12.08 18.03 14.67 8.37 3.69 19.16 8.74 33.46 16.1 3.33-7.08 6.06-13.6 8.31-19.4 3.6-9.3 2.3-7.35 5.36-15.12 4.21-10.67 6.82-14.78 5.53-20.98-.67-3.22-2.06-5.38-2.35-5.83Z" class="cls-1ann4"/><path d="M1242.62 346.65c.99-8.97-5.73-21.21-16.95-22.56-7.09-.85-14.3 2.86-18.72 9.26.58-7.85-3.19-15.21-9.54-18.58-8.98-4.76-19.64.31-24.31 6.6-.46.61-1.76 2.46-2.63 5.26-2.69 8.66 1.67 17.06 4.55 22.79 4.1 8.18 9.19 18.94 15.52 33.73 7.07-3.33 13.34-6.61 18.77-9.66 8.7-4.88 6.46-4.2 13.77-8.24 10.04-5.54 14.68-7.04 17.64-12.64 1.53-2.91 1.85-5.46 1.9-5.99Z" class="cls-1ann3"/><path d="M1302.81 365.52c-3.31-5.24-12.16-8.93-18.75-4.84-4.17 2.58-6.45 7.66-6.07 12.99-3.05-4.46-8.22-6.8-13.08-5.88-6.86 1.29-10.41 8.58-10.22 13.96.02.52.11 2.07.84 3.95 2.27 5.8 8.21 8.44 12.2 10.28 5.7 2.63 13.05 6.23 22.78 11.45 2.37-4.82 4.32-9.26 5.93-13.22 2.58-6.34 1.66-5.02 3.86-10.32 3.01-7.27 4.86-10.07 4.05-14.34-.42-2.22-1.35-3.72-1.54-4.03" class="cls-1ann4"/><path d="M1201.58 904.92c-3.31-5.24-12.16-8.93-18.75-4.84-4.17 2.58-6.45 7.66-6.07 12.99-3.05-4.46-8.22-6.8-13.08-5.88-6.86 1.29-10.41 8.58-10.22 13.96.02.52.11 2.07.84 3.95 2.27 5.8 8.21 8.44 12.2 10.28 5.7 2.63 13.05 6.23 22.78 11.45 2.37-4.82 4.32-9.26 5.93-13.22 2.58-6.34 1.66-5.02 3.86-10.32 3.01-7.27 4.86-10.07 4.05-14.34-.42-2.22-1.35-3.72-1.54-4.03" class="cls-1ann1"/><path d="M1308.79 278.82c.76-8.85-6.14-20.74-17.21-21.8-6.99-.67-14 3.15-18.2 9.56.38-7.74-3.5-14.89-9.83-18.05-8.95-4.47-19.32.77-23.77 7.08-.43.61-1.67 2.46-2.47 5.24-2.44 8.59 2.05 16.75 5.02 22.32 4.23 7.95 9.5 18.42 16.08 32.83 6.88-3.45 12.97-6.83 18.24-9.95 8.45-5.01 6.25-4.29 13.35-8.43 9.75-5.69 14.28-7.28 17.06-12.86 1.44-2.9 1.69-5.41 1.73-5.94" class="cls-1ann2"/><path d="M1212.14 213.13c-4.5-7.66-17.01-13.36-26.65-7.81-6.09 3.5-9.6 10.67-9.31 18.33-4.17-6.54-11.47-10.12-18.47-9.03-9.89 1.54-15.31 11.81-15.29 19.53 0 .75.06 2.98 1.02 5.7 2.98 8.42 11.37 12.47 17.01 15.3 8.05 4.04 18.41 9.53 32.11 17.47 3.62-6.8 6.63-13.07 9.12-18.67 3.99-8.97 2.62-7.12 6.01-14.61 4.66-10.28 7.43-14.2 6.47-20.36-.5-3.2-1.76-5.39-2.02-5.85" class="cls-1ann1"/><path d="M1284.85 574c.93-7.44-4.51-17.68-13.81-18.92-5.87-.79-11.9 2.21-15.65 7.48.57-6.51-2.47-12.67-7.71-15.53-7.4-4.05-16.31.03-20.26 5.2-.39.5-1.49 2.02-2.25 4.34-2.33 7.16 1.19 14.19 3.51 18.98 3.31 6.84 7.42 15.83 12.5 28.19 5.91-2.69 11.15-5.34 15.69-7.8 7.28-3.95 5.41-3.41 11.53-6.68 8.4-4.49 12.27-5.68 14.79-10.29 1.31-2.4 1.6-4.51 1.65-4.95Z" class="cls-1ann3"/><path d="M1187.63 558.23c-3.26-3.98-10.94-6.11-15.95-2.07-3.17 2.55-4.53 6.97-3.67 11.32-2.97-3.36-7.47-4.76-11.38-3.5-5.52 1.77-7.69 8.14-6.99 12.55.07.43.3 1.7 1.1 3.17 2.46 4.55 7.63 6.11 11.11 7.22 4.97 1.58 11.39 3.79 19.94 7.1 1.46-4.21 2.61-8.07 3.53-11.5 1.48-5.49.86-4.31 2.12-8.9 1.74-6.3 2.97-8.79 1.86-12.23-.57-1.78-1.49-2.93-1.68-3.16Zm112.14 136c1.52-4.91-.93-12.49-7.06-14.45-3.88-1.24-8.31.06-11.47 3.17 1.17-4.33-.15-8.86-3.35-11.42-4.52-3.63-11.03-1.94-14.32 1.08-.32.29-1.25 1.19-2.04 2.66-2.44 4.56-.9 9.73.1 13.25 1.42 5.02 3.11 11.59 5.06 20.55 4.32-1.11 8.18-2.27 11.55-3.39 5.4-1.79 4.07-1.66 8.59-3.13 6.22-2.02 8.98-2.37 11.23-5.18 1.17-1.46 1.62-2.86 1.71-3.15Zm-43.29-263.64c-7.65-13.36-29.22-23.49-46.03-14.06-10.62 5.95-16.84 18.31-16.49 31.58-7.1-11.41-19.68-17.76-31.82-16.02-17.17 2.47-26.76 20.17-26.88 33.54-.01 1.3.05 5.16 1.66 9.9 4.99 14.64 19.46 21.84 29.18 26.85 13.88 7.15 31.71 16.87 55.3 30.9 6.4-11.71 11.74-22.52 16.17-32.18 7.09-15.47 4.68-12.28 10.7-25.19 8.27-17.73 13.16-24.46 11.61-35.16-.81-5.55-2.94-9.38-3.39-10.17Z" class="cls-1ann1"/><path d="M224.35 974.31c7.52-12.73 28.37-22.17 44.38-12.89 10.12 5.86 15.93 17.8 15.41 30.54 6.96-10.86 19.13-16.8 30.77-14.96 16.45 2.6 25.43 19.72 25.36 32.56 0 1.25-.11 4.95-1.73 9.49-4.99 13.99-18.97 20.71-28.37 25.4-13.42 6.68-30.67 15.78-53.51 28.93a494 494 0 0 1-15.1-31.11c-6.61-14.95-4.33-11.85-9.94-24.33-7.71-17.14-12.31-23.66-10.68-33.91.85-5.32 2.95-8.97 3.39-9.72Z" class="cls-1ann4"/><path d="M213.76 876.93c-.5-8.16 6.12-18.94 16.33-19.66 6.45-.45 12.81 3.22 16.52 9.21-.18-7.13 3.55-13.62 9.45-16.38 8.34-3.91 17.76 1.15 21.71 7.05.38.58 1.48 2.3 2.15 4.88 2.05 7.95-2.27 15.36-5.12 20.42-4.07 7.22-9.15 16.73-15.53 29.83-6.25-3.33-11.78-6.57-16.55-9.57-7.66-4.8-5.66-4.09-12.09-8.06-8.84-5.46-12.97-7.02-15.4-12.22-1.26-2.7-1.43-5.02-1.46-5.5Zm103.39 334.85c-.5-8.16 6.12-18.94 16.33-19.66 6.45-.45 12.81 3.22 16.52 9.21-.18-7.13 3.55-13.62 9.45-16.38 8.34-3.91 17.76 1.15 21.71 7.05.38.58 1.48 2.3 2.15 4.88 2.05 7.95-2.27 15.36-5.12 20.42-4.07 7.22-9.15 16.73-15.53 29.83-6.25-3.33-11.78-6.57-16.55-9.57-7.66-4.8-5.66-4.09-12.09-8.06-8.84-5.46-12.97-7.02-15.4-12.22-1.26-2.7-1.43-5.02-1.46-5.5Z" class="cls-1ann3"/><path d="M236.3 735.06c6.52-9.94 23.63-16.73 36.14-8.67 7.91 5.09 12.12 14.91 11.22 25.12 6.01-8.46 16.01-12.77 25.28-10.85 13.12 2.71 19.68 16.81 19.14 27.12-.05 1.01-.28 3.98-1.75 7.55-4.54 11.05-16.03 15.92-23.76 19.33-11.03 4.86-25.24 11.51-44.08 21.21a397 397 0 0 1-10.95-25.56c-4.74-12.26-3.03-9.69-7.06-19.92-5.54-14.06-8.99-19.48-7.29-27.65.88-4.24 2.71-7.09 3.09-7.68Zm746.06 346.68c6.52-9.94 23.63-16.73 36.14-8.67 7.91 5.09 12.12 14.91 11.22 25.12 6.01-8.46 16.01-12.77 25.28-10.85 13.12 2.71 19.68 16.81 19.14 27.12-.05 1.01-.28 3.98-1.75 7.55-4.54 11.05-16.03 15.92-23.76 19.33-11.03 4.86-25.24 11.51-44.08 21.21a397 397 0 0 1-10.95-25.56c-4.74-12.26-3.03-9.69-7.06-19.92-5.54-14.06-8.99-19.48-7.29-27.65.88-4.24 2.71-7.09 3.09-7.68Z" class="cls-1ann2"/><path d="M260.32 640.78c4.95-7.54 17.93-12.7 27.43-6.58 6 3.86 9.2 11.31 8.52 19.07 4.56-6.42 12.15-9.69 19.19-8.23 9.95 2.06 14.94 12.76 14.53 20.58-.04.76-.21 3.02-1.33 5.73-3.45 8.39-12.17 12.08-18.03 14.67-8.37 3.69-19.16 8.74-33.46 16.1-3.33-7.08-6.06-13.6-8.31-19.4-3.6-9.3-2.3-7.35-5.36-15.12-4.21-10.67-6.82-14.78-5.53-20.98.67-3.22 2.06-5.38 2.35-5.83Z" class="cls-1ann4"/><path d="M257.38 346.65c-.99-8.97 5.73-21.21 16.95-22.56 7.09-.85 14.3 2.86 18.72 9.26-.58-7.85 3.19-15.21 9.54-18.58 8.98-4.76 19.64.31 24.31 6.6.46.61 1.76 2.46 2.63 5.26 2.69 8.66-1.67 17.06-4.55 22.79-4.1 8.18-9.19 18.94-15.52 33.73-7.07-3.33-13.34-6.61-18.77-9.66-8.7-4.88-6.46-4.2-13.77-8.24-10.04-5.54-14.68-7.04-17.64-12.64-1.53-2.91-1.85-5.46-1.9-5.99Z" class="cls-1ann3"/><path d="M197.19 365.52c3.31-5.24 12.16-8.93 18.75-4.84 4.17 2.58 6.45 7.66 6.07 12.99 3.05-4.46 8.22-6.8 13.08-5.88 6.86 1.29 10.41 8.58 10.22 13.96-.02.52-.11 2.07-.84 3.95-2.27 5.8-8.21 8.44-12.2 10.28-5.7 2.63-13.05 6.23-22.78 11.45-2.37-4.82-4.32-9.26-5.93-13.22-2.58-6.34-1.66-5.02-3.86-10.32-3.01-7.27-4.86-10.07-4.05-14.34.42-2.22 1.35-3.72 1.54-4.03" class="cls-1ann4"/><path d="M298.42 904.92c3.31-5.24 12.16-8.93 18.75-4.84 4.17 2.58 6.45 7.66 6.07 12.99 3.05-4.46 8.22-6.8 13.08-5.88 6.86 1.29 10.41 8.58 10.22 13.96-.02.52-.11 2.07-.84 3.95-2.27 5.8-8.21 8.44-12.2 10.28-5.7 2.63-13.05 6.23-22.78 11.45-2.37-4.82-4.32-9.26-5.93-13.22-2.58-6.34-1.66-5.02-3.86-10.32-3.01-7.27-4.86-10.07-4.05-14.34.42-2.22 1.35-3.72 1.54-4.03" class="cls-1ann1"/><path d="M191.21 278.82c-.76-8.85 6.14-20.74 17.21-21.8 6.99-.67 14 3.15 18.2 9.56-.38-7.74 3.5-14.89 9.83-18.05 8.95-4.47 19.32.77 23.77 7.08.43.61 1.67 2.46 2.47 5.24 2.44 8.59-2.05 16.75-5.02 22.32-4.23 7.95-9.5 18.42-16.08 32.83-6.88-3.45-12.97-6.83-18.24-9.95-8.45-5.01-6.25-4.29-13.35-8.43-9.75-5.69-14.28-7.28-17.06-12.86-1.44-2.9-1.69-5.41-1.73-5.94" class="cls-1ann2"/><path d="M287.86 213.13c4.5-7.66 17.01-13.36 26.65-7.81 6.09 3.5 9.6 10.67 9.31 18.33 4.17-6.54 11.47-10.12 18.47-9.03 9.89 1.54 15.31 11.81 15.29 19.53 0 .75-.06 2.98-1.02 5.7-2.98 8.42-11.37 12.47-17.01 15.3-8.05 4.04-18.41 9.53-32.11 17.47-3.62-6.8-6.63-13.07-9.12-18.67-3.99-8.97-2.62-7.12-6.01-14.61-4.66-10.28-7.43-14.2-6.47-20.36.5-3.2 1.76-5.39 2.02-5.85" class="cls-1ann1"/><path d="M215.15 574c-.93-7.44 4.51-17.68 13.81-18.92 5.87-.79 11.9 2.21 15.65 7.48-.57-6.51 2.47-12.67 7.71-15.53 7.4-4.05 16.31.03 20.26 5.2.39.5 1.49 2.02 2.25 4.34 2.33 7.16-1.19 14.19-3.51 18.98-3.31 6.84-7.42 15.83-12.5 28.19-5.91-2.69-11.15-5.34-15.69-7.8-7.28-3.95-5.41-3.41-11.53-6.68-8.4-4.49-12.27-5.68-14.79-10.29-1.31-2.4-1.6-4.51-1.65-4.95Z" class="cls-1ann3"/><path d="M312.37 558.23c3.26-3.98 10.94-6.11 15.95-2.07 3.17 2.55 4.53 6.97 3.67 11.32 2.97-3.36 7.47-4.76 11.38-3.5 5.52 1.77 7.69 8.14 6.99 12.55-.07.43-.3 1.7-1.1 3.17-2.46 4.55-7.63 6.11-11.11 7.22-4.97 1.58-11.39 3.79-19.94 7.1-1.46-4.21-2.61-8.07-3.53-11.5-1.48-5.49-.86-4.31-2.12-8.9-1.74-6.3-2.97-8.79-1.86-12.23.57-1.78 1.49-2.93 1.68-3.16Z" class="cls-1ann1"/><path d="M648.59 1168.05c.92-3.84 5.5-7.9 10.32-6.79 3.05.7 5.47 3.29 6.34 6.58.92-3.32 3.56-5.8 6.68-6.24 4.41-.63 8.05 3.03 9.04 6.32.1.32.36 1.27.31 2.56-.17 3.97-3.21 6.78-5.24 8.72-2.9 2.76-6.59 6.45-11.38 11.61-2.42-2.42-4.52-4.7-6.31-6.75-2.87-3.3-2.04-2.69-4.46-5.43-3.32-3.77-5.01-5.07-5.4-7.82-.2-1.42.05-2.52.1-2.75Z" class="cls-1ann2"/><path d="M200.23 694.23c-1.52-4.91.93-12.49 7.06-14.45 3.88-1.24 8.31.06 11.47 3.17-1.17-4.33.15-8.86 3.35-11.42 4.52-3.63 11.03-1.94 14.32 1.08.32.29 1.25 1.19 2.04 2.66 2.44 4.56.9 9.73-.1 13.25-1.42 5.02-3.11 11.59-5.06 20.55-4.32-1.11-8.18-2.27-11.55-3.39-5.4-1.79-4.07-1.66-8.59-3.13-6.22-2.02-8.98-2.37-11.23-5.18-1.17-1.46-1.62-2.86-1.71-3.15Zm43.29-263.64c7.65-13.36 29.22-23.49 46.03-14.06 10.62 5.95 16.84 18.31 16.49 31.58 7.1-11.41 19.68-17.76 31.82-16.02 17.17 2.47 26.76 20.17 26.88 33.54.01 1.3-.05 5.16-1.66 9.9-4.99 14.64-19.46 21.84-29.18 26.85-13.88 7.15-31.71 16.87-55.3 30.9a513 513 0 0 1-16.17-32.18c-7.09-15.47-4.68-12.28-10.7-25.19-8.27-17.73-13.16-24.46-11.61-35.16.81-5.55 2.94-9.38 3.39-10.17Z" class="cls-1ann1"/></svg>