<svg xmlns="http://www.w3.org/2000/svg" viewBox="0 0 1500 1500" width="300" height="300" fill="none"><defs><style>.cls-3ann1{fill:#fff}.cls-3ann2{fill:#ff4545}.cls-3ann3{fill:#8e1414}</style></defs><path d="M1233.22 1360.36H329.71c-54.98 0-99.7-44.73-99.7-99.7V357.15c0-54.98 44.73-99.7 99.7-99.7h903.51c54.98 0 99.7 44.73 99.7 99.7v903.51c0 54.98-44.73 99.7-99.7 99.7M329.71 300.45c-31.27 0-56.7 25.44-56.7 56.7v903.51c0 31.27 25.44 56.7 56.7 56.7h903.51c31.27 0 56.7-25.44 56.7-56.7V357.15c0-31.27-25.44-56.7-56.7-56.7z" class="cls-3ann2"/><path d="M595.03 1313.51c-.67 2.12-2.19 3.18-4.55 3.18s-5.03-1.3-8.01-3.9c2.89-8.47 9-22.11 18.33-40.93 9.33-18.81 15.4-32.89 18.19-42.22.38-1.54.58-2.6.58-3.18 0-1.44-1.06-3.66-3.18-6.64l-1.15-1.59.29-1.88c8.18-2.31 17.23-3.46 27.14-3.46l8.81.58c1.06 1.44 1.88 3.66 2.45 6.64 1.54 7.31 2.31 26.13 2.31 56.44 0 11.74 1.01 20.02 3.03 24.83.77 1.83 1.54 2.74 2.31 2.74s3.13-.96 7.07-2.89l1.88-.87 2.89 5.2c-3.66 3.56-7.72 6.38-12.2 8.44-4.48 2.07-8.59 3.1-12.34 3.1-9.72 0-14.58-7.55-14.58-22.66v-11.4q-3.75-.87-11.4-.87c-7.65 0-10.68.48-16.75 1.44-4.81 11.16-8.52 21.13-11.12 29.88Zm39.55-40.28.14-16.75c0-14.63-.63-24.54-1.88-29.74-.77 0-1.35.1-1.73.29-2.7 7.41-5.22 13.69-7.58 18.84s-4.91 10.64-7.65 16.46-4.45 9.46-5.12 10.9zm43.16 42.59H675q0-6.78 4.11-25.98c4.11-19.2 4.11-20.06 4.11-21.8 0-3.18-1.35-6.54-4.04-10.1l-1.3-1.73.14-1.88c5.2-1.44 13.52-2.17 24.97-2.17 1.25 1.64 1.92 4.62 2.02 8.95 8.37-6.45 15.45-9.67 21.22-9.67 3.46 0 6.23 1.2 8.3 3.61s3.1 5.41 3.1 9.02-1.11 9.84-3.32 18.69c-2.21 8.86-3.32 14.8-3.32 17.83s.38 4.55 1.15 4.55c.58 0 2.6-.91 6.06-2.74l1.73-.87 2.6 5.05c-.87.77-2.02 1.73-3.46 2.89-1.44 1.15-4.11 2.72-8.01 4.69s-7.39 2.96-10.47 2.96c-7.03 0-10.54-3.99-10.54-11.98 0-3.37 1.08-9.57 3.25-18.62 2.17-9.04 3.25-14.87 3.25-17.47s-.82-3.9-2.45-3.9c-2.79 0-6.21 1.2-10.25 3.61-.29 1.64-1.25 5.97-2.89 12.99-3.37 15.11-5.05 25.79-5.05 32.05-3.37 1.35-9.43 2.02-18.19 2.02Zm73.33 0h-2.74q0-6.78 4.11-25.98c4.11-19.2 4.11-20.06 4.11-21.8 0-3.18-1.35-6.54-4.04-10.1l-1.3-1.73.14-1.88c5.2-1.44 13.52-2.17 24.97-2.17 1.25 1.64 1.92 4.62 2.02 8.95 8.37-6.45 15.45-9.67 21.22-9.67 3.46 0 6.23 1.2 8.3 3.61s3.1 5.41 3.1 9.02-1.11 9.84-3.32 18.69c-2.21 8.86-3.32 14.8-3.32 17.83s.38 4.55 1.15 4.55c.58 0 2.6-.91 6.06-2.74l1.73-.87 2.6 5.05c-.87.77-2.02 1.73-3.46 2.89-1.44 1.15-4.11 2.72-8.01 4.69s-7.39 2.96-10.47 2.96c-7.03 0-10.54-3.99-10.54-11.98 0-3.37 1.08-9.57 3.25-18.62 2.17-9.04 3.25-14.87 3.25-17.47s-.82-3.9-2.45-3.9c-2.79 0-6.21 1.2-10.25 3.61-.29 1.64-1.25 5.97-2.89 12.99-3.37 15.11-5.05 25.79-5.05 32.05-3.37 1.35-9.43 2.02-18.19 2.02Zm99.32-55.43c0 4.04-1.3 11-3.9 20.86-2.6 9.87-3.9 16.31-3.9 19.34s.43 4.55 1.3 4.55c.58 0 2.79-.91 6.64-2.74l1.73-.87 2.45 5.05c-.87.77-2.02 1.73-3.46 2.89-1.44 1.15-4.14 2.72-8.08 4.69-3.95 1.97-7.6 2.96-10.97 2.96s-6.02-1.04-7.94-3.1c-1.93-2.07-2.89-4.86-2.89-8.37s1.2-9.77 3.61-18.77c2.4-9 3.61-14.84 3.61-17.54q0-6.06-3.75-11.4l-1.3-1.73.14-1.88c5.1-1.44 13.38-2.17 24.83-2.17 1.25 1.44 1.88 4.19 1.88 8.23m23.46-8.95c4.19 0 7.31.87 9.38 2.6s3.1 5.29 3.1 10.68c0 2.89-.87 8.78-2.6 17.68s-2.6 14.32-2.6 16.24c0 3.85.77 5.77 2.31 5.77 3.66 0 7.67-2.72 12.05-8.16s6.66-9.98 6.86-13.64l-9.82-10.97c.38-4.14 1.39-7.89 3.03-11.26s3.18-5.72 4.62-7.07l2.02-1.88c4.14 0 7.27 1.11 9.38 3.32 2.12 2.22 3.18 4.81 3.18 7.8 0 7.6-1.88 15.64-5.63 24.11s-8.76 15.66-15.01 21.58c-6.26 5.92-12.61 8.88-19.06 8.88-4.04 0-7.15-1.25-9.31-3.75-2.17-2.5-3.25-5.8-3.25-9.89s.31-9.6.94-16.53c.62-6.93.94-13.81.94-20.64 0-1.54-.55-3.37-1.66-5.49s-2.24-3.8-3.39-5.05l.43-1.73c5.2-1.73 9.89-2.6 14.07-2.6Zm42.22 38.98c0-12.03 3.63-21.53 10.9-28.51s15.52-10.47 24.76-10.47c5.68 0 10.34 1.4 14 4.19q5.49 4.185 5.49 11.19c0 7.005-1.18 8.59-3.54 11.77s-5.22 5.63-8.59 7.36c-6.83 3.37-13.09 5.49-18.77 6.35l-3.46.43c.67 9.05 4.38 13.57 11.12 13.57 2.31 0 4.76-.58 7.36-1.73s4.62-2.31 6.06-3.46l2.17-1.73 3.46 4.62c-.77 1.06-2.31 2.45-4.62 4.19-2.31 1.73-4.48 3.18-6.5 4.33q-8.37 4.62-18.33 4.62c-9.96 0-11.89-2.36-15.73-7.07-3.85-4.71-5.77-11.26-5.77-19.63Zm32.34-10.97c2.89-3.27 4.33-7.51 4.33-12.7s-1.54-7.8-4.62-7.8c-3.66 0-6.47 3.1-8.44 9.31s-2.96 12.01-2.96 17.4c4.91-.87 8.81-2.93 11.69-6.21m28.72 36.37h-1.01c-.19-.77-.29-2.53-.29-5.27s1.3-10.13 3.9-22.16q3.9-18.045 3.9-20.64c0-2.98-1.35-6.25-4.04-9.82l-1.3-1.73.14-1.88c5.2-1.44 13.52-2.17 24.97-2.17 1.15 2.5 1.73 6.02 1.73 10.54 1.06-1.73 3.27-4.04 6.64-6.93s6.83-4.33 10.39-4.33c5.2 0 7.8 4.52 7.8 13.57-.48.58-1.13 1.32-1.95 2.24s-2.45 2.19-4.91 3.83c-2.45 1.64-4.84 2.65-7.15 3.03-.1 0-.92-1.3-2.45-3.9-1.54-2.6-2.7-3.9-3.46-3.9-2.41.87-4.52 2.31-6.35 4.33-4.43 19.92-6.64 32.82-6.64 38.69 0 2.12.05 3.61.14 4.48-3.37 1.35-10.06 2.02-20.07 2.02Zm94.27-19.34c0 6.06-2.67 11.02-8.01 14.87s-11.43 5.77-18.26 5.77-12.25-1.44-16.24-4.33-5.99-5.44-5.99-7.65c0-1.35 1.68-3.54 5.05-6.57s6.21-4.88 8.52-5.56c4.81 3.56 8.76 9.19 11.84 16.89 3.56-.29 5.34-1.97 5.34-5.05 0-4.43-3.9-10.71-11.69-18.84-7.8-8.13-11.69-14.6-11.69-19.42s2.17-8.54 6.5-11.19 9.55-3.97 15.66-3.97 10.7 1.08 13.79 3.25c3.08 2.16 4.62 5.1 4.62 8.81s-2.94 8.83-8.81 15.37c.67.67 1.54 1.57 2.6 2.67 1.06 1.11 2.45 3.2 4.19 6.28 1.73 3.08 2.6 5.97 2.6 8.66Zm-7.8-32.91c0-3.37-2.31-5.05-6.93-5.05-2.21 0-4.04.46-5.49 1.37-1.44.92-2.17 1.95-2.17 3.1 0 2.12 2.12 5.1 6.35 8.95l2.17 1.88c4.04-3.46 6.06-6.88 6.06-10.25Zm57.45-7.94q.285-.285 1.59-3.75c4.52 0 10.59 1.35 18.19 4.04-2.41 7.99-4.33 16.34-5.77 25.05s-2.17 14.92-2.17 18.62.38 5.56 1.15 5.56c.58 0 2.69-.91 6.35-2.74l1.73-.87 2.6 5.05c-.87.77-2 1.73-3.39 2.89-1.4 1.15-4.02 2.72-7.87 4.69s-7.31 2.96-10.39 2.96c-5.97 0-9.43-2.69-10.39-8.08-6.16 5.39-11.72 8.08-16.67 8.08s-9.14-1.92-12.56-5.77-5.12-9.91-5.12-18.19c0-12.89 2.65-23.07 7.94-30.53q7.935-11.19 19.2-11.19c5.39 0 10.59 1.4 15.59 4.19Zm-16.46 49.23c2.31 0 4.91-.91 7.8-2.74.67-13.57 2.93-26.99 6.78-40.28-2.89-1.25-5.34-1.88-7.36-1.88-3.46 0-6.42 3.39-8.88 10.18-2.45 6.78-3.68 14.27-3.68 22.45s1.78 12.27 5.34 12.27m45.62 10.96h-1.01c-.19-.77-.29-2.53-.29-5.27s1.3-10.13 3.9-22.16q3.9-18.045 3.9-20.64c0-2.98-1.35-6.25-4.04-9.82l-1.3-1.73.14-1.88c5.2-1.44 13.52-2.17 24.97-2.17 1.15 2.5 1.73 6.02 1.73 10.54 1.06-1.73 3.27-4.04 6.64-6.93s6.83-4.33 10.39-4.33c5.2 0 7.8 4.52 7.8 13.57-.48.58-1.13 1.32-1.95 2.24s-2.45 2.19-4.91 3.83c-2.45 1.64-4.84 2.65-7.15 3.03-.1 0-.92-1.3-2.45-3.9-1.54-2.6-2.7-3.9-3.46-3.9-2.41.87-4.52 2.31-6.35 4.33-4.43 19.92-6.64 32.82-6.64 38.69 0 2.12.05 3.61.14 4.48-3.37 1.35-10.06 2.02-20.07 2.02Zm62.36.15c-8.08 0-12.13-4.43-12.13-13.28 0-2.12.96-8.23 2.89-18.33 1.92-10.1 2.89-18.53 2.89-25.26 0-1.44-.19-2.79-.58-4.04q7.8-3.03 21.36-3.03.72 2.025.72 6.93c0 4.905-1.06 10.06-3.18 20.35q-3.18 15.45-3.18 19.92c0 4.47 1.25 4.48 3.75 4.48 2.98 0 6.59-1.49 10.83-4.48.48-5.68 2.4-20.64 5.77-44.89 3.37-1.35 9.43-2.02 18.19-2.02h2.74c-1.83 7.22-3.61 17.61-5.34 31.18s-3.13 23-4.19 28.29c-2.02 10.59-5.75 19.22-11.19 25.91s-12.54 10.03-21.29 10.03c-3.46 0-6.62-.92-9.46-2.74-2.84-1.83-4.26-4.19-4.26-7.07 0-3.85 2.36-7.36 7.07-10.54s11.07-5.63 19.06-7.36c.87-4.24 1.54-8.32 2.02-12.27-7.8 5.49-15.3 8.23-22.52 8.23Zm7 15.01c-3.23 1.92-4.84 3.8-4.84 5.63s1.03 2.74 3.1 2.74 4.4-.99 7-2.96 4.76-5.17 6.5-9.6c-4.62.87-8.54 2.26-11.77 4.19Z" class="cls-3ann3"/><path d="M252.72 886.36c-3.54-5.19-27.41-39.07-67.6-41.16-6.91-.36-27.74-1.44-45.11 12.58-17.71 14.3-25.59 39.3-22.26 60.19 5.1 31.96 34.44 41.61 83.68 88.59a526 526 0 0 1 51.87 57.33 456.6 456.6 0 0 1 42.31-49.14c48.97-49.3 80.71-58.58 88.72-94.18.8-3.54 7.03-33.3-10.92-54.6-20.13-23.89-55.58-19.2-61.18-18.46-36.42 4.82-56.19 33.8-59.51 38.85" class="cls-3ann1"/><path d="m253.69 1099.38-17.36-22.29a504.5 504.5 0 0 0-49.75-54.98c-15.91-15.18-29.46-26.15-41.42-35.82-24.56-19.88-43.97-35.58-48.65-64.94-4.75-29.72 7.3-61.99 29.98-80.3 15.78-12.74 35.88-18.57 59.74-17.33 29.68 1.54 51.97 16.24 66.46 29.88 12.68-11.73 31.53-24.08 56.71-27.41 15.85-2.1 55.42-3.77 80.44 25.92 23.98 28.45 17.08 65.95 15.45 73.17-6.74 29.94-25.8 45.46-49.93 65.11-12.91 10.51-27.54 22.42-44.51 39.5a433 433 0 0 0-40.31 46.82l-16.86 22.67Zm-74.32-232.86c-6.74 0-17.28 1.06-25.85 7.98-10.74 8.68-16.86 25.53-14.54 40.07 1.99 12.45 10.09 19.56 33.24 38.29 11.97 9.69 26.87 21.74 44.05 38.13a549 549 0 0 1 36.71 38.6 480 480 0 0 1 27.37-30.01c18.57-18.69 34.81-31.92 47.87-42.55 22.52-18.34 31.79-26.37 35.13-41.2.21-.92 4.92-22.6-6.39-36.02-11.64-13.82-35.03-11.92-41.92-11-25.45 3.37-40.4 23.33-44.38 29.36l-17.65 26.8-18.07-26.52c-3.44-5.05-22.05-30.29-50.95-31.8-1.17-.06-2.75-.14-4.63-.14Z" class="cls-3ann2"/><path d="M294.56 681.39c-.78-4.27-6.4-32.33-31.19-44.88-4.26-2.16-17.12-8.66-32.01-4.65-15.18 4.09-27.14 17.67-30.87 31.8-5.7 21.61 10.13 35.9 28.1 79.33a363 363 0 0 1 16.75 50.69c8.85-5.01 22.71-12.29 40.45-19.21 44.7-17.46 67.34-14.45 82.34-34.7 1.49-2.01 13.74-19.07 8.35-37.53-6.04-20.71-29.74-27.65-33.48-28.75-24.35-7.13-44.93 5.65-48.44 7.91Z" class="cls-3ann1"/><path d="m233.3 821.74-5.9-23.58c-4.08-16.31-9.43-32.5-15.89-48.11-5.75-13.9-11.21-24.54-16.03-33.92-10.32-20.11-18.47-36-12.87-57.2 5.63-21.32 23.29-39.38 43.95-44.94 14.42-3.88 29.61-1.86 45.17 6.01 17.81 9.01 28.11 23.6 33.99 36.22 11.47-3.44 26.33-5.24 42.5-.51 23.62 6.92 40.4 21.98 46.04 41.32 7.68 26.33-8.02 49.38-11.25 53.73-13.37 18.04-31.13 22.9-51.69 28.52-11 3.01-23.47 6.42-38.78 12.4a297 297 0 0 0-38.07 18.08l-21.16 11.97Zm7.79-172.66c-1.6 0-3.26.19-4.92.63-8.03 2.16-15.51 10.01-17.79 18.65-1.88 7.13 1.1 13.5 10.02 30.87 4.88 9.52 10.96 21.37 17.29 36.66a381 381 0 0 1 11.26 30.9c7.26-3.46 14.64-6.65 22.11-9.57 17.13-6.69 31.19-10.53 42.48-13.62 18.48-5.05 26.2-7.4 31.73-14.86.08-.11 8.35-11.42 5.46-21.34-2.97-10.2-16.77-14.96-20.92-16.18-15.53-4.55-29.36 3.22-33.23 5.71l-23.22 14.95-4.99-27.16c-.71-3.85-5.06-23.47-21.35-31.71-2.34-1.19-7.77-3.93-13.93-3.93" class="cls-3ann2"/><path d="M1247.04 302.32c-4.63-4.24-35.63-31.75-75.23-24.58-6.8 1.23-27.34 4.95-41.03 22.58-13.96 17.98-15.91 44.12-7.88 63.69 12.29 29.94 43.05 32.62 101.75 67.07a526.5 526.5 0 0 1 63.62 43.92 455 455 0 0 1 29.93-57.52c36.38-59.21 65.15-75.51 64.79-112-.04-3.62-.78-34.02-23.14-50.64-25.07-18.65-58.5-5.96-63.78-3.96-34.35 13.03-46.95 45.78-49.03 51.45Z" class="cls-3ann1"/><path d="m1296.79 509.46-22-17.72a505 505 0 0 0-61.02-42.12c-18.97-11.13-34.67-18.7-48.52-25.38-28.46-13.72-50.95-24.56-62.23-52.07-11.43-27.84-7.09-62.01 10.79-85.04 12.44-16.02 30.67-26.29 54.18-30.55 29.24-5.29 54.31 3.91 71.54 13.86 9.66-14.32 25.18-30.66 48.93-39.67 14.95-5.67 53.09-16.36 84.24 6.81 29.86 22.21 31.73 60.28 31.8 67.69.3 30.69-14.7 50.16-33.69 74.81-10.16 13.19-21.67 28.13-34.28 48.65a435 435 0 0 0-28.52 54.81l-11.22 25.93Zm-111.82-211.4c-3.04 0-6.15.26-9.32.83-5.26.95-19.24 3.48-27.88 14.61-8.47 10.91-10.56 28.71-4.97 42.33 4.79 11.66 14.31 16.73 41.13 29.66 13.87 6.69 31.13 15.01 51.61 27.03a551 551 0 0 1 44.58 29.17c6.08-12.1 12.7-23.96 19.77-35.48 13.79-22.45 26.58-39.04 36.85-52.38 17.72-23.01 24.91-32.95 24.76-48.16 0-.94-.39-23.13-14.47-33.6-14.5-10.78-36.83-3.57-43.33-1.11-24 9.11-33.99 31.96-36.47 38.75l-11.04 30.14-23.67-21.68c-4-3.67-23.32-20.11-47.55-20.11" class="cls-3ann2"/><path d="M1314.76 544.36c-.78-2.8-6.22-21.18-23.51-28.06-2.97-1.18-11.94-4.75-21.63-1.18-9.88 3.64-17.04 13.42-18.68 23.07-2.5 14.76 8.92 23.34 23.53 51.22 7.02 13.4 11.51 25.02 14.23 32.81 5.6-3.88 14.41-9.56 25.82-15.26 28.77-14.34 44.05-13.7 52.84-28.11.87-1.43 8.02-13.55 3.31-25.54-5.28-13.45-21.51-16.66-24.07-17.16-16.67-3.29-29.63 6.48-31.84 8.2Z" class="cls-3ann1"/><path d="m1283.06 639.5-4.76-13.65c-3.73-10.7-8.3-21.24-13.58-31.32-4.7-8.97-9-15.77-12.79-21.76-7.94-12.54-14.2-22.45-11.84-36.41 2.39-14.08 12.72-26.76 25.72-31.55 9.05-3.34 18.98-2.91 29.5 1.27 12.61 5.01 20.28 14.47 24.76 22.58 7.37-3.14 17.33-5.52 28.65-3.29 7.43 1.47 25.43 6.73 32.18 23.93 6.47 16.48-2.33 32.28-4.16 35.28-7.58 12.43-18.39 16.46-32.06 21.56-7.19 2.68-15.34 5.72-25.26 10.67-8.48 4.23-16.72 9.09-24.48 14.46l-11.89 8.22Zm-4.6-114.91c-1.62 0-3.34.24-5.04.86-5.66 2.09-10.56 8.22-11.63 14.59-.91 5.37 1.53 9.58 8.74 20.97 3.82 6.04 8.57 13.55 13.69 23.31 3.63 6.93 6.96 14.06 9.94 21.3a225 225 0 0 1 15.46-8.49c10.96-5.46 20.06-8.86 27.38-11.59 12.34-4.6 17.49-6.7 20.97-12.4.21-.35 5.24-8.72 2.46-15.79-2.86-7.28-12.94-9.79-15.96-10.39-11.21-2.21-20.4 4.1-22.95 6.08l-12.95 10.09-4.41-15.81c-.73-2.64-5.01-16.03-16.98-20.79-1.54-.61-4.88-1.94-8.73-1.94Z" class="cls-3ann2"/><path d="M358.58 252.82c-2.41-2.45-3.61-5.77-3.61-9.96s2.12-16.05 6.35-35.58c-2.5-.58-6.55-.87-12.13-.87s-10.92.48-16.02 1.44q-7.365 33.21-7.8 44.46c-3.46 1.93-10.78 2.89-21.94 2.89h-1.44c.29-4.23 2.86-16.89 7.72-37.97s7.87-36.91 9.02-47.49c0-1.54-.48-3.39-1.44-5.56-.96-2.16-1.93-3.92-2.89-5.27l-1.59-2.02.43-2.17c5.68-1.64 14.67-2.45 26.99-2.45 1.15 1.93 1.73 5.05 1.73 9.38s-2.17 16.27-6.5 35.8h27.86c3.37-17.13 5.1-29.35 5.2-36.67 0-1.64-.1-2.98-.29-4.04 7.7-2.98 15.45-4.48 23.24-4.48.29.58.43 2.02.43 4.33 0 5.29-2.33 18.91-7 40.85s-7 35.9-7 41.86c0 2.6.43 3.9 1.3 3.9s3.8-1.25 8.81-3.75l2.6 5.34c-8.57 7.8-16.17 11.69-22.81 11.69-3.75 0-6.83-1.23-9.24-3.68ZM441.29 195q.285-.285 1.59-3.75c4.52 0 10.59 1.35 18.19 4.04-2.41 7.99-4.33 16.34-5.77 25.05s-2.17 14.92-2.17 18.62.38 5.56 1.15 5.56c.58 0 2.69-.91 6.35-2.74l1.73-.87 2.6 5.05c-.87.77-2 1.73-3.39 2.89-1.4 1.15-4.02 2.72-7.87 4.69s-7.31 2.96-10.39 2.96c-5.97 0-9.43-2.69-10.39-8.08-6.16 5.39-11.72 8.08-16.67 8.08s-9.14-1.92-12.56-5.77-5.12-9.91-5.12-18.19c0-12.89 2.65-23.07 7.94-30.53q7.935-11.19 19.2-11.19c5.39 0 10.59 1.4 15.59 4.19Zm-16.46 49.23c2.31 0 4.91-.91 7.8-2.74.67-13.57 2.93-26.99 6.78-40.28-2.89-1.25-5.34-1.88-7.36-1.88-3.46 0-6.42 3.39-8.88 10.18-2.45 6.78-3.68 14.27-3.68 22.45s1.78 12.27 5.34 12.27" class="cls-3ann3"/><path d="M463.38 287.1c-.48-1.15-.72-3.71-.72-7.65s1.88-14.56 5.63-31.83 5.63-30.58 5.63-39.91c0-1.83-.43-3.78-1.3-5.85s-1.78-3.68-2.74-4.84l-1.3-1.59.14-1.88c4.52-1.44 12.51-2.17 23.96-2.17 1.06 2.02 1.73 4.86 2.02 8.52 7.41-6.06 13.59-9.09 18.55-9.09s8.95 2.07 11.98 6.21 4.55 10.2 4.55 18.19c0 13.96-2.55 24.32-7.65 31.11s-11.55 10.18-19.34 10.18c-4.04 0-7.41-.58-10.1-1.73l-1.44-.58 1.01-5.63c.87.19 1.88.29 3.03.29 2.5 0 4.69-1.15 6.57-3.46s3.3-5.24 4.26-8.81c1.92-7.12 2.89-13.71 2.89-19.78q0-12.99-5.34-12.99c-2.79 0-5.77 1.11-8.95 3.32-.39 6.74-2.36 18.53-5.92 35.37q-5.34 25.26-5.34 40.71c-5.2 2.12-11.89 3.41-20.07 3.9Zm68.86 0c-.48-1.15-.72-3.71-.72-7.65s1.88-14.56 5.63-31.83 5.63-30.58 5.63-39.91c0-1.83-.43-3.78-1.3-5.85s-1.78-3.68-2.74-4.84l-1.3-1.59.14-1.88c4.52-1.44 12.51-2.17 23.96-2.17 1.06 2.02 1.73 4.86 2.02 8.52 7.41-6.06 13.59-9.09 18.55-9.09s8.95 2.07 11.98 6.21 4.55 10.2 4.55 18.19c0 13.96-2.55 24.32-7.65 31.11s-11.55 10.18-19.34 10.18c-4.04 0-7.41-.58-10.1-1.73l-1.44-.58 1.01-5.63c.87.19 1.88.29 3.03.29 2.5 0 4.69-1.15 6.57-3.46s3.3-5.24 4.26-8.81c1.92-7.12 2.89-13.71 2.89-19.78q0-12.99-5.34-12.99c-2.79 0-5.77 1.11-8.95 3.32-.39 6.74-2.36 18.53-5.92 35.37q-5.34 25.26-5.34 40.71c-5.2 2.12-11.89 3.41-20.07 3.9Zm85.74-31.76c-8.08 0-12.13-4.43-12.13-13.28 0-2.12.96-8.23 2.89-18.33 1.92-10.1 2.89-18.53 2.89-25.26 0-1.44-.19-2.79-.58-4.04q7.8-3.03 21.36-3.03.72 2.025.72 6.93c0 4.905-1.06 10.06-3.18 20.35q-3.18 15.45-3.18 19.92c0 4.47 1.25 4.48 3.75 4.48 2.98 0 6.59-1.49 10.83-4.48.48-5.68 2.4-20.64 5.77-44.89 3.37-1.35 9.43-2.02 18.19-2.02h2.74c-1.83 7.22-3.61 17.61-5.34 31.18s-3.13 23-4.19 28.29c-2.02 10.59-5.75 19.22-11.19 25.91s-12.54 10.03-21.29 10.03c-3.46 0-6.62-.92-9.46-2.74-2.84-1.83-4.26-4.19-4.26-7.07 0-3.85 2.36-7.36 7.07-10.54s11.07-5.63 19.06-7.36c.87-4.24 1.54-8.32 2.02-12.27-7.8 5.49-15.3 8.23-22.52 8.23Zm7 15.01c-3.23 1.92-4.84 3.8-4.84 5.63s1.03 2.74 3.1 2.74 4.4-.99 7-2.96 4.76-5.17 6.5-9.6c-4.62.87-8.54 2.26-11.77 4.19Z" class="cls-3ann3"/></svg>