<svg xmlns="http://www.w3.org/2000/svg" viewBox="0 0 245.13 239.57" width="300" height="300" fill="none"><path d="M82.77 150.16c-.1-.11-.19-.23-.28-.36-.2.45.06.95.57.71-.1-.11-.2-.23-.29-.35m-.93-1.26c-.07-.09-.12-.19-.18-.28-1.62 1.26-.73 2.91.57.85-.13-.19-.27-.38-.39-.57m-2.75-6.94c-.02-.08-.03-.17-.04-.25-.03-.14-.05-.28-.06-.43a5 5 0 0 1-.06-.53c-.14.34-.42.6-.73.8.25.29.55.55.93.66h.01c-.01-.08-.03-.16-.05-.25m-.22-1.95h.01c-.02-.28-.03-.57-.03-.85-.32.46-.96.57-1.46.78.11.52.38 1.05.71 1.48.48-.27.92-.83.73-1.4h.04Zm3.9 10.14c-.1-.11-.19-.23-.28-.36-.2.45.06.95.57.71-.1-.11-.2-.23-.29-.35m-.93-1.26c-.07-.09-.12-.19-.18-.28-1.62 1.26-.73 2.91.57.85-.13-.19-.27-.38-.39-.57m-2.75-6.94c-.02-.08-.03-.17-.04-.25-.03-.14-.05-.28-.06-.43a5 5 0 0 1-.06-.53c-.14.34-.42.6-.73.8.25.29.55.55.93.66h.01c-.01-.08-.03-.16-.05-.25m-.22-1.95h.01c-.02-.28-.03-.57-.03-.85-.32.46-.96.57-1.46.78.11.52.38 1.05.71 1.48.48-.27.92-.83.73-1.4h.04Zm5.05-65.12c-.37-.86-.68.65-.26.92.25-.22.31-.6.26-.92m-5.16 41.46c-.15.23-.37.43-.61.58.2.23.43.45.7.57v-1.3c-.03.06-.05.11-.09.15m.09-1.87c-.31.51-.98.63-1.51.84.11.53.38 1.05.71 1.49.48-.28.92-.84.74-1.41l.06-.02zm3.92 35.67c-.1-.11-.19-.23-.28-.36-.2.45.06.95.57.71-.1-.11-.2-.23-.29-.35m-.93-1.26c-.07-.09-.12-.19-.18-.28-1.62 1.26-.73 2.91.57.85-.13-.19-.27-.38-.39-.57m-2.75-6.94c.01.08.02.17.04.25h.01c-.01-.08-.03-.16-.05-.25m-.24-2.8c0 .28.01.57.02.85h.01c-.02-.28-.03-.57-.03-.85m116-51.26c-4.66-34.9-34.98-48.95-64.61-29.32-.02 0-.03.01-.04.02-.2.13-.39.26-.59.4-.05.03-.11.07-.16.11a73 73 0 0 0-6.65 5.13c-.24.21-.47.41-.71.63-.01 0-.02.01-.03.02h-.01l-.09-.09c-.18-.16-.37-.32-.56-.48-.03-.03-.06-.06-.1-.08 0 0 0-.02-.02-.02-.06-.06-.13-.12-.2-.17-.09-.08-.18-.16-.27-.23a.4.4 0 0 0-.07-.06l-.06-.06c-.04-.03-.08-.07-.13-.1-.79-.66-1.6-1.31-2.42-1.93a66 66 0 0 0-8.2-5.4c-43.37-24.6-71.8 22.4-57.32 59.66 11.93 31.98 40.31 55.74 69.45 72.5v-2.17c0 .73 0 1.45.01 2.17 1.36-.77 2.71-1.56 4.06-2.35.01 0 .01-.01.01-.01 7.4-4.49 15.02-9.66 22.38-15.43.08-.06.15-.12.23-.18 4.21-3.31 8.33-6.82 12.28-10.52.06-.06.13-.12.2-.19.29-.27.58-.55.88-.82.1-.1.2-.2.3-.29 20.1-19.29 35.12-43.45 32.44-70.74m-29.58 51.19c.07 9.49-7.82 17.68-17.61 17.62H96.47c-5.38-.01-10.15-2.38-13.41-6.2-.1-.11-.2-.23-.29-.35-.1-.11-.19-.23-.28-.36-.09-.11-.18-.22-.26-.33-.13-.19-.27-.38-.39-.57-.07-.09-.12-.19-.18-.28a17.4 17.4 0 0 1-2.53-6.41h.01c-.01-.08-.03-.16-.05-.25-.02-.08-.03-.17-.04-.25-.03-.14-.05-.28-.06-.43a5 5 0 0 1-.06-.53c-.03-.24-.05-.49-.06-.74h.01c-.02-.28-.03-.57-.03-.85V87.88c.02-4.68 1.79-8.86 4.81-12.08.13-.15.27-.29.41-.43 3.18-3.15 7.56-5.1 12.4-5.1h51.19c5.31.02 10.03 2.29 13.31 6.09h.01c2.67 3.09 4.29 7.12 4.29 11.52zm-28.32 17.62c-.33.24-.5.61-.31.98.4.35.82-.41 1.04-.68.05-.11.12-.21.2-.3zm1.78.49a.84.84 0 0 1-.16-.49h-.41c-.79.92-.07 1.69.69.6a.3.3 0 0 1-.12-.11m.45-.49c-.02.17-.07.39-.16.54.18.03.33-.08.43-.24h.01c.04-.1.1-.21.15-.3zm1.46.1s-.01-.07-.01-.1h-.77c-.71 1.43.21 1.26.84.28zm-61.77-16.8h.01c-.02-.28-.03-.57-.03-.85-.32.46-.96.57-1.46.78.11.52.38 1.05.71 1.48.48-.27.92-.83.73-1.4h.04Zm.22 1.94c-.02-.08-.03-.17-.04-.25-.03-.14-.05-.28-.06-.43a5 5 0 0 1-.06-.53c-.14.34-.42.6-.73.8.25.29.55.55.93.66h.01c-.01-.08-.03-.16-.05-.25m-.24-52.21c-.22.63-1.01.73-1.55.97.11.52.37 1.06.7 1.49.48-.28.92-.84.74-1.4l.11-.03zm-.14 2.01c-.15.23-.37.42-.61.57.21.24.46.47.75.6v-1.43c-.03.09-.08.18-.14.26m.14-2.01c-.22.63-1.01.73-1.55.97.11.52.37 1.06.7 1.49.48-.28.92-.84.74-1.4l.11-.03zm-.14 2.01c-.15.23-.37.42-.61.57.21.24.46.47.75.6v-1.43c-.03.09-.08.18-.14.26m.14 22.73c-.31.51-.98.63-1.51.84.11.53.38 1.05.71 1.49.48-.28.92-.84.74-1.41l.06-.02zm-.09 1.87c-.15.23-.37.43-.61.58.2.23.43.45.7.57v-1.3c-.03.06-.05.11-.09.15m.11 23.65h.01c-.02-.28-.03-.57-.03-.85-.32.46-.96.57-1.46.78.11.52.38 1.05.71 1.48.48-.27.92-.83.73-1.4h.04Zm.22 1.94c-.02-.08-.03-.17-.04-.25-.03-.14-.05-.28-.06-.43a5 5 0 0 1-.06-.53c-.14.34-.42.6-.73.8.25.29.55.55.93.66h.01c-.01-.08-.03-.16-.05-.25m2.75 6.94c-.07-.09-.12-.19-.18-.28-1.62 1.26-.73 2.91.57.85-.13-.19-.27-.38-.39-.57m.93 1.26c-.1-.11-.19-.23-.28-.36-.2.45.06.95.57.71-.1-.11-.2-.23-.29-.35m54.18 6.55c-.33.24-.5.61-.31.98.4.35.82-.41 1.04-.68.05-.11.12-.21.2-.3zm1.78.49a.84.84 0 0 1-.16-.49h-.41c-.79.92-.07 1.69.69.6a.3.3 0 0 1-.12-.11m.45-.49c-.02.17-.07.39-.16.54.18.03.33-.08.43-.24h.01c.04-.1.1-.21.15-.3zm1.46.1s-.01-.07-.01-.1h-.77c-.71 1.43.21 1.26.84.28zm24.63-63.81v1.07c.18-.36.42-.71.4-1.1-.06-.19-.3-.11-.4.03m0 24.66v1.1c.2-.39.47-.76.44-1.18-.07-.22-.34-.07-.44.08m-86.4 22.35h.01c-.02-.28-.03-.57-.03-.85-.32.46-.96.57-1.46.78.11.52.38 1.05.71 1.48.48-.27.92-.83.73-1.4h.04Zm.22 1.94c-.02-.08-.03-.17-.04-.25-.03-.14-.05-.28-.06-.43a5 5 0 0 1-.06-.53c-.14.34-.42.6-.73.8.25.29.55.55.93.66h.01c-.01-.08-.03-.16-.05-.25m2.75 6.94c-.07-.09-.12-.19-.18-.28-1.62 1.26-.73 2.91.57.85-.13-.19-.27-.38-.39-.57m.93 1.26c-.1-.11-.19-.23-.28-.36-.2.45.06.95.57.71-.1-.11-.2-.23-.29-.35m-3.9-10.15h.01c-.02-.28-.03-.57-.03-.85-.32.46-.96.57-1.46.78.11.52.38 1.05.71 1.48.48-.27.92-.83.73-1.4h.04Zm.22 1.94c-.02-.08-.03-.17-.04-.25-.03-.14-.05-.28-.06-.43a5 5 0 0 1-.06-.53c-.14.34-.42.6-.73.8.25.29.55.55.93.66h.01c-.01-.08-.03-.16-.05-.25m2.75 6.94c-.07-.09-.12-.19-.18-.28-1.62 1.26-.73 2.91.57.85-.13-.19-.27-.38-.39-.57m.93 1.26c-.1-.11-.19-.23-.28-.36-.2.45.06.95.57.71-.1-.11-.2-.23-.29-.35" style="fill:#f74d4d" transform="translate(-18)scale(1.2)"/><path d="M70.92 62.59c2.81-.28 1.26-2.94-.21-.42h-.01c-.21.21-.7 1.25-.98.83.08-.49.54-.91.53-1.44-.05-.69-.86-.28-1.08.09.11-.82-.79-.75-1.11-.16-.35-.93-1.13.19-1.38.67l.11.08c1.56-2.25.98.07.11.99l.21.14c.95-1.52 2.89-3.88 1.07-.26l.25.13c.44-.57.79-1.85 1.57-1.86.11.59-.6 1-.59 1.58.2.78.87.1 1.21-.42-.19 1.43 1.94.88 2.36-.3l-.1-.09c-.35.83-1.96 1.8-1.96.43Zm.26-.61c1.48-1.86 1.33.42-.24.48q.09-.255.24-.48m7.06.4.02.1c2.21.07.32 2.4-1.06.54.52-.32 1.01-.95.78-1.58l-.15.04c.19.57-.26 1.12-.73 1.41-.34-.43-.59-.96-.71-1.49 3.75-1.05-.44-3.07-.34-.03-2.31.65-.96 2.73.91 1.79.58.82 2.93 1.14 2.47-.36-.23-.39-.77-.52-1.19-.42m-1.8-1.84c1.17-1.66 2.3.29-.07.73-.04-.24 0-.54.07-.73m0 2.63c-1.46.39-1.72-1.26-.37-1.64.11.55.39 1.09.76 1.5-.12.05-.25.1-.39.13Zm12.72-1.01c-1.7 2.23-.94.18-.2-.94l-.22-.11c-.78 1.87-3.37 3.33-1.34.19l-.13-.08c-.37.26-.62.6-.76.94-.12.2-.31.34-.55.3.97-2.18-1.5-1.38-.21.08-1.52 1.85-1.68-.45-.38-1.23l-.1-.13c-.41.2-.79.57-.99.98h-.01c-.34.48-.82.93-1.35 1.22.37-.78.79-1.66 1.16-2.42l-.14-.07c-.63 1.66-3.35 3.62-1.48.42l-.13-.08c-1.28.87-.9 3.02.62 1.39-.19.31-.35.69-.53 1.01-3.76 2.05-1.01 3.97.39 0 .54-.31.98-.64 1.34-1.07-.23 1.05 1.28 1.08 1.74.05.21.04.39-.03.54-.15-.2.85.36 1.47 1.48.18-.42 1.45 1.18.27 1.37-.38l-.11-.08Zm-7.09 2.22c-1.56 3-2.06.66.21-.46-.07.15-.14.31-.21.46m3.75-1.97c-.3-.24-.43-1.03 0-1.18.4.2.15.86 0 1.18m11.3-4.54c2-.2.9-2.09-.15-.3-.15.15-.49.88-.69.59.05-.35.39-.64.38-1.02-.04-.49-.61-.2-.77.06.08-.58-.56-.53-.79-.12-.25-.66-.8.14-.98.48l.08.06c1.11-1.6.69.05.08.7l.15.1c.67-1.08 2.05-2.75.76-.18l.18.09c.31-.4.56-1.31 1.12-1.32.08.42-.43.71-.42 1.12.14.55.61.07.86-.3-.14 1.02 1.38.62 1.68-.21l-.07-.06c-.25.59-1.39 1.27-1.39.31Zm.18-.43c1.05-1.32.94.3-.17.34.04-.12.1-.24.17-.34m5.01.28.02.07c1.56.05.22 1.7-.75.39.37-.23.71-.68.56-1.12l-.11.03c.14.4-.18.8-.52 1-.24-.31-.42-.68-.51-1.06 2.66-.74-.31-2.18-.24-.02-1.64.46-.68 1.94.64 1.27.41.58 2.08.81 1.76-.26-.17-.28-.54-.37-.84-.3Zm-1.28-1.31c.83-1.18 1.63.21-.05.52-.03-.17 0-.38.05-.52m0 1.87c-1.03.27-1.22-.89-.26-1.16.08.39.28.77.54 1.07-.09.04-.18.07-.28.09m9.03-.72c-1.2 1.58-.66.13-.14-.66l-.15-.08c-.55 1.33-2.39 2.37-.95.14l-.09-.06c-.27.18-.44.43-.54.67-.08.14-.22.24-.39.21.69-1.54-1.07-.98-.15.06-1.08 1.31-1.19-.32-.27-.87l-.07-.09c-.29.15-.56.4-.7.7-.24.34-.58.66-.96.86.26-.55.56-1.18.82-1.72l-.1-.05c-.45 1.17-2.38 2.57-1.05.3l-.09-.06c-.91.62-.64 2.14.44.98-.13.22-.25.49-.37.72-2.66 1.45-.72 2.82.27 0 .38-.22.69-.45.95-.76-.16.75.91.77 1.23.03.15.03.28-.02.39-.11-.14.6.25 1.04 1.05.13-.3 1.03.84.19.97-.27l-.08-.06Zm-5.03 1.58c-1.1 2.13-1.46.47.15-.33zm2.66-1.4c-.22-.17-.31-.73 0-.84.28.14.1.61 0 .84m-53.73 26.7c1.58-.16.71-1.65-.12-.24-.12.12-.39.7-.55.46.04-.28.3-.51.3-.81-.03-.39-.48-.16-.61.05.06-.46-.44-.42-.62-.09-.2-.52-.64.11-.77.38l.06.05c.88-1.26.55.04.06.55l.11.08c.53-.85 1.62-2.17.6-.15l.14.07c.25-.32.44-1.03.88-1.04.06.33-.34.56-.33.89.11.44.49.05.68-.23-.11.8 1.09.49 1.33-.17l-.06-.05c-.19.46-1.1 1.01-1.1.24Zm.15-.34c.83-1.04.75.24-.13.27.03-.09.08-.19.13-.27m3.95.22v.06c1.25.04.19 1.35-.58.3.29-.18.56-.53.44-.88l-.08.02c.11.32-.15.63-.41.79-.19-.24-.33-.54-.4-.84 2.1-.59-.24-1.72-.19-.02-1.29.37-.54 1.53.51 1 .33.46 1.64.64 1.39-.2-.13-.22-.43-.29-.67-.24Zm-1.01-1.03c.65-.93 1.29.16-.04.41-.02-.14 0-.3.04-.41m0 1.48c-.82.22-.96-.7-.21-.92.06.31.22.61.43.84-.07.03-.14.06-.22.07Zm7.13-.58c-.95 1.25-.52.1-.11-.52l-.12-.06c-.44 1.05-1.89 1.87-.75.11l-.07-.05c-.21.15-.35.34-.43.53-.07.11-.18.19-.31.17.54-1.22-.84-.78-.12.04-.85 1.04-.94-.25-.21-.69l-.05-.07c-.23.11-.44.32-.55.55-.19.27-.46.52-.76.68.21-.44.44-.93.65-1.36l-.08-.04c-.36.93-1.88 2.03-.83.23l-.07-.05c-.72.49-.51 1.69.35.78-.11.17-.2.39-.29.57-2.11 1.15-.57 2.23.22 0 .3-.18.55-.36.75-.6-.13.59.72.61.97.03.12.02.22-.02.3-.09-.11.48.2.82.83.1-.23.81.66.15.77-.21l-.06-.05Zm-3.98 1.25c-.87 1.68-1.15.37.12-.26-.04.08-.08.17-.12.26m2.1-1.1c-.17-.13-.24-.58 0-.66.22.11.08.48 0 .66m5.96-4.31c1.58-.16.71-1.65-.12-.24-.12.12-.39.7-.55.46.04-.28.3-.51.3-.81-.03-.39-.48-.16-.61.05.06-.46-.44-.42-.62-.09-.2-.52-.64.11-.77.38l.06.05c.88-1.26.55.04.06.55l.11.08c.53-.85 1.62-2.17.6-.15l.14.07c.25-.32.44-1.03.88-1.04.06.33-.34.56-.33.89.11.44.49.05.68-.23-.11.8 1.09.49 1.33-.17l-.06-.05c-.19.46-1.1 1.01-1.1.24Zm.15-.34c.83-1.04.75.24-.13.27.03-.09.08-.19.13-.27m3.95.22v.06c1.25.04.19 1.35-.58.3.29-.18.56-.53.44-.88l-.08.02c.11.32-.15.63-.41.79-.19-.24-.33-.54-.4-.84 2.1-.59-.24-1.72-.19-.02-1.29.37-.54 1.53.51 1 .33.46 1.64.64 1.39-.2-.13-.22-.43-.29-.67-.24Zm-1.01-1.03c.65-.93 1.29.16-.04.41-.02-.14 0-.3.04-.41m0 1.48c-.82.22-.96-.7-.21-.92.06.31.22.61.43.84-.07.03-.14.06-.22.07Zm7.13-.57c-.95 1.25-.52.1-.11-.52l-.12-.06c-.44 1.05-1.89 1.87-.75.11l-.07-.05c-.21.15-.35.34-.43.53-.07.11-.18.19-.31.17.54-1.22-.84-.78-.12.04-.85 1.04-.94-.25-.21-.69l-.05-.07c-.23.11-.44.32-.55.55-.19.27-.46.52-.76.68.21-.44.44-.93.65-1.36l-.08-.04c-.36.93-1.88 2.03-.83.23l-.07-.05c-.72.49-.51 1.69.35.78-.11.17-.2.39-.29.57-2.11 1.15-.57 2.23.22 0 .3-.18.55-.36.75-.6-.13.59.72.61.97.03.12.02.22-.02.3-.09-.11.48.2.82.83.1-.23.81.66.15.77-.21l-.06-.05Zm-3.98 1.25c-.87 1.68-1.15.37.12-.26-.04.08-.08.17-.12.26m2.1-1.1c-.17-.13-.24-.58 0-.66.22.11.08.48 0 .66M52.86 98.42c1.58-.16.71-1.65-.12-.24-.12.12-.39.7-.55.46.04-.28.3-.51.3-.81-.03-.39-.48-.16-.61.05.06-.46-.44-.42-.62-.09-.2-.52-.64.11-.77.38l.06.05c.88-1.26.55.04.06.55l.11.08c.53-.85 1.62-2.17.6-.15l.14.07c.25-.32.44-1.03.88-1.04.06.33-.34.56-.33.89.11.44.49.05.68-.23-.11.8 1.09.49 1.33-.17l-.06-.05c-.19.46-1.1 1.01-1.1.24Zm.15-.34c.83-1.04.75.24-.13.27.03-.09.08-.19.13-.27m3.95.22v.06c1.25.04.19 1.35-.58.3.29-.18.56-.53.44-.88l-.08.02c.11.32-.15.63-.41.79-.19-.24-.33-.54-.4-.84 2.1-.59-.24-1.72-.19-.02-1.29.37-.54 1.53.51 1 .33.46 1.64.64 1.39-.2-.13-.22-.43-.29-.67-.24Zm-1.01-1.03c.65-.93 1.29.16-.04.41-.02-.14 0-.3.04-.41m0 1.48c-.82.22-.96-.7-.21-.92.06.31.22.61.43.84-.07.03-.14.06-.22.07Zm7.13-.58c-.95 1.25-.52.1-.11-.52l-.12-.06c-.44 1.05-1.89 1.87-.75.11l-.07-.05c-.21.15-.35.34-.43.53-.07.11-.18.19-.31.17.54-1.22-.84-.78-.12.04-.85 1.04-.94-.25-.21-.69l-.05-.07c-.23.11-.44.32-.55.55-.19.27-.46.52-.76.68.21-.44.44-.93.65-1.36l-.08-.04c-.36.93-1.88 2.03-.83.23l-.07-.05c-.72.49-.51 1.69.35.78-.11.17-.2.39-.29.57-2.11 1.15-.57 2.23.22 0 .3-.18.55-.36.75-.6-.13.59.72.61.97.03.12.02.22-.02.3-.09-.11.48.2.82.83.1-.23.81.66.15.77-.21l-.06-.05Zm-3.98 1.25c-.87 1.68-1.15.37.12-.26-.04.08-.08.17-.12.26m2.1-1.1c-.17-.13-.24-.58 0-.66.22.11.08.48 0 .66m-.86 9.71c2.53-.25 1.14-2.65-.19-.38h-.01c-.19.19-.63 1.12-.88.74.07-.45.49-.82.48-1.29-.05-.62-.77-.26-.97.08.1-.73-.71-.67-1-.15-.31-.84-1.02.17-1.24.6l.1.08c1.41-2.02.88.07.1.89l.18.12c.85-1.37 2.6-3.49.97-.23l.23.12c.4-.51.71-1.66 1.42-1.67.1.53-.54.9-.53 1.42.18.7.78.09 1.09-.37-.17 1.29 1.75.79 2.13-.27l-.09-.08c-.31.74-1.77 1.62-1.76.39Zm.23-.55c1.33-1.68 1.2.38-.21.43.05-.15.12-.3.21-.43m6.35.36.02.09c1.98.06.29 2.16-.96.49.47-.29.9-.86.71-1.42l-.14.04c.17.51-.23 1.01-.66 1.26-.3-.39-.53-.87-.64-1.34 3.38-.94-.39-2.76-.31-.03-2.08.59-.86 2.46.81 1.61.52.74 2.64 1.03 2.23-.33-.21-.35-.69-.46-1.07-.38Zm-1.62-1.66c1.05-1.49 2.07.26-.07.66-.04-.22 0-.48.07-.66m0 2.37c-1.31.35-1.55-1.13-.33-1.47.1.49.35.98.68 1.35-.11.05-.23.09-.35.12m11.44-.91c-1.53 2.01-.84.16-.18-.84l-.2-.1c-.7 1.68-3.03 3-1.21.17l-.12-.08c-.34.23-.56.54-.69.85-.11.18-.28.3-.49.27.87-1.96-1.35-1.24-.19.07-1.37 1.66-1.51-.4-.34-1.11l-.09-.11c-.37.18-.71.51-.89.88h-.01c-.31.43-.74.83-1.22 1.1.33-.7.71-1.49 1.04-2.18l-.12-.07c-.57 1.49-3.02 3.26-1.34.37l-.11-.08c-1.15.78-.81 2.72.55 1.25-.17.28-.32.62-.47.91-3.38 1.84-.91 3.57.35 0 .49-.28.88-.57 1.2-.97-.21.95 1.15.97 1.56.04.19.03.35-.02.49-.14-.18.77.32 1.32 1.33.16-.37 1.3 1.06.24 1.23-.34l-.1-.08Zm-6.38 2c-1.4 2.7-1.85.59.19-.41-.06.14-.12.28-.19.41m3.37-1.77c-.27-.21-.39-.93 0-1.06.36.18.13.77 0 1.06m16.29 52.51c2.53-.25 1.14-2.65-.19-.38h-.01c-.19.19-.63 1.12-.88.74.07-.45.49-.82.48-1.29-.05-.62-.77-.26-.97.08.1-.73-.71-.67-1-.15-.31-.84-1.02.17-1.24.6l.1.08c1.41-2.02.88.07.1.89l.18.12c.85-1.37 2.6-3.49.97-.23l.23.12c.4-.51.71-1.66 1.42-1.67.1.53-.54.9-.53 1.42.18.7.78.09 1.09-.37-.17 1.29 1.75.79 2.13-.27l-.09-.08c-.31.74-1.77 1.62-1.76.39Zm.23-.55c1.33-1.68 1.2.38-.21.43.05-.15.12-.3.21-.43m6.35.36.02.09c1.98.06.29 2.16-.96.49.47-.29.9-.86.71-1.42l-.14.04c.17.51-.23 1.01-.66 1.26-.3-.39-.53-.87-.64-1.34 3.38-.94-.39-2.76-.31-.03-2.08.59-.86 2.46.81 1.61.52.74 2.64 1.03 2.23-.33-.21-.35-.69-.46-1.07-.38Zm-1.62-1.66c1.05-1.49 2.07.26-.07.66-.04-.22 0-.48.07-.66m0 2.37c-1.31.35-1.55-1.13-.33-1.47.1.49.35.98.68 1.35-.11.05-.23.09-.35.12m11.44-.91c-1.53 2.01-.84.16-.18-.84l-.2-.1c-.7 1.68-3.03 3-1.21.17l-.12-.08c-.34.23-.56.54-.69.85-.11.18-.28.3-.49.27.87-1.96-1.35-1.24-.19.07-1.37 1.66-1.51-.4-.34-1.11l-.09-.11c-.37.18-.71.51-.89.88h-.01c-.31.43-.74.83-1.22 1.1.33-.7.71-1.49 1.04-2.18l-.12-.07c-.57 1.49-3.02 3.26-1.34.37l-.11-.08c-1.15.78-.81 2.72.55 1.25-.17.28-.32.62-.47.91-3.38 1.84-.91 3.57.35 0 .49-.28.88-.57 1.2-.97-.21.95 1.15.97 1.56.04.19.03.35-.02.49-.14-.18.77.32 1.32 1.33.16-.37 1.3 1.06.24 1.23-.34l-.1-.08Zm-6.38 2c-1.4 2.7-1.85.59.19-.41-.06.14-.12.28-.19.41m3.37-1.77c-.27-.21-.39-.93 0-1.06.36.18.13.77 0 1.06m54.34-1.72c-.42 1-2.38 2.18-2.38.53 3.42-.35 1.54-3.58-.26-.52h-.01c-.26.26-.85 1.52-1.19 1.01.09-.6.66-1.11.64-1.75-.06-.83-1.03-.34-1.31.11.14-.99-.95-.91-1.35-.2-.42-1.13-1.37.23-1.68.82l.14.1c1.9-2.73 1.18.09.13 1.2l.25.17c1.15-1.84 3.51-4.71 1.3-.31l.31.16c.54-.69.96-2.25 1.91-2.26.14.71-.73 1.21-.71 1.92.24.95 1.05.12 1.46-.51-.23 1.75 2.36 1.07 2.88-.36zm-2.07-.22c1.8-2.26 1.62.52-.28.59.07-.2.17-.4.28-.59m5.92-.73c-2.01.58-1.73 2.04-.57 2.39.06-.06.13-.12.2-.19-.97-.26-.93-1.64.4-2.01.09.41.25.82.48 1.19.1-.1.2-.2.3-.29q-.27-.51-.39-1.05c4.56-1.27-.53-3.73-.42-.04m.39-.13c-.05-.29-.01-.65.09-.89 1.42-2.01 2.8.36-.09.89m-40.3 2.43c1.82-.18.82-1.91-.14-.27-.14.14-.45.81-.63.54.05-.32.35-.59.34-.93-.03-.45-.55-.18-.7.06.07-.53-.51-.48-.72-.11-.23-.6-.74.12-.9.43l.07.05c1.02-1.46.63.05.07.64l.13.09c.61-.99 1.87-2.52.7-.17l.16.09c.29-.37.51-1.2 1.02-1.21.07.38-.39.65-.38 1.03.13.51.56.06.78-.27-.12.93 1.26.57 1.53-.2l-.07-.06c-.22.54-1.27 1.16-1.27.28Zm.17-.4c.96-1.21.86.27-.15.31.04-.11.09-.22.15-.31m4.58.27.02.07c1.43.04.21 1.56-.69.35.34-.21.65-.62.51-1.02l-.1.03c.13.37-.17.73-.47.91-.22-.28-.39-.62-.46-.97 2.43-.68-.28-1.99-.22-.02-1.5.42-.62 1.77.59 1.16.38.53 1.9.74 1.61-.23-.15-.25-.5-.34-.77-.27Zm-1.17-1.19c.76-1.08 1.49.19-.05.47-.03-.16 0-.35.05-.47m0 1.71c-.95.25-1.12-.81-.24-1.06.07.35.25.7.49.97-.08.04-.16.07-.25.09m8.26-.67c-1.1 1.45-.61.11-.13-.61l-.14-.07c-.51 1.21-2.19 2.16-.87.13l-.09-.05c-.24.17-.4.39-.49.61-.08.13-.2.22-.36.19.63-1.41-.97-.9-.14.05-.99 1.2-1.09-.29-.25-.8l-.06-.08c-.27.13-.51.37-.64.64-.22.31-.53.6-.88.79.24-.51.51-1.08.75-1.57l-.09-.05c-.41 1.07-2.18 2.35-.96.27l-.08-.05c-.83.56-.58 1.96.4.9-.12.2-.23.45-.34.66-2.44 1.33-.66 2.58.25 0 .35-.2.64-.41.87-.7-.15.68.83.7 1.13.03.14.02.25-.02.35-.1-.13.55.23.95.96.12-.27.94.77.18.89-.25l-.07-.05Zm-4.6 1.44c-1.01 1.95-1.33.43.14-.3-.04.1-.09.2-.14.3m2.43-1.28c-.2-.16-.28-.67 0-.77.26.13.1.56 0 .77m-34.94 8.43c1.21-.12.54-1.26-.09-.18-.09.09-.3.54-.42.36.03-.21.23-.39.23-.62-.02-.3-.37-.12-.46.04.05-.35-.34-.32-.48-.07-.15-.4-.49.08-.59.29l.05.04c.67-.97.42.03.05.42l.09.06c.41-.65 1.24-1.67.46-.11l.11.06c.19-.24.34-.79.68-.8.05.25-.26.43-.25.68.09.33.37.04.52-.18-.08.62.83.38 1.02-.13l-.04-.04c-.15.35-.84.77-.84.19Zm.11-.26c.63-.8.57.18-.1.21.03-.07.06-.14.1-.21m3.03.17v.04c.96.03.15 1.03-.45.23.22-.14.43-.41.34-.68l-.06.02c.08.24-.11.48-.31.6-.15-.18-.26-.41-.31-.64 1.61-.45-.19-1.32-.15-.01-.99.28-.41 1.17.39.77.25.35 1.26.49 1.06-.16-.1-.17-.33-.22-.51-.18Zm-.77-.79c.5-.71.99.13-.03.31-.02-.1 0-.23.03-.31m0 1.13c-.63.17-.74-.54-.16-.7.05.23.17.47.33.65-.05.02-.11.04-.17.06Zm5.46-.44c-.73.96-.4.08-.09-.4l-.09-.05c-.34.8-1.45 1.43-.58.08l-.06-.04c-.16.11-.27.26-.33.4-.05.09-.13.14-.24.13.41-.93-.65-.59-.09.03-.65.79-.72-.19-.16-.53l-.04-.05a.9.9 0 0 0-.42.42c-.15.21-.35.4-.58.52.16-.34.34-.71.5-1.04l-.06-.03c-.27.71-1.44 1.56-.64.18l-.05-.04c-.55.37-.39 1.3.26.6-.08.13-.15.3-.23.44-1.61.88-.44 1.71.17 0 .23-.14.42-.27.58-.46-.1.45.55.46.75.02.09.02.17-.01.23-.07-.08.37.15.63.64.08-.18.62.51.12.59-.16l-.05-.04Zm-3.04.95c-.67 1.29-.88.28.09-.2-.03.06-.06.13-.09.2m1.61-.84c-.13-.1-.19-.44 0-.51.17.09.06.37 0 .51m63.36-38.79c1.82-.18.82-1.91-.14-.27-.14.14-.45.81-.63.54.05-.32.35-.59.34-.93-.03-.45-.55-.18-.7.06.07-.53-.51-.48-.72-.11-.23-.6-.74.12-.9.43l.07.05c1.02-1.46.63.05.07.64l.13.09c.61-.99 1.87-2.52.7-.17l.16.09c.29-.37.51-1.2 1.02-1.21.07.38-.39.65-.38 1.03.13.51.56.06.78-.27-.12.93 1.26.57 1.53-.2l-.07-.06c-.22.54-1.27 1.16-1.27.28Zm.17-.4c.96-1.21.86.27-.15.31.04-.11.09-.22.15-.31m4.57.27.02.07c1.43.04.21 1.56-.69.35.34-.21.65-.62.51-1.02l-.1.03c.13.37-.17.73-.47.91-.22-.28-.39-.62-.46-.97 2.43-.68-.28-1.99-.22-.02-1.5.42-.62 1.77.59 1.16.38.53 1.9.74 1.61-.23-.15-.25-.5-.34-.77-.27Zm-1.17-1.19c.76-1.08 1.49.19-.05.47-.03-.16 0-.35.05-.47m0 1.71c-.95.25-1.12-.81-.24-1.06.07.35.25.7.49.97-.08.04-.16.07-.25.09m8.26-.67c-1.1 1.45-.61.11-.13-.61l-.14-.07c-.51 1.21-2.19 2.16-.87.13l-.09-.05c-.24.17-.4.39-.49.61-.08.13-.2.22-.36.19.63-1.41-.97-.9-.14.05-.99 1.2-1.09-.29-.25-.8l-.06-.08c-.27.13-.51.37-.64.64-.22.31-.53.6-.88.79.24-.51.51-1.08.75-1.57l-.09-.05c-.41 1.07-2.18 2.35-.96.27l-.08-.05c-.83.56-.58 1.96.4.9-.12.2-.23.45-.34.66-2.44 1.33-.66 2.58.25 0 .35-.2.64-.41.87-.7-.15.68.83.7 1.13.03.14.02.25-.02.35-.1-.13.55.23.95.96.12-.27.94.77.18.89-.25l-.07-.05Zm-4.6 1.44c-1.01 1.95-1.33.43.14-.3-.04.1-.09.2-.14.3m2.43-1.28c-.2-.16-.28-.67 0-.77.26.13.1.56 0 .77m4.25-15.84c1.82-.18.82-1.91-.14-.27-.14.14-.45.81-.63.54.05-.32.35-.59.34-.93-.03-.45-.55-.18-.7.06.07-.53-.51-.48-.72-.11-.23-.6-.74.12-.9.43l.07.05c1.02-1.46.63.05.07.64l.13.09c.61-.99 1.87-2.52.7-.17l.16.09c.29-.37.51-1.2 1.02-1.21.07.38-.39.65-.38 1.03.13.51.56.06.78-.27-.12.93 1.26.57 1.53-.2l-.07-.06c-.22.54-1.27 1.16-1.27.28Zm.17-.4c.96-1.21.86.27-.15.31.04-.11.09-.22.15-.31m4.57.27.02.07c1.43.04.21 1.56-.69.35.34-.21.65-.62.51-1.02l-.1.03c.13.37-.17.73-.47.91-.22-.28-.39-.62-.46-.97 2.43-.68-.28-1.99-.22-.02-1.5.42-.62 1.77.59 1.16.38.53 1.9.74 1.61-.23-.15-.25-.5-.34-.77-.27Zm-1.17-1.19c.76-1.08 1.49.19-.05.47-.03-.16 0-.35.05-.47m0 1.71c-.95.25-1.12-.81-.24-1.06.07.35.25.7.49.97-.08.04-.16.07-.25.09m8.26-.67c-1.1 1.45-.61.11-.13-.61l-.14-.07c-.51 1.21-2.19 2.16-.87.13l-.09-.05c-.24.17-.4.39-.49.61-.08.13-.2.22-.36.19.63-1.41-.97-.9-.14.05-.99 1.2-1.09-.29-.25-.8l-.06-.08c-.27.13-.51.37-.64.64-.22.31-.53.6-.88.79.24-.51.51-1.08.75-1.57l-.09-.05c-.41 1.07-2.18 2.35-.96.27l-.08-.05c-.83.56-.58 1.96.4.9-.12.2-.23.45-.34.66-2.44 1.33-.66 2.58.25 0 .35-.2.64-.41.87-.7-.15.68.83.7 1.13.03.14.02.25-.02.35-.1-.13.55.23.95.96.12-.27.94.77.18.89-.25l-.07-.05Zm-4.6 1.44c-1.01 1.95-1.33.43.14-.3-.04.1-.09.2-.14.3m2.43-1.28c-.2-.16-.28-.67 0-.77.26.13.1.56 0 .77m-13.69-14.44c1.56-.16.7-1.63-.12-.23-.12.12-.39.69-.54.46.04-.27.3-.5.3-.8-.03-.38-.48-.16-.6.05.06-.45-.44-.41-.62-.09-.19-.52-.63.11-.77.37l.06.05c.87-1.25.54.04.06.55l.11.08c.53-.84 1.61-2.16.6-.14l.14.07c.24-.32.44-1.03.88-1.03.06.33-.34.55-.33.88.11.43.48.05.67-.23-.11.8 1.08.49 1.31-.17l-.06-.05c-.19.46-1.09 1-1.09.24Zm.14-.34c.82-1.04.74.24-.13.27.03-.09.08-.18.13-.27m3.92.22v.06c1.24.04.19 1.33-.58.3.29-.18.56-.53.44-.88l-.08.02c.11.31-.14.63-.41.78-.19-.24-.33-.53-.4-.83 2.09-.58-.24-1.7-.19-.02-1.28.36-.53 1.52.5.99.32.46 1.63.63 1.38-.2-.13-.22-.43-.29-.66-.23Zm-1-1.02c.65-.92 1.28.16-.04.41-.02-.13 0-.3.04-.41m0 1.46c-.81.22-.96-.7-.2-.91.06.3.22.6.42.84-.07.03-.14.06-.22.07m7.07-.56c-.94 1.24-.52.1-.11-.52l-.12-.06c-.43 1.04-1.87 1.85-.74.11l-.07-.05c-.21.14-.35.34-.42.52-.06.11-.17.19-.31.17.54-1.21-.83-.77-.12.04-.84 1.03-.93-.25-.21-.68l-.05-.07c-.23.11-.44.32-.55.55-.19.27-.45.51-.75.68.2-.43.44-.92.64-1.34l-.08-.04c-.35.92-1.86 2.01-.83.23l-.07-.05c-.71.48-.5 1.68.34.77-.1.17-.2.38-.29.56-2.09 1.14-.56 2.21.21 0 .3-.17.54-.35.74-.6-.13.59.71.6.97.03.12.02.22-.02.3-.09-.11.47.2.82.82.1-.23.8.66.15.76-.21zm-3.94 1.23c-.87 1.67-1.14.37.12-.25-.04.08-.08.17-.12.25m2.08-1.09c-.17-.13-.24-.57 0-.66.22.11.08.48 0 .66m-5.63-25.49c1.56-.16.7-1.63-.12-.23-.12.12-.39.69-.54.46.04-.27.3-.5.3-.8-.03-.38-.48-.16-.6.05.06-.45-.44-.41-.62-.09-.19-.52-.63.11-.77.37l.06.05c.87-1.25.54.04.06.55l.11.08c.53-.84 1.61-2.16.6-.14l.14.07c.24-.32.44-1.03.88-1.03.06.33-.34.55-.33.88.11.43.48.05.67-.23-.11.8 1.08.49 1.31-.17l-.06-.05c-.19.46-1.09 1-1.09.24Zm.14-.34c.82-1.04.74.24-.13.27.03-.09.08-.18.13-.27m3.93.22v.06c1.24.04.19 1.33-.58.3.29-.18.56-.53.44-.88l-.08.02c.11.31-.14.63-.41.78-.19-.24-.33-.53-.4-.83 2.09-.58-.24-1.7-.19-.02-1.28.36-.53 1.52.5.99.32.46 1.63.63 1.38-.2-.13-.22-.43-.29-.66-.23Zm-1-1.02c.65-.92 1.28.16-.04.41-.02-.13 0-.3.04-.41m0 1.46c-.81.22-.96-.7-.2-.91.06.3.22.6.42.84-.07.03-.14.06-.22.07m7.07-.56c-.94 1.24-.52.1-.11-.52l-.12-.06c-.43 1.04-1.87 1.85-.74.11l-.07-.05c-.21.14-.35.34-.42.52-.06.11-.17.19-.31.17.54-1.21-.83-.77-.12.04-.84 1.03-.93-.25-.21-.68l-.05-.07c-.23.11-.44.32-.55.55-.19.27-.45.51-.75.68.2-.43.44-.92.64-1.34l-.08-.04c-.35.92-1.86 2.01-.83.23l-.07-.05c-.71.48-.5 1.68.34.77-.1.17-.2.38-.29.56-2.09 1.14-.56 2.21.21 0 .3-.17.54-.35.74-.6-.13.59.71.6.97.03.12.02.22-.02.3-.09-.11.47.2.82.82.1-.23.8.66.15.76-.21zm-3.94 1.23c-.87 1.67-1.14.37.12-.25-.04.08-.08.17-.12.25m2.08-1.09c-.17-.13-.24-.57 0-.66.22.11.08.48 0 .66m-19.81-6.66c2.52-.25 1.13-2.63-.19-.38h-.01c-.19.19-.62 1.12-.87.74.07-.44.49-.81.48-1.29-.05-.62-.77-.25-.97.08.1-.73-.7-.67-.99-.15-.31-.83-1.01.17-1.24.6l.1.08c1.4-2.01.87.06.1.89l.18.12c.85-1.36 2.58-3.47.96-.23l.23.12c.39-.51.71-1.65 1.41-1.66.1.53-.54.89-.53 1.41.18.7.78.09 1.08-.37-.17 1.28 1.74.79 2.11-.27l-.09-.08c-.31.74-1.76 1.61-1.75.39Zm.23-.55c1.32-1.67 1.19.38-.21.43.05-.15.12-.3.21-.43m6.32.36.02.09c1.97.06.28 2.15-.95.49.46-.29.9-.85.7-1.41l-.13.04c.17.51-.23 1.01-.65 1.26-.3-.39-.53-.86-.64-1.33 3.36-.94-.39-2.74-.31-.03-2.06.58-.86 2.45.81 1.6.52.74 2.62 1.02 2.21-.32-.21-.35-.69-.46-1.06-.38Zm-1.61-1.65c1.05-1.48 2.06.26-.06.65-.04-.22 0-.48.06-.65m0 2.35c-1.3.35-1.54-1.12-.33-1.46.1.49.35.97.68 1.34-.11.05-.23.09-.35.12m11.38-.9c-1.52 2-.84.16-.18-.84l-.19-.1c-.7 1.67-3.02 2.98-1.2.17l-.12-.08c-.34.23-.56.54-.68.84-.1.18-.28.3-.49.27.86-1.95-1.34-1.24-.19.07-1.36 1.65-1.5-.4-.34-1.1l-.09-.11c-.37.18-.7.51-.89.88h-.01c-.31.43-.73.83-1.21 1.09.33-.7.71-1.49 1.04-2.17l-.12-.06c-.57 1.48-3 3.24-1.33.37l-.11-.08c-1.15.78-.81 2.7.55 1.24-.17.28-.32.62-.47.91-3.36 1.83-.91 3.55.35 0 .49-.28.88-.57 1.2-.96-.2.94 1.15.97 1.56.04.19.03.35-.02.49-.14-.18.76.32 1.31 1.32.16-.37 1.3 1.06.24 1.23-.34l-.1-.08Zm-6.34 1.99c-1.39 2.69-1.84.59.19-.41-.06.13-.12.28-.19.41m3.35-1.76c-.27-.21-.39-.92 0-1.06.36.18.13.77 0 1.06m-36.03-.08c1.41-.14.63-1.47-.11-.21-.11.11-.35.63-.49.41.04-.25.27-.45.27-.72-.03-.34-.43-.14-.54.05.06-.41-.4-.37-.56-.08-.18-.47-.57.1-.69.34l.05.04c.78-1.13.49.04.05.5l.1.07c.48-.76 1.45-1.94.54-.13l.13.07c.22-.28.4-.93.79-.93.06.3-.3.5-.3.79.1.39.43.05.61-.21-.1.72.97.44 1.19-.15l-.05-.05c-.17.41-.98.9-.98.22Zm.13-.31c.74-.93.67.21-.12.24.03-.08.07-.17.12-.24m3.54.2v.05c1.12.03.17 1.2-.52.27.26-.16.5-.48.39-.79l-.08.02c.1.28-.13.56-.37.71-.17-.22-.3-.48-.36-.75 1.88-.52-.22-1.54-.17-.02-1.16.33-.48 1.37.45.9.29.41 1.47.57 1.24-.18-.12-.2-.38-.26-.6-.21Zm-.9-.92c.59-.83 1.15.15-.04.37-.02-.12 0-.27.04-.37m0 1.32c-.73.19-.86-.63-.18-.82.06.27.2.55.38.75-.06.03-.13.05-.2.07m6.38-.51c-.85 1.12-.47.09-.1-.47l-.11-.05c-.39.94-1.69 1.67-.67.1l-.07-.04c-.19.13-.31.3-.38.47-.06.1-.16.17-.28.15.48-1.09-.75-.69-.11.04-.76.93-.84-.23-.19-.62l-.05-.06c-.21.1-.39.29-.5.49-.17.24-.41.46-.68.61.18-.39.4-.83.58-1.21l-.07-.04c-.32.83-1.68 1.82-.74.21l-.06-.04c-.64.44-.45 1.51.31.7-.09.15-.18.35-.26.51-1.88 1.03-.51 1.99.19 0 .27-.16.49-.32.67-.54-.11.53.64.54.87.02.1.02.2-.01.27-.08-.1.43.18.74.74.09-.21.73.59.14.69-.19l-.05-.04Zm-3.56 1.11c-.78 1.51-1.03.33.11-.23-.03.08-.07.15-.11.23m1.88-.99c-.15-.12-.22-.52 0-.59.2.1.07.43 0 .59m-20.8-6.04c-.12-.2-.39-.26-.6-.22v.06c1.12.03.17 1.2-.52.27.26-.16.51-.48.39-.79l-.07.02c.1.28-.13.56-.37.7-.17-.21-.3-.48-.35-.74.92-.26.89-.63.62-.76-.02 0-.03.01-.04.02.2.1.14.53-.6.67a.8.8 0 0 1 .01-.27c-.05.03-.11.07-.16.11-.01.06-.01.13-.01.21-1.15.33-.48 1.37.46.9.29.41 1.47.57 1.24-.18m-1.5.18c-.73.2-.86-.63-.19-.82.06.27.2.55.39.75-.06.03-.13.06-.2.07m6.38-.51c-.85 1.12-.47.09-.1-.47l-.11-.05c-.39.94-1.69 1.67-.67.1l-.07-.05c-.19.13-.31.31-.38.47-.05.09-.14.15-.24.15h-.04c.48-1.09-.75-.69-.11.04-.76.93-.84-.22-.19-.61l-.05-.07c-.2.1-.39.29-.49.5h-.01c-.17.24-.41.46-.68.61.19-.4.4-.84.59-1.22l-.07-.03c-.32.83-1.69 1.81-.75.21l-.06-.05c-.65.44-.45 1.52.31.7-.1.15-.18.35-.27.51-1.88 1.03-.51 1.99.2 0 .27-.16.49-.32.67-.54-.12.53.64.54.87.02.1.02.2-.01.27-.07-.1.42.18.73.74.09-.2.72.6.13.69-.2zm-3.56 1.12c-.78 1.5-1.03.33.11-.23-.04.07-.07.15-.11.23m1.88-.99c-.15-.12-.22-.52 0-.59.2.1.07.43 0 .59m21.07-6.14c2.09-.21.94-2.18-.16-.31-.16.16-.52.93-.73.61.06-.37.4-.67.39-1.07-.04-.51-.63-.21-.8.07.08-.61-.58-.55-.82-.12-.26-.69-.84.14-1.03.5l.08.06c1.16-1.67.72.05.08.73l.15.1c.7-1.13 2.14-2.88.8-.19l.19.1c.33-.42.59-1.37 1.17-1.38.08.44-.45.74-.44 1.17.15.58.64.07.9-.31-.14 1.06 1.44.65 1.75-.22l-.08-.07c-.26.61-1.46 1.33-1.46.32Zm.19-.45c1.09-1.38.99.31-.17.36.04-.13.1-.25.17-.36m5.24.29.02.08c1.64.05.24 1.78-.79.4.38-.24.75-.71.58-1.17l-.11.03c.14.42-.19.83-.54 1.04-.25-.32-.44-.71-.53-1.11 2.78-.78-.32-2.28-.26-.02-1.71.48-.71 2.03.67 1.33.43.61 2.17.85 1.84-.27-.17-.29-.57-.38-.88-.31m-1.33-1.37c.87-1.23 1.71.22-.05.54-.03-.18 0-.4.05-.54m0 1.95c-1.08.29-1.28-.93-.27-1.21.08.4.29.81.56 1.11-.09.04-.19.08-.29.1m9.43-.75c-1.26 1.66-.69.13-.15-.69l-.16-.08c-.58 1.39-2.5 2.47-.99.14l-.1-.06c-.28.19-.46.45-.57.7-.09.15-.23.25-.41.22.72-1.61-1.11-1.03-.16.06-1.13 1.37-1.25-.33-.28-.91l-.07-.09c-.3.15-.58.42-.73.73-.25.36-.61.69-1 .9.27-.58.59-1.23.86-1.8l-.1-.05c-.47 1.23-2.49 2.69-1.1.31l-.09-.06c-.95.64-.67 2.24.46 1.03-.14.23-.26.51-.39.75-2.79 1.52-.75 2.95.29 0 .4-.23.73-.47.99-.8-.17.78.95.8 1.29.04.15.03.29-.02.4-.11-.15.63.27 1.09 1.1.13-.31 1.07.88.2 1.02-.28l-.08-.06Zm-5.26 1.65c-1.15 2.23-1.53.49.16-.34-.05.11-.1.23-.16.34m2.78-1.46c-.22-.18-.32-.77 0-.88.29.15.11.63 0 .88M170 85.12c2.53-.25 1.14-2.64-.19-.38h-.01c-.19.19-.63 1.12-.88.74.07-.44.49-.81.48-1.29-.05-.62-.77-.26-.97.08.1-.73-.71-.67-1-.15-.31-.83-1.02.17-1.24.6l.1.08c1.41-2.02.88.06.1.89l.18.12c.85-1.36 2.59-3.48.96-.23l.23.12c.4-.51.71-1.66 1.41-1.67.1.53-.54.9-.53 1.42.18.7.78.09 1.09-.37-.17 1.29 1.74.79 2.12-.27l-.09-.08c-.31.74-1.76 1.61-1.76.39m.23-.55c1.32-1.67 1.19.38-.21.43.05-.15.12-.3.21-.43m6.34.36.02.09c1.98.06.28 2.15-.95.49.47-.29.9-.85.7-1.41l-.14.04c.17.51-.23 1.01-.66 1.26-.3-.39-.53-.86-.64-1.34 3.37-.94-.39-2.75-.31-.03-2.07.59-.86 2.46.81 1.6.52.74 2.63 1.02 2.22-.33-.21-.35-.69-.46-1.07-.38Zm-1.61-1.65c1.05-1.49 2.07.26-.07.66-.04-.22 0-.48.07-.66m0 2.36c-1.31.35-1.54-1.13-.33-1.47.1.49.35.98.68 1.35-.11.05-.23.09-.35.12m11.41-.91c-1.52 2-.84.16-.18-.84l-.2-.1c-.7 1.68-3.03 2.99-1.2.17l-.12-.08c-.34.23-.56.54-.68.84-.11.18-.28.3-.49.27.87-1.95-1.35-1.24-.19.07-1.36 1.66-1.51-.4-.34-1.11l-.09-.11c-.37.18-.71.51-.89.88h-.01c-.31.43-.73.83-1.21 1.09.33-.7.71-1.49 1.04-2.17l-.12-.07c-.57 1.49-3.01 3.25-1.33.37l-.11-.08c-1.15.78-.81 2.71.55 1.25-.17.28-.32.62-.47.91-3.37 1.84-.91 3.57.35 0 .49-.28.88-.57 1.2-.96-.21.95 1.15.97 1.56.04.19.03.35-.02.49-.14-.18.76.32 1.32 1.33.16-.37 1.3 1.06.24 1.23-.34l-.1-.08ZM180 86.72c-1.4 2.7-1.85.59.19-.41-.06.14-.12.28-.19.41m3.37-1.77c-.27-.21-.39-.93 0-1.06.36.18.13.77 0 1.06m-59.88 89.66c1.82-.18.82-1.91-.14-.27-.14.14-.45.81-.63.54.05-.32.35-.59.34-.93-.03-.45-.55-.18-.7.06.07-.53-.51-.48-.72-.11-.23-.6-.74.12-.9.43l.07.05c1.02-1.46.63.05.07.64l.13.09c.61-.99 1.87-2.52.7-.17l.16.09c.29-.37.51-1.2 1.02-1.21.07.38-.39.65-.38 1.03.13.51.56.06.78-.27-.12.93 1.26.57 1.53-.2l-.07-.06c-.22.54-1.27 1.16-1.27.28Zm.17-.4c.96-1.21.86.27-.15.31.04-.11.09-.22.15-.31m4.58.26.02.07c1.43.04.21 1.56-.69.35.34-.21.65-.62.51-1.02l-.1.03c.13.37-.17.73-.47.91-.22-.28-.39-.62-.46-.97 2.43-.68-.28-1.99-.22-.02-1.5.42-.62 1.77.59 1.16.38.53 1.9.74 1.61-.23-.15-.25-.5-.34-.77-.27Zm-1.17-1.19c.76-1.08 1.49.19-.05.47-.03-.16 0-.35.05-.47m0 1.71c-.95.25-1.12-.81-.24-1.06.07.35.25.7.49.97-.08.04-.16.07-.25.09m8.25-.66c-1.1 1.45-.61.11-.13-.61l-.14-.07c-.51 1.21-2.19 2.16-.87.13l-.09-.05c-.24.17-.4.39-.49.61-.08.13-.2.22-.36.19.63-1.41-.97-.9-.14.05-.99 1.2-1.09-.29-.25-.8l-.06-.08c-.27.13-.51.37-.64.64-.22.31-.53.6-.88.79.24-.51.51-1.08.75-1.57l-.09-.05c-.41 1.07-2.18 2.35-.96.27l-.08-.05c-.83.56-.58 1.96.4.9-.12.2-.23.45-.34.66-2.44 1.33-.66 2.58.25 0 .35-.2.64-.41.87-.7-.15.68.83.7 1.13.03.14.02.25-.02.35-.1-.13.55.23.95.96.12-.27.94.77.18.89-.25l-.07-.05Zm-4.6 1.44c-1.01 1.95-1.33.43.14-.3-.04.1-.09.2-.14.3m2.43-1.28c-.2-.16-.28-.67 0-.77.26.13.1.56 0 .77m27.27-114.18c.19-.76-.3-1.62-1.13-1.72-.44-.04-.88.18-1.16.56-.16-1.6-2.56-1.44-2.69.05.19 1.21 1.14 2.47 1.74 3.61 1.19-1.01 2.55-1.12 3.25-2.5Zm-2.4-.71c.52-1.53 2.66-.78 2.27.68-.64 1.28-1.95 1.41-3.07 2.35-.56-1.07-1.45-2.29-1.65-3.41.22-1.62 2.71-1.31 2.45.39Zm-19.16 5.33c.19-.76-.3-1.62-1.13-1.72-.44-.04-.88.18-1.16.56-.16-1.6-2.56-1.44-2.69.05.19 1.21 1.14 2.47 1.74 3.61 1.19-1.01 2.55-1.12 3.25-2.5Zm-2.4-.71c.52-1.53 2.66-.78 2.27.68-.64 1.28-1.95 1.41-3.07 2.35-.56-1.07-1.45-2.29-1.65-3.41.22-1.62 2.71-1.31 2.45.39Zm-24.44 1.67c.19-.76-.3-1.62-1.13-1.72-.44-.04-.88.18-1.16.56-.16-1.6-2.56-1.44-2.69.05.19 1.21 1.14 2.47 1.74 3.61 1.19-1.01 2.55-1.12 3.25-2.5Zm-2.4-.71c.52-1.53 2.66-.78 2.27.68-.64 1.28-1.95 1.41-3.07 2.35-.56-1.07-1.45-2.29-1.65-3.41.22-1.62 2.71-1.31 2.45.39Zm-31.65 5.19c.19-.76-.3-1.62-1.13-1.72-.44-.04-.88.18-1.16.56-.16-1.6-2.56-1.44-2.69.05.19 1.21 1.14 2.47 1.74 3.61 1.19-1.01 2.55-1.12 3.25-2.5Zm-2.4-.71c.52-1.53 2.66-.78 2.27.68-.64 1.28-1.95 1.41-3.07 2.35-.56-1.07-1.45-2.29-1.65-3.41.22-1.62 2.71-1.31 2.45.39ZM57 76.87c.12-.46-.18-.98-.69-1.04a.8.8 0 0 0-.7.34c-.09-.97-1.55-.87-1.63.03.12.74.69 1.5 1.05 2.19.72-.61 1.55-.68 1.97-1.52m-1.46-.43c.31-.93 1.62-.47 1.38.41-.39.78-1.19.85-1.86 1.42-.34-.65-.88-1.39-1-2.07.13-.98 1.64-.79 1.49.23Zm3.93 15.03c.19-.76-.3-1.62-1.13-1.72-.44-.04-.88.18-1.16.56-.16-1.6-2.56-1.44-2.69.05.19 1.21 1.14 2.47 1.74 3.61 1.19-1.01 2.55-1.12 3.25-2.5Zm-2.4-.71c.52-1.53 2.66-.78 2.27.68-.64 1.28-1.95 1.41-3.07 2.35-.56-1.07-1.45-2.29-1.65-3.41.22-1.62 2.71-1.31 2.45.39Zm14.61 11.94c.1-.38-.15-.82-.57-.87a.68.68 0 0 0-.59.28c-.08-.81-1.29-.73-1.36.03.1.61.58 1.25.88 1.83.6-.51 1.29-.57 1.64-1.27m-1.21-.36c.26-.77 1.35-.39 1.15.34-.33.65-.99.71-1.55 1.19-.28-.54-.73-1.16-.83-1.72.11-.82 1.37-.66 1.24.2Zm4.16-15.75c.12-.46-.19-.99-.69-1.05a.82.82 0 0 0-.71.34c-.09-.98-1.56-.88-1.64.03.12.74.7 1.51 1.06 2.21.72-.62 1.56-.68 1.98-1.53m-1.47-.44c.32-.93 1.63-.48 1.39.41-.39.78-1.19.86-1.88 1.43-.34-.66-.88-1.4-1.01-2.08.13-.99 1.65-.8 1.5.24m-2.71 30.04c.19-.74-.29-1.57-1.1-1.67-.43-.04-.86.17-1.13.54-.15-1.55-2.48-1.4-2.61.05.19 1.18 1.11 2.4 1.69 3.51 1.15-.98 2.48-1.09 3.15-2.43m-2.33-.69c.5-1.49 2.59-.76 2.2.66-.63 1.25-1.9 1.37-2.98 2.28-.54-1.04-1.41-2.22-1.6-3.31.21-1.57 2.63-1.27 2.38.38Zm63.49 51.02c.12-.46-.19-.99-.69-1.05a.82.82 0 0 0-.71.34c-.09-.98-1.56-.88-1.64.03.12.74.7 1.51 1.06 2.21.72-.62 1.56-.68 1.98-1.53m-1.47-.44c.32-.93 1.63-.48 1.39.41-.39.78-1.19.86-1.88 1.43-.34-.66-.88-1.4-1.01-2.08.13-.99 1.65-.8 1.5.24m38.72-16.17c.19-.74-.3-1.58-1.11-1.69-.43-.04-.86.17-1.14.54-.15-1.57-2.5-1.41-2.64.05.19 1.19 1.12 2.42 1.7 3.54 1.16-.99 2.5-1.1 3.18-2.45Zm-2.35-.7c.51-1.5 2.61-.76 2.22.66-.63 1.26-1.91 1.38-3.01 2.3-.55-1.05-1.42-2.24-1.61-3.34.22-1.59 2.65-1.28 2.4.38m17.84-26.89c.12-.46-.18-.98-.68-1.04a.8.8 0 0 0-.7.34c-.09-.97-1.54-.87-1.62.03.12.73.69 1.49 1.05 2.18.72-.61 1.54-.68 1.96-1.51Zm-1.45-.43c.31-.92 1.61-.47 1.37.41-.39.77-1.18.85-1.85 1.42-.34-.65-.87-1.38-.99-2.06.13-.98 1.63-.79 1.48.23Zm-11.19-7.13c.12-.46-.18-.98-.68-1.04a.8.8 0 0 0-.7.34c-.09-.97-1.54-.87-1.62.03.12.73.69 1.49 1.05 2.18.72-.61 1.54-.68 1.96-1.51Zm-1.45-.43c.31-.92 1.61-.47 1.37.41-.39.77-1.18.85-1.85 1.42-.34-.65-.87-1.38-.99-2.06.13-.98 1.63-.79 1.48.23Zm21.95-8.73c.19-.76-.31-1.63-1.14-1.73-.44-.04-.89.18-1.17.56-.16-1.61-2.57-1.45-2.71.05.19 1.22 1.15 2.49 1.75 3.64 1.19-1.02 2.57-1.13 3.27-2.52m-2.42-.72c.52-1.54 2.68-.78 2.28.68-.65 1.29-1.96 1.42-3.09 2.36-.56-1.08-1.46-2.3-1.66-3.43.22-1.63 2.72-1.32 2.47.39m-2.19-26.67c.15-.6-.24-1.28-.9-1.36-.35-.03-.7.14-.91.44-.12-1.26-2.02-1.14-2.13.04.15.96.9 1.95 1.37 2.85.94-.8 2.01-.88 2.56-1.98Zm-1.9-.56c.41-1.21 2.1-.61 1.79.53-.51 1.01-1.54 1.11-2.43 1.85-.44-.85-1.14-1.8-1.3-2.69.17-1.28 2.14-1.03 1.93.3Zm-13.91 15.23c.1-.4-.16-.86-.6-.91a.7.7 0 0 0-.62.3c-.08-.85-1.36-.77-1.43.03.1.64.61 1.31.92 1.92.63-.54 1.36-.6 1.73-1.33Zm-1.28-.38c.28-.81 1.42-.41 1.21.36-.34.68-1.04.75-1.63 1.25-.3-.57-.77-1.22-.88-1.81.12-.86 1.44-.7 1.3.21Zm-61.72 81.69c.12-.46-.19-.99-.69-1.05a.82.82 0 0 0-.71.34c-.09-.98-1.56-.88-1.64.03.12.74.7 1.51 1.06 2.21.72-.62 1.56-.68 1.98-1.53m-1.47-.44c.32-.93 1.63-.48 1.39.41-.39.78-1.19.86-1.88 1.43-.34-.66-.88-1.4-1.01-2.08.13-.99 1.65-.8 1.5.24m16.72 10.39c.12-.46-.19-.99-.69-1.05a.82.82 0 0 0-.71.34c-.09-.98-1.56-.88-1.64.03.12.74.7 1.51 1.06 2.21.72-.62 1.56-.68 1.98-1.53m-1.47-.44c.32-.93 1.63-.48 1.39.41-.39.78-1.19.86-1.88 1.43-.34-.66-.88-1.4-1.01-2.08.13-.99 1.65-.8 1.5.24m-41.92-34.22c.12-.46-.19-.99-.69-1.05a.82.82 0 0 0-.71.34c-.09-.98-1.56-.88-1.64.03.12.74.7 1.51 1.06 2.21.72-.62 1.56-.68 1.98-1.53m-1.47-.44c.32-.93 1.63-.48 1.39.41-.39.78-1.19.86-1.88 1.43-.34-.66-.88-1.4-1.01-2.08.13-.99 1.65-.8 1.5.24m21.3-83.02c-1.2 1.62-1.41.43-.57-.76l-.1-.07c-.3.34-.47.62-.58.86-.09.15-.24.26-.43.23.77-1.72-1.19-1.1-.16.06-1.22 1.46-1.33-.37-.3-.98l-.08-.1c-.42.19-.67.49-.79.78-.32.64-1.28 1.28-1.08.05.6-.67 1.72-1.61 1.6-2.57-1.11.04-1.77 1.79-1.86 2.77.02.98.86.64 1.26.11-.04.63.55 1.04 1.36-.01.15.04.3-.01.42-.11-.27 1.07 1.51.74 1.62-.94-.31-.47-.48.45-.29.68Zm-2.63-2.09c-.31.72-.89 1.37-1.44 1.95-.1-.41 1.57-3.15 1.44-1.95m.84 2.31c-.25-.18-.35-.83 0-.94.31.16.11.68 0 .94m1.94-.56c-.02.08-.04.15-.07.22-.05-.17-.07-.46.07-.58.05.09.02.24 0 .36m2.02.37c-.27.65-1.55 1.42-1.55.34 1.87-.04 1.37-2.24-.05-.56-.89 1.57 1.22 1.51 1.68.29zm-1.35-.14c1.17-1.48 1.06.33-.19.38.05-.14.11-.26.19-.38m19.44-2.15-.03.09a.3.3 0 0 1-.03-.15c-.04-.03-.08-.07-.13-.1 0 .15.02.3.08.37-1.2 1.62-1.41.42-.57-.76l-.1-.07c-.3.34-.48.62-.58.86h-.01c-.09.15-.24.26-.43.23.77-1.72-1.19-1.1-.17.07-1.21 1.46-1.33-.37-.3-.98l-.07-.1c-.43.19-.68.48-.8.78-.19.37-.59.75-.86.75-.19 0-.3-.19-.22-.71.56-.63 1.56-1.48 1.61-2.37-.07-.06-.15-.12-.22-.17-.98.24-1.56 1.82-1.65 2.74.02.98.86.64 1.26.11-.04.63.55 1.05 1.36-.01.15.03.3-.02.42-.11-.24.95 1.12.8 1.51-.41a.4.4 0 0 0-.07-.06M118 61.88c-.31.73-.89 1.37-1.44 1.95-.1-.41 1.57-3.15 1.44-1.95m.83 2.31c-.24-.18-.34-.83 0-.93.32.16.11.68 0 .93m3.13.61c-.37.16-.71.1-.71-.46.05 0 .1 0 .15-.02-.03-.03-.06-.06-.1-.08h-.03s.01-.01.01-.02c-.06-.06-.13-.12-.2-.17-.33.83.34 1.07.97.83-.03-.02-.06-.05-.09-.08m.13.07c.28-.12.55-.33.71-.63-.24.21-.47.41-.71.63m-36.33 5.26c-.97 1.31-1.14.34-.46-.61l-.08-.06c-.24.28-.38.5-.47.7-.08.12-.2.21-.35.19.62-1.4-.96-.89-.13.05-.98 1.18-1.08-.3-.24-.79l-.06-.08c-.34.16-.54.39-.64.63-.26.52-1.03 1.04-.88.04.49-.54 1.39-1.3 1.3-2.08-.9.03-1.43 1.45-1.51 2.25.02.79.69.52 1.02.09-.03.51.45.85 1.1-.01.13.03.24-.01.34-.09-.21.86 1.23.6 1.31-.76-.25-.38-.39.36-.24.55Zm-2.13-1.69c-.25.59-.72 1.11-1.16 1.58-.08-.33 1.27-2.55 1.16-1.58m.68 1.87c-.2-.15-.28-.67 0-.76.25.13.09.55 0 .76m1.57-.45q-.015.09-.06.18c-.04-.14-.06-.37.06-.47.04.08.02.19 0 .29m1.64.29c-.22.52-1.26 1.15-1.26.28 1.52-.04 1.11-1.81-.04-.45-.72 1.27.99 1.22 1.36.23l-.07-.06Zm-1.09-.11c.95-1.2.85.27-.15.31.04-.11.09-.21.15-.31m-24.54-3.09c-.76.89-.9.23-.36-.42l-.07-.04c-.19.19-.3.34-.37.47-.06.08-.15.14-.28.13.49-.95-.76-.6-.1.04-.77.8-.85-.2-.19-.54l-.05-.06c-.27.11-.43.27-.5.43-.2.35-.81.7-.69.03.38-.37 1.09-.88 1.02-1.41-.7.02-1.12.98-1.18 1.52.01.54.54.35.8.06-.02.35.35.57.86 0q.15.03.27-.06c-.17.59.96.41 1.03-.51-.19-.26-.3.25-.19.37Zm-1.67-1.14c-.2.4-.56.75-.91 1.07-.07-.23 1-1.73.91-1.07m.53 1.27c-.16-.1-.22-.46 0-.51.2.09.07.37 0 .51m1.23-.31s-.03.08-.05.12c-.03-.09-.04-.25.05-.32.03.05.01.13 0 .2m1.29.19c-.17.36-.99.78-.99.19 1.19-.02.87-1.23-.03-.31-.56.86.77.83 1.07.16zm-.85-.08c.74-.81.67.18-.12.21a.7.7 0 0 1 .12-.21M84.1 53.81c-1.62 2.19-1.91.58-.76-1.02l-.14-.09c-.4.46-.64.84-.78 1.16-.13.2-.33.35-.59.31 1.04-2.33-1.61-1.49-.22.09-1.64 1.97-1.8-.5-.41-1.33l-.1-.14c-.57.26-.91.66-1.07 1.06-.43.86-1.73 1.73-1.46.06.82-.91 2.33-2.17 2.16-3.48-1.5.05-2.39 2.42-2.52 3.75.03 1.32 1.16.87 1.7.15-.05.86.75 1.41 1.84-.02.21.05.4-.02.57-.15-.36 1.44 2.05 1 2.19-1.27-.41-.63-.64.61-.39.91Zm-3.55-2.82c-.42.98-1.2 1.85-1.94 2.63-.14-.56 2.12-4.26 1.94-2.63m1.13 3.12c-.34-.24-.47-1.12 0-1.26.42.22.15.92 0 1.26m2.63-.76c-.02.1-.06.2-.1.3-.07-.23-.09-.62.1-.78.07.13.03.32 0 .48m2.73.49c-.37.87-2.1 1.92-2.1.46 2.53-.06 1.85-3.03-.06-.76-1.2 2.12 1.65 2.04 2.27.39zm-1.82-.19c1.58-2 1.43.45-.25.52.07-.19.15-.36.25-.52m-20.8 20.82c-1.2 1.62-1.41.43-.57-.76l-.1-.07c-.3.34-.47.62-.58.86-.09.15-.24.26-.43.23.77-1.72-1.19-1.1-.16.06-1.22 1.46-1.33-.37-.3-.98l-.08-.1c-.42.19-.67.49-.79.78-.32.64-1.28 1.28-1.08.05.6-.67 1.72-1.61 1.6-2.57-1.11.04-1.77 1.79-1.86 2.77.02.98.86.64 1.26.11-.04.63.55 1.04 1.36-.01.15.04.3-.01.42-.11-.27 1.07 1.51.74 1.62-.94-.31-.47-.48.45-.29.68Zm-2.63-2.09c-.31.72-.89 1.37-1.44 1.95-.1-.41 1.57-3.15 1.44-1.95m.84 2.31c-.25-.18-.35-.83 0-.94.31.16.11.68 0 .94m1.94-.56c-.02.08-.04.15-.07.22-.05-.17-.07-.46.07-.58.05.09.02.24 0 .36m2.03.37c-.27.65-1.55 1.42-1.55.34 1.87-.04 1.37-2.24-.05-.56-.89 1.57 1.22 1.51 1.68.29zm-1.35-.14c1.17-1.48 1.06.33-.19.38.05-.14.11-.26.19-.38m5.67 20.08c-1.2 1.62-1.41.43-.57-.76l-.1-.07c-.3.34-.47.62-.58.86-.09.15-.24.26-.43.23.77-1.72-1.19-1.1-.16.06-1.22 1.46-1.33-.37-.3-.98l-.08-.1c-.42.19-.67.49-.79.78-.32.64-1.28 1.28-1.08.05.6-.67 1.72-1.61 1.6-2.57-1.11.04-1.77 1.79-1.86 2.77.02.98.86.64 1.26.11-.04.63.55 1.04 1.36-.01.15.04.3-.01.42-.11-.27 1.07 1.51.74 1.62-.94-.31-.47-.48.45-.29.68Zm-2.63-2.09c-.31.72-.89 1.37-1.44 1.95-.1-.41 1.57-3.15 1.44-1.95m.84 2.31c-.25-.18-.35-.83 0-.94.31.16.11.68 0 .94m1.94-.56c-.02.08-.04.15-.07.22-.05-.17-.07-.46.07-.58.05.09.02.24 0 .36m2.02.37c-.27.65-1.55 1.42-1.55.34 1.87-.04 1.37-2.24-.05-.56-.89 1.57 1.22 1.51 1.68.29zm-1.35-.14c1.17-1.48 1.06.33-.19.38.05-.14.11-.26.19-.38m-11.17 23.23c-1.2 1.62-1.41.43-.57-.76l-.1-.07c-.3.34-.47.62-.58.86-.09.15-.24.26-.43.23.77-1.72-1.19-1.1-.16.06-1.22 1.46-1.33-.37-.3-.98l-.08-.1c-.42.19-.67.49-.79.78-.32.64-1.28 1.28-1.08.05.6-.67 1.72-1.61 1.6-2.57-1.11.04-1.77 1.79-1.86 2.77.02.98.86.64 1.26.11-.04.63.55 1.04 1.36-.01.15.04.3-.01.42-.11-.27 1.07 1.51.74 1.62-.94-.31-.47-.48.45-.29.68Zm-2.63-2.09c-.31.72-.89 1.37-1.44 1.95-.1-.41 1.57-3.15 1.44-1.95m.84 2.31c-.25-.18-.35-.83 0-.94.31.16.11.68 0 .94m1.94-.56c-.02.08-.04.15-.07.22-.05-.17-.07-.46.07-.58.05.09.02.24 0 .36m2.03.37c-.27.65-1.55 1.42-1.55.34 1.87-.04 1.37-2.24-.05-.56-.89 1.57 1.22 1.51 1.68.29zm-1.35-.14c1.17-1.48 1.06.33-.19.38.05-.14.11-.26.19-.38m14.5 5.46c-1.2 1.62-1.41.43-.57-.76l-.1-.07c-.3.34-.47.62-.58.86-.09.15-.24.26-.43.23.77-1.72-1.19-1.1-.16.06-1.22 1.46-1.33-.37-.3-.98l-.08-.1c-.42.19-.67.49-.79.78-.32.64-1.28 1.28-1.08.05.6-.67 1.72-1.61 1.6-2.57-1.11.04-1.77 1.79-1.86 2.77.02.98.86.64 1.26.11-.04.63.55 1.04 1.36-.01.15.04.3-.01.42-.11-.27 1.07 1.51.74 1.62-.94-.31-.47-.48.45-.29.68Zm-2.63-2.09c-.31.72-.89 1.37-1.44 1.95-.1-.41 1.57-3.15 1.44-1.95m.84 2.31c-.25-.18-.35-.83 0-.94.31.16.11.68 0 .94m1.94-.56c-.02.08-.04.15-.07.22-.05-.17-.07-.46.07-.58.05.09.02.24 0 .36m2.02.37c-.27.65-1.55 1.42-1.55.34 1.87-.04 1.37-2.24-.05-.56-.89 1.57 1.22 1.51 1.68.29zm-1.35-.14c1.17-1.48 1.06.33-.19.38.05-.14.11-.26.19-.38m-3.19 19.43c-1.2 1.62-1.41.43-.57-.76l-.1-.07c-.3.34-.47.62-.58.86-.09.15-.24.26-.43.23.77-1.72-1.19-1.1-.16.06-1.22 1.46-1.33-.37-.3-.98l-.08-.1c-.42.19-.67.49-.79.78-.32.64-1.28 1.28-1.08.05.6-.67 1.72-1.61 1.6-2.57-1.11.04-1.77 1.79-1.86 2.77.02.98.86.64 1.26.11-.04.63.55 1.04 1.36-.01.15.04.3-.01.42-.11-.27 1.07 1.51.74 1.62-.94-.31-.47-.48.45-.29.68Zm-2.63-2.09c-.31.72-.89 1.37-1.44 1.95-.1-.41 1.57-3.15 1.44-1.95m.84 2.31c-.25-.18-.35-.83 0-.94.31.16.11.68 0 .94m1.94-.56c-.02.08-.04.15-.07.22-.05-.17-.07-.46.07-.58.05.09.02.24 0 .36m2.03.36c-.27.65-1.55 1.42-1.55.34 1.87-.04 1.37-2.24-.05-.56-.89 1.57 1.22 1.51 1.68.29zm-1.35-.14c1.17-1.48 1.06.33-.19.38.05-.14.11-.26.19-.38m69.5 18.77c-.97 1.31-1.14.35-.46-.61l-.09-.06c-.24.28-.38.5-.47.7-.08.12-.2.21-.35.19.63-1.4-.97-.89-.13.05-.99 1.18-1.08-.3-.24-.8l-.06-.08c-.34.16-.54.4-.64.63-.26.52-1.04 1.04-.88.04.49-.54 1.4-1.3 1.3-2.09-.9.03-1.43 1.45-1.51 2.25.02.79.69.52 1.02.09-.03.51.45.85 1.1-.01.13.03.24-.01.34-.09-.22.87 1.23.6 1.32-.76-.25-.38-.39.37-.24.55Zm-2.13-1.69c-.25.59-.72 1.11-1.17 1.58-.08-.33 1.27-2.56 1.17-1.58m.68 1.87c-.2-.15-.28-.67 0-.76.25.13.09.55 0 .76m1.58-.46q-.015.09-.06.18c-.04-.14-.06-.37.06-.47.04.08.02.19 0 .29m1.64.3c-.22.52-1.26 1.15-1.26.28 1.52-.04 1.11-1.82-.04-.46-.72 1.27.99 1.23 1.36.23l-.07-.06Zm-1.09-.11c.95-1.2.86.27-.15.31.04-.11.09-.21.15-.31m-72.13-31.31c-2.23 3.01-2.62.79-1.05-1.41l-.19-.13c-.55.63-.88 1.16-1.07 1.6h-.01c-.17.28-.45.49-.8.43 1.43-3.2-2.21-2.05-.31.12-2.26 2.71-2.47-.68-.56-1.82l-.14-.19c-.78.36-1.25.91-1.47 1.45-.59 1.19-2.37 2.38-2.01.08 1.12-1.24 3.2-2.98 2.97-4.78-2.06.07-3.28 3.33-3.46 5.15.04 1.82 1.59 1.19 2.34.2-.07 1.18 1.03 1.94 2.53-.02.29.07.55-.03.78-.2-.49 1.98 2.81 1.37 3.01-1.74-.57-.87-.89.84-.54 1.25Zm-4.88-3.87c-.58 1.34-1.65 2.55-2.67 3.62-.19-.76 2.92-5.86 2.67-3.62m1.55 4.29c-.46-.33-.65-1.54 0-1.74.58.3.2 1.26 0 1.74m3.61-1.04c-.03.14-.08.28-.14.41-.1-.32-.13-.85.14-1.07.1.17.04.45 0 .66m3.76.67c-.51 1.2-2.88 2.64-2.88.64 3.48-.08 2.54-4.16-.09-1.04-1.64 2.92 2.27 2.81 3.12.53zm-2.5-.26c2.17-2.75 1.96.61-.35.71.09-.25.2-.49.35-.71m42.98 38.69c-2.23 3.01-2.62.79-1.05-1.41l-.19-.13c-.55.63-.88 1.16-1.07 1.6h-.01c-.17.28-.45.49-.8.43 1.43-3.2-2.21-2.05-.31.12-2.26 2.71-2.47-.68-.56-1.82l-.14-.19c-.78.36-1.25.91-1.47 1.45-.59 1.19-2.37 2.38-2.01.08 1.12-1.24 3.2-2.98 2.97-4.78-2.06.07-3.28 3.33-3.46 5.15.04 1.82 1.59 1.19 2.34.2-.07 1.18 1.03 1.94 2.53-.02.29.07.55-.03.78-.2-.49 1.98 2.81 1.37 3.01-1.74-.57-.87-.89.84-.54 1.25Zm-4.88-3.87c-.58 1.34-1.65 2.55-2.67 3.62-.19-.76 2.92-5.86 2.67-3.62m1.55 4.29c-.46-.33-.65-1.54 0-1.74.58.3.2 1.26 0 1.74m3.61-1.04c-.03.14-.08.28-.14.41-.1-.32-.13-.85.14-1.07.1.17.04.45 0 .66m3.76.67c-.51 1.2-2.88 2.64-2.88.64 3.48-.08 2.54-4.16-.09-1.04-1.64 2.92 2.27 2.81 3.12.53zm-2.5-.26c2.17-2.75 1.96.61-.35.71.09-.25.2-.49.35-.71m-.32 12.02c-1.46 1.97-1.72.52-.69-.92l-.13-.08c-.36.41-.58.76-.7 1.05-.11.18-.3.32-.53.28.94-2.1-1.45-1.34-.2.08-1.48 1.78-1.62-.45-.37-1.2l-.09-.12c-.51.23-.82.59-.96.95-.39.78-1.56 1.56-1.32.06.74-.82 2.1-1.96 1.95-3.13-1.35.05-2.15 2.18-2.27 3.38.02 1.19 1.04.78 1.53.13-.04.77.68 1.27 1.66-.02.19.05.36-.02.51-.13-.32 1.3 1.84.9 1.98-1.14-.37-.57-.58.55-.36.82Zm-3.2-2.54c-.38.88-1.08 1.67-1.75 2.37-.13-.5 1.91-3.84 1.75-2.37m1.02 2.81c-.3-.22-.43-1.01 0-1.14.38.2.13.83 0 1.14m2.37-.68q-.03.135-.09.27c-.06-.21-.08-.56.09-.7.07.11.03.29 0 .43m2.46.44c-.33.79-1.89 1.73-1.89.42 2.28-.05 1.67-2.73-.06-.68-1.08 1.91 1.49 1.84 2.05.35l-.1-.08Zm-1.64-.17c1.43-1.8 1.29.4-.23.47.06-.17.13-.32.23-.47m54.66-40.31c-2.23 3.01-2.62.79-1.05-1.41l-.19-.13c-.55.63-.88 1.16-1.07 1.6h-.01c-.17.28-.45.49-.8.43 1.43-3.2-2.21-2.05-.31.12-2.26 2.71-2.47-.68-.56-1.82l-.14-.19c-.78.36-1.25.91-1.47 1.45-.59 1.19-2.37 2.38-2.01.08 1.12-1.24 3.2-2.98 2.97-4.78-2.06.07-3.28 3.33-3.46 5.15.04 1.82 1.59 1.19 2.34.2-.07 1.18 1.03 1.94 2.53-.02.29.07.55-.03.78-.2-.49 1.98 2.81 1.37 3.01-1.74-.57-.87-.89.84-.54 1.25Zm-4.88-3.87c-.58 1.34-1.65 2.55-2.67 3.62-.19-.76 2.92-5.86 2.67-3.62m1.55 4.29c-.46-.33-.65-1.54 0-1.74.58.3.2 1.26 0 1.74m3.61-1.04c-.03.14-.08.28-.14.41-.1-.32-.13-.85.14-1.07.1.17.04.45 0 .66m3.77.67c-.51 1.2-2.88 2.64-2.88.64 3.48-.08 2.54-4.16-.09-1.04-1.64 2.92 2.27 2.81 3.12.53zm-2.5-.26c2.17-2.75 1.96.61-.35.71.09-.25.2-.49.35-.71m-3.58-15.9c-1.34 1.81-1.58.48-.63-.85l-.12-.08c-.33.38-.53.7-.64.96-.11.17-.27.29-.48.26.86-1.93-1.33-1.23-.18.07-1.36 1.63-1.49-.41-.34-1.1l-.09-.11c-.47.21-.75.54-.88.87-.36.71-1.43 1.43-1.21.05.67-.75 1.92-1.79 1.79-2.87-1.24.04-1.97 2-2.08 3.1.02 1.09.96.72 1.41.12-.04.71.62 1.17 1.52-.01.17.04.33-.02.47-.12-.3 1.19 1.69.82 1.81-1.05-.34-.52-.53.5-.33.75Zm-2.93-2.33c-.35.81-.99 1.53-1.6 2.18-.12-.46 1.75-3.52 1.6-2.18m.93 2.58c-.28-.2-.39-.93 0-1.04.35.18.12.76 0 1.04m2.17-.63c-.02.09-.05.17-.08.24-.06-.19-.08-.51.08-.64.06.1.02.27 0 .4m2.26.41c-.31.72-1.73 1.59-1.73.38 2.09-.05 1.53-2.5-.05-.63-.99 1.76 1.36 1.69 1.87.32l-.09-.08Zm-1.5-.16c1.31-1.65 1.18.37-.21.43.06-.15.12-.3.21-.43m5.79-4.84c-1.34 1.81-1.58.48-.63-.85l-.12-.08c-.33.38-.53.7-.64.96-.11.17-.27.29-.48.26.86-1.93-1.33-1.23-.18.07-1.36 1.63-1.49-.41-.34-1.1l-.09-.11c-.47.21-.75.54-.88.87-.36.71-1.43 1.43-1.21.05.67-.75 1.92-1.79 1.79-2.87-1.24.04-1.97 2-2.08 3.1.02 1.09.96.72 1.41.12-.04.71.62 1.17 1.52-.01.17.04.33-.02.47-.12-.3 1.19 1.69.82 1.81-1.05-.34-.52-.53.5-.33.75Zm-2.93-2.33c-.35.81-.99 1.53-1.6 2.18-.12-.46 1.75-3.52 1.6-2.18m.93 2.58c-.28-.2-.39-.93 0-1.04.35.18.12.76 0 1.04m2.17-.63c-.02.09-.05.17-.08.24-.06-.19-.08-.51.08-.64.06.1.02.27 0 .4m2.26.41c-.31.72-1.73 1.59-1.73.38 2.09-.05 1.53-2.5-.05-.63-.99 1.76 1.36 1.69 1.87.32l-.09-.08Zm-1.5-.16c1.31-1.65 1.18.37-.21.43.06-.15.12-.3.21-.43m-3.41-11.25c-2.28 3.08-2.68.81-1.07-1.44l-.2-.13c-.56.65-.9 1.18-1.1 1.63h-.01c-.18.29-.46.5-.82.44 1.46-3.27-2.26-2.09-.31.12-2.31 2.77-2.53-.7-.57-1.86l-.15-.19c-.8.37-1.28.93-1.5 1.49-.61 1.21-2.43 2.44-2.05.09 1.15-1.27 3.27-3.05 3.04-4.89-2.1.08-3.35 3.4-3.53 5.27.04 1.86 1.63 1.22 2.39.21-.07 1.2 1.05 1.98 2.58-.02.29.07.57-.03.79-.21-.5 2.03 2.87 1.4 3.08-1.78-.58-.89-.91.86-.55 1.28Zm-4.99-3.96c-.59 1.37-1.69 2.6-2.73 3.7-.2-.78 2.98-5.99 2.73-3.7m1.59 4.38c-.47-.34-.66-1.58 0-1.78.59.3.21 1.29 0 1.78m3.69-1.07c-.03.15-.08.29-.14.42-.1-.33-.13-.87.14-1.09.1.18.04.46 0 .68Zm3.84.71c-.52 1.23-2.95 2.7-2.95.65 3.56-.08 2.6-4.25-.09-1.07-1.68 2.98 2.32 2.87 3.19.55l-.16-.13Zm-2.56-.27c2.22-2.81 2 .63-.36.73.1-.26.21-.5.36-.73m10.42-14.61c-1.77 2.38-2.07.63-.83-1.11l-.15-.1c-.44.5-.7.91-.85 1.26h-.01c-.14.22-.36.38-.64.34 1.13-2.53-1.75-1.62-.24.09-1.79 2.15-1.96-.54-.44-1.44l-.11-.15c-.62.28-.99.72-1.16 1.15-.47.94-1.88 1.89-1.59.07.89-.98 2.53-2.36 2.35-3.78-1.63.06-2.6 2.63-2.74 4.08.03 1.44 1.26.94 1.85.16-.05.93.81 1.54 2-.02.23.05.44-.02.61-.16-.39 1.57 2.23 1.09 2.38-1.38-.45-.69-.7.66-.43.99m-3.86-3.06c-.46 1.06-1.31 2.02-2.11 2.86-.15-.6 2.31-4.63 2.11-2.86m1.23 3.39c-.37-.26-.51-1.22 0-1.37.46.24.16 1 0 1.37m2.86-.82c-.03.11-.06.22-.11.32-.08-.25-.1-.67.11-.84.08.14.03.35 0 .52m2.97.53c-.4.95-2.28 2.09-2.28.5 2.75-.06 2.01-3.29-.07-.82-1.3 2.31 1.79 2.22 2.47.42zm-1.98-.21c1.72-2.18 1.55.48-.27.56.07-.2.16-.39.27-.56m-19.15-14.65c-1.2 1.62-1.41.43-.57-.76l-.11-.07c-.3.34-.47.62-.58.86-.09.15-.24.26-.43.23.77-1.73-1.19-1.1-.16.06-1.22 1.46-1.33-.37-.3-.98l-.08-.1c-.42.19-.67.49-.79.78-.32.64-1.28 1.29-1.08.05.61-.67 1.72-1.61 1.6-2.58-1.11.04-1.77 1.79-1.87 2.78.02.98.86.64 1.26.11-.04.64.56 1.05 1.36-.01.15.04.3-.01.42-.11-.27 1.07 1.52.74 1.62-.94-.31-.47-.48.45-.29.68m-2.63-2.09c-.31.73-.89 1.37-1.44 1.95-.1-.41 1.57-3.16 1.44-1.95m.84 2.31c-.25-.18-.35-.83 0-.94.31.16.11.68 0 .94m1.95-.56c-.02.08-.04.15-.07.22-.05-.17-.07-.46.07-.58.05.09.02.24 0 .36m2.02.36c-.27.65-1.55 1.42-1.55.34 1.88-.04 1.37-2.24-.05-.56-.89 1.58 1.22 1.51 1.68.29zm-1.35-.14c1.17-1.48 1.06.33-.19.38.05-.14.11-.27.19-.38m-12.46-6.51c-1.2 1.62-1.41.43-.57-.76l-.11-.07c-.3.34-.47.62-.58.86-.09.15-.24.26-.43.23.77-1.73-1.19-1.1-.16.06-1.22 1.46-1.33-.37-.3-.98l-.08-.1c-.42.19-.67.49-.79.78-.32.64-1.28 1.29-1.08.05.61-.67 1.72-1.61 1.6-2.58-1.11.04-1.77 1.79-1.87 2.78.02.98.86.64 1.26.11-.04.64.56 1.05 1.36-.01.15.04.3-.01.42-.11-.27 1.07 1.52.74 1.62-.94-.31-.47-.48.45-.29.68m-2.63-2.09c-.31.73-.89 1.37-1.44 1.95-.1-.41 1.57-3.16 1.44-1.95m.84 2.31c-.25-.18-.35-.83 0-.94.31.16.11.68 0 .94m1.95-.56c-.02.08-.04.15-.07.22-.05-.17-.07-.46.07-.58.05.09.02.24 0 .36m2.02.37c-.27.65-1.55 1.42-1.55.34 1.88-.04 1.37-2.24-.05-.56-.89 1.58 1.22 1.51 1.68.29zm-1.35-.14c1.17-1.48 1.06.33-.19.38.05-.14.11-.27.19-.38M147.94 58.1c-2.02 2.73-2.37.72-.95-1.27l-.18-.12c-.5.57-.8 1.05-.97 1.45h-.01c-.16.25-.41.44-.73.39 1.3-2.9-2-1.85-.28.11-2.05 2.46-2.24-.62-.51-1.65l-.13-.17c-.71.32-1.13.82-1.33 1.32-.54 1.08-2.15 2.16-1.82.08 1.02-1.13 2.9-2.7 2.69-4.33-1.86.07-2.97 3.01-3.13 4.67.03 1.65 1.44 1.08 2.12.18-.06 1.07.93 1.76 2.29-.02.26.06.5-.02.7-.18-.45 1.8 2.55 1.24 2.73-1.58-.52-.79-.8.76-.49 1.14Zm-4.42-3.51c-.53 1.22-1.5 2.31-2.42 3.28-.17-.69 2.64-5.31 2.42-3.28m1.41 3.89c-.42-.3-.59-1.4 0-1.57.53.27.18 1.14 0 1.57m3.27-.94c-.03.13-.07.25-.12.37-.09-.29-.12-.77.12-.97.09.16.04.4 0 .6m3.4.61c-.46 1.09-2.61 2.39-2.61.58 3.15-.07 2.3-3.77-.08-.94-1.49 2.65 2.05 2.54 2.83.48zm-2.26-.24c1.97-2.49 1.78.55-.31.64.08-.23.18-.45.31-.64m-19.66 10.46c-1.31 1.77-1.54.46-.62-.83l-.11-.07c-.32.37-.52.68-.63.94-.1.16-.27.29-.47.25.84-1.88-1.3-1.2-.18.07-1.33 1.59-1.45-.4-.33-1.07l-.08-.11c-.46.21-.73.53-.86.85-.35.7-1.39 1.4-1.18.05.66-.73 1.88-1.75 1.75-2.81-1.21.04-1.93 1.95-2.03 3.03.02 1.07.93.7 1.37.12-.04.69.6 1.14 1.48-.01.17.04.33-.02.46-.12-.29 1.16 1.65.81 1.77-1.02-.33-.51-.52.49-.32.74Zm-2.87-2.28c-.34.79-.97 1.5-1.57 2.13-.11-.45 1.71-3.44 1.57-2.13m.91 2.52c-.27-.2-.38-.91 0-1.02.34.18.12.74 0 1.02m2.12-.61c-.02.08-.04.16-.08.24-.06-.19-.08-.5.08-.63.06.1.02.26 0 .39m2.21.4c-.3.71-1.69 1.55-1.69.37 2.04-.05 1.49-2.44-.05-.61-.97 1.72 1.33 1.65 1.83.31zm-1.47-.15c1.28-1.62 1.15.36-.2.42.05-.15.12-.29.2-.42M174 58.7c-1.2 1.62-1.41.43-.57-.76l-.11-.07c-.3.34-.47.62-.58.86-.09.15-.24.26-.43.23.77-1.73-1.19-1.1-.16.06-1.22 1.46-1.33-.37-.3-.98l-.08-.1c-.42.19-.67.49-.79.78-.32.64-1.28 1.29-1.08.05.61-.67 1.72-1.61 1.6-2.58-1.11.04-1.77 1.79-1.87 2.78.02.98.86.64 1.26.11-.04.64.56 1.05 1.36-.01.15.04.3-.01.42-.11-.27 1.07 1.52.74 1.62-.94-.31-.47-.48.45-.29.68m-2.63-2.09c-.31.73-.89 1.37-1.44 1.95-.1-.41 1.57-3.16 1.44-1.95m.84 2.31c-.25-.18-.35-.83 0-.94.31.16.11.68 0 .94m1.95-.56c-.02.08-.04.15-.07.22-.05-.17-.07-.46.07-.58.05.09.02.24 0 .36m2.02.37c-.27.65-1.55 1.42-1.55.34 1.88-.04 1.37-2.24-.05-.56-.89 1.58 1.22 1.51 1.68.29zm-1.35-.14c1.17-1.48 1.06.33-.19.38.05-.14.11-.27.19-.38m-27.58 110.29c-2.23 3.01-2.62.79-1.05-1.41l-.2-.13c-.55.63-.87 1.16-1.07 1.6h-.01c-.18.28-.45.49-.81.43 1.44-3.2-2.21-2.05-.3.12-2.26 2.71-2.47-.68-.56-1.83l-.14-.18c-.79.36-1.25.9-1.47 1.45h-.01c-.59 1.19-2.37 2.38-2.01.08 1.12-1.24 3.2-2.98 2.98-4.78-2.06.08-3.28 3.33-3.46 5.16.03 1.81 1.59 1.19 2.34.2-.07 1.17 1.03 1.94 2.52-.03.29.07.56-.02.78-.2-.49 1.98 2.81 1.37 3.01-1.74-.57-.87-.88.84-.54 1.26m-4.88-3.88c-.58 1.35-1.65 2.55-2.67 3.62-.19-.76 2.92-5.85 2.67-3.62m1.55 4.29c-.46-.33-.65-1.54 0-1.74.58.3.2 1.27 0 1.74m3.61-1.04c-.03.14-.08.28-.14.41-.09-.32-.13-.85.14-1.07.1.17.04.44 0 .66m.8.27c-.68 1.2-.42 1.89.19 2.12.08-.06.15-.12.23-.18-.21-.14-.34-.42-.34-.9 3.48-.08 2.54-4.15-.08-1.04m.11.86c.1-.26.21-.49.35-.72 2.17-2.74 1.96.62-.35.72" style="fill:#fff" transform="translate(-18)scale(1.2)"/></svg>