<svg xmlns="http://www.w3.org/2000/svg" viewBox="0 0 2000 2000" width="300" height="300" fill="none"><defs><style>.cls-apr61{fill:#fcd26b}.cls-apr62{fill:#fb0}.cls-apr63{fill:#fff}.cls-apr64{fill:#fa1d53}.cls-apr65{fill:#efac07}.cls-apr67{fill:#a53192}</style></defs><path d="M1672.42 1707.66c-390.12 2.91-953.25 4.56-1349.36 7.63l-.03-8.88-5.3-1339.31-.06-14.09 14.18-.04 1339.31-3.53 17.86-.05c-5.22 453.55-12.56 906.56-16.62 1358.27Zm-2.5-2.5c-3.93-447.02-11.12-892.93-16.41-1338.07l17.66 17.66-1339.31-3.53 14.13-14.13-5.3 1339.31-8.83-8.83c395.48.9 947.83 6.83 1338.07 7.58Z" class="cls-apr62"/><path d="M1606.63 1641.3c-.65 0-1.29-.32-1.67-.91-.58-.92-.31-2.14.61-2.72 81.79-51.9 122.32-100.92 120.47-145.7-.23-5.46-1.11-11.64-2.04-18.19-2.87-20.19-6.45-45.32 4.43-74.78 6.09-16.5 15.79-31.79 28.85-45.45a1.974 1.974 0 0 1 2.85 2.73c-12.68 13.27-22.1 28.1-28 44.09-10.53 28.52-7.03 53.11-4.22 72.86.95 6.65 1.84 12.93 2.07 18.58.84 20.43-6.66 41.74-22.31 63.36-19.89 27.48-53.53 56.35-99.98 85.83-.33.21-.69.31-1.05.31Z" class="cls-apr65"/><path d="M1946.95 1152.85c-2.07-38.95-23.78-98.37-75.03-117.89-50.12-19.09-104.69 9.03-132.02 35.77-57.23 55.99-59.53 169.07.11 280.74-1.77 3.93-6.01 11.85-14.82 18.18a44.8 44.8 0 0 1-16.34 7.32c4.16 4.71 14.24 14.79 30.54 19.22 9.1 2.47 17.06 2.34 22.44 1.78.49-4.39.75-9.41.52-14.95-.38-9.3-2.03-17.26-3.83-23.48 118.49-41.44 192.7-126.4 188.43-206.68Z" class="cls-apr62"/><path d="M1758.52 1359.53c1.8 6.22 3.44 14.17 3.82 23.48.23 5.54-.03 10.56-.52 14.95-5.38.56-13.34.69-22.44-1.78a60.5 60.5 0 0 1-14.96-6.32c-7.73-4.56-12.89-9.85-15.58-12.9 3.88-.88 10.04-2.8 16.35-7.32 8.03-5.77 12.26-12.86 14.29-17.04.08-.17.16-.33.23-.49 118.29-41.48 192.36-126.36 188.09-206.56-1.94-36.48-21.1-90.92-65.64-113.71 3.26.85 6.51 1.88 9.75 3.12 51.26 19.52 72.96 78.93 75.03 117.89 4.27 80.28-69.94 165.24-188.43 206.69Z" class="cls-apr65"/><path d="M1742.69 1390.66c-4.54.47-10.91.64-18.26-.8-7.73-4.56-12.89-9.85-15.58-12.9 3.88-.88 10.04-2.8 16.35-7.32 8.03-5.77 12.26-12.86 14.29-17.04a99.3 99.3 0 0 1 3.72 23.11c.23 5.54-.03 10.56-.52 14.95" style="fill:#fec629"/><path d="M1729.87 1134.66c-10.14 28.33-7.71 46.84-10.77 46.92-3.96.1-14.8-30.76-3.09-57.89 9.85-22.83 32.62-35.96 35.55-33.37 2.58 2.29-11.46 15.74-21.69 44.35Z" class="cls-apr61"/><circle cx="1771.47" cy="1076.78" r="7.82" class="cls-apr61"/><circle cx="1722.64" cy="1204.85" r="7.82" class="cls-apr61"/><path d="M1427.52 1522.44c-35.89-90.9-86.87-135.03-118.35-119.94-5.71 2.73-21.08 12.36-31.93 52.93 14.7-1.67 33.14-1.78 53.58 3 50.07 11.72 82.08 45.8 96.7 64.01" class="cls-apr64"/><path d="M1403.33 1535c-48.68-26.05-86.78-26.43-94.83-8.43-1.46 3.26-4.57 13.03 5.59 34.47 5.73-6.09 13.63-12.88 24.18-18.29 25.86-13.25 52.11-10.26 65.06-7.76Zm38.4-31.24c33.98-43.52 40.86-80.99 24.49-92-2.97-1.99-12.06-6.72-34.92-.38 5.02 6.68 10.36 15.63 13.89 26.95 8.64 27.74 1.22 53.1-3.46 65.43" class="cls-apr62"/><circle cx="1366.98" cy="1322.58" r="11.43" class="cls-apr62"/><circle cx="1264.88" cy="1384.57" r="11.43" class="cls-apr64"/><path d="m464.08 317.52-47.49 51.23a20.44 20.44 0 0 0-4.95 18.36l15.28 68.17c3.7 16.53-13.15 30.13-28.52 23.01L335 448.96a20.46 20.46 0 0 0-18.99.96l-60.11 35.6c-14.57 8.63-32.72-3.2-30.7-20.01l8.31-69.36c.8-6.68-1.74-13.32-6.79-17.77l-52.43-46.17c-12.71-11.19-7.07-32.1 9.55-35.38l68.54-13.53c6.6-1.3 12.13-5.77 14.8-11.94l27.7-64.13c6.72-15.55 28.35-16.64 36.6-1.86l34.05 61c3.28 5.87 9.24 9.76 15.93 10.38l69.55 6.53c16.86 1.58 24.59 21.81 13.08 34.24Z" class="cls-apr64"/><path d="m410.92 328.5-30.24 32.62a13 13 0 0 0-3.15 11.69l9.73 43.41c2.36 10.52-8.37 19.18-18.16 14.65l-40.37-18.68c-3.89-1.8-8.41-1.57-12.09.61l-38.27 22.67c-9.28 5.5-20.83-2.03-19.55-12.74l5.29-44.17c.51-4.25-1.11-8.48-4.32-11.31l-33.39-29.4c-8.09-7.13-4.5-20.44 6.08-22.53l43.64-8.62c4.2-.83 7.73-3.67 9.42-7.6l17.64-40.84c4.28-9.9 18.05-10.6 23.31-1.18l21.68 38.84c2.09 3.74 5.88 6.21 10.14 6.61l44.29 4.16c10.74 1.01 15.66 13.89 8.33 21.8Z" class="cls-apr62"/><path d="m171.39 386.31-5.65 30.62c-.54 2.95.4 5.97 2.52 8.09l22.02 22.01c5.34 5.34 2.24 14.48-5.24 15.47l-30.87 4.09a9.11 9.11 0 0 0-6.92 4.9l-14.13 27.75c-3.42 6.73-13.08 6.61-16.33-.2l-13.43-28.09a9.11 9.11 0 0 0-6.79-5.07l-30.76-4.86c-7.46-1.18-10.32-10.4-4.85-15.6l22.57-21.45a9.12 9.12 0 0 0 2.72-8.03l-4.88-30.75c-1.18-7.46 6.7-13.03 13.33-9.44l27.38 14.83a9.12 9.12 0 0 0 8.48.11l27.74-14.14c6.72-3.43 14.46 2.34 13.09 9.76" class="cls-apr67"/><path d="m154 403.13-3.59 19.5c-.35 1.88.25 3.8 1.6 5.15l14.02 14.02c3.4 3.4 1.43 9.22-3.34 9.85l-19.65 2.61a5.82 5.82 0 0 0-4.41 3.12l-9 17.67c-2.18 4.28-8.33 4.21-10.4-.13l-8.55-17.89a5.8 5.8 0 0 0-4.33-3.23l-19.58-3.1c-4.75-.75-6.57-6.62-3.09-9.93l14.37-13.66a5.81 5.81 0 0 0 1.73-5.11l-3.11-19.58c-.75-4.75 4.26-8.3 8.49-6.01l17.43 9.44c1.68.91 3.7.93 5.4.07l17.66-9.01c4.28-2.18 9.21 1.49 8.34 6.22Zm103.27-218.56-22.08 17.92a8.3 8.3 0 0 0-3.05 7.11l2.25 28.34c.54 6.87-7.03 11.39-12.81 7.64l-23.86-15.46a8.31 8.31 0 0 0-7.71-.7l-26.26 10.9c-6.37 2.64-13-3.16-11.22-9.83l7.33-27.47c.71-2.64.06-5.47-1.71-7.55l-18.48-21.61c-4.48-5.24-1.01-13.34 5.88-13.71l28.39-1.52a8.34 8.34 0 0 0 6.65-3.96l14.84-24.25c3.6-5.88 12.38-5.08 14.85 1.35l10.22 26.53a8.32 8.32 0 0 0 5.82 5.1l27.65 6.62c6.7 1.61 8.66 10.2 3.3 14.55" class="cls-apr62"/><path d="m235.22 185.95-14.06 11.41a5.3 5.3 0 0 0-1.94 4.53l1.43 18.05c.35 4.38-4.47 7.25-8.16 4.86l-15.2-9.84a5.32 5.32 0 0 0-4.91-.45l-16.72 6.94c-4.05 1.68-8.28-2.02-7.15-6.26l4.67-17.49c.45-1.68.04-3.48-1.09-4.81l-11.77-13.76c-2.85-3.34-.64-8.5 3.74-8.73l18.08-.97a5.3 5.3 0 0 0 4.23-2.52l9.45-15.44c2.29-3.74 7.88-3.24 9.46.86l6.51 16.9a5.3 5.3 0 0 0 3.71 3.25l17.61 4.22c4.27 1.02 5.51 6.5 2.1 9.26Z" class="cls-apr64"/><path d="M1579.27 1632.75c-24.53 16.85-56.42 17.97-81.08 2.91-34.12-20.84-35.05-60.83-35.07-63.21-5.43 7.44-19.31 28.57-19.06 58.19.28 34 18.99 56.72 24.25 62.92 41.36 48.73 130.75 55.94 162.06 19.57 6.62-7.69 9.65-16.17 11.18-22.35-20.76-19.34-41.52-38.69-62.29-58.03Z" class="cls-apr67"/><path d="M1711.82 1685.78c6.14 29.12 28.45 51.93 56.7 58.03 39.08 8.44 67.34-19.86 68.99-21.58-1.2 9.13-5.72 34-26.34 55.28-23.66 24.42-52.87 27.97-60.97 28.83-63.55 6.75-133.25-49.68-130.84-97.62.51-10.14 4.17-18.37 7.32-23.89 28.38.32 56.75.63 85.13.95Zm-107.84-243.96a447 447 0 0 0-80.63-22.64l-6.46 16.16c-18.28 45.69 3.94 97.56 49.63 115.84s97.56-3.94 115.84-49.63l6.46-16.16a448 448 0 0 0-84.85-43.57Zm57.99 57.26c-13.04 32.58-52.4 47.47-87.92 33.26s-53.74-52.14-40.71-84.72l4.61-11.52a378.4 378.4 0 0 1 128.63 51.46z" class="cls-apr67"/><path d="M1688.03 1500.19c-2.09 0-4.21-.68-5.98-2.07-80.58-63.44-160.94-64.99-161.74-65-5.34-.05-9.63-4.42-9.58-9.76.05-5.31 4.36-9.59 9.67-9.59h.07c3.53.03 87.51 1.4 173.56 69.15 4.2 3.31 4.92 9.39 1.62 13.59a9.65 9.65 0 0 1-7.61 3.69Z" class="cls-apr67"/><path d="M1722.44 1559.49c-1.42-4.72-4.66-13.13-12.19-20.84-4.22-4.31-14.23-14.55-28.87-13.93-10.87.46-18.54 6.67-21.56 9.45-73.71 55.48-106.75 91.01-99.11 106.57 2.5 5.1 9.36 8.05 20.58 8.87-1.83 6.11-4.84 19.43.35 33.87 7.98 22.19 29.47 30.79 40.32 35.13s32.34 12.94 53.42 2.37c13.73-6.88 20.73-18.59 23.62-24.28 8.67 7.14 15.67 9.73 21.02 7.77 16.31-5.97 17.12-54.3 2.42-145Z" class="cls-apr62"/><path d="M1815.7 1526.53a447 447 0 0 0-80.63-22.64l-6.46 16.16c-18.28 45.69 3.94 97.56 49.63 115.84 45.7 18.28 97.56-3.94 115.84-49.63l6.46-16.16a448 448 0 0 0-84.85-43.57Zm57.99 57.26c-13.04 32.58-52.4 47.47-87.92 33.26s-53.74-52.14-40.71-84.72l4.61-11.52a378.4 378.4 0 0 1 128.63 51.46z" class="cls-apr67"/><path d="M1899.75 1584.9c-2.09 0-4.21-.68-5.98-2.07-80.58-63.44-160.94-64.99-161.74-65-5.34-.05-9.63-4.42-9.58-9.76.05-5.31 4.36-9.59 9.67-9.59h.07c3.53.03 87.51 1.4 173.56 69.15 4.2 3.31 4.92 9.39 1.62 13.59a9.65 9.65 0 0 1-7.61 3.69Zm-170.62-21.58c-2.92 0-5.8-1.38-7.6-3.95-25.55-36.39-59.5-25.63-60.93-25.16-4.84 1.68-10.1-.9-11.78-5.74s.92-10.14 5.76-11.81c1.27-.44 12.84-4.23 28.65-2.23 14.73 1.86 35.97 9.33 53.49 34.28 2.95 4.19 1.93 9.98-2.26 12.93a9.23 9.23 0 0 1-5.33 1.69Z" class="cls-apr67"/><path d="M285.09 697.35c-7.22 20.61-25.6 35.09-46.73 36.87-29.23 2.45-47.11-20.81-48.15-22.21.01 6.76.95 25.28 13.94 42.7 14.91 20 35.83 25.34 41.63 26.73 45.6 10.91 101.63-23.57 104.4-58.67.59-7.42-1.3-13.75-3.07-18.07z" class="cls-apr62"/><path d="M386.53 671.28c16.26 14.58 39.35 18.4 58.71 9.77 26.79-11.94 31.24-40.95 31.48-42.68 3.25 5.93 11.35 22.6 8.38 44.13-3.42 24.71-19.17 39.47-23.58 43.49-34.69 31.55-100.4 28.36-119.75-1.06-4.09-6.22-5.49-12.68-6.02-17.32 16.93-12.11 33.86-24.23 50.79-36.34Zm-169.58-97.64a328 328 0 0 0-57.53 21.55l3.18 12.36c8.99 34.97 44.62 56.03 79.59 47.04s56.03-44.62 47.04-79.59l-3.18-12.36c-19.04.97-42.71 3.85-69.1 11m59.15 8.75c6.41 24.93-10.43 50.81-37.61 57.8s-54.41-7.56-60.82-32.5l-2.27-8.82a276.4 276.4 0 0 1 44.82-16.34 278 278 0 0 1 53.61-8.96z" class="cls-apr62"/><path d="M159.51 606.09c-2.2 0-4.38-1.02-5.76-2.95-2.29-3.18-1.58-7.62 1.6-9.91 2.1-1.52 52.36-37.11 132.7-34.31 3.92.14 6.98 3.42 6.85 7.34-.14 3.92-3.46 6.99-7.34 6.85-75.49-2.62-123.42 31.29-123.89 31.64a7.05 7.05 0 0 1-4.15 1.34Z" class="cls-apr62"/><path d="M338.07 591.93c-2.89-2.18-8.45-5.75-16.25-7.05-4.36-.72-14.73-2.45-23.13 4.27-6.23 4.99-8.08 11.98-8.66 14.94-19.57 64.79-23.73 100.13-12.46 106.03 3.69 1.93 9.03.71 16.02-3.67 1.57 4.41 5.56 13.6 14.89 19.89 14.34 9.68 30.79 5.45 39.09 3.32s24.75-6.36 32.65-21.75c5.14-10.02 4.21-19.99 3.45-24.61 8.22.47 13.49-1.04 15.81-4.51 7.07-10.6-13.41-39.56-61.42-86.87Z" class="cls-apr64"/><path d="M378.97 531.99a327.6 327.6 0 0 0-57.53 21.55l3.18 12.36c8.99 34.97 44.62 56.03 79.59 47.04s56.03-44.62 47.04-79.59l-3.18-12.36c-19.04.97-42.71 3.85-69.1 11m59.14 8.75c6.41 24.93-10.43 50.81-37.61 57.8s-54.41-7.56-60.82-32.5l-2.27-8.82a277 277 0 0 1 44.82-16.34 278 278 0 0 1 53.61-8.96z" class="cls-apr62"/><path d="M321.54 564.44c-2.21 0-4.38-1.02-5.77-2.95a7.09 7.09 0 0 1 1.61-9.9c2.1-1.52 52.36-37.11 132.7-34.31 3.92.14 6.98 3.42 6.85 7.34-.14 3.92-3.44 6.99-7.34 6.85-75.17-2.61-123.42 31.3-123.9 31.64a7.05 7.05 0 0 1-4.13 1.33Zm-36.61 42.22c-1.35 0-2.71-.4-3.89-1.23-3.06-2.15-3.83-6.35-1.7-9.43 7.33-10.59 29.83-27.7 62.5-16.64a6.817 6.817 0 0 1 4.27 8.63 6.817 6.817 0 0 1-8.63 4.27c-30.9-10.46-46.32 10.62-46.96 11.52a6.84 6.84 0 0 1-5.58 2.88Z" class="cls-apr62"/><path d="M639.77 386.22c-19.87 38.75-61.71 56.96-93.46 40.68-31.74-16.28-41.37-60.88-21.5-99.63 9.03-17.62 22.61-31 37.72-38.81 2.82 18.09 15.51 35.7 35.13 45.76 17.52 8.98 36.69 9.98 52.22 4.2 1.17 15.37-2.05 32.06-10.11 47.79Z" class="cls-apr67"/><path d="M563.74 364.83c-1.33.39-1.66-9.92-9.07-14.2-7.25-4.19-16.07.4-16.25-.49-.22-1.14 13.37-11.1 21.76-4.81 7.32 5.48 5.04 19.07 3.56 19.51Zm22.81 11.7c.46 1.31 9.03-4.44 16.83-.92 7.63 3.44 9.05 13.29 9.88 12.9 1.05-.48 1.22-17.33-8.79-20.48-8.72-2.74-18.43 7.04-17.92 8.5m7.31 27.57c.07 2-23.68 10.68-40.83-.71-13.78-9.16-17.54-27.45-15.91-28.39 1.37-.79 5.8 11.2 18.82 19.81 18.11 11.97 37.87 7.47 37.93 9.29Z" class="cls-apr63"/><path d="M1377.9 1640.53c41.96 44.01 46.75 107.55 10.69 141.94-36.05 34.38-99.3 26.57-141.26-17.44-19.08-20.01-30.49-44.06-33.84-67.57 25.15 4.6 54.21-4.05 76.49-25.29 19.9-18.97 30.02-43.79 29.54-66.93 20.8 5.53 41.34 17.43 58.37 35.3Z" class="cls-apr64"/><path d="M1314.75 1730.97c-.1 1.93-13.84-2.37-22.9 5.44-8.86 7.64-6.85 21.38-8.12 21.2-1.6-.23-8.5-22.73 3.66-30.91 10.59-7.13 27.46 2.12 27.36 4.28Zm25.91-24.71c1.93 0-1.7-13.94 6.52-22.61 8.05-8.48 21.68-5.83 21.56-7.1-.16-1.61-22.3-9.57-31.05 2.18-7.63 10.24.82 27.53 2.97 27.53m39.71 3.04c2.66.83 3.2 36.14-19.71 53.52-18.41 13.97-44.26 10.52-44.75 7.94-.41-2.18 17.44-2.5 34.77-15.71 24.12-18.38 27.26-46.5 29.68-45.75Z" class="cls-apr63"/></svg>