<svg fill="none" xmlns="http://www.w3.org/2000/svg" width="300" height="300" viewBox="0 0 2000 2000"><g transform="matrix(1.2 0 0 1.2 -180 -180)"><defs><style>.cls6-1{fill:#3a4f7a}.cls6-2{fill:#e98ead}.cls6-3{fill:#fff}.cls6-4{fill:#fea1bf}</style></defs><g id="\u0421\u043B\u043E\u0439_2" data-name="\u0421\u043B\u043E\u0439 2"><path class="cls6-1" d="M396.79 1566h216.76q0-12-.1-24H420.79V953h-24Zm993.99-1206.38v24h188.42v657.95h24V359.61Zm203.09 1235.21-89.87 119.3-215.73-162.45 89.83-119.29 55.07 41.46-23 30.48 28.58 64 8.87 6.68 72.5 9.83 21.86-29Z"/><path class="cls6-2" d="M1442.47 1573.66 1288.72 1552l215.73 162.44Z"/><path class="cls6-2" d="M1441.45 1574.16q-31.67-70.89-63.31-141.77l215.73 162.44Z"/><path class="cls6-3" d="M1474.47 1579.16a16.65 16.65 0 0 0-3.46-15.25c-3.75-4.1-9.75-5.84-16-4.87-.8-6.29-4.13-11.58-9.11-14a16.65 16.65 0 0 0-15.61.89c-9.38 6-10.51 25.64-2 48.63 24.45 1.79 43-4.73 46.18-15.4"/><path class="cls6-1" d="m1635.77 1291.26 18.39 45.64-82.53 33.26-18.39-45.64 21.06-8.49 4.7 11.66 22.93 2.82 3.39-1.37q7.54-9.41 15.1-18.79l-4.47-11.1Z"/><path class="cls6-2" d="M1604.05 1330.39q-16.14 19.84-32.27 39.71l82.54-33.26Z"/><path class="cls6-2" d="m1604 1330.76-50.77-6.24 82.53-33.26Z"/><path class="cls6-3" d="M1611 1322.29a5.48 5.48 0 0 0-4.89-1.61 8 8 0 0 1-9.61 3.87 5.48 5.48 0 0 0-2.41 4.56c.1 3.66 5.45 7.32 13.38 8.83 4.73-6.59 6.04-12.94 3.53-15.65"/><path class="cls6-1" d="m813.51 1468.49 45 41.08-74.22 81.43-45-41.07 19-20.8 11.5 10.49 27.11-9.17 3.06-3.35q3.38-14.55 6.76-29.09l-11-10Z"/><path class="cls6-2" d="M799.11 1529.22q-7.33 30.84-14.68 61.67l74.27-81.48Z"/><path class="cls6-2" d="m799.28 1529.66-60 20.31 74.27-81.48q-7.15 30.59-14.27 61.17"/><path class="cls6-3" d="M802.58 1516.43a6.77 6.77 0 0 0-6.33.82 10 10 0 0 1-8.66 9.49 6.81 6.81 0 0 0-.23 6.38c2.08 4 10 5.25 19.69 2.67 1.68-9.87-.26-17.67-4.47-19.36"/><path class="cls6-4" d="M1214.17 1534.69a53.42 53.42 0 0 1-29.88 17.45c-2.21.45-4.55.61-6.26-.7-1.87-1.45-2.25-4.13-2.21-7.08.26-19.65 10.31-31.92 10.31-31.92 1.55-1.89 12.42-14.87 23.79-14.79a12.84 12.84 0 0 1 13.25 10.51c2.69 10.84-7.1 24.06-9 26.53m4.69 54.08a53.5 53.5 0 0 1-30.86-15.67c-1.57-1.62-3-3.5-2.79-5.64.2-2.36 2.25-4.14 4.75-5.7 16.66-10.42 32.42-8.61 32.42-8.61 2.42.27 19.22 2.39 25.32 12a12.85 12.85 0 0 1-1.7 16.85c-7.6 8.09-24 7-27.14 6.77m-60.79 22.44a53.5 53.5 0 0 1 12.32-32.34c1.44-1.73 3.16-3.33 5.31-3.37 2.37 0 4.35 1.8 6.17 4.12 12.12 15.47 12 31.32 12 31.32 0 2.44-.35 19.37-9.25 26.45a12.82 12.82 0 0 1-16.91.12c-8.88-6.73-9.57-23.18-9.64-26.3m-4.58-95.06a53.4 53.4 0 0 1 13.78 31.74c.19 2.25.07 4.6-1.44 6.13-1.66 1.69-4.36 1.75-7.29 1.36-19.48-2.59-30.47-14-30.47-14-1.69-1.75-13.29-14.09-11.86-25.38a12.85 12.85 0 0 1 12-11.9c11.07-1.42 23.05 9.9 25.28 12.05m-15.72 82.61a53.5 53.5 0 0 0 25-24c1-2 1.83-4.21 1-6.21-.88-2.19-3.36-3.3-6.21-4.06-19-5.11-33.52 1.21-33.52 1.21-2.24 1-17.69 7.89-20.72 18.85a12.83 12.83 0 0 0 6.49 15.61c9.65 5.55 25.07-.25 27.96-1.4"/><circle class="cls6-1" cx="1173.27" cy="1563.41" r="5.59"/><path class="cls6-4" d="M1615.94 1165.5a53.42 53.42 0 0 1-29.88 17.45c-2.2.45-4.55.61-6.25-.7-1.87-1.45-2.26-4.13-2.22-7.08.26-19.65 10.31-31.92 10.31-31.92 1.55-1.89 12.42-14.87 23.8-14.79a12.84 12.84 0 0 1 13.24 10.51c2.69 10.82-7.1 24.03-9 26.53m4.69 54.08a53.47 53.47 0 0 1-30.85-15.67c-1.57-1.62-3-3.5-2.8-5.64.21-2.36 2.25-4.14 4.76-5.7 16.66-10.42 32.41-8.62 32.41-8.62 2.43.28 19.23 2.39 25.32 12a12.83 12.83 0 0 1-1.66 16.82c-7.64 8.12-24.07 7.06-27.18 6.81m-60.79 22.42a53.47 53.47 0 0 1 12.33-32.34c1.43-1.73 3.16-3.33 5.31-3.37 2.36 0 4.35 1.79 6.17 4.12 12.12 15.46 12 31.32 12 31.32 0 2.44-.34 19.37-9.25 26.45a12.84 12.84 0 0 1-16.9.12c-8.9-6.71-9.58-23.16-9.66-26.3m-4.57-95a53.47 53.47 0 0 1 13.78 31.74c.18 2.25.07 4.6-1.44 6.13-1.66 1.69-4.37 1.75-7.3 1.36-19.48-2.59-30.46-14-30.46-14-1.69-1.76-13.29-14.1-11.86-25.38a12.83 12.83 0 0 1 12-11.9c11.06-1.46 23.01 9.83 25.28 12.05m-15.72 82.56a53.4 53.4 0 0 0 24.94-24c1-2 1.83-4.21 1-6.21-.88-2.19-3.35-3.3-6.21-4.06-19-5.11-33.51 1.21-33.51 1.21-2.24 1-17.7 7.89-20.73 18.85a12.85 12.85 0 0 0 6.5 15.61c9.7 5.56 25.11-.24 28.01-1.4"/><circle class="cls6-1" cx="1575.05" cy="1194.22" r="5.59"/><path class="cls6-4" d="M892.31 1576.93a28.16 28.16 0 0 1-15.77 9.21 4.07 4.07 0 0 1-3.3-.37c-1-.77-1.19-2.18-1.17-3.74a28.93 28.93 0 0 1 5.45-16.84c.81-1 6.55-7.85 12.55-7.81a6.79 6.79 0 0 1 7 5.55c1.41 5.71-3.76 12.69-4.76 14m2.47 28.53a28.2 28.2 0 0 1-16.28-8.27 4 4 0 0 1-1.47-3c.11-1.25 1.19-2.18 2.51-3a28.9 28.9 0 0 1 17.1-4.54c1.28.14 10.15 1.26 13.36 6.33a6.77 6.77 0 0 1-.87 8.87c-4.03 4.31-12.71 3.75-14.35 3.61m-32.07 11.85a28.2 28.2 0 0 1 6.5-17.07 4 4 0 0 1 2.8-1.78c1.25 0 2.3 1 3.26 2.18a28.94 28.94 0 0 1 6.33 16.53c0 1.28-.18 10.22-4.88 13.95a6.79 6.79 0 0 1-8.92.07c-4.69-3.56-5.05-12.19-5.09-13.88m-2.42-50.16a28.2 28.2 0 0 1 7.28 16.75 4.07 4.07 0 0 1-.76 3.23c-.88.89-2.31.92-3.85.72a29 29 0 0 1-16.08-7.41c-.89-.92-7-7.43-6.26-13.39a6.79 6.79 0 0 1 6.34-6.28c5.83-.77 12.16 5.23 13.33 6.38m-8.29 43.58a28.15 28.15 0 0 0 13.16-12.65 4 4 0 0 0 .54-3.28c-.46-1.16-1.77-1.74-3.27-2.14a28.93 28.93 0 0 0-17.69.64c-1.18.51-9.33 4.16-10.93 9.94a6.78 6.78 0 0 0 3.42 8.24c5.11 2.93 13.24-.14 14.77-.75"/><circle class="cls6-1" cx="870.73" cy="1592.08" r="2.95"/><path class="cls6-1" d="m432.11 369 85.81 122.23L738.94 336l-85.81-122.2-56.42 39.61 21.92 31.22-30.69 63-9.09 6.37-72.79 7.4-20.87-29.7Z"/><path class="cls6-2" d="m584.14 352.85 154.38-16.54-221 155.17Z"/><path class="cls6-2" d="m585.14 353.38 68-139.58L432.11 369Z"/><path class="cls6-3" d="M552 357.28a16.67 16.67 0 0 1 4-15.12c3.89-4 10-5.52 16.17-4.34 1-6.26 4.52-11.44 9.58-13.74a16.67 16.67 0 0 1 15.57 1.41c9.17 6.31 9.65 26 .39 48.67-24.59 1.02-42.92-6.11-45.71-16.88"/><path class="cls6-1" d="m462.1 607.8-15.68 46.64-84.34-28.36 15.68-46.64 21.53 7.24-4 11.92 15.59 17 3.47 1.16 23.65-4.42 3.85-11.34Z"/><path class="cls6-2" d="m412.56 616.93-50.32 9.21 84.34 28.36Z"/><path class="cls6-2" d="m412.3 617.19-34.54-37.75 84.34 28.36Z"/><path class="cls6-3" d="M423.14 615.32a5.47 5.47 0 0 0-2.66-4.41 5.88 5.88 0 0 0-5.52.14 5.82 5.82 0 0 0-4.31-3.44 5.48 5.48 0 0 0-4.79 1.9c-2.3 2.85-.62 9.11 4.43 15.41 7.84-1.92 12.97-5.92 12.85-9.6"/><path class="cls6-1" d="m1213.17 328.46 51.72 32.28-58.36 93.52-51.72-32.26 14.9-23.88 13.21 8.25 25-13.91 2.4-3.84 1.41-29.84-12.58-7.85Z"/><path class="cls6-2" d="M1210 390.79q-1.65 31.65-3.32 63.3l58.32-93.53Z"/><path class="cls6-2" d="m1210.21 391.18-55.4 30.82 58.36-93.53q-1.47 31.36-2.96 62.71"/><path class="cls6-3" d="M1211.06 377.58a6.78 6.78 0 0 0-6.08 1.95 7.27 7.27 0 0 0-1.41 6.68 7.25 7.25 0 0 0-5.38 4.21 6.82 6.82 0 0 0 .91 6.32c2.78 3.6 10.8 3.36 19.85-.92-.12-10.02-3.44-17.33-7.89-18.24"/><path class="cls6-4" d="M794.77 400.1a53.45 53.45 0 0 1 29.28-18.44c2.19-.52 4.53-.76 6.28.5 1.92 1.38 2.39 4 2.45 7 .39 19.65-9.25 32.24-9.25 32.24-1.48 1.94-11.91 15.28-23.28 15.58a12.85 12.85 0 0 1-13.59-10.06c-3.05-10.73 6.34-24.29 8.11-26.82m-6.48-53.89a53.44 53.44 0 0 1 31.35 14.63c1.63 1.56 3.1 3.4 3 5.55-.12 2.36-2.11 4.2-4.56 5.85-16.3 11-32.11 9.69-32.11 9.69-2.43-.2-19.29-1.75-25.7-11.15a12.84 12.84 0 0 1 1.1-16.87c7.34-8.37 23.8-7.86 26.92-7.7m60-24.46a53.44 53.44 0 0 1-11.24 32.73c-1.38 1.78-3 3.44-5.19 3.55-2.37.13-4.41-1.65-6.31-3.91-12.63-15.05-13-30.91-13-30.91-.06-2.44-.3-19.37 8.37-26.74a12.85 12.85 0 0 1 16.89-.68c9.07 6.43 10.3 22.85 10.48 25.96m7.71 94.86a53.47 53.47 0 0 1-14.83-31.27c-.26-2.24-.22-4.59 1.24-6.17 1.6-1.74 4.3-1.9 7.24-1.6 19.55 1.94 30.92 13 30.92 13 1.75 1.7 13.75 13.65 12.7 25a12.83 12.83 0 0 1-11.61 12.29c-10.98 1.74-23.33-9.15-25.66-11.25m13-83.08a53.4 53.4 0 0 0-24.13 24.8c-1 2-1.69 4.27-.82 6.24 1 2.16 3.46 3.18 6.34 3.85 19.13 4.48 33.46-2.32 33.46-2.32 2.2-1.05 17.42-8.48 20.08-19.53a12.85 12.85 0 0 0-7-15.39c-9.87-5.18-25.08 1.1-27.93 2.35"/><circle class="cls6-1" cx="834.69" cy="370.04" r="5.59"/><path class="cls6-4" d="M405.51 782.46A53.42 53.42 0 0 1 434.79 764c2.19-.53 4.53-.77 6.28.49 1.92 1.38 2.39 4.05 2.45 7 .39 19.65-9.25 32.25-9.25 32.25-1.48 1.96-11.91 15.26-23.27 15.6a12.82 12.82 0 0 1-13.59-10.06c-3.06-10.72 6.28-24.28 8.1-26.82M399 728.57a53.43 53.43 0 0 1 31.36 14.64c1.63 1.56 3.1 3.39 3 5.54-.12 2.36-2.11 4.21-4.56 5.85-16.3 11-32.11 9.69-32.11 9.69-2.43-.2-19.29-1.75-25.7-11.15a12.83 12.83 0 0 1 1.1-16.86c7.36-8.38 23.82-7.86 26.91-7.71m60-24.45a53.44 53.44 0 0 1-11.24 32.73c-1.38 1.78-3 3.43-5.19 3.55-2.37.12-4.41-1.66-6.31-3.92-12.63-15.05-13-30.91-13-30.91-.06-2.43-.3-19.37 8.37-26.73a12.83 12.83 0 0 1 16.89-.69c9.1 6.43 10.33 22.85 10.48 25.97m7.77 94.88a53.47 53.47 0 0 1-14.83-31.27c-.26-2.23-.22-4.58 1.24-6.17s4.3-1.89 7.24-1.6c19.55 1.94 30.92 13 30.92 13 1.75 1.7 13.75 13.64 12.7 25a12.85 12.85 0 0 1-11.61 12.29c-11.01 1.75-23.36-9.18-25.66-11.25m12.96-83.11a53.47 53.47 0 0 0-24.13 24.8c-1 2-1.69 4.27-.82 6.24 1 2.17 3.46 3.18 6.34 3.86 19.13 4.47 33.46-2.33 33.46-2.33 2.2-1 17.42-8.47 20.08-19.53a12.83 12.83 0 0 0-7-15.38c-9.86-5.22-25.07 1.09-27.93 2.34"/><circle class="cls6-1" cx="445.43" cy="752.4" r="5.59"/><path class="cls6-4" d="M1115 347.17a28.2 28.2 0 0 1 15.46-9.73 4.06 4.06 0 0 1 3.31.26c1 .73 1.26 2.14 1.29 3.7a28.93 28.93 0 0 1-4.88 17c-.78 1-6.29 8.06-12.29 8.22a6.78 6.78 0 0 1-7.17-5.31c-1.57-5.65 3.36-12.8 4.28-14.14m-3.38-28.44a28.28 28.28 0 0 1 16.55 7.72 4 4 0 0 1 1.57 2.93c-.06 1.25-1.11 2.22-2.41 3.09a28.9 28.9 0 0 1-16.94 5.11c-1.28-.1-10.18-.92-13.56-5.88a6.75 6.75 0 0 1 .58-8.9c3.88-4.42 12.59-4.15 14.21-4.07m31.66-12.9a28.2 28.2 0 0 1-5.92 17.27 4 4 0 0 1-2.75 1.87c-1.24.07-2.32-.87-3.32-2.06a29 29 0 0 1-6.88-16.31c0-1.29-.16-10.22 4.42-14.11a6.78 6.78 0 0 1 8.91-.37c4.8 3.4 5.45 12.07 5.54 13.71m4.09 50.05a28.26 28.26 0 0 1-7.83-16.5 4.06 4.06 0 0 1 .66-3.26c.84-.91 2.27-1 3.82-.84a28.9 28.9 0 0 1 16.31 6.86c.92.9 7.26 7.2 6.7 13.18a7.23 7.23 0 0 1-1.66 4.2 7.35 7.35 0 0 1-4.46 2.29c-5.81.93-12.33-4.81-13.54-5.93m6.84-43.88a28.18 28.18 0 0 0-12.74 13.09 4 4 0 0 0-.43 3.29c.5 1.14 1.83 1.68 3.35 2a28.94 28.94 0 0 0 17.65-1.23c1.16-.55 9.19-4.47 10.6-10.31a7.27 7.27 0 0 0-.22-4.52 7.36 7.36 0 0 0-3.48-3.6c-5.2-2.67-13.22.66-14.73 1.28"/><circle class="cls6-1" cx="1136.11" cy="331.31" r="2.95"/><path class="cls6-2" d="M1067.07 1492.26c-6.41-9.12-20.71-18.85-37-17.67-14.56 1.05-27.9 10.59-36.09 25.07-14.27-8.57-30.57-10.31-43.76-4.06-14.79 7-22.44 22.51-23.54 33.61-2.89 29.07 35.72 63.33 96.91 83.19h.09c43.47-47.4 60.21-96.25 43.39-120.14m614.32 14.24c-.65-9.42-6.75-22.76-19.09-29.06-11-5.63-24.88-4.57-37.18 2.33-6.58-12.47-17.64-20.89-29.94-22.15-13.8-1.41-26.16 6.47-31.82 14-14.86 19.82-1.9 61.6 33.74 102.86h.08c52.34-15.22 85.92-43.27 84.21-67.98m-162.54-127.98c-5-3-13.8-4.54-21.28-.52-6.67 3.58-11 10.93-11.78 19.52-8.57-1-16.67 1.6-21.59 7.35-5.52 6.45-5.86 15.42-4 20.9 4.8 14.38 30.34 22.43 63.53 18.87 10.56-31.64 8.15-58.37-4.88-66.12M1637.08 1097a12 12 0 0 0-1.2-11.16c-2.33-3.25-6.47-5-11-4.82 0-4.55-2-8.6-5.33-10.78a12 12 0 0 0-11.21-.66c-7.19 3.5-9.63 17.41-5.48 34.52 17.29 3.3 31.07.2 34.22-7.1m-882.52 510.2c.7-5.55-1.3-14-7.74-19.07-5.75-4.54-13.92-5.51-21.85-2.93-2.39-8-7.84-14.15-14.84-16.3-7.84-2.41-15.92.75-20.08 4.48-10.91 9.8-8.2 35.55 7.75 63.6 32.2-2.82 54.9-15.24 56.76-29.78M1061.2 322.57c-6.52-9-20.94-18.6-37.24-17.22-14.54 1.22-27.77 10.92-35.79 25.5-14.36-8.4-30.69-9.94-43.81-3.53-14.7 7.18-22.16 22.78-23.13 33.89-2.53 29.1 36.49 62.9 97.91 82h.1c42.91-47.93 59.07-96.96 41.96-120.64M329.65 457c1-9.4 7.5-22.52 20.05-28.41 11.2-5.26 25-3.74 37.08 3.57 7-12.25 18.32-20.3 30.66-21.15 13.84-1 25.92 7.35 31.34 15.09 14.18 20.3-.15 61.63-37.16 101.68h-.08c-51.8-16.96-84.42-46.11-81.89-70.78m219.17 130.92c1.14-5.67-.31-14.53-6.58-20.25-5.6-5.1-14-6.71-22.33-4.62-1.87-8.43-7-15.18-14.1-17.92-7.92-3.06-16.49-.39-21.06 3.15-12 9.31-11.07 36.07 3.32 66.19 33.42-.54 57.77-11.69 60.75-26.55M415 851.25a12 12 0 0 0-11.17-1.19c-3.66 1.6-6.23 5.28-7 9.76-4.46-.91-8.83.12-11.66 2.93a12 12 0 0 0-3 10.82c1.9 7.76 15 13.09 32.58 12.65 6.87-16.22 6.75-30.33.25-34.97m919.25-543.56c.37-5.58-2.12-13.89-8.86-18.58-6-4.19-14.21-4.68-22-1.63-2.85-7.84-8.66-13.67-15.77-15.4-8-1.94-15.86 1.69-19.79 5.67-10.31 10.42-6.08 36 11.5 63h.05c31.93-4.69 53.88-18.44 54.87-33.06"/></g></g></svg>