<svg xmlns="http://www.w3.org/2000/svg" viewBox="0 0 2000 2000" width="300" height="300" fill="none"><defs><style>.cls-hun11{fill:#301515}.cls-hun12{fill:#1c0b0b}.cls-hun13{fill:#a51313}.cls-hun14{fill:#c41e1a}</style></defs><path d="M457.4 851.1h75.25v748.27H457.4z" class="cls-hun14"/><path d="M1670.84 695.74c-8.83 0-17.66-.02-26.49-.03-437.34-.48-874.68-.95-1312.02-1.44 28.98-33.61 57.96-67.23 86.94-100.84 2.55-2.96 5.11-5.92 7.65-8.88l50.1-58.11c3.76-4.35 7.5-8.7 11.25-13.05 14.79-17.16 29.58-34.31 44.38-51.47h941.75c-2.78 7.6-6.19 20.17-4.86 35.43.41 4.7 1.33 14.24 6.58 25.21 2.25 4.7 4.67 8.38 6.58 10.96 2.19-2.56 4.38-5.11 6.58-7.67-1.56 8.06-1.78 17.53 3.29 25.21 3.32 5.03 6.16 5.1 18.63 14.25 11.97 8.78 12.43 10.96 21.79 17.22 10.25 6.86 18.74 10.29 20.95 11.27 12.85 5.69 43.98 30.3 116.9 101.93Z" class="cls-hun11"/><path d="M1406.65 851.1h75.25v748.27h-75.25z" class="cls-hun14"/><path d="M1481.9 978.62V851.1h-75.26v153.63c15.25 1.67 30.46 3.45 45.65 5.24v-31.34h29.6ZM532.65 851.1h-75.26v127.52H487v86.5c15.25 1.56 30.46 2.69 45.64 3.48V851.09Z" class="cls-hun13"/><path d="M1481.09 925.64h-72.76c-5.38 0-10.35-8.56-13.04-22.46l-8.79-45.45c-5.78-29.92 1.46-67.31 13.04-67.31H1489c11.29 0 18.56 35.69 13.36 65.57-2.64 15.15-5.28 30.3-7.91 45.45-2.59 14.87-7.74 24.2-13.36 24.2" class="cls-hun11"/><path d="M1502.37 856.06c-2.65 15.16-5.28 30.3-7.92 45.46-.66 3.78-1.48 7.2-2.44 10.2.57-3.88 1.15-7.75 1.72-11.63 4.42-29.87-1.76-65.57-11.37-65.57h-76.16c-9.87 0-16.02 37.38-11.1 67.31.12.72.23 1.43.35 2.15-.06-.24-.1-.48-.15-.74l-8.79-45.45c-5.78-29.93 1.46-67.31 13.04-67.31h89.46c11.29 0 18.56 35.7 13.36 65.57Z" class="cls-hun12"/><path d="M531.84 925.64h-72.76c-5.38 0-10.35-8.56-13.04-22.46l-8.79-45.45c-5.78-29.92 1.46-67.31 13.04-67.31h89.46c11.29 0 18.56 35.69 13.36 65.57-2.64 15.15-5.28 30.3-7.91 45.45-2.59 14.87-7.74 24.2-13.36 24.2" class="cls-hun11"/><path d="M553.12 855.99c-2.65 15.16-5.28 30.3-7.92 45.46-.66 3.78-1.48 7.2-2.44 10.2.57-3.88 1.15-7.75 1.72-11.63 4.42-29.87-1.76-65.57-11.37-65.57h-76.16c-9.87 0-16.02 37.38-11.1 67.31.12.72.23 1.43.35 2.15-.06-.24-.1-.48-.15-.74l-8.79-45.45c-5.78-29.93 1.46-67.31 13.04-67.31h89.46c11.29 0 18.56 35.7 13.36 65.57Z" class="cls-hun12"/><path d="M1590.17 811.48c-420.02 1.43-840.03 2.85-1260.05 4.28 42.58-42.46 85.17-84.92 127.75-127.37 344.86-2.05 689.71-4.09 1034.57-6.13 32.58 43.07 65.15 86.15 97.73 129.22" class="cls-hun14"/><path d="M1572.78 788.47c-20.36-8.98-40.72-17.96-61.09-26.94a773 773 0 0 1-30.48 15.57c-16.12 7.79-25.28 11.53-36.93 12.8-3.06.34-6.17.5-9.31.5-30.84 0-57.92-16.07-73.35-40.29-15.42 24.22-42.51 40.29-73.35 40.29s-57.93-16.07-73.34-40.3c-15.42 24.23-42.51 40.3-73.35 40.3s-57.93-16.07-73.35-40.29c-15.42 24.22-42.51 40.29-73.35 40.29s-57.92-16.07-73.34-40.29c-15.43 24.22-42.51 40.29-73.35 40.29s-57.93-16.07-73.35-40.29c-15.42 24.22-42.51 40.29-73.35 40.29s-57.93-16.07-73.35-40.3c-15.41 24.23-42.5 40.3-73.34 40.3-22.78 0-43.5-8.77-59-23.11a87 87 0 0 1-14.35-17.19c-5.13 8.06-13.25 18.09-25.67 26.06-38.81 24.89-84.6 7.14-90.67 4.67 23.05-29.27 46.11-58.54 69.16-87.81 361.51 2.85 723.02 5.71 1084.52 8.56 17.98 28.96 35.97 57.91 53.95 86.87Z" class="cls-hun13"/><path d="M1521.57 682.25H321.54c3.65 44.63 41.03 79.72 86.6 79.72 30.84 0 57.93-16.07 73.34-40.3a86.7 86.7 0 0 0 14.34 17.18c15.5 14.35 36.22 23.11 59 23.11 30.84 0 57.93-16.07 73.34-40.3 15.42 24.23 42.5 40.3 73.34 40.3s57.93-16.07 73.35-40.29c15.42 24.22 42.5 40.29 73.34 40.29s57.93-16.07 73.34-40.29c15.42 24.22 42.51 40.29 73.34 40.29s57.93-16.07 73.34-40.29c15.42 24.22 42.51 40.29 73.35 40.29s57.93-16.07 73.34-40.3c15.41 24.23 42.5 40.3 73.34 40.3s57.93-16.07 73.35-40.29c15.42 24.22 42.5 40.29 73.34 40.29 3.14 0 6.25-.16 9.3-.5 26.93-2.85 50.19-18.04 64.04-39.79 15.42 24.22 42.5 40.29 73.34 40.29 45.57 0 82.94-35.08 86.59-79.72h-146.69Z" class="cls-hun12"/><path d="M1521.57 660.41H321.54c3.65 44.63 41.03 79.72 86.6 79.72 30.84 0 57.93-16.07 73.34-40.3a86.7 86.7 0 0 0 14.34 17.18c15.5 14.35 36.22 23.11 59 23.11 30.84 0 57.93-16.07 73.34-40.3 15.42 24.23 42.5 40.3 73.34 40.3s57.93-16.07 73.35-40.29c15.42 24.22 42.5 40.29 73.34 40.29s57.93-16.07 73.34-40.29c15.42 24.22 42.51 40.29 73.34 40.29s57.93-16.07 73.34-40.29c15.42 24.22 42.51 40.29 73.35 40.29s57.93-16.07 73.34-40.3c15.41 24.23 42.5 40.3 73.34 40.3s57.93-16.07 73.35-40.29c15.42 24.22 42.5 40.29 73.34 40.29 3.14 0 6.25-.16 9.3-.5 26.93-2.85 50.19-18.04 64.04-39.79 15.42 24.22 42.5 40.29 73.34 40.29 45.57 0 82.94-35.08 86.59-79.72h-146.69Z" class="cls-hun11"/><path d="M1614.32 615.4a148 148 0 0 0-62.57-22.21c2.55 3.94 2.54 5.81 1.9 6.78-1.29 1.93-4.98.09-10.16 1.39-4.21 1.06-4.04 2.84-10.49 6.76-5.5 3.34-10.4 4.93-14.59 6.3a87 87 0 0 1-17.68 3.78c-3.05.34-6.16.5-9.3.5-30.84 0-57.93-16.07-73.34-40.29-15.42 24.22-42.51 40.29-73.35 40.29s-57.93-16.07-73.34-40.3c-15.42 24.23-42.5 40.3-73.34 40.3s-57.93-16.07-73.35-40.29c-15.42 24.22-42.5 40.29-73.34 40.29s-57.92-16.07-73.34-40.29c-15.42 24.22-42.5 40.29-73.34 40.29s-57.93-16.07-73.34-40.29c-15.42 24.22-42.51 40.29-73.35 40.29s-57.93-16.07-73.34-40.3c-15.41 24.23-42.5 40.3-73.34 40.3-22.78 0-43.5-8.76-59-23.11a86.6 86.6 0 0 1-14.34-17.18c-12.3 19.34-32.05 33.49-55.21 38.4a87.4 87.4 0 0 1-18.14 1.9c-3.78 0-7.49-.24-11.14-.71a86.4 86.4 0 0 1-34.17-12.03 87 87 0 0 1-15.23-11.83c2.58-2.06 5.16-4.18 7.75-6.35a529 529 0 0 0 23.93-21.27c8.99-8.48 18.09-17.63 27.25-27.53 348.68 3.82 697.35 7.65 1046.03 11.47.74 3.75 2.04 8.3 4.38 13.15 5.22 10.81 12.87 17.42 17.54 20.82s11.51 9.42 12.06 9.86c6.18 5.03 23.75 12 71.34 21.11Z" class="cls-hun12"/><path d="M1551.74 580.67c-.71-3.03-2.07-6.87-4.81-7.6-3.56-.96-6 4.25-13.95 9.48-6.95 4.58-13.73 6.29-20.15 7.92-3.94 1-7.99 1.73-12.12 2.16-1.82.2-3.65.34-5.49.41-1.27.06-2.53.09-3.81.09-30.84 0-57.93-16.06-73.34-40.29-15.42 24.23-42.51 40.29-73.35 40.29s-57.93-16.06-73.34-40.3c-15.42 24.24-42.5 40.3-73.34 40.3s-57.93-16.06-73.35-40.29c-15.42 24.23-42.5 40.29-73.34 40.29s-57.92-16.06-73.34-40.29c-15.42 24.23-42.5 40.29-73.34 40.29s-57.93-16.06-73.34-40.29c-15.42 24.23-42.51 40.29-73.35 40.29s-57.93-16.06-73.34-40.3c-15.41 24.24-42.5 40.3-73.34 40.3-22.78 0-43.5-8.76-59-23.11a86.6 86.6 0 0 1-14.34-17.18 87.3 87.3 0 0 1-33.93 30.87c-11.83 6.03-25.22 9.43-39.41 9.43-3.78 0-7.49-.24-11.14-.71a86.2 86.2 0 0 1-26.51-7.86 85.7 85.7 0 0 1-15.13-9.31 529 529 0 0 0 23.93-21.27c8.99-8.48 18.09-17.63 27.25-27.53 3.91-4.21 7.83-8.56 11.75-13.05 338.19 4.15 676.37 8.31 1014.56 12.46 5 5.85 11.15 12.24 18.63 18.63a167.7 167.7 0 0 0 30.69 20.82l13.15 15.34Zm-133.94-199.1H582.55l-15.51-47.12 869.08.72c-6.11 15.46-12.21 30.93-18.32 46.4" class="cls-hun11"/><path d="M1377.13 381.72c-3.9 30.15-7.8 60.3-11.69 90.45l-772.77.72a776 776 0 0 1-28.4 40.52c-3.21 4.27-6.55 8.63-10.02 13.05a701 701 0 0 1-22.76 27.53 654 654 0 0 1-27.5 29.71c-6.79 6.9-13.88 13.77-21.28 20.58-10.61 9.77-21.83 19.4-33.68 28.72-29.57 23.25-63.01 44.55-100.38 61.3-20.37 9.14-41.92 16.91-64.64 22.92-42.09 11.13-139.25 36.82-194.88-13.51-5.69-5.15-38.7-36.21-30.15-69.78 8.16-32.1 51.16-54.08 83.29-43.84 2.12.68 27.09 9.02 32.15 29.22 5.64 22.54-18.7 38.97-13.81 48.87 7.33 14.87 74.65 3.07 133.64-21.1 25.05-10.27 57.35-26.36 93.2-52.7 5.45-4.01 10.99-8.26 16.6-12.76 2.58-2.06 5.16-4.18 7.75-6.35A529 529 0 0 0 435.73 554c8.99-8.48 18.09-17.63 27.25-27.53 0 0 5.82-6.28 11.75-13.05 13.46-15.38 53.79-64.75 107.48-131.84l794.93.15Z" class="cls-hun14"/><path d="M634.57 384.49v87.68l772.77.72a776 776 0 0 0 28.4 40.52c3.21 4.27 6.55 8.63 10.02 13.05 7.03 8.96 14.62 18.18 22.76 27.53 8.55 9.82 17.71 19.78 27.5 29.71 6.79 6.9 13.88 13.77 21.28 20.58 10.61 9.77 21.83 19.4 33.68 28.72 29.57 23.25 63.01 44.55 100.38 61.3 20.37 9.14 41.92 16.91 64.64 22.92 42.09 11.13 139.25 36.82 194.88-13.51 5.69-5.15 38.7-36.21 30.15-69.78-8.16-32.1-51.16-54.08-83.29-43.84-2.12.68-27.09 9.02-32.15 29.22-5.64 22.54 18.7 38.97 13.81 48.87-7.33 14.87-74.65 3.07-133.64-21.1-25.05-10.27-57.35-26.36-93.2-52.7-5.45-4.01-10.99-8.26-16.6-12.76-2.58-2.06-5.16-4.18-7.75-6.35a529 529 0 0 1-23.93-21.27 570 570 0 0 1-27.25-27.53s-5.82-6.28-11.75-13.05c-13.46-15.38-53.79-64.75-107.48-131.84-261.08.97-522.16 1.95-783.24 2.92ZM457.4 1599.37h1024.51v66.17H457.4z" class="cls-hun14"/><path d="M1406.65 1599.38h-874v-530.77c-15.19-.8-30.4-1.92-45.64-3.48v573.32h965.29v-628.48c-15.19-1.78-30.4-3.57-45.65-5.24z" class="cls-hun13"/><circle cx="125.64" cy="623.25" r="29.36" class="cls-hun11"/><circle cx="1866.21" cy="623.25" r="29.36" class="cls-hun11"/><path d="M1378.98 427.62a4949 4949 0 0 1-379.58 16.41c-135.45.65-262.81-4.29-381.01-12.84-8.57 13.9-17.15 27.8-25.72 41.7h813.98c-9.22-15.09-18.45-30.18-27.67-45.27" class="cls-hun13"/></svg>