<svg xmlns="http://www.w3.org/2000/svg" viewBox="0 0 2000 2000" width="300" height="300" fill="none"><defs><style>.cls-son21{fill:#ff6d28}.cls-son22{fill:#af0b69}.cls-son23{fill:#ea047e}.cls-son25{fill:#00f5ff}.cls-son26{fill:#fce700}</style></defs><path d="M579.94 358.45 492.9 202.84l197.87 15.94zm794.68 5.25-113.33-137.64 197.54-19.52z" class="cls-son26"/><path d="m773.06 373.79-94.32-151.3 198.39 6.54zm800.38-32.01-120.17-131.72 196.3-29.51z" class="cls-son21"/><path d="M969.68 382.34 872.2 233.05l198.49 2.37z" class="cls-son25"/><path d="m390.82 341.84-80.61-159.03 197.05 24.01zm777.19 35.18-100.4-147.33 198.49-1.55z" class="cls-son23"/><path d="M994.77 238.34c-243.65 0-488.46-20.9-728.7-62.24-5.04-.87-8.43-5.66-7.56-10.71.87-5.04 5.66-8.43 10.71-7.56 259.12 44.59 523.61 65.29 786.15 61.54 222.18-3.18 445.98-23.97 665.18-61.78 5.04-.87 9.84 2.51 10.71 7.56.87 5.04-2.51 9.84-7.56 10.71-220.15 37.98-444.92 58.85-668.07 62.05-20.26.29-40.57.44-60.86.44Z" class="cls-son22"/><path d="M367.64 195.83c-.93 0-1.8-.6-2.08-1.54-.65-2.1-1.27-4.24-1.84-6.36-.31-1.16.37-2.36 1.54-2.67 1.16-.31 2.36.37 2.67 1.54.56 2.07 1.16 4.16 1.8 6.21a2.19 2.19 0 0 1-2.08 2.83Zm173.19 131.48h-.02c-3.44-.04-6.91-.18-10.34-.41-.91-.06-1.81-.13-2.72-.21-1.2-.1-2.09-1.16-1.99-2.36s1.16-2.1 2.36-1.99c.88.07 1.76.14 2.65.2 3.35.23 6.74.36 10.09.4 1.2.01 2.17 1 2.16 2.2a2.18 2.18 0 0 1-2.18 2.16Zm12.91-.33c-1.14 0-2.1-.89-2.17-2.05-.07-1.2.84-2.24 2.04-2.31 4.22-.26 8.5-.68 12.7-1.24 1.2-.17 2.29.68 2.45 1.87s-.68 2.29-1.87 2.45c-4.3.58-8.68 1.01-13.01 1.27h-.14Zm-38.62-1.83c-.11 0-.23 0-.34-.03-4.28-.67-8.6-1.51-12.83-2.5a2.183 2.183 0 0 1-1.63-2.62c.27-1.17 1.45-1.9 2.62-1.63 4.13.96 8.34 1.78 12.52 2.44 1.19.19 2 1.3 1.82 2.49a2.18 2.18 0 0 1-2.15 1.84Zm64.21-1.61c-1.01 0-1.92-.71-2.13-1.74-.25-1.18.51-2.33 1.69-2.58 4.14-.86 8.31-1.89 12.39-3.04 1.16-.33 2.36.34 2.69 1.5a2.17 2.17 0 0 1-1.5 2.69c-4.18 1.19-8.45 2.23-12.69 3.12-.15.03-.3.05-.45.05m-89.34-4.24c-.21 0-.43-.03-.65-.1-4.14-1.28-8.29-2.73-12.34-4.31a2.178 2.178 0 1 1 1.58-4.06c3.95 1.54 8 2.96 12.04 4.21 1.15.36 1.79 1.58 1.44 2.73-.29.94-1.15 1.54-2.08 1.54Zm114.18-2.81a2.179 2.179 0 0 1-.74-4.23c3.98-1.44 7.96-3.04 11.84-4.76 1.1-.49 2.39 0 2.88 1.11.49 1.1 0 2.39-1.11 2.88-3.97 1.76-8.05 3.4-12.12 4.88-.24.09-.5.13-.74.13Zm-138.22-6.57c-.31 0-.63-.07-.93-.21-3.92-1.86-7.82-3.89-11.6-6.02a2.18 2.18 0 1 1 2.14-3.8c3.69 2.08 7.5 4.06 11.33 5.88a2.18 2.18 0 0 1 1.03 2.91c-.37.79-1.16 1.25-1.97 1.25Zm161.82-3.89a2.18 2.18 0 0 1-1.02-4.11c3.74-1.98 7.46-4.12 11.06-6.36 1.02-.64 2.37-.32 3 .7.64 1.02.32 2.37-.7 3-3.68 2.29-7.49 4.49-11.32 6.51-.33.17-.67.25-1.02.25Zm-184.3-8.79c-.41 0-.83-.12-1.2-.36-3.61-2.39-7.2-4.94-10.64-7.58a2.183 2.183 0 1 1 2.65-3.47c3.37 2.58 6.87 5.07 10.4 7.4a2.179 2.179 0 0 1-1.2 4Zm206.21-4.84c-.68 0-1.34-.31-1.77-.9-.71-.98-.49-2.34.49-3.04 3.43-2.48 6.82-5.11 10.08-7.83.93-.77 2.3-.65 3.07.28s.65 2.3-.28 3.07c-3.33 2.78-6.81 5.47-10.31 8.01-.39.28-.83.41-1.28.41m-226.7-10.84c-.51 0-1.03-.18-1.44-.54-3.25-2.87-6.45-5.89-9.49-8.97a2.17 2.17 0 0 1 .02-3.08 2.17 2.17 0 0 1 3.08.02c2.98 3.01 6.1 5.96 9.28 8.77.9.8.99 2.17.19 3.08-.43.49-1.03.74-1.64.74Zm246.53-5.68c-.57 0-1.15-.22-1.58-.67-.83-.87-.8-2.25.07-3.08 3.06-2.93 6.05-6 8.91-9.14a2.182 2.182 0 0 1 3.23 2.93 187 187 0 0 1-9.12 9.35c-.42.4-.97.61-1.51.61m-264.66-12.69c-.61 0-1.22-.26-1.65-.76-2.83-3.29-5.58-6.72-8.17-10.19-.72-.96-.52-2.33.44-3.05.97-.72 2.33-.52 3.05.44 2.53 3.39 5.22 6.74 7.99 9.96a2.185 2.185 0 0 1-1.65 3.61Zm282.03-6.4c-.47 0-.95-.15-1.35-.47-.94-.75-1.1-2.12-.36-3.06 2.63-3.32 5.18-6.78 7.57-10.27.68-.99 2.04-1.25 3.03-.57s1.25 2.04.57 3.03c-2.45 3.58-5.06 7.11-7.75 10.51-.43.54-1.07.83-1.71.83m-297.47-14.28c-.72 0-1.42-.35-1.83-1-2.35-3.64-4.6-7.42-6.7-11.21-.58-1.05-.2-2.38.86-2.96 1.05-.58 2.38-.2 2.96.86 2.05 3.71 4.25 7.4 6.55 10.96a2.18 2.18 0 0 1-1.83 3.36Zm-12.47-22.6c-.82 0-1.61-.47-1.98-1.26-1.83-3.93-3.54-7.97-5.1-12.03-.43-1.12.13-2.39 1.25-2.82s2.39.13 2.82 1.25c1.52 3.96 3.2 7.91 4.99 11.75.51 1.09.03 2.39-1.06 2.9-.3.14-.61.2-.92.2Zm324.53 15.55c-.38 0-.76-.1-1.1-.3a2.183 2.183 0 0 1-.77-2.99c1.09-1.85 2.16-3.74 3.19-5.63l1.83-3.36 1.96 3.29c1.06 1.78 2.19 3.56 3.44 5.43.67 1 .4 2.36-.6 3.03s-2.36.4-3.02-.6q-.825-1.23-1.59-2.43-.72 1.26-1.44 2.49c-.41.69-1.13 1.08-1.88 1.08Zm132.45 70.29c-2.49 0-5.01-.06-7.49-.19a2.19 2.19 0 0 1-2.07-2.29c.06-1.2 1.08-2.12 2.29-2.07 4.23.22 8.54.24 12.78.08 1.2-.02 2.22.89 2.26 2.09.05 1.2-.89 2.22-2.09 2.26-1.88.07-3.79.11-5.68.11Zm18.52-1.18a2.178 2.178 0 0 1-.27-4.34c4.2-.54 8.44-1.27 12.59-2.17 1.17-.26 2.34.49 2.59 1.67.26 1.18-.49 2.34-1.67 2.59-4.28.93-8.64 1.68-12.97 2.24-.09.01-.19.02-.28.02Zm-38.81-.25c-.1 0-.21 0-.31-.02l-1.46-.21c-3.86-.59-7.72-1.34-11.48-2.24a2.184 2.184 0 1 1 1.01-4.25 138 138 0 0 0 12.54 2.38c1.19.17 2.02 1.28 1.85 2.47a2.18 2.18 0 0 1-2.16 1.87Zm64.13-5.25c-.93 0-1.79-.6-2.08-1.54-.36-1.15.29-2.37 1.44-2.73 4.05-1.25 8.1-2.69 12.04-4.29 1.12-.45 2.39.09 2.84 1.21s-.09 2.39-1.21 2.84c-4.06 1.64-8.23 3.12-12.39 4.41-.21.07-.43.1-.65.1Zm-89.34-.75c-.23 0-.47-.04-.7-.12-4.13-1.39-8.26-3-12.27-4.79-1.1-.49-1.6-1.78-1.11-2.88s1.78-1.6 2.88-1.11c3.89 1.73 7.9 3.29 11.9 4.64 1.14.39 1.75 1.62 1.37 2.76-.31.91-1.16 1.48-2.07 1.48Zm113.38-8.95a2.18 2.18 0 0 1-.98-4.13c3.78-1.91 7.55-4 11.18-6.21 1.03-.63 2.37-.3 3 .72.63 1.03.3 2.37-.73 3-3.73 2.28-7.6 4.43-11.49 6.39-.31.16-.65.23-.98.23m-137.07-1.55c-.36 0-.72-.09-1.06-.27a156 156 0 0 1-11.22-6.88c-1-.67-1.26-2.03-.59-3.03s2.03-1.26 3.03-.59c3.55 2.39 7.22 4.64 10.9 6.68a2.19 2.19 0 0 1 .85 2.97c-.4.72-1.14 1.12-1.91 1.12m159.19-11.95c-.67 0-1.34-.31-1.77-.9-.71-.97-.49-2.34.48-3.05 3.43-2.49 6.8-5.15 10.04-7.92a2.182 2.182 0 0 1 2.83 3.32c-3.32 2.84-6.79 5.58-10.31 8.14a2.2 2.2 0 0 1-1.28.42Zm-180.71-2.52c-.48 0-.96-.16-1.36-.48-3.38-2.71-6.73-5.6-9.94-8.6a2.17 2.17 0 0 1-.1-3.08c.82-.88 2.2-.92 3.08-.1 3.13 2.93 6.39 5.75 9.68 8.38.94.75 1.09 2.12.34 3.07-.43.54-1.06.82-1.71.82Zm200.39-14.33a2.179 2.179 0 0 1-1.54-3.72c2.99-3 5.91-6.16 8.67-9.4.78-.91 2.16-1.02 3.07-.24.92.78 1.03 2.16.24 3.07a173 173 0 0 1-8.9 9.65c-.43.43-.99.64-1.54.64m-219.34-3.38c-.59 0-1.18-.24-1.61-.7-2.96-3.22-5.83-6.58-8.53-10-.75-.95-.59-2.32.36-3.06.95-.75 2.32-.59 3.06.36 2.63 3.33 5.43 6.61 8.32 9.75.82.89.76 2.27-.13 3.08-.42.38-.95.58-1.48.58Zm240.25-15.24a2.18 2.18 0 0 1-2.17-2.01c0-.06 0-.11-.01-.17l-.08.11c-.71.97-2.07 1.19-3.05.48a2.187 2.187 0 0 1-.48-3.05c1.26-1.74 2.51-3.52 3.69-5.3l3.94-5.89.05 7.09c.02 2.12.11 4.27.28 6.38.1 1.2-.8 2.25-2 2.35h-.18Zm92.92 82.42c-1.15 0-2.11-.9-2.18-2.06a2.18 2.18 0 0 1 2.05-2.3c4.04-.23 8.1-.75 12.06-1.57 1.18-.24 2.33.52 2.57 1.7s-.52 2.33-1.7 2.58c-4.17.86-8.44 1.41-12.69 1.65h-.12Zm-12.47-.21h-.2c-4.23-.38-8.48-1.08-12.62-2.07a2.18 2.18 0 0 1-1.61-2.63 2.18 2.18 0 0 1 2.63-1.61c3.94.94 7.97 1.6 12 1.97 1.2.11 2.08 1.17 1.98 2.37a2.184 2.184 0 0 1-2.17 1.99Zm36.86-4.78a2.179 2.179 0 0 1-.74-4.23c3.8-1.37 7.54-3.03 11.13-4.93 1.06-.56 2.38-.16 2.95.91s.16 2.38-.91 2.95c-3.77 2-7.7 3.74-11.69 5.17-.24.09-.49.13-.74.13m-61.06-1.01c-.27 0-.54-.05-.81-.16a90 90 0 0 1-11.51-5.57c-1.04-.6-1.4-1.93-.8-2.98.6-1.04 1.93-1.4 2.98-.8 3.52 2.02 7.2 3.81 10.95 5.3 1.12.45 1.66 1.71 1.22 2.83-.34.85-1.16 1.37-2.03 1.37Zm83.07-10.63c-.68 0-1.34-.31-1.77-.9-.71-.98-.49-2.34.49-3.04 3.28-2.37 6.43-4.99 9.36-7.79a2.18 2.18 0 0 1 3.01 3.15 92 92 0 0 1-9.82 8.17c-.39.28-.83.41-1.27.41m-104.66-1.76c-.47 0-.94-.15-1.34-.46a94 94 0 0 1-9.52-8.52 2.179 2.179 0 0 1 3.12-3.04c2.83 2.9 5.88 5.64 9.07 8.12a2.18 2.18 0 0 1-1.34 3.9ZM1121.82 289c-.48 0-.95-.15-1.36-.47-.94-.75-1.1-2.12-.35-3.06a88 88 0 0 0 6.9-10.03 2.183 2.183 0 0 1 3.76 2.22c-2.16 3.65-4.6 7.19-7.24 10.52-.43.54-1.07.82-1.71.82m-140.02-2.41c-.67 0-1.33-.31-1.76-.89a94 94 0 0 1-6.86-10.78 2.19 2.19 0 0 1 .88-2.96 2.19 2.19 0 0 1 2.96.88c1.93 3.56 4.13 7.02 6.53 10.28.71.97.51 2.33-.46 3.05-.39.29-.84.42-1.29.42m152.69-19.01c-.28 0-.56-.05-.84-.17a2.17 2.17 0 0 1-1.17-2.85 89 89 0 0 0 3.9-11.53 2.18 2.18 0 1 1 4.22 1.1 91 91 0 0 1-4.09 12.11c-.35.84-1.16 1.34-2.01 1.34Zm-164.57-2.88c-.88 0-1.71-.54-2.04-1.42a94 94 0 0 1-3.65-12.25 2.178 2.178 0 0 1 4.25-.95c.88 3.95 2.05 7.88 3.47 11.67a2.188 2.188 0 0 1-2.05 2.95Zm170.89-21.24c-.08 0-.17 0-.25-.01a2.175 2.175 0 0 1-1.91-2.42c.24-2.1.41-4.25.51-6.37l.3-6.95 3.72 5.88c1.15 1.81 2.34 3.63 3.55 5.41.68 1 .42 2.35-.58 3.03s-2.35.42-3.03-.58c-.04-.06-.08-.11-.11-.17 0 .08-.02.16-.03.25a2.18 2.18 0 0 1-2.16 1.93Zm154.55 82.36h-.05c-4.28-.09-8.61-.34-12.89-.75a2.187 2.187 0 0 1-1.97-2.38 2.18 2.18 0 0 1 2.38-1.97c4.17.39 8.4.64 12.58.73a2.18 2.18 0 0 1-.05 4.36Zm12.75-.19a2.181 2.181 0 0 1-.11-4.36c4.18-.22 8.4-.59 12.55-1.11 1.2-.15 2.29.7 2.44 1.89.15 1.2-.7 2.29-1.89 2.44-4.25.54-8.58.92-12.87 1.14h-.11Zm-38.13-2.19c-.12 0-.24 0-.36-.03-4.22-.7-8.47-1.57-12.65-2.57a2.18 2.18 0 0 1-1.61-2.63c.28-1.17 1.46-1.9 2.63-1.61 4.08.98 8.23 1.83 12.35 2.51 1.19.2 1.99 1.32 1.79 2.51a2.18 2.18 0 0 1-2.15 1.82m63.42-1a2.18 2.18 0 0 1-.43-4.32l.69-.14c3.88-.8 7.76-1.75 11.55-2.81a2.18 2.18 0 0 1 2.69 1.51 2.18 2.18 0 0 1-1.51 2.69c-3.88 1.09-7.87 2.06-11.85 2.89l-.7.14c-.15.03-.29.04-.43.04Zm-88.21-4.95c-.22 0-.44-.03-.66-.1-4.08-1.29-8.17-2.74-12.17-4.31a2.184 2.184 0 0 1-1.23-2.83 2.184 2.184 0 0 1 2.83-1.23c3.91 1.54 7.9 2.95 11.89 4.21 1.15.36 1.79 1.59 1.42 2.74-.29.93-1.15 1.53-2.08 1.53Zm112.74-1.96c-.89 0-1.72-.55-2.05-1.43-.41-1.13.17-2.38 1.3-2.8 3.91-1.43 7.83-3.04 11.64-4.78 1.1-.5 2.39-.02 2.89 1.08s.02 2.39-1.08 2.89c-3.91 1.78-7.93 3.43-11.95 4.91-.25.09-.5.13-.75.13m-136.48-7.36c-.31 0-.63-.07-.93-.21-3.86-1.83-7.72-3.82-11.47-5.92a2.184 2.184 0 0 1 2.13-3.81c3.66 2.05 7.43 4 11.21 5.79 1.09.52 1.55 1.82 1.04 2.91-.37.79-1.16 1.25-1.97 1.25Zm159.66-3.22a2.183 2.183 0 0 1-1.06-4.09c3.64-2.01 7.27-4.2 10.79-6.5 1.01-.66 2.36-.38 3.02.63s.38 2.36-.63 3.02c-3.61 2.36-7.33 4.6-11.07 6.66-.33.18-.7.27-1.05.27Zm-181.92-9.24c-.41 0-.82-.12-1.19-.35-3.59-2.34-7.15-4.83-10.57-7.4a2.173 2.173 0 0 1-.43-3.05c.72-.96 2.09-1.16 3.05-.43 3.35 2.51 6.82 4.95 10.33 7.24a2.19 2.19 0 0 1 .64 3.02c-.42.64-1.12.99-1.83.99Zm203.26-4.71a2.183 2.183 0 0 1-1.33-3.92c3.3-2.52 6.59-5.21 9.75-7.99a2.183 2.183 0 0 1 2.88 3.28c-3.24 2.85-6.6 5.6-9.99 8.18-.4.3-.86.45-1.32.45Zm-223.65-10.61c-.5 0-1.01-.17-1.42-.53-3.24-2.79-6.43-5.73-9.5-8.74a2.179 2.179 0 0 1 3.05-3.11c3 2.94 6.12 5.82 9.29 8.54a2.185 2.185 0 0 1-1.42 3.84m242.82-6.2a2.179 2.179 0 0 1-1.54-3.72c2.94-2.95 5.84-6.05 8.63-9.22.8-.91 2.17-.99 3.08-.2.9.79.99 2.17.2 3.08-2.85 3.24-5.81 6.41-8.81 9.42-.43.43-.99.64-1.54.64Zm-261.01-11.67c-.6 0-1.2-.25-1.63-.73-2.85-3.19-5.63-6.53-8.27-9.91a2.18 2.18 0 1 1 3.44-2.68c2.58 3.31 5.3 6.56 8.09 9.69a2.183 2.183 0 0 1-1.63 3.63m277.86-7.48a2.18 2.18 0 0 1-1.72-3.52c2.56-3.29 5.07-6.72 7.46-10.2.68-.99 2.04-1.24 3.03-.56s1.24 2.04.56 3.03c-2.44 3.54-5 7.04-7.61 10.4-.43.55-1.07.84-1.72.84Zm14.47-21.02c-.39 0-.78-.1-1.13-.32a2.18 2.18 0 0 1-.73-3c2.2-3.62 4.3-7.32 6.25-10.99a2.19 2.19 0 0 1 2.95-.91c1.06.56 1.47 1.88.91 2.95-1.99 3.75-4.13 7.52-6.37 11.21-.41.68-1.13 1.05-1.87 1.05Zm16.8-22.49c-.86 0-1.67-.51-2.02-1.35l-.42-1.02-.44 1a2.18 2.18 0 1 1-3.98-1.78c1.45-3.24 2.26-5.34 2.47-5.91l2.1-5.58 2 5.62a124 124 0 0 0 2.31 6.01 2.185 2.185 0 0 1-2.01 3.02Zm117.6 79.54c-1.26 0-2.52-.02-3.77-.06a2.18 2.18 0 0 1-2.11-2.25c.04-1.2 1.03-2.18 2.25-2.11 4.35.13 8.76.02 13.1-.32 1.2-.1 2.25.8 2.35 2 .09 1.2-.8 2.25-2 2.34-3.24.25-6.54.38-9.8.38Zm-16.98-1.18c-.1 0-.2 0-.3-.02-4.45-.62-8.93-1.49-13.31-2.58a2.18 2.18 0 0 1-1.59-2.64 2.187 2.187 0 0 1 2.65-1.59c4.23 1.06 8.56 1.9 12.86 2.5 1.19.17 2.03 1.27 1.86 2.46a2.184 2.184 0 0 1-2.16 1.88Zm39.83-.96c-1.03 0-1.94-.73-2.14-1.78-.22-1.18.55-2.32 1.74-2.55 4.28-.81 8.56-1.86 12.72-3.13 1.15-.35 2.37.3 2.72 1.45s-.3 2.37-1.45 2.72a125 125 0 0 1-13.18 3.24 2 2 0 0 1-.41.04Zm-65.66-5.49c-.25 0-.5-.04-.75-.13-4.23-1.55-8.42-3.34-12.47-5.32a2.185 2.185 0 0 1-1-2.92 2.185 2.185 0 0 1 2.92-1c3.92 1.92 7.97 3.65 12.05 5.14 1.13.41 1.71 1.67 1.3 2.8-.32.88-1.16 1.43-2.05 1.43m91.15-2.26c-.85 0-1.65-.5-2.01-1.33-.47-1.11.04-2.39 1.15-2.86 4-1.71 7.96-3.65 11.76-5.77a2.184 2.184 0 0 1 2.13 3.81c-3.94 2.2-8.04 4.21-12.18 5.98-.28.12-.57.18-.85.18Zm-115.07-9.46c-.4 0-.8-.11-1.16-.33-3.81-2.39-7.55-5-11.11-7.78a2.18 2.18 0 1 1 2.68-3.44c3.44 2.68 7.05 5.21 10.74 7.52 1.02.64 1.33 1.98.69 3.01-.41.66-1.12 1.02-1.85 1.02Zm138.33-3.52c-.69 0-1.36-.32-1.78-.92-.69-.98-.46-2.34.53-3.04 3.56-2.51 7.02-5.23 10.3-8.1.91-.8 2.28-.7 3.08.21.79.91.7 2.29-.21 3.08-3.4 2.97-6.98 5.79-10.66 8.38-.38.27-.82.4-1.26.4Zm-159.33-12.87c-.54 0-1.09-.2-1.51-.61a131 131 0 0 1-9.28-9.89c-.78-.92-.66-2.3.26-3.07.92-.78 2.3-.66 3.07.26 2.81 3.33 5.83 6.54 8.97 9.56.87.83.9 2.22.06 3.08-.43.45-1 .67-1.57.67m179.39-4.66c-.53 0-1.07-.19-1.49-.58a2.18 2.18 0 0 1-.11-3.08c2.97-3.19 5.8-6.57 8.42-10.04.73-.96 2.09-1.15 3.05-.43s1.15 2.09.43 3.05c-2.71 3.6-5.65 7.09-8.71 10.38-.43.46-1.01.7-1.6.7Zm-196.59-15.69c-.7 0-1.38-.33-1.8-.95-2.54-3.72-4.91-7.62-7.06-11.59a2.19 2.19 0 0 1 .88-2.96 2.19 2.19 0 0 1 2.96.88c2.07 3.83 4.37 7.6 6.82 11.2a2.182 2.182 0 0 1-1.8 3.41Zm212.63-5.56c-.38 0-.77-.1-1.13-.32a2.19 2.19 0 0 1-.74-3c2.25-3.73 4.34-7.61 6.19-11.55a2.17 2.17 0 0 1 2.9-1.04 2.17 2.17 0 0 1 1.04 2.9c-1.92 4.07-4.08 8.09-6.41 11.94-.41.68-1.13 1.05-1.87 1.05Zm11.36-24.07q-.36 0-.72-.12a2.187 2.187 0 0 1-1.34-2.78c1.44-4.11 2.69-8.34 3.7-12.58.28-1.17 1.46-1.9 2.63-1.62s1.9 1.46 1.62 2.63c-1.04 4.38-2.33 8.76-3.82 13.01-.31.9-1.16 1.46-2.06 1.46Zm6.18-25.97c-.09 0-.19 0-.29-.02a2.185 2.185 0 0 1-1.88-2.45c.28-2.12.5-4.27.68-6.4a2.183 2.183 0 0 1 4.35.35c-.18 2.2-.41 4.43-.7 6.62-.14 1.1-1.08 1.9-2.16 1.9" class="cls-son22"/><circle cx="474.92" cy="350.48" r="15.45" class="cls-son25"/><circle cx="681.77" cy="313.06" r="15.45" class="cls-son23"/><circle cx="833.92" cy="400.97" r="15.45" class="cls-son25"/><circle cx="912.84" cy="354.01" r="10.86" class="cls-son26"/><circle cx="1018.5" cy="430.22" r="10.86" class="cls-son21"/><circle cx="1124.09" cy="403.78" r="10.86" class="cls-son23"/><circle cx="633.56" cy="387.09" r="10.86" class="cls-son21"/><circle cx="723.6" cy="365.34" r="10.86" class="cls-son26"/><circle cx="407.12" cy="387.03" r="10.86" class="cls-son26"/><circle cx="1070.14" cy="345.83" r="15.45" class="cls-son26"/><circle cx="1222.79" cy="397.93" r="15.45" class="cls-son26"/><circle cx="1308.22" cy="360.77" r="9.85" class="cls-son25"/><circle cx="1476.31" cy="316" r="15.45" class="cls-son26"/><circle cx="1533.01" cy="378.22" r="10.04" class="cls-son23"/><circle cx="1662.49" cy="341.19" r="15.45" class="cls-son25"/><path d="m579.94 1750.64-87.04-155.6 197.87 15.93zm794.68 5.26-113.33-137.64 197.54-19.52z" class="cls-son26"/><path d="m773.06 1765.99-94.32-151.31 198.39 6.54zm800.38-32.02-120.17-131.71 196.3-29.52z" class="cls-son21"/><path d="m969.68 1774.54-97.48-149.29 198.49 2.36z" class="cls-son25"/><path d="M390.82 1734.04 310.21 1575l197.05 24.01zm777.19 35.18-100.4-147.34 198.49-1.55z" class="cls-son23"/><path d="M994.77 1630.54c-243.65 0-488.47-20.9-728.7-62.24-5.04-.87-8.43-5.66-7.56-10.71.87-5.04 5.66-8.43 10.71-7.56 259.11 44.59 523.62 65.29 786.15 61.54 222.18-3.18 445.98-23.97 665.18-61.78 5.04-.87 9.84 2.51 10.71 7.56.87 5.04-2.51 9.84-7.56 10.71-220.15 37.98-444.92 58.85-668.07 62.05-20.26.29-40.57.44-60.86.44Z" class="cls-son22"/><path d="M367.64 1588.02c-.93 0-1.8-.6-2.08-1.54-.65-2.1-1.27-4.24-1.84-6.36-.31-1.16.37-2.36 1.54-2.67 1.16-.31 2.36.38 2.67 1.54.56 2.07 1.16 4.16 1.8 6.21a2.19 2.19 0 0 1-2.08 2.83Zm173.19 131.49h-.02c-3.44-.04-6.91-.18-10.34-.41-.91-.06-1.81-.13-2.72-.21-1.2-.1-2.09-1.16-1.99-2.36s1.16-2.1 2.36-1.99c.88.07 1.76.14 2.65.2 3.35.23 6.74.36 10.09.4 1.2.01 2.17 1 2.16 2.2a2.18 2.18 0 0 1-2.18 2.16Zm12.91-.33c-1.14 0-2.1-.89-2.17-2.05-.07-1.2.84-2.24 2.04-2.31 4.22-.26 8.5-.68 12.7-1.24 1.2-.16 2.29.68 2.45 1.87s-.68 2.29-1.87 2.45c-4.3.58-8.68 1.01-13.01 1.27h-.14Zm-38.62-1.83c-.11 0-.23 0-.34-.03-4.28-.67-8.6-1.51-12.83-2.5a2.183 2.183 0 0 1 .99-4.25c4.13.96 8.34 1.78 12.52 2.44 1.19.19 2 1.3 1.82 2.49a2.18 2.18 0 0 1-2.15 1.84Zm64.21-1.61c-1.01 0-1.92-.71-2.13-1.74-.25-1.18.51-2.33 1.69-2.58 4.14-.86 8.31-1.89 12.39-3.04 1.16-.33 2.36.34 2.69 1.5a2.17 2.17 0 0 1-1.5 2.69c-4.18 1.19-8.45 2.23-12.69 3.12-.15.03-.3.05-.45.05m-89.34-4.24c-.21 0-.43-.03-.65-.1-4.14-1.28-8.29-2.73-12.34-4.31a2.178 2.178 0 1 1 1.58-4.06c3.95 1.54 8 2.96 12.04 4.21 1.15.36 1.79 1.58 1.44 2.73-.29.94-1.15 1.54-2.08 1.54Zm114.18-2.81a2.179 2.179 0 0 1-.74-4.23c3.98-1.44 7.96-3.04 11.84-4.76 1.1-.49 2.39 0 2.88 1.11.49 1.1 0 2.39-1.11 2.88-3.97 1.76-8.05 3.4-12.12 4.88-.24.09-.5.13-.74.13Zm-138.22-6.57c-.31 0-.63-.07-.93-.21-3.92-1.86-7.82-3.88-11.6-6.02a2.18 2.18 0 1 1 2.14-3.8c3.69 2.08 7.5 4.06 11.33 5.88a2.18 2.18 0 0 1 1.03 2.91c-.37.79-1.16 1.25-1.97 1.25Zm161.82-3.89a2.18 2.18 0 0 1-1.02-4.11c3.74-1.98 7.46-4.12 11.06-6.36 1.02-.64 2.37-.32 3 .7.64 1.02.32 2.37-.7 3-3.68 2.29-7.49 4.49-11.32 6.51-.33.17-.67.25-1.02.25Zm-184.3-8.79c-.41 0-.83-.12-1.2-.36-3.61-2.39-7.2-4.94-10.64-7.58a2.183 2.183 0 1 1 2.65-3.47c3.37 2.58 6.87 5.07 10.4 7.4a2.179 2.179 0 0 1-1.2 4Zm206.21-4.84c-.68 0-1.34-.31-1.77-.9-.71-.98-.49-2.34.49-3.04 3.43-2.48 6.82-5.11 10.08-7.83.93-.77 2.3-.65 3.07.28s.65 2.3-.28 3.07c-3.33 2.78-6.81 5.47-10.31 8.01-.39.28-.83.41-1.28.41m-226.7-10.84c-.51 0-1.03-.18-1.44-.54-3.25-2.87-6.45-5.89-9.49-8.97a2.17 2.17 0 0 1 .02-3.08 2.17 2.17 0 0 1 3.08.02c2.98 3.01 6.1 5.96 9.28 8.77.9.8.99 2.17.19 3.08-.43.49-1.03.74-1.64.74Zm246.53-5.68c-.57 0-1.15-.22-1.58-.67-.83-.87-.8-2.25.07-3.08 3.06-2.93 6.05-6 8.91-9.14a2.182 2.182 0 0 1 3.23 2.93 187 187 0 0 1-9.12 9.35c-.42.4-.97.61-1.51.61m-264.66-12.69c-.61 0-1.22-.26-1.65-.76-2.83-3.29-5.58-6.72-8.17-10.19-.72-.96-.52-2.33.44-3.05.97-.72 2.33-.52 3.05.44 2.53 3.39 5.22 6.74 7.99 9.96a2.185 2.185 0 0 1-1.65 3.61Zm282.03-6.4c-.47 0-.95-.15-1.35-.47-.94-.75-1.1-2.12-.36-3.06 2.63-3.32 5.18-6.78 7.57-10.27.68-.99 2.04-1.25 3.03-.57s1.25 2.04.57 3.03c-2.45 3.58-5.06 7.11-7.75 10.51-.43.54-1.07.83-1.71.83m-297.47-14.28c-.72 0-1.42-.35-1.83-1-2.35-3.64-4.6-7.42-6.7-11.21-.58-1.05-.2-2.38.86-2.96 1.05-.58 2.38-.2 2.96.86 2.05 3.71 4.25 7.4 6.55 10.96a2.18 2.18 0 0 1-1.83 3.36Zm-12.47-22.6c-.82 0-1.61-.47-1.98-1.26-1.83-3.93-3.54-7.97-5.1-12.03-.43-1.12.13-2.39 1.25-2.82s2.39.13 2.82 1.25c1.52 3.96 3.2 7.91 4.99 11.75.51 1.09.03 2.39-1.06 2.9-.3.14-.61.2-.92.2Zm324.53 15.55c-.38 0-.76-.1-1.1-.3a2.183 2.183 0 0 1-.77-2.99c1.09-1.85 2.16-3.74 3.19-5.63l1.83-3.36 1.96 3.29c1.06 1.78 2.19 3.56 3.44 5.43.67 1 .4 2.36-.6 3.03s-2.36.4-3.02-.6q-.825-1.23-1.59-2.43-.72 1.26-1.44 2.49c-.41.69-1.13 1.08-1.88 1.08Zm132.45 70.29c-2.49 0-5.01-.06-7.49-.19a2.19 2.19 0 0 1-2.07-2.29c.06-1.2 1.08-2.12 2.29-2.07 4.23.22 8.54.24 12.78.08 1.2-.05 2.22.89 2.26 2.09.05 1.2-.89 2.22-2.09 2.26-1.88.07-3.79.11-5.68.11Zm18.52-1.18a2.178 2.178 0 0 1-.27-4.34c4.2-.54 8.44-1.27 12.59-2.17 1.17-.26 2.34.49 2.59 1.67.26 1.18-.49 2.34-1.67 2.59-4.28.93-8.64 1.68-12.97 2.24-.09.01-.19.02-.28.02Zm-38.81-.25c-.1 0-.21 0-.31-.02l-1.46-.21c-3.86-.59-7.72-1.34-11.48-2.24a2.19 2.19 0 0 1-1.62-2.63 2.19 2.19 0 0 1 2.63-1.62 138 138 0 0 0 12.54 2.38c1.19.17 2.02 1.28 1.85 2.47a2.18 2.18 0 0 1-2.16 1.87Zm64.13-5.25c-.93 0-1.79-.6-2.08-1.54-.36-1.15.29-2.37 1.44-2.73 4.05-1.25 8.1-2.69 12.04-4.29 1.12-.45 2.39.09 2.84 1.21s-.09 2.39-1.21 2.84c-4.06 1.64-8.23 3.12-12.39 4.41-.21.07-.43.1-.65.1Zm-89.34-.75c-.23 0-.47-.04-.7-.12-4.13-1.39-8.26-3-12.27-4.79-1.1-.49-1.6-1.78-1.11-2.88s1.78-1.6 2.88-1.11c3.89 1.73 7.9 3.29 11.9 4.64 1.14.39 1.75 1.62 1.37 2.76-.31.91-1.16 1.48-2.07 1.48Zm113.38-8.95a2.18 2.18 0 0 1-.98-4.13c3.78-1.91 7.55-4 11.18-6.21 1.03-.63 2.37-.3 3 .72.63 1.03.3 2.37-.73 3-3.73 2.28-7.6 4.43-11.49 6.39-.31.16-.65.23-.98.23m-137.07-1.55c-.36 0-.72-.09-1.06-.27a156 156 0 0 1-11.22-6.88c-1-.67-1.26-2.03-.59-3.03s2.03-1.26 3.03-.59c3.55 2.39 7.22 4.64 10.9 6.68a2.19 2.19 0 0 1 .85 2.97c-.4.72-1.14 1.12-1.91 1.12m159.19-11.95c-.67 0-1.34-.31-1.77-.9-.71-.97-.49-2.34.48-3.05 3.43-2.49 6.8-5.15 10.04-7.92a2.182 2.182 0 0 1 2.83 3.32c-3.32 2.84-6.79 5.58-10.31 8.14a2.2 2.2 0 0 1-1.28.42Zm-180.71-2.52c-.48 0-.96-.16-1.36-.48-3.38-2.71-6.73-5.6-9.94-8.6a2.17 2.17 0 0 1-.1-3.08c.82-.88 2.2-.92 3.08-.1 3.13 2.93 6.39 5.75 9.68 8.38.94.75 1.09 2.12.34 3.07-.43.54-1.06.82-1.71.82Zm200.39-14.33a2.179 2.179 0 0 1-1.54-3.72c2.99-3 5.91-6.16 8.67-9.4.78-.91 2.16-1.02 3.07-.24.92.78 1.03 2.16.24 3.07a173 173 0 0 1-8.9 9.65c-.43.43-.99.64-1.54.64m-219.34-3.38c-.59 0-1.18-.24-1.61-.7-2.96-3.22-5.83-6.58-8.53-10-.75-.95-.59-2.32.36-3.06.95-.75 2.32-.59 3.06.36 2.63 3.33 5.43 6.61 8.32 9.75.82.89.76 2.27-.13 3.08-.42.38-.95.58-1.48.58Zm240.25-15.24a2.18 2.18 0 0 1-2.17-2.01c0-.06 0-.11-.01-.17l-.08.11c-.71.97-2.07 1.19-3.05.48a2.187 2.187 0 0 1-.48-3.05c1.26-1.74 2.51-3.52 3.69-5.3l3.94-5.89.05 7.09c.02 2.12.11 4.27.28 6.38.1 1.2-.8 2.25-2 2.35h-.18Zm92.92 82.42c-1.15 0-2.11-.9-2.18-2.06a2.18 2.18 0 0 1 2.05-2.3c4.04-.23 8.1-.75 12.06-1.57 1.18-.24 2.33.52 2.57 1.7s-.52 2.33-1.7 2.58c-4.17.86-8.44 1.41-12.69 1.65h-.12Zm-12.47-.21h-.2c-4.23-.38-8.48-1.08-12.62-2.07a2.18 2.18 0 0 1-1.61-2.63 2.18 2.18 0 0 1 2.63-1.61c3.94.94 7.97 1.6 12 1.97 1.2.11 2.08 1.17 1.98 2.37a2.184 2.184 0 0 1-2.17 1.99Zm36.86-4.78a2.179 2.179 0 0 1-.74-4.23c3.8-1.37 7.54-3.03 11.13-4.93 1.06-.56 2.38-.16 2.95.91s.16 2.38-.91 2.95c-3.77 2-7.7 3.74-11.69 5.17-.24.09-.49.13-.74.13m-61.06-1.01c-.27 0-.54-.05-.81-.16a90 90 0 0 1-11.51-5.57c-1.04-.6-1.4-1.93-.8-2.98.6-1.04 1.93-1.41 2.98-.8 3.52 2.02 7.2 3.81 10.95 5.3 1.12.45 1.66 1.71 1.22 2.83-.34.85-1.16 1.37-2.03 1.37Zm83.07-10.63c-.68 0-1.34-.31-1.77-.9-.71-.98-.49-2.34.49-3.04 3.28-2.37 6.43-4.99 9.36-7.79a2.18 2.18 0 0 1 3.01 3.15 92 92 0 0 1-9.82 8.17c-.39.28-.83.41-1.27.41m-104.66-1.76c-.47 0-.94-.15-1.34-.46a94 94 0 0 1-9.52-8.52 2.179 2.179 0 0 1 3.12-3.04c2.83 2.9 5.88 5.64 9.07 8.12a2.18 2.18 0 0 1-1.34 3.9Zm122.65-15.43c-.48 0-.95-.15-1.36-.47-.94-.75-1.1-2.12-.35-3.06a88 88 0 0 0 6.9-10.03 2.183 2.183 0 0 1 3.76 2.22c-2.16 3.65-4.6 7.19-7.24 10.52-.43.54-1.07.82-1.71.82m-140.02-2.41c-.67 0-1.33-.31-1.76-.89a94 94 0 0 1-6.86-10.78 2.19 2.19 0 0 1 .88-2.96 2.19 2.19 0 0 1 2.96.88c1.93 3.56 4.13 7.02 6.53 10.28.71.97.51 2.33-.46 3.05-.39.29-.84.42-1.29.42m152.69-19.01c-.28 0-.56-.05-.84-.17a2.17 2.17 0 0 1-1.17-2.85 89 89 0 0 0 3.9-11.53 2.18 2.18 0 1 1 4.22 1.1 91 91 0 0 1-4.09 12.11c-.35.84-1.16 1.34-2.01 1.34Zm-164.57-2.88c-.88 0-1.71-.54-2.04-1.42a94 94 0 0 1-3.65-12.25 2.178 2.178 0 0 1 4.25-.95c.88 3.95 2.05 7.88 3.47 11.67a2.188 2.188 0 0 1-2.05 2.95Zm170.89-21.25c-.08 0-.17 0-.25-.01a2.175 2.175 0 0 1-1.91-2.42c.24-2.1.41-4.25.51-6.37l.3-6.95 3.72 5.88c1.15 1.81 2.34 3.63 3.55 5.41.68 1 .42 2.35-.58 3.03s-2.35.42-3.03-.58c-.04-.06-.08-.11-.11-.17 0 .08-.02.16-.03.25a2.18 2.18 0 0 1-2.16 1.93Zm154.55 82.36h-.05c-4.28-.09-8.61-.34-12.89-.75a2.187 2.187 0 0 1-1.97-2.38 2.18 2.18 0 0 1 2.38-1.97c4.17.39 8.4.64 12.58.73a2.18 2.18 0 0 1-.05 4.36Zm12.75-.19a2.181 2.181 0 0 1-.11-4.36c4.18-.22 8.4-.59 12.55-1.11 1.2-.15 2.29.7 2.44 1.89.15 1.2-.7 2.29-1.89 2.44-4.25.54-8.58.92-12.87 1.14h-.11Zm-38.13-2.19c-.12 0-.24 0-.36-.03-4.22-.7-8.47-1.57-12.65-2.57a2.18 2.18 0 0 1-1.61-2.63 2.18 2.18 0 0 1 2.63-1.61c4.08.98 8.23 1.83 12.35 2.51 1.19.2 1.99 1.32 1.79 2.51a2.18 2.18 0 0 1-2.15 1.82m63.42-1a2.18 2.18 0 0 1-.43-4.32l.69-.14c3.88-.8 7.76-1.75 11.55-2.81a2.18 2.18 0 0 1 2.69 1.51 2.18 2.18 0 0 1-1.51 2.69c-3.88 1.09-7.87 2.06-11.85 2.89l-.7.14c-.15.03-.29.04-.43.04Zm-88.21-4.95c-.22 0-.44-.03-.66-.1-4.08-1.29-8.17-2.74-12.17-4.31a2.184 2.184 0 0 1-1.23-2.83 2.184 2.184 0 0 1 2.83-1.23c3.91 1.54 7.9 2.95 11.89 4.21 1.15.36 1.79 1.59 1.42 2.74-.29.93-1.15 1.53-2.08 1.53Zm112.74-1.96c-.89 0-1.72-.55-2.05-1.43-.41-1.13.17-2.38 1.3-2.8 3.91-1.43 7.83-3.04 11.64-4.78 1.1-.5 2.39-.02 2.89 1.08s.02 2.39-1.08 2.89c-3.91 1.78-7.93 3.43-11.95 4.91-.25.09-.5.13-.75.13m-136.48-7.36c-.31 0-.63-.07-.93-.21-3.86-1.83-7.72-3.82-11.47-5.92a2.184 2.184 0 0 1 2.13-3.81c3.66 2.05 7.43 4 11.21 5.79 1.09.52 1.55 1.82 1.04 2.91-.37.79-1.16 1.25-1.97 1.25Zm159.66-3.22a2.183 2.183 0 0 1-1.06-4.09c3.64-2.01 7.27-4.2 10.79-6.5 1.01-.66 2.36-.38 3.02.63s.38 2.36-.63 3.02c-3.61 2.36-7.33 4.6-11.07 6.66-.33.18-.7.27-1.05.27Zm-181.92-9.24c-.41 0-.82-.12-1.19-.35-3.59-2.34-7.15-4.83-10.57-7.4a2.173 2.173 0 0 1-.43-3.05c.72-.96 2.09-1.16 3.05-.43 3.35 2.51 6.82 4.95 10.33 7.24a2.19 2.19 0 0 1 .64 3.02c-.42.64-1.12.99-1.83.99Zm203.26-4.71a2.183 2.183 0 0 1-1.33-3.92c3.3-2.52 6.59-5.21 9.75-7.99a2.183 2.183 0 0 1 2.88 3.28c-3.24 2.85-6.6 5.6-9.99 8.18-.4.3-.86.45-1.32.45Zm-223.65-10.61c-.5 0-1.01-.17-1.42-.53-3.24-2.79-6.43-5.73-9.5-8.74a2.179 2.179 0 0 1 3.05-3.11c3 2.94 6.12 5.82 9.29 8.54a2.185 2.185 0 0 1-1.42 3.84m242.82-6.2a2.179 2.179 0 0 1-1.54-3.72c2.94-2.95 5.84-6.05 8.63-9.22.8-.91 2.17-.99 3.08-.2.9.79.99 2.17.2 3.08-2.85 3.24-5.81 6.41-8.81 9.42-.43.43-.99.64-1.54.64Zm-261.01-11.67c-.6 0-1.2-.25-1.63-.73-2.85-3.19-5.63-6.53-8.27-9.91a2.18 2.18 0 1 1 3.44-2.68c2.58 3.31 5.3 6.56 8.09 9.69a2.183 2.183 0 0 1-1.63 3.63m277.86-7.48a2.18 2.18 0 0 1-1.72-3.52c2.56-3.29 5.07-6.72 7.46-10.2.68-.99 2.04-1.24 3.03-.56s1.24 2.04.56 3.03c-2.44 3.54-5 7.04-7.61 10.4-.43.55-1.07.84-1.72.84Zm14.47-21.02c-.39 0-.78-.1-1.13-.32a2.18 2.18 0 0 1-.73-3c2.2-3.62 4.3-7.32 6.25-10.99a2.19 2.19 0 0 1 2.95-.91c1.06.56 1.47 1.88.91 2.95-1.99 3.75-4.13 7.52-6.37 11.21-.41.68-1.13 1.05-1.87 1.05Zm16.8-22.48c-.86 0-1.67-.51-2.02-1.35l-.42-1.02-.44 1a2.18 2.18 0 1 1-3.98-1.78c1.45-3.24 2.26-5.34 2.47-5.91l2.1-5.58 2 5.62a124 124 0 0 0 2.31 6.01 2.185 2.185 0 0 1-2.01 3.02Zm117.6 79.54c-1.26 0-2.52-.02-3.77-.06a2.18 2.18 0 0 1-2.11-2.25c.04-1.2 1.03-2.16 2.25-2.11 4.35.13 8.76.03 13.1-.32a2.177 2.177 0 1 1 .35 4.34c-3.24.25-6.54.38-9.8.38Zm-16.98-1.18c-.1 0-.2 0-.3-.02-4.45-.62-8.93-1.49-13.31-2.58a2.18 2.18 0 0 1-1.59-2.64 2.187 2.187 0 0 1 2.65-1.59c4.23 1.06 8.56 1.9 12.86 2.5 1.19.17 2.03 1.27 1.86 2.46a2.184 2.184 0 0 1-2.16 1.88Zm39.83-.96c-1.03 0-1.94-.73-2.14-1.78-.22-1.18.55-2.32 1.74-2.55 4.28-.81 8.56-1.86 12.72-3.13 1.15-.35 2.37.3 2.72 1.45s-.3 2.37-1.45 2.72a125 125 0 0 1-13.18 3.24 2 2 0 0 1-.41.04Zm-65.66-5.49c-.25 0-.5-.04-.75-.13-4.23-1.55-8.42-3.34-12.47-5.32a2.185 2.185 0 0 1-1-2.92 2.185 2.185 0 0 1 2.92-1c3.92 1.92 7.97 3.65 12.05 5.14 1.13.41 1.71 1.67 1.3 2.8-.32.88-1.16 1.43-2.05 1.43m91.15-2.26c-.85 0-1.65-.5-2.01-1.33-.47-1.11.04-2.39 1.15-2.86 4-1.71 7.96-3.65 11.76-5.77 1.05-.58 2.38-.21 2.97.84s.21 2.38-.84 2.97c-3.94 2.2-8.04 4.21-12.18 5.98-.28.12-.57.18-.85.18Zm-115.07-9.46c-.4 0-.8-.11-1.16-.33-3.81-2.39-7.55-5-11.11-7.78a2.18 2.18 0 1 1 2.68-3.44c3.44 2.68 7.05 5.21 10.74 7.52 1.02.64 1.33 1.98.69 3.01-.41.66-1.12 1.02-1.85 1.02Zm138.33-3.52c-.69 0-1.36-.32-1.78-.92-.69-.98-.46-2.34.53-3.04 3.56-2.51 7.02-5.23 10.3-8.1a2.184 2.184 0 0 1 2.87 3.29c-3.4 2.97-6.98 5.79-10.66 8.38-.38.27-.82.4-1.26.4Zm-159.33-12.87c-.54 0-1.09-.2-1.51-.61a131 131 0 0 1-9.28-9.89c-.78-.92-.66-2.3.26-3.07.92-.78 2.3-.66 3.07.26 2.81 3.33 5.83 6.54 8.97 9.56.87.83.9 2.22.06 3.08-.43.45-1 .67-1.57.67m179.39-4.66c-.53 0-1.07-.19-1.49-.58a2.18 2.18 0 0 1-.11-3.08c2.97-3.19 5.8-6.57 8.42-10.04.73-.96 2.09-1.15 3.05-.43s1.15 2.09.43 3.05c-2.71 3.6-5.65 7.09-8.71 10.39-.43.46-1.01.7-1.6.7Zm-196.59-15.69c-.7 0-1.38-.33-1.8-.95-2.54-3.72-4.91-7.62-7.06-11.59a2.19 2.19 0 0 1 .88-2.96 2.19 2.19 0 0 1 2.96.88c2.07 3.83 4.37 7.6 6.82 11.2a2.182 2.182 0 0 1-1.8 3.41Zm212.63-5.56c-.38 0-.77-.1-1.13-.32a2.19 2.19 0 0 1-.74-3c2.25-3.73 4.34-7.61 6.19-11.55a2.17 2.17 0 0 1 2.9-1.04 2.17 2.17 0 0 1 1.04 2.9c-1.92 4.07-4.08 8.09-6.41 11.94-.41.68-1.13 1.05-1.87 1.05Zm11.36-24.07q-.36 0-.72-.12a2.187 2.187 0 0 1-1.34-2.78c1.44-4.11 2.69-8.34 3.7-12.58.28-1.17 1.46-1.9 2.63-1.62s1.9 1.46 1.62 2.63c-1.04 4.38-2.33 8.76-3.82 13.01-.31.9-1.16 1.46-2.06 1.46Zm6.18-25.97c-.09 0-.19 0-.29-.02a2.185 2.185 0 0 1-1.88-2.45c.28-2.12.5-4.27.68-6.4a2.183 2.183 0 0 1 4.35.35c-.18 2.2-.41 4.43-.7 6.62-.14 1.1-1.08 1.9-2.16 1.9" class="cls-son22"/><circle cx="474.92" cy="1742.68" r="15.45" class="cls-son25"/><circle cx="681.77" cy="1705.26" r="15.45" class="cls-son23"/><circle cx="833.92" cy="1793.17" r="15.45" class="cls-son25"/><circle cx="912.84" cy="1746.21" r="10.86" class="cls-son26"/><circle cx="1018.5" cy="1822.42" r="10.86" class="cls-son21"/><circle cx="1124.09" cy="1795.97" r="10.86" class="cls-son23"/><circle cx="633.56" cy="1779.29" r="10.86" class="cls-son21"/><circle cx="723.6" cy="1757.54" r="10.86" class="cls-son26"/><circle cx="407.12" cy="1779.23" r="10.86" class="cls-son26"/><circle cx="1070.14" cy="1738.02" r="15.45" class="cls-son26"/><circle cx="1222.79" cy="1790.12" r="15.45" class="cls-son26"/><circle cx="1308.22" cy="1752.97" r="9.85" class="cls-son25"/><circle cx="1476.31" cy="1708.2" r="15.45" class="cls-son26"/><circle cx="1533.01" cy="1770.42" r="10.04" class="cls-son23"/><circle cx="1662.49" cy="1733.39" r="15.45" class="cls-son25"/><path d="M200.14 1544.95c-1.09 0-2.03-.81-2.16-1.92-.11-.86-.66-5.53-1.27-13.13a2.183 2.183 0 0 1 4.35-.35c.6 7.51 1.14 12.1 1.25 12.94.15 1.2-.7 2.28-1.9 2.43-.09.01-.18.02-.27.02Zm-2.13-26.1c-1.15 0-2.11-.9-2.18-2.06-.23-4.35-.42-8.77-.55-13.13-.04-1.2.91-2.21 2.12-2.24 1.2-.02 2.21.91 2.24 2.12.13 4.33.31 8.71.54 13.03a2.18 2.18 0 0 1-2.06 2.29H198Zm-.76-26.17c-1.2 0-2.18-.97-2.18-2.17v-2.23c0-3.66.04-7.34.11-10.92.03-1.19 1-2.13 2.18-2.13h.05a2.18 2.18 0 0 1 2.13 2.23c-.08 3.56-.12 7.2-.12 10.83v2.21c.01 1.21-.96 2.19-2.17 2.19Zm.59-26.18h-.11a2.19 2.19 0 0 1-2.07-2.29c.23-4.44.52-8.86.87-13.13.1-1.2 1.15-2.09 2.35-1.99s2.09 1.15 1.99 2.35c-.35 4.23-.64 8.6-.86 13a2.177 2.177 0 0 1-2.18 2.07Zm60.56-18.95c-.62 0-1.24 0-1.86-.02a2.186 2.186 0 0 1-2.14-2.22c.02-1.21 1.02-2.13 2.22-2.14 4.29.08 8.61-.14 12.75-.65 1.19-.16 2.28.7 2.43 1.89.15 1.2-.7 2.29-1.89 2.43-3.74.47-7.61.7-11.51.7Zm-14.85-1.14c-.11 0-.22 0-.33-.03-4.44-.68-8.83-1.66-13.05-2.9a2.18 2.18 0 0 1-1.48-2.71 2.18 2.18 0 0 1 2.71-1.48c4.04 1.19 8.23 2.12 12.48 2.78 1.19.18 2.01 1.3 1.82 2.49a2.18 2.18 0 0 1-2.15 1.85m38.89-2.18c-.94 0-1.81-.62-2.09-1.57a2.18 2.18 0 0 1 1.48-2.71c4.14-1.21 8.1-2.77 11.79-4.64 1.07-.54 2.39-.11 2.93.96s.11 2.39-.96 2.93c-3.92 1.99-8.14 3.64-12.53 4.93-.2.06-.41.09-.61.09Zm-82.42-3.82c-.09 0-.17 0-.26-.02a2.18 2.18 0 0 1-1.91-2.42c.53-4.45 1.14-8.84 1.82-13.06a2.183 2.183 0 0 1 4.31.69c-.67 4.16-1.27 8.49-1.79 12.88a2.17 2.17 0 0 1-2.16 1.92Zm18.53-1.46c-.31 0-.63-.07-.93-.21-4.04-1.9-7.95-4.16-11.63-6.71a2.193 2.193 0 0 1-.55-3.04c.69-.99 2.05-1.23 3.04-.54a76.5 76.5 0 0 0 10.99 6.35 2.17 2.17 0 0 1 1.04 2.9c-.37.79-1.16 1.25-1.97 1.25Zm87.06-6.55c-.64 0-1.28-.28-1.71-.82-.75-.94-.59-2.32.35-3.06a61 61 0 0 0 9-8.82c.77-.93 2.14-1.06 3.07-.29s1.06 2.14.29 3.07c-.4.49-.82.97-1.23 1.45a65 65 0 0 1-8.42 8.01c-.4.32-.88.47-1.35.47Zm-108.45-8.29c-.55 0-1.09-.2-1.52-.61-3.13-3.02-6.13-6.38-8.92-9.98a2.182 2.182 0 0 1 3.45-2.67c2.66 3.44 5.52 6.64 8.5 9.52.87.84.89 2.22.05 3.08-.43.44-1 .67-1.57.67Zm7.05-9.55a2.19 2.19 0 0 1-2.14-2.63c.93-4.42 1.97-8.75 3.08-12.85a2.183 2.183 0 0 1 2.67-1.54c1.16.31 1.85 1.51 1.54 2.67-1.09 4.03-2.1 8.27-3.02 12.61a2.18 2.18 0 0 1-2.13 1.73Zm118.06-2.11a2.173 2.173 0 0 1-1.9-3.23 78 78 0 0 0 5.19-11.6c.4-1.14 1.65-1.74 2.78-1.33 1.14.4 1.73 1.65 1.33 2.78-1.51 4.28-3.35 8.41-5.49 12.26-.4.72-1.14 1.13-1.91 1.13Zm-141.15-8.92c-.74 0-1.47-.38-1.88-1.07-2.19-3.69-4.26-7.65-6.17-11.79-.5-1.09-.03-2.39 1.07-2.89 1.09-.5 2.39-.03 2.89 1.07 1.85 4 3.85 7.84 5.96 11.39.61 1.04.27 2.37-.76 2.99-.35.21-.73.31-1.11.31Zm29.97-14.21a2.18 2.18 0 0 1-2.06-2.89c1.49-4.31 3.12-8.47 4.84-12.35.49-1.1 1.78-1.6 2.88-1.11s1.6 1.78 1.11 2.88c-1.67 3.77-3.26 7.82-4.71 12.01-.31.9-1.16 1.47-2.06 1.47Zm119.89-1.44c-.13 0-.26-.01-.4-.04a2.187 2.187 0 0 1-1.75-2.54 78 78 0 0 0 1.3-12.65c.02-1.19 1-2.14 2.18-2.14h.04c1.2.02 2.16 1.02 2.14 2.22-.09 4.41-.55 8.9-1.37 13.35a2.18 2.18 0 0 1-2.14 1.79Zm-160.87-8.06c-.89 0-1.73-.55-2.05-1.44-1.44-3.99-2.8-8.23-4.04-12.62-.33-1.16.34-2.36 1.5-2.69s2.36.34 2.69 1.5c1.22 4.29 2.54 8.43 3.95 12.32a2.182 2.182 0 0 1-2.05 2.92Zm51.66-14.36c-.37 0-.74-.09-1.09-.29-1.04-.6-1.4-1.93-.8-2.98 2.3-3.99 4.78-7.73 7.39-11.13.73-.96 2.1-1.13 3.06-.4s1.14 2.1.4 3.06c-2.49 3.25-4.87 6.83-7.07 10.65-.4.7-1.14 1.09-1.89 1.09m109.63-3.62c-1.05 0-1.97-.75-2.15-1.82-.73-4.33-1.89-8.39-3.45-12.05-.47-1.11.04-2.39 1.15-2.86a2.17 2.17 0 0 1 2.86 1.15c1.7 3.98 2.95 8.37 3.74 13.04a2.176 2.176 0 0 1-2.15 2.54m-168.51-7.19c-.99 0-1.89-.68-2.12-1.69-.42-1.84-.8-3.55-1.14-5.09-.58-2.64-1.1-5.24-1.56-7.83a2.18 2.18 0 0 1 1.77-2.53 2.18 2.18 0 0 1 2.53 1.77c.45 2.53.95 5.07 1.5 7.56.36 1.62.73 3.31 1.15 5.15.27 1.17-.46 2.34-1.64 2.61-.16.04-.33.06-.49.06Zm74.87-9.79a2.18 2.18 0 0 1-1.49-3.77c3.34-3.13 6.91-5.91 10.63-8.26a2.183 2.183 0 0 1 2.33 3.69c-3.49 2.2-6.84 4.81-9.98 7.75-.42.39-.96.59-1.49.59m83.19-6.65c-.6 0-1.21-.25-1.64-.74a32.5 32.5 0 0 0-3.62-3.52 32 32 0 0 0-6.01-3.94 2.178 2.178 0 1 1 1.98-3.88 37.2 37.2 0 0 1 6.81 4.47c1.45 1.2 2.83 2.55 4.1 4 .8.9.71 2.28-.2 3.08-.41.36-.93.54-1.44.54Zm-61.21-7.2c-.88 0-1.7-.53-2.04-1.4-.43-1.12.13-2.39 1.25-2.82 4.1-1.58 8.42-2.87 12.85-3.83 1.18-.25 2.34.49 2.59 1.67s-.49 2.34-1.67 2.59c-4.21.91-8.32 2.13-12.21 3.63q-.39.15-.78.15Zm-101.38-2.13c-1.1 0-2.04-.83-2.17-1.94-.47-4.32-.82-8.76-1.02-13.18-.06-1.2.88-2.22 2.08-2.28 1.2-.05 2.22.88 2.28 2.08.2 4.33.53 8.67 1 12.91.13 1.2-.73 2.27-1.93 2.41-.08 0-.16.01-.24.01Zm139.91-2.63c-.12 0-.24-.01-.37-.03-3.9-.66-8.15-.89-12.58-.67-1.2.03-2.23-.87-2.28-2.07s.87-2.23 2.07-2.28c4.74-.23 9.3.02 13.51.73 1.19.2 1.99 1.33 1.79 2.51a2.186 2.186 0 0 1-2.15 1.82Zm-141.12-23.49h-.03a2.185 2.185 0 0 1-2.15-2.21c.06-4.35.25-8.79.57-13.19.09-1.2 1.14-2.07 2.33-2.02 1.2.09 2.11 1.13 2.02 2.33-.31 4.32-.5 8.67-.56 12.94a2.185 2.185 0 0 1-2.18 2.15m1.87-26.08c-.09 0-.19 0-.28-.02a2.184 2.184 0 0 1-1.89-2.44c.55-4.32 1.23-8.71 2.02-13.05a2.167 2.167 0 0 1 2.54-1.75c1.18.22 1.97 1.35 1.75 2.54-.78 4.26-1.44 8.57-1.99 12.82a2.19 2.19 0 0 1-2.16 1.91Zm4.69-25.75a2.178 2.178 0 0 1-2.12-2.68c1.01-4.26 2.14-8.56 3.37-12.77a2.173 2.173 0 0 1 2.7-1.48c1.16.34 1.82 1.55 1.48 2.7-1.21 4.14-2.32 8.37-3.31 12.55-.24 1-1.13 1.68-2.12 1.68m7.32-25.14a2.178 2.178 0 0 1-2.06-2.9c1.44-4.15 3.01-8.31 4.65-12.37a2.17 2.17 0 0 1 2.84-1.2c1.12.45 1.65 1.72 1.2 2.84-1.62 3.98-3.16 8.08-4.57 12.16-.31.9-1.16 1.47-2.06 1.47m124.37-6.32c-1.15 0-2.11-.9-2.18-2.06a2.18 2.18 0 0 1 2.05-2.3c4.3-.25 8.55-.81 12.63-1.67 1.18-.25 2.34.5 2.58 1.68s-.5 2.34-1.68 2.58c-4.3.91-8.77 1.5-13.29 1.76h-.13Zm-13.07-.19h-.19a91 91 0 0 1-13.23-2.13 2.18 2.18 0 0 1-1.61-2.63 2.18 2.18 0 0 1 2.63-1.61c4.07.98 8.3 1.66 12.59 2.03 1.2.1 2.09 1.16 1.99 2.36a2.176 2.176 0 0 1-2.17 1.99Zm38.55-5.28c-.87 0-1.69-.52-2.03-1.37-.45-1.12.1-2.39 1.22-2.83 4.04-1.61 7.81-3.56 11.2-5.8 1-.66 2.36-.39 3.02.62.66 1 .39 2.36-.62 3.02-3.64 2.41-7.67 4.5-11.99 6.22-.26.11-.54.16-.81.16Zm-63.88-.89c-.29 0-.58-.06-.86-.18-4.31-1.85-8.29-4.06-11.82-6.56a2.19 2.19 0 0 1-.52-3.04 2.19 2.19 0 0 1 3.04-.52c3.28 2.33 6.99 4.38 11.02 6.11 1.11.47 1.62 1.76 1.14 2.86-.35.83-1.16 1.32-2.01 1.32Zm-76.12-11.58c-.31 0-.62-.07-.92-.21a2.18 2.18 0 0 1-1.05-2.9c1.86-3.99 3.85-7.96 5.9-11.81a2.19 2.19 0 0 1 2.95-.9 2.19 2.19 0 0 1 .9 2.95c-2.02 3.78-3.97 7.68-5.8 11.6-.37.79-1.16 1.26-1.98 1.26Zm161.54-1.99a2.181 2.181 0 0 1-1.61-3.65c.27-.3.55-.61.81-.91 2.39-2.76 4.53-5.9 6.36-9.33a2.18 2.18 0 0 1 2.95-.9 2.19 2.19 0 0 1 .9 2.95c-1.98 3.72-4.31 7.12-6.91 10.13-.29.34-.59.67-.89 1-.43.47-1.02.71-1.61.71m-106.4-1.63c-.64 0-1.27-.28-1.7-.81-2.97-3.68-5.17-7.61-6.71-12.01-.4-1.14.2-2.38 1.33-2.78 1.14-.4 2.38.2 2.78 1.33 1.38 3.92 3.34 7.42 5.99 10.72a2.18 2.18 0 0 1-1.7 3.55Zm-42.81-19.45c-.39 0-.78-.1-1.13-.32a2.18 2.18 0 0 1-.73-3c2.3-3.79 4.72-7.52 7.18-11.09.68-.99 2.04-1.24 3.03-.56s1.24 2.04.56 3.03c-2.42 3.5-4.79 7.16-7.04 10.88-.41.68-1.13 1.05-1.87 1.05Zm161.6-1.71c-.2 0-.41-.03-.61-.09a2.18 2.18 0 0 1-1.48-2.71c1.17-4 1.99-8.18 2.43-12.44a2.17 2.17 0 0 1 2.39-1.94c1.2.12 2.07 1.2 1.94 2.39-.47 4.52-1.34 8.97-2.58 13.22-.28.95-1.15 1.57-2.09 1.57m-127.56-3.01c-1.15 0-2.11-.9-2.18-2.06-.06-1.14-.09-2.32-.09-3.51 0-3.09.2-6.33.61-9.91.14-1.2 1.22-2.06 2.42-1.92a2.19 2.19 0 0 1 1.92 2.42c-.39 3.41-.58 6.48-.58 9.41 0 1.12.03 2.22.09 3.28.06 1.2-.86 2.23-2.06 2.3h-.12Zm-19.17-16.8c-.47 0-.95-.15-1.35-.47a2.18 2.18 0 0 1-.37-3.06c2.75-3.5 5.62-6.91 8.52-10.13.81-.89 2.18-.97 3.08-.16s.97 2.18.16 3.08c-2.83 3.14-5.63 6.48-8.33 9.9-.43.55-1.07.83-1.72.83Zm149.44-6.08a2.18 2.18 0 0 1-2.17-2.02c-.31-4.3-1.01-8.5-2.08-12.48-.31-1.16.38-2.36 1.54-2.67s2.36.38 2.67 1.54c1.14 4.25 1.88 8.72 2.21 13.29.09 1.2-.82 2.25-2.02 2.33h-.16Zm-127.62-3.07c-.15 0-.29-.01-.44-.04a2.18 2.18 0 0 1-1.7-2.57c.68-3.33 1.49-6.92 2.54-11.21-1.07.97-2.13 1.96-3.17 2.96a2.18 2.18 0 0 1-3.01-3.15c3.23-3.1 6.58-6.05 9.94-8.78a2.18 2.18 0 0 1 3.07.32c.76.93.62 2.31-.32 3.07-1.01.82-2.01 1.66-3.01 2.52.9.44 1.4 1.46 1.15 2.48-1.22 4.96-2.14 8.99-2.9 12.67a2.18 2.18 0 0 1-2.13 1.74Zm120.76-21.99c-.78 0-1.54-.42-1.93-1.16-2.02-3.82-4.46-7.22-7.24-10.1a2.179 2.179 0 0 1 3.13-3.03c3.07 3.17 5.74 6.91 7.96 11.09.56 1.06.16 2.38-.91 2.95-.33.17-.67.25-1.02.25Zm-114.62-3.45a2.182 2.182 0 0 1-2.12-2.73l.14-.54c1.01-3.92 2.06-7.96 3.1-12.13a2.173 2.173 0 0 1 2.65-1.58c1.17.29 1.88 1.48 1.58 2.65-1.05 4.18-2.09 8.23-3.11 12.16l-.14.54c-.25.98-1.14 1.64-2.11 1.64Zm9.89-1.27c-.7 0-1.39-.34-1.81-.97-.67-1-.4-2.36.6-3.03 3.74-2.51 7.58-4.81 11.4-6.84 1.06-.57 2.38-.16 2.95.9a2.19 2.19 0 0 1-.9 2.95c-3.69 1.96-7.4 4.18-11.02 6.61-.37.25-.8.37-1.21.37Zm23.08-12.19c-.87 0-1.7-.53-2.03-1.39-.44-1.12.12-2.39 1.24-2.83 4.01-1.57 8.1-2.89 12.16-3.92l.55-.14c1.17-.29 2.35.41 2.65 1.58s-.41 2.35-1.58 2.65l-.46.12c-3.96 1.01-7.88 2.28-11.73 3.78-.26.1-.53.15-.79.15Zm63.61-1.48c-.34 0-.69-.08-1.01-.25-3.52-1.84-7.47-3.25-11.74-4.18a2.18 2.18 0 0 1-1.67-2.59 2.185 2.185 0 0 1 2.59-1.67c4.65 1.01 8.97 2.55 12.84 4.58 1.07.56 1.48 1.88.92 2.94a2.19 2.19 0 0 1-1.93 1.17m-38.33-5a2.185 2.185 0 0 1-.28-4.35c4.14-.55 8.22-.83 12.1-.83h1.27a2.18 2.18 0 0 1 2.14 2.22c-.02 1.21-1 2.13-2.22 2.14h-1.2c-3.7 0-7.57.27-11.53.79-.1.01-.19.02-.29.02Zm-51.94-5.45c-.16 0-.33-.02-.49-.06a2.184 2.184 0 0 1-1.64-2.61c1.02-4.45 1.92-8.62 2.75-12.73a2.19 2.19 0 0 1 2.57-1.71c1.18.24 1.95 1.39 1.71 2.57-.83 4.15-1.74 8.36-2.77 12.85a2.176 2.176 0 0 1-2.12 1.69Zm5.11-25.66c-.12 0-.24 0-.36-.03a2.19 2.19 0 0 1-1.8-2.51c.71-4.33 1.34-8.65 1.86-12.86a2.18 2.18 0 1 1 4.33.53c-.53 4.27-1.16 8.65-1.88 13.03a2.186 2.186 0 0 1-2.15 1.83Zm3.21-25.96h-.18a2.19 2.19 0 0 1-2-2.35c.35-4.32.61-8.68.76-12.96.04-1.2 1.06-2.16 2.26-2.1 1.2.04 2.14 1.06 2.1 2.26-.16 4.35-.42 8.78-.77 13.16-.09 1.14-1.05 2-2.17 2Zm.94-26.14a2.18 2.18 0 0 1-2.18-2.16c-.04-4.31-.18-8.67-.42-12.98-.07-1.2.85-2.23 2.06-2.3 1.19-.05 2.23.85 2.3 2.06.24 4.37.39 8.8.43 13.18.01 1.2-.96 2.19-2.16 2.2h-.02Zm-1.45-26.12c-1.11 0-2.05-.84-2.17-1.96-.43-4.27-.97-8.6-1.6-12.88a2.179 2.179 0 0 1 4.31-.63c.64 4.34 1.18 8.74 1.62 13.08a2.18 2.18 0 0 1-1.95 2.39c-.07 0-.15.01-.22.01Zm-3.79-25.89c-1.03 0-1.94-.73-2.14-1.77-.8-4.21-1.71-8.49-2.69-12.73-.27-1.17.46-2.35 1.63-2.62a2.18 2.18 0 0 1 2.62 1.63c1 4.29 1.91 8.63 2.72 12.9a2.175 2.175 0 0 1-2.14 2.59m-96.69-17.79h-.18c-.84-.07-1.67-.16-2.51-.26-3.51-.43-7.13-1.17-10.76-2.21a2.184 2.184 0 0 1-1.5-2.7 2.18 2.18 0 0 1 2.69-1.5c3.41.97 6.81 1.67 10.1 2.07.78.1 1.55.18 2.33.24 1.2.1 2.09 1.15 2 2.35-.09 1.14-1.05 2-2.17 2Zm13.05-.23c-1.09 0-2.04-.82-2.16-1.94-.14-1.2.72-2.28 1.92-2.41 4.07-.46 8.26-1.3 12.46-2.5a2.184 2.184 0 0 1 1.2 4.2c-4.43 1.26-8.86 2.15-13.16 2.64-.08 0-.17.01-.25.01Zm-38.13-6.79c-.32 0-.64-.07-.94-.21a79.5 79.5 0 0 1-11.6-6.79 2.181 2.181 0 0 1 2.52-3.56c3.42 2.41 7.11 4.57 10.97 6.42a2.18 2.18 0 0 1-.94 4.15Zm63.23-.25c-.84 0-1.64-.49-2-1.3a2.18 2.18 0 0 1 1.12-2.88c3.79-1.67 7.63-3.64 11.41-5.86 1.04-.61 2.38-.26 2.98.78.61 1.04.26 2.38-.78 2.98-3.93 2.3-7.92 4.35-11.86 6.09-.29.13-.58.19-.88.19Zm52.63-.45c-.96 0-1.84-.64-2.1-1.61-1.14-4.18-2.38-8.38-3.67-12.48-.36-1.15.27-2.37 1.42-2.74s2.37.27 2.74 1.42c1.31 4.15 2.56 8.4 3.72 12.64a2.184 2.184 0 0 1-2.11 2.76Zm-30.05-12.7c-.67 0-1.34-.31-1.77-.9-.71-.97-.49-2.34.48-3.05 3.4-2.47 6.8-5.18 10.09-8.03a2.184 2.184 0 0 1 2.86 3.3c-3.38 2.94-6.88 5.72-10.38 8.27a2.2 2.2 0 0 1-1.28.42Zm-107.04-1.68c-.57 0-1.14-.22-1.56-.66-3.2-3.29-6.02-6.86-8.38-10.61a2.183 2.183 0 0 1 3.69-2.33 60.4 60.4 0 0 0 7.82 9.89c.84.86.82 2.25-.05 3.08-.42.41-.97.62-1.52.62Zm129.19-10.58c-.89 0-1.73-.55-2.05-1.44-.45-1.23-.9-2.46-1.36-3.68-.18-.1-.35-.22-.51-.37-.63-.62-.81-1.53-.52-2.31q-1.14-2.925-2.31-5.76c-.46-1.11.07-2.39 1.18-2.85s2.39.07 2.85 1.18c.52 1.24 1.03 2.5 1.53 3.77 2.03-2.17 4.01-4.4 5.93-6.68.78-.92 2.15-1.04 3.07-.26s1.04 2.15.26 3.07c-2.42 2.87-4.95 5.68-7.52 8.36.51 1.34 1.01 2.68 1.49 4.03.41 1.13-.17 2.38-1.31 2.79-.25.09-.5.13-.74.13ZM89.59 905.3c-.9 0-1.74-.56-2.06-1.46-.08-.24-.17-.48-.25-.72a63 63 0 0 1-2.8-12.46 2.182 2.182 0 0 1 4.33-.53c.49 4.01 1.37 7.92 2.61 11.6.07.22.15.44.23.66.4 1.14-.19 2.38-1.33 2.78-.24.08-.49.12-.73.12Zm132.92-12.75c-.82 0-1.6-.46-1.97-1.25-1.9-3.99-3.88-7.87-5.9-11.55-.58-1.06-.19-2.38.86-2.96 1.06-.58 2.38-.19 2.96.86 2.06 3.75 4.08 7.71 6.01 11.77.52 1.09.05 2.39-1.03 2.91-.3.14-.62.21-.94.21Zm24.52-.68a2.187 2.187 0 0 1-1.76-3.47c2.53-3.49 4.95-7.1 7.21-10.74a2.186 2.186 0 0 1 3-.71c1.02.63 1.34 1.98.71 3-2.31 3.73-4.79 7.43-7.39 11-.43.59-1.09.9-1.77.9ZM86.36 879.51h-.17c-1.2-.09-2.1-1.14-2.01-2.34.35-4.52 1.15-9 2.37-13.29a2.184 2.184 0 0 1 4.2 1.2 63.7 63.7 0 0 0-2.22 12.43 2.18 2.18 0 0 1-2.17 2.01Zm123.52-9.88c-.72 0-1.42-.35-1.84-1-2.4-3.74-4.89-7.29-7.41-10.56-.73-.95-.56-2.32.4-3.06.96-.73 2.32-.55 3.06.4 2.59 3.37 5.15 7.02 7.62 10.86.65 1.01.36 2.36-.66 3.01-.36.23-.77.35-1.18.35Zm50.92-.01c-.34 0-.68-.08-1-.25a2.173 2.173 0 0 1-.93-2.94c2-3.85 3.84-7.79 5.48-11.69a2.19 2.19 0 0 1 2.86-1.17c1.11.47 1.63 1.75 1.17 2.86-1.68 4.01-3.58 8.05-5.63 12-.39.75-1.15 1.18-1.94 1.18ZM93.55 854.54c-.35 0-.7-.08-1.03-.26a2.167 2.167 0 0 1-.88-2.95c2.19-4.06 4.82-7.79 7.81-11.1a2.182 2.182 0 0 1 3.23 2.93c-2.76 3.05-5.19 6.5-7.21 10.25-.39.73-1.15 1.15-1.92 1.15Zm100.32-5.57c-.58 0-1.15-.23-1.58-.68-3.06-3.21-6.22-6.12-9.4-8.65a2.178 2.178 0 0 1 2.71-3.41c3.33 2.65 6.64 5.7 9.84 9.05.83.87.8 2.25-.07 3.08-.42.4-.96.6-1.5.6Zm77.04-3.46c-.22 0-.45-.03-.67-.1a2.177 2.177 0 0 1-1.41-2.74c1.31-4.08 2.44-8.26 3.37-12.43a2.183 2.183 0 0 1 2.6-1.65c1.18.26 1.92 1.43 1.65 2.6-.96 4.3-2.13 8.61-3.48 12.82-.3.93-1.15 1.52-2.08 1.52Zm-159.93-10.12c-.71 0-1.41-.35-1.83-.99a2.18 2.18 0 0 1 .63-3.02c3.71-2.43 7.81-4.45 12.18-5.99 1.14-.4 2.38.19 2.78 1.33.4 1.13-.19 2.38-1.33 2.78-4.04 1.43-7.82 3.29-11.25 5.53-.37.24-.78.36-1.19.36Zm62.41-2.52c-.35 0-.71-.09-1.04-.27-3.8-2.06-7.7-3.68-11.61-4.81a2.18 2.18 0 0 1-1.49-2.7 2.18 2.18 0 0 1 2.7-1.49c4.21 1.22 8.41 2.96 12.48 5.17 1.06.58 1.45 1.9.87 2.96-.4.73-1.14 1.14-1.92 1.14Zm-38-6.3c-1.07 0-2-.79-2.16-1.88-.17-1.19.67-2.29 1.86-2.46 3.45-.48 7.01-.73 10.58-.73 1.01 0 1.97.02 2.86.05 1.2.04 2.14 1.06 2.1 2.26s-1.07 2.13-2.26 2.1a73 73 0 0 0-12.67.63c-.1.01-.2.02-.3.02Zm141.2-6.56c-.09 0-.19 0-.28-.02a2.175 2.175 0 0 1-1.88-2.44c.54-4.2.91-8.52 1.09-12.85.05-1.2 1.06-2.16 2.27-2.09 1.2.05 2.14 1.07 2.09 2.27-.18 4.45-.56 8.9-1.12 13.22-.14 1.1-1.08 1.9-2.16 1.9Zm1.11-26.12a2.18 2.18 0 0 1-2.18-2.09c-.16-4.19-.49-8.53-.98-12.89-.13-1.2.73-2.28 1.93-2.41 1.2-.15 2.28.73 2.41 1.92.5 4.46.84 8.9 1.01 13.2.05 1.2-.89 2.22-2.09 2.27h-.09Zm-2.86-25.99c-1.04 0-1.96-.75-2.15-1.8-.72-4.08-1.58-8.36-2.58-12.71-.27-1.17.47-2.34 1.64-2.61s2.34.46 2.61 1.64c1.01 4.42 1.9 8.77 2.62 12.93.21 1.19-.59 2.32-1.77 2.53-.13.02-.25.03-.38.03Zm-5.79-25.52c-.96 0-1.84-.64-2.1-1.61-1.06-3.89-2.23-7.99-3.6-12.52-.35-1.15.31-2.37 1.46-2.72s2.37.31 2.72 1.46c1.38 4.57 2.56 8.71 3.63 12.64a2.184 2.184 0 0 1-2.1 2.76Zm15.74-24.18h-.53c-1.2 0-2.18-.99-2.17-2.2 0-1.2.98-2.17 2.18-2.17h.52c4.2 0 8.25-.4 12.05-1.18 1.18-.24 2.33.52 2.58 1.7.24 1.18-.52 2.33-1.7 2.58-4.08.84-8.43 1.26-12.93 1.27m-23.23-.9c-.93 0-1.79-.59-2.08-1.52l-.51-1.62c-.35-.11-.71-.21-1.06-.32a2.182 2.182 0 0 1-.33-4.04c-.69-2.19-1.38-4.36-2.05-6.51-.36-1.15.28-2.37 1.43-2.73s2.37.28 2.73 1.43c.86 2.76 1.75 5.57 2.66 8.43l.06.19c3.12.85 6.21 1.54 9.21 2.06a2.18 2.18 0 0 1 1.78 2.52 2.18 2.18 0 0 1-2.52 1.78c-2.35-.4-4.75-.91-7.17-1.51a2.184 2.184 0 0 1-2.16 1.85Zm48.07-4.52c-.8 0-1.58-.45-1.96-1.22-.53-1.08-.09-2.39.99-2.92 2.3-1.13 4.51-2.47 6.59-3.98 1.27-.92 2.52-1.93 3.73-3a2.183 2.183 0 0 1 2.9 3.26 53 53 0 0 1-4.07 3.27 50.6 50.6 0 0 1-7.22 4.36c-.31.15-.64.23-.96.23m-63.37-3.35c-.28 0-.57-.06-.85-.17-3.99-1.7-8.02-3.63-11.97-5.76a2.179 2.179 0 1 1 2.06-3.84c3.84 2.06 7.75 3.94 11.62 5.59 1.11.47 1.62 1.75 1.15 2.86-.35.83-1.16 1.33-2.01 1.33Zm-23.05-12.35c-.41 0-.82-.12-1.19-.35-3.75-2.44-7.38-5.04-10.8-7.72a2.179 2.179 0 1 1 2.69-3.43c3.32 2.6 6.85 5.13 10.49 7.5a2.19 2.19 0 0 1 .64 3.02c-.42.64-1.12.99-1.83.99Zm105.96-1.32a2.187 2.187 0 0 1-1.76-3.47c2.42-3.34 4.6-7.01 6.47-10.9a2.176 2.176 0 0 1 2.91-1.02c1.09.52 1.54 1.83 1.02 2.91-1.99 4.13-4.3 8.03-6.88 11.58-.43.59-1.09.9-1.77.9Zm-75.31-3.48c-.95 0-1.82-.63-2.1-1.59-1.35-4.77-2.43-8.96-3.27-12.8-.26-1.18.48-2.34 1.66-2.6s2.34.48 2.6 1.66c.83 3.76 1.88 7.86 3.21 12.55a2.17 2.17 0 0 1-2.1 2.77Zm-51.17-11.4c-.55 0-1.09-.2-1.51-.61-3.13-3.02-6.19-6.28-9.1-9.69-.78-.92-.67-2.29.24-3.08.92-.78 2.29-.68 3.07.24 2.82 3.31 5.79 6.46 8.82 9.38a2.18 2.18 0 0 1-1.51 3.75Zm137.82-8.58c-.2 0-.4-.03-.61-.09a2.18 2.18 0 0 1-1.49-2.7c1.2-4.16 2.03-8.34 2.45-12.44a2.17 2.17 0 0 1 2.39-1.94c1.2.12 2.07 1.2 1.94 2.39-.45 4.36-1.33 8.8-2.6 13.2-.28.96-1.15 1.58-2.09 1.58Zm-92.06-5.6c-1.1 0-2.05-.83-2.17-1.96-.28-2.71-.43-5.32-.43-7.76 0-1.98.09-3.91.28-5.74.12-1.2 1.19-2.08 2.39-1.95a2.18 2.18 0 0 1 1.95 2.39c-.17 1.69-.26 3.47-.26 5.3 0 2.29.14 4.75.4 7.31.12 1.2-.75 2.27-1.94 2.39-.08 0-.15.01-.23.01Zm-62.76-5.68c-.68 0-1.36-.32-1.78-.92-2.56-3.6-4.98-7.36-7.2-11.16-.61-1.04-.26-2.38.78-2.98 1.04-.61 2.38-.26 2.98.78 2.15 3.69 4.51 7.33 6.99 10.83.7.98.47 2.34-.52 3.04-.38.27-.82.4-1.26.4Zm157.3-14.61c-1.09 0-2.03-.81-2.16-1.92-.53-4.41-1.63-8.41-3.27-11.89a2.178 2.178 0 1 1 3.94-1.86c1.84 3.9 3.07 8.35 3.66 13.23.14 1.2-.71 2.28-1.91 2.42-.09.01-.18.02-.26.02m-91.44-5.39a2.18 2.18 0 0 1-1.99-3.07c1.8-4.01 4.32-7.71 7.49-11l.34-.34a2.17 2.17 0 0 1 3.08-.02c.86.85.87 2.23.02 3.08l-.3.31c-2.86 2.96-5.03 6.16-6.65 9.76a2.18 2.18 0 0 1-1.99 1.29Zm-79.04-2.59c-.82 0-1.61-.47-1.98-1.26-1.9-4.07-3.6-8.21-5.03-12.31-.4-1.14.2-2.38 1.33-2.78s2.38.2 2.78 1.33c1.39 3.96 3.03 7.97 4.87 11.91.51 1.09.04 2.39-1.05 2.9-.3.14-.61.21-.92.21m159.04-14.82c-.48 0-.96-.16-1.37-.48-2.96-2.39-6.6-4.33-10.82-5.77a2.182 2.182 0 0 1 1.41-4.13c4.7 1.61 8.79 3.79 12.15 6.5.94.76 1.09 2.13.33 3.07-.43.54-1.06.81-1.7.81m-62.2-1.14c-.76 0-1.51-.4-1.9-1.12-.59-1.05-.21-2.38.84-2.97 3.81-2.13 8.01-3.9 12.48-5.23 1.15-.35 2.37.31 2.71 1.46.35 1.15-.31 2.37-1.46 2.71-4.17 1.25-8.07 2.88-11.6 4.86-.34.19-.7.28-1.06.28Zm24.86-7.58a2.18 2.18 0 0 1-.22-4.35c4.51-.46 9.11-.48 13.49-.08 1.2.11 2.08 1.17 1.97 2.37a2.184 2.184 0 0 1-2.37 1.97c-4.1-.38-8.41-.35-12.65.07-.07 0-.15.01-.22.01Zm-130.32-1.13c-.99 0-1.89-.68-2.12-1.69-1.02-4.45-1.74-8.88-2.15-13.19-.11-1.2.77-2.26 1.97-2.38 1.2-.11 2.26.77 2.38 1.97.39 4.11 1.08 8.36 2.06 12.62.27 1.17-.46 2.34-1.64 2.61-.16.04-.33.06-.49.06Zm-2.35-25.98h-.14a2.174 2.174 0 0 1-2.04-2.31c.28-4.59.96-9.07 2.03-13.31a2.187 2.187 0 0 1 2.65-1.59c1.17.29 1.88 1.48 1.59 2.65-1 3.99-1.64 8.2-1.91 12.52a2.18 2.18 0 0 1-2.18 2.05Zm6.41-25.19a2.182 2.182 0 0 1-1.96-3.14c2.12-4.33 4.58-8.04 7.54-11.34a2.182 2.182 0 0 1 3.25 2.91c-2.69 3-4.93 6.38-6.87 10.34-.38.77-1.15 1.22-1.96 1.22Zm17.17-19.24c-.71 0-1.4-.34-1.82-.98-.66-1-.39-2.36.62-3.02 2.65-1.75 5.41-3.34 8.08-4.88 1.08-.62 2.16-1.24 3.24-1.88a2.183 2.183 0 0 1 2.22 3.76c-1.1.65-2.19 1.28-3.28 1.9-2.73 1.57-5.32 3.06-7.85 4.73-.37.25-.79.36-1.2.36Zm22.02-14.06c-.63 0-1.25-.27-1.68-.79-.77-.93-.64-2.3.29-3.07 3.27-2.71 6.08-5.67 8.61-9.07.72-.97 2.09-1.17 3.05-.45.97.72 1.17 2.08.45 3.05a56 56 0 0 1-9.33 9.83c-.41.34-.9.5-1.39.5m15.61-20.69c-.31 0-.62-.07-.92-.2a2.183 2.183 0 0 1-1.06-2.9 62.6 62.6 0 0 0 4.13-11.92 2.186 2.186 0 0 1 2.62-1.62c1.17.28 1.9 1.45 1.62 2.62a66 66 0 0 1-4.42 12.76c-.37.79-1.16 1.26-1.98 1.26Zm6-25.29h-.09a2.193 2.193 0 0 1-2.1-2.26q.06-1.455.06-2.91c0-3.15-.19-6.37-.57-9.83-.13-1.2.73-2.27 1.93-2.41a2.2 2.2 0 0 1 2.41 1.93c.4 3.63.59 7 .59 10.31 0 1.02-.02 2.05-.06 3.07a2.19 2.19 0 0 1-2.18 2.1Zm-2.61-25.97c-1.01 0-1.92-.71-2.13-1.75-.9-4.43-1.97-8.87-2.89-12.68-.28-1.17.43-2.35 1.6-2.63s2.35.43 2.63 1.6c.94 3.85 2.01 8.34 2.93 12.84.24 1.18-.52 2.33-1.7 2.57-.15.03-.29.04-.44.04Zm38.71-20.46c-.8 0-1.43-.01-1.85-.03-2.85-.08-5.76-.36-8.65-.82a2.183 2.183 0 0 1 .69-4.31c2.71.43 5.43.69 8.1.77.79.02 2.37.05 4.51-.03 1.21-.06 2.22.89 2.27 2.09s-.89 2.22-2.09 2.27c-1.15.05-2.15.06-2.97.06Zm15.86-1.69c-1 0-1.91-.7-2.13-1.72-.26-1.18.49-2.34 1.67-2.59 4.34-.94 8.35-2.27 11.94-3.96 1.09-.51 2.39-.04 2.9 1.05s.04 2.39-1.05 2.9c-3.88 1.82-8.21 3.26-12.87 4.27-.16.03-.31.05-.47.05Zm-38.68-2.35q-.36 0-.72-.12c-4.12-1.44-8.24-3.26-12.27-5.41a2.19 2.19 0 0 1-.9-2.95 2.19 2.19 0 0 1 2.95-.9c3.83 2.04 7.75 3.77 11.65 5.14 1.14.4 1.74 1.64 1.34 2.78-.31.9-1.16 1.46-2.06 1.46Zm-21.83-.99c-1 0-1.9-.69-2.13-1.71-.96-4.28-1.66-7.91-2.19-11.29a108 108 0 0 1-8.48-7.15 2.17 2.17 0 0 1-.1-3.08c.82-.88 2.2-.93 3.08-.1 2.31 2.16 4.71 4.2 7.17 6.12 1.14-.12 2.19.66 2.38 1.8l.33.24c.98.71 1.19 2.07.49 3.05-.08.11-.16.21-.26.29.47 2.77 1.07 5.76 1.83 9.18.26 1.18-.48 2.34-1.65 2.6-.16.04-.32.05-.48.05Zm83.77-7.98c-.58 0-1.17-.23-1.6-.7a2.18 2.18 0 0 1 .11-3.08 33.5 33.5 0 0 0 7.29-9.81 2.18 2.18 0 0 1 2.92-.99c1.08.53 1.52 1.84.99 2.92-.61 1.23-1.28 2.44-2.01 3.58a38.3 38.3 0 0 1-6.23 7.49c-.42.39-.95.58-1.48.58Zm-87.11-17.92h-.02c-1.2-.01-2.17-1-2.16-2.2.05-4.77.56-9.17 1.57-13.44.27-1.17 1.45-1.9 2.62-1.62s1.9 1.45 1.62 2.62c-.93 3.96-1.41 8.05-1.45 12.5a2.18 2.18 0 0 1-2.18 2.16Zm-16.97-3.13c-.62 0-1.24-.26-1.67-.77-2.86-3.39-5.55-6.98-8-10.67-.66-1-.39-2.36.61-3.02s2.36-.39 3.02.61c2.35 3.55 4.94 7 7.69 10.26a2.174 2.174 0 0 1-1.67 3.58Zm115.65-1.85c-.11 0-.21 0-.32-.02a2.194 2.194 0 0 1-1.84-2.48c.34-2.27.51-4.63.51-7.02 0-1.8-.1-3.65-.29-5.48a2.18 2.18 0 0 1 1.94-2.4c1.2-.12 2.27.74 2.4 1.94.21 1.99.31 3.98.31 5.94 0 2.6-.19 5.18-.55 7.66a2.18 2.18 0 0 1-2.15 1.86Zm-130.05-19.93c-.8 0-1.57-.44-1.95-1.2-2.01-4.01-3.78-8.14-5.24-12.29-.4-1.14.2-2.38 1.33-2.78 1.14-.4 2.38.2 2.78 1.33 1.4 3.97 3.09 7.93 5.02 11.78a2.18 2.18 0 0 1-1.95 3.16Zm37.41-.29c-.34 0-.68-.08-1-.25a2.173 2.173 0 0 1-.93-2.94c.73-1.4 1.53-2.81 2.39-4.18 1.5-2.39 3.22-4.77 5.13-7.07.77-.93 2.14-1.06 3.07-.29s1.06 2.14.29 3.07a64 64 0 0 0-4.79 6.6c-.79 1.27-1.54 2.57-2.21 3.87-.39.75-1.15 1.18-1.94 1.18Zm90.04-5.58c-.91 0-1.75-.57-2.06-1.48-1.39-4.06-3.21-7.86-5.41-11.31-.65-1.02-.35-2.36.67-3.01s2.36-.35 3.01.67c2.38 3.74 4.35 7.86 5.86 12.25.39 1.14-.22 2.38-1.36 2.77-.23.08-.47.12-.71.12Zm-73.58-14.57c-.62 0-1.23-.26-1.66-.77-.78-.92-.67-2.29.25-3.07 3.46-2.94 7.16-5.56 10.98-7.78 1.04-.61 2.38-.25 2.98.79.61 1.04.26 2.38-.79 2.98a73 73 0 0 0-10.35 7.34c-.41.35-.91.52-1.41.52Zm-62.52-4.19c-1.01 0-1.92-.71-2.13-1.74a91 91 0 0 1-1.74-13.28c-.07-1.2.85-2.23 2.06-2.3 1.2-.06 2.23.85 2.3 2.06.23 4.17.79 8.43 1.66 12.64.24 1.18-.52 2.33-1.7 2.58-.15.03-.3.05-.44.05Zm122-2.94c-.5 0-1.01-.17-1.42-.53-2.65-2.28-5.5-4.08-8.48-5.35-.66-.28-1.35-.55-2.04-.78a2.18 2.18 0 0 1-1.36-2.77 2.19 2.19 0 0 1 2.77-1.36c.79.27 1.57.57 2.33.9 3.4 1.45 6.63 3.49 9.62 6.06.91.79 1.01 2.16.23 3.08-.43.5-1.04.76-1.65.76Zm-36.93-5.86a2.186 2.186 0 0 1-.69-4.26c4.56-1.51 9.07-2.38 13.4-2.56 1.2-.08 2.22.88 2.27 2.08s-.88 2.22-2.08 2.27c-3.93.17-8.04.96-12.22 2.35-.23.08-.46.11-.69.11Zm-86.48-17.23c-.07 0-.14 0-.22-.01a2.19 2.19 0 0 1-1.96-2.38c.43-4.38 1.2-8.82 2.29-13.19a2.18 2.18 0 0 1 2.64-1.59c1.17.29 1.88 1.47 1.59 2.64-1.04 4.17-1.77 8.4-2.18 12.57a2.18 2.18 0 0 1-2.17 1.97Zm6.25-25.33a2.17 2.17 0 0 1-2.02-2.98c1.61-4.05 3.51-8.12 5.66-12.08.57-1.06 1.9-1.45 2.96-.88s1.45 1.9.88 2.96c-2.07 3.81-3.9 7.72-5.44 11.61a2.18 2.18 0 0 1-2.03 1.38Zm12.42-22.99a2.183 2.183 0 0 1-1.79-3.43c3.37-4.85 6.27-8.32 7.84-10.19l.29-.35c.78-.92 2.15-1.04 3.07-.26s1.03 2.15.26 3.07l-.28.33c-1.52 1.81-4.34 5.18-7.59 9.87-.42.61-1.1.94-1.79.94Zm17-19.86c-.58 0-1.16-.23-1.59-.69a2.18 2.18 0 0 1 .09-3.08 120 120 0 0 1 10.21-8.56c.97-.72 2.33-.52 3.05.44s.52 2.33-.44 3.05c-3.43 2.56-6.74 5.33-9.83 8.25-.42.4-.96.59-1.49.59m20.92-15.64a2.186 2.186 0 0 1-1.1-4.07c3.81-2.24 7.79-4.29 11.84-6.11a2.18 2.18 0 1 1 1.78 3.98c-3.9 1.75-7.74 3.73-11.42 5.89-.35.2-.73.3-1.1.3Z" class="cls-son22"/><circle cx="318.57" cy="993.92" r="30.25" class="cls-son21"/><circle cx="123.12" cy="1444.68" r="30.25" class="cls-son21"/><circle cx="221.91" cy="803.21" r="30.25" class="cls-son21"/><circle cx="133.38" cy="369.4" r="30.25" class="cls-son21"/><circle cx="318.57" cy="577.49" r="22.85" class="cls-son23"/><circle cx="86.14" cy="977.53" r="22.85" class="cls-son23"/><circle cx="371.66" cy="1232.48" r="22.85" class="cls-son23"/><circle cx="330.4" cy="1492.67" r="18.41" class="cls-son25"/><circle cx="145.21" cy="1183.65" r="18.41" class="cls-son25"/><circle cx="348.81" cy="727.61" r="18.41" class="cls-son25"/><circle cx="145.21" cy="527.15" r="18.41" class="cls-son25"/><circle cx="210.08" cy="1005.75" r="18.41" class="cls-son26"/><circle cx="204.92" cy="1297.69" r="18.41" class="cls-son26"/><circle cx="67.73" cy="815.05" r="18.41" class="cls-son26"/><circle cx="240.32" cy="319.04" r="18.41" class="cls-son26"/><path d="M1799.86 1544.95c-.09 0-.18 0-.27-.02a2.175 2.175 0 0 1-1.9-2.43c.1-.84.65-5.43 1.25-12.94a2.183 2.183 0 0 1 4.35.35c-.61 7.59-1.16 12.27-1.27 13.13a2.196 2.196 0 0 1-2.16 1.92Zm2.13-26.1h-.12a2.173 2.173 0 0 1-2.06-2.29c.23-4.31.41-8.7.54-13.03.04-1.2 1.04-2.17 2.24-2.12 1.2.04 2.15 1.04 2.12 2.24-.13 4.36-.31 8.78-.55 13.13a2.176 2.176 0 0 1-2.18 2.06Zm.76-26.17c-1.2 0-2.18-.99-2.17-2.19v-2.21c0-3.63-.03-7.27-.11-10.83a2.18 2.18 0 1 1 4.36-.1c.08 3.59.12 7.26.12 10.92v2.23c-.01 1.2-.99 2.17-2.19 2.17Zm-.59-26.18c-1.15 0-2.12-.9-2.18-2.07-.22-4.39-.51-8.77-.86-13-.1-1.2.79-2.25 1.99-2.35s2.25.79 2.35 1.99c.35 4.28.65 8.69.87 13.13.06 1.2-.86 2.23-2.07 2.29h-.11Zm-60.56-18.95c-3.89 0-7.76-.24-11.51-.7a2.173 2.173 0 0 1-1.89-2.43c.15-1.2 1.24-2.05 2.43-1.89 4.13.52 8.45.74 12.75.65h.04c1.19 0 2.16.95 2.18 2.14.02 1.2-.93 2.2-2.14 2.22-.62.01-1.24.02-1.86.02Zm14.85-1.14c-1.06 0-1.99-.77-2.15-1.85-.18-1.19.63-2.3 1.82-2.49 4.25-.65 8.44-1.59 12.48-2.78a2.184 2.184 0 0 1 1.23 4.19 99 99 0 0 1-13.05 2.9q-.165.03-.33.03m-38.89-2.18c-.2 0-.41-.03-.61-.09-4.39-1.29-8.61-2.95-12.53-4.93a2.187 2.187 0 0 1-.96-2.93c.54-1.08 1.86-1.5 2.93-.96 3.69 1.87 7.65 3.43 11.79 4.64a2.18 2.18 0 0 1 1.48 2.71c-.28.95-1.15 1.57-2.09 1.57Zm82.42-3.82a2.18 2.18 0 0 1-2.16-1.92c-.52-4.39-1.13-8.72-1.79-12.88a2.183 2.183 0 0 1 4.31-.69c.68 4.22 1.29 8.61 1.82 13.06.14 1.2-.71 2.28-1.91 2.42-.09 0-.17.02-.26.02Zm-18.53-1.46c-.82 0-1.6-.46-1.97-1.25a2.187 2.187 0 0 1 1.04-2.9c3.82-1.8 7.52-3.93 10.99-6.35a2.184 2.184 0 1 1 2.49 3.59 80 80 0 0 1-11.63 6.71c-.3.14-.62.21-.93.21Zm-87.06-6.55c-.48 0-.95-.15-1.35-.47a65 65 0 0 1-8.41-8.01c-.42-.48-.83-.96-1.24-1.45-.77-.93-.64-2.3.29-3.07s2.3-.64 3.07.29a61 61 0 0 0 9.01 8.83c.94.75 1.1 2.12.35 3.06-.43.54-1.07.82-1.71.82Zm108.45-8.29c-.57 0-1.14-.22-1.57-.67-.84-.87-.81-2.25.05-3.08 2.98-2.88 5.84-6.08 8.5-9.52a2.182 2.182 0 0 1 3.45 2.67c-2.79 3.6-5.79 6.96-8.92 9.98-.42.41-.97.61-1.52.61Zm-7.05-9.55a2.18 2.18 0 0 1-2.13-1.73c-.91-4.34-1.93-8.58-3.02-12.61-.31-1.16.37-2.36 1.54-2.67 1.16-.32 2.36.37 2.67 1.54 1.11 4.11 2.15 8.43 3.08 12.85.25 1.18-.51 2.34-1.69 2.58-.15.03-.3.05-.45.05Zm-118.06-2.11c-.77 0-1.51-.41-1.91-1.13a81.7 81.7 0 0 1-5.49-12.26c-.4-1.14.2-2.38 1.33-2.78 1.14-.4 2.38.2 2.78 1.33 1.43 4.05 3.18 7.96 5.19 11.6.58 1.05.2 2.38-.85 2.96-.33.18-.7.27-1.05.27Zm141.15-8.92c-.38 0-.76-.1-1.11-.31a2.174 2.174 0 0 1-.76-2.99c2.11-3.56 4.12-7.39 5.96-11.39.5-1.09 1.8-1.57 2.89-1.07s1.57 1.8 1.07 2.89a131 131 0 0 1-6.17 11.79c-.41.69-1.13 1.07-1.88 1.07Zm-29.97-14.21c-.9 0-1.75-.57-2.06-1.47-1.45-4.2-3.03-8.24-4.71-12.01-.49-1.1 0-2.39 1.11-2.88 1.1-.49 2.39 0 2.88 1.11 1.72 3.89 3.35 8.04 4.84 12.35a2.177 2.177 0 0 1-2.06 2.89Zm-119.89-1.44c-1.03 0-1.95-.74-2.14-1.79-.82-4.45-1.28-8.95-1.37-13.35-.02-1.2.93-2.2 2.14-2.22 1.2.03 2.2.93 2.22 2.14.08 4.17.52 8.43 1.3 12.65.22 1.18-.56 2.32-1.75 2.54-.13.03-.27.04-.4.04Zm160.87-8.06a2.182 2.182 0 0 1-2.05-2.92c1.41-3.89 2.73-8.04 3.95-12.32a2.174 2.174 0 0 1 2.69-1.5c1.16.33 1.83 1.53 1.5 2.69-1.24 4.38-2.6 8.63-4.04 12.62-.32.89-1.16 1.44-2.05 1.44Zm-51.66-14.36c-.75 0-1.49-.39-1.89-1.09-2.2-3.82-4.58-7.4-7.07-10.65-.73-.96-.55-2.32.4-3.06.96-.73 2.32-.55 3.06.4 2.61 3.4 5.09 7.14 7.39 11.13.6 1.04.24 2.38-.8 2.98-.34.2-.72.29-1.09.29m-109.63-3.62a2.176 2.176 0 0 1-2.15-2.54c.78-4.67 2.04-9.06 3.74-13.04a2.17 2.17 0 0 1 2.86-1.15c1.11.47 1.62 1.75 1.15 2.86-1.56 3.67-2.72 7.72-3.45 12.05a2.18 2.18 0 0 1-2.15 1.82m168.51-7.19c-.16 0-.33-.02-.49-.06a2.184 2.184 0 0 1-1.64-2.61c.42-1.83.79-3.53 1.13-5.05.57-2.58 1.08-5.13 1.52-7.65.21-1.19 1.34-1.96 2.53-1.77a2.18 2.18 0 0 1 1.77 2.53c-.46 2.59-.98 5.19-1.54 7.74-.36 1.63-.74 3.34-1.16 5.18a2.176 2.176 0 0 1-2.12 1.69m-74.87-9.79c-.53 0-1.07-.2-1.49-.59-3.14-2.94-6.49-5.55-9.98-7.75a2.183 2.183 0 0 1 2.33-3.69 71 71 0 0 1 10.63 8.26 2.18 2.18 0 0 1-1.49 3.77m-83.19-6.65c-.51 0-1.03-.18-1.44-.54-.9-.8-.99-2.17-.2-3.08a38 38 0 0 1 4.1-4c2.06-1.71 4.35-3.22 6.82-4.47 1.07-.55 2.39-.12 2.93.95.55 1.07.12 2.39-.95 2.93-2.18 1.11-4.2 2.44-6.01 3.94a33 33 0 0 0-3.62 3.52c-.43.49-1.03.74-1.64.74Zm61.21-7.2c-.26 0-.53-.05-.78-.15a82 82 0 0 0-12.21-3.63 2.173 2.173 0 0 1-1.67-2.59 2.176 2.176 0 0 1 2.59-1.67c4.43.96 8.76 2.25 12.85 3.83 1.12.43 1.68 1.7 1.25 2.82-.33.87-1.16 1.4-2.04 1.4Zm101.38-2.13c-.08 0-.16 0-.24-.01a2.18 2.18 0 0 1-1.93-2.41c.46-4.23.8-8.58 1-12.91.06-1.2 1.07-2.13 2.28-2.08 1.2.06 2.13 1.08 2.08 2.28-.2 4.42-.55 8.86-1.02 13.18a2.177 2.177 0 0 1-2.17 1.94Zm-139.91-2.63c-1.05 0-1.97-.75-2.15-1.82-.2-1.19.6-2.31 1.79-2.51 4.21-.71 8.77-.95 13.51-.73 1.2.06 2.13 1.08 2.07 2.28s-1.08 2.11-2.28 2.07c-4.42-.21-8.67.02-12.58.67-.12.02-.25.03-.37.03Zm141.12-23.49c-1.19 0-2.16-.96-2.18-2.15-.06-4.27-.25-8.62-.56-12.94-.09-1.2.82-2.25 2.02-2.33 1.2-.07 2.25.82 2.33 2.02.32 4.4.51 8.84.57 13.19.02 1.2-.95 2.19-2.15 2.21zm-1.87-26.08c-1.08 0-2.02-.8-2.16-1.91-.54-4.25-1.21-8.56-1.99-12.82-.22-1.18.57-2.32 1.75-2.54 1.19-.21 2.32.57 2.54 1.75.79 4.33 1.47 8.72 2.02 13.05.15 1.2-.69 2.29-1.89 2.44-.09.01-.19.02-.28.02Zm-4.69-25.75c-.99 0-1.88-.68-2.12-1.68-.99-4.19-2.11-8.41-3.31-12.55-.34-1.16.33-2.37 1.48-2.7 1.16-.34 2.37.33 2.7 1.48 1.23 4.21 2.36 8.51 3.37 12.77.28 1.17-.45 2.35-1.62 2.62a2.2 2.2 0 0 1-.5.06m-7.32-25.14c-.9 0-1.75-.57-2.06-1.47-1.42-4.08-2.96-8.17-4.57-12.16-.45-1.12.08-2.39 1.2-2.84 1.12-.46 2.39.08 2.84 1.2 1.65 4.05 3.21 8.21 4.65 12.37.4 1.14-.21 2.38-1.34 2.78q-.36.12-.72.12m-124.37-6.32h-.13c-4.52-.26-8.99-.85-13.29-1.76a2.177 2.177 0 1 1 .9-4.26c4.08.86 8.34 1.43 12.63 1.67 1.2.07 2.12 1.1 2.05 2.3a2.19 2.19 0 0 1-2.18 2.06Zm13.07-.19c-1.12 0-2.07-.86-2.17-1.99-.1-1.2.79-2.26 1.99-2.36 4.29-.37 8.52-1.05 12.59-2.03 1.17-.28 2.35.44 2.63 1.61s-.44 2.35-1.61 2.63a90 90 0 0 1-13.23 2.13h-.19Zm-38.55-5.28c-.27 0-.54-.05-.81-.16-4.32-1.72-8.35-3.81-11.99-6.22-1-.66-1.28-2.02-.62-3.02s2.02-1.28 3.02-.62c3.39 2.24 7.16 4.2 11.2 5.8 1.12.45 1.66 1.71 1.22 2.83-.34.85-1.16 1.37-2.03 1.37Zm63.88-.89c-.85 0-1.65-.5-2.01-1.32-.48-1.11.04-2.39 1.14-2.86 4.03-1.73 7.74-3.79 11.02-6.11.98-.7 2.34-.47 3.04.52.7.98.46 2.34-.52 3.04-3.53 2.5-7.51 4.71-11.82 6.56-.28.12-.57.18-.86.18Zm76.12-11.58c-.82 0-1.61-.47-1.98-1.26-1.83-3.92-3.78-7.82-5.8-11.6-.57-1.06-.17-2.38.9-2.95 1.06-.57 2.38-.17 2.95.9 2.05 3.85 4.04 7.82 5.9 11.81.51 1.09.04 2.39-1.05 2.9-.3.14-.61.21-.92.21Zm-161.54-1.99c-.59 0-1.18-.24-1.61-.71-.3-.33-.6-.67-.89-1-2.6-3-4.92-6.41-6.91-10.13-.57-1.06-.17-2.38.9-2.95 1.06-.57 2.38-.17 2.95.9 1.83 3.43 3.97 6.57 6.36 9.33.27.31.54.62.82.92a2.181 2.181 0 0 1-1.61 3.65Zm106.4-1.63c-.48 0-.96-.16-1.37-.48a2.18 2.18 0 0 1-.33-3.07c2.65-3.29 4.61-6.8 5.99-10.72.4-1.14 1.64-1.73 2.78-1.33s1.73 1.64 1.33 2.78c-1.54 4.4-3.74 8.32-6.71 12.01-.43.54-1.06.81-1.7.81Zm42.81-19.45c-.74 0-1.46-.37-1.87-1.05-2.26-3.72-4.63-7.38-7.04-10.88-.68-.99-.43-2.35.56-3.03s2.35-.43 3.03.56c2.46 3.57 4.88 7.3 7.18 11.09.62 1.03.3 2.37-.73 3-.35.21-.74.32-1.13.32Zm-161.6-1.71c-.94 0-1.81-.62-2.09-1.57-1.24-4.25-2.11-8.7-2.58-13.22-.12-1.2.75-2.27 1.94-2.39 1.2-.12 2.27.75 2.39 1.94a70 70 0 0 0 2.43 12.44 2.18 2.18 0 0 1-1.48 2.71c-.2.06-.41.09-.61.09m127.56-3.01h-.12a2.19 2.19 0 0 1-2.06-2.3c.06-1.06.09-2.16.09-3.28 0-2.92-.19-6-.58-9.41-.14-1.2.72-2.28 1.92-2.42 1.2-.13 2.28.72 2.42 1.92.41 3.57.61 6.82.61 9.91 0 1.2-.03 2.38-.09 3.51a2.18 2.18 0 0 1-2.18 2.06Zm19.17-16.8c-.65 0-1.29-.29-1.72-.83a185 185 0 0 0-8.33-9.9c-.81-.9-.73-2.27.16-3.08s2.27-.73 3.08.16c2.9 3.22 5.76 6.62 8.52 10.13.74.95.58 2.32-.37 3.06-.4.31-.87.47-1.35.47Zm-149.44-6.08h-.16c-1.2-.09-2.1-1.13-2.02-2.33.33-4.57 1.07-9.04 2.21-13.29a2.183 2.183 0 0 1 2.67-1.54c1.16.31 1.85 1.51 1.54 2.67-1.07 3.99-1.76 8.18-2.08 12.48a2.173 2.173 0 0 1-2.17 2.02Zm127.62-3.07c-1.01 0-1.92-.71-2.13-1.74-.75-3.68-1.68-7.71-2.9-12.67-.25-1.01.25-2.04 1.16-2.48-1-.86-2.01-1.7-3.01-2.51a2.187 2.187 0 0 1-.32-3.07c.76-.93 2.13-1.08 3.07-.32 3.35 2.72 6.7 5.68 9.94 8.78a2.18 2.18 0 0 1-3.01 3.15c-1.05-1-2.11-1.99-3.17-2.96 1.04 4.28 1.85 7.88 2.54 11.21.24 1.18-.52 2.33-1.7 2.57-.15.03-.29.04-.44.04Zm-120.76-21.99c-.34 0-.69-.08-1.02-.25a2.19 2.19 0 0 1-.91-2.95c2.21-4.19 4.89-7.92 7.96-11.09a2.17 2.17 0 0 1 3.08-.05c.87.84.89 2.22.05 3.08-2.78 2.88-5.22 6.28-7.24 10.1a2.18 2.18 0 0 1-1.93 1.16Zm114.62-3.45c-.97 0-1.86-.65-2.11-1.64l-.12-.45c-1.02-3.95-2.08-8.03-3.13-12.24-.29-1.17.42-2.35 1.58-2.65 1.17-.29 2.35.42 2.65 1.58 1.05 4.2 2.1 8.27 3.12 12.21l.12.45a2.182 2.182 0 0 1-2.12 2.73Zm-9.89-1.27c-.42 0-.84-.12-1.21-.37-3.62-2.43-7.33-4.65-11.02-6.61a2.18 2.18 0 0 1-.9-2.95 2.18 2.18 0 0 1 2.95-.9c3.82 2.03 7.66 4.33 11.4 6.84 1 .67 1.27 2.03.6 3.03-.42.63-1.11.97-1.81.97Zm-23.08-12.19c-.26 0-.53-.05-.79-.15-3.85-1.5-7.77-2.77-11.65-3.76l-.54-.14a2.18 2.18 0 1 1 1.07-4.23l.51.13c4.1 1.05 8.19 2.37 12.2 3.94a2.185 2.185 0 0 1-.79 4.22Zm-63.61-1.48c-.78 0-1.54-.43-1.93-1.17-.56-1.07-.15-2.38.92-2.94 3.86-2.03 8.18-3.57 12.84-4.58 1.18-.25 2.34.49 2.59 1.67.26 1.18-.49 2.34-1.67 2.59-4.27.93-8.22 2.33-11.74 4.18-.32.17-.67.25-1.01.25m38.33-5.01c-.1 0-.19 0-.29-.02-3.96-.52-7.84-.79-11.53-.79h-1.2c-1.2-.01-2.2-.94-2.22-2.14s.94-2.2 2.14-2.22h1.27c3.88 0 7.96.28 12.1.83 1.19.16 2.03 1.25 1.88 2.45-.15 1.1-1.08 1.9-2.16 1.9Zm51.94-5.45c-.99 0-1.89-.68-2.12-1.69-1.03-4.49-1.94-8.7-2.77-12.85-.24-1.18.53-2.33 1.71-2.57 1.18-.23 2.33.53 2.57 1.71.82 4.11 1.72 8.28 2.75 12.73.27 1.17-.46 2.34-1.64 2.61-.16.04-.33.06-.49.06Zm-5.11-25.66c-1.05 0-1.97-.76-2.15-1.83-.72-4.38-1.35-8.77-1.88-13.03-.15-1.2.7-2.28 1.9-2.43 1.19-.16 2.28.7 2.43 1.9.52 4.21 1.15 8.54 1.86 12.86a2.183 2.183 0 0 1-2.16 2.54Zm-3.21-25.96c-1.12 0-2.08-.86-2.17-2-.36-4.38-.62-8.81-.77-13.16-.04-1.2.9-2.21 2.1-2.26 1.19-.05 2.21.9 2.26 2.1.16 4.28.41 8.64.76 12.96.1 1.2-.8 2.25-2 2.35h-.18Zm-.94-26.14h-.02c-1.2-.01-2.17-1-2.16-2.2.04-4.38.18-8.81.43-13.18.07-1.2 1.1-2.12 2.3-2.06 1.2.07 2.12 1.1 2.06 2.3-.24 4.3-.38 8.67-.42 12.98a2.18 2.18 0 0 1-2.18 2.16Zm1.45-26.12c-.07 0-.15 0-.22-.01a2.18 2.18 0 0 1-1.95-2.39c.44-4.33.99-8.73 1.62-13.08a2.177 2.177 0 1 1 4.31.63c-.63 4.28-1.17 8.62-1.6 12.88a2.18 2.18 0 0 1-2.17 1.96Zm3.79-25.89a2.18 2.18 0 0 1-2.14-2.59c.81-4.27 1.73-8.6 2.72-12.9a2.183 2.183 0 0 1 4.25.99c-.98 4.24-1.89 8.52-2.69 12.73a2.18 2.18 0 0 1-2.14 1.77m96.69-17.79a2.178 2.178 0 0 1-.17-4.35c.78-.06 1.56-.14 2.33-.24 3.29-.4 6.69-1.1 10.1-2.07a2.184 2.184 0 0 1 1.2 4.2 72 72 0 0 1-10.76 2.21c-.83.1-1.67.19-2.51.26h-.18Zm-13.05-.23c-.08 0-.17 0-.25-.01-4.3-.49-8.73-1.38-13.16-2.64a2.184 2.184 0 0 1 1.2-4.2c4.2 1.2 8.39 2.04 12.46 2.5 1.2.14 2.06 1.22 1.92 2.41a2.19 2.19 0 0 1-2.16 1.94Zm38.13-6.79a2.18 2.18 0 0 1-.94-4.15c3.86-1.84 7.55-4 10.97-6.42.98-.7 2.35-.46 3.04.52s.46 2.34-.52 3.04a79.5 79.5 0 0 1-11.6 6.79c-.3.14-.62.21-.94.21Zm-63.23-.25c-.29 0-.59-.06-.88-.19-3.94-1.74-7.93-3.79-11.86-6.09a2.177 2.177 0 0 1-.78-2.98 2.175 2.175 0 0 1 2.98-.78c3.78 2.22 7.62 4.19 11.41 5.86 1.1.49 1.6 1.77 1.12 2.88-.36.82-1.16 1.3-2 1.3Zm-52.63-.45a2.184 2.184 0 0 1-2.11-2.76c1.16-4.24 2.41-8.49 3.72-12.64a2.18 2.18 0 0 1 2.74-1.42c1.15.36 1.79 1.59 1.42 2.74-1.29 4.09-2.53 8.29-3.67 12.48-.26.97-1.14 1.61-2.1 1.61Zm30.05-12.7c-.44 0-.89-.13-1.28-.42-3.51-2.55-7-5.33-10.38-8.27a2.184 2.184 0 0 1-.22-3.08c.79-.91 2.17-1 3.08-.22 3.29 2.86 6.68 5.56 10.09 8.03a2.187 2.187 0 0 1-1.29 3.95Zm107.04-1.69a2.179 2.179 0 0 1-1.56-3.7 60.4 60.4 0 0 0 7.82-9.89 2.183 2.183 0 0 1 3.69 2.33c-2.36 3.75-5.18 7.32-8.38 10.61-.43.44-1 .66-1.56.66Zm-129.18-10.58a2.182 2.182 0 0 1-2.05-2.92c.49-1.35.99-2.69 1.49-4.03-2.58-2.69-5.1-5.49-7.52-8.36-.78-.92-.66-2.3.26-3.07.92-.78 2.3-.66 3.07.26 1.92 2.28 3.91 4.51 5.93 6.68.51-1.27 1.02-2.53 1.53-3.77a2.185 2.185 0 0 1 2.85-1.18c1.11.46 1.64 1.74 1.18 2.85-.78 1.89-1.56 3.81-2.31 5.76a2.2 2.2 0 0 1-1.02 2.68c-.46 1.22-.92 2.45-1.36 3.68-.32.89-1.16 1.44-2.05 1.44Zm142.97-11.42a2.178 2.178 0 0 1-2.06-2.9l.23-.67c1.24-3.68 2.12-7.59 2.61-11.6a2.182 2.182 0 0 1 4.33.53c-.53 4.3-1.47 8.5-2.8 12.46l-.25.72c-.31.9-1.16 1.46-2.06 1.46m-132.92-12.75a2.18 2.18 0 0 1-1.96-3.12c1.93-4.06 3.95-8.02 6.01-11.77a2.176 2.176 0 0 1 2.96-.86c1.06.58 1.44 1.91.86 2.96-2.02 3.67-4 7.56-5.9 11.55-.37.79-1.16 1.25-1.97 1.25Zm-24.53-.68c-.68 0-1.34-.31-1.77-.9-2.59-3.57-5.08-7.27-7.38-11-.63-1.02-.32-2.37.71-3 1.02-.64 2.37-.32 3 .71 2.25 3.64 4.68 7.25 7.21 10.74a2.188 2.188 0 0 1-1.76 3.47Zm160.67-12.36a2.18 2.18 0 0 1-2.17-2.01c-.33-4.23-1.07-8.41-2.22-12.43-.33-1.16.34-2.37 1.5-2.7a2.17 2.17 0 0 1 2.69 1.5c1.23 4.3 2.02 8.77 2.37 13.29.09 1.2-.81 2.25-2.01 2.34h-.17Zm-123.52-9.88c-.4 0-.81-.11-1.18-.35-1.01-.65-1.31-2-.66-3.01 2.47-3.84 5.03-7.49 7.62-10.86a2.19 2.19 0 0 1 3.06-.4c.95.73 1.13 2.1.4 3.06-2.52 3.27-5.01 6.82-7.41 10.56-.42.65-1.12 1-1.84 1Zm-50.92-.01c-.79 0-1.55-.43-1.94-1.18-2.05-3.96-3.95-8-5.63-12.01-.47-1.11.06-2.39 1.17-2.86s2.39.05 2.86 1.17c1.64 3.9 3.48 7.83 5.48 11.69.55 1.07.14 2.38-.93 2.94-.32.17-.66.25-1 .25Zm167.25-15.08c-.78 0-1.53-.42-1.92-1.15a52.4 52.4 0 0 0-7.21-10.25 2.182 2.182 0 0 1 3.23-2.93c3 3.31 5.63 7.05 7.81 11.1a2.175 2.175 0 0 1-1.91 3.21Zm-100.32-5.57c-.54 0-1.08-.2-1.5-.6a2.18 2.18 0 0 1-.07-3.08c3.2-3.35 6.51-6.4 9.84-9.05.94-.75 2.31-.6 3.06.35.75.94.6 2.31-.35 3.06-3.18 2.53-6.34 5.44-9.4 8.65-.43.45-1 .68-1.58.68Zm-77.04-3.46c-.92 0-1.78-.59-2.08-1.52-1.35-4.21-2.52-8.52-3.48-12.82a2.178 2.178 0 0 1 4.25-.95c.93 4.17 2.06 8.35 3.37 12.43a2.17 2.17 0 0 1-2.08 2.84Zm159.93-10.12c-.41 0-.82-.12-1.19-.36-3.42-2.24-7.2-4.1-11.25-5.53a2.177 2.177 0 0 1-1.33-2.78c.4-1.14 1.65-1.73 2.78-1.33 4.37 1.55 8.47 3.57 12.18 6a2.18 2.18 0 0 1 .63 3.02c-.42.64-1.12.99-1.83.99Zm-62.41-2.52c-.77 0-1.52-.41-1.92-1.14-.57-1.06-.18-2.38.87-2.96 4.07-2.21 8.27-3.95 12.48-5.17 1.16-.33 2.37.33 2.7 1.49s-.33 2.37-1.49 2.7c-3.91 1.13-7.81 2.75-11.61 4.81-.33.18-.69.27-1.04.27Zm38-6.3c-.1 0-.2 0-.3-.02a73 73 0 0 0-12.67-.63c-1.2.02-2.22-.9-2.26-2.1s.9-2.22 2.1-2.26c.89-.03 1.85-.05 2.86-.05 3.57 0 7.13.24 10.58.73 1.19.17 2.02 1.27 1.86 2.46a2.184 2.184 0 0 1-2.16 1.88Zm-141.2-6.56c-1.08 0-2.02-.8-2.16-1.9-.56-4.33-.94-8.78-1.12-13.23-.05-1.2.89-2.22 2.09-2.27 1.22-.05 2.22.89 2.27 2.09.18 4.32.55 8.64 1.09 12.85a2.183 2.183 0 0 1-2.16 2.46Zm-1.11-26.12h-.09a2.18 2.18 0 0 1-2.09-2.26c.17-4.3.51-8.74 1.01-13.2.13-1.2 1.21-2.06 2.41-1.92 1.2.13 2.06 1.21 1.93 2.41-.49 4.36-.82 8.7-.98 12.89a2.18 2.18 0 0 1-2.18 2.09Zm2.86-25.99c-.13 0-.25-.01-.38-.03a2.18 2.18 0 0 1-1.77-2.53c.73-4.16 1.61-8.51 2.62-12.93a2.176 2.176 0 0 1 2.61-1.64c1.17.27 1.91 1.44 1.64 2.61-1 4.35-1.86 8.63-2.58 12.71a2.184 2.184 0 0 1-2.15 1.8Zm5.79-25.52c-.19 0-.38-.02-.57-.08a2.18 2.18 0 0 1-1.53-2.68c1.07-3.93 2.25-8.06 3.63-12.64a2.183 2.183 0 0 1 4.18 1.26c-1.36 4.53-2.54 8.63-3.6 12.52-.26.97-1.14 1.61-2.1 1.61Zm-15.74-24.18c-4.49 0-8.84-.43-12.93-1.26a2.19 2.19 0 0 1-1.7-2.58 2.18 2.18 0 0 1 2.58-1.7c3.79.78 7.85 1.18 12.05 1.18h.51c1.2 0 2.17.97 2.18 2.17 0 1.21-.96 2.19-2.17 2.19h-.53Zm23.23-.9a2.184 2.184 0 0 1-2.16-1.85c-2.42.6-4.82 1.11-7.17 1.51-1.19.2-2.31-.59-2.52-1.78a2.18 2.18 0 0 1 1.78-2.52c3-.52 6.08-1.21 9.21-2.06l.05-.16q1.365-4.29 2.67-8.46a2.177 2.177 0 0 1 2.73-1.43c1.15.36 1.79 1.58 1.43 2.73-.67 2.14-1.35 4.31-2.05 6.51.52.26.94.72 1.13 1.32.35 1.15-.29 2.37-1.45 2.72-.35.11-.71.22-1.06.32l-.51 1.62c-.29.93-1.15 1.52-2.08 1.52Zm-48.07-4.52c-.32 0-.65-.07-.96-.23a49.5 49.5 0 0 1-7.22-4.36c-1.38-1-2.75-2.1-4.07-3.27a2.183 2.183 0 0 1 2.9-3.26c1.21 1.07 2.47 2.08 3.73 3 2.08 1.51 4.3 2.84 6.59 3.98 1.08.53 1.52 1.84.99 2.92-.38.77-1.15 1.22-1.96 1.22m63.37-3.35c-.85 0-1.65-.5-2.01-1.33-.47-1.11.04-2.39 1.15-2.86 3.87-1.65 7.78-3.53 11.62-5.59a2.179 2.179 0 1 1 2.06 3.84 149 149 0 0 1-11.97 5.76c-.28.12-.57.17-.85.17Zm23.05-12.35a2.182 2.182 0 0 1-1.19-4.01c3.64-2.38 7.17-4.9 10.49-7.5a2.179 2.179 0 1 1 2.69 3.43c-3.42 2.68-7.05 5.28-10.8 7.72-.37.24-.78.35-1.19.35Zm-105.96-1.31c-.67 0-1.34-.31-1.77-.9-2.58-3.55-4.89-7.44-6.88-11.58a2.19 2.19 0 0 1 1.02-2.91c1.09-.52 2.39-.06 2.91 1.02 1.87 3.9 4.05 7.57 6.47 10.9a2.188 2.188 0 0 1-1.76 3.47Zm75.31-3.48c-.2 0-.4-.03-.6-.08a2.174 2.174 0 0 1-1.5-2.69c1.33-4.69 2.38-8.79 3.21-12.55a2.177 2.177 0 0 1 2.6-1.66c1.18.26 1.92 1.42 1.66 2.6-.85 3.84-1.92 8.03-3.27 12.8-.27.96-1.15 1.59-2.1 1.59Zm51.17-11.4c-.57 0-1.14-.22-1.57-.67a2.17 2.17 0 0 1 .06-3.08c3.03-2.92 5.99-6.08 8.82-9.38.78-.92 2.16-1.02 3.07-.24.92.78 1.02 2.16.24 3.07-2.91 3.41-5.98 6.67-9.1 9.69-.42.41-.97.61-1.51.61Zm-137.82-8.58c-.95 0-1.82-.62-2.09-1.58-1.27-4.4-2.15-8.85-2.6-13.2-.12-1.2.75-2.27 1.94-2.39 1.2-.12 2.27.75 2.39 1.94.42 4.1 1.25 8.29 2.45 12.44.33 1.16-.33 2.37-1.49 2.7-.2.06-.41.09-.61.09Zm92.06-5.6c-.08 0-.15 0-.23-.01a2.17 2.17 0 0 1-1.94-2.39c.27-2.56.4-5.02.4-7.31 0-1.83-.09-3.62-.26-5.3a2.18 2.18 0 0 1 1.95-2.39c1.2-.13 2.27.75 2.39 1.95.18 1.83.28 3.76.28 5.74 0 2.44-.14 5.05-.43 7.76a2.187 2.187 0 0 1-2.17 1.96Zm62.76-5.68c-.44 0-.88-.13-1.26-.4a2.19 2.19 0 0 1-.52-3.04c2.48-3.5 4.83-7.14 6.99-10.83a2.175 2.175 0 0 1 2.98-.78c1.04.61 1.39 1.94.78 2.98-2.22 3.8-4.64 7.55-7.2 11.16-.43.6-1.1.92-1.78.92Zm-157.3-14.6c-.09 0-.17 0-.26-.02a2.18 2.18 0 0 1-1.91-2.42c.59-4.88 1.82-9.33 3.66-13.23a2.17 2.17 0 0 1 2.9-1.04c1.09.51 1.55 1.81 1.04 2.9-1.64 3.48-2.74 7.48-3.27 11.89a2.17 2.17 0 0 1-2.16 1.92m91.44-5.39c-.83 0-1.63-.48-1.99-1.29-1.62-3.6-3.79-6.79-6.65-9.76l-.3-.31a2.17 2.17 0 0 1 .02-3.08 2.17 2.17 0 0 1 3.08.02l.34.35c3.17 3.29 5.69 6.99 7.49 11a2.18 2.18 0 0 1-1.99 3.07m79.04-2.59c-.31 0-.62-.07-.92-.21a2.18 2.18 0 0 1-1.05-2.9c1.84-3.94 3.48-7.95 4.87-11.91.4-1.14 1.64-1.73 2.78-1.33s1.73 1.64 1.33 2.78c-1.44 4.1-3.13 8.24-5.03 12.31-.37.79-1.16 1.26-1.98 1.26m-159.05-14.82a2.18 2.18 0 0 1-1.37-3.88c3.36-2.71 7.44-4.89 12.15-6.5a2.182 2.182 0 0 1 1.41 4.13c-4.22 1.44-7.86 3.38-10.82 5.77-.4.33-.89.48-1.37.48m62.2-1.14c-.36 0-.73-.09-1.06-.28-3.53-1.98-7.44-3.61-11.6-4.86a2.177 2.177 0 0 1 1.25-4.17c4.47 1.34 8.67 3.1 12.48 5.23a2.184 2.184 0 0 1-1.06 4.09Zm-24.86-7.57c-.07 0-.15 0-.22-.01-4.23-.43-8.55-.45-12.65-.07-1.2.11-2.26-.77-2.37-1.97s.77-2.26 1.97-2.37c4.38-.41 8.98-.38 13.49.08a2.18 2.18 0 0 1-.22 4.35Zm130.32-1.13c-.16 0-.33-.02-.49-.06a2.184 2.184 0 0 1-1.64-2.61c.98-4.26 1.67-8.51 2.06-12.62.11-1.2 1.18-2.07 2.38-1.97 1.2.11 2.08 1.18 1.97 2.38a103 103 0 0 1-2.15 13.19 2.176 2.176 0 0 1-2.12 1.69Zm2.35-25.98c-1.14 0-2.1-.89-2.17-2.05-.27-4.32-.91-8.53-1.91-12.52-.29-1.17.42-2.35 1.59-2.65s2.35.42 2.65 1.59c1.06 4.25 1.75 8.73 2.03 13.31.07 1.2-.84 2.24-2.04 2.31h-.14Zm-6.41-25.19c-.81 0-1.58-.45-1.96-1.22-1.94-3.96-4.18-7.34-6.87-10.34-.8-.9-.73-2.28.17-3.08.9-.81 2.28-.73 3.08.17 2.96 3.3 5.43 7.01 7.54 11.34.53 1.08.08 2.39-1 2.92-.31.15-.63.22-.96.22Zm-17.17-19.24c-.41 0-.83-.12-1.2-.36-2.53-1.67-5.12-3.16-7.85-4.73-1.09-.63-2.19-1.26-3.28-1.9a2.183 2.183 0 0 1 2.22-3.76c1.08.64 2.17 1.26 3.25 1.88 2.67 1.54 5.43 3.13 8.08 4.88 1 .66 1.28 2.02.62 3.02-.42.63-1.11.98-1.82.98Zm-22.02-14.06c-.49 0-.98-.16-1.39-.5a56 56 0 0 1-9.33-9.83c-.72-.97-.52-2.33.45-3.05s2.33-.52 3.05.45a51.4 51.4 0 0 0 8.61 9.07c.93.77 1.06 2.14.29 3.07-.43.52-1.05.79-1.68.79m-15.61-20.69c-.82 0-1.61-.47-1.98-1.26-1.91-4.11-3.4-8.4-4.42-12.76-.28-1.17.45-2.35 1.62-2.62 1.18-.27 2.35.45 2.62 1.62a62.6 62.6 0 0 0 4.13 11.92c.51 1.09.03 2.39-1.06 2.9-.3.14-.61.2-.92.2Zm-6-25.29c-1.17 0-2.13-.92-2.18-2.1-.04-1.03-.06-2.05-.06-3.07 0-3.31.19-6.68.59-10.31.13-1.2 1.21-2.05 2.41-1.93 1.2.13 2.06 1.21 1.93 2.41-.38 3.47-.57 6.68-.57 9.83 0 .97.02 1.94.06 2.9.05 1.2-.89 2.22-2.1 2.26h-.08Zm2.61-25.97c-.14 0-.29-.01-.44-.04a2.18 2.18 0 0 1-1.7-2.57c.92-4.5 1.99-8.98 2.93-12.84a2.17 2.17 0 0 1 2.63-1.6c1.17.28 1.89 1.46 1.6 2.63-.93 3.82-1.99 8.26-2.89 12.68a2.19 2.19 0 0 1-2.13 1.75Zm-38.71-20.46c-.82 0-1.82-.01-2.97-.06a2.18 2.18 0 0 1-2.09-2.27c.05-1.2 1.05-2.18 2.27-2.09 2.14.08 3.73.05 4.51.03 2.66-.08 5.39-.33 8.1-.77a2.183 2.183 0 0 1 .69 4.31c-2.89.46-5.81.73-8.66.82-.42.01-1.04.03-1.85.03m-15.86-1.69c-.15 0-.31-.02-.47-.05-4.66-1.01-8.99-2.45-12.86-4.27a2.18 2.18 0 0 1-1.05-2.9 2.18 2.18 0 0 1 2.9-1.05c3.58 1.68 7.6 3.01 11.94 3.96 1.18.26 1.92 1.42 1.67 2.59a2.19 2.19 0 0 1-2.13 1.72m38.68-2.35c-.9 0-1.74-.56-2.06-1.46-.4-1.14.2-2.38 1.34-2.78 3.91-1.37 7.83-3.09 11.65-5.14 1.06-.57 2.38-.17 2.95.9.57 1.06.17 2.38-.9 2.95a87 87 0 0 1-12.27 5.41q-.36.12-.72.12Zm21.83-1a2.167 2.167 0 0 1-2.13-2.65c.76-3.42 1.36-6.41 1.83-9.18-.09-.09-.18-.19-.26-.29a2.18 2.18 0 0 1 .49-3.05l.33-.24a2.177 2.177 0 0 1 2.38-1.8c2.46-1.91 4.86-3.96 7.17-6.12.88-.82 2.26-.77 3.08.1.82.88.78 2.26-.1 3.08a108 108 0 0 1-8.48 7.15c-.53 3.37-1.23 7.01-2.18 11.29a2.186 2.186 0 0 1-2.13 1.71m-83.77-7.98c-.53 0-1.06-.19-1.48-.58-2.4-2.23-4.5-4.75-6.23-7.49-.72-1.14-1.4-2.35-2.01-3.58-.53-1.08-.09-2.39.99-2.92s2.39-.09 2.92.99c.54 1.09 1.14 2.16 1.78 3.18 1.53 2.42 3.39 4.65 5.51 6.62a2.184 2.184 0 0 1-1.49 3.78Zm87.11-17.92a2.18 2.18 0 0 1-2.18-2.16c-.05-4.45-.52-8.53-1.45-12.49-.28-1.17.45-2.35 1.62-2.62s2.35.45 2.62 1.62c1 4.28 1.52 8.67 1.57 13.44.01 1.21-.95 2.19-2.16 2.2h-.02Zm16.97-3.13a2.175 2.175 0 0 1-1.67-3.58c2.75-3.26 5.34-6.71 7.69-10.26.67-1 2.02-1.28 3.02-.61s1.28 2.02.61 3.02c-2.44 3.69-5.13 7.28-8 10.67-.43.51-1.05.77-1.67.77Zm-115.65-1.85a2.18 2.18 0 0 1-2.15-1.86c-.37-2.48-.55-5.06-.55-7.66 0-1.95.11-3.95.31-5.94.13-1.2 1.19-2.07 2.4-1.94 1.2.12 2.07 1.2 1.94 2.4-.19 1.83-.29 3.68-.29 5.48 0 2.39.17 4.75.51 7.02.18 1.19-.65 2.3-1.84 2.48-.11.02-.22.02-.32.02Zm130.05-19.93c-.33 0-.66-.08-.98-.23a2.18 2.18 0 0 1-.97-2.93c1.93-3.85 3.62-7.81 5.02-11.78.4-1.14 1.65-1.74 2.78-1.33 1.14.4 1.73 1.65 1.33 2.78-1.46 4.14-3.22 8.28-5.24 12.29-.38.76-1.15 1.2-1.95 1.2Zm-37.41-.29c-.79 0-1.55-.43-1.94-1.18-.67-1.3-1.42-2.6-2.21-3.87-1.4-2.23-3.01-4.45-4.79-6.6-.77-.93-.64-2.3.29-3.07s2.3-.64 3.07.29c1.9 2.3 3.63 4.68 5.13 7.07.86 1.37 1.66 2.77 2.39 4.18.55 1.07.14 2.39-.93 2.94-.32.17-.66.25-1 .25Zm-90.04-5.58c-.23 0-.47-.04-.71-.12a2.18 2.18 0 0 1-1.36-2.77c1.5-4.38 3.47-8.5 5.85-12.25.65-1.02 2-1.31 3.01-.67 1.02.65 1.31 2 .67 3.01-2.2 3.45-4.02 7.26-5.41 11.31-.31.91-1.16 1.48-2.06 1.48Zm73.58-14.57c-.5 0-1-.17-1.41-.52a73 73 0 0 0-10.35-7.34 2.187 2.187 0 0 1-.79-2.98 2.187 2.187 0 0 1 2.98-.79c3.82 2.23 7.51 4.84 10.98 7.78.92.78 1.03 2.16.25 3.07-.43.51-1.05.77-1.66.77Zm62.52-4.19c-.15 0-.29-.01-.44-.05a2.19 2.19 0 0 1-1.7-2.58c.87-4.21 1.42-8.46 1.66-12.64.07-1.2 1.1-2.11 2.3-2.06 1.2.07 2.12 1.1 2.06 2.3a91 91 0 0 1-1.74 13.28 2.18 2.18 0 0 1-2.13 1.74Zm-122-2.94a2.185 2.185 0 0 1-1.42-3.84c2.99-2.57 6.22-4.61 9.62-6.06.77-.33 1.55-.63 2.33-.89 1.14-.39 2.38.22 2.77 1.35.39 1.14-.22 2.38-1.36 2.77-.68.23-1.37.5-2.04.78-2.98 1.27-5.84 3.07-8.48 5.35-.41.35-.92.53-1.42.53Zm36.93-5.86c-.23 0-.46-.04-.69-.11-4.18-1.39-8.29-2.18-12.22-2.34a2.187 2.187 0 0 1-2.09-2.27c.05-1.2 1.07-2.16 2.27-2.08 4.33.19 8.84 1.05 13.4 2.56 1.14.38 1.76 1.61 1.38 2.76-.3.92-1.16 1.5-2.07 1.5Zm86.48-17.23a2.18 2.18 0 0 1-2.17-1.97c-.41-4.17-1.15-8.4-2.18-12.57-.29-1.17.42-2.35 1.59-2.64s2.35.42 2.64 1.59c1.09 4.38 1.86 8.82 2.29 13.19.12 1.2-.76 2.27-1.96 2.38-.07 0-.15.01-.22.01Zm-6.25-25.33c-.87 0-1.69-.52-2.03-1.38-1.54-3.89-3.37-7.8-5.44-11.61a2.19 2.19 0 0 1 .88-2.96 2.18 2.18 0 0 1 2.96.88c2.15 3.97 4.06 8.03 5.66 12.08a2.18 2.18 0 0 1-1.22 2.83c-.26.1-.54.15-.8.15Zm-12.42-22.99c-.69 0-1.37-.33-1.79-.94-3.24-4.67-6.07-8.05-7.59-9.86l-.29-.34c-.78-.92-.66-2.3.26-3.07.92-.78 2.3-.66 3.07.26l.29.34c1.57 1.88 4.49 5.35 7.84 10.19a2.184 2.184 0 0 1-1.79 3.43Zm-17-19.86c-.54 0-1.07-.2-1.49-.59-3.09-2.91-6.4-5.68-9.83-8.25a2.183 2.183 0 0 1-.44-3.05c.72-.96 2.09-1.16 3.05-.44 3.56 2.66 7 5.54 10.21 8.56.88.83.92 2.21.09 3.08-.43.46-1.01.69-1.59.69m-20.92-15.63c-.38 0-.76-.1-1.1-.3-3.68-2.16-7.52-4.14-11.42-5.89a2.18 2.18 0 1 1 1.78-3.98c4.04 1.81 8.02 3.87 11.84 6.11a2.186 2.186 0 0 1-1.1 4.07Z" class="cls-son22"/><circle cx="1681.43" cy="993.92" r="30.25" class="cls-son21"/><circle cx="1876.88" cy="1444.68" r="30.25" class="cls-son21"/><circle cx="1778.09" cy="803.21" r="30.25" class="cls-son21"/><circle cx="1866.62" cy="369.4" r="30.25" class="cls-son21"/><circle cx="1681.43" cy="577.49" r="22.85" class="cls-son23"/><circle cx="1913.86" cy="977.53" r="22.85" class="cls-son23"/><circle cx="1628.34" cy="1232.48" r="22.85" class="cls-son23"/><circle cx="1669.6" cy="1492.67" r="18.41" class="cls-son25"/><circle cx="1854.79" cy="1183.65" r="18.41" class="cls-son25"/><circle cx="1651.19" cy="727.61" r="18.41" class="cls-son25"/><circle cx="1854.79" cy="527.15" r="18.41" class="cls-son25"/><circle cx="1789.92" cy="1005.75" r="18.41" class="cls-son26"/><circle cx="1795.08" cy="1297.69" r="18.41" class="cls-son26"/><circle cx="1932.27" cy="815.05" r="18.41" class="cls-son26"/><circle cx="1759.68" cy="319.04" r="18.41" class="cls-son26"/></svg>