<svg xmlns="http://www.w3.org/2000/svg" viewBox="0 0 2000 2000" width="300" height="300" fill="none"><defs><style>.cls-8ne2{fill:#fb9581}.cls-8ne3{fill:#fce9d2}.cls-8ne4{fill:#f2673f}</style></defs><g id="\u0421\u043B\u043E\u0439_13" data-name="\u0421\u043B\u043E\u0439 13"><path d="M287.99 287.99h1424.03v1424.03H287.99z" style="fill:#fff"/><path d="m1719.12 1149 86.57 367.34a66.38 66.38 0 0 1-21.3 65.5 65.8 65.8 0 0 1-20 11.84 67 67 0 0 1-8 2.42 66.14 66.14 0 0 1-53.72-10.56 66.2 66.2 0 0 1-15.67-15.64 66.3 66.3 0 0 1-10.39-23.09l-1.33-5.66a22.07 22.07 0 0 1 2.72-16.69 22 22 0 0 1 2.76-3.58 21.85 21.85 0 0 1 11-6.3 22.09 22.09 0 0 1 26.57 16.44l2.44 10.37a21.93 21.93 0 0 0 41.59 3.74 22.76 22.76 0 0 0 1.59-13.5c0-.27-.11-.53-.17-.79l-87.56-371.56a9.08 9.08 0 0 1 6.67-11.06l25.33-6a9.13 9.13 0 0 1 10.9 6.78" class="cls-8ne2"/><path d="m1728.64 1189.45 3.28 13.89q-5.72-.46-11.52-1-18-1.68-35.05-4l-3.3-14q19.44 2.51 39.87 4.46Zm11.66 49.46 3.26 13.84q-8.52-.63-17.25-1.45-15-1.41-29.24-3.22l-3.31-14q16.68 2.06 34.06 3.72 6.29.58 12.48 1.11m11.7 49.43 3.25 13.78q-11.33-.78-23-1.86-11.93-1.11-23.44-2.5l-3.31-14q13.89 1.65 28.26 3 9.17.87 18.24 1.58m11.6 49.42 3.22 13.69q-14.07-.85-28.72-2.22-8.92-.84-17.63-1.83l-3.31-14q11.08 1.28 22.45 2.35 12.15 1.12 23.99 2.01m11.64 49.39 3.2 13.6q-16.8-.93-34.44-2.56-6-.56-11.84-1.18l-3.31-14q8.25.9 16.67 1.7 15.09 1.42 29.72 2.44m11.63 49.35 3.18 13.52q-19.5-1-40.15-2.86l-6.06-.59-3.3-14q5.4.57 10.88 1.09 18.06 1.7 35.45 2.84m11.62 49.33 3.16 13.41q-22.15-.95-45.85-3.12h-.29l-3.29-14 5.1.49q21.04 2 41.17 3.22m-80.24 45.17 2.18 9.24c-15.85-2.21-31-4.76-45.52-7.55a22.1 22.1 0 0 1 5.81-11.83q17.43 2.85 35.79 5.33a22 22 0 0 1 1.74 4.81m89.14 4a66 66 0 0 1-2 13.13q-20.87-.94-43.1-3a22.76 22.76 0 0 0 1.59-13.5q22.27 2.12 43.51 3.37m-23.01 46.89a65.8 65.8 0 0 1-20 11.84c-21.63-2.1-42.22-4.88-61.71-8.14a66.2 66.2 0 0 1-15.67-15.69c25.85 4.23 53.27 7.88 82.15 10.63q7.65.74 15.23 1.36" class="cls-8ne3"/><path d="m1613.83 304.26-268.08-131.63a49.4 49.4 0 0 0-24.71-5 52.7 52.7 0 0 0-15.86 3.41 56.4 56.4 0 0 0-14.62 8.26 58.6 58.6 0 0 0-13.23 14.5 62 62 0 0 0-3.49 6.17 57.93 57.93 0 0 0-2.6 45.86 51.8 51.8 0 0 0 9 15.44 49 49 0 0 0 15.86 12.34l4.12 2a16.45 16.45 0 0 0 6.49 1.66 17.6 17.6 0 0 0 7-1.14 18.7 18.7 0 0 0 3.34-1.68 19.6 19.6 0 0 0 7.1-8c3.91-8 2-17.17-4-22.32a16 16 0 0 0-3.38-2.21l-7.57-3.72c-9-4.42-12.26-16.1-6.91-25.62a19.1 19.1 0 0 1 12.36-9.15 17.2 17.2 0 0 1 10.81.92l.58.26 271.16 133.15a7.46 7.46 0 0 0 9.94-3.66l9.73-19.82a7.5 7.5 0 0 0-3.04-10.02" class="cls-8ne2"/><path d="m1584.34 289.78-10.14-5c-.52 3.18-1 6.39-1.53 9.62q-2.31 15.07-4 29.45l10.23 5q2-16.38 4.54-33.48Zm-36.09-17.72-10.1-5q-1.23 7.09-2.35 14.41-1.92 12.51-3.38 24.54l10.24 5q1.75-14 3.95-28.59.8-5.18 1.64-10.36m-36.08-17.72-10.05-4.93q-1.68 9.42-3.18 19.19-1.53 10-2.77 19.65l10.24 5q1.52-11.67 3.34-23.7 1.17-7.68 2.42-15.21m-36.06-17.7-10-4.91q-2.16 11.7-4 24-1.15 7.47-2.13 14.78l10.25 5q1.24-9.31 2.69-18.83 1.49-10.18 3.19-20.04m-36.05-17.7-9.92-4.88q-2.67 14-4.94 28.71-.77 5-1.46 9.92l10.25 5q.94-6.92 2-14 1.94-12.57 4.07-24.75m-36.01-17.69-9.87-4.84q-3.17 16.17-5.85 33.45c-.26 1.69-.51 3.38-.76 5.07l10.23 5q.65-4.53 1.34-9.11 2.3-15.1 4.91-29.57m-36-17.67-9.79-4.81q-3.72 18.36-6.79 38.17a2 2 0 0 0 0 .25l10.2 5c.21-1.43.42-2.85.64-4.27q2.64-17.61 5.74-34.34M1316.8 242l-6.75-3.32q-2.19 20.07-3.29 38.63a17.6 17.6 0 0 0 7-1.14 18.7 18.7 0 0 0 3.34-1.68q1.29-14.79 3-30.28a16 16 0 0 0-3.3-2.21m14.84-73.83a49.6 49.6 0 0 0-10.6-.51q-3.46 17.29-6.36 35.89a17.2 17.2 0 0 1 10.81.92q2.85-18.66 6.15-36.3m-41.08 11.17a58.6 58.6 0 0 0-13.23 14.5 805 805 0 0 0-6.09 52 51.8 51.8 0 0 0 9 15.44c1.91-21.94 4.59-45.06 8.26-69.22q1.03-6.39 2.06-12.72" class="cls-8ne3"/><path d="m210.4 803.23 43.93-325.8a48.9 48.9 0 0 1 4.88-15.6 52.3 52.3 0 0 1 6.6-9.93A60.3 60.3 0 0 1 280 439.67a70.7 70.7 0 0 1 18.4-8 79.6 79.6 0 0 1 23.94-2.87 87 87 0 0 1 8.74.73c20.71 2.79 38.26 12.84 49.3 26.51a57 57 0 0 1 9.93 17.91 49.16 49.16 0 0 1 2.12 22.13l-.68 5a16.35 16.35 0 0 1-2.64 6.93 19.3 19.3 0 0 1-5.92 5.64 22 22 0 0 1-4 2 26.6 26.6 0 0 1-13 1.42c-10.89-1.47-19.16-9-20.42-17.72a16.2 16.2 0 0 1 0-4.46l1.24-9.2c1.47-10.95-8.45-21.25-21.92-22.38a24.72 24.72 0 0 0-17.81 5.44 17.87 17.87 0 0 0-6.28 10.36c0 .23-.08.46-.11.69l-44.46 329.55c-.57 4.37-5.21 7.41-10.48 6.7l-27.11-3.66c-5.25-.71-9.03-4.81-8.44-9.16" class="cls-8ne2"/><path d="m215.23 767.39 1.66-12.32q5.48 2.29 11 4.67 17.19 7.38 33.2 14.93l-1.67 12.43q-18.3-8.54-37.78-17Zm5.92-43.87 1.65-12.27q8.19 3.36 16.52 7 14.27 6.13 27.73 12.38L265.37 743q-15.74-7.24-32.3-14.41-5.98-2.59-11.92-5.07m5.91-43.84 1.65-12.22q10.89 4.41 22 9.2 11.37 4.89 22.24 9.86L271.31 699q-13.11-6-26.82-11.9-8.78-3.83-17.43-7.42m5.94-43.83 1.64-12.15q13.57 5.41 27.56 11.42 8.52 3.66 16.76 7.37l-1.68 12.45q-10.49-4.73-21.33-9.41-11.61-4.99-22.95-9.68m5.88-43.85 1.62-12q16.26 6.38 33.1 13.6 5.7 2.45 11.26 4.92L283.18 611q-7.81-3.5-15.84-7-14.34-6.22-28.46-12m5.9-43.73 1.62-12q18.9 7.31 38.6 15.73c1.93.83 3.86 1.66 5.77 2.5l-1.66 12.5c-3.41-1.51-6.87-3-10.35-4.52q-17.22-7.48-33.98-14.21m5.9-43.74 1.6-11.9q21.54 8.17 44.16 17.87l.27.12L295 523l-4.86-2.11q-20.03-8.65-39.46-16.36m95.12-9.66 1.1-8.2q22.29 10.63 42.27 21.33a19.3 19.3 0 0 1-5.92 5.64 22 22 0 0 1-4 2q-16.18-8.14-33.45-16.3a16.2 16.2 0 0 1 0-4.47m-86.59-33.04a52.3 52.3 0 0 1 6.6-9.93q20.28 7.74 41.5 16.83a17.87 17.87 0 0 0-6.31 10.38q-21.26-9.16-41.79-17.28m39.23-30.2a79.6 79.6 0 0 1 23.94-2.87c20.61 8.94 40 18.09 58 27.24a57 57 0 0 1 9.93 17.91c-24-12.07-49.82-24.2-77.34-36.08q-7.27-3.17-14.53-6.2" class="cls-8ne3"/><path d="m378.45 1739.22 283.67-93.39a44.2 44.2 0 0 1 14.68-2.21 47.2 47.2 0 0 1 10.74 1.46 54.4 54.4 0 0 1 15.63 6.76 64.2 64.2 0 0 1 13.88 11.85 72.1 72.1 0 0 1 11.84 18.43 74 74 0 0 1 2.88 7.43c5.94 18 4.69 36.36-2.09 50.81A51.9 51.9 0 0 1 719 1755.6a44.65 44.65 0 0 1-17.24 10.52l-4.37 1.44a15 15 0 0 1-6.71.59 17.6 17.6 0 0 1-7-2.6 20 20 0 0 1-3.19-2.48 24.2 24.2 0 0 1-6.34-10.08c-3.12-9.48-.27-19.22 6.37-23.71a14.8 14.8 0 0 1 3.65-1.79l8-2.64c9.53-3.14 14-15.33 9.59-26.79a22.52 22.52 0 0 0-11.51-12.4 16.27 16.27 0 0 0-11-1.05l-.61.19-286.93 94.47c-3.8 1.27-8.12-1.31-9.64-5.91l-7.77-23.6c-1.49-4.57.36-9.29 4.15-10.54" class="cls-8ne2"/><path d="m409.65 1729 10.73-3.53q.3 5.38.56 10.85.78 17 1 33.06l-10.82 3.56q-.3-18.35-1.14-37.6Zm38.2-12.62 10.69-3.52q.49 8 .88 16.26.65 14.09.88 27.57l-10.83 3.56q-.33-15.72-1.05-32.11-.25-5.92-.57-11.76m38.15-12.57 10.63-3.5q.72 10.65 1.23 21.65.53 11.25.77 22.1l-10.84 3.57q-.31-13.1-.92-26.64-.36-8.68-.87-17.18m38.18-12.57 10.58-3.48q1 13.24 1.61 27.06c.26 5.61.47 11.14.63 16.62l-10.85 3.56q-.28-10.46-.77-21.17-.51-11.43-1.2-22.59m38.15-12.56 10.5-3.45q1.24 15.81 2 32.43.25 5.64.45 11.16l-10.84 3.57q-.26-7.77-.6-15.7-.61-14.23-1.51-28.01m38.11-12.54 10.43-3.44q1.54 18.35 2.46 37.81c.09 1.91.17 3.82.24 5.71l-10.82 3.57q-.18-5.1-.41-10.26-.76-17.02-1.9-33.39m38.09-12.54 10.35-3.41a999 999 0 0 1 2.92 43.17 2 2 0 0 1 0 .27l-10.8 3.56c-.07-1.6-.13-3.2-.21-4.81q-.86-19.84-2.26-38.78m45.64 73.89 7.13-2.35q.15 22.42-.65 43a17.6 17.6 0 0 1-7-2.6 20 20 0 0 1-3.19-2.48q.22-16.46 0-33.79a14.8 14.8 0 0 1 3.71-1.78m-7.37-83.87a47.2 47.2 0 0 1 10.74 1.46q1.71 19.64 2.72 40.58a16.27 16.27 0 0 0-11-1.05q-.94-21-2.46-40.99m40.25 20.07a72.1 72.1 0 0 1 11.84 18.43c.88 20.38 1.09 39.82.79 58.24A51.9 51.9 0 0 1 719 1755.6c.33-24.43 0-50.31-1.21-77.52q-.34-7.26-.74-14.39" class="cls-8ne3"/><path d="m1735.94 849.89 87.24-308.61a56.3 56.3 0 0 0 2.12-15.72 55.3 55.3 0 0 0-1.22-11.23 56.66 56.66 0 0 0-16.63-29.48 56 56 0 0 0-16.63-10.85 60 60 0 0 0-6.72-2.36 56.43 56.43 0 0 0-46.13 6.92 56.2 56.2 0 0 0-13.91 12.72 55.8 55.8 0 0 0-9.7 19.2l-1.34 4.76a18.83 18.83 0 0 0 13 23.19 18.83 18.83 0 0 0 21.57-8.93 19.3 19.3 0 0 0 1.66-4l2.46-8.72a18.71 18.71 0 0 1 35.55-1.59 19.4 19.4 0 0 1 .86 11.53c-.06.22-.11.45-.18.67l-88.23 312.15a7.73 7.73 0 0 0 5.27 9.64l21.35 6a7.77 7.77 0 0 0 9.61-5.29" class="cls-8ne4"/><path d="m1745.54 815.94 3.3-11.67c-3.26.12-6.54.25-9.84.42q-15.4.73-30 2l-3.32 11.77q16.63-1.4 34.11-2.27Zm11.74-41.55 3.29-11.63q-7.27.22-14.75.58-12.77.61-25 1.61l-3.33 11.79q14.26-1.11 29.14-1.87 5.37-.27 10.65-.48m11.72-41.53 3.27-11.57c-6.44.15-13 .37-19.64.7s-13.48.74-20 1.23l-3.36 11.78q11.88-.87 24.17-1.49 7.88-.38 15.56-.65m11.76-41.51 3.25-11.51q-12 .2-24.54.79-7.63.38-15.08.88l-3.33 11.8q9.48-.66 19.2-1.14 10.4-.52 20.5-.82m11.73-41.5 3.23-11.43q-14.34.15-29.42.86c-3.41.17-6.78.36-10.13.56l-3.33 11.79q7-.45 14.25-.81 12.91-.65 25.4-.97m11.72-41.46 3.21-11.35q-16.64.06-34.3.89l-5.18.27-3.33 11.8c3.08-.19 6.19-.35 9.31-.51q15.44-.8 30.29-1.1m11.71-41.39 3.18-11.26q-18.88 0-39.15.9h-.25l-3.32 11.75 4.36-.23q18-.94 35.18-1.16m-66.66-41.48 2.19-7.76q-20.35 1.9-39 4.67a18.8 18.8 0 0 0 4.51 10.27q14.94-1.77 30.67-3.16a19.3 19.3 0 0 0 1.63-4.02m76.04.04a55.3 55.3 0 0 0-1.22-11.23c-11.87 0-24.16.28-36.81.88a19.4 19.4 0 0 1 .86 11.53q19.05-.94 37.17-1.18m-17.86-40.71a56 56 0 0 0-16.62-10.85c-18.5 1-36.14 2.54-52.85 4.56a56.2 56.2 0 0 0-13.91 12.72c22.18-2.61 45.66-4.65 70.34-5.89q6.6-.3 13.04-.54" class="cls-8ne3"/><path d="M446.61 339 787 276.5a60.8 60.8 0 0 0 16.25-5.43 60 60 0 0 0 10.28-6.54 60.94 60.94 0 0 0 20.63-30.15 60.6 60.6 0 0 0 2.56-21.26 63 63 0 0 0-.92-7.63 60.9 60.9 0 0 0-28.67-41.38 60.6 60.6 0 0 0-18.94-7.4 60.4 60.4 0 0 0-23.22-.25l-5.24 1a19.9 19.9 0 0 0-7.21 2.83 20.3 20.3 0 0 0-5.81 5.61 21 21 0 0 0-2 3.65 20.35 20.35 0 0 0 17.68 28.2 20 20 0 0 0 4.67-.31l9.62-1.76a20.19 20.19 0 0 1 18.48 33.66 20.9 20.9 0 0 1-10.76 6.33l-.72.15L439.36 299a8.35 8.35 0 0 0-6.83 9.7l4.33 23.55a8.38 8.38 0 0 0 9.75 6.75" class="cls-8ne4"/><path d="m484.06 332.16 12.87-2.36q-2.51-4.65-5.09-9.34-8.05-14.55-16.26-28.08l-13 2.39q9.27 15.45 18.45 32Zm45.83-8.42 12.83-2.36q-3.68-6.94-7.58-14-6.69-12.08-13.48-23.45l-13 2.39q7.87 13.29 15.68 27.33 2.82 5.06 5.55 10.09m45.82-8.42 12.76-2.32q-4.82-9.25-10-18.7-5.34-9.63-10.75-18.82l-13 2.39q6.51 11.08 13 22.7 4.06 7.43 7.99 14.75m45.79-8.41 12.69-2.33q-5.91-11.55-12.46-23.39-4-7.21-8-14.18l-13 2.39q5.14 8.87 10.25 18.05 5.41 9.81 10.52 19.46m45.77-8.41 12.61-2.32q-7-13.81-14.85-28.08-2.67-4.83-5.36-9.54l-13 2.39q3.8 6.62 7.58 13.41 6.75 12.2 13.02 24.14m45.73-8.4 12.52-2.3q-8-16.08-17.2-32.79l-2.73-4.89-13 2.39c1.64 2.89 3.29 5.82 4.92 8.77q8.14 14.58 15.49 28.82m45.72-8.4 12.43-2.28q-9-18.33-19.53-37.49l-.13-.24-13 2.38 2.3 4.12q9.49 16.99 17.93 33.51m8.36-84.3 8.57-1.57a835 835 0 0 0-23.12-35.58 20.3 20.3 0 0 0-5.81 5.61 21 21 0 0 0-2 3.65q8.84 13.63 17.68 28.2a20 20 0 0 0 4.68-.31m36.2 73.67a60 60 0 0 0 10.28-6.54q-8.47-17.23-18.38-35.23a20.9 20.9 0 0 1-10.76 6.33q9.99 18 18.86 35.44m30.91-36.69a60.6 60.6 0 0 0 2.56-21.26 829 829 0 0 0-29.59-49 60.6 60.6 0 0 0-18.94-7.4c13.09 20.23 26.26 42 39.21 65.31q3.44 6.19 6.76 12.35" class="cls-8ne3"/><path d="m335.46 1586.76-61.78-340.56a61 61 0 0 0-5.4-16.26 60 60 0 0 0-6.51-10.3 61.1 61.1 0 0 0-30.11-20.64 60.5 60.5 0 0 0-21.25-2.61 63 63 0 0 0-7.64.9 61 61 0 0 0-41.44 28.58 60.3 60.3 0 0 0-7.45 18.93 60.3 60.3 0 0 0-.3 23.22l.95 5.24a20.18 20.18 0 0 0 8.42 13 20.6 20.6 0 0 0 3.65 2 20.35 20.35 0 0 0 28.24-17.61 20.7 20.7 0 0 0-.3-4.68l-1.75-9.62A20.19 20.19 0 0 1 226.5 1238a20.8 20.8 0 0 1 6.3 10.77l.15.73 62.49 344.48a8.34 8.34 0 0 0 9.69 6.84l23.56-4.27a8.38 8.38 0 0 0 6.77-9.79" class="cls-8ne4"/><path d="m328.67 1549.3-2.34-12.88c-3.1 1.66-6.22 3.34-9.35 5.07q-14.57 8-28.11 16.19l2.35 13q15.48-9.24 32-18.38Zm-8.32-45.85-2.35-12.84q-7 3.66-14 7.55-12.09 6.66-23.48 13.43l2.35 13q13.32-7.85 27.37-15.63 5.08-2.79 10.11-5.51m-8.35-45.84-2.32-12.77q-9.25 4.8-18.71 10-9.64 5.31-18.85 10.7l2.36 13q11.1-6.48 22.73-12.91 7.47-4.1 14.79-8.02m-8.28-45.81-2.3-12.7q-11.57 5.9-23.42 12.41-7.23 4-14.2 8l2.36 13q8.88-5.13 18.08-10.21 9.83-5.41 19.48-10.5m-8.31-45.8-2.29-12.61q-13.83 6.94-28.11 14.78-4.85 2.67-9.55 5.34l2.36 13q6.63-3.78 13.43-7.55 12.2-6.72 24.16-12.96m-8.3-45.74-2.27-12.53q-16.09 7.95-32.82 17.13c-1.64.9-3.28 1.81-4.9 2.72l2.36 13c2.89-1.64 5.83-3.27 8.77-4.9q14.61-8.09 28.86-15.42m-8.3-45.74-2.25-12.43q-18.35 8.91-37.56 19.45l-.23.13 2.35 13 4.12-2.29q17.05-9.44 33.57-17.86m-84.27-8.52-1.54-8.6q-18.82 11.52-35.63 23a20.1 20.1 0 0 0 5.6 5.81 20.6 20.6 0 0 0 3.65 2q13.65-8.79 28.24-17.61a20.7 20.7 0 0 0-.32-4.6m73.74-36.06a60 60 0 0 0-6.51-10.3q-17.26 8.46-35.27 18.31a20.8 20.8 0 0 1 6.3 10.77q18.02-9.95 35.48-18.78M231.66 1199a60.5 60.5 0 0 0-21.25-2.61c-17.48 9.7-33.84 19.6-49.08 29.48a60.3 60.3 0 0 0-7.45 18.93c20.26-13 42.05-26.17 65.4-39.07q6.21-3.47 12.38-6.73" class="cls-8ne3"/><path d="m1560.5 1762.77-345.84 14a53.3 53.3 0 0 1-17.05-2.07 55.8 55.8 0 0 1-11.5-4.77 62.5 62.5 0 0 1-15.25-11.89 70.3 70.3 0 0 1-11.67-16.76 77.1 77.1 0 0 1-7.3-23.15 84 84 0 0 1-.83-8.77c-.84-20.94 6.41-40 18.59-53.37a60.1 60.1 0 0 1 16.79-13 53.6 53.6 0 0 1 22.57-6l5.32-.22a17.9 17.9 0 0 1 7.67 1.39 20.5 20.5 0 0 1 6.93 4.85 23 23 0 0 1 2.76 3.6 25.7 25.7 0 0 1 3.83 12.62c.45 11-5.84 20.51-14.68 23.29a17.8 17.8 0 0 1-4.63.8l-9.76.4c-11.62.47-20.51 12.08-19.25 25.59a24.36 24.36 0 0 0 8.85 16.63 19.25 19.25 0 0 0 11.91 4.43h.74l349.82-14.13c4.64-.22 8.63 3.83 8.84 9.17l1.11 27.42c.23 5.29-3.35 9.75-7.97 9.94" class="cls-8ne4"/><path d="m1522.46 1764.3-13.08.53c.93-3.88 1.87-7.78 2.85-11.7q4.56-18.27 9.5-35.43l13.18-.53q-5.54 19.59-10.75 40.31c-.57 2.28-1.16 4.52-1.7 6.82m-46.56 1.88-13 .53q2-8.68 4.22-17.55 3.78-15.17 7.83-29.57l13.2-.53q-4.66 16.82-9.1 34.45-1.63 6.38-3.15 12.67m-46.55 1.88-13 .53q2.59-11.55 5.55-23.39 3-12.1 6.21-23.72l13.22-.53q-3.84 14-7.5 28.59-2.3 9.35-4.48 18.52m-46.52 1.88-12.89.52q3.15-14.37 6.85-29.24 2.26-9.06 4.62-17.85l13.22-.53q-3 11.19-5.91 22.73-3.09 12.32-5.89 24.37m-46.5 1.88-12.81.52q3.68-17.19 8.12-35.09 1.52-6.06 3.07-12l13.22-.54q-2.21 8.34-4.35 16.88-3.85 15.31-7.25 30.23m-46.46 1.88-12.73.51q4.15-20 9.36-40.92.76-3.09 1.55-6.15l13.2-.53q-1.43 5.46-2.82 11-4.61 18.39-8.56 36.09m-46.44 1.87-12.63.51q4.59-22.71 10.56-46.76c0-.1 0-.2.07-.3l13.16-.53c-.44 1.72-.87 3.44-1.31 5.17q-5.35 21.34-9.85 41.91m-27.21-92.26-8.7.35q7-23.88 14.49-45.51a20.5 20.5 0 0 1 6.93 4.85 23 23 0 0 1 2.76 3.6q-5.52 17.42-10.85 35.91a17.8 17.8 0 0 1-4.63.8m-18.61 91.35a55.8 55.8 0 0 1-11.5-4.77q4.37-21.39 10-44a19.25 19.25 0 0 0 11.91 4.43q-5.7 22.68-10.41 44.34m-38.42-33.43a77.1 77.1 0 0 1-7.3-23.15c5.55-21.94 11.54-42.66 17.76-62.14a60.1 60.1 0 0 1 16.79-13c-8.18 25.87-16.09 53.47-23.44 82.76q-2 7.83-3.81 15.53" class="cls-8ne3"/><path d="m1734.93 900.23 26.59 64.5 48.62 35.27-48.62 35.27-26.59 64.5-26.59-64.5-48.62-35.27 48.62-35.27zm-4.6 755.5 19.39 47.04 35.46 25.72-35.46 25.73-19.39 47.04-19.39-47.04-35.46-25.73 35.46-25.72zm-3.07-1458.37 18.04 43.77 33 23.94-33 23.94-18.04 43.77-18.05-43.77-32.99-23.94 32.99-23.94zM1000 198.53l18.05 43.77 32.99 23.94-32.99 23.93-18.05 43.77-18.05-43.77-32.99-23.93 32.99-23.94zm-722.27 4.56 22.98 49.17 42 26.9-42 26.89-22.98 49.18-22.97-49.18-42.01-26.89 42.01-26.9zM1000 1658.86l22.97 49.17 42.01 26.9-42.01 26.9L1000 1811l-22.97-49.17-42.01-26.9 42.01-26.9zm-731.72-11.5 22.97 49.18 42.01 26.89-42.01 26.9-22.97 49.18-22.97-49.18-42.01-26.9 42.01-26.89zm-9.48-695.19-14.41 34.96-26.35 19.11 26.35 19.12 14.41 34.96 14.41-34.96 26.35-19.12-26.35-19.11z" style="fill:#108a6a"/></g></svg>