<svg xmlns="http://www.w3.org/2000/svg" viewBox="0 0 2000 2000" width="300" height="300" fill="none"><defs><style>.cls-5har2{fill:#c4a214}.cls-5har3{fill:#d1b337}.cls-5har4{fill:#825230}.cls-5har5{fill:#774625}.cls-5har6{fill:#3f772c}.cls-5har7{fill:#dbb619}.cls-5har8{fill:#e5cd53}</style></defs><path d="M735 691.42c-18.82 4.5-160.85 35.65-286.86-73.62C328.51 514.07 316.15 364.29 314.6 341.27c15.44 46.14 54.61 144.02 144.8 227.24C571.56 672 692.36 687.98 735 691.43Z" class="cls-5har6"/><path d="M690.52 703.01c-13.2-1.64-112.09-15.81-166.85-116.48-51.99-95.57-23.86-194.92-19.3-210.11-1.18 33.41.44 105.83 38.43 181.1 47.24 93.61 121.12 133 147.73 145.49Z" class="cls-5har6"/><path d="M456.49 162.41c30.33 40.1 43.49 80.53 31.84 101.3-1.64 2.92-9.85 16.3-24.75 15.5-13.33-.72-25.65-12.45-31.06-20.72-14.75-22.59-5.55-61.75 23.97-96.08" class="cls-5har7"/><path d="M488.33 263.72c-1.63 2.92-9.85 16.3-24.75 15.49-13.33-.72-25.66-12.44-31.06-20.72-3.04-4.66-5.07-10.03-6.1-15.92.12.24.25.46.38.7 4.72 8.23 15.53 19.86 27.32 20.47 13.18.69 20.55-12.75 22.03-15.68 8.29-16.51 2.91-45.23-12.87-76.26 25.45 36.9 35.8 72.76 25.05 91.91Z" class="cls-5har2"/><path d="M468.38 272.41c-13.15-14.87-18.48-36.85-13.11-56.02.02 20.46 4.2 37.64 13.11 56.02" class="cls-5har4"/><path d="M394.35 424.24c38.85 34.63 79.48 51.58 101.88 41.28 3.15-1.45 17.64-8.81 18.05-24.25.37-13.82-10.71-27.51-18.8-33.77-22.08-17.1-63.25-10.86-101.13 16.74" class="cls-5har7"/><path d="M496.23 465.52c3.14-1.44 17.64-8.81 18.05-24.25.37-13.82-10.71-27.51-18.8-33.77-4.56-3.53-9.93-6.06-15.91-7.62l.69.45c8.1 5.55 19.2 17.68 18.85 29.9-.38 13.66-14.86 20.15-18.01 21.42-17.73 7.18-46.91-.76-77.62-19.63 35.96 29.33 72.1 42.99 92.76 33.5Z" class="cls-5har2"/><path d="M506.85 445.66c-18.21-10.72-35.63-16.47-56.71-18.19 20.23-3.95 42.46 3.38 56.71 18.19" class="cls-5har4"/><path d="M354.03 324.23c38.85 34.63 79.48 51.58 101.88 41.28 3.15-1.45 17.64-8.81 18.05-24.25.37-13.82-10.71-27.51-18.8-33.77-22.08-17.1-63.25-10.86-101.13 16.74" class="cls-5har7"/><path d="M455.92 365.51c3.14-1.44 17.64-8.81 18.05-24.25.37-13.82-10.71-27.51-18.8-33.77-4.56-3.53-9.93-6.06-15.91-7.62l.69.45c8.1 5.55 19.2 17.68 18.85 29.9-.38 13.66-14.86 20.15-18.01 21.42-17.73 7.18-46.91-.76-77.62-19.63 35.96 29.33 72.1 42.99 92.76 33.5Z" class="cls-5har2"/><path d="M466.54 345.65c-18.21-10.72-35.63-16.47-56.71-18.19 20.23-3.95 42.46 3.38 56.71 18.19" class="cls-5har4"/><path d="M450.32 528.42c42.33 30.28 84.53 42.79 105.71 30.16 2.97-1.77 16.6-10.64 15.36-26.04-1.11-13.78-13.59-26.21-22.3-31.57-23.79-14.65-64.05-4.04-98.77 27.45" class="cls-5har7"/><path d="M556.03 558.58c2.97-1.77 16.59-10.64 15.35-26.04-1.11-13.78-13.58-26.21-22.3-31.57-4.91-3.02-10.52-4.97-16.64-5.88.25.12.49.25.73.38 8.65 4.66 20.98 15.53 21.93 27.71 1.08 13.62-12.63 21.62-15.62 23.23-16.86 9.04-46.73 4.25-79.27-11.22 38.89 25.32 76.28 35.04 95.81 23.39Z" class="cls-5har2"/><path d="M564.48 537.7c-19.23-8.71-37.21-12.57-58.33-12.03 19.69-6.09 42.58-1.18 58.33 12.03" class="cls-5har4"/><path d="M514.29 631.43c45.04 26.08 88.25 34.47 108.12 19.86 2.79-2.05 15.5-12.19 12.78-27.4-2.43-13.6-16.04-24.78-25.23-29.28-25.08-12.29-64.14 2.13-95.67 36.81Z" class="cls-5har7"/><path d="M622.41 651.29c2.79-2.05 15.5-12.19 12.78-27.4-2.43-13.61-16.04-24.78-25.23-29.28-5.18-2.53-10.95-3.93-17.13-4.25.26.1.51.2.76.31 9.05 3.8 22.37 13.44 24.5 25.47 2.38 13.46-10.49 22.73-13.31 24.62-15.92 10.62-46.1 8.72-79.98-3.55 41.14 21.46 79.3 27.55 97.61 14.08" class="cls-5har2"/><path d="M628.81 629.69c-19.97-6.82-38.24-8.94-59.22-6.36 19.02-7.95 42.27-5.26 59.22 6.36" class="cls-5har4"/><path d="M580.81 729.03c46.34 23.69 89.93 29.82 109.01 14.2 2.68-2.19 14.84-12.98 11.34-28.03-3.14-13.46-17.31-23.91-26.72-27.92-25.69-10.97-63.94 5.47-93.62 41.75Z" class="cls-5har7"/><path d="M689.82 743.23c2.68-2.19 14.84-12.98 11.33-28.02-3.13-13.46-17.31-23.91-26.72-27.92-5.3-2.26-11.14-3.36-17.32-3.35.26.08.52.17.78.26 9.24 3.33 23.04 12.25 25.79 24.16 3.08 13.31-9.29 23.25-12.01 25.28-15.34 11.43-45.58 11.12-80.06.63 42.21 19.29 80.62 23.37 98.21 8.97Z" class="cls-5har2"/><path d="M695.08 721.32c-20.28-5.77-38.68-6.93-59.47-3.27 18.58-8.93 41.93-7.46 59.47 3.27" class="cls-5har4"/><path d="M753.91 550.49c-2.71 51.98-19.25 92.77-42.32 101.45-3.24 1.22-18.67 6.34-29.93-4.23-10.08-9.46-12.02-26.96-10.78-37.12 3.38-27.73 36.77-52.6 83.04-60.11Z" class="cls-5har7"/><path d="M711.58 651.94c-3.24 1.22-18.67 6.34-29.93-4.23-10.08-9.45-12.02-26.96-10.78-37.11.7-5.72 2.67-11.32 5.78-16.67-.06.27-.11.53-.16.81-1.75 9.66-.94 26.08 7.99 34.43 9.98 9.34 24.78 3.61 27.9 2.27 17.58-7.55 32.46-33.88 40.65-68.97-4.45 46.19-20.16 81.49-41.44 89.49Z" class="cls-5har2"/><path d="M689.99 645.53c-.5-20.55 9.93-41.5 26.96-53.1-13.61 16.2-21.78 32.63-26.96 53.1" class="cls-5har4"/><path d="M691.17 454.98c-2.71 51.98-19.25 92.77-42.32 101.45-3.24 1.22-18.67 6.34-29.93-4.23-10.08-9.46-12.02-26.96-10.78-37.12 3.38-27.73 36.77-52.6 83.04-60.11Z" class="cls-5har7"/><path d="M648.85 556.44c-3.24 1.22-18.67 6.34-29.93-4.23-10.08-9.45-12.02-26.96-10.78-37.11.7-5.72 2.67-11.32 5.78-16.67-.06.27-.11.53-.16.81-1.75 9.66-.94 26.08 7.99 34.43 9.98 9.34 24.78 3.61 27.9 2.27 17.58-7.55 32.46-33.88 40.65-68.97-4.45 46.19-20.16 81.49-41.44 89.49Z" class="cls-5har2"/><path d="M627.25 550.02c-.5-20.55 9.93-41.5 26.96-53.1-13.61 16.2-21.78 32.63-26.96 53.1" class="cls-5har4"/><path d="M640.99 368.9c-2.71 51.98-19.25 92.77-42.32 101.45-3.24 1.22-18.67 6.34-29.93-4.23-10.08-9.46-12.02-26.96-10.78-37.12 3.38-27.73 36.77-52.6 83.04-60.11Z" class="cls-5har7"/><path d="M598.67 470.36c-3.24 1.22-18.67 6.34-29.93-4.23-10.08-9.45-12.02-26.96-10.78-37.11.7-5.72 2.67-11.32 5.78-16.67-.06.27-.11.53-.16.81-1.75 9.66-.94 26.08 7.99 34.43 9.98 9.34 24.78 3.61 27.9 2.27 17.58-7.55 32.46-33.88 40.65-68.97-4.45 46.19-20.16 81.49-41.44 89.49Z" class="cls-5har2"/><path d="M577.08 463.94c-.5-20.55 9.93-41.5 26.96-53.1-13.61 16.2-21.78 32.63-26.96 53.1" class="cls-5har4"/><path d="M594.04 262.01c-2.71 51.98-19.25 92.77-42.32 101.45-3.24 1.22-18.67 6.34-29.93-4.23-10.08-9.46-12.02-26.96-10.78-37.12 3.38-27.73 36.77-52.6 83.04-60.11Z" class="cls-5har7"/><path d="M551.71 363.46c-3.24 1.22-18.67 6.34-29.93-4.23-10.08-9.45-12.02-26.96-10.78-37.11.7-5.72 2.67-11.32 5.78-16.67-.06.27-.11.53-.16.81-1.75 9.66-.94 26.08 7.99 34.43 9.98 9.34 24.78 3.61 27.9 2.27 17.58-7.55 32.46-33.88 40.65-68.97-4.45 46.19-20.16 81.49-41.44 89.49Z" class="cls-5har2"/><path d="M530.12 357.04c-.5-20.55 9.93-41.5 26.96-53.1-13.61 16.2-21.78 32.63-26.96 53.1m-51.95-55.32C532.26 444.29 610.69 577.7 710.08 693.4c14.11 16.62 28.77 32.75 43.64 48.71-11.61-11.53-22.93-23.35-34.02-35.38-107.07-116.55-190-255.34-241.53-405Z" class="cls-5har4"/><path d="M777.23 162.16c1.35 39.77-8.57 71.94-25.57 80.07-2.39 1.14-13.8 6.06-23.08-1.26-8.3-6.54-10.93-19.75-10.65-27.57.75-21.34 24.56-42.48 59.31-51.25Z" class="cls-5har7"/><path d="M751.66 242.23c-2.39 1.14-13.8 6.06-23.08-1.26-8.3-6.54-10.93-19.75-10.65-27.56.16-4.4 1.29-8.8 3.31-13.08-.03.21-.05.41-.07.62-.7 7.48 1 19.93 8.35 25.7 8.22 6.46 19.11 1.12 21.4-.11 12.89-6.91 22.5-27.94 26.43-55.21-.36 35.48-10.01 63.4-25.69 70.9" class="cls-5har2"/><path d="M734.79 238.76c-1.73-15.62 4.84-32.27 17.05-42.23-9.31 13.25-14.44 26.27-17.05 42.23" class="cls-5har4"/><path d="M617.67 303.26c9.35 40.12 27.92 69.6 47.11 73.15 2.7.5 15.43 2.34 22.73-7.46 6.54-8.77 5.61-22.68 3.23-30.42-6.49-21.13-35.98-35.86-73.07-35.27" class="cls-5har7"/><path d="M664.78 376.41c2.69.5 15.43 2.34 22.73-7.47 6.54-8.77 5.61-22.68 3.23-30.42-1.34-4.36-3.66-8.45-6.82-12.19.08.2.16.4.24.61 2.71 7.28 4.36 20.19-1.43 27.94-6.47 8.66-18.8 6.26-21.42 5.65-14.75-3.43-30.01-21.88-41.28-48.08 9.9 35.37 27.06 60.68 44.75 63.96" class="cls-5har2"/><path d="M680.71 368.4c-6.9-15.23-15.55-26.9-28.41-37.62 14.89 6.67 25.93 21.54 28.41 37.62" class="cls-5har4"/><path d="M637.17 220.17c9.35 40.12 27.92 69.6 47.11 73.15 2.7.5 15.43 2.34 22.73-7.46 6.54-8.77 5.61-22.68 3.23-30.42-6.49-21.13-35.98-35.86-73.07-35.27" class="cls-5har7"/><path d="M684.28 293.32c2.69.5 15.43 2.34 22.73-7.47 6.54-8.77 5.61-22.68 3.23-30.42-1.34-4.36-3.66-8.45-6.82-12.19.08.2.16.4.24.61 2.71 7.28 4.36 20.19-1.43 27.94-6.47 8.66-18.8 6.26-21.42 5.65-14.75-3.43-30.01-21.88-41.28-48.08 9.9 35.37 27.06 60.68 44.75 63.96" class="cls-5har2"/><path d="M700.21 285.31c-6.9-15.23-15.55-26.9-28.41-37.62 14.89 6.67 25.93 21.54 28.41 37.62" class="cls-5har4"/><path d="M606.41 396.18c13.59 38.89 35.19 66.22 54.65 67.7 2.73.21 15.59.68 21.81-9.85 5.56-9.42 3.15-23.15-.04-30.59-8.72-20.32-39.6-31.81-76.42-27.26" class="cls-5har7"/><path d="M661.06 463.89c2.73.21 15.59.68 21.8-9.85 5.56-9.42 3.16-23.15-.04-30.59-1.8-4.19-4.54-8.01-8.09-11.39.11.19.2.38.3.58 3.47 6.95 6.5 19.61 1.56 27.93-5.51 9.31-18.03 8.23-20.69 7.91-15.03-1.84-32.18-18.55-46.18-43.39 13.62 34.11 33.39 57.44 51.33 58.81Z" class="cls-5har2"/><path d="M676.04 454.22c-8.47-14.4-18.34-25.09-32.26-34.37 15.52 5.04 28.09 18.65 32.26 34.37" class="cls-5har4"/><path d="M600.84 492c17.26 37.41 41.4 62.53 60.91 62.14 2.74-.06 15.58-.82 20.76-11.9 4.63-9.91.91-23.35-2.98-30.45-10.63-19.39-42.48-27.86-78.69-19.79" class="cls-5har7"/><path d="M661.75 554.13c2.74-.05 15.58-.82 20.76-11.9 4.63-9.91.92-23.35-2.98-30.45-2.19-4-5.29-7.54-9.14-10.56.12.18.24.36.35.55 4.12 6.59 8.35 18.89 4.24 27.65-4.59 9.79-17.15 9.93-19.84 9.86-15.14-.39-33.81-15.37-50.13-38.76 16.84 32.64 38.75 53.97 56.74 53.6Z" class="cls-5har2"/><path d="M675.73 543.07c-9.82-13.52-20.67-23.22-35.42-31.11 15.93 3.52 29.75 15.86 35.42 31.11" class="cls-5har4"/><path d="M599.39 585.47c19.19 36.45 44.6 60.29 64.06 58.87 2.73-.2 15.52-1.63 20.11-12.97 4.11-10.14-.31-23.36-4.56-30.25-11.62-18.81-43.87-25.6-79.61-15.66Z" class="cls-5har7"/><path d="M663.46 644.35c2.73-.2 15.52-1.63 20.11-12.97 4.11-10.14-.3-23.36-4.56-30.25-2.4-3.88-5.68-7.25-9.68-10.07.13.17.26.35.38.53 4.46 6.36 9.32 18.43 5.68 27.39-4.08 10.02-16.61 10.81-19.3 10.88-15.14.4-34.56-13.58-52.09-36.09 18.52 31.72 41.52 51.87 59.46 50.57Z" class="cls-5har2"/><path d="M676.85 632.57c-10.5-12.98-21.87-22.12-36.99-29.22 16.09 2.69 30.53 14.29 36.99 29.22" class="cls-5har4"/><path d="M792.79 548.85c-25.45 32.4-54.74 51.26-73.63 46.36-2.65-.69-14.97-4.41-17.44-16.38-2.21-10.71 4.51-22.92 9.94-28.93 14.83-16.4 47.77-17.27 81.13-1.04Z" class="cls-5har7"/><path d="M719.15 595.2c-2.65-.69-14.97-4.41-17.44-16.38-2.21-10.71 4.51-22.92 9.94-28.93 3.06-3.38 6.89-6.11 11.34-8.15-.16.15-.32.3-.47.45-5.54 5.45-12.5 16.45-10.52 25.92 2.2 10.59 14.39 13.63 17.02 14.18 14.82 3.13 36.45-7.13 57.74-26.1-23.94 27.86-50.19 43.54-67.61 39.02Z" class="cls-5har2"/><path d="M708.11 581.21c9.04-13.52 25.34-22.33 41.65-22.07-16.19 4.28-28.96 11.19-41.65 22.07" class="cls-5har4"/><path d="M795.73 458.45c-25.45 32.4-54.74 51.26-73.63 46.36-2.65-.69-14.97-4.41-17.44-16.38-2.21-10.71 4.51-22.92 9.94-28.93 14.83-16.4 47.77-17.27 81.13-1.04Z" class="cls-5har7"/><path d="M722.09 504.81c-2.65-.69-14.97-4.41-17.44-16.38-2.21-10.71 4.51-22.92 9.94-28.93 3.06-3.38 6.89-6.11 11.34-8.15-.16.15-.32.3-.47.45-5.54 5.45-12.5 16.45-10.52 25.92 2.2 10.59 14.39 13.63 17.02 14.18 14.82 3.13 36.45-7.13 57.74-26.1-23.94 27.86-50.19 43.54-67.61 39.02Z" class="cls-5har2"/><path d="M711.05 490.81c9.04-13.52 25.34-22.33 41.65-22.07-16.19 4.28-28.96 11.19-41.65 22.07" class="cls-5har4"/><path d="M802.49 379.88c-25.45 32.4-54.74 51.26-73.63 46.36-2.65-.69-14.97-4.41-17.44-16.38-2.21-10.71 4.51-22.92 9.94-28.93 14.83-16.4 47.77-17.27 81.13-1.04Z" class="cls-5har7"/><path d="M728.86 426.23c-2.65-.69-14.97-4.41-17.44-16.38-2.21-10.71 4.51-22.92 9.94-28.93 3.06-3.38 6.89-6.11 11.34-8.15-.16.15-.32.3-.47.45-5.54 5.45-12.5 16.45-10.52 25.92 2.2 10.59 14.39 13.63 17.02 14.18 14.82 3.13 36.45-7.13 57.74-26.1-23.94 27.86-50.19 43.54-67.61 39.02Z" class="cls-5har2"/><path d="M717.82 412.24c9.04-13.52 25.34-22.33 41.65-22.07-16.19 4.28-28.96 11.19-41.65 22.07" class="cls-5har4"/><path d="M820.84 289.3c-25.45 32.4-54.74 51.26-73.63 46.36-2.65-.69-14.97-4.41-17.44-16.38-2.21-10.71 4.51-22.92 9.94-28.93 14.83-16.4 47.77-17.27 81.13-1.04Z" class="cls-5har7"/><path d="M747.2 335.66c-2.65-.69-14.97-4.41-17.44-16.38-2.21-10.71 4.51-22.92 9.94-28.93 3.06-3.38 6.89-6.11 11.34-8.15-.16.15-.32.3-.47.45-5.54 5.45-12.5 16.45-10.52 25.92 2.2 10.59 14.39 13.63 17.02 14.18 14.82 3.13 36.45-7.13 57.74-26.1-23.94 27.86-50.19 43.54-67.61 39.02Z" class="cls-5har2"/><path d="M736.16 321.66c9.04-13.52 25.34-22.33 41.65-22.07-16.19 4.28-28.96 11.19-41.65 22.07m-8.4-59.47c-29.99 116.9-40.05 238.98-28.48 359.16 1.55 17.18 3.69 34.31 6.04 51.41-2.26-12.75-4.19-25.56-5.89-38.4-16.16-124.23-6.55-251.83 28.32-372.17Z" class="cls-5har4"/><path d="M977.23 285.32c-14.59 26.03-33.45 42.8-47.52 41.4-1.98-.2-11.21-1.48-14.31-9.78-2.78-7.42.67-16.91 3.89-21.81 8.78-13.39 32.26-17.7 57.95-9.81Z" class="cls-5har7"/><path d="M929.71 326.71c-1.97-.2-11.2-1.48-14.31-9.78-2.78-7.42.67-16.91 3.89-21.81 1.81-2.76 4.25-5.14 7.2-7.1-.1.12-.19.25-.29.37-3.35 4.52-7.11 13.17-4.64 19.72 2.76 7.33 11.82 8.15 13.76 8.25 10.95.58 25.29-9.17 38.41-25.13-14.02 22.61-31.06 36.76-44.03 35.47Z" class="cls-5har2"/><path d="M920.25 317.93c4.96-10.69 15.64-18.81 27.35-20.45-11.12 4.88-19.47 11.23-27.35 20.45" class="cls-5har4"/><path d="M820.08 313.76c-9.6 29.36-9.15 55.48 1.77 65.22 1.53 1.37 8.98 7.5 17.48 4.05 7.6-3.08 12.41-12.36 13.9-18.25 4.05-16.08-9.13-36.98-33.14-51.02Z" class="cls-5har7"/><path d="M821.85 378.98c1.53 1.37 8.98 7.5 17.48 4.05 7.6-3.08 12.41-12.36 13.9-18.25.83-3.32.94-6.84.36-10.47-.02.16-.05.32-.08.48-1.09 5.72-5.05 14.64-11.78 17.36-7.52 3.04-14.49-3.29-15.93-4.7-8.12-7.93-10.74-25.69-7.78-46.87-7.4 26.53-6.24 49.43 3.84 58.4Z" class="cls-5har2"/><path d="M835.18 380.04c1.5-12.45.49-23.29-3.59-35.16 6.96 10.06 8.25 23.89 3.59 35.16" class="cls-5har4"/><path d="M864.88 268.07c-9.6 29.36-9.15 55.48 1.77 65.22 1.53 1.37 8.98 7.5 17.48 4.05 7.6-3.08 12.41-12.36 13.9-18.25 4.05-16.08-9.13-36.98-33.14-51.02Z" class="cls-5har7"/><path d="M866.65 333.28c1.53 1.37 8.98 7.5 17.48 4.05 7.6-3.08 12.41-12.36 13.9-18.25.83-3.32.94-6.84.36-10.47-.02.16-.05.32-.08.48-1.09 5.72-5.05 14.64-11.78 17.36-7.52 3.04-14.49-3.29-15.93-4.7-8.12-7.93-10.74-25.69-7.78-46.87-7.4 26.53-6.24 49.43 3.84 58.4Z" class="cls-5har2"/><path d="M879.98 334.34c1.5-12.45.49-23.29-3.59-35.16 6.96 10.06 8.26 23.89 3.59 35.16" class="cls-5har4"/><path d="M776.74 368.97c-6.41 30.22-3.17 56.14 8.73 64.65 1.67 1.2 9.73 6.5 17.81 2.16 7.23-3.88 11.02-13.62 11.87-19.63 2.31-16.42-13.03-35.79-38.4-47.18Z" class="cls-5har7"/><path d="M785.47 433.63c1.67 1.2 9.73 6.49 17.81 2.16 7.23-3.88 11.02-13.62 11.87-19.63.48-3.39.2-6.9-.76-10.44 0 .16-.02.32-.03.49-.48 5.81-3.46 15.1-9.85 18.52-7.15 3.82-14.76-1.73-16.34-2.97-8.92-7.02-13.42-24.4-12.74-45.77-4.52 27.17-.92 49.81 10.05 57.66Z" class="cls-5har2"/><path d="M798.83 433.25c.16-12.53-2.01-23.22-7.33-34.58 7.99 9.26 10.76 22.87 7.33 34.58" class="cls-5har4"/><path d="M735.93 428.24c-3.47 30.69 2.24 56.19 14.9 63.52 1.78 1.03 10.31 5.53 17.94.44 6.82-4.56 9.66-14.61 9.92-20.68.72-16.56-16.41-34.37-42.76-43.27Z" class="cls-5har7"/><path d="M750.83 491.76c1.78 1.03 10.31 5.53 17.94.44 6.82-4.55 9.66-14.61 9.92-20.68.15-3.42-.46-6.89-1.76-10.32 0 .16.01.32.02.49.08 5.83-1.99 15.36-8.03 19.38-6.75 4.49-14.86-.3-16.55-1.39-9.56-6.13-15.7-23-17.08-44.34-1.89 27.48 3.87 49.67 15.55 56.43Z" class="cls-5har2"/><path d="M764.09 490.1c-1.04-12.48-4.23-22.92-10.62-33.71 8.84 8.45 12.91 21.73 10.62 33.71" class="cls-5har4"/><path d="M698.66 487.62c-1.87 30.83 5.16 55.99 18.19 62.65 1.83.94 10.59 4.98 17.94-.5 6.57-4.9 8.89-15.1 8.83-21.17-.14-16.58-18.18-33.47-44.96-40.98" class="cls-5har7"/><path d="M716.86 550.27c1.83.94 10.58 4.98 17.93-.5 6.57-4.9 8.89-15.1 8.83-21.17-.03-3.42-.82-6.86-2.3-10.22.02.16.03.32.04.49.39 5.81-1.19 15.44-7.01 19.77-6.51 4.84-14.85.47-16.6-.52-9.86-5.62-16.88-22.15-19.37-43.39-.46 27.54 6.46 49.4 18.47 55.54Z" class="cls-5har2"/><path d="M730.02 547.93c-1.69-12.4-5.42-22.68-12.36-33.12 9.27 7.98 14.03 21.03 12.36 33.12" class="cls-5har4"/><path d="M836.9 539.31c-28.91 10.88-55.02 11.59-65.23 1.1-1.43-1.47-7.89-8.64-4.82-17.28 2.75-7.73 11.8-12.94 17.62-14.69 15.88-4.75 37.34 7.49 52.43 30.87" class="cls-5har7"/><path d="M771.67 540.41c-1.43-1.47-7.89-8.64-4.81-17.28 2.75-7.73 11.8-12.95 17.62-14.68 3.28-.98 6.79-1.24 10.44-.82-.16.03-.32.07-.48.1-5.67 1.35-14.41 5.69-16.82 12.53-2.7 7.65 3.93 14.33 5.4 15.71 8.28 7.76 26.14 9.6 47.17 5.71-26.18 8.56-49.11 8.41-58.52-1.26Z" class="cls-5har2"/><path d="M770.03 527.14c11.06-5.16 24.93-4.47 35.29 2.04-12.04-3.55-22.92-4.09-35.29-2.04" class="cls-5har4"/><path d="M873.93 482.49c-28.91 10.88-55.02 11.59-65.23 1.1-1.43-1.47-7.89-8.64-4.82-17.28 2.75-7.73 11.8-12.94 17.62-14.69 15.88-4.75 37.34 7.49 52.43 30.87" class="cls-5har7"/><path d="M808.7 483.59c-1.43-1.47-7.89-8.64-4.81-17.28 2.75-7.73 11.8-12.95 17.62-14.68 3.28-.98 6.79-1.24 10.44-.82-.16.03-.32.07-.48.1-5.67 1.35-14.41 5.69-16.82 12.53-2.7 7.65 3.93 14.33 5.4 15.71 8.28 7.76 26.14 9.6 47.17 5.71-26.18 8.56-49.11 8.41-58.52-1.26Z" class="cls-5har2"/><path d="M807.05 470.32c11.06-5.16 24.93-4.47 35.29 2.04-12.04-3.55-22.92-4.09-35.29-2.04" class="cls-5har4"/><path d="M908.81 434.74c-28.91 10.88-55.02 11.59-65.23 1.1-1.43-1.47-7.89-8.64-4.82-17.28 2.75-7.73 11.8-12.94 17.62-14.69 15.88-4.75 37.34 7.49 52.43 30.87" class="cls-5har7"/><path d="M843.58 435.84c-1.43-1.47-7.89-8.64-4.81-17.28 2.75-7.73 11.8-12.95 17.62-14.68 3.28-.98 6.79-1.24 10.44-.82-.16.03-.32.07-.48.1-5.67 1.35-14.41 5.69-16.82 12.53-2.7 7.65 3.93 14.33 5.4 15.71 8.28 7.76 26.14 9.6 47.17 5.71-26.18 8.56-49.11 8.41-58.52-1.26Z" class="cls-5har2"/><path d="M841.93 422.57c11.06-5.16 24.93-4.47 35.29 2.04-12.04-3.55-22.92-4.09-35.29-2.04" class="cls-5har4"/><path d="M955.77 383.79c-28.91 10.88-55.02 11.59-65.23 1.1-1.43-1.47-7.89-8.64-4.82-17.28 2.75-7.73 11.8-12.94 17.62-14.69 15.88-4.75 37.34 7.49 52.43 30.87" class="cls-5har7"/><path d="M890.54 384.89c-1.43-1.47-7.89-8.64-4.81-17.28 2.75-7.73 11.8-12.95 17.62-14.68 3.28-.98 6.79-1.24 10.44-.82-.16.03-.32.07-.48.1-5.67 1.35-14.41 5.69-16.82 12.53-2.7 7.65 3.93 14.33 5.4 15.71 8.28 7.76 26.14 9.6 47.17 5.71-26.18 8.56-49.11 8.41-58.52-1.26Z" class="cls-5har2"/><path d="M888.9 371.62c11.06-5.16 24.93-4.47 35.29 2.04-12.04-3.55-22.92-4.09-35.29-2.04m17.73-41.4c-64.67 63.3-118.57 137.67-157.86 219.22-5.68 11.62-10.97 23.43-16.11 35.31 3.51-9.05 7.25-18.02 11.15-26.91 37.93-85.93 93.69-164.02 162.82-227.62" class="cls-5har4"/><path d="M782.53 1355.17a22.2 22.2 0 0 1-4.8 3.71 22.9 22.9 0 0 1-11.57 3.12c-3.82 0-7.88-1-11.51-3.1-1.5-.87-3-1.75-4.49-2.63-15.17-8.94-29.8-18.3-43.86-28.08q-.54-.36-1.08-.75c-51.2-35.7-94.96-76.79-130.51-122.63-49.58-63.93-86.26-141.24-106.07-223.56-18.62-77.34-20.74-154.38-5.95-216.9 15.41-65.22 47.77-111.31 93.59-133.25 17.28-8.29 37.48-13.45 58.48-14.94h.1c.17-.02.34-.03.51-.04l.9-.06c1.83-.11 3.62 0 5.35.3 1.4.24 2.76.61 4.07 1.1a22.93 22.93 0 0 1 14.92 20.11c.05.77.06 1.53.03 2.29-.11 3.3-.94 6.45-2.33 9.27-3.29 6.7-9.77 11.61-17.59 12.64-.03.01-.06.01-.1.01q-.735.105-1.5.15c-15.69.98-30.56 4.64-42.98 10.61-41.52 19.89-60.29 66.65-68.74 102.37-28.6 121.02 14.01 286.21 103.62 401.74 24.74 31.88 53.88 61.34 87.12 88.09 15.74 12.7 32.41 24.77 49.96 36.2a65.6 65.6 0 0 0 10.13 31.46c6.02 9.5 14.4 17.36 24.31 22.77Z" class="cls-5har8"/><path d="M782.53 1355.17a22.2 22.2 0 0 1-4.8 3.71c-16.26-9.42-31.9-19.32-46.9-29.69-9.22-6.35-18.2-12.89-26.93-19.61-40.83-31.33-76.34-66.39-106.11-104.77-49.59-63.93-86.27-141.24-106.08-223.56-18.61-77.34-20.71-154.38-5.94-216.9 15.4-65.22 47.78-111.31 93.59-133.25 10.95-5.24 23.05-9.24 35.79-11.83.03 0 .07-.02.1-.02.53-.11 1.07-.22 1.6-.32q2.88-.555 5.79-1.02c1.01-.16 2.02-.31 3.04-.45a22.93 22.93 0 0 1 14.92 20.11c.05.77.06 1.53.03 2.29-.11 3.3-.94 6.45-2.33 9.27-3.29 6.7-9.77 11.61-17.59 12.64-.03.01-.06.01-.1.01q-.735.105-1.5.15c-15.69.98-30.56 4.64-42.98 10.61-41.52 19.89-60.29 66.65-68.74 102.37-28.6 121.02 14.01 286.21 103.62 401.74 24.74 31.88 53.88 61.34 87.12 88.09 15.74 12.7 32.41 24.77 49.96 36.2a65.6 65.6 0 0 0 10.13 31.46c6.02 9.5 14.4 17.36 24.31 22.77" class="cls-5har3"/><path d="M1381.11 840.99c-.76.06-1.52.11-2.28.17.76-.05 1.52-.11 2.28-.16 1.71-.12 3.42-.25 5.12-.38-1.7.12-3.41.24-5.12.37m0 0c-.76.06-1.52.11-2.28.17.76-.05 1.52-.11 2.28-.16 1.71-.12 3.42-.25 5.12-.38-1.7.12-3.41.24-5.12.37m0 0c-.76.06-1.52.11-2.28.17.76-.05 1.52-.11 2.28-.16 1.71-.12 3.42-.25 5.12-.38-1.7.12-3.41.24-5.12.37m0 0c-.76.06-1.52.11-2.28.17.76-.05 1.52-.11 2.28-.16 1.71-.12 3.42-.25 5.12-.38-1.7.12-3.41.24-5.12.37m0 0c-.76.06-1.52.11-2.28.17.76-.05 1.52-.11 2.28-.16 1.71-.12 3.42-.25 5.12-.38-1.7.12-3.41.24-5.12.37m0 0c-.76.06-1.52.11-2.28.17.76-.05 1.52-.11 2.28-.16 1.71-.12 3.42-.25 5.12-.38-1.7.12-3.41.24-5.12.37m-783.96-361.7 13.14 102.18c.36 2.81.72 5.6 1.08 8.4v.13l1.44 11.14 1.71 13.32v.01c.07.57.14 1.12.22 1.69.13 1.04.26 2.07.4 3.11l5.46 42.51c5.32 41.36 10.64 82.72 15.95 124.08 1.06 8.18 2.11 16.37 3.16 24.55.93 7.26 1.87 14.51 2.8 21.77 18.54 144.19 37.08 288.38 55.61 432.56 1.93 14.95 3.85 29.89 5.77 44.84.7 5.49 1.41 10.98 2.12 16.47l.27 2.14c.99 7.68 1.97 15.35 2.96 23.03.91 7.1 1.83 14.2 2.74 21.3 5.59 43.51 11.19 87.01 16.78 130.52.51 3.99 1.32 7.88 2.39 11.66 8.27 29.24 32.58 51.74 63.16 57.19a1583.5 1583.5 0 0 0 268.73 24.54c108.8.62 205.32-10.06 286.19-24.44 34.8-6.19 61.49-34.34 65.75-69.43 5.29-43.58 10.58-87.15 15.88-130.73.9-7.45 1.8-14.9 2.71-22.35 1.04-8.61 2.09-17.21 3.13-25.82h.01c20.03-164.97 40.06-329.95 60.1-494.92l5.34-44v-.02c6.39-52.57 12.77-105.15 19.15-157.72.01 0 .02 0 0-.02.88-7.21 1.76-14.42 2.63-21.63.61-5.04 1.23-10.09 1.84-15.13 0-.04.01-.09.02-.13.25-2.11.51-4.22.76-6.33 4.17-34.35 8.35-68.69 12.52-103.04.05-.48.11-.95.17-1.43h-942.1Zm758.67 879.63c-14.11 1.51-28.46 2.94-43.03 4.26H817.04q-8.97-.81-17.82-1.68h-.04a66 66 0 0 1-16.65-6.32 66.6 66.6 0 0 1-24.31-22.77 65.6 65.6 0 0 1-10.13-31.46c-.08-1.29-.12-2.6-.12-3.91V841.13l2.55.18c-.85-.06-1.7-.13-2.55-.19v-62.4c0-36.53 29.62-66.15 66.15-66.15h518.31c19.71 0 37.41 8.62 49.52 22.3 10.35 11.67 16.63 27.02 16.63 43.85v60.97c-2.41.19-4.82.37-7.24.56 2.42-.18 4.83-.36 7.24-.55v457.34c0 11.89-3.13 23.05-8.63 32.68-7.57 13.31-19.64 23.74-34.13 29.21Zm23.01-517.76c.76-.05 1.52-.11 2.28-.16 1.71-.12 3.42-.25 5.12-.38-1.7.12-3.41.24-5.12.37-.76.06-1.52.11-2.28.17m2.28-.17c-.76.06-1.52.11-2.28.17.76-.05 1.52-.11 2.28-.16 1.71-.12 3.42-.25 5.12-.38-1.7.12-3.41.24-5.12.37m0 0c-.76.06-1.52.11-2.28.17.76-.05 1.52-.11 2.28-.16 1.71-.12 3.42-.25 5.12-.38-1.7.12-3.41.24-5.12.37m0 0c-.76.06-1.52.11-2.28.17.76-.05 1.52-.11 2.28-.16 1.71-.12 3.42-.25 5.12-.38-1.7.12-3.41.24-5.12.37m0 0c-.76.06-1.52.11-2.28.17.76-.05 1.52-.11 2.28-.16 1.71-.12 3.42-.25 5.12-.38-1.7.12-3.41.24-5.12.37m-2.28.17c.76-.05 1.52-.11 2.28-.16-.76.05-1.52.1-2.28.16" class="cls-5har4"/><path d="M1386.23 840.62c-1.7.13-3.41.26-5.12.38 1.71-.14 3.42-.26 5.12-.38" class="cls-5har5"/><path d="M1539.54 480.72c-4.17 34.36-8.35 68.73-12.52 103.09-.26 2.11-.51 4.22-.77 6.33 0 .04-.01.09-.01.13-.57 4.66-1.13 9.31-1.7 13.97-.88 7.27-1.77 14.54-2.65 21.81l-19.35 159.32-5.19 42.79c-20.09 165.39-40.17 330.78-60.25 496.18-1.02 8.36-2.03 16.72-3.05 25.08-.88 7.28-1.77 14.56-2.65 21.85-5.38 44.24-10.75 88.48-16.12 132.72-4.27 35.08-30.95 63.23-65.75 69.43a1583.4 1583.4 0 0 1-286.2 24.43 1581.6 1581.6 0 0 1-268.73-24.53c-31.08-5.53-55.68-28.68-63.54-58.63h.1c61.56 5.59 130.14 9.07 204.57 8.53 108.81-.79 205.23-9.93 285.97-21.68 20.29-2.95 37.75-11.5 49.55-23.38 3.44-3.45 6.39-7.19 8.79-11.14 1.36-2.23 2.54-4.53 3.53-6.89 1.57-3.72 2.68-7.59 3.27-11.58 2.82-18.84 6.1-40.34 9.73-63.88 1.03-6.62 2.07-13.41 3.15-20.34l.18-1.16h12.89c14.57-1.32 28.92-2.75 43.03-4.26 14.49-5.47 26.56-15.9 34.13-29.21 5.5-9.63 8.63-20.79 8.63-32.68V839.68c-2.41.19-4.82.37-7.24.55 2.42-.19 4.83-.37 7.24-.56V778.7c0-16.83-6.28-32.18-16.63-43.85-14.79-36.72-49.43-64.06-91.95-67.12-20.7-1.49-41.69-2.85-62.96-4.07a4301 4301 0 0 0-212.21-6.93c-13.42-.11-26.93-.16-40.53-.13h-.03c-1.18-.01-2.37 0-3.56 0-10.6.02-21.16.09-31.66.19h-.01c-12.12.12-24.15.28-36.13.5h-.01c-32.04.58-63.57 1.51-94.6 2.75-7.22.29-14.41.59-21.57.92-5.99.26-11.95.55-17.9.84 0 0 0 .01-.01 0-23.47 1.15-46.62 2.48-69.47 3.98-6.71.44-13.39.89-20.05 1.36-6.42.45-12.81.91-19.18 1.39-12.82.95-25.52 1.96-38.13 3.01l-1.26-9.78-5.46-42.52c-.14-1.03-.27-2.06-.4-3.09l-.18-1.41-1.71-13.32-1.47-11.43c0-.04 0-.09-.02-.13l-1.08-8.45c-4.32-33.56-8.63-67.13-12.95-100.69h942.1Z" class="cls-5har5"/><path d="M1546.97 574.62c0 9.52-8.45 16.92-18.09 15.82a4050 4050 0 0 0-487.97-26.2 4052 4052 0 0 0-433.39 26.2c-9.64 1.1-18.09-6.3-18.09-15.82V464.23c0-7.7 5.61-14.29 13.33-15.68 127.51-22.83 279.35-40.37 450.56-41.34 183.83-1.04 345.96 17.27 480.33 41.34 7.72 1.38 13.32 7.98 13.32 15.68z" class="cls-5har8"/><path d="M1545.82 464.23v110.39c0 9.51-8.45 16.92-18.08 15.81a4048 4048 0 0 0-487.97-26.2 4049 4049 0 0 0-433.39 26.2c-9.64 1.11-18.1-6.3-18.1-15.83V464.22c0-7.7 5.61-14.3 13.32-15.68 4.69-.84 9.39-1.66 14.15-2.49v78.07c0 9.51 7.91 16.92 16.94 15.81a3557 3557 0 0 1 405.96-26.2c167.04-1.21 320.26 9.48 457.05 26.2 9.04 1.11 16.95-6.3 16.95-15.81v-79.06c6.69 1.14 13.29 2.3 19.84 3.48 7.73 1.38 13.32 7.98 13.32 15.68Z" class="cls-5har3"/><path d="M1441.71 1349.32a36 36 0 0 1-.62 3.38c-2.13 9.53-7.22 15.86-9.69 18.57l-.53.56c-.18.02-.35.05-.53.07-2.19.25-4.39.51-6.59.76-5.08.59-10.2 1.17-15.34 1.74-2.52.27-5.03.54-7.56.81h-.02c-33.54 3.62-68.32 6.82-104.26 9.47-27.79 2.05-56.28 3.78-85.44 5.12-1.43.06-2.86.13-4.31.2-6.2.27-12.45.54-18.71.77-.42.02-.84.03-1.28.05-.69.03-1.38.05-2.07.08-2.4.09-4.82.17-7.24.26-4.54.16-9.07.32-13.64.45-3.57.12-7.14.22-10.72.32-24.47.67-49.39 1.06-74.71 1.14-34.83.1-68.87-.37-102.11-1.36-1.58-.05-3.14-.08-4.72-.13-4.72-.15-9.44-.32-14.13-.49-1.75-.05-3.5-.12-5.23-.19-1.14-.05-2.28-.08-3.41-.13h-.39c-4.41-.18-8.8-.35-13.19-.55-3.36-.14-6.7-.29-10.03-.44-65.7-3.04-127.95-8.02-186.41-14.27-.84-.08-1.66-.18-2.48-.27-6.99-.75-13.9-1.52-20.77-2.31-.49-.05-.98-.1-1.45-.16-.72-.08-1.43-.16-2.14-.25a38.1 38.1 0 0 1-7.98-10.99c-1.29-2.67-2.4-5.79-3.04-9.36-2.08-11.62 2.09-20.85 4.25-24.73.32-.58.6-1.05.81-1.38 8.18 1.06 16.45 2.11 24.81 3.13q13.53 1.665 27.39 3.21c6.02 9.5 14.4 17.36 24.31 22.77a66 66 0 0 0 16.65 6.32h.04q8.85.87 17.82 1.68h495.75c14.57-1.32 28.92-2.75 43.03-4.26 14.49-5.47 26.56-15.9 34.13-29.21 15.9-1.92 31.49-3.94 46.76-6.05h.01c.11.2.24.42.38.68 1.96 3.61 6.27 12.9 4.61 24.98Z" class="cls-5har8"/><path d="M1441.09 1352.7c-2.13 9.53-7.22 15.86-9.69 18.57l-.53.56c-.18.02-.35.05-.53.07a156.7 156.7 0 0 1-7.75 26.21c-3.28.39-6.55.76-9.86 1.13-4.66.52-9.33 1.02-14.05 1.51 4.06-8.21 7.36-17.04 9.73-26.35-2.52.27-5.03.54-7.56.81h-.02c-33.54 3.62-68.32 6.82-104.26 9.47-27.79 2.05-56.28 3.78-85.44 5.12-1.43.06-2.86.13-4.31.2 3.8 8.8 8.41 17.02 13.7 24.53-5.8.27-11.63.54-17.49.79-2.17.1-4.34.18-6.52.27h-.02c-4.08-6.96-7.68-14.33-10.72-22.08-3.31 8.08-7.24 15.74-11.69 22.92-4.37.13-8.74.28-13.14.4h-.02c-4.23.14-8.49.24-12.74.35 6.07-7.69 11.36-16.26 15.7-25.57-3.57.12-7.14.22-10.72.32-24.47.67-49.39 1.06-74.71 1.14-34.83.1-68.87-.37-102.11-1.36-1.58-.05-3.14-.08-4.72-.13 4.07 9.2 9.07 17.72 14.85 25.42-6.16-.17-12.3-.35-18.41-.57-2.37-.07-4.74-.15-7.09-.24-2.86-4.8-5.48-9.81-7.83-15-2.37 4.99-4.98 9.81-7.8 14.42h-.02c-4.11-.17-8.18-.36-12.26-.53-4.04-.18-8.07-.37-12.07-.57 5.51-7.39 10.32-15.52 14.28-24.29-3.36-.14-6.7-.29-10.03-.44-65.7-3.04-127.95-8.02-186.41-14.27-.84-.08-1.66-.18-2.48-.27 2.72 9.18 6.35 17.87 10.72 25.95-6.64-.69-13.21-1.4-19.75-2.14-1.54-.16-3.07-.33-4.6-.5h-.02c-3.53-8.2-6.42-16.82-8.57-25.78-.72-.08-1.43-.16-2.14-.25a38.1 38.1 0 0 1-7.98-10.99c1.38-5.31 3.55-9.04 4.4-10.41.28.03.57.07.85.1.29.04.59.08.88.11 7.13.95 14.32 1.85 21.6 2.74 6.09.75 12.23 1.48 18.42 2.2 8.87 1.02 17.84 2.02 26.91 2.98 7.3.77 14.68 1.52 22.11 2.24h.04q8.85.87 17.82 1.68c37.62 3.43 76.81 6.22 117.46 8.17 2.52.11 5.06.23 7.61.33.34.02.68.04 1.01.05h.02c.44.02.86.04 1.31.05 3.96.19 7.95.36 11.95.52 2.08.07 4.16.16 6.26.24.73.03 1.45.05 2.19.08.69.02 1.39.05 2.08.07 37.69 1.34 76.55 1.97 116.53 1.7 27.1-.19 53.7-.78 79.73-1.72 2.65-.08 5.31-.18 7.96-.3 3.09-.12 6.17-.23 9.23-.37 1.83-.07 3.66-.15 5.47-.25 1.97-.07 3.94-.15 5.9-.25 3.48-.15 6.96-.32 10.4-.51 33.51-1.69 66.05-3.93 97.57-6.65 4.38-.38 8.73-.76 13.07-1.16 14.57-1.32 28.92-2.75 43.03-4.26 17.51-1.87 34.66-3.87 51.46-5.99 7.28-.91 14.49-1.85 21.63-2.81 1.56-.21 3.12-.43 4.67-.64l.47-.06 5.06-.69c.47.82 1.21 2.17 1.98 3.97Z" class="cls-5har3"/><path d="M747.97 796.46v44.65l-5-.36c-1.66-.12-3.32-.25-4.98-.37h-.06c-8.35-.63-16.65-1.28-24.88-1.94-4.15-.33-8.27-.66-12.38-1.01-4.08-.35-8.15-.69-12.21-1.04q-.015.015-.03 0c-15.52-1.34-30.83-2.75-45.91-4.21l-2.14-.21q-.51-.405-1.2-.99c-.15-.13-.31-.26-.47-.41l-.81-.75h-.01c-.29-.28-.58-.56-.88-.86-3.48-3.49-8.02-9.29-9.73-17.33-.13-.6-.23-1.19-.32-1.78-.07-.46-.13-.91-.18-1.36-.14-1.36-.19-2.67-.16-3.94.23-9.85 5.17-17.01 6.66-19.05l3.28.36c35.67 3.92 72.83 7.49 111.41 10.6m638.26 44.16c-1.7.13-3.41.26-5.12.38-.76.05-1.52.11-2.28.16.76-.06 1.52-.11 2.28-.17 1.71-.13 3.42-.25 5.12-.37m120.83-31.85c-1.37 8.39-5.57 14.67-9.01 18.61-.24.27-.47.53-.7.78-.18.2-.36.39-.53.57-.12.13-.23.24-.34.35-.28.29-.55.56-.8.81-.14.12-.27.25-.39.36s-.23.22-.34.32c-.18.16-.34.31-.49.45l-.29.26c-15.63 1.55-31.5 3.04-47.6 4.45l-12.12 1.05c-8.11.7-16.28 1.37-24.51 2.02-3.77.3-7.56.6-11.36.89-2.41.19-4.82.37-7.24.55 2.42-.19 4.83-.37 7.24-.56v-46.04c34.63-3.09 68.11-6.54 100.39-10.27l.54-.06c.54-.07 1.07-.13 1.61-.19.11.16.22.33.36.53.07.1.14.21.2.32.14.21.28.44.44.69s.03.05.04.08c.12.2.25.41.38.63s.04.07.06.1a40.4 40.4 0 0 1 2.62 5.56c.16.44.33.91.49 1.38 1.45 4.4 2.38 9.99 1.35 16.36" class="cls-5har8"/><path d="m750.52 841.3-2.55-.18c-1.67-.12-3.34-.24-5-.37-1.66-.12-3.32-.25-4.98-.37h-.06c-8.36-.62-16.65-1.27-24.88-1.94-4.15-.33-8.27-.66-12.38-1.01-4.08-.35-8.15-.69-12.21-1.04q-.015.015-.03 0a4156 4156 0 0 1-48.06-4.41c-.33-.27-.73-.6-1.19-1-.15-.13-.31-.26-.47-.41-.26-.23-.53-.47-.81-.75h-.01c-.29-.28-.58-.56-.88-.86-3.48-3.49-8.02-9.29-9.73-17.33-.13-.6-.23-1.19-.32-1.78-.07-.46-.13-.91-.18-1.36-.14-1.36-.19-2.67-.16-3.94a41 41 0 0 0 5.31 5.11 4366 4366 0 0 0 116.04 9.75v21.7c.85.06 1.7.13 2.55.19m756.54-32.53c-1.37 8.39-5.57 14.67-9.01 18.61-.24.27-.47.53-.7.78-.18.2-.36.39-.53.57-.12.13-.23.24-.34.35-.28.29-.55.56-.8.81-.14.12-.27.25-.39.36s-.23.22-.34.32c-.18.16-.34.31-.49.45-.1.09-.2.17-.29.25-15.63 1.55-31.5 3.04-47.6 4.46l-12.12 1.05c-8.12.69-16.28 1.36-24.51 2.02-3.77.3-7.56.59-11.36.88v-22.96c29.81-2.35 58.87-4.95 87.15-7.75 2.89-2.55 10.91-10.3 12.89-22.51.17-1.06.29-2.09.35-3.09l.54-.06c.55-.07 1.09-.13 1.62-.2.11.16.23.34.35.54.07.1.14.21.2.32.15.21.29.44.44.69s.03.04.04.06c.12.21.25.42.38.65s.04.07.06.1a40.4 40.4 0 0 1 2.62 5.56c.16.44.33.91.49 1.38 1.45 4.4 2.38 9.99 1.35 16.36" class="cls-5har3"/><path d="M962.34 1376.61c-1.41 4.96-3.02 9.8-4.86 14.48-.74 1.86-1.5 3.71-2.28 5.53-.67 1.55-1.36 3.06-2.07 4.57-2.37 4.99-4.97 9.81-7.8 14.42h-.02c-24.45 39.96-65.26 65.04-108.26 65.04-5.71 0-11.48-.44-17.24-1.36-42.19-6.67-78.55-37.76-97.1-80.74h-.02c-3.53-8.2-6.42-16.82-8.57-25.78-.37-1.51-.72-3.04-1.04-4.59a10 10 0 0 1-.12-3.61v-.02c.6-4.2 3.76-7.76 8.15-8.69 5.63-1.19 11.16 2.4 12.33 8.03.81 3.85 1.76 7.63 2.89 11.34 2.72 9.17 6.35 17.86 10.72 25.94 16.74 30.83 44.48 52.56 76 57.55 37.05 5.85 73.98-12.05 97.93-44.23 5.51-7.39 10.32-15.53 14.28-24.3 2.67-5.9 4.97-12.08 6.84-18.53.07-.25.15-.5.22-.76.1-.37.24-.72.37-1.08.18-.49.42-.94.67-1.38 2.34-3.98 7.14-6.03 11.8-4.72 1.29.37 2.47.97 3.48 1.76 2.23 1.7 3.7 4.25 4.02 7.02.17 1.33.07 2.71-.32 4.07Zm-107.92-803.6c-1.09 6.75-2.59 13.32-4.47 19.69-.64 2.2-1.33 4.37-2.07 6.5-18.77 54.69-65.92 92.47-118.63 92.47-1.48 0-2.96-.03-4.45-.1-52.16-2.1-99.96-41.45-118.93-97.91-.84-2.54-.66-5.18.34-7.46a10.4 10.4 0 0 1 6.22-5.73c5.46-1.83 11.36 1.11 13.19 6.55 16.23 48.34 56.42 82 100.03 83.76 52.07 2.08 98.62-41.35 108.23-101.09.22-1.36.71-2.62 1.39-3.73.42-.74.96-1.41 1.56-2.02a10.42 10.42 0 0 1 8.97-2.87c2.3.37 4.32 1.48 5.81 3.04 2.22 2.27 3.36 5.53 2.81 8.89Z" class="cls-5har8"/><path d="M646.79 512.36c-23.09 0-45.91-19.76-56.95-49.42-1.58-4.25.58-8.97 4.83-10.56 4.25-1.58 8.97.58 10.56 4.83 8.72 23.43 25.58 39 41.96 38.73 19.29-.32 34.5-22.79 35.36-52.28.13-4.53 3.91-8.1 8.44-7.96 4.53.13 8.1 3.91 7.96 8.44-1.13 38.42-23.27 67.75-51.5 68.21h-.66Z" class="cls-5har4"/><path d="M740.21 496.46h-.34c-23.31-.19-46.01-20.6-56.5-50.8-1.49-4.28.78-8.96 5.06-10.45s8.96.78 10.45 5.06c8.22 23.65 24.75 39.63 41.13 39.77 19.3.19 34.96-21.93 36.46-51.37.23-4.53 4.09-8.01 8.62-7.78s8.01 4.09 7.78 8.62c-1.95 38.24-24.56 66.95-52.65 66.95Z" class="cls-5har4"/><path d="M834.42 486.38c-1.11 0-2.22-.04-3.34-.14-23.21-1.89-44.52-23.89-53.03-54.74-1.2-4.37 1.36-8.89 5.73-10.09a8.197 8.197 0 0 1 10.09 5.73c6.68 24.23 22.17 41.41 38.54 42.75 19.19 1.57 36.22-19.29 39.62-48.51.52-4.5 4.59-7.73 9.1-7.21 4.5.52 7.73 4.6 7.21 9.1-4.26 36.69-27.13 63.11-53.92 63.11" class="cls-5har4"/><path d="M928.63 477.72c-1.11 0-2.22-.04-3.34-.14-23.21-1.89-44.52-23.89-53.03-54.74-1.2-4.37 1.36-8.89 5.73-10.09a8.197 8.197 0 0 1 10.09 5.73c6.68 24.23 22.17 41.41 38.54 42.75 19.2 1.57 36.22-19.29 39.62-48.51.52-4.5 4.59-7.73 9.1-7.21 4.5.52 7.73 4.6 7.21 9.1-4.26 36.69-27.13 63.11-53.92 63.11" class="cls-5har4"/><path d="M1022.53 473.21c-1.5 0-3.01-.08-4.53-.25-23.14-2.58-43.86-25.18-51.56-56.26a8.205 8.205 0 0 1 5.99-9.94 8.205 8.205 0 0 1 9.94 5.99c6.05 24.43 21.1 42.07 37.44 43.89 19.14 2.13 36.69-18.2 40.84-47.29a8.203 8.203 0 0 1 9.28-6.97c4.49.64 7.61 4.8 6.97 9.28-5.14 36.02-28.07 61.54-54.37 61.54Z" class="cls-5har4"/><path d="M1115.85 472.55c-2.55 0-5.12-.24-7.7-.73-22.87-4.38-41.94-28.52-47.46-60.07-.78-4.46 2.2-8.72 6.67-9.5s8.72 2.2 9.5 6.67c4.35 24.88 18.17 43.68 34.38 46.78 18.9 3.62 37.78-15.25 43.92-43.88.95-4.43 5.32-7.25 9.75-6.31 4.43.95 7.26 5.31 6.31 9.75-7.31 34.11-30.32 57.3-55.36 57.3Z" class="cls-5har4"/><path d="M1209.15 475.88c-3.22 0-6.45-.38-9.69-1.17-22.63-5.51-40.6-30.55-44.73-62.32a8.217 8.217 0 0 1 7.08-9.2c4.5-.58 8.61 2.59 9.2 7.08 3.26 25.09 16.25 44.57 32.33 48.49 18.71 4.55 38.38-13.33 45.76-41.6 1.14-4.39 5.63-7.01 10.01-5.87a8.215 8.215 0 0 1 5.87 10.02c-8.57 32.83-31.55 54.57-55.84 54.57Z" class="cls-5har4"/><path d="M1302.61 485.36c-3.76 0-7.54-.52-11.29-1.59-22.4-6.41-39.46-32.14-42.45-64.04-.42-4.51 2.89-8.52 7.4-8.94 4.5-.42 8.52 2.89 8.94 7.4 2.37 25.22 14.68 45.23 30.63 49.79 18.52 5.3 38.8-11.76 47.17-39.69 1.3-4.34 5.88-6.81 10.22-5.5 4.34 1.3 6.81 5.88 5.5 10.22-9.52 31.74-32.42 52.35-56.13 52.35Z" class="cls-5har4"/><path d="M1396.46 499.18c-3.76 0-7.54-.52-11.29-1.59-22.4-6.41-39.46-32.14-42.45-64.04-.42-4.51 2.89-8.52 7.4-8.94s8.52 2.89 8.94 7.4c2.37 25.22 14.68 45.23 30.63 49.79 18.52 5.3 38.8-11.76 47.17-39.69 1.3-4.34 5.88-6.81 10.22-5.5 4.34 1.3 6.81 5.88 5.5 10.22-9.52 31.74-32.42 52.35-56.12 52.35" class="cls-5har4"/><path d="M1490.59 512.99c-3.76 0-7.54-.52-11.29-1.59-22.4-6.41-39.46-32.14-42.45-64.04-.42-4.51 2.89-8.52 7.4-8.94s8.52 2.89 8.94 7.4c2.37 25.22 14.68 45.23 30.63 49.79 18.52 5.3 38.8-11.76 47.17-39.69 1.3-4.34 5.88-6.81 10.22-5.5 4.34 1.3 6.81 5.88 5.5 10.22-9.52 31.74-32.42 52.35-56.12 52.35" class="cls-5har4"/><path d="M1083.32 566.6c-2.03 7.44-4.57 14.62-7.54 21.46-.72 1.7-1.49 3.34-2.28 4.99v.02c-22.82 47.82-67.75 78.81-115.52 78.81-5.36 0-10.77-.39-16.18-1.19-39.45-5.85-74.05-33.02-93.91-71.46a160 160 0 0 1-3.95-8.23c-3.53-7.95-6.44-16.3-8.67-25-.45-1.76-.87-3.55-1.28-5.34-.4-1.8-.3-3.58.18-5.23 1.04-3.51 3.92-6.35 7.73-7.19 1.75-.39 3.5-.3 5.09.17 3.56 1.02 6.47 3.9 7.33 7.76 10.99 49.79 47.37 87.54 90.53 93.94 51.55 7.63 102.46-30.62 118.39-88.97.02-.03.02-.08.03-.12.22-.77.52-1.48.89-2.15 2.25-4.13 7.11-6.32 11.85-5.02 1.7.47 3.19 1.33 4.39 2.45 2.72 2.54 3.97 6.47 2.92 10.32Z" class="cls-5har8"/><path d="M1309.97 573.65v.02c-.02 1.03-.2 2.08-.57 3.11v.02l-.05.13c-3.16 8.62-6.99 16.79-11.39 24.45-.71 1.24-1.43 2.45-2.18 3.66v.02c-25.2 41.2-67.36 66.59-110.85 66.59-8.44 0-16.94-.96-25.37-2.94-37.67-8.89-69.11-37.42-86.06-75.65v-.02c-1.41-3.18-2.71-6.42-3.92-9.71-2.6-7.17-4.72-14.64-6.3-22.33q-1.11-5.445-1.86-11.04c-.12-.82-.12-1.65-.02-2.44.02-.25.05-.49.08-.74v-.02c.77-4.35 4.27-7.9 8.87-8.5 5.7-.76 10.92 3.24 11.69 8.94 6.75 50.54 39.82 91.22 82.3 101.24 49.25 11.61 101.54-19.93 123.55-73.78.18-.42.35-.84.5-1.28v-.02c.49-1.19.94-2.39 1.39-3.6 1.98-5.39 7.96-8.17 13.36-6.2 1.26.47 2.39 1.16 3.34 2 .37.34.72.69 1.03 1.08 0 0 .02 0 .02.02.37.42.71.89 1.01 1.38v.02c.97 1.68 1.5 3.6 1.43 5.6Z" class="cls-5har8"/><path d="M1535.48 597.66c-20.89 57.7-71.68 95.19-124.47 95.19-8.32 0-16.69-.94-24.99-2.86-40.81-9.46-74.39-41.97-90.25-84.94v-.02c-1.33-3.61-2.54-7.29-3.61-11.04a158 158 0 0 1-4.27-19.34q-.255-1.515-.45-3.06c-.12-.89-.13-1.76-.02-2.62.52-4.6 4.1-8.43 8.91-9.11 4.3-.59 8.35 1.55 10.4 5.07.32.52.59 1.09.79 1.7 0 0 .02 0 .02.02.25.67.42 1.38.52 2.12.37 2.69.82 5.36 1.34 8v.02c9.17 46.75 41.08 83.58 81.33 92.92 50.78 11.78 104.6-22.25 125.18-79.12 1.95-5.41 7.91-8.2 13.32-6.25 1.29.47 2.42 1.16 3.39 2.03a10.4 10.4 0 0 1 2.86 11.29" class="cls-5har8"/><path d="M852.48 559.27c-.27 1.63-.55 3.24-.87 4.86a154 154 0 0 1-7.68 26.85c-19.96 51.7-65.68 86.95-116.61 86.95-1.48 0-2.96-.03-4.45-.08-50.21-2.02-96.36-38.56-116.66-91.64a10.4 10.4 0 0 1 6.22-5.73c5.46-1.83 11.36 1.11 13.19 6.55 16.23 48.34 56.42 82 100.03 83.76 52.07 2.08 98.62-41.35 108.23-101.09.22-1.36.71-2.62 1.39-3.73-.45-1.76-.87-3.55-1.28-5.34-.4-1.8-.3-3.58.18-5.23q-.435-1.59-.84-3.21c2.12-3.5 6.23-5.55 10.54-4.86 1.13.19 2.17.54 3.13 1.04 3.88 2 6.22 6.33 5.49 10.89Z" class="cls-5har3"/><path d="M1081.37 552.87c-.32 1.14-.64 2.29-.97 3.41a159 159 0 0 1-10.82 27.06c-23.37 45.52-67.11 74.79-113.54 74.79-5.38 0-10.77-.39-16.18-1.19-36.93-5.46-69.6-29.62-89.91-64.22a154.4 154.4 0 0 1-13.12-28.75c-.96-2.81-1.85-5.66-2.65-8.55q-.435-1.59-.84-3.21c2.12-3.5 6.23-5.55 10.54-4.86 1.13.19 2.17.54 3.13 1.04 3.56 1.02 6.47 3.9 7.33 7.76 10.99 49.79 47.37 87.54 90.53 93.94 51.55 7.63 102.46-30.62 118.39-88.97.02-.03.02-.08.03-.12q-1.11-5.445-1.86-11.04c-.12-.82-.12-1.65-.02-2.44-.03-.1-.05-.19-.07-.27v-.02c.05-.17.1-.3.15-.45v-.02c1.75-5.18 7.26-8.15 12.6-6.69 5.54 1.51 8.8 7.24 7.29 12.79Z" class="cls-5har3"/><path d="M1306.73 564.95c-.07.22-.15.42-.24.62-3.5 9.12-7.75 17.73-12.65 25.73-.55.91-1.11 1.81-1.68 2.71-25.39 39.6-66.66 63.9-109.17 63.9-8.45 0-16.94-.96-25.37-2.94-34.76-8.2-64.19-33.1-81.85-66.91-1.49-2.86-2.91-5.76-4.22-8.74-2.91-6.55-5.38-13.39-7.39-20.47-1.06-3.71-1.98-7.49-2.77-11.32-.03-.1-.05-.19-.07-.27v-.02c.05-.17.1-.3.15-.45v-.02c.77-4.35 4.27-7.9 8.87-8.5 5.7-.76 10.92 3.24 11.69 8.94 6.75 50.54 39.82 91.22 82.3 101.24 49.25 11.61 101.54-19.93 123.55-73.78q-.255-1.515-.45-3.06c-.12-.89-.13-1.76-.02-2.62.52-4.6 4.1-8.43 8.91-9.11 4.3-.59 8.35 1.55 10.4 5.07Zm.72-1.93c-.52-2.62-.96-5.29-1.33-7.98a10 10 0 0 0-.54-2.12c2.3 2.72 3.13 6.52 1.87 10.1" class="cls-5har3"/><path d="M1532.63 586.37c-21.41 56.31-71.51 92.73-123.57 92.73-8.32 0-16.67-.92-24.97-2.86-37.55-8.7-68.99-36.93-86.13-74.87-1.48-3.29-2.86-6.65-4.12-10.08-2.15-5.8-3.97-11.78-5.44-17.91v-.02c-.34-1.46-.67-2.91-.97-4.39.52-4.6 4.1-8.43 8.91-9.11 4.3-.59 8.35 1.55 10.4 5.07.24-.59.45-1.18.67-1.76.02-.05.03-.12.05-.17.34 1.7.69 3.36 1.09 5.02v.02c.44 1.88.91 3.75 1.43 5.6v.02c-.02 1.03-.2 2.08-.57 3.11v.02c9.17 46.75 41.08 83.58 81.33 92.92 50.78 11.78 104.6-22.25 125.18-79.12 1.95-5.41 7.91-8.2 13.32-6.25 1.29.47 2.42 1.16 3.39 2.03" class="cls-5har3"/><path d="M1191.6 1376.61a152 152 0 0 1-4.2 12.7c-.17.5-.37 1.01-.57 1.51-.34.91-.69 1.8-1.06 2.69-3.31 8.08-7.24 15.74-11.69 22.92-24.52 39.48-65.06 64.22-107.76 64.22-5.73 0-11.49-.44-17.26-1.36-36.14-5.72-68.03-29.37-88.09-63.1-2.86-4.8-5.48-9.81-7.83-15-1.55-3.4-3-6.87-4.29-10.42-.07-.13-.12-.29-.17-.44-2.2-6.01-4.06-12.21-5.54-18.6h-.02c-.15-.62-.28-1.24-.42-1.88-.13-.55-.25-1.11-.37-1.66-.25-1.23-.28-2.46-.1-3.61.07-.48.17-.95.3-1.4h20c.07.23.13.48.18.72.62 2.96 1.33 5.87 2.14 8.72 1.81 6.59 4.08 12.91 6.77 18.96 4.07 9.2 9.07 17.72 14.85 25.42h.02c16.75 22.35 40.02 37.65 65.83 41.74 36.01 5.68 71.9-11.06 95.86-41.56 6.07-7.69 11.36-16.26 15.7-25.57 2.85-6.12 5.29-12.53 7.27-19.24.15-.49.29-.96.42-1.44 1.31-4.62 5.55-7.63 10.13-7.58.91.02 1.82.15 2.73.4 1.29.37 2.47.98 3.47 1.75 1.95 1.48 3.31 3.63 3.85 6 .12.5.19 1.02.22 1.56.08 1.16-.03 2.35-.37 3.55" class="cls-5har8"/><path d="M1431.68 1364.36a156.7 156.7 0 0 1-9.09 33.75c-20.11 51.03-65.43 85.81-116.02 85.81-1.21 0-2.44-.03-3.65-.07-42.73-1.41-82.7-27.83-106.41-68.27h-.02c-4.08-6.96-7.68-14.33-10.72-22.08-.35-.86-.69-1.73-1.01-2.6-.5-1.36-1.01-2.74-1.48-4.12-.79-2.3-.72-4.69.02-6.82 1.02-2.91 3.31-5.33 6.44-6.4.74-.25 1.49-.42 2.23-.5 4.74-.52 9.38 2.27 10.99 6.96 1.18 3.39 2.45 6.74 3.87 9.98 3.8 8.81 8.4 17.02 13.69 24.53 20.42 29 50.9 47.47 83.09 48.53 39.69 1.31 75.98-23.81 95.05-62.3h.02c4.07-8.22 7.36-17.04 9.73-26.35 1.09-4.3 2-8.7 2.69-13.21.87-5.68 6.18-9.58 11.86-8.7 1.98.3 3.75 1.14 5.16 2.35 2.67 2.25 4.13 5.8 3.56 9.51" class="cls-5har8"/><path d="M956.39 1372.31c-1.78 5.02-3.8 9.88-6.02 14.59-.55 1.16-1.11 2.28-1.7 3.43v.02c-.07.15-.13.3-.22.44-4.44 8.74-9.61 16.87-15.41 24.31-24.8 31.86-60.93 51.26-98.75 51.26-5.71 0-11.48-.45-17.24-1.36-37.15-5.88-69.82-30.72-89.74-65.93a154.7 154.7 0 0 1-14.35-34.48v-.02c-.99-3.51-1.88-7.06-2.64-10.67-.18-.86-.25-1.71-.2-2.55 7.12.94 14.32 1.85 21.59 2.74 1.81 7.46 4.2 14.62 7.11 21.44-.84-.08-1.66-.18-2.49-.27 2.72 9.17 6.35 17.86 10.72 25.94 16.74 30.83 44.48 52.56 76 57.55 37.05 5.85 73.98-12.05 97.93-44.23 5.51-7.39 10.32-15.53 14.28-24.3-3.36-.13-6.7-.29-10.03-.44 3.5-5.8 6.6-11.95 9.26-18.43 2.52.12 5.06.23 7.61.34.34.02.67.03 1.01.05h.02c.44.02.86.03 1.31.05 3.97.18 7.95.35 11.95.52" class="cls-5har3"/><path d="M1185.85 1371.75c-.89 2.54-1.83 5.02-2.84 7.48-1.68 4.08-3.51 8.07-5.49 11.93a151 151 0 0 1-16.58 25.68h-.02c-24.75 30.83-60.24 49.52-97.36 49.52-5.73 0-11.48-.45-17.26-1.36-30.7-4.86-58.34-22.65-78.25-48.56a150 150 0 0 1-12.85-19.81c-1.01-1.86-2-3.78-2.94-5.71-.64-1.33-1.28-2.65-1.88-4.02-2.22-4.87-4.2-9.91-5.93-15.11 3.97.18 7.95.35 11.95.52q3.12.105 6.27.24c.72.03 1.44.05 2.18.08.69.02 1.39.05 2.08.07 2.67 6.69 5.81 13.04 9.41 19.02-1.58-.05-3.14-.08-4.72-.13 4.07 9.21 9.07 17.73 14.85 25.42h.02c16.75 22.35 40.02 37.65 65.83 41.74 36.01 5.68 71.9-11.06 95.86-41.55 6.07-7.7 11.36-16.27 15.69-25.57-3.56.12-7.14.22-10.72.32 3.8-6.02 7.16-12.45 10.03-19.26 2.65-.08 5.31-.18 7.96-.3 3.09-.12 6.17-.24 9.22-.37 1.83-.07 3.66-.15 5.48-.25Z" class="cls-5har3"/><path d="M1428.9 1350.13c-.24 1.58-.5 3.16-.79 4.72-1.13 6.1-2.6 12.05-4.37 17.81-2.89 9.36-6.59 18.25-11.02 26.58-22.52 42.48-63.6 70.37-108.92 70.37-1.21 0-2.42-.02-3.65-.05-37.57-1.24-73.01-21.81-97.14-54.24a155.6 155.6 0 0 1-14.92-24.55c-.24-.49-.47-.97-.71-1.46-1.44-3.04-2.82-6.17-4.1-9.34-.08-.25-.19-.49-.29-.74-.87-2.22-1.7-4.47-2.49-6.74-.05-.17-.1-.32-.15-.49 1.83-.07 3.66-.15 5.48-.25 1.97-.07 3.93-.15 5.9-.25 3.48-.15 6.96-.32 10.4-.5 2.55 6.59 5.56 12.87 8.97 18.8-1.43.07-2.86.13-4.3.2 3.8 8.81 8.4 17.02 13.69 24.53 20.42 29 50.9 47.47 83.09 48.53 39.69 1.31 75.98-23.81 95.05-62.3h.02c4.07-8.22 7.36-17.04 9.73-26.35-2.52.27-5.02.54-7.56.81a137 137 0 0 0 6.44-22.28c7.28-.91 14.48-1.85 21.63-2.81Z" class="cls-5har3"/><path d="m750.52 841.3-2.55-.18c.85.05 1.7.12 2.55.18m66.52 521.88h-2.92c-5.12 0-10.11-.58-14.9-1.68q8.85.87 17.82 1.68m538.78-4.26c-7.27 2.76-15.15 4.26-23.39 4.26h-19.64c14.57-1.32 28.92-2.75 43.03-4.26m30.41-518.3c-1.7.13-3.41.26-5.12.38-.76.05-1.52.11-2.28.16.76-.06 1.52-.11 2.28-.17 1.71-.13 3.42-.25 5.12-.37m12.35-.94c-2.41.2-4.82.38-7.24.56 2.42-.19 4.83-.37 7.24-.56" style="fill:#fff"/></svg>