<svg xmlns="http://www.w3.org/2000/svg" viewBox="0 0 2000 2000" width="300" height="300" fill="none"><defs><style>.cls-1br1{fill:#fff}.cls-1br3{fill:#00a378}.cls-1br4{fill:#f4c916}.cls-1br7{fill:#cc00a6}.cls-1br8{fill:#006300}.cls-1br9{fill:#cc7e00}.cls-1br12{fill:#f40bb8}.cls-1br13{fill:#005c9b}.cls-1br16{fill:#a50082}</style></defs><path d="M1494.5 1757.51H599.65c-81.36 0-147.55-66.19-147.55-147.55V247.63c0-81.36 66.19-147.55 147.55-147.55h894.85c81.36 0 147.55 66.19 147.55 147.55v1362.33c0 81.36-66.19 147.55-147.55 147.55M599.65 108c-76.99 0-139.63 62.64-139.63 139.63v1362.33c0 76.99 62.64 139.63 139.63 139.63h894.85c76.99 0 139.63-62.64 139.63-139.63V247.63c0-76.99-62.64-139.63-139.63-139.63z" class="cls-1br13"/><path d="M1420.74 1718.01H512.25c-85.08 0-154.3-69.22-154.3-154.3V194.16c0-85.08 69.22-154.3 154.3-154.3h908.49c85.08 0 154.3 69.22 154.3 154.3v1369.56c0 85.08-69.22 154.3-154.3 154.3ZM512.24 58.38c-74.87 0-135.78 60.91-135.78 135.78v1369.56c0 74.87 60.91 135.78 135.78 135.78h908.49c74.87 0 135.78-60.91 135.78-135.78V194.16c0-74.87-60.91-135.78-135.78-135.78z" class="cls-1br4"/><path d="M1434.46 1737.44H559.95c-88.03 0-159.64-71.61-159.64-159.64V234.89c0-88.03 71.61-159.64 159.64-159.64h874.51c88.03 0 159.64 71.61 159.64 159.64v1342.92c0 88.03-71.61 159.64-159.64 159.64ZM559.95 112.6c-67.43 0-122.29 54.86-122.29 122.29v1342.92c0 67.43 54.86 122.29 122.29 122.29h874.51c67.43 0 122.29-54.86 122.29-122.29V234.89c0-67.43-54.86-122.29-122.29-122.29z" class="cls-1br16"/><path d="M774.95 1556.21c-12.95-4.95-66.86-24.5-134.02-20.86 8.06 2.75 21.19 8.58 32.56 21.04 4.04 4.43 7.1 8.86 9.42 12.86-11.38-7.84-28.57-17.61-51.14-23.51a160.6 160.6 0 0 0-32.86-5.04c-22.11 4.5-44.95 11.95-67.71 23.48 5.86-.45 14.6-.44 24.7 2.24 8.28 2.2 14.78 5.47 19.31 8.21-8.43-1.65-18.94-3-31.03-2.95-12.85.05-23.93 1.66-32.68 3.55-44.42 27.46-71.74 62.29-86.51 84.5 49.83-13.98 118.86-26.07 199.6-17.92 25.13 2.54 48.29 6.72 69.29 11.75 13.04-3.01 31.65-5.8 53.87-4.17 26.93 1.98 48.09 9.63 61.49 15.72-15.2-1.55-32.25-2.28-50.81-1.44-7.88.36-15.43.98-22.61 1.78 42.28 14.47 97.6 38.58 155.09 79.64a600.4 600.4 0 0 1 90.37 79.37c-1.53-9.43-36.16-203.22-206.34-268.25Z" style="fill:#007e00"/><path d="M880.28 1673.17c-113.73-93.71-292.61-98.41-454.8-14.19-.05.21-.08.42-.11.64 49.8-13.93 118.68-25.94 199.21-17.82 25.13 2.54 48.29 6.72 69.29 11.75 13.04-3.01 31.65-5.8 53.87-4.17 26.93 1.98 48.09 9.63 61.49 15.72-15.2-1.55-32.25-2.28-50.81-1.44-7.88.36-15.43.98-22.61 1.78 42.28 14.47 97.6 38.58 155.09 79.64a600.4 600.4 0 0 1 90.37 79.37c-14.94-44.31-43.82-104.17-101-151.29Zm-139.98-79.22c.54-.39-6.48-8.12-15.56-16.87a346 346 0 0 0-14.33-13.06c3.3.75 7.74 2.08 12.39 4.55 3.2 1.7 5.7 3.52 7.57 5.1-2.48-3.52-6.21-8.16-11.58-13.04-14.75-13.42-32.06-19.11-31.76-18.95 4.41 2.24 9.91 5.62 15.06 10.62 2.4 2.33 4.31 4.62 5.84 6.72-2.67-.71-5.35-1.41-8.02-2.12-4.64-1.23-9.28-2.45-13.92-3.68 3.58 1.47 7.88 3.59 12.27 6.63 6.5 4.49 10.69 9.26 13.29 12.81-1.62-.69-3.51-1.37-5.65-1.96-4.61-1.26-8.8-1.65-12.02-1.72 6.84 1.89 15.62 4.93 24.92 9.9 13.42 7.17 20.84 15.53 21.49 15.06Z" class="cls-1br8"/><path d="M643.91 1591.12c.46-.47-7.75-6.93-18.15-14.03-6.69-4.57-12.41-8.13-16.31-10.49 3.38.19 7.98.76 12.97 2.42 3.44 1.14 6.21 2.52 8.32 3.76-3.04-3.05-7.49-7.01-13.59-10.93-16.78-10.77-34.8-13.49-34.47-13.39 4.72 1.47 10.71 3.89 16.62 7.96 2.75 1.9 5.02 3.83 6.88 5.65l-8.26-.75c-4.78-.43-9.56-.87-14.34-1.3 3.78.86 8.37 2.23 13.2 4.49 7.16 3.34 12.09 7.35 15.24 10.41-1.72-.41-3.69-.76-5.9-.99-4.75-.48-8.95-.16-12.14.31 7.06.73 16.22 2.26 26.23 5.6 14.43 4.83 23.14 11.83 23.7 11.26Z" class="cls-1br8"/><path d="M1203.84 1556.21c12.95-4.95 66.86-24.5 134.02-20.86-8.06 2.75-21.19 8.58-32.56 21.04-4.04 4.43-7.1 8.86-9.42 12.86 11.38-7.84 28.57-17.61 51.14-23.51a160.6 160.6 0 0 1 32.86-5.04c22.11 4.5 44.95 11.95 67.71 23.48-5.86-.45-14.6-.44-24.7 2.24a74 74 0 0 0-19.31 8.21c8.43-1.65 18.94-3 31.03-2.95 12.85.05 23.93 1.66 32.68 3.55 44.42 27.46 71.74 62.29 86.51 84.5-49.83-13.98-118.86-26.07-199.6-17.92a523 523 0 0 0-69.29 11.75c-13.04-3.01-31.65-5.8-53.87-4.17-26.93 1.98-48.09 9.63-61.49 15.72 15.2-1.55 32.25-2.28 50.81-1.44 7.88.36 15.43.98 22.61 1.78-42.28 14.47-97.6 38.58-155.09 79.64a600.4 600.4 0 0 0-90.37 79.37c1.53-9.43 36.16-203.22 206.34-268.25Z" style="fill:#09c699"/><path d="M1098.51 1673.17c113.73-93.71 292.61-98.41 454.8-14.19.05.21.08.42.11.64-49.8-13.93-118.68-25.94-199.21-17.82a523 523 0 0 0-69.29 11.75c-13.04-3.01-31.65-5.8-53.87-4.17-26.93 1.98-48.09 9.63-61.49 15.72 15.2-1.55 32.25-2.28 50.81-1.44 7.88.36 15.43.98 22.61 1.78-42.28 14.47-97.6 38.58-155.09 79.64a600.4 600.4 0 0 0-90.37 79.37c14.94-44.31 43.82-104.17 101-151.29Zm139.98-79.22c-.54-.39 6.48-8.12 15.56-16.87 5.83-5.62 10.88-10.09 14.33-13.06-3.3.75-7.74 2.08-12.39 4.55-3.2 1.7-5.7 3.52-7.57 5.1 2.48-3.52 6.21-8.16 11.58-13.04 14.75-13.42 32.06-19.11 31.76-18.95-4.41 2.24-9.91 5.62-15.06 10.62-2.4 2.33-4.31 4.62-5.84 6.72 2.67-.71 5.35-1.41 8.02-2.12 4.64-1.23 9.28-2.45 13.92-3.68-3.58 1.47-7.88 3.59-12.27 6.63-6.5 4.49-10.69 9.26-13.29 12.81 1.62-.69 3.51-1.37 5.65-1.96 4.61-1.26 8.8-1.65 12.02-1.72-6.84 1.89-15.62 4.93-24.92 9.9-13.42 7.17-20.84 15.53-21.49 15.06Z" class="cls-1br3"/><path d="M1334.88 1591.12c-.46-.47 7.75-6.93 18.15-14.03 6.69-4.57 12.41-8.13 16.31-10.49-3.38.19-7.98.76-12.97 2.42a43.2 43.2 0 0 0-8.32 3.76c3.04-3.05 7.49-7.01 13.59-10.93 16.78-10.77 34.8-13.49 34.47-13.39-4.72 1.47-10.71 3.89-16.62 7.96-2.75 1.9-5.02 3.83-6.88 5.65l8.26-.75c4.78-.43 9.56-.87 14.34-1.3-3.78.86-8.37 2.23-13.2 4.49-7.16 3.34-12.09 7.35-15.24 10.41 1.72-.41 3.69-.76 5.9-.99 4.75-.48 8.95-.16 12.14.31-7.06.73-16.22 2.26-26.23 5.6-14.43 4.83-23.14 11.83-23.7 11.26Z" class="cls-1br3"/><path d="M914.77 1264.07c-8.19 50.39-.6 87.56 11.06 131.97 3.37 3.56 6.77 7.47 10.16 11.78 12.29 15.61 20.4 31.34 25.73 43.98-3.69-7.99-15.15-17.21-27.81-25.52 9.9 37.31 20.71 81.53 27.1 141.94 5.6 52.95 5.79 97.54 5.2 125.59 65.3-78.58 82.57-138.67 87.26-176.95 2.8-22.84 1.71-42.74-1.82-61.63-16.36 22.63-37.05 53.59-39.72 68.86 2.33-15.45 6.75-35.75 15.45-58.9a309 309 0 0 1 17.28-37.9c-14.63-47.75-40.91-95.28-53.48-176.62-13.43 19.64-26.54 41.18-28.63 53.12 2.33-15.44 6.75-35.75 15.45-58.9 3.04-8.08 6.27-15.61 9.54-22.55-.11-1.06-.22-2.12-.33-3.2-4.86-49.55-2.78-91.61-.72-116.77-49.48 69.39-65.73 124.88-71.72 161.69Z" class="cls-1br12"/><path d="M986.45 1102.61c-.07.85-.14 1.71-.21 2.6-21.53 52.01-29.96 95.1-33.17 127.71-13.37 135.72 54.05 187.57 44.71 327.4-3.4 50.97-15.8 95.56-27.77 129.05-1.27 1.55-2.54 3.11-3.85 4.68.59-28.05.39-72.63-5.2-125.59-6.39-60.42-17.19-104.64-27.1-141.94 12.66 8.31 24.12 17.53 27.81 25.52-5.33-12.64-13.44-28.37-25.73-43.98-3.39-4.3-6.79-8.21-10.16-11.78-11.66-44.41-19.25-81.58-11.06-131.97 5.99-36.81 22.24-92.3 71.72-161.69Z" class="cls-1br7"/><path d="M995.23 1411.88c-.79.23-2.54-13.73-3.64-30.71-.7-10.92-.93-20.01-1.01-26.17-1.9 4.09-4.14 9.87-5.48 16.85-.92 4.81-1.18 8.97-1.17 12.29-1.36-5.61-2.8-13.48-3.17-23.27-1.02-26.91 7.27-49.89 7.18-49.44-1.37 6.53-2.52 15.18-1.86 24.84.31 4.5.95 8.46 1.73 11.86 1.44-3.4 2.89-6.8 4.33-10.2 2.51-5.9 5.01-11.81 7.52-17.71-1.43 5.01-2.83 11.32-3.43 18.5-.89 10.64.3 19.11 1.6 24.87.63-2.29 1.48-4.84 2.61-7.59 2.44-5.9 5.38-10.61 7.86-14.04-3.61 8.77-7.67 20.56-10.32 34.54-3.83 20.17-1.8 35.09-2.75 35.37Zm1.55 194.01c.71.29 8.75-13.3 17.43-29.9 5.59-10.68 9.87-19.6 12.7-25.64.15 4.17-.11 10.03-1.83 17-1.19 4.8-2.77 8.91-4.26 12.17 3.9-5.4 8.9-13.03 13.64-22.62 13.03-26.37 14.68-49.62 14.58-49.16-1.49 6.52-4.15 15.12-9.13 24.57-2.32 4.4-4.75 8.24-7.07 11.53l.06-10.37c.03-6 .07-12 .1-18a95 95 0 0 1-4.69 18.46c-3.81 10.53-8.82 18.76-12.73 24.32.36-2.3.63-4.88.67-7.66.1-5.99-.85-10.86-1.89-14.43-.17 8.91-1.21 20.82-4.69 34.77-5.02 20.13-13.76 34.63-12.9 34.98Z" class="cls-1br7"/><path d="M1293.89 1381.63c-14.37 55.9-42.8 93.37-80.15 137.43-6.17 2.86-12.57 6.09-19.14 9.74a300 300 0 0 0-55.52 39.73c8.81-7.49 28.38-14.15 49.06-19.51-31.52 36.98-67.65 81.07-106.07 143.62-33.67 54.82-56.12 102.22-69.32 132.24-46.24-101.63-38.91-170.34-25.98-212.39 7.71-25.08 19.04-45.96 33.06-65.1 10.12 28.59 21.75 67.25 17.64 84.23 4.64-17.09 8.98-39.92 9.11-66.95.08-16.89-1.49-32.06-3.72-45.09 42.89-46.8 100.89-90.15 157.82-173.27 7.78 24.61 14.19 51.15 10.99 64.43a260.2 260.2 0 0 0 9.11-66.95c.04-9.44-.43-18.34-1.24-26.63.68-1.1 1.35-2.2 2.02-3.31 31.02-51.41 49.23-96.75 59.07-124.09 30.13 87.49 23.76 151.03 13.26 191.86Z" style="fill:#006cc7"/><path d="M1280.56 1190.03q-.495 1.38-1.02 2.82c2.25 61.29-8.17 109.48-20.21 145.07-50.08 148.14-164.01 184.77-221.41 336.17-20.93 55.19-26.92 106.07-27.94 145.01.88 2 1.78 4.02 2.7 6.04 13.19-30.02 35.64-77.42 69.32-132.24 38.42-62.55 74.56-106.64 106.07-143.62-20.68 5.36-40.25 12.02-49.06 19.51a299.6 299.6 0 0 1 55.52-39.73c6.57-3.65 12.96-6.87 19.14-9.74 37.35-44.06 65.77-81.53 80.15-137.43 10.5-40.83 16.87-104.37-13.26-191.86" class="cls-1br13"/><path d="M1115.13 1516.81c.91.46 10.16-13.92 20.04-31.69a565 565 0 0 0 14.35-27.57c.45 4.88.5 11.65-1.22 19.44a64 64 0 0 1-4.59 13.4c4.56-5.6 10.37-13.58 15.72-23.9 14.72-28.36 15.33-55.11 15.23-54.6-1.46 7.32-4.27 16.85-9.93 26.95a93 93 0 0 1-8.16 12.15c-.19-4.02-.39-8.04-.58-12.05-.34-6.97-.67-13.95-1.01-20.92a90.3 90.3 0 0 1-4.73 20.64c-4.13 11.57-9.9 20.26-14.47 26.03.31-2.61.48-5.56.36-8.79-.25-6.95-1.75-12.78-3.29-17.12.35 10.33-.21 24-3.7 39.61-5.04 22.53-15.12 37.84-14.01 38.4Zm-98.59 206.07c-1.07.11-4.81-16.57-7.91-36.63-1.99-12.9-3.15-23.58-3.83-30.79-2.27 4.4-4.86 10.71-6.07 18.59-.84 5.44-.81 10.25-.49 14.13a132.4 132.4 0 0 1-6.56-27.83c-3.91-31.66 5.51-56.86 5.42-56.34-1.3 7.35-2.1 17.24-.29 28.66.84 5.32 2.11 10.08 3.5 14.21 1.69-3.69 3.39-7.37 5.08-11.06 2.94-6.4 5.88-12.8 8.83-19.19a85.5 85.5 0 0 0-3.06 20.94c-.26 12.26 2.18 22.4 4.53 29.39.67-2.55 1.61-5.36 2.93-8.34 2.85-6.41 6.51-11.33 9.65-14.84-4.21 9.53-8.78 22.49-11.17 38.3-3.46 22.81.75 40.65-.55 40.79Z" class="cls-1br13"/><path d="M769.44 1455.03c11.25 45.09 33.61 75.35 63 110.92 4.86 2.32 9.9 4.93 15.08 7.88 18.77 10.7 33.29 22.43 43.72 32.11-6.93-6.05-22.35-11.45-38.65-15.8 24.8 29.86 53.23 65.46 83.44 115.95 26.47 44.25 44.11 82.5 54.47 106.73 36.61-81.88 30.92-137.3 20.79-171.22-6.04-20.23-14.95-37.09-25.97-52.53-8.02 23.04-17.25 54.19-14.03 67.89-3.63-13.78-7.02-32.2-7.09-53.99-.04-13.62 1.22-25.85 3-36.36-33.76-37.8-79.43-72.83-124.2-139.93-6.17 19.83-11.26 41.22-8.75 51.93a214.7 214.7 0 0 1-7.09-53.99c-.02-7.61.36-14.79 1.02-21.47-.53-.89-1.06-1.77-1.59-2.67a568.7 568.7 0 0 1-46.4-100.14c-23.88 70.5-18.95 121.74-10.73 154.68Z" style="fill:#f29f0c"/><path d="M780.23 1300.56c.26.74.53 1.5.8 2.28-1.86 49.42 6.29 88.29 15.73 117 39.28 119.52 129.06 149.21 174.11 271.37 16.42 44.53 21.07 85.56 21.82 116.96-.7 1.61-1.41 3.24-2.14 4.87-10.36-24.22-27.99-62.48-54.47-106.73-30.21-50.49-58.64-86.09-83.44-115.95 16.3 4.35 31.72 9.75 38.65 15.8-10.43-9.68-24.95-21.41-43.72-32.11-5.17-2.95-10.21-5.56-15.08-7.88-29.39-35.58-51.75-65.83-63-110.92-8.22-32.94-13.15-84.18 10.73-154.68Z" class="cls-1br9"/><path d="M891.25 1605.95c.32.28.63.57.93.86-.29-.29-.6-.58-.93-.86" class="cls-1br1"/><path d="M910.21 1564.27c-.72.37-7.99-11.24-15.76-25.58-4.99-9.22-8.78-16.98-11.28-22.25-.36 3.93-.41 9.39.94 15.68.93 4.33 2.29 7.97 3.6 10.81-3.59-4.52-8.16-10.96-12.36-19.29-11.57-22.89-12.01-44.46-11.93-44.04a75.1 75.1 0 0 0 7.79 21.75 73 73 0 0 0 6.42 9.81l.48-9.72c.28-5.62.55-11.25.83-16.87a74 74 0 0 0 3.7 16.65 74.4 74.4 0 0 0 11.37 21.01c-.24-2.1-.37-4.48-.27-7.09.21-5.61 1.4-10.3 2.62-13.8-.29 8.33.13 19.35 2.86 31.95 3.94 18.17 11.87 30.53 10.99 30.98m77.45 166.3c.85.09 3.82-13.35 6.29-29.52 1.59-10.4 2.52-19.01 3.07-24.82 1.78 3.55 3.81 8.64 4.76 15 .65 4.38.62 8.27.36 11.39a109 109 0 0 0 5.22-22.43c3.13-25.52-4.26-45.85-4.19-45.44 1.02 5.93 1.63 13.9.19 23.11-.67 4.29-1.68 8.13-2.78 11.46-1.33-2.97-2.66-5.95-3.99-8.92-2.31-5.16-4.62-10.33-6.93-15.49 1.2 4.49 2.26 10.21 2.38 16.89a71.4 71.4 0 0 1-3.61 23.69c-.52-2.05-1.26-4.33-2.3-6.73-2.24-5.17-5.12-9.14-7.59-11.98 3.31 7.69 6.89 18.15 8.76 30.9 2.7 18.4-.65 32.78.38 32.89Z" class="cls-1br9"/><path d="M1460.61 1682.41c-4.75 2.4-10.51 5.17-17.2 8.08-7.31 3.2-15.72 6.57-25.16 9.86a.3.3 0 0 0-.1.04c-3.9 1.36-7.96 2.7-12.2 4.01-94.77 29.26-158.59 6.04-233.15 14.91-43.82 5.22-102.75 22.87-168.18 77.99-65.43-55.12-124.36-72.77-168.18-77.99-74.57-8.88-138.39 14.35-233.16-14.91-4.23-1.31-8.3-2.65-12.2-4.01-.04-.01-.07-.03-.11-.04-8.96-3.13-17.01-6.35-24.07-9.39-7.14-3.09-13.25-6.02-18.27-8.55-13.8 112.15 48.33 215.03 148.95 254.03 19.51 7.56 39.54 12.37 59.44 15.1 18.71 2.58 37.3 3.33 55.21 2.81 57.59-1.65 108.18-16.3 133.39-24.92.02 0 .04-.01.06-.02 7.74-2.64 13.08-4.72 15.48-5.68a358 358 0 0 0 22.2-9.72c13.13-6.31 29.38-6.31 42.51 0 6.67 3.2 14.09 6.5 22.2 9.72 2.4.96 7.74 3.04 15.48 5.68.01 0 .04.01.06.02 25.2 8.62 75.8 23.27 133.39 24.92 17.91.51 36.51-.23 55.23-2.81 19.89-2.74 39.92-7.54 59.43-15.1 100.62-39 162.75-141.88 148.96-254.03Zm-186.79 112.07c-.3.95-.62 1.91-.96 2.9a185 185 0 0 1 29.75 10.52c-5.46 14.16-16.23 33.33-38.09 48.14-27.55 18.66-65.62 25.58-105.62 20.67-21.62-1.07-44.28-6.93-66.23-17.59-3.65-1.78-7.28-3.68-10.88-5.72.13-.2.28-.43.46-.7.54-.83 1.32-1.99 2.32-3.4-.93-.5-1.85-1.01-2.78-1.54 4.85-7.51 44.13-66.29 114.72-70.97 14.59-.96 27.87.56 39.38 3.2 16.89 3.87 30 10.14 37.94 14.49Zm-537.44 2.9c-.33-.99-.65-1.95-.96-2.9 8.54-4.67 23.02-11.56 41.75-15.3h.02c10.6-2.12 22.56-3.24 35.57-2.38 70.58 4.68 109.87 63.46 114.71 70.97-.93.52-1.85 1.04-2.78 1.54a128 128 0 0 1 2.78 4.11c-3.6 2.04-7.22 3.94-10.88 5.71-21.95 10.66-44.61 16.52-66.23 17.6-39.99 4.91-78.07-2.01-105.63-20.67-21.86-14.81-32.64-33.98-38.09-48.14 6.77-3.07 16.92-7.17 29.75-10.52Z" class="cls-1br12"/><path d="M1443.41 1690.48c-7.31 3.2-15.72 6.57-25.16 9.86a.3.3 0 0 0-.1.04c-3.9 1.36-7.96 2.7-12.2 4.01-94.77 29.26-158.59 6.04-233.15 14.91-43.82 5.22-102.75 22.87-168.18 77.99-65.43-55.12-124.36-72.77-168.18-77.99-74.57-8.88-138.39 14.35-233.16-14.91-4.23-1.31-8.3-2.65-12.2-4.01-.04-.01-.07-.03-.11-.04-8.96-3.13-17.01-6.35-24.07-9.39-8.21 107.82 50.58 205.28 143.89 243 18.7 7.56 37.91 12.37 56.99 15.1 17.94 2.58 35.76 3.33 52.94 2.81 55.22-1.65 103.73-16.3 127.9-24.92.02 0 .04-.01.05-.02 7.42-2.64 12.54-4.72 14.84-5.68 7.78-3.22 14.88-6.53 21.28-9.72 12.59-6.31 28.17-6.31 40.76 0 6.4 3.2 13.5 6.5 21.28 9.72 2.3.96 7.42 3.04 14.84 5.68.01 0 .04.01.06.02 24.17 8.62 72.67 23.27 127.89 24.92 17.17.51 35-.23 52.95-2.81 19.07-2.74 38.28-7.54 56.98-15.1 93.44-37.78 152.26-135.46 143.86-243.47M931.2 1850.92c-1.28.75-2.57 1.49-3.85 2.21-.01 0-.02.01-.04.02 0 0-.02 0-.03.01.07.08.13.15.19.23-26.16 14.98-54.53 22.4-81.55 21.94-34.14 2.31-66.12-4.97-89.93-21.78-20.96-14.81-31.3-33.98-36.53-48.14 5.49-2.59 13.28-5.93 22.99-8.91 1.66-.8 3.42-1.61 5.28-2.41-.22-.71-.44-1.41-.65-2.1 6.6-3.78 16.93-8.99 30.1-12.83h.02c12.39-3.61 27.3-6.01 44.02-4.86 23.91 1.65 44.09 10.07 60.37 20.58 29.8 19.24 46.62 45.53 49.62 50.39-.89.52-1.78 1.04-2.66 1.54a120 120 0 0 1 2.66 4.1Zm147.95-5.64c2.75-4.46 17.11-26.91 42.43-45.45 17.41-12.73 40-23.62 67.57-25.52 17.96-1.24 33.83 1.62 46.73 5.67 11.89 3.75 21.26 8.5 27.41 12.01l-.76 2.43c1.02.46 2.02.91 2.98 1.36 10.83 3.16 19.46 6.83 25.38 9.64-5.23 14.16-15.56 33.33-36.52 48.14-23.97 16.93-56.26 24.2-90.7 21.72-27.09.51-55.54-6.91-81.76-21.93.15-.2.31-.39.46-.59-.04-.02-.09-.05-.13-.07 0 0-.01 0-.02-.01-1.02-.57-2.04-1.17-3.06-1.76.5-.81 1.39-2.22 2.66-4.1-.89-.5-1.77-1.01-2.66-1.54Z" style="fill:#dd00ae"/><path d="M1416.56 1663.14a290.5 290.5 0 0 1-49.38 23.99c-85.61 31.94-143.26 6.59-210.62 16.28-39.59 5.7-92.83 24.96-151.94 85.12-59.11-60.15-112.35-79.42-151.93-85.12-67.37-9.69-125.02 15.66-210.63-16.28a291 291 0 0 1-49.37-23.99 334 334 0 0 0-1.71 37.2c.02 1.9.05 3.78.11 5.67 2.88 105.1 56 196.86 136.16 234.4 9.82 4.59 19.78 8.26 29.78 11.12 18.47 5.28 37.09 7.83 55.21 8.45 55.41 1.89 106.12-14.2 133.39-24.92.02 0 .04-.01.06-.02 10.09-3.96 16.96-7.2 19.67-8.5 7.33-3.52 14.02-7.12 20.05-10.62 11.86-6.88 26.54-6.88 38.41 0 6.03 3.49 12.72 7.09 20.06 10.62 2.71 1.3 9.59 4.54 19.67 8.5.01 0 .04.01.06.02 27.28 10.72 77.97 26.81 133.39 24.92 18.12-.62 36.75-3.17 55.23-8.45 10-2.86 19.96-6.52 29.77-11.12 80.16-37.54 133.28-129.3 136.16-234.41.05-1.88.09-3.78.1-5.67.14-12.25-.42-24.67-1.7-37.2Zm-143.7 139.87c-5.2 15.1-14.91 34.47-33.46 49.65-21.44 17.54-49.93 25.58-80.52 24.05-21.62-1.07-44.28-6.93-66.23-17.59-3.65-1.78-7.28-3.68-10.88-5.72.52-.81 1.45-2.22 2.78-4.1 10.93-15.49 48.99-62.7 111.94-66.87 35.99-2.38 63.96 10.37 77.33 17.69-.3.95-.62 1.91-.96 2.9Zm-537.44-2.9c13.37-7.32 41.34-20.07 77.33-17.69 62.95 4.17 101.01 51.38 111.94 66.87 1.33 1.88 2.25 3.29 2.78 4.1-3.6 2.04-7.22 3.94-10.88 5.71-21.95 10.66-44.61 16.52-66.23 17.6-30.58 1.54-59.07-6.5-80.52-24.05-18.54-15.17-28.25-34.54-33.46-49.65-.33-.99-.65-1.95-.96-2.9Z" class="cls-1br4"/><path d="M1417.11 1663.14c-5.98 3.64-13.7 8.05-22.99 12.61v1.75c-.01 1.9-.05 3.79-.09 5.67-2.72 105.11-52.73 196.86-128.22 234.41a181.3 181.3 0 0 1-28.03 11.12c-17.39 5.28-34.94 7.83-52 8.45-52.18 1.89-99.92-14.2-125.6-24.92-.02 0-.04-.01-.06-.02-9.49-3.96-15.97-7.2-18.52-8.5-6.91-3.52-13.21-7.12-18.89-10.62-11.17-6.88-24.99-6.88-36.16 0a280 280 0 0 1-18.88 10.62c-2.56 1.3-9.03 4.54-18.52 8.5-.02 0-.04.01-.06.02-25.68 10.72-73.43 26.81-125.61 24.92-17.06-.62-34.59-3.17-51.99-8.45-9.43-2.86-18.8-6.52-28.04-11.12-75.49-37.54-125.5-129.3-128.22-234.4-.05-1.89-.08-3.78-.1-5.67v-2.32c-8.79-4.36-16.12-8.56-21.86-12.05a334 334 0 0 0-1.71 37.2c.02 1.9.05 3.78.11 5.67 2.88 105.1 56 196.86 136.16 234.4 9.82 4.59 19.78 8.26 29.78 11.12 18.47 5.28 37.09 7.83 55.21 8.45 55.41 1.89 106.12-14.2 133.39-24.92.02 0 .04-.01.06-.02 10.09-3.96 16.96-7.2 19.67-8.5 7.33-3.52 14.02-7.12 20.05-10.62 11.86-6.88 26.54-6.88 38.41 0 6.03 3.49 12.72 7.09 20.06 10.62 2.71 1.3 9.59 4.54 19.67 8.5.01 0 .04.01.06.02 27.28 10.72 77.97 26.81 133.39 24.92 18.12-.62 36.75-3.17 55.23-8.45 10-2.86 19.96-6.52 29.77-11.12 80.16-37.54 133.28-129.3 136.16-234.41.05-1.88.09-3.78.1-5.67.14-12.25-.42-24.67-1.7-37.2Z" style="fill:#e2b700"/><path d="M1416.56 1663.14a290.5 290.5 0 0 1-49.38 23.99c-85.61 31.94-143.26 6.59-210.62 16.28-39.59 5.7-92.83 24.96-151.94 85.12-59.11-60.15-112.35-79.42-151.93-85.12-67.37-9.69-125.02 15.66-210.63-16.28a291 291 0 0 1-49.37-23.99 334 334 0 0 0-1.71 37.2c.01 1.04.03 2.07.05 3.1a294 294 0 0 0 46.87 22.17c90.74 33.49 150.7 3.97 213.05 16.28 40.6 8.02 96.67 36.63 153.48 134.95 57.02-98.38 113.21-126.96 153.86-134.95 62.34-12.25 122.32 17.2 213.04-16.28 19.93-7.36 35.83-15.7 46.88-22.18.02-1.03.04-2.07.04-3.1.14-12.25-.42-24.67-1.7-37.2Z" class="cls-1br16"/><path d="M818.92 1881.78c-68.86-8.08-113.55-62.07-123.83-74.49a212.5 212.5 0 0 1-17.02-23.69c7.28-.96 18.05-2.45 31.08-4.43 52.62-8.05 60.06-11.88 78.45-12.59 8.88-.34 42.2-1.22 76 16.79 6.57 3.5 12.55 7.39 17.99 11.52 26.28 19.93 39.86 45.3 45.76 58.24l.12.27c-.06-.08-.12-.15-.19-.23-35.28-44.57-79.83-68.39-113.04-70.55-24.74-1.61-48.26 4.98-48.26 4.98-6.83 1.95-12.94 4.21-18.25 6.51-1.86.8-3.62 1.6-5.28 2.41-2.58 1.23-4.93 2.45-7.02 3.61 5.86 13.93 18.7 38.36 44.99 55.71 19.21 12.68 41.84 19.12 65.51 19.51 27.02.46 55.39-6.96 81.55-21.94 2.87-1.64-47.68 35.54-108.54 28.38Zm512.38-98.22c-3.64 5.88-9.25 14.3-17.02 23.68-10.28 12.42-54.97 66.41-123.83 74.5-60.86 7.15-111.41-30.03-108.54-28.38 26.22 15.01 54.67 22.43 81.76 21.93 23.59-.43 46.15-6.86 65.3-19.51 26.28-17.35 39.14-41.77 44.99-55.7-2.48-1.37-5.29-2.82-8.44-4.29-.96-.45-1.96-.9-2.98-1.36-5.52-2.42-11.92-4.83-19.13-6.88 0 0-23.51-6.59-48.26-4.98-33.13 2.15-77.53 25.85-112.77 70.2-.15.2-.31.39-.46.59.1-.22.2-.44.31-.67 5.51-11.98 17.37-34.04 39.37-52.85a134 134 0 0 1 24.19-16.51c33.8-18.01 67.12-17.12 76-16.78 18.39.71 25.83 4.54 78.45 12.58 13.03 1.99 23.8 3.48 31.08 4.44Z" class="cls-1br16"/><path d="M1028.85 1884.64c-2.44 9.18-10.81 21.48-22.94 21.82-12.39.34-21.78-11.98-24.42-21.82-4.08-15.19 5.4-33.76 24.42-44.05 17.96 10.77 26.96 28.92 22.94 44.05" class="cls-1br12"/><path d="M999.62 1887.83c-9.05-6.63-10.46-28.18 5.77-46.95-18.68 10.34-27.95 28.71-23.91 43.76 2.65 9.84 12.03 22.16 24.42 21.82 12.13-.34 20.5-12.63 22.94-21.82.07-.26.13-.53.19-.79-10.64 6.61-22.75 8.87-29.42 3.99Z" style="fill:#e007b2"/><circle cx="625.5" cy="1699.74" r="9.01" class="cls-1br4"/><circle cx="669.06" cy="1713.74" r="9.01" class="cls-1br4"/><circle cx="717.41" cy="1722.75" r="9.01" class="cls-1br4"/><circle cx="771.93" cy="1722.75" r="9.01" class="cls-1br4"/><circle cx="831.44" cy="1720.33" r="9.01" class="cls-1br4"/><circle cx="885.72" cy="1729.34" r="9.01" class="cls-1br4"/><circle cx="933.32" cy="1752.83" r="9.01" class="cls-1br4"/><circle cx="971.54" cy="1785.51" r="9.01" class="cls-1br4"/><circle cx="1384.85" cy="1700.94" r="9.01" class="cls-1br4"/><circle cx="1341.3" cy="1714.94" r="9.01" class="cls-1br4"/><circle cx="1292.94" cy="1723.95" r="9.01" class="cls-1br4"/><circle cx="1238.42" cy="1723.95" r="9.01" class="cls-1br4"/><circle cx="1178.91" cy="1721.53" r="9.01" class="cls-1br4"/><circle cx="1124.64" cy="1730.54" r="9.01" class="cls-1br4"/><circle cx="1077.03" cy="1754.03" r="9.01" class="cls-1br4"/><circle cx="1038.81" cy="1786.7" r="9.01" class="cls-1br4"/><circle cx="1005.18" cy="1820.65" r="9.01" class="cls-1br4"/><circle cx="622.2" cy="1776.5" r="12.31" class="cls-1br12"/><circle cx="634.1" cy="1814.83" r="8.6" class="cls-1br12"/><circle cx="648.33" cy="1844.53" r="5.63" class="cls-1br12"/><circle cx="1384.76" cy="1777.65" r="12.31" class="cls-1br12"/><circle cx="1372.86" cy="1815.98" r="8.6" class="cls-1br12"/><circle cx="1358.63" cy="1845.68" r="5.63" class="cls-1br12"/><path d="M916.8 1409.74c.18.35.36.71.53 1.06-.16-.35-.33-.71-.53-1.06m160.17 82.97c-.33.49-.64.97-.94 1.46.28-.48.59-.96.94-1.46" class="cls-1br1"/><path d="M689.47 1189.77h.4c.08-.2.17-.4.27-.59-.22.2-.45.4-.67.6Z" class="cls-1br8"/></svg>