<svg xmlns="http://www.w3.org/2000/svg" viewBox="0 0 2000 2000" width="300" height="300" fill="none"><defs><style>.cls-4tet2{fill:#296605}.cls-4tet3{fill:#30770e}.cls-4tet5{fill:#ccc71b}.cls-4tet6{fill:#dd3}</style></defs><path d="M1622.64 369.4c-31.88-74.98-101.11-130.27-184.35-142.47a238.5 238.5 0 0 0-34.86-2.55H578.88c-11.85 0-23.49.87-34.87 2.55-83.24 12.2-152.48 67.49-184.36 142.47-12.16 28.6-18.88 60.05-18.88 93.08v1053.83q0 3.27.09 6.51c.82 30.66 7.43 59.86 18.8 86.57 14.07 33.11 35.43 62.37 62.05 85.78.23.21.47.42.71.62 19.87 17.34 42.64 31.43 67.5 41.44a236 236 0 0 0 54.09 14.64c11.38 1.68 23.02 2.54 34.87 2.54h824.55c11.85 0 23.48-.86 34.86-2.54 20.37-2.99 39.9-8.55 58.25-16.36 23.53-10 45.12-23.69 64.04-40.34q5.4-4.725 10.5-9.81c21.76-21.58 39.38-47.33 51.55-75.97.38-.89.75-1.79 1.12-2.69.61-1.49 1.23-3.02 1.84-4.61.27-.68.53-1.38.79-2.08q.465-1.245.93-2.52c.31-.85.62-1.71.92-2.58a290 290 0 0 0 1.81-5.38c.3-.92.59-1.85.88-2.79.58-1.88 1.15-3.81 1.71-5.78.47-1.68.93-3.39 1.38-5.14.18-.69.35-1.38.52-2.07.42-1.68.83-3.39 1.22-5.12.24-1.07.47-2.15.7-3.24.48-2.23.91-4.48 1.32-6.73.36-2.01.69-4 .99-5.96.14-.89.27-1.79.39-2.68.02-.12.04-.24.05-.36q.21-1.44.39-2.88.195-1.5.36-3c.12-1 .23-2 .33-3.01.1-1 .2-2.01.29-3.02.27-3.03.48-6.07.64-9.13.1-1.93.17-3.86.22-5.8 0-.11.02-.22 0-.33.05-1.94.08-3.88.08-5.83V462.48c0-33.03-6.72-64.48-18.88-93.08Zm-36.9 130.79v834.05h-78.12c-22.88 0-42.01 18-46.75 42.07-.75 3.76-1.13 7.67-1.13 11.67v81.1c0 13.17 4.23 25.24 11.24 34.59 8.78 11.71 21.93 19.15 36.64 19.15H1272.5c-35.19 0-64.61 24.67-71.91 57.68-.26 1.16-.49 2.32-.68 3.5H758.54c-.19-1.18-.4-2.34-.63-3.5-6.6-33.01-33.25-57.68-65.13-57.68H406.25c-2.82-6.09-5.08-12.49-6.69-19.15-1.97-8.03-3.01-16.42-3.01-25.06V500.19c0-8.64 1.04-17.03 3.01-25.06 11.23-46.1 52.81-80.33 102.37-80.33h978.43c49.56 0 91.14 34.23 102.37 80.33 1.97 8.03 3.01 16.42 3.01 25.06" style="fill:#3f8918"/><path d="M1641.52 431.83v108.69h-55.78v-40.33c0-8.64-1.04-17.03-3.01-25.06-11.23-46.1-52.81-80.33-102.37-80.33H501.93c-49.56 0-91.14 34.23-102.37 80.33-1.97 8.03-3.01 16.42-3.01 25.06v40.33h-55.78V431.83c0-21.6 2.88-42.52 8.27-62.43 24.48-90.31 100.76-159.3 194.97-173.11 11.38-1.69 23.02-2.55 34.87-2.55h824.55c11.85 0 23.48.86 34.86 2.55 94.22 13.82 170.49 82.81 194.96 173.11 5.39 19.91 8.27 40.83 8.27 62.43" class="cls-4tet3"/><path d="M649.72 1522.82v231.59h-70.84c-11.85 0-23.49-.86-34.87-2.54v-229.05zm0-1329.08V394.8H544.01V196.29c11.38-1.69 23.02-2.55 34.87-2.55zm288.57 0h105.72V394.8H938.29zm0 1390.26h105.72v170.41H938.29zm500-61.18v229.05a238.5 238.5 0 0 1-34.86 2.54h-70.86v-231.59zm0-1326.53V394.8h-105.72V193.74h70.86c11.85 0 23.48.86 34.86 2.55" class="cls-4tet6"/><path d="M1641.52 431.83v43.3h-58.79c-11.23-46.1-52.81-80.33-102.37-80.33H501.93c-49.56 0-91.14 34.23-102.37 80.33h-58.79v-43.3c0-21.6 2.88-42.52 8.27-62.43h1284.21c5.39 19.91 8.27 40.83 8.27 62.43m0 1071.84v12.99c0 1.88-.02 3.82-.08 5.83.01.11 0 .22 0 .33-.04 1.88-.11 3.81-.22 5.8-.14 2.94-.35 5.98-.64 9.13-.09 1.01-.19 2.02-.29 3.02-.1 1.01-.21 2.01-.33 3.01q-.165 1.5-.36 3-.18 1.44-.39 2.88c-.01.12-.03.24-.05.36-.12.89-.25 1.79-.39 2.68-.3 1.96-.63 3.95-.99 5.96-.4 2.21-.84 4.46-1.32 6.73-.23 1.09-.46 2.17-.7 3.24a233 233 0 0 1-4.83 18.11c-.29.94-.58 1.87-.88 2.79a290 290 0 0 1-1.81 5.38c-.3.87-.61 1.73-.92 2.58q-.465 1.275-.93 2.52c-.26.7-.52 1.4-.79 2.08-.61 1.59-1.23 3.12-1.84 4.61-.37.9-.74 1.8-1.12 2.69H359.66c-11.37-26.71-17.98-55.91-18.8-86.57q-.09-3.24-.09-6.51v-12.64h58.79c1.61 6.66 3.87 13.06 6.69 19.15h286.53c31.88 0 58.53 24.67 65.13 57.68.23 1.16.44 2.32.63 3.5h441.37c.19-1.18.42-2.34.68-3.5 7.3-33.01 36.72-57.68 71.91-57.68h235.12c-14.71 0-27.86-7.44-36.64-19.15zM340.77 936.54h55.78v105.72h-55.78zm1244.97 0h55.78v105.72h-55.78z" class="cls-4tet6"/><path d="M757.91 1580.5c.23 1.16.44 2.32.63 3.5H501.93c-4.06 0-8.07-.23-12.01-.69-26.86-3.03-50.65-16.18-67.5-35.53-6.5-7.47-11.97-15.86-16.17-24.96h286.53c31.88 0 58.53 24.67 65.13 57.68m827.83-246.26v144.37c0 6.37-.56 12.6-1.65 18.65-.38 2.16-.83 4.3-1.36 6.41-1.61 6.66-3.86 13.06-6.69 19.15-1.49 3.24-3.15 6.38-4.96 9.43-15.73 26.56-42.8 45.62-74.54 50.52-5.27.81-10.68 1.23-16.18 1.23h-280.45c.19-1.18.42-2.34.68-3.5 7.3-33.01 36.72-57.68 71.91-57.68h235.12c-14.71 0-27.86-7.44-36.64-19.15-7.01-9.35-11.24-21.42-11.24-34.59v-81.1c0-4 .38-7.91 1.13-11.67 4.74-24.07 23.87-42.07 46.75-42.07z" style="fill:#fff"/><path d="M1868.78 1596.49v111.19c0 40.68-32.98 73.67-73.67 73.67H1272.5c-22.94 0-43.43-10.49-56.93-26.94-10.45-12.71-16.72-28.99-16.72-46.73v-111.19c0-4.25.36-8.43 1.06-12.49.19-1.18.42-2.34.68-3.5 7.3-33.01 36.72-57.68 71.91-57.68h522.61c35.21 0 64.63 24.67 71.93 57.68 1.14 5.14 1.74 10.5 1.74 15.99" class="cls-4tet3"/><path d="M1868.78 1695.17v12.51c0 40.68-32.98 73.67-73.67 73.67H1272.5c-40.68 0-73.65-32.99-73.65-73.67v-12.51z" class="cls-4tet2"/><path d="M1315.59 1522.82h74.55v258.53h-74.55zm180.95 0h74.54v258.53h-74.54zm180.94 0h74.55v258.53h-74.55z" class="cls-4tet5"/><path d="M759.49 1596.49v111.19c0 17.74-5.67 34.02-15.14 46.73-12.23 16.45-30.79 26.94-51.57 26.94H219.55c-36.84 0-66.7-32.99-66.7-73.67v-111.19c0-5.49.54-10.85 1.58-15.99 6.6-33.01 33.25-57.68 65.12-57.68h473.23c31.88 0 58.53 24.67 65.13 57.68.23 1.16.44 2.32.63 3.5.63 4.06.95 8.24.95 12.49" class="cls-4tet3"/><path d="M759.49 1695.17v12.51c0 40.68-29.86 73.67-66.71 73.67H219.54c-36.84 0-66.7-32.99-66.7-73.67v-12.51h606.64Z" class="cls-4tet2"/><path d="M258.56 1522.82h67.51v258.53h-67.51zm163.86 0h67.5v258.53h-67.5zm163.85 0h67.51v258.53h-67.51z" class="cls-4tet5"/><path d="M1895.23 1387.98v81.1c0 29.67-21.44 53.74-47.89 53.74h-339.72c-14.71 0-27.86-7.44-36.64-19.15-7.01-9.35-11.24-21.42-11.24-34.59v-81.1c0-4 .38-7.91 1.13-11.67 4.74-24.07 23.87-42.07 46.75-42.07h339.72c22.89 0 42.02 18 46.76 42.07.74 3.76 1.13 7.67 1.13 11.67" class="cls-4tet3"/><path d="M1895.23 1459.96v9.12c0 29.67-21.44 53.74-47.89 53.74h-339.72c-14.71 0-27.86-7.44-36.64-19.15-7.01-9.35-11.24-21.42-11.24-34.59v-9.12z" class="cls-4tet2"/><path d="M1535.63 1334.24h48.46v188.58h-48.46zm117.62 0h48.46v188.58h-48.46zm117.62 0h48.46v188.58h-48.46z" class="cls-4tet5"/><path d="M1208.9 1778.11v81.11c0 29.67-21.44 53.74-47.89 53.74H821.29c-26.44 0-47.88-24.06-47.88-53.74v-81.11c0-4 .39-7.91 1.13-11.66 4.74-24.07 23.87-42.07 46.75-42.07h339.72c22.89 0 42.01 18 46.76 42.07.74 3.75 1.13 7.66 1.13 11.66" class="cls-4tet3"/><path d="M1208.9 1850.09v9.12c0 29.67-21.44 53.74-47.89 53.74H821.29c-26.44 0-47.88-24.06-47.88-53.74v-9.12z" class="cls-4tet2"/><path d="M849.29 1724.37h48.46v188.58h-48.46zm117.63 0h48.46v188.58h-48.46zm117.62 0H1133v188.58h-48.46z" class="cls-4tet5"/></svg>