<svg xmlns="http://www.w3.org/2000/svg" viewBox="0 0 2000 2000" width="300" height="300" fill="none"><defs><style>.cls-lab91{fill:#fff}.cls-lab92{fill:#b2141d}.cls-lab93{fill:#221b45}.cls-lab95{fill:#302a5b}.cls-lab96{fill:#dd2628}.cls-lab97{fill:#930d1b}.cls-lab99{fill:#171335}.cls-lab910{fill:#c62433}</style></defs><path d="M1645.65 1786.34H286.67c-25.28 0-45.85-20.57-45.85-45.85V381.51c0-25.28 20.57-45.85 45.85-45.85h1358.98c25.28 0 45.85 20.57 45.85 45.85v1358.98c0 25.28-20.57 45.85-45.85 45.85M286.67 363.33c-10.02 0-18.18 8.15-18.18 18.18v1358.98c0 10.02 8.15 18.18 18.18 18.18h1358.98c10.02 0 18.18-8.15 18.18-18.18V381.51c0-10.02-8.15-18.18-18.18-18.18z" style="fill:#342d66"/><path d="M1672.66 1774.54c.4.36.98.5 1.56.31.9-.29 1.46-1.24 1.24-2.13-19.34-79.19-15.12-133.8 12.54-162.31 3.37-3.47 7.57-7.07 12.02-10.88 13.72-11.74 30.79-26.34 41.58-51.74 6.04-14.22 9.16-29.64 9.25-45.83 0-.93-.74-1.64-1.67-1.57-.93.06-1.68.87-1.69 1.8-.09 15.72-3.11 30.68-8.97 44.47-10.45 24.59-27.15 38.88-40.57 50.36-4.52 3.87-8.78 7.52-12.28 11.11-12.61 13-20.64 31.19-23.86 54.05-4.09 29.05-.6 66.59 10.38 111.57.08.32.24.58.46.78Z" class="cls-lab99"/><path d="M1753.59 1265.35c24.34-24.55 72.81-51.79 115.75-36.48 41.99 14.97 58.74 63.52 59.64 96.17 1.88 68.39-63.68 144.21-166.33 185.05-1.24 3.56-3.34 11.12-1.69 20.13 1.18 6.45 3.81 11.1 5.67 13.81-5.34.82-17.48 1.93-30.08-4.12a47.1 47.1 0 0 1-14.79-11.17 94.4 94.4 0 0 1 24.79-23.52c-48-92.47-43.11-189.31 7.05-239.89Z" class="cls-lab93"/><path d="M1746.54 1505.24a94.2 94.2 0 0 0-16.25 13.38 95 95 0 0 0-8.54 10.14c2.97 3.33 7.76 7.79 14.79 11.17 4.45 2.14 8.84 3.38 12.9 4.06 7.43 1.24 13.73.6 17.18.06a35.7 35.7 0 0 1-5.67-13.81c-1.5-8.22.11-15.22 1.34-19.1.05-.16.1-.3.15-.45-47.85-92.39-42.93-189.09 7.18-239.63 22.79-22.99 66.76-48.34 107.52-38.88-2.5-1.23-5.1-2.34-7.81-3.31-42.94-15.31-91.41 11.93-115.75 36.47-50.16 50.58-55.04 147.41-7.05 239.89Z" class="cls-lab99"/><path d="M1737.8 1534.47c2.5 2.81 6.3 6.42 11.65 9.51 7.43 1.24 13.73.6 17.18.06a35.7 35.7 0 0 1-5.67-13.81c-1.5-8.22.11-15.22 1.34-19.1a94 94 0 0 0-15.97 13.2 95 95 0 0 0-8.54 10.14Z" class="cls-lab93"/><path d="M1897.26 1372.72c-10.57 24.25-23.02 35.13-21.19 36.86 2.37 2.25 27.28-12.14 36.18-36.48 7.49-20.47 1.33-41.65-2-41.55-2.93.09-2.31 16.68-12.98 41.17Z" class="cls-lab95"/><ellipse cx="1906.07" cy="1311.68" class="cls-lab95" rx="6.93" ry="6.44" transform="rotate(-48.07 1906.108 1311.686)"/><ellipse cx="1860.12" cy="1422.97" class="cls-lab95" rx="6.93" ry="6.44" transform="rotate(-48.07 1860.16 1422.976)"/><path d="M1647.06 1655.41c-20.78-143.82 32.55-240.31 51.46-260.06.37-.39 1.26-1.31 2.54-2.69 6.89-7.43 25.74-29.28 32.85-57.15 4.01-15.74 4.72-32.36 2.09-49.39-.15-.98-1.06-1.62-2.03-1.44s-1.64 1.13-1.49 2.12c2.55 16.54 1.87 32.66-2.02 47.92-5.59 21.94-17.87 38.47-34.54 58.25 0 0-21.01 24.92-52.13 110.59-34.8 95.79 14.86 234.44 28.41 270.19 1.82-1.93 3.64-3.86 5.46-5.78-18.28-45.17-26.53-84.42-30.6-112.57Z" class="cls-lab97"/><path d="M1699.03 1036.99c21.68-28.99 68.51-63.97 116.65-53.49 47.07 10.25 73.03 59.09 79.48 93.31 13.52 71.65-43.25 159.94-145.26 216.31-.71 3.91-1.67 12.13 1.6 21.39a39.6 39.6 0 0 0 8.34 13.78c-5.52 1.56-18.22 4.31-32.6-.4-8.03-2.63-13.87-6.69-17.57-9.8 1.91-3.62 4.32-7.63 7.35-11.78a95.6 95.6 0 0 1 14.98-16.19c-66.51-90.94-77.65-193.38-32.96-253.12Z" class="cls-lab92"/><path d="M1731.99 1290.12a95.6 95.6 0 0 0-14.98 16.19 95 95 0 0 0-7.35 11.78c3.71 3.11 9.54 7.18 17.58 9.81 5.08 1.66 9.95 2.4 14.37 2.58 8.09.34 14.66-1.17 18.24-2.18-2.43-2.61-6-7.15-8.35-13.78-2.98-8.44-2.45-16.02-1.79-20.25.03-.17.05-.33.08-.49-66.34-90.88-77.42-193.18-32.78-252.86 20.31-27.15 62.68-59.56 107.52-54.94-2.86-.97-5.81-1.79-8.85-2.45-48.14-10.48-94.97 24.5-116.65 53.49-44.69 59.74-33.54 162.18 32.96 253.13Z" class="cls-lab97"/><path d="M1727.64 1321.99c3.13 2.62 7.77 5.93 13.96 8.48 8.09.34 14.66-1.17 18.24-2.18-2.43-2.61-6-7.15-8.35-13.78-2.98-8.44-2.45-16.02-1.79-20.25a95.5 95.5 0 0 0-22.06 27.74Z" class="cls-lab92"/><path d="M1869.53 1131.08c-7.13 26.88-18.5 39.94-16.27 41.52 2.89 2.05 26.89-16.33 32.23-43.08 4.49-22.5-5.61-43.96-9.12-43.42-3.1.48.36 17.83-6.84 44.98" class="cls-lab910"/><ellipse cx="1868.59" cy="1065.76" class="cls-lab910" rx="7.26" ry="6.99" transform="rotate(-56.14 1868.548 1065.759)"/><ellipse cx="1838.6" cy="1188.77" class="cls-lab910" rx="7.26" ry="6.99" transform="rotate(-56.14 1838.558 1188.77)"/><path d="M266.27 259.03c-23.48-26.05-72.55-55.79-120.22-41.77-46.61 13.71-69.73 62.75-74.17 96.14-9.28 69.92 52.94 150.04 158.65 195.77.95 3.7 2.4 11.51-.33 20.67-1.95 6.56-5.27 11.22-7.55 13.92 5.64 1.05 18.53 2.64 32.68-3.07a55.6 55.6 0 0 0 17.05-10.86 89 89 0 0 0-8.07-10.71 91 91 0 0 0-16-14.31c61.29-92.8 66.35-192.1 17.96-245.79Z" class="cls-lab92"/><path d="M248.32 504.82c4.8 3.37 10.46 8.03 15.99 14.32 3.29 3.74 5.94 7.38 8.07 10.7a55.3 55.3 0 0 1-17.05 10.86c-5 2.01-9.84 3.12-14.26 3.66-8.1.99-14.78.08-18.43-.59 2.28-2.71 5.6-7.36 7.55-13.92 2.48-8.35 1.5-15.59.59-19.6-.04-.16-.07-.32-.11-.46 61.13-92.73 66.13-191.88 17.78-245.53-21.99-24.4-66.44-52.04-111.14-43.92 2.81-1.17 5.72-2.2 8.73-3.08 47.67-14.02 96.74 15.72 120.22 41.77 48.4 53.7 43.33 152.98-17.95 245.79Z" class="cls-lab97"/><path d="M254.58 535.07a55.5 55.5 0 0 1-13.5 9.29c-8.1.99-14.78.08-18.43-.59 2.28-2.71 5.6-7.36 7.55-13.92 2.48-8.35 1.5-15.59.59-19.6a90.2 90.2 0 0 1 15.71 14.12c3.29 3.74 5.94 7.38 8.07 10.7Z" class="cls-lab92"/><path d="M100.83 363.41c8.76 25.23 20.95 36.83 18.8 38.54-2.77 2.21-27.95-13.47-34.91-38.72-5.85-21.24 3.01-42.68 6.56-42.45 3.13.2.7 17.16 9.54 42.63Z" class="cls-lab910"/><ellipse cx="97.88" cy="300.6" class="cls-lab910" rx="6.89" ry="7.13" transform="rotate(-81.04 97.879 300.603)"/><ellipse cx="135.31" cy="416.27" class="cls-lab910" rx="6.89" ry="7.13" transform="rotate(-81.04 135.314 416.27)"/><path d="M1660.46 1507.16c-.64.33-1.43.33-2.1-.07a2.183 2.183 0 0 1-.77-2.99c54.57-92.31 69.9-161.03 45.56-204.27-2.97-5.27-6.94-10.93-11.16-16.92-12.98-18.47-29.14-41.46-33.23-75.98-2.29-19.33-.4-39.29 5.61-59.33a2.183 2.183 0 0 1 4.18 1.26c-5.84 19.46-7.67 38.83-5.45 57.56 3.96 33.42 19.77 55.91 32.47 73.98 4.28 6.08 8.32 11.83 11.39 17.29 11.1 19.72 14.42 44.52 9.85 73.71-5.8 37.1-24.46 82.49-55.46 134.92-.22.37-.53.65-.88.83Z" class="cls-lab96"/><path d="M1769.43 913.03c.5 4.32.84 8.71 1.04 13.15.34 7.86.21 15.91-.42 24.1-.78 10.37-2.34 20.96-4.65 31.71-1.85 8.58-4.18 17.27-6.98 26.01-3.41 10.63-7.52 21.33-12.34 32.07-4.11 9.2-8.75 18.42-13.9 27.62-5.88 10.57-12.45 21.1-19.68 31.54a418 418 0 0 1-21.39 28.3 460 460 0 0 1-22.5 25.35c4.9 5.24 10.52 12.25 15.57 21.23 3.02 5.34 5.28 10.43 7.01 15.01-5.03 3.26-12.81 7.38-23.02 9.53-18.31 3.83-33.32-1.04-39.79-3.6 3.39-2.82 8.5-7.81 12.44-15.44 5.52-10.67 5.71-20.61 5.48-25.38a466 466 0 0 1-27.76-20.92c-9.48-7.7-18.43-15.64-26.86-23.75a398 398 0 0 1-25.76-27.2c-6.76-7.87-13.05-15.85-18.85-23.91-6.71-9.3-12.76-18.7-18.13-28.14-4.48-7.85-8.49-15.73-12.02-23.61-4.28-9.51-7.86-19.02-10.71-28.46-2.39-7.86-4.29-15.67-5.68-23.4-1.71-9.58-2.67-19.04-2.83-28.31-.14-8 .32-15.87 1.38-23.58 1.2-8.75 3.18-17.29 5.96-25.54.27-.81.56-1.64.86-2.46 2.78-7.8 6.53-16.1 11.2-24.47 5.03-9.03 11.12-18.12 18.2-26.72 8.09-9.8 17.49-18.97 28.1-26.63 15.46-11.18 33.52-19.17 53.86-21.36 19.54-2.11 38.11 1.45 55.04 8.51 11.76 4.89 22.72 11.47 32.65 19 8.93 6.78 17.04 14.33 24.15 22.11 6.18 6.76 11.6 13.7 16.14 20.47a140 140 0 0 1 14.56 27.77c2.78 7.13 5.02 14.55 6.72 22.21 1.25 5.61 2.22 11.36 2.9 17.21Z" class="cls-lab96"/><path d="M1745.24 845.85a988.2 988.2 0 0 1-239.35 29.08c2.78-7.8 6.53-16.1 11.2-24.47 32.83-1.06 68.01-3.5 105.17-7.86 38.21-4.48 73.9-10.45 106.83-17.23 6.18 6.76 11.6 13.7 16.14 20.47Zm-40.29-42.58a988 988 0 0 1-86.61 14.18 982 982 0 0 1-83.04 6.29c8.09-9.8 17.49-18.97 28.1-26.63 17.38-1.28 35.28-2.97 53.69-5.13 19.04-2.23 37.44-4.83 55.21-7.72 11.76 4.89 22.72 11.47 32.65 19Zm61.58 92.56a986.5 986.5 0 0 1-129.18 24.1c-51.53 6.1-98.55 7.56-139.66 6.59-.14-8 .32-15.87 1.38-23.58 41.6-.28 87.57-2.67 137.03-8.48 44.84-5.26 86.21-12.57 123.71-20.85 2.78 7.13 5.02 14.55 6.72 22.21Zm3.93 30.36c.34 7.86.21 15.91-.42 24.1a989 989 0 0 1-118.87 21.5 988 988 0 0 1-144.97 6.44c-2.39-7.86-4.29-15.67-5.68-23.4 44.79.13 94.97-2.13 149.41-8.51 43.57-5.1 83.87-12.16 120.53-20.14Zm-5.07 55.81c-1.85 8.58-4.18 17.27-6.98 26.01a993 993 0 0 1-93.42 15.64 987 987 0 0 1-136.06 6.66c-4.48-7.85-8.49-15.73-12.02-23.61 44.15.04 93.45-2.26 146.85-8.51 36.21-4.25 70.16-9.82 101.63-16.18Zm-19.31 58.07c-4.11 9.2-8.75 18.42-13.9 27.62a995 995 0 0 1-53.35 7.81 989 989 0 0 1-112.91 6.86c-6.76-7.87-13.05-15.85-18.85-23.91 39.87-.48 83.6-2.91 130.52-8.41a1239 1239 0 0 0 68.49-9.96Zm-33.58 59.16a418 418 0 0 1-21.39 28.3 983 983 0 0 1-72.57 5.78c-9.48-7.7-18.43-15.64-26.86-23.75 31.27-1.15 64.62-3.55 99.75-7.67 7.11-.84 14.14-1.72 21.08-2.66Z" class="cls-lab91"/><path d="M1769.43 913.03c.5 4.32.84 8.71 1.04 13.15.34 7.86.21 15.91-.42 24.1-.78 10.37-2.34 20.96-4.65 31.71-1.85 8.58-4.18 17.27-6.98 26.01-3.41 10.63-7.52 21.33-12.34 32.07-4.11 9.2-8.75 18.42-13.9 27.62-5.88 10.57-12.45 21.1-19.68 31.54a418 418 0 0 1-21.39 28.3 460 460 0 0 1-22.5 25.35c4.9 5.24 10.52 12.25 15.57 21.23 3.02 5.34 5.28 10.43 7.01 15.01-5.03 3.26-12.81 7.38-23.02 9.53a68 68 0 0 1-16.97 1.35c1.07-.63 2.06-1.23 2.95-1.81-1.74-4.58-4-9.67-7.01-15.01-1.48-2.63-3.01-5.08-4.56-7.37 3.79-9.18 3.91-17.37 3.72-21.56-1.54-1.08-3.08-2.16-4.6-3.24 4.27-4.76 8.4-9.57 12.37-14.4 7.68-9.33 14.81-18.77 21.39-28.3a381 381 0 0 0 19.68-31.54c5.15-9.2 9.79-18.42 13.9-27.62 4.82-10.73 8.92-21.44 12.34-32.07 2.8-8.74 5.13-17.42 6.98-26.01 2.31-10.76 3.86-21.34 4.65-31.71.63-8.19.77-16.24.42-24.1-.19-4.45-.53-8.83-1.04-13.15-.68-5.85-1.65-11.6-2.9-17.21-1.7-7.66-3.95-15.08-6.72-22.21-2.62-6.7-5.7-13.15-9.27-19.32-1.6-2.77-3.37-5.59-5.29-8.45-4.54-6.77-9.96-13.71-16.14-20.47-7.11-7.78-15.22-15.33-24.15-22.11-9.93-7.53-20.9-14.11-32.65-19-15.42-6.44-32.19-9.96-49.83-8.94 9.87-4.39 20.49-7.4 31.83-8.63 19.54-2.11 38.11 1.45 55.04 8.51 11.76 4.89 22.72 11.47 32.65 19 8.93 6.78 17.04 14.33 24.15 22.11 6.18 6.76 11.6 13.7 16.14 20.47a140 140 0 0 1 14.56 27.77c2.78 7.13 5.02 14.55 6.72 22.21 1.25 5.61 2.22 11.36 2.9 17.21Z" class="cls-lab92" style="opacity:.64"/><path d="M1672.9 1776.42c-.56.32-1.26.35-1.87.03-.94-.5-1.3-1.67-.8-2.62 44.71-84.12 55.55-145.74 32.21-183.12-2.84-4.55-6.6-9.42-10.58-14.57-12.27-15.87-27.54-35.62-32.55-66.09-2.81-17.06-1.94-34.85 2.58-52.88a1.936 1.936 0 0 1 2.35-1.41c1.04.26 1.67 1.31 1.41 2.35-4.4 17.51-5.24 34.77-2.52 51.31 4.86 29.5 19.8 48.82 31.8 64.35 4.04 5.23 7.86 10.16 10.8 14.88 10.65 17.05 14.59 38.93 11.71 65.02-3.66 33.16-18.39 74.2-43.78 121.97-.18.34-.44.6-.75.77Z" class="cls-lab99"/><path d="M1726.53 1193.37c-20.7-32.3-68.13-72.56-121.45-64.34-52.14 8.03-85.13 58.59-95.5 94.74-21.73 75.69 31.26 173.5 136.53 240 .39 4.22.62 13.05-3.84 22.74a44.1 44.1 0 0 1-10.42 14.2c5.85 2.01 19.36 5.73 35.45 1.59 8.98-2.31 15.72-6.29 20.05-9.38a98 98 0 0 0-6.82-13.03 97.8 97.8 0 0 0-14.68-18.22c81.18-93.01 103.35-201.73 60.68-268.3" class="cls-lab93"/><path d="M1665.85 1461.67a97.5 97.5 0 0 1 14.68 18.22c2.88 4.62 5.1 9.04 6.82 13.03-4.33 3.09-11.07 7.07-20.05 9.39a59.6 59.6 0 0 1-15.86 1.87c-8.82-.14-15.81-2.16-19.59-3.46 2.89-2.64 7.23-7.27 10.42-14.2 4.06-8.83 4.23-16.96 3.94-21.52-.01-.18-.03-.36-.04-.53 80.99-92.95 103.08-201.53 60.45-268.03-19.39-30.25-62.23-67.48-111.38-65.33 3.2-.86 6.49-1.56 9.85-2.07 53.32-8.22 100.74 32.04 121.45 64.34 42.67 66.57 20.49 175.28-60.68 268.3Z" class="cls-lab99"/><path d="M1667.44 1495.98c-3.66 2.61-9.02 5.85-16 8.19-8.82-.14-15.81-2.16-19.59-3.46 2.89-2.64 7.23-7.27 10.42-14.2 4.06-8.83 4.23-16.96 3.94-21.52 4.5 4.42 9.66 10.33 14.41 17.96 2.88 4.62 5.1 9.04 6.82 13.03" class="cls-lab93"/><path d="m1536.67 1207.19 3.14 10.4 8.5 2.23-6.78 7.45.69 11.25-7.33-5.8-8.07 4.72 2.24-11.03-5.68-8.33 8.73-1.02zm51.97-2.74 7.02 8.9 11.3-.73-6.29 9.42 4.19 10.52-10.9-3.07-8.72 7.24-.44-11.32-9.58-6.05 10.63-3.93zm-23.95 52.76 5.48 9.58 9.76.48-5.99 8.68 2.95 10.89-9.18-4.22-7.93 6.26.31-11.29-7.86-7.03 9.38-2.75zm-4.18-97.33 2.3 9.44 8.27 2.86-7.33 5.79-.2 9.9-6.83-5.86-8.39 3.26 3.1-9.41-4.99-7.89 8.76.05zm82.3-18.61 7.07 6.33 7.13-2.17-1.41 8.61 5.7 8.06-7.95-1.01-3.6 7.16-3.5-9.24-7.93-3.63 5.79-4.7zm-40.04 12.06 6.16 7.81 9.91-.65-5.52 8.27 3.68 9.23-9.57-2.7-7.64 6.35-.39-9.93-8.4-5.3 9.32-3.44zm37.53 38.11 7.02 8.89 11.3-.73-6.29 9.42 4.19 10.53-10.91-3.08-8.71 7.24-.45-11.32-9.57-6.05 10.63-3.92zm-13.24 52.87 7.02 8.89 11.3-.73-6.29 9.42 4.19 10.52-10.9-3.07-8.72 7.24-.44-11.32-9.58-6.05 10.63-3.92zm60.24-17.02 7.32 7.98 8.4-1.67-2.64 9.62 5.55 9.8-8.96-2.04-4.97 7.72-2.89-10.88-8.62-5.02 7.17-4.69zm-101.99 135.17 4.86 8.5 8.66.42-5.31 7.71 2.62 9.67-8.15-3.75-7.04 5.55.28-10.01-6.98-6.24 8.32-2.45zm38.61 36.98 4.86 8.5 8.67.43-5.32 7.7 2.62 9.67-8.15-3.74-7.04 5.55.28-10.02-6.98-6.24 8.33-2.44zm16.75-48.44 6.23 7.9 10.03-.65-5.58 8.36 3.72 9.34-9.68-2.73-7.74 6.43-.39-10.05-8.5-5.37 9.43-3.48zm53.47-15.1 6.5 7.08 7.45-1.48-2.34 8.54 4.92 8.69-7.95-1.81-4.41 6.86-2.56-9.66-7.66-4.45 6.37-4.16zm-21.67 53.15 6.5 7.09 7.46-1.49-2.35 8.54 4.93 8.7-7.95-1.81-4.41 6.86-2.57-9.66-7.65-4.46 6.36-4.16zm13.36-218.85 7.54 7.66 7.8-1.9-1.74 9.59 6 9.5-8.61-1.74-4.09 7.78-3.58-10.66-8.53-4.7 6.4-4.85zm-130.86 138.35 3.14 10.41 8.5 2.22-6.78 7.46.7 11.24-7.34-5.8-8.07 4.73 2.25-11.04-5.68-8.32 8.72-1.03zm51.98-2.73 7.01 8.9 11.3-.74-6.29 9.42 4.19 10.53-10.9-3.08-8.72 7.24-.44-11.32-9.58-6.05 10.63-3.92zm51.65-13.02 7.02 8.9 11.3-.74-6.29 9.43 4.19 10.52-10.9-3.07-8.72 7.23-.44-11.32-9.58-6.05 10.63-3.92zm45.54-21.24 7.53 7.67 7.8-1.9-1.74 9.58 6.01 9.51-8.62-1.74-4.08 7.78-3.59-10.67-8.53-4.7 6.4-4.84z" class="cls-lab91"/><path d="M491.84 400.42c4.12-38.14-7.58-99.24-54.27-126.27-45.65-26.43-103.06-7.73-133.8 13.92-64.38 45.34-84.43 154.75-44.13 272.57-2.34 3.53-7.7 10.56-17.25 15.31-6.83 3.4-13.11 4.29-17.02 4.53 3.29 5.23 11.49 16.61 26.62 23.47 8.45 3.83 16.19 4.96 21.51 5.26 1.16-4.18 2.21-9.02 2.86-14.43 1.09-9.09.75-17.07-.01-23.4 121.56-21.56 207-92.35 215.5-170.96Z" class="cls-lab93"/><path d="M276.34 571.38c.76 6.32 1.11 14.3.01 23.4a96.4 96.4 0 0 1-2.86 14.43c-5.32-.31-13.06-1.43-21.51-5.26a59.5 59.5 0 0 1-13.52-8.49 63.7 63.7 0 0 1-13.1-14.98c3.91-.24 10.19-1.13 17.02-4.53 8.7-4.33 13.93-10.56 16.56-14.29.1-.15.2-.3.3-.43 121.37-21.63 206.66-92.36 215.15-170.9 3.86-35.72-6.16-91.59-45.81-120.73 3.03 1.34 6.03 2.85 8.97 4.56 46.69 27.03 58.39 88.13 54.27 126.27-8.5 78.61-93.94 149.4-215.5 170.96Z" class="cls-lab99"/><path d="M256.07 599.11c-4.48-.26-10.7-1.1-17.6-3.65a63.7 63.7 0 0 1-13.1-14.98c3.91-.24 10.19-1.13 17.02-4.53 8.7-4.33 13.93-10.56 16.56-14.29a98 98 0 0 1-.03 23.03 96.4 96.4 0 0 1-2.86 14.43Z" class="cls-lab93"/><path d="m335.27 292.14-4.07 10.08 5.23 7.06-9.96 1.56-6.51 9.19-2.08-9.11-9.25-1.39 8.67-7.18.8-10.05 7.44 4.67zm42.21 30.46-.12 11.33 9.27 6.52-10.81 3.39-3.33 10.83-6.57-9.24-11.33.18 6.75-9.1-3.66-10.72 10.74 3.61zm-51.74 26.08-1.74 10.9 7.3 6.49-10.1 3-4.53 10.34-4.51-9.04-10.1-.1 7.32-8.6-1.72-10.4 9.04 3.73zm57.77-78.44-4.12 8.79 4.64 7.42-9.33-.09-6.37 7.59-1.65-8.85-8.58-2.73 8.32-5.37 1.06-9.28 6.79 5.52zm75.78 37.1 1.54 9.37 6.92 2.78-6.5 5.82-.61 9.85-5.56-5.76-7.29 3.31 3.06-9.39-3.9-7.8 7.45-.03zm-38.75-15.7-.1 9.94 8.13 5.71-9.48 2.98-2.93 9.5-5.76-8.1-9.94.15 5.93-7.98-3.22-9.4 9.42 3.16zm5.34 53.21-.11 11.33 9.27 6.52-10.81 3.39-3.34 10.83-6.56-9.24-11.33.18 6.75-9.1-3.67-10.72 10.74 3.61zm-43.46 32.89-.11 11.33 9.26 6.51-10.81 3.4-3.33 10.82-6.57-9.23-11.32.17 6.75-9.09-3.67-10.72 10.74 3.61zm57.6 24.51.7 10.81 7.59 3.96-8.1 5.84-1.81 11.11-5.7-7.2-8.72 2.9 4.57-10.29-3.56-9.32 8.52.85zM275.81 443.6l-1.54 9.67 6.48 5.76-8.97 2.67-4.02 9.17-4-8.02-8.97-.09 6.5-7.63-1.52-9.23 8.01 3.31zm6.89 53.02-1.54 9.67 6.48 5.76-8.97 2.67-4.02 9.18-4-8.03-8.97-.09 6.5-7.63-1.52-9.23 8.01 3.31zm43.42-27.23-.1 10.05 8.23 5.79-9.6 3.01-2.96 9.61-5.83-8.2-10.05.16 5.99-8.08-3.25-9.51 9.53 3.2zm51.12 21.75.62 9.6 6.74 3.52-7.18 5.18-1.61 9.86-5.06-6.39-7.74 2.57 4.06-9.13-3.17-8.27 7.57.75zm-50.2 27.83.62 9.59 6.74 3.52-7.19 5.18-1.61 9.86-5.06-6.39-7.73 2.58 4.05-9.14-3.16-8.27 7.56.75zm147.63-162.11 1.07 10.69 7.26 3.41-7.36 6.37-1.29 11.18-5.61-6.76-8.07 3.5 3.9-10.55-3.7-9.01 8.03.23zm-188.7 25.72-4.07 10.08 5.23 7.06-9.96 1.56-6.51 9.19-2.08-9.12-9.25-1.38 8.67-7.18.8-10.05 7.44 4.67zm42.21 30.46-.12 11.33 9.27 6.52-10.81 3.39-3.33 10.83-6.57-9.24-11.33.18 6.76-9.1-3.67-10.72 10.74 3.61zm48.4 22.25-.11 11.33 9.27 6.52-10.81 3.39-3.34 10.83-6.56-9.24-11.33.18 6.75-9.1-3.67-10.72 10.74 3.61zm48.79 12.01 1.07 10.69 7.27 3.41-7.37 6.37-1.28 11.18-5.62-6.76-8.06 3.5 3.89-10.55-3.7-9.02 8.03.24z" class="cls-lab91"/></svg>