<svg xmlns="http://www.w3.org/2000/svg" viewBox="0 0 2000 2000" width="300" height="300" fill="none"><defs><style>.cls-prop31{fill:#c3821a}.cls-prop34{fill:#b56b00}</style></defs><path d="M1769.48 1145.55h5v6h-5zm5-11.97h-5v-11.97h5zm0-23.94h-5v-11.97h5zm0-23.94h-5v-11.97h5zm0-23.94h-5v-11.97h5zm0-23.94h-5v-11.97h5zm-5-29.93h5v6h-5zm-763.42 665.95-220.08-235.47-322.12 10.89 10.89-322.12-235.47-220.08 235.47-220.08-10.89-322.12 322.12 10.89 220.08-235.47 220.08 235.47 322.12-10.89-10.89 322.12 235.47 220.08-235.47 220.08 10.89 322.12-322.12-10.89zm-199.61-284.89 199.61 213.58 199.61-213.58 292.17 9.87-9.87-292.17 213.57-199.61-213.57-199.61 9.87-292.17-292.17 9.87-199.61-213.57-199.61 213.57-292.17-9.87 9.87 292.17-213.57 199.61 213.57 199.61-9.87 292.17z" class="cls-prop31"/><path d="m1006.06 1599.95-198.87-212.78-291.08 9.84 9.84-291.08-212.78-198.87 212.78-198.87-9.84-291.08 291.08 9.84 198.87-212.78 198.87 212.78 291.08-9.84-9.84 291.08 212.78 198.87-212.78 198.87 9.84 291.08-291.08-9.84zm-180.38-257.43 180.38 193 180.38-193 264.01 8.92-8.92-264.01 192.99-180.38-192.99-180.38 8.92-264.01-264.01 8.92-180.38-193-180.38 193-264.01-8.92 8.92 264.01L377.6 907.05l192.99 180.38-8.92 264.01z" style="fill:#25215c"/><path d="M245.05 1195.28h5v6h-5zm5-12.27h-5v-12.3h5zm0-24.6h-5v-12.3h5zm0-24.59h-5v-12.29h5zm0-24.58h-5v-12.29h5zm0-24.58h-5v-12.29h5zm0-24.56h-5v-12.3h5zm0-24.59h-5v-12.29h5zm0-24.58h-5v-12.29h5zm0-24.58h-5v-12.29h5zm0-24.59h-5v-12.3h5zm0-24.59h-5v-12.3h5zm-5-30.12h5v6h-5zm219.33 655.08h5v6h-5zm5-11.97h-5v-11.97h5zm0-23.94h-5v-11.97h5zm0-23.94h-5v-11.97h5zm0-23.94h-5v-11.97h5zm0-23.94h-5v-11.97h5zm-5-29.92h5v6h-5zm539.18 325.17h5v6h-5zm5-11.97h-5v-11.97h5zm0-23.94h-5v-11.97h5zm0-23.94h-5v-11.97h5zm0-23.94h-5v-11.97h5zm0-23.94h-5v-11.97h5zm-5-29.92h5v6h-5zm539.45-38.88h5v6h-5zm5-11.97h-5v-11.97h5zm0-23.94h-5v-11.97h5zm0-23.94h-5v-11.97h5zm0-23.94h-5v-11.97h5zm0-23.94h-5v-11.97h5zm-5-29.92h5v6h-5z" class="cls-prop31"/><path d="m1006.06 1617.12-203.8-218.06-298.3 10.08 10.08-298.3-218.06-203.8 218.06-203.8-10.08-298.3 298.3 10.08 203.8-218.06 203.8 218.06 298.3-10.08-10.08 298.3 218.06 203.8-218.06 203.8 10.08 298.3-298.3-10.08zm-194.53-240.44 194.53 208.14 194.53-208.14 284.73 9.62-9.62-284.73 208.14-194.53-208.14-194.53 9.62-284.73-284.73 9.62-194.53-208.14L811.53 437.4l-284.73-9.62 9.62 284.73-208.14 194.53 208.14 194.53-9.62 284.73z" style="fill:#fff"/><path d="m247.55 1112.32 30.23 61.26 67.6 9.82-48.91 47.68 11.54 67.33-60.46-31.79-60.46 31.79 11.54-67.33-48.91-47.68 67.6-9.82z" class="cls-prop31"/><path d="m247.55 1204.9-30.23-31.79 30.23-61.25zm97.83-21.5-97.83 21.96 30.23-31.78z" class="cls-prop34"/><path d="m308.01 1297.94-60.46-93.04 48.92 25.72z" class="cls-prop34"/><path d="m187.09 1297.94 60.46-93.04v61.26zm-37.37-115 97.83 21.96-48.92 25.72z" class="cls-prop34"/><path d="m466.88 1530.94 18.35 37.19 41.05 5.97-29.7 28.95 7.01 40.88-36.71-19.3-36.71 19.3 7.01-40.88-29.7-28.95 41.04-5.97z" class="cls-prop31"/><path d="m466.88 1587.15-18.36-19.3 18.36-37.19zm59.4-13.05-59.4 13.33 18.35-19.3z" class="cls-prop34"/><path d="m503.59 1643.65-36.71-56.5 29.7 15.62zm-73.42 0 36.71-56.5v37.2zm-22.69-69.83 59.4 13.33-29.7 15.62z" class="cls-prop34"/><path d="m1770.45 1044.74 24.67 49.99 55.16 8.01-39.92 38.91 9.43 54.95-49.34-25.94-49.34 25.94 9.42-54.95-39.92-38.91 55.17-8.01z" class="cls-prop31"/><path d="m1770.45 1120.29-24.67-25.94 24.67-49.99zm79.83-17.55-79.83 17.93 24.67-25.94z" class="cls-prop34"/><path d="m1819.79 1196.22-49.34-75.93 39.91 20.99zm-98.68 0 49.34-75.93v49.99zm-30.5-93.85 79.84 17.92-39.92 20.99z" class="cls-prop34"/><path d="m1006.06 1742.26 19.09 38.67 42.68 6.2-30.88 30.11 7.29 42.5-38.18-20.07-38.17 20.07 7.29-42.5-30.88-30.11 42.68-6.2z" class="cls-prop31"/><path d="m1006.06 1800.71-19.08-20.07 19.08-38.67zm61.77-13.58-61.77 13.87 19.09-20.07z" class="cls-prop34"/><path d="m1044.24 1859.45-38.18-58.74 30.89 16.23zm-76.35 0 38.17-58.74v38.67zm-23.59-72.61 61.76 13.87-30.88 16.23z" class="cls-prop34"/><path d="m1545.51 1543.07 28.43 57.61 63.58 9.24-46.01 44.85 10.86 63.32-56.86-29.9-56.86 29.9 10.86-63.32-46.01-44.85 63.58-9.24z" class="cls-prop31"/><path d="m1545.51 1630.14-28.43-29.89 28.43-57.61zm92.01-20.22-92.01 20.66 28.43-29.9z" class="cls-prop34"/><path d="m1602.37 1717.65-56.86-87.51 46 24.19zm-113.72 0 56.86-87.51v57.61zm-35.15-108.16 92.01 20.65-46 24.19z" class="cls-prop34"/></svg>