<svg xmlns="http://www.w3.org/2000/svg" viewBox="0 0 2000 2000" width="300" height="300" fill="none"><defs><style>.cls-2br2{fill:#cc13d6}.cls-2br3{fill:#f437b0}.cls-2br4{fill:#12d8b2}</style></defs><path d="M1578.84 1869.82H445.48c-97.56 0-176.92-79.37-176.92-176.92V559.54c0-97.56 79.37-176.92 176.92-176.92h1133.36c97.56 0 176.92 79.37 176.92 176.92V1692.9c0 97.56-79.37 176.92-176.92 176.92M445.48 433.49c-69.5 0-126.05 56.54-126.05 126.05V1692.9c0 69.5 56.54 126.05 126.05 126.05h1133.36c69.5 0 126.05-56.54 126.05-126.05V559.54c0-69.5-56.54-126.05-126.05-126.05z" style="fill:#00a888"/><path d="M285.22 282.92c-16.51 2.09-28.25-1.93-35.58-5.62-44.21-22.28-62.06-100.26-71.05-139.54-1.31-5.71-2.27-10.47-2.91-13.78 2.98 1.92 7.33 4.78 12.5 8.37 38.33 26.59 97.44 67.6 103.5 114.24 1.07 8.25 1.05 21.01-6.47 36.33Zm76.09-27.29c14.08-8.87 20.59-19.44 23.9-26.95 19.98-45.3-15.79-116.85-33.81-152.9-2.62-5.24-4.9-9.52-6.51-12.49-1.08 3.38-2.62 8.35-4.33 14.41-12.7 44.89-32.28 114.11-7.33 153.98 4.42 7.06 12.54 16.89 28.08 23.94Z" class="cls-2br4"/><path d="M346.28 368.96c-20.36 13.7-37.02 16.27-47.89 16.33-65.57.39-119.37-89.24-146.47-134.4-3.94-6.56-7.06-12.12-9.19-16 4.59.53 11.3 1.36 19.36 2.59 59.73 9.13 151.84 23.22 178.1 79.89 4.65 10.03 9.67 26.65 6.09 51.59" class="cls-2br3"/><path d="M368.84 360.88c24.42-2.36 38.92-10.96 47.36-17.82 50.88-41.37 35.47-144.76 27.7-196.85-1.13-7.57-2.25-13.84-3.07-18.19-3.21 3.32-7.86 8.23-13.31 14.3-40.32 45-102.49 114.41-86.76 174.86 2.78 10.7 9.47 26.73 28.08 43.7" class="cls-2br3"/><path d="M361.09 374.79c-32.2-19.18-50.1-40.79-59.9-55.25-40.22-59.37-36.32-134.51-33.29-192.89.47-9.14 1.1-16.64 1.55-21.51 4.04 4.55 10.26 11.68 17.57 20.62 45.01 55.03 85.24 104.21 89.95 164.93 1.36 17.52.61 46.94-15.89 84.1Z" class="cls-2br2"/><path d="M579.73 212.41c-72.13 9.78-113.37 15.36-147.52 39.91-16.68 11.98-53.2 43.97-71.12 122.47-63.72-49.23-112.24-50.72-132.74-49.38-41.96 2.74-77.36 24.64-139.27 62.92A782 782 0 0 0 45 417.7c50.53 71.61 121.59 113.39 184.76 113.9 66.97.53 124.07-45.34 126.03-47.05.01 0 .03-.03.04-.03 5.65-5.54 9.35-9.72 10.8-11.39 3.94-4.52 7.41-8.96 10.47-13.15 3.01-4.12 6.97-7.06 11.43-8.66s9.38-1.85 14.33-.58c5.03 1.28 10.53 2.51 16.44 3.5 2.19.36 7.7 1.24 15.58 1.93h.05c2.6.07 75.83-.78 127.21-43.75 48.45-40.53 76.78-117.94 70.29-205.35a775 775 0 0 0-52.7 5.34M314.96 432.02c-11.73 13.63-25.29 23.68-39.49 29.73-20.08 8.56-41.45 9.12-60.78.52-16.7-7.43-28.65-20.27-36.39-30.84-.5-.7-.98-1.38-1.45-2.05 6.91-8.95 22.1-25.67 46.91-32.46 43.41-11.88 82.21 15.96 93.89 25.46 1.41 1.16 2.43 2.04 3.01 2.55-1.84 2.47-3.73 4.83-5.69 7.09Zm223.27-129.65c.74 13.08-.33 30.59-8.5 46.94-9.46 18.92-26.32 32.07-47.26 38.22-14.81 4.35-31.66 5.21-49.38 2.14-2.96-.5-5.91-1.12-8.9-1.86.13-.76.35-2.09.7-3.88 2.99-14.76 15.25-60.91 56.32-79.32 23.47-10.52 45.82-7.26 56.84-4.74.06.82.12 1.65.19 2.5Z" class="cls-2br2"/><path d="M564.68 227.58c-66.79 9.05-104.99 14.23-136.61 36.95-15.44 11.1-49.26 40.71-65.85 113.41-59.01-45.59-103.94-46.97-122.91-45.73-38.86 2.54-71.63 22.82-128.96 58.27a730 730 0 0 0-40.82 27.19c46.79 66.32 112.59 105.01 171.08 105.47 62.02.49 114.89-41.99 116.7-43.56l.03-.03c5.23-5.13 8.65-9 10.01-10.55 3.64-4.19 6.86-8.3 9.69-12.17 2.79-3.82 6.46-6.54 10.59-8.02s8.69-1.71 13.27-.53c4.65 1.19 9.75 2.32 15.22 3.24 2.03.34 7.14 1.15 14.43 1.79h.04c2.41.06 70.22-.73 117.8-40.52 44.87-37.52 71.1-109.21 65.09-190.15-11.55.77-28.49 2.19-48.8 4.94M319.5 430.94c-10.86 12.62-23.42 21.92-36.57 27.52-18.59 7.93-38.39 8.44-56.28.49-15.46-6.88-26.54-18.77-33.7-28.56-.46-.65-.91-1.27-1.34-1.89 6.4-8.29 20.46-23.77 43.43-30.06 40.2-11 76.12 14.78 86.94 23.58 1.31 1.07 2.25 1.89 2.79 2.36q-2.55 3.42-5.28 6.57Zm206.74-120.05c.69 12.12-.31 28.33-7.87 43.47-8.76 17.51-24.37 29.69-43.77 35.39-13.71 4.03-29.32 4.83-45.72 1.98-2.74-.47-5.48-1.04-8.25-1.72.12-.7.32-1.93.65-3.59 2.76-13.67 14.12-56.4 52.15-73.45 21.73-9.74 42.43-6.72 52.64-4.39.06.76.11 1.52.17 2.31" class="cls-2br4"/><path d="M289.29 377.43c-54.36-3.21-82.77 11-98.77 25.38-9.56 8.59-16.51 18.88-31.94 24.62-21.92 8.15-44.92 1.14-61.2-6.28 11.85-.58 29.98-2.73 49.98-11.02 24.2-10.03 33.26-21.63 48.81-30.04 17.05-9.23 45.38-16.5 93.12-2.66m128.93-46.23c39.94-37.02 70.9-44.1 92.4-43.16 12.84.56 24.74 4.09 40.31-1.28 22.11-7.64 35.41-27.66 43.27-43.74-9.51 7.08-24.89 16.94-45.6 23.25-25.06 7.63-39.43 4.44-56.78 7.81-19.03 3.71-45.52 16.09-73.59 57.12Z" class="cls-2br3"/><path d="M221.45 397.19c-19.81 8.52-32.28 22.52-39.2 32.17 3.33 5.78 9.02 14.11 18.17 21.92 0 0 19.15 16.33 44.93 19.57 30.67 3.85 63.23-12.23 85.14-40.84l12.32 1.71c-5.95-7.37-16.07-18.06-31.31-26.68-8.11-4.59-48.21-25.86-90.06-7.85Zm61.49 61.27c-18.59 7.93-38.39 8.44-56.28.49-15.46-6.88-26.54-18.77-33.7-28.56-.46-.65-.91-1.27-1.34-1.89 6.4-8.29 20.46-23.77 43.43-30.06 40.2-11 76.12 14.78 86.94 23.58 1.31 1.07 2.25 1.89 2.79 2.36q-2.55 3.42-5.28 6.57c-10.86 12.62-23.42 21.92-36.57 27.52Zm135.59-91.8c-6.29 16.34-7.31 31.02-7.22 40.5l8.43-9.15c35.1 8.17 70.46-.1 91.7-22.57 17.85-18.88 22.25-43.66 22.25-43.66 2.11-11.85 1.21-21.89.11-28.47-11.47-3.06-30-5.94-50.71.06-43.76 12.68-61.21 54.59-64.55 63.28Zm10.28 25.08c-2.74-.47-5.48-1.04-8.25-1.72.12-.7.32-1.93.65-3.59 2.76-13.67 14.13-56.4 52.15-73.45 21.73-9.74 42.43-6.72 52.64-4.39.06.76.11 1.52.17 2.31.69 12.12-.31 28.33-7.87 43.47-8.76 17.51-24.37 29.69-43.77 35.39-13.71 4.03-29.32 4.83-45.72 1.98" class="cls-2br2"/><path d="M1740.61 1688.01c16.51 2.09 28.25-1.93 35.58-5.62 44.21-22.28 62.06-100.26 71.05-139.54 1.31-5.71 2.27-10.47 2.91-13.78a438 438 0 0 0-12.5 8.37c-38.33 26.59-97.44 67.6-103.5 114.24-1.07 8.25-1.05 21.01 6.47 36.33Zm-76.09-27.28c-14.08-8.87-20.59-19.44-23.9-26.95-19.98-45.3 15.79-116.85 33.81-152.9 2.62-5.24 4.9-9.52 6.51-12.49 1.08 3.38 2.62 8.35 4.33 14.41 12.7 44.89 32.28 114.11 7.33 153.98-4.42 7.06-12.54 16.89-28.08 23.94Z" class="cls-2br3"/><path d="M1679.55 1774.06c20.36 13.7 37.02 16.27 47.89 16.33 65.57.39 119.37-89.24 146.47-134.4 3.94-6.56 7.06-12.12 9.19-16-4.59.53-11.3 1.36-19.36 2.59-59.73 9.13-151.84 23.22-178.1 79.89-4.65 10.03-9.67 26.65-6.09 51.59" class="cls-2br4"/><path d="M1656.99 1765.97c-24.42-2.36-38.92-10.96-47.36-17.82-50.88-41.37-35.47-144.76-27.7-196.85 1.13-7.57 2.25-13.84 3.07-18.19 3.21 3.32 7.86 8.23 13.31 14.3 40.32 45 102.49 114.41 86.76 174.86-2.78 10.7-9.47 26.73-28.08 43.7" class="cls-2br4"/><path d="M1665.86 1779.88c32.2-19.18 50.1-40.79 59.9-55.25 40.22-59.37 36.32-134.51 33.29-192.89-.47-9.14-1.1-16.64-1.55-21.51a667 667 0 0 0-17.57 20.62c-45.01 55.03-85.24 104.21-89.95 164.93-1.36 17.52-.61 46.94 15.89 84.1Z" class="cls-2br2"/><path d="M1393.39 1612.17c-6.49 87.4 21.84 164.82 70.29 205.35 51.37 42.97 124.61 43.82 127.21 43.75h.05c7.88-.69 13.39-1.57 15.58-1.93 5.91-.99 11.41-2.21 16.44-3.5 4.94-1.27 9.87-1.02 14.33.58s8.42 4.53 11.43 8.66c3.07 4.19 6.54 8.62 10.47 13.15 1.46 1.67 5.16 5.85 10.8 11.39 0 0 .02.02.04.03 1.96 1.7 59.05 47.58 126.03 47.05 63.16-.51 134.23-42.28 184.76-113.9a782 782 0 0 0-44.08-29.37c-61.91-38.28-97.3-60.18-139.27-62.92-20.49-1.35-69.02.14-132.74 49.38-17.92-78.5-54.44-110.49-71.12-122.47-34.14-24.55-75.39-30.13-147.52-39.91-21.93-2.97-40.23-4.5-52.7-5.34m311.77 217.85c.58-.5 1.6-1.39 3.01-2.55 11.68-9.5 50.48-37.34 93.89-25.46 24.81 6.79 39.99 23.51 46.91 32.46-.47.67-.95 1.35-1.45 2.05-7.74 10.57-19.69 23.41-36.39 30.84-19.33 8.59-40.7 8.04-60.78-.52-14.2-6.05-27.76-16.09-39.49-29.73-1.96-2.27-3.85-4.62-5.69-7.09Zm-217.39-125.06c11.02-2.52 33.37-5.78 56.84 4.74 41.07 18.41 53.34 64.56 56.32 79.32.36 1.79.58 3.12.7 3.88-2.99.74-5.95 1.36-8.9 1.86-17.72 3.07-34.58 2.21-49.38-2.14-20.94-6.15-37.8-19.3-47.26-38.22-8.17-16.34-9.25-33.86-8.5-46.94.06-.85.12-1.68.19-2.5Z" class="cls-2br4"/><path d="M1412.35 1627.73c-6.01 80.94 20.22 152.63 65.09 190.15 47.58 39.79 115.39 40.58 117.8 40.52h.04c7.29-.64 12.4-1.45 14.43-1.79 5.47-.92 10.57-2.05 15.22-3.24 4.58-1.17 9.14-.95 13.27.53s7.79 4.2 10.59 8.02c2.84 3.87 6.05 7.98 9.69 12.17 1.35 1.55 4.78 5.42 10.01 10.55l.03.03c1.82 1.58 54.68 44.06 116.7 43.56 58.49-.46 124.3-39.15 171.08-105.47-9.41-6.74-23.4-16.41-40.82-27.19-57.33-35.45-90.11-55.73-128.96-58.27-18.98-1.24-63.91.14-122.91 45.73-16.59-72.7-50.41-102.31-65.85-113.41-31.62-22.73-69.81-27.9-136.61-36.95a723 723 0 0 0-48.8-4.94m288.7 201.74c.54-.47 1.48-1.29 2.79-2.36 10.82-8.8 46.75-34.58 86.94-23.58 22.97 6.29 37.03 21.77 43.43 30.06-.44.62-.88 1.25-1.34 1.89-7.16 9.8-18.24 21.68-33.7 28.56-17.89 7.95-37.69 7.44-56.28-.49-13.15-5.6-25.71-14.9-36.57-27.52-1.82-2.1-3.57-4.29-5.28-6.57Zm-201.3-115.8c10.21-2.33 30.9-5.35 52.64 4.39 38.03 17.05 49.39 59.78 52.15 73.45.33 1.66.54 2.89.65 3.59-2.77.68-5.51 1.25-8.25 1.72-16.41 2.85-32.01 2.05-45.72-1.98-19.39-5.69-35.01-17.87-43.77-35.39-7.57-15.13-8.57-31.35-7.87-43.47.05-.79.11-1.56.17-2.31" class="cls-2br2"/><path d="M1736.53 1782.53c54.36-3.21 82.77 11 98.77 25.38 9.56 8.59 16.51 18.88 31.94 24.62 21.92 8.15 44.92 1.14 61.2-6.28-11.85-.58-29.98-2.73-49.98-11.02-24.2-10.03-33.26-21.63-48.81-30.04-17.05-9.23-45.38-16.5-93.12-2.66m-128.92-46.23c-39.94-37.02-70.9-44.1-92.4-43.16-12.84.56-24.74 4.09-40.31-1.28-22.11-7.64-35.41-27.66-43.27-43.74 9.51 7.08 24.89 16.94 45.6 23.25 25.06 7.63 39.43 4.44 56.78 7.81 19.03 3.71 45.52 16.09 73.59 57.12Z" class="cls-2br4"/><path d="M1714.32 1810.13c-15.24 8.62-25.36 19.31-31.31 26.68l12.32-1.71c21.91 28.61 54.47 44.69 85.14 40.84 25.77-3.24 44.93-19.57 44.93-19.57 9.15-7.81 14.84-16.13 18.17-21.92-6.92-9.65-19.39-23.65-39.2-32.17-41.85-18.01-81.95 3.26-90.06 7.85Zm-8 25.9c-1.82-2.1-3.57-4.29-5.28-6.57.54-.47 1.48-1.29 2.79-2.36 10.82-8.8 46.75-34.58 86.94-23.58 22.97 6.29 37.03 21.77 43.43 30.06-.44.62-.88 1.25-1.34 1.89-7.16 9.8-18.24 21.68-33.7 28.56-17.89 7.95-37.69 7.44-56.28-.49-13.15-5.6-25.71-14.9-36.57-27.52Zm-163.58-127.55c-20.71-6-39.24-3.12-50.71-.06-1.1 6.58-2 16.62.11 28.47 0 0 4.41 24.78 22.25 43.66 21.24 22.47 56.6 30.74 91.7 22.57l8.43 9.15c.09-9.47-.93-24.16-7.22-40.5-3.35-8.7-20.79-50.6-64.55-63.28Zm8.55 86.38c-19.39-5.69-35.01-17.87-43.77-35.39-7.57-15.13-8.57-31.35-7.87-43.47.05-.79.11-1.56.17-2.31 10.21-2.33 30.9-5.35 52.64 4.39 38.03 17.05 49.39 59.78 52.15 73.45.33 1.66.54 2.89.65 3.59-2.77.68-5.51 1.25-8.25 1.72-16.41 2.85-32.01 2.05-45.72-1.98" class="cls-2br3"/></svg>