<svg fill="none" xmlns="http://www.w3.org/2000/svg" width="300" height="300" viewBox="0 0 300 300"><g fill="#fff" stroke="#727271" stroke-width="10.842"><path d="M278.56 179.696c.372-41.327-32.153-75.124-72.647-75.489-40.494-.364-73.622 32.843-73.994 74.17s32.153 75.124 72.647 75.489c15.465.139 29.856-4.619 41.758-12.855l23.747 10.125-7.539-25.415c9.895-12.629 15.871-28.605 16.028-46.025z"/><path d="M130.412 243.654c57.113 0 103.412-45.365 103.412-101.327S187.525 41 130.412 41 27 86.366 27 142.327c0 21.372 6.753 41.199 18.282 57.544l-13.695 32.942 35.026-10.734c17.574 13.515 39.726 21.575 63.799 21.575z"/></g></svg>