<svg fill="none" xmlns="http://www.w3.org/2000/svg" width="300" height="300" viewBox="0 0 300 300"><g transform="translate(10 10)"><g clip-path="url(#a)"><path fill="#A47AD9" d="M120.132 189.187a13.89 13.89 0 0 1 11.128-7.458l19.284-1.687a13.89 13.89 0 0 1 14.046 8.523l28.431 68.628c3.79 9.147-2.933 19.21-12.834 19.21h-82.34c-10.411 0-17.123-11.029-12.34-20.276z"/><rect width="276" height="239.879" y="9" fill="#8859C2" rx="27.785"/><rect width="240.805" height="194.497" x="17.597" y="27.523" fill="#FCF7FF" rx="18.523"/><circle cx="242.195" cy="238.228" r="3.242" fill="#FFC444"/><circle cx="232.007" cy="238.228" r="2.315" fill="#FFC444"/><circle cx="222.745" cy="238.228" r="2.315" fill="#FFC444"/><rect width="174" height="164" x="51" y="43" fill="#EBCBFB" rx="8"/><path fill="#B150D2" d="M51 51a8 8 0 0 1 8-8h158a8 8 0 0 1 8 8v4H51z"/><path stroke="#fff" stroke-linecap="round" d="m213 47.342 4 3.721m0-3.721-4 3.721"/><rect width="4" height="3" x="203.5" y="47.5" stroke="#fff" rx=".5"/><path stroke="#fff" stroke-linecap="round" d="M198 51h-4"/></g><defs><clipPath id="a"><path fill="#fff" d="M0 0h276v276H0z"/></clipPath></defs></g></svg>