<svg xmlns="http://www.w3.org/2000/svg" viewBox="0 0 2000 2000" width="300" height="300" fill="none"><defs><style>.cls-3th1{fill:#4c0c0c}.cls-3th2{fill:#d39424}.cls-3th3{fill:#823b06}.cls-3th4{fill:#a54d05}.cls-3th5{fill:#b55804}.cls-3th6{fill:#c68214}.cls-3th7{fill:#c61a2f}.cls-3th8{fill:#7c0312}</style></defs><path d="M1000 1639.56c-84.97 0-167.4-19.04-245.01-56.58-74.95-36.26-142.27-88.17-200.07-154.28s-103.18-143.1-134.89-228.83c-32.83-88.77-49.47-183.05-49.47-280.23s16.64-191.47 49.47-280.23c31.7-85.73 77.09-162.72 134.89-228.83S680.03 292.56 754.99 256.3c77.61-37.55 160.04-56.58 245.01-56.58s167.4 19.04 245.01 56.58c74.95 36.26 142.27 88.17 200.07 154.28s103.18 143.1 134.89 228.83c32.83 88.77 49.47 183.05 49.47 280.23s-16.64 191.47-49.47 280.23c-31.7 85.73-77.09 162.72-134.89 228.83s-125.11 118.02-200.07 154.28c-77.61 37.55-160.04 56.58-245.01 56.58m0-1408.66c-332.03 0-602.15 308.96-602.15 688.73s270.12 688.73 602.15 688.73 602.15-308.96 602.15-688.73S1332.03 230.9 1000 230.9" class="cls-3th7"/><path d="M986.29 1650.69c-89.03 0-175.39-19.79-256.7-58.83-78.53-37.71-149.06-91.69-209.63-160.44-60.57-68.76-108.12-148.83-141.34-237.99-34.4-92.31-51.83-190.37-51.83-291.45s17.44-199.14 51.83-291.45c33.22-89.16 80.77-169.23 141.34-237.99S651.06 249.8 729.59 212.1c81.31-39.04 167.67-58.83 256.7-58.83s175.39 19.79 256.7 58.83c78.53 37.71 149.06 91.69 209.63 160.44 60.57 68.76 108.12 148.83 141.34 237.99 34.39 92.31 51.83 190.37 51.83 291.45s-17.44 199.14-51.83 291.45c-33.22 89.16-80.77 169.23-141.34 237.99s-131.1 122.74-209.63 160.44c-81.31 39.04-167.67 58.83-256.7 58.83m0-1485.31c-357.81 0-648.91 330.44-648.91 736.59s291.1 736.6 648.91 736.6 648.91-330.44 648.91-736.6-291.1-736.59-648.91-736.59" class="cls-3th7"/><path d="M1024.73 1648.16c-88.15 0-173.66-19.51-254.16-57.99-77.76-37.17-147.59-90.37-207.56-158.14s-107.06-146.69-139.95-234.57c-34.05-90.98-51.32-187.63-51.32-287.26s17.27-196.27 51.32-287.26c32.89-87.88 79.98-166.79 139.95-234.57 59.97-67.77 129.8-120.97 207.56-158.14 80.5-38.48 166.02-57.99 254.16-57.99s173.66 19.51 254.16 57.99c77.76 37.17 147.59 90.37 207.56 158.14s107.06 146.69 139.95 234.57c34.05 90.98 51.32 187.63 51.32 287.26s-17.27 196.27-51.32 287.26c-32.89 87.88-79.98 166.8-139.95 234.57s-129.8 120.97-207.56 158.14c-80.5 38.48-166.02 57.99-254.16 57.99m0-1468.85c-356.66 0-646.83 327.88-646.83 730.9s290.17 730.9 646.83 730.9 646.83-327.88 646.83-730.9-290.16-730.9-646.83-730.9" class="cls-3th7"/><path d="M450.23 1396.64c-1.61 0-3.23-.56-4.53-1.71-69.54-61.39-124.62-134.77-163.71-218.12-31.97-68.17-52.09-140.93-59.79-216.24a6.854 6.854 0 0 1 6.11-7.51c3.75-.38 7.12 2.35 7.51 6.11 7.55 73.78 27.25 145.05 58.57 211.82 38.29 81.64 92.25 153.53 160.37 213.67a6.848 6.848 0 0 1-4.53 11.98" class="cls-3th1"/><path d="m381.22 1322.48-139.55-23.63a6.843 6.843 0 0 1-5.61-7.89c.63-3.73 4.17-6.23 7.89-5.61l126.3 21.39 22.44-118.96c.7-3.71 4.28-6.16 8-5.46 3.71.7 6.16 4.28 5.46 8zm-87.32-125.79-110.5-46.5c-2.98-1.25-4.38-4.69-3.13-7.67s4.69-4.38 7.67-3.13l99.82 42.01 41.64-96.03a5.847 5.847 0 0 1 7.7-3.04 5.847 5.847 0 0 1 3.04 7.7l-46.25 106.66Zm-42.58-119.92-88.3-48.75a5.33 5.33 0 0 1-2.09-7.25 5.33 5.33 0 0 1 7.25-2.09l78.42 43.3 45.4-94.22a5.337 5.337 0 0 1 7.13-2.49 5.337 5.337 0 0 1 2.49 7.13l-50.3 104.39Z" class="cls-3th1"/><circle cx="406.25" cy="1174.83" r="35.73" class="cls-3th8"/><circle cx="229.01" cy="1287.56" r="35.73" class="cls-3th8"/><circle cx="339.62" cy="1087.71" r="31.07" class="cls-3th8"/><circle cx="180.48" cy="1145.94" r="31.07" class="cls-3th8"/><circle cx="159.16" cy="1019.71" r="26.52" class="cls-3th8"/><circle cx="296.82" cy="970.06" r="26.52" class="cls-3th8"/><circle cx="229.01" cy="943.54" r="26.52" class="cls-3th8"/><path d="M1549.77 1396.64c-1.9 0-3.78-.78-5.13-2.32a6.85 6.85 0 0 1 .6-9.66c68.13-60.14 122.09-132.03 160.37-213.67 31.32-66.78 51.02-138.04 58.57-211.82.38-3.76 3.75-6.49 7.51-6.11s6.5 3.74 6.11 7.51c-7.71 75.32-27.82 148.07-59.79 216.24-39.09 83.35-94.17 156.74-163.71 218.12a6.8 6.8 0 0 1-4.53 1.71" class="cls-3th1"/><path d="m1618.78 1322.48-24.93-132.16c-.7-3.71 1.74-7.29 5.46-8 3.71-.7 7.29 1.74 8 5.46l22.44 118.96 126.3-21.39a6.843 6.843 0 0 1 7.89 5.61 6.843 6.843 0 0 1-5.61 7.89zm87.32-125.79-46.25-106.66c-1.29-2.97.08-6.41 3.04-7.7 2.97-1.29 6.41.08 7.7 3.04l41.64 96.03 99.82-42.01c2.98-1.25 6.41.15 7.67 3.13a5.857 5.857 0 0 1-3.13 7.67l-110.5 46.5Zm42.58-119.92-50.3-104.39a5.346 5.346 0 0 1 2.49-7.13 5.346 5.346 0 0 1 7.13 2.49l45.4 94.22 78.42-43.3c2.58-1.42 5.83-.49 7.25 2.09 1.43 2.58.49 5.83-2.09 7.25l-88.3 48.75Z" class="cls-3th1"/><circle cx="1593.75" cy="1174.83" r="35.73" class="cls-3th8"/><circle cx="1770.99" cy="1287.56" r="35.73" class="cls-3th8"/><circle cx="1660.38" cy="1087.71" r="31.07" class="cls-3th8"/><circle cx="1819.52" cy="1145.94" r="31.07" class="cls-3th8"/><circle cx="1840.84" cy="1019.71" r="26.52" class="cls-3th8"/><circle cx="1703.18" cy="970.06" r="26.52" class="cls-3th8"/><circle cx="1770.99" cy="943.54" r="26.52" class="cls-3th8"/><path d="M1393.73 1611.11c23.2-46.05 41.28-94.38 51.86-144.78 14.14-64.68 15.77-131.34 8.25-197.1 13.05 57.81 13.94 118.51 3.82 176.92-10.22 58.37-31.63 115.29-63.93 164.97Z" class="cls-3th1"/><path d="M1464.34 1497.08c16.11 12.5 29.79 14.88 37.69 15.26 38.53 1.85 79.66-37.21 96.19-98.79-69.32-5.82-123.42 16.43-134.51 51.24-2.24 7.01-3.71 17.63.64 32.29Z" class="cls-3th2"/><path d="M1598.22 1413.54c-16.53 61.58-57.66 100.64-96.18 98.79-7.9-.38-21.58-2.76-37.69-15.25-.98-3.33-1.67-6.45-2.11-9.36 6.72 2.13 12.39 2.83 16.62 3.03 36.46 1.76 74.94-28.17 98.2-78.12 6.87 0 13.93.31 21.16.92Z" class="cls-3th6"/><path d="M1405.4 1548.02c-20.08 3.53-33.29-.75-40.45-4.1-34.94-16.35-53.07-70.1-38.93-132.27 64.01 27.22 101.46 72.16 95.02 108.12-1.3 7.25-4.95 17.32-15.64 28.26Z" class="cls-3th2"/><path d="M1326.02 1411.64c-14.14 62.18 3.99 115.92 38.92 132.27 7.16 3.35 20.37 7.64 40.45 4.11 2.43-2.49 4.49-4.92 6.24-7.3-6.94-1.26-12.28-3.28-16.11-5.08-33.06-15.47-53.12-59.9-50.36-114.93-6.08-3.2-12.47-6.24-19.14-9.07" class="cls-3th6"/><path d="M1473.72 1336.79c13.35 10.36 24.69 12.33 31.23 12.64 31.93 1.53 66.01-30.83 79.7-81.86-57.44-4.82-102.26 13.61-111.46 42.46-1.85 5.81-3.07 14.61.53 26.76" class="cls-3th2"/><path d="M1584.65 1267.57c-13.7 51.03-47.77 83.39-79.7 81.86-6.55-.32-17.88-2.28-31.23-12.64-.82-2.76-1.39-5.35-1.75-7.76 5.57 1.76 10.27 2.34 13.77 2.51 30.21 1.46 62.1-23.34 81.37-64.73 5.69 0 11.55.25 17.54.76" class="cls-3th6"/><path d="M1452.39 1260.45c-12.89-1.94-20.02-7.22-23.68-10.71-17.84-17.01-17.91-53.26 3.29-88.06 33.26 29.5 46.82 64.34 35.6 84.82-2.26 4.13-6.52 9.49-15.22 13.94Z" class="cls-3th2"/><path d="M1432 1161.68c-21.2 34.8-21.14 71.05-3.3 88.06 3.66 3.49 10.79 8.77 23.68 10.71a44 44 0 0 0 5.26-3.15c-3.95-2.17-6.77-4.48-8.73-6.35-16.89-16.1-20.01-47.09-7.16-79.88-3.03-3.17-6.29-6.31-9.76-9.39Z" class="cls-3th6"/><path d="M1428.84 1400.82c-16.64 2.93-27.59-.62-33.52-3.4-28.95-13.55-43.97-58.08-32.26-109.6 53.04 22.56 84.07 59.79 78.73 89.59-1.08 6-4.1 14.35-12.96 23.42Z" class="cls-3th2"/><path d="M1363.07 1287.81c-11.71 51.52 3.31 96.05 32.25 109.6 5.94 2.78 16.88 6.33 33.52 3.41 2.01-2.06 3.72-4.08 5.17-6.05-5.75-1.04-10.17-2.72-13.35-4.21-27.4-12.82-44.02-49.64-41.73-95.23-5.04-2.65-10.33-5.17-15.86-7.52" class="cls-3th6"/><path d="M606.27 1611.11c-32.3-49.68-53.71-106.6-63.93-164.97-10.12-58.4-9.23-119.11 3.82-176.92-7.52 65.76-5.89 132.42 8.25 197.1 10.58 50.41 28.67 98.73 51.86 144.78Z" class="cls-3th1"/><path d="M535.66 1497.08c-16.11 12.5-29.79 14.88-37.69 15.26-38.53 1.85-79.66-37.21-96.19-98.79 69.32-5.82 123.42 16.43 134.51 51.24 2.24 7.01 3.71 17.63-.64 32.29Z" class="cls-3th2"/><path d="M401.78 1413.54c16.53 61.58 57.66 100.64 96.18 98.79 7.9-.38 21.58-2.76 37.69-15.25.98-3.33 1.67-6.45 2.11-9.36-6.72 2.13-12.39 2.83-16.62 3.03-36.46 1.76-74.94-28.17-98.2-78.12-6.87 0-13.93.31-21.16.92Z" class="cls-3th6"/><path d="M594.6 1548.02c20.08 3.53 33.29-.75 40.45-4.1 34.94-16.35 53.07-70.1 38.93-132.27-64.01 27.22-101.46 72.16-95.02 108.12 1.3 7.25 4.95 17.32 15.64 28.26Z" class="cls-3th2"/><path d="M673.98 1411.64c14.14 62.18-3.99 115.92-38.92 132.27-7.16 3.35-20.37 7.64-40.45 4.11-2.43-2.49-4.49-4.92-6.24-7.3 6.94-1.26 12.28-3.28 16.11-5.08 33.06-15.47 53.12-59.9 50.36-114.93 6.08-3.2 12.47-6.24 19.14-9.07" class="cls-3th6"/><path d="M526.28 1336.79c-13.35 10.36-24.69 12.33-31.23 12.64-31.93 1.53-66.01-30.83-79.7-81.86 57.44-4.82 102.26 13.61 111.46 42.46 1.85 5.81 3.07 14.61-.53 26.76" class="cls-3th2"/><path d="M415.35 1267.57c13.7 51.03 47.77 83.39 79.7 81.86 6.55-.32 17.88-2.28 31.23-12.64.82-2.76 1.39-5.35 1.75-7.76-5.57 1.76-10.27 2.34-13.77 2.51-30.21 1.46-62.1-23.34-81.37-64.73-5.69 0-11.55.25-17.54.76" class="cls-3th6"/><path d="M547.61 1260.45c12.89-1.94 20.02-7.22 23.68-10.71 17.84-17.01 17.91-53.26-3.29-88.06-33.26 29.5-46.82 64.34-35.6 84.82 2.26 4.13 6.52 9.49 15.22 13.94Z" class="cls-3th2"/><path d="M568 1161.68c21.2 34.8 21.14 71.05 3.3 88.06-3.66 3.49-10.79 8.77-23.68 10.71a44 44 0 0 1-5.26-3.15c3.95-2.17 6.77-4.48 8.73-6.35 16.89-16.1 20.01-47.09 7.16-79.88 3.03-3.17 6.29-6.31 9.76-9.39Z" class="cls-3th6"/><path d="M571.16 1400.82c16.64 2.93 27.59-.62 33.52-3.4 28.95-13.55 43.97-58.08 32.26-109.6-53.04 22.56-84.07 59.79-78.73 89.59 1.08 6 4.1 14.35 12.96 23.42Z" class="cls-3th2"/><path d="M636.93 1287.81c11.71 51.52-3.31 96.05-32.25 109.6-5.94 2.78-16.88 6.33-33.52 3.41-2.01-2.06-3.72-4.08-5.17-6.05 5.75-1.04 10.17-2.72 13.35-4.21 27.4-12.82 44.02-49.64 41.73-95.23 5.04-2.65 10.33-5.17 15.86-7.52" class="cls-3th6"/><circle cx="1708.45" cy="869.92" r="18.4" class="cls-3th2"/><circle cx="1831.54" cy="851.52" r="18.4" class="cls-3th2"/><circle cx="1925.9" cy="1081.97" r="18.4" class="cls-3th2"/><circle cx="291.55" cy="888.32" r="18.4" class="cls-3th2"/><circle cx="168.46" cy="869.92" r="18.4" class="cls-3th2"/><circle cx="74.1" cy="1100.37" r="18.4" class="cls-3th2"/><path d="M914.67 1635.05c12.26-2.63 22.85-8.01 32.76-17.5 5.69-5.78 8.55-14.1 7.87-21.85-1.73-25.09-6.9-49.02-10.39-73.82-1.85-11.18-3.5-24.8-15.94-30.6-3.92-1.77-8.43.19-9.12 3.32-4.83 18.32 2.3 43.13-15.17 54.48-3.24 2.35-6.66-3.73-8.52-7.66-10.06-24.32-20.03-48.05-41.28-63.27-25.36-18.17-52-33.1-84.15-37.45-1.84-.15-3.62-.4-5.34-.48-.43 20.65 2.32 56.12 23.87 91.02 8.44 13.66 17.91 24.26 26.47 32.27-8.3-.31-21.27.25-35.98 5.41-19.53 6.84-32.19 18.3-38.47 24.87 9.7 13.27 26.14 32.08 51.25 46.97 40.31 6.75 82.13 3.78 122.13-5.7Z" class="cls-3th5"/><path d="M980.9 1503.26c-16.94-47.83-53.63-72.32-65.96-79.82-3.65 4.75-7.51 10.58-10.98 17.55-7.68 15.4-10.19 29.78-11.01 39.78a230 230 0 0 0-40.21-24.83c-34.01-16.43-65.57-21.28-87.06-22.64-.12 2.06-.22 4.37-.27 6.91 1.73.08 3.5.33 5.34.48 32.14 4.35 58.78 19.29 84.15 37.45 21.25 15.22 31.22 38.95 41.28 63.27 1.86 3.92 5.28 10 8.52 7.66 17.46-11.35 10.34-36.15 15.17-54.48.69-3.14 5.2-5.09 9.12-3.32 12.44 5.8 14.09 19.43 15.94 30.6 3.5 24.8 8.66 48.72 10.39 73.82.68 7.74-2.18 16.07-7.87 21.85-9.91 9.49-20.5 14.87-32.76 17.5-40 9.48-81.82 12.45-122.13 5.7 2.95 1.75 6 3.44 9.19 5.07 71.72 36.53 144.57 7.02 156.75 1.86 4.62-6.5 48.55-70.63 22.41-144.41Z" class="cls-3th5"/><path d="M980.9 1503.26c-16.94-47.83-53.63-72.32-65.96-79.82-3.65 4.75-7.51 10.58-10.98 17.55-7.68 15.4-10.19 29.78-11.01 39.78a230 230 0 0 0-40.21-24.83c-34.01-16.43-65.57-21.28-87.06-22.64-.12 2.06-.22 4.37-.27 6.91.86.04 1.74.12 2.63.21 0 0 1.38.12 2.72.27 51.34 5.44 107.31 66.6 107.31 66.6 21.99 24.02 26.66 36.09 33.98 34.3 17.41-4.26 7.58-76.58 15.33-77.63 8.21-1.11 56.4 75.12 16.49 138.91-30.25 48.34-96.69 66.52-151.3 37.87 2.95 1.75 6 3.44 9.19 5.07 71.72 36.53 144.57 7.02 156.75 1.86 4.62-6.5 48.55-70.63 22.41-144.41Z" class="cls-3th4"/><path d="M807.53 1478.23c58.24 40.03 107.45 93.24 143.21 154.18 2.19 3.68 4.87 8.55 6.92 12.31l-7.72-11.8c-38.86-58.77-87.15-110.97-142.4-154.68Z" class="cls-3th3"/><path d="M1082.39 1633.74c-12.26-2.63-22.85-8.01-32.76-17.5-5.69-5.78-8.55-14.1-7.87-21.85 1.73-25.09 6.9-49.02 10.39-73.82 1.85-11.18 3.5-24.8 15.94-30.6 3.92-1.77 8.43.19 9.12 3.32 4.83 18.32-2.3 43.13 15.17 54.48 3.24 2.35 6.66-3.73 8.52-7.66 10.06-24.32 20.03-48.05 41.28-63.27 25.36-18.17 52-33.1 84.15-37.45 1.84-.15 3.62-.4 5.34-.48.43 20.65-2.32 56.12-23.87 91.02-8.44 13.66-17.91 24.26-26.47 32.27 8.3-.31 21.27.25 35.98 5.41 19.53 6.84 32.19 18.3 38.47 24.87-9.7 13.27-26.14 32.08-51.25 46.97-40.31 6.75-82.13 3.78-122.13-5.7Z" class="cls-3th5"/><path d="M1016.17 1501.94c16.94-47.83 53.63-72.32 65.96-79.82 3.65 4.75 7.51 10.58 10.98 17.55 7.68 15.4 10.19 29.78 11.01 39.78a230 230 0 0 1 40.21-24.83c34.01-16.43 65.57-21.28 87.06-22.64.12 2.06.22 4.37.27 6.91-1.73.08-3.5.33-5.34.48-32.14 4.35-58.78 19.29-84.15 37.45-21.25 15.22-31.22 38.95-41.28 63.27-1.86 3.92-5.28 10-8.52 7.66-17.46-11.35-10.34-36.15-15.17-54.48-.69-3.14-5.2-5.09-9.12-3.32-12.44 5.8-14.09 19.43-15.94 30.6-3.5 24.8-8.66 48.72-10.39 73.82-.68 7.74 2.18 16.07 7.87 21.85 9.91 9.49 20.5 14.87 32.76 17.5 40 9.48 81.82 12.45 122.13 5.7-2.95 1.75-6 3.44-9.19 5.07-71.72 36.53-144.57 7.02-156.75 1.86-4.62-6.5-48.55-70.63-22.41-144.41Z" class="cls-3th5"/><path d="M1016.17 1501.94c16.94-47.83 53.63-72.32 65.96-79.82 3.65 4.75 7.51 10.58 10.98 17.55 7.68 15.4 10.19 29.78 11.01 39.78a230 230 0 0 1 40.21-24.83c34.01-16.43 65.57-21.28 87.06-22.64.12 2.06.22 4.37.27 6.91-.86.04-1.74.12-2.63.21 0 0-1.38.12-2.72.27-51.34 5.44-107.31 66.6-107.31 66.6-21.99 24.02-26.66 36.09-33.98 34.3-17.41-4.26-7.58-76.58-15.33-77.63-8.21-1.11-56.4 75.12-16.49 138.91 30.25 48.34 96.69 66.52 151.3 37.87-2.95 1.75-6 3.44-9.19 5.07-71.72 36.53-144.57 7.02-156.75 1.86-4.62-6.5-48.55-70.63-22.41-144.41Z" class="cls-3th4"/><path d="M1189.54 1476.92c-55.25 43.71-103.54 95.92-142.4 154.68l-7.72 11.8c2.05-3.79 4.78-8.69 6.92-12.31 35.75-60.94 84.96-114.15 143.21-154.18Z" class="cls-3th3"/><path d="M998.54 1651.49c-1.66 0-3.32-.7-4.48-2.06a5.91 5.91 0 0 1 .64-8.33c59.49-51.05 106.9-112.41 140.92-182.37 27.82-57.22 45.68-118.46 53.08-182.01a5.904 5.904 0 0 1 6.55-5.18c3.24.38 5.56 3.31 5.18 6.55-7.56 64.87-25.79 127.39-54.19 185.8-34.72 71.42-83.12 134.06-143.85 186.17a5.84 5.84 0 0 1-3.84 1.42Z" class="cls-3th1"/><path d="m1058.88 1588.35-19.91-114.3a5.905 5.905 0 0 1 4.8-6.83 5.905 5.905 0 0 1 6.83 4.8l17.92 102.88 109.2-16.93c3.22-.5 6.24 1.71 6.74 4.93s-1.71 6.24-4.93 6.74l-120.66 18.7Zm76.83-107.45-38.61-92.56a5.06 5.06 0 0 1 2.72-6.61c2.57-1.07 5.53.14 6.61 2.72l34.76 83.34 86.61-35.03c2.59-1.04 5.53.2 6.58 2.79a5.05 5.05 0 0 1-2.79 6.58l-95.87 38.78Zm38.18-102.93-42.13-90.65a4.607 4.607 0 1 1 8.36-3.88l38.03 81.82 68.16-36.4c2.24-1.2 5.03-.35 6.23 1.89s.35 5.03-1.89 6.23l-76.75 40.99Z" class="cls-3th1"/><circle cx="1039.07" cy="1460.69" r="30.82" class="cls-3th2"/><circle cx="1190.59" cy="1560.06" r="30.82" class="cls-3th2"/><circle cx="1097.6" cy="1386.34" r="26.8" class="cls-3th2"/><circle cx="1234.17" cy="1438.49" r="26.8" class="cls-3th2"/><circle cx="1254.08" cy="1329.87" r="22.88" class="cls-3th2"/><circle cx="1135.94" cy="1285.38" r="22.88" class="cls-3th2"/><circle cx="1194.75" cy="1263.32" r="22.88" class="cls-3th2"/><path d="M998.53 1649.64c-1.06 0-2.13-.36-2.99-1.11-47.32-40.61-85.04-89.42-112.1-145.08-22.13-45.52-36.34-94.24-42.23-144.79a4.6 4.6 0 0 1 4.04-5.1 4.593 4.593 0 0 1 5.1 4.04c5.77 49.52 19.68 97.24 41.36 141.83 26.51 54.52 63.45 102.33 109.81 142.12a4.606 4.606 0 0 1-2.99 8.1Z" class="cls-3th1"/><path d="m951.51 1600.44-94.03-14.57a4.6 4.6 0 0 1 1.41-9.09l85.1 13.19 13.97-80.17c.44-2.5 2.82-4.18 5.32-3.74s4.18 2.82 3.74 5.32l-15.52 89.07Zm-59.88-83.74-74.71-30.22a3.92 3.92 0 0 1-2.17-5.12 3.925 3.925 0 0 1 5.12-2.17l67.49 27.3 27.09-64.94a3.934 3.934 0 0 1 5.15-2.12c2.01.84 2.95 3.14 2.12 5.15l-30.08 72.13Zm-29.75-80.21-59.81-31.94a3.595 3.595 0 0 1-1.48-4.86 3.595 3.595 0 0 1 4.86-1.48l53.12 28.37 29.63-63.76c.84-1.8 2.97-2.58 4.77-1.74s2.58 2.97 1.74 4.77z" class="cls-3th1"/><circle cx="966.95" cy="1500.95" r="24.02" class="cls-3th2"/><circle cx="848.87" cy="1578.39" r="24.02" class="cls-3th2"/><circle cx="921.34" cy="1443.01" r="20.89" class="cls-3th2"/><circle cx="814.91" cy="1483.66" r="20.89" class="cls-3th2"/><circle cx="799.39" cy="1399.01" r="17.83" class="cls-3th2"/><circle cx="891.46" cy="1364.34" r="17.83" class="cls-3th2"/><circle cx="845.63" cy="1347.15" r="17.83" class="cls-3th2"/><path d="M369.25 1607.91c-.5 1.27-1.17 2.89-2.02 4.85-.84 1.96-1.88 4.36-3.11 7.2s-2.66 6.15-4.3 9.93-3.49 8.11-5.57 13c4.78 1.71 9.38 3.34 13.79 4.92 4.41 1.57 8.76 3.12 13.05 4.64s8.59 3.04 12.9 4.57c4.3 1.52 12.21 5.19 13.32 4.68.93-.42 2.44-6.18 3.67-9.27s2.54-6.33 3.94-9.74 2.93-7.06 4.59-10.96q2.49-5.85 5.61-12.93c.27-.66.69-1.16 1.26-1.49s1.23-.55 1.97-.65 1.52-.09 2.35.03 1.62.31 2.4.58c.93.33 1.9.79 2.89 1.4 1 .61 1.94 1.3 2.82 2.09-2.23 4.88-4.33 9.56-6.31 14.04-1.97 4.48-3.85 8.86-5.63 13.14s-3.51 8.51-5.19 12.7-3.33 8.43-4.94 12.73-3.23 8.7-4.85 13.2q-2.445 6.75-5.01 14.13c-1.14 3.26-1.95 6.09-2.45 8.51q-.75 3.615-.36 6.21c.26 1.73.92 3.15 1.99 4.28s2.58 2.02 4.53 2.69c1.4.48 2.89.88 4.47 1.19s3.6.47 6.08.48c.07 1.71.1 2.57.17 4.28-2.79.13-5.38.19-7.75.17-2.37-.01-4.56-.11-6.55-.27-2-.17-3.83-.41-5.49-.73s-3.21-.73-4.66-1.23c-1.96-.68-3.56-1.62-4.8-2.8s-2.08-2.7-2.53-4.55c-.44-1.85-.46-4.09-.06-6.71s1.24-5.74 2.54-9.36c1.49-4.18 2.24-6.26 3.73-10.44.86-2.42 1.7-4.73 2.5-6.91.8-2.19 1.58-4.3 2.35-6.34s1.51-4.02 2.23-5.94 1.46-3.82 2.2-5.69c-4.58-1.63-9.02-3.22-13.31-4.76-4.3-1.54-8.6-3.06-12.92-4.58-4.31-1.51-8.7-3.04-13.16-4.58s-9.1-3.13-13.92-4.79c-7.24 16.74-14.5 33.47-21.77 50.2-5.04-1.36-7.56-2.05-12.59-3.45-.35-.18-.53-.28-.88-.46 3.91-8.5 7.59-16.59 11.05-24.26 3.46-7.68 6.79-15.15 9.99-22.43a1463 1463 0 0 0 18.21-43.3c.57-1.42.96-2.68 1.16-3.77s.14-2.08-.18-2.94c-.32-.87-.92-1.64-1.81-2.34-.89-.69-2.11-1.36-3.67-1.99-2.1-.86-4.88-1.73-8.34-2.64l1.07-3.94c5.06.79 9.3 1.55 12.73 2.29s6.23 1.54 8.39 2.4c2.13.85 3.69 1.78 4.69 2.79s1.59 2.15 1.77 3.43.03 2.7-.43 4.26c-.47 1.57-1.08 3.32-1.84 5.26Zm111.65 90.71c.75-2.46.96-4.73.64-6.8s-1.01-3.9-2.06-5.48a15 15 0 0 0-3.97-4.04 18.5 18.5 0 0 0-5.04-2.5c-2.37-.74-4.44-1.15-6.22-1.2s-3.31.16-4.58.64c-1.28.48-2.32 1.2-3.12 2.15-.81.96-1.41 2.07-1.82 3.34q-.72 2.235-.57 4.77c.1 1.69.49 3.44 1.18 5.23-.15.18-.22.27-.37.45-2.2.25-4.27.06-6.22-.57-1.14-.37-2.16-.88-3.04-1.53-.89-.65-1.59-1.4-2.11-2.26s-.84-1.8-.96-2.84c-.12-1.03 0-2.11.37-3.22.6-1.82 1.65-3.38 3.13-4.68 1.48-1.29 3.22-2.35 5.22-3.17s4.2-1.42 6.6-1.81 4.81-.59 7.24-.62 4.8.11 7.13.42 4.44.75 6.34 1.34c3.49 1.08 6.34 2.43 8.56 4.06s3.85 3.51 4.9 5.64c1.05 2.14 1.59 4.49 1.6 7.08s-.42 5.38-1.31 8.37c-.61 2.06-1.38 4.29-2.3 6.7q-1.38 3.615-2.94 7.56a395 395 0 0 0-3.13 8.16c-1.05 2.81-1.99 5.64-2.84 8.48-1.34 4.49-1.43 8.14-.25 10.96 1.18 2.81 3.28 4.66 6.29 5.54 2.67.78 5.91.76 9.71-.08.37.98.56 1.47.93 2.45-2.92 1.43-5.92 2.3-8.98 2.59-3.06.3-6.11 0-9.13-.9-2.26-.67-4.24-1.63-5.94-2.89s-3.04-2.78-4.02-4.55c-.97-1.77-1.53-3.81-1.66-6.09-.13-2.29.22-4.78 1.05-7.49.25-.81.52-1.61.82-2.4s.67-1.62 1.12-2.47c-.12-.04-.18-.06-.31-.09-2.29 2.23-4.81 4.34-7.55 6.34-2.75 2-5.6 3.65-8.57 4.95-2.97 1.31-5.97 2.17-9.01 2.58-3.04.42-6.02.15-8.92-.78-2.38-.77-4.44-1.85-6.16-3.24s-3.07-2.96-4.03-4.72-1.54-3.66-1.72-5.69.08-4.1.78-6.2c.91-2.72 2.29-5 4.13-6.86 1.85-1.86 4.04-3.34 6.57-4.46q3.795-1.68 8.49-2.28t9.87-.36c3.45.16 7.02.59 10.71 1.28s7.38 1.6 11.07 2.73c.84-1.89 1.61-3.73 2.32-5.52a77 77 0 0 0 2.08-6Zm-41.33 22.15q-.585 1.815-.69 3.6c-.07 1.19.08 2.31.45 3.35.36 1.04.96 1.96 1.78 2.76q1.23 1.2 3.3 1.86c1.55.5 3.25.68 5.11.55s3.77-.51 5.73-1.16 3.92-1.54 5.87-2.69c1.96-1.15 3.81-2.49 5.56-4.03s3.33-3.24 4.74-5.11a29 29 0 0 0 3.49-6.01c-2.53-.71-5.08-1.33-7.63-1.87s-5.02-.91-7.4-1.11-4.65-.21-6.81 0c-2.16.2-4.12.67-5.88 1.42s-3.3 1.81-4.61 3.18-2.32 3.12-3.01 5.26m69.26-29.43c4.06.02 7.5.07 10.33.17 2.83.09 5.19.2 7.09.32s3.37.25 4.43.4q1.59.21 2.34.42c.84.23 1.59.56 2.26 1s1.21 1.01 1.61 1.73.62 1.59.66 2.63-.13 2.27-.51 3.68c-.13.47-.4 1.39-.83 2.76s-1.04 3.25-1.83 5.65c-.8 2.4-1.78 5.33-2.96 8.81-1.18 3.47-2.59 7.55-4.23 12.23.24.09.36.13.6.21 4.33-5.37 8.65-9.99 12.98-13.88 4.33-3.88 8.48-7.02 12.47-9.42 3.99-2.39 7.76-4.02 11.31-4.88s6.73-.94 9.56-.24q3.435.855 5.76 2.7a15.5 15.5 0 0 1 3.79 4.34c.97 1.66 1.69 3.47 2.15 5.44s.73 3.98.82 6.02c.09 2.05.02 4.08-.21 6.1s-.54 3.89-.95 5.6c-1.11 4.66-2.65 8.89-4.66 12.69q-3 5.715-6.93 10.11c-2.62 2.94-5.49 5.43-8.61 7.48-3.13 2.05-6.36 3.62-9.7 4.72a37.5 37.5 0 0 1-10.13 1.87c-3.41.15-6.72-.19-9.9-1.02-3.39-.89-6.56-2.31-9.47-4.27-2.92-1.96-5.44-4.6-7.57-7.91-2.53 7.78-5.14 15.81-7.83 24.11-2.69 8.29-5.3 17-7.84 26.13-4.63-.78-6.95-1.18-11.58-2-.45-.15-.67-.22-1.11-.36 2.19-5.71 4.41-11.72 6.68-18.03s4.5-12.66 6.7-19.04 4.33-12.67 6.4-18.87 3.97-12.03 5.72-17.49c1.74-5.46 3.3-10.43 4.67-14.89 1.37-4.47 2.47-8.17 3.29-11.12.33-1.19.55-2.25.67-3.18.11-.93.06-1.75-.16-2.45s-.66-1.31-1.31-1.81c-.66-.5-1.59-.93-2.8-1.27-1.24-.35-2.79-.65-4.64-.91s-4.12-.45-6.81-.58l.25-3.69Zm11.58 60.47c2.33 3.06 4.83 5.53 7.48 7.38 2.66 1.86 5.47 3.17 8.44 3.95 3.91 1.02 7.71 1.2 11.38.55 3.68-.66 7.08-2.17 10.21-4.55 3.12-2.37 5.89-5.59 8.3-9.64s4.32-8.97 5.74-14.76c.53-2.15.89-4.41 1.09-6.77s.15-4.56-.16-6.6-.94-3.8-1.88-5.29-2.29-2.46-4.05-2.9c-2.07-.52-4.24-.54-6.52-.07s-4.6 1.31-6.96 2.5c-2.35 1.19-4.71 2.69-7.07 4.49s-4.67 3.76-6.91 5.88a92 92 0 0 0-6.4 6.68c-2.02 2.34-3.87 4.65-5.54 6.93s-3.12 4.47-4.34 6.56c-1.22 2.1-2.15 3.99-2.8 5.67Zm73.94-38.06c4.04-.19 7.47-.31 10.3-.37 2.82-.05 5.18-.07 7.08-.05 1.89.03 3.37.08 4.44.17 1.06.09 1.85.18 2.36.3.84.19 1.61.48 2.31.88.69.4 1.25.95 1.69 1.64s.7 1.56.79 2.6-.01 2.27-.32 3.7c-.1.48-.33 1.41-.69 2.8-.35 1.39-.87 3.3-1.54 5.74s-1.51 5.42-2.51 8.95-2.2 7.68-3.6 12.43l.61.18c4.04-5.58 8.12-10.42 12.23-14.53 4.11-4.1 8.09-7.45 11.95-10.04s7.53-4.41 11.02-5.45 6.66-1.29 9.51-.73q3.465.675 5.88 2.4a15.6 15.6 0 0 1 4 4.14c1.05 1.61 1.86 3.38 2.42 5.32s.93 3.93 1.12 5.97.22 4.07.1 6.1c-.13 2.03-.35 3.91-.67 5.64-.87 4.71-2.2 9.01-4 12.92-1.8 3.9-3.93 7.39-6.39 10.46s-5.19 5.7-8.2 7.91-6.15 3.94-9.42 5.21-6.6 2.06-10 2.39c-3.39.33-6.7.16-9.91-.51-3.43-.71-6.65-1.97-9.65-3.78-3.01-1.81-5.65-4.31-7.93-7.51-2.13 7.9-4.33 16.05-6.59 24.47s-4.43 17.25-6.5 26.49c-4.65-.54-6.98-.82-11.63-1.4-.45-.12-.68-.18-1.13-.31 1.89-5.81 3.81-11.93 5.75-18.35s3.85-12.87 5.72-19.36q2.805-9.735 5.43-19.17c1.75-6.3 3.35-12.22 4.81-17.76s2.76-10.58 3.91-15.11c1.14-4.53 2.05-8.29 2.72-11.28q.405-1.815.51-3.21c.07-.94-.03-1.75-.28-2.44-.26-.69-.72-1.27-1.4-1.74s-1.63-.84-2.85-1.12c-1.26-.29-2.81-.51-4.67-.67s-4.12-.23-6.81-.23c.02-1.48.04-2.22.06-3.7Zm14.56 59.78c2.47 2.94 5.09 5.27 7.82 6.99 2.74 1.72 5.61 2.89 8.6 3.51 3.94.82 7.74.81 11.37-.04s6.95-2.54 9.94-5.07 5.59-5.88 7.78-10.05c2.2-4.17 3.85-9.18 4.97-15.03.42-2.17.67-4.45.75-6.82s-.08-4.57-.49-6.58c-.41-2.02-1.12-3.75-2.14-5.19-1.01-1.44-2.41-2.34-4.18-2.69-2.08-.41-4.25-.32-6.5.27s-4.52 1.54-6.8 2.85-4.56 2.92-6.82 4.85c-2.26 1.92-4.46 4-6.59 6.22a92 92 0 0 0-6.04 7c-1.9 2.44-3.62 4.84-5.17 7.2q-2.325 3.54-3.99 6.78c-1.11 2.16-1.95 4.09-2.5 5.8Z" class="cls-3th1"/><path d="M701.01 1801.8c-.42-3.2-.88-6.56-1.37-10.07s-.99-7.04-1.49-10.59c-.51-3.55-1.02-7.05-1.53-10.51-.51-3.45-1.01-6.74-1.49-9.86s-.95-6.02-1.39-8.69c-.45-2.67-.85-4.98-1.22-6.93-.39-2.01-.82-3.69-1.28-5.01q-.69-1.98-1.59-3.18c-.6-.8-1.27-1.4-2.01-1.79-.74-.4-1.59-.68-2.55-.85-1.09-.2-2.28-.29-3.57-.3q-1.935 0-4.65.09c-.05-1.44-.08-2.16-.13-3.6 2.18-.33 4.29-.6 6.36-.82 2.06-.22 3.97-.39 5.71-.52 1.74-.12 3.28-.18 4.61-.18s2.37.07 3.12.2c.89.15 1.7.44 2.45.87s1.45 1.06 2.09 1.92 1.22 1.97 1.72 3.36.94 3.13 1.35 5.15c.26 1.29.59 2.96.94 4.98s.72 4.31 1.12 6.87c.39 2.56.81 5.34 1.24 8.34a707 707 0 0 1 2.5 19.35c.39 3.39.76 6.75 1.1 10.06 2.43-3.93 4.96-8.04 7.58-12.33s5.26-8.6 7.93-12.93c2.67-4.34 5.3-8.64 7.91-12.91s5.1-8.35 7.49-12.25c.41-.66.91-1.18 1.51-1.56.59-.37 1.24-.65 1.93-.83s1.39-.28 2.11-.29q1.08-.015 2.1.12c1.13.16 2.2.47 3.22.92s1.97.97 2.87 1.56a179 179 0 0 0-5.9 7.19c-2.07 2.65-4.22 5.49-6.45 8.5-2.23 3.02-4.5 6.17-6.8 9.45a787 787 0 0 0-6.96 10.05c-2.33 3.42-4.65 6.86-6.96 10.31s-4.55 6.86-6.74 10.2c-2.21 3.37-4.37 6.72-6.42 10.04-2.06 3.32-4.07 6.52-6.03 9.62a622 622 0 0 1-5.77 8.91c-1.88 2.84-3.77 5.5-5.65 7.9a63 63 0 0 1-5.55 6.18c-1.92 1.87-3.95 3.43-6.11 4.66s-4.45 2.1-6.88 2.6-5.03.51-7.79.01q-2.565-.465-4.53-1.44c-1.31-.65-2.38-1.39-3.23-2.23-.84-.83-1.44-1.73-1.78-2.69-.35-.96-.43-1.92-.25-2.88.2-1.06.75-2.09 1.67-3.09.91-1.01 2-1.69 3.26-2.06 1.36 1.11 2.79 1.98 4.28 2.61s2.85 1.06 4.08 1.28c2.97.53 5.73.28 8.27-.75s5.07-2.8 7.57-5.31 5.13-5.75 7.87-9.72 5.81-8.64 9.21-14.02l1.48-2.38c-1.02-.3-1.53-.46-2.55-.76Zm93.31-71.67c-2.01-.29-3.02-.44-5.03-.74q.54-5.88 1.08-10.44c.37-3.14.84-5.81 1.41-8.02s1.42-3.99 2.54-5.33c1.13-1.34 2.64-2.25 4.54-2.72s4.36-.54 7.37-.2c1.91.21 4.09.5 6.56.86q3.705.54 7.8 1.11c2.74.38 5.55.75 8.44 1.13s5.69.69 8.41.94a881 881 0 0 0 21.38 1.73c2.72.18 5.1.31 7.16.4 2.05.09 3.93.13 5.63.12a88 88 0 0 0 9.26-.49c.47 1.6.67 2.9.6 3.91-.14 2.14-1.18 3.72-3.13 4.74-1.95 1.01-4.76 1.39-8.44 1.13-3.47-.25-7.55-.76-12.22-1.53-4.67-.78-9.93-1.61-15.79-2.52-.53 4.79-1.11 9.9-1.74 15.34-.64 5.43-1.3 11.05-1.99 16.86s-1.4 11.74-2.13 17.8-1.48 12.12-2.23 18.18c-.76 6.06-1.5 12.06-2.23 18.01s-1.44 11.7-2.12 17.26c-5.13.12-7.7.18-12.84.27-.38-.08-.57-.11-.96-.19.89-6.16 1.74-12.07 2.54-17.73s1.57-11.22 2.32-16.68c.74-5.45 1.46-10.9 2.17-16.35q1.05-8.16 2.04-16.8c.66-5.76 1.32-11.75 1.99-17.98s3.12-18.51 2.02-19.89c-.37-.46-3.86-.5-5.83-.74-1.98-.25-3.99-.48-6.04-.69q-3.075-.315-5.76-.51c-1.79-.13-3.44-.08-4.96.15s-2.92.68-4.19 1.38c-1.27.69-2.39 1.74-3.37 3.16s-1.82 3.26-2.51 5.54q-1.035 3.42-1.62 8.46c-.05.45-.08.67-.13 1.12Zm98.79 66.14c3.17-8.07 6.41-14.89 9.71-20.46 3.31-5.57 6.58-10.06 9.84-13.48s6.44-5.87 9.57-7.34 6.08-2.16 8.87-2.06c1.93.07 3.77.48 5.54 1.23q2.655 1.14 4.68 3.39c1.35 1.5 2.42 3.42 3.18 5.76.77 2.33 1.11 5.11 1.03 8.33-.03.98-.12 2.3-.29 3.97s-.36 3.54-.59 5.6-.49 4.23-.78 6.5a358 358 0 0 0-1.41 13 84 84 0 0 0-.33 5.12q-.105 3.81.18 6.21t1.05 3.81c.765 1.41 1.21 1.6 2.09 1.96s1.97.56 3.25.59c1.86.04 3.79-.15 5.8-.58s4.04-1.05 6.08-1.86c.39 1.02.58 1.53.97 2.56-1.3.92-2.94 1.85-4.93 2.79a63 63 0 0 1-6.26 2.55c-2.19.76-4.36 1.37-6.53 1.82-2.16.45-4.07.65-5.72.6q-2.91-.09-4.53-1.56c-1.08-.98-1.87-2.29-2.37-3.94s-.79-3.56-.88-5.75c-.09-2.18-.09-4.53 0-7.04.1-3.03.33-6.15.67-9.36s.69-6.29 1.05-9.25c.36-2.95.7-5.65 1.01-8.1s.49-4.42.54-5.92c.12-3.61-.54-6.34-1.97-8.2s-3.41-2.83-5.93-2.93c-1.97-.07-4.11.64-6.41 2.14s-4.62 3.59-6.95 6.27c-2.34 2.68-4.63 5.86-6.88 9.55s-4.32 7.69-6.2 12.01c-1.89 4.32-3.51 8.85-4.87 13.6s-2.33 9.52-2.88 14.32c-4.6.25-6.91.37-11.51.6l-.86-.1c.45-3.82.96-8.04 1.51-12.65s1.14-9.51 1.76-14.69 1.27-10.58 1.94-16.2c.68-5.62 1.35-11.34 2.04-17.17.68-5.83 1.37-11.71 2.07-17.63.7-5.93 1.38-11.78 2.05-17.56s1.31-11.44 1.94-16.98 1.25-10.86 1.78-15.89c.08-.77.35-1.44.82-1.98a4.7 4.7 0 0 1 1.75-1.27c.7-.3 1.48-.51 2.36-.63.87-.11 1.77-.15 2.7-.1 1.99.11 4.05.74 6.19 1.89-1.1 6.59-2.09 12.65-2.98 18.16s-1.7 10.62-2.44 15.32a1713 1713 0 0 0-3.73 24.89q-.795 5.61-1.5 10.95c-.47 3.56-.95 7.18-1.43 10.85l-1.5 11.46c-.52 3.97-1.08 8.23-1.69 12.79.13.03.19.04.31.07Zm117.83-21.65c-.03-2.57-.51-4.8-1.43-6.67-.92-1.88-2.11-3.41-3.58-4.61a14.6 14.6 0 0 0-4.95-2.65 18.2 18.2 0 0 0-5.5-.86c-2.45 0-4.52.25-6.22.74-1.69.49-3.07 1.15-4.13 1.99s-1.82 1.84-2.3 2.99c-.47 1.15-.71 2.4-.72 3.73 0 1.56.29 3.14.89 4.72q.9 2.37 2.67 4.62c-.08.21-.13.32-.21.54-1.99.91-4.01 1.35-6.03 1.34-1.19 0-2.3-.19-3.32-.54a7.9 7.9 0 0 1-2.66-1.51 7 7 0 0 1-1.75-2.41c-.43-.95-.63-2.01-.62-3.18.02-1.92.54-3.72 1.55-5.4s2.33-3.21 3.97-4.6 3.53-2.62 5.68-3.72q3.225-1.635 6.63-2.79c2.28-.76 4.56-1.35 6.85-1.76s4.41-.63 6.38-.64c3.61-.02 6.71.4 9.28 1.29 2.58.88 4.68 2.18 6.31 3.9q2.445 2.58 3.63 6.27c.79 2.46 1.21 5.25 1.27 8.38.04 2.15-.02 4.51-.16 7.08-.15 2.58-.32 5.27-.52 8.09q-.3 4.23-.51 8.73c-.21 4.5-.19 5.98-.14 8.94.08 4.69 1.09 8.2 3.04 10.52s4.49 3.46 7.6 3.39c2.75-.06 5.81-1.06 9.15-3.01.64.82.97 1.23 1.61 2.06q-3.495 3.375-7.71 5.19c-2.8 1.21-5.77 1.84-8.89 1.9-2.33.04-4.49-.28-6.47-.96-1.98-.69-3.7-1.73-5.15-3.12q-2.175-2.1-3.39-5.31c-.81-2.14-1.23-4.63-1.25-7.46 0-.85 0-1.69.05-2.54.04-.85.15-1.74.32-2.69h-.32c-1.49 2.82-3.24 5.59-5.23 8.32s-4.19 5.17-6.59 7.31-4.98 3.87-7.72 5.19a19.4 19.4 0 0 1-8.64 1.95c-2.48-.01-4.73-.42-6.77-1.22s-3.77-1.89-5.21-3.28a14.25 14.25 0 0 1-3.31-4.9c-.78-1.88-1.15-3.93-1.12-6.14.04-2.86.66-5.46 1.84-7.79s2.8-4.41 4.85-6.24 4.49-3.41 7.31-4.74c2.83-1.33 5.89-2.44 9.19-3.33s6.8-1.56 10.48-2.02 7.43-.7 11.26-.74c.22-2.05.4-4.04.54-5.96s.19-4.04.17-6.35Zm-32.33 33.61c0 1.27.13 2.48.43 3.64.29 1.16.77 2.18 1.42 3.06s1.49 1.58 2.5 2.09 2.24.77 3.66.77c1.61 0 3.27-.33 4.98-1.02 1.71-.68 3.4-1.63 5.05-2.84s3.23-2.66 4.73-4.34 2.85-3.52 4.03-5.52q1.785-3 2.94-6.3c1.155-3.3 1.27-4.46 1.49-6.78-2.6.09-5.18.27-7.75.53s-5 .65-7.3 1.18-4.44 1.21-6.42 2.05c-1.97.84-3.68 1.89-5.11 3.13a13.65 13.65 0 0 0-3.39 4.42c-.83 1.7-1.25 3.68-1.26 5.92Zm74.8-40.56c-.05-1.33-.19-2.45-.43-3.36-.24-.9-.59-1.62-1.04-2.14s-1.01-.88-1.67-1.09-1.45-.29-2.34-.26c-1.24.04-2.73.25-4.44.63-1.72.38-3.68.87-5.88 1.48-.35-1.4-.52-2.1-.87-3.49 2.43-.88 4.76-1.68 7-2.42 2.24-.73 4.3-1.38 6.17-1.93 1.88-.55 3.54-.99 4.97-1.3 1.44-.31 2.57-.49 3.39-.52q3-.12 4.74 1.5c1.17 1.08 1.81 2.98 1.92 5.71.01.33.01 1.08 0 2.27-.02 1.19-.05 2.7-.1 4.52-.05 1.83-.1 3.92-.18 6.29s-.17 4.89-.29 7.56c-.12 2.68-.26 5.44-.42 8.3s-.35 5.71-.55 8.55c.13.01.19.02.32.04 2.34-8.5 4.89-15.7 7.66-21.61s5.61-10.74 8.54-14.49 5.87-6.51 8.85-8.27c2.97-1.76 5.85-2.73 8.63-2.9 1.92-.12 3.8.11 5.63.67 1.83.57 3.5 1.55 4.99 2.95 1.5 1.4 2.74 3.25 3.73 5.54.99 2.3 1.61 5.12 1.84 8.46.07.97.1 2.29.09 3.93 0 1.65-.03 3.49-.06 5.51-.03 2.03-.09 4.18-.16 6.45q-.105 3.405-.15 6.69c-.03 2.19-.03 4.27-.02 6.24s.07 3.69.17 5.15c.17 2.53.43 4.59.77 6.16.34 1.58.81 2.81 1.41 3.7s1.36 1.47 2.27 1.75 2.01.37 3.3.28c1.85-.13 3.76-.51 5.72-1.13a37.6 37.6 0 0 0 5.88-2.44c.49.98.73 1.47 1.22 2.45-1.21 1.04-2.75 2.13-4.64 3.25a65 65 0 0 1-5.99 3.14c-2.1.97-4.21 1.78-6.32 2.44q-3.165.975-5.64 1.14c-1.93.13-3.49-.24-4.66-1.11s-2.08-2.1-2.74-3.69-1.13-3.47-1.43-5.63c-.3-2.17-.52-4.5-.68-7q-.285-4.575-.24-9.45c.03-3.25.09-6.34.19-9.28s.18-5.61.26-8.02c.08-2.4.07-4.32-.02-5.75-.24-3.8-1.18-6.55-2.82-8.26s-3.71-2.49-6.24-2.34c-2.01.12-4.07 1.03-6.2 2.75-2.13 1.71-4.23 4.02-6.29 6.91-2.07 2.89-4.03 6.28-5.9 10.17s-3.53 8.07-5 12.55a110 110 0 0 0-3.55 14.01c-.9 4.86-1.4 9.7-1.49 14.53-4.47.69-6.71 1.03-11.18 1.69-.34 0-.52-.01-.86-.02.18-3.1.33-6.48.46-10.13.12-3.65.23-7.36.31-11.13.08-3.76.14-7.5.17-11.19.03-3.7.05-7.15.06-10.36 0-3.21 0-6.08-.04-8.62s-.08-4.54-.14-6Zm113.01 17.14c4.08-1.71 7.76-3.58 11.05-5.6s6.07-4.11 8.35-6.26q3.42-3.225 5.1-6.57c1.12-2.22 1.55-4.42 1.3-6.59-.1-.91-.38-1.72-.83-2.44a6 6 0 0 0-1.67-1.77c-.67-.46-1.42-.8-2.26-1a7.6 7.6 0 0 0-2.66-.14c-2.17.24-4.35 1.12-6.55 2.63-2.19 1.51-4.32 3.59-6.37 6.22-2.06 2.64-4.01 5.79-5.85 9.48-1.85 3.69-3.51 7.82-4.98 12.41s-2.72 9.6-3.75 15.02c-1.03 5.43-1.74 11.18-2.12 17.26-4.28.9-6.43 1.35-10.72 2.22-.34 0-.52.01-.86.02-.11-3.85-.23-8.09-.35-12.74s-.26-9.57-.41-14.79c-.15-5.21-.29-10.65-.45-16.31-.15-5.66-.32-11.42-.5-17.28-.18-5.87-.36-11.78-.53-17.75-.18-5.96-.36-11.85-.55-17.67s-.38-11.51-.56-17.08c-.19-5.57-.35-10.92-.56-15.98-.03-.78.14-1.47.52-2.08s.89-1.11 1.54-1.51 1.39-.72 2.24-.96 1.73-.4 2.66-.49c1.99-.19 4.12.14 6.4.96-.12 6.72-.21 12.87-.28 18.47s-.13 10.8-.17 15.59-.07 9.28-.09 13.45-.02 8.16.01 11.97.06 7.53.11 11.17c.04 3.64.1 7.34.16 11.09.07 3.75.14 7.64.21 11.65s.14 8.32.2 12.93c.13 0 .19.01.32.02.91-3.97 2.05-7.92 3.41-11.84s2.9-7.67 4.62-11.26c1.72-3.58 3.61-6.93 5.67-10.03s4.25-5.83 6.58-8.17 4.78-4.25 7.36-5.73 5.25-2.38 8.03-2.7q2.625-.3 4.92.24c1.54.36 2.9.97 4.1 1.82 1.2.86 2.18 1.94 2.95 3.26s1.26 2.83 1.47 4.54c.33 2.68.03 5.36-.92 8.03-.94 2.67-2.42 5.31-4.44 7.91s-4.53 5.13-7.52 7.58q-4.485 3.675-10.14 6.99c2.77 3.73 5.27 6.9 7.46 9.53 2.2 2.62 4.18 4.81 5.94 6.56s3.32 3.12 4.7 4.11c1.37.99 2.62 1.71 3.73 2.17 1.12.46 2.15.72 3.09.79s1.88.04 2.8-.07c1.85-.22 3.73-.72 5.66-1.48q2.88-1.14 5.76-2.79c.53.96.8 1.43 1.33 2.39-1.16 1.1-2.65 2.26-4.49 3.47-1.83 1.21-3.8 2.36-5.89 3.44a55 55 0 0 1-6.29 2.75c-2.1.76-3.97 1.23-5.61 1.42q-2.895.33-5.97-1.26c-3.075-1.59-4.32-2.82-6.8-5.27s-5.25-5.6-8.3-9.45-6.55-8.48-10.49-13.88l.15-.6Zm63.84 6.43c.58 2.42 1.58 4.44 3.01 6.05q2.145 2.415 4.98 3.75c1.89.89 3.94 1.46 6.12 1.7q3.285.375 6.42-.09c1.95-.28 3.8-.8 5.53-1.56 1.74-.75 3.23-1.68 4.47-2.8 1.24-1.11 2.18-2.39 2.81-3.84s.81-2.99.56-4.63c-.26-1.7-.93-3.13-2.01-4.28s-2.43-2.15-4.07-2.98c-1.63-.84-3.49-1.56-5.57-2.18-2.08-.61-4.24-1.25-6.47-1.86-1.96-.54-3.95-1.08-5.94-1.64a67 67 0 0 1-5.8-1.92c-1.88-.73-3.66-1.55-5.33-2.47s-3.16-2-4.48-3.22c-1.31-1.22-2.4-2.64-3.27-4.25s-1.43-3.45-1.7-5.51c-.29-2.23-.15-4.33.43-6.31s1.48-3.82 2.71-5.51c1.22-1.69 2.69-3.23 4.41-4.61 1.71-1.38 3.58-2.6 5.59-3.66s4.11-1.93 6.3-2.62c2.18-.69 4.33-1.2 6.45-1.51 2.73-.41 5.36-.51 7.89-.32s4.79.68 6.79 1.47q3 1.185 4.98 3.24c1.32 1.37 2.14 3.02 2.45 4.95.12.74.11 1.56-.03 2.48-.14.91-.47 1.8-1 2.66s-1.3 1.63-2.28 2.31c-.99.68-2.27 1.18-3.8 1.44-1.43.24-3 .25-4.65.07l-.23-.46c.33-1.1.52-2.11.6-3.01.07-.9.06-1.73-.06-2.46-.24-1.46-.86-2.66-1.78-3.56s-2.02-1.58-3.28-2.04c-1.26-.47-2.63-.74-4.09-.82-1.47-.08-2.88-.02-4.25.18-2.43.36-4.56.98-6.4 1.86-1.83.89-3.34 1.93-4.52 3.13s-2.04 2.49-2.56 3.88c-.53 1.39-.7 2.77-.51 4.16q.36 2.655 2.16 4.56c1.2 1.26 2.71 2.37 4.54 3.31s3.9 1.78 6.22 2.5 4.74 1.42 7.25 2.1c2.81.76 5.62 1.57 8.42 2.42 2.8.84 5.35 1.89 7.66 3.14s4.26 2.8 5.86 4.64 2.63 4.14 3.07 6.9q.795 4.965-.99 9.21c-1.2 2.83-3.01 5.34-5.42 7.53-2.42 2.19-5.31 4.01-8.68 5.45-3.36 1.44-6.94 2.44-10.71 2.98-1.89.27-3.86.42-5.9.44-2.05.02-4.05-.09-6.01-.35a37 37 0 0 1-5.62-1.18c-1.79-.53-3.38-1.21-4.77-2.03s-2.53-1.79-3.41-2.9a7.74 7.74 0 0 1-1.61-3.85c-.16-1.26 0-2.36.46-3.31.47-.95 1.15-1.76 2.03-2.43s1.89-1.23 3.04-1.66c1.14-.43 2.33-.75 3.56-.94.19.11.28.17.47.28Zm101.91-60.89c2.21 1.98 3.89 4.08 5.05 6.31 1.16 2.22 1.99 4.55 2.48 6.97.51 2.52.64 5.06.38 7.62s-.85 5.05-1.79 7.48a31 31 0 0 1-3.77 6.92 33.2 33.2 0 0 1-5.54 5.96 33.4 33.4 0 0 1-7.07 4.56c-2.59 1.25-5.38 2.15-8.36 2.7-.77.14-1.54.25-2.31.32s-1.56.14-2.38.19c-1.19.45-2.25.98-3.19 1.61s-1.74 1.32-2.4 2.06c-.66.75-1.15 1.5-1.45 2.26s-.39 1.5-.27 2.2c.25 1.41 1.07 2.51 2.46 3.28 1.39.78 3.18 1.35 5.36 1.72s4.68.59 7.48.65c2.81.06 5.74.11 8.77.13 2.74.02 5.47.04 8.15.08 2.69.04 5.27.18 7.74.43 2.47.24 4.8.63 6.97 1.17s4.11 1.29 5.83 2.25c1.71.96 3.15 2.19 4.31 3.7 1.16 1.5 1.97 3.36 2.43 5.56.58 2.77.57 5.56-.03 8.36s-1.69 5.52-3.29 8.18c-1.6 2.65-3.63 5.19-6.12 7.61-2.48 2.42-5.32 4.63-8.5 6.62-3.19 1.99-6.67 3.72-10.44 5.17a65.4 65.4 0 0 1-11.88 3.31c-2.4.43-4.96.73-7.67.9-2.71.16-5.42.14-8.11-.07-2.7-.21-5.31-.65-7.83-1.29-2.52-.65-4.8-1.57-6.84-2.75s-3.74-2.65-5.1-4.41-2.24-3.88-2.64-6.35c-.33-2.06-.27-4.1.18-6.11.45-2.02 1.18-3.95 2.18-5.8s2.23-3.62 3.68-5.31 3.01-3.26 4.69-4.7 3.42-2.74 5.22-3.89 3.56-2.13 5.29-2.93c.03-.1.04-.16.06-.26q-2.1-.42-4.17-1.08c-1.37-.44-2.64-1.02-3.81-1.75-1.16-.73-2.15-1.6-2.97-2.64q-1.215-1.545-1.59-3.72c-.28-1.64-.11-3.18.5-4.62s1.46-2.77 2.55-4 2.33-2.34 3.71-3.34 2.72-1.9 4.03-2.69c-2.87-.48-5.49-1.3-7.87-2.44s-4.45-2.55-6.23-4.23a22.5 22.5 0 0 1-4.38-5.72c-1.15-2.14-1.92-4.44-2.33-6.91-.7-4.21-.47-8.25.68-12.12q1.725-5.805 5.49-10.47c2.51-3.11 5.57-5.74 9.19-7.91s7.56-3.65 11.84-4.45c1.63-.3 3.15-.47 4.55-.51 1.4-.03 2.71 0 3.93.12 1.22.11 2.35.28 3.4.49s2.03.43 2.96.64c1.41.36 2.78.64 4.12.86 1.33.22 2.82.16 4.45-.16 1.36-.27 2.63-.74 3.8-1.41s2.16-1.49 2.95-2.47q1.185-1.47 1.68-3.33c.33-1.25.34-2.59.04-4.02-.05-.22-.1-.43-.15-.62-.06-.19-.13-.41-.21-.65l.57-.57c2.54.54 4.54 1.44 5.99 2.72s2.34 2.68 2.66 4.2c.26 1.21.23 2.34-.08 3.39s-.87 2-1.66 2.87c-.8.87-1.81 1.61-3.03 2.23s-2.62 1.09-4.19 1.41c-2.39.49-5.05.56-8 .22-.06.11-.09.17-.16.28Zm-21.67 73.58a33.4 33.4 0 0 0-6.71 3.92c-2.06 1.55-3.82 3.3-5.29 5.25a19.6 19.6 0 0 0-3.2 6.36c-.66 2.29-.79 4.69-.36 7.19.52 3.08 1.73 5.61 3.65 7.58 1.91 1.97 4.22 3.48 6.92 4.54q4.05 1.575 8.76 1.83c3.14.17 6.18-.01 9.12-.55 3.99-.73 7.7-1.98 11.12-3.73 3.42-1.76 6.31-3.86 8.66-6.29q3.525-3.645 5.16-8.01c1.09-2.9 1.32-5.89.7-8.95-.34-1.72-1.03-3.12-2.06-4.19s-2.32-1.93-3.87-2.57-3.33-1.09-5.34-1.37c-2.01-.27-4.19-.46-6.53-.58q-4.74-.24-9.96-.21c-5.22.03-7.06-.06-10.76-.22Zm5.59-31.05c1.89-.35 3.53-.97 4.94-1.84a14.6 14.6 0 0 0 3.6-3.14c1-1.22 1.78-2.57 2.36-4.06s.99-3.01 1.25-4.57.36-3.12.33-4.69c-.04-1.57-.19-3.06-.47-4.46q-.51-2.64-1.53-5.25c-.68-1.74-1.51-3.4-2.49-4.96-.98-1.57-2.12-2.99-3.41-4.27a19.2 19.2 0 0 0-4.25-3.19c-1.54-.85-3.22-1.43-5.05-1.75-1.82-.32-3.78-.29-5.86.09-1.94.36-3.64.96-5.09 1.82s-2.68 1.89-3.7 3.1a15.4 15.4 0 0 0-2.44 3.98 21.4 21.4 0 0 0-1.33 4.5c-.28 1.55-.41 3.1-.41 4.66 0 1.55.13 3.02.37 4.4.31 1.76.79 3.54 1.46 5.32q1.005 2.67 2.49 5.04a23.8 23.8 0 0 0 3.48 4.34c1.33 1.32 2.8 2.41 4.42 3.28 1.61.87 3.37 1.46 5.27 1.78s3.91.28 6.05-.12Zm58.01-59.45c.24 3.75.57 7.49.98 11.22s.87 7.32 1.38 10.78 1.04 6.71 1.6 9.77 1.12 5.81 1.66 8.26c.74 3.3 1.43 6.13 2.07 8.47s1.26 4.3 1.87 5.86 1.21 2.79 1.79 3.68c.59.89 1.21 1.53 1.87 1.93s1.37.6 2.12.59c.75 0 1.59-.11 2.5-.32 1.68-.39 3.44-1.03 5.28-1.94s3.65-2.01 5.45-3.31c.63.89.95 1.34 1.58 2.24-1.04 1.22-2.41 2.52-4.09 3.92-1.69 1.4-3.5 2.74-5.42 4.01s-3.85 2.39-5.76 3.34-3.61 1.59-5.09 1.92c-.99.22-1.9.35-2.74.38-.84.04-1.65-.16-2.43-.59s-1.54-1.14-2.3-2.15c-.75-1-1.51-2.42-2.26-4.25-.75-1.84-1.52-4.17-2.32-6.99s-1.64-6.27-2.53-10.34q-.78-3.585-1.68-8.1c-.9-4.515-1.23-6.26-1.88-9.74-.65-3.47-1.31-7.14-1.97-11.01-.67-3.87-1.33-7.89-1.92-12-.13-.9-.03-1.68.29-2.34.32-.65.77-1.2 1.34-1.64.58-.44 1.22-.8 1.92-1.07s1.36-.48 1.97-.61c2.26-.5 4.5-.49 6.72.04Zm-9.23-20.54c-1.17.26-2.26.26-3.26 0s-1.91-.69-2.7-1.3c-.8-.61-1.47-1.36-2.02-2.26s-.93-1.85-1.15-2.87c-.31-1.43-.34-2.75-.08-3.96s.7-2.27 1.33-3.19a8.2 8.2 0 0 1 2.26-2.25c.88-.58 1.78-.97 2.71-1.18 1.12-.25 2.18-.28 3.16-.09.98.2 1.88.57 2.68 1.12s1.48 1.24 2.04 2.06.95 1.76 1.19 2.81c.25 1.11.31 2.26.16 3.44s-.48 2.31-.99 3.36a8.4 8.4 0 0 1-2.12 2.73c-.9.77-1.96 1.29-3.2 1.57Zm62.46 80.25c-1.21-2.92-2.55-5.97-4-9.14-1.45-3.18-2.96-6.38-4.51-9.6a497 497 0 0 0-9.35-18.45c-1.51-2.81-2.92-5.4-4.25-7.76s-2.52-4.39-3.58-6.07c-1.08-1.71-2.08-3.09-2.94-4.14s-1.69-1.84-2.48-2.37-1.59-.83-2.39-.91-1.68 0-2.63.22c-1.08.26-2.22.64-3.4 1.15s-2.6 1.16-4.24 1.94l-1.55-3.25c1.87-1.17 3.71-2.27 5.51-3.31 1.81-1.04 3.49-1.97 5.04-2.77 1.56-.81 2.95-1.47 4.17-2 1.23-.53 2.21-.89 2.95-1.07a7.1 7.1 0 0 1 2.61-.16c.83.11 1.69.45 2.58 1s1.8 1.38 2.75 2.46c.95 1.09 1.98 2.51 3.09 4.24.75 1.15 1.68 2.66 2.77 4.52s2.28 3.98 3.57 6.38 2.66 5 4.11 7.8c1.45 2.81 2.91 5.72 4.37 8.74s2.89 6.11 4.3 9.26 2.73 6.27 3.96 9.35c1.15-2.75 2.29-5.57 3.4-8.48s2.14-5.83 3.09-8.77c.94-2.94 1.76-5.87 2.46-8.8.69-2.93 1.22-5.79 1.57-8.57.35-2.79.49-5.47.42-8.05q-.105-3.87-1.02-7.26c-.76-2.83-2-5.34-3.73-7.54-1.72-2.2-4.11-3.9-7.16-5.12l.25-1.28c.59-.22 1.16-.42 1.72-.61.56-.18 1.11-.35 1.65-.49 4.49-1.2 8.14-1.12 10.96.23 2.82 1.36 4.72 3.79 5.69 7.3.73 2.67.96 5.87.68 9.61-.29 3.74-.92 7.75-1.92 12.04-1 4.28-2.27 8.71-3.81 13.28s-3.19 9.02-4.94 13.35q-2.625 6.495-5.28 12.24c-1.77 3.83-3.36 7.15-4.78 9.96-2.28.35-3.42.53-5.7.88Zm49.46-86.3c.47 3.73 1.03 7.44 1.66 11.14.64 3.7 1.31 7.25 2.03 10.67s1.45 6.64 2.2 9.66 1.47 5.73 2.17 8.14c.94 3.25 1.8 6.03 2.58 8.33s1.52 4.21 2.22 5.74c.7 1.52 1.38 2.71 2.02 3.56s1.3 1.45 1.99 1.81 1.41.51 2.16.46 1.58-.21 2.48-.47c1.66-.49 3.38-1.24 5.17-2.27 1.78-1.02 3.54-2.24 5.26-3.64.69.85 1.03 1.28 1.72 2.13q-1.455 1.92-3.87 4.17c-1.61 1.5-3.34 2.95-5.19 4.34-1.85 1.4-3.71 2.63-5.57 3.69-1.86 1.07-3.52 1.81-4.98 2.23-.97.28-1.88.47-2.72.55-.84.09-1.66-.06-2.47-.44-.8-.38-1.61-1.05-2.43-2s-1.65-2.32-2.52-4.11c-.86-1.79-1.78-4.06-2.75-6.83s-2.02-6.16-3.16-10.17c-.66-2.35-1.39-5.01-2.18-7.99a784 784 0 0 1-5.11-20.47c-.9-3.82-1.81-7.79-2.65-11.86-.19-.89-.13-1.68.15-2.35s.69-1.25 1.25-1.73c.55-.48 1.17-.88 1.86-1.19s1.33-.56 1.93-.73c2.24-.64 4.48-.77 6.74-.38Zm-10.49-19.94c-1.16.33-2.24.4-3.27.2-1.02-.2-1.95-.57-2.79-1.13a8.1 8.1 0 0 1-2.16-2.13c-.6-.86-1.04-1.79-1.33-2.79-.4-1.41-.51-2.72-.32-3.94s.56-2.31 1.14-3.27 1.28-1.76 2.13-2.39q1.26-.945 2.64-1.35c1.11-.32 2.16-.42 3.16-.28 1 .13 1.91.45 2.75.95s1.56 1.14 2.17 1.93 1.06 1.7 1.36 2.73c.32 1.09.44 2.24.37 3.43s-.34 2.33-.79 3.41a8.5 8.5 0 0 1-1.95 2.86c-.85.82-1.89 1.41-3.11 1.77m43.28 23.16c-.4-1.27-.83-2.31-1.3-3.12s-1-1.4-1.57-1.79c-.58-.38-1.22-.59-1.92-.61s-1.49.1-2.36.37c-1.2.37-2.59.97-4.17 1.79q-2.37 1.23-5.34 3l-1.77-3.14c2.14-1.49 4.2-2.89 6.19-4.2 1.99-1.3 3.83-2.47 5.51-3.51 1.69-1.03 3.19-1.89 4.51-2.58 1.32-.68 2.38-1.15 3.17-1.4 1.93-.61 3.6-.55 5.02.18s2.55 2.39 3.38 5c.1.31.3 1.04.59 2.2.29 1.15.66 2.62 1.09 4.39q.66 2.655 1.47 6.12c.55 2.3 1.12 4.76 1.7 7.37a625 625 0 0 1 3.48 16.52l.32-.05c.05-8.83.65-16.46 1.8-22.9s2.66-11.86 4.54-16.26 4.03-7.85 6.47-10.35 4.99-4.2 7.67-5.11c1.85-.63 3.74-.91 5.68-.86 1.94.06 3.82.56 5.65 1.51q2.745 1.425 5.1 4.35c1.57 1.95 2.92 4.51 4.02 7.67.32.92.7 2.18 1.12 3.77.43 1.59.89 3.37 1.39 5.33s1.01 4.05 1.54 6.26 1.06 4.38 1.61 6.5 1.09 4.13 1.62 6.03 1.03 3.54 1.52 4.93c.83 2.4 1.62 4.31 2.37 5.74s1.53 2.49 2.35 3.19 1.71 1.06 2.68 1.08 2.07-.18 3.3-.62c1.78-.63 3.54-1.5 5.29-2.63 1.75-1.12 3.46-2.44 5.11-3.93.73.82 1.1 1.22 1.83 2.04q-1.365 1.995-3.69 4.38a66 66 0 0 1-5.03 4.64c-1.8 1.5-3.65 2.85-5.54 4.04-1.89 1.2-3.63 2.07-5.21 2.61-1.86.64-3.47.7-4.84.17s-2.59-1.47-3.64-2.83c-1.06-1.36-2.01-3.04-2.87-5.06-.86-2.01-1.69-4.2-2.5-6.58-.99-2.9-1.89-5.92-2.72-9.06-.82-3.14-1.58-6.14-2.25-9.01-.68-2.86-1.29-5.47-1.85-7.8-.56-2.34-1.07-4.19-1.53-5.54-1.23-3.6-2.88-6.01-4.92-7.22-2.05-1.21-4.28-1.41-6.71-.59-1.93.65-3.71 2.09-5.34 4.31s-3.07 5.01-4.33 8.35-2.29 7.14-3.09 11.38c-.8 4.25-1.33 8.73-1.58 13.44s-.18 9.53.22 14.46 1.18 9.73 2.36 14.42c-4.18 1.86-6.27 2.78-10.47 4.61-.34.08-.51.13-.85.21-.64-3.04-1.37-6.34-2.21-9.9s-1.71-7.16-2.62-10.82a745 745 0 0 0-2.78-10.85c-.94-3.58-1.83-6.91-2.66-10.01q-1.245-4.65-2.31-8.31-1.05-3.66-1.71-5.76Zm129.91-51.22c2.55 1.54 4.61 3.29 6.17 5.25 1.56 1.97 2.8 4.1 3.73 6.39.96 2.38 1.55 4.86 1.76 7.42.21 2.57.07 5.13-.43 7.7s-1.33 5.07-2.5 7.52a33.3 33.3 0 0 1-4.44 6.91 34 34 0 0 1-6.21 5.81q-3.525 2.58-7.83 4.23c-.74.28-1.49.53-2.23.75q-1.125.33-2.34.63-1.65.99-2.88 2.19c-.82.8-1.49 1.62-2.02 2.48s-.87 1.69-1.03 2.5-.12 1.55.14 2.22c.5 1.34 1.52 2.27 3.04 2.77 1.53.5 3.41.74 5.64.69 2.24-.05 4.76-.3 7.56-.77s5.73-.97 8.75-1.52c2.73-.5 5.44-.99 8.13-1.45 2.68-.46 5.27-.81 7.78-1.04s4.89-.28 7.15-.16 4.33.5 6.21 1.12a14.1 14.1 0 0 1 4.96 2.83c1.43 1.26 2.57 2.93 3.43 5.01 1.07 2.62 1.57 5.36 1.48 8.23s-.69 5.76-1.79 8.67q-1.665 4.365-4.71 8.64c-2.03 2.85-4.46 5.56-7.26 8.12q-4.215 3.84-9.45 7.05a66.3 66.3 0 0 1-11.22 5.48c-2.31.88-4.8 1.65-7.46 2.32a60 60 0 0 1-8.08 1.45c-2.72.3-5.39.36-8.02.19-2.62-.17-5.06-.64-7.3-1.42s-4.2-1.91-5.87-3.39-2.93-3.39-3.77-5.75c-.7-1.96-1.01-3.98-.93-6.05s.45-4.11 1.12-6.11c.66-2 1.56-3.97 2.69-5.91a43 43 0 0 1 3.81-5.5c1.41-1.73 2.91-3.33 4.48-4.8 1.58-1.47 3.15-2.76 4.73-3.87 0-.11.01-.16.02-.27-1.45-.01-2.9-.11-4.34-.28-1.45-.17-2.81-.51-4.1-1-1.29-.5-2.43-1.17-3.43-2.04q-1.5-1.29-2.25-3.36c-.57-1.56-.69-3.1-.34-4.63.34-1.53.95-3 1.81-4.42s1.89-2.74 3.08-3.98a58 58 0 0 1 3.52-3.4c-2.94.06-5.7-.25-8.27-.92q-3.855-1.02-6.96-3a22.1 22.1 0 0 1-5.39-4.81 21.8 21.8 0 0 1-3.57-6.36c-1.46-4.01-1.96-8.02-1.52-12.05s1.63-7.8 3.56-11.33 4.5-6.7 7.7-9.51c3.21-2.81 6.86-5.01 10.97-6.6 1.57-.61 3.04-1.06 4.43-1.35 1.39-.3 2.7-.5 3.93-.62a33 33 0 0 1 3.47-.16c1.08.01 2.1.04 3.06.08 1.47.08 2.89.11 4.25.07 1.37-.04 2.83-.37 4.4-1 1.31-.52 2.48-1.23 3.53-2.11s1.88-1.88 2.49-2.98c.61-1.11.97-2.31 1.06-3.6.1-1.29-.13-2.61-.68-3.97-.09-.21-.17-.4-.26-.58q-.135-.255-.33-.6c.19-.27.28-.4.46-.66 2.63.05 4.78.56 6.46 1.54s2.81 2.19 3.41 3.63c.47 1.14.65 2.26.53 3.35s-.5 2.14-1.14 3.14q-.96 1.5-2.61 2.76c-1.11.84-2.41 1.57-3.91 2.18-2.29.93-4.93 1.51-7.92 1.73-.04.12-.06.18-.11.31Zm-8.23 76.47c-2.21 1.5-4.2 3.2-5.96 5.11-1.77 1.91-3.2 3.96-4.31 6.16-1.1 2.2-1.78 4.48-2.02 6.86s.07 4.76.94 7.14c1.07 2.93 2.74 5.19 5 6.77s4.83 2.64 7.71 3.16c2.88.53 5.89.58 9.04.16q4.725-.63 8.97-2.25 5.76-2.205 10.38-5.76c3.08-2.37 5.58-4.98 7.48-7.82q2.85-4.26 3.69-8.85c.55-3.06.24-6.04-.92-8.94-.66-1.63-1.59-2.88-2.81-3.74q-1.83-1.29-4.32-1.8c-1.66-.34-3.51-.45-5.56-.34s-4.25.33-6.61.66c-3.18.44-6.49.99-9.94 1.66q-5.175 1.005-10.74 1.8Zm-.07-31.6c1.81-.7 3.34-1.61 4.58-2.74s2.25-2.39 3.02-3.77 1.31-2.86 1.61-4.44c.31-1.57.44-3.15.42-4.73-.03-1.58-.2-3.14-.52-4.68a25.7 25.7 0 0 0-1.27-4.3 30 30 0 0 0-2.48-4.88c-.99-1.59-2.12-3.06-3.37-4.42a23.8 23.8 0 0 0-4.16-3.56 19.6 19.6 0 0 0-4.81-2.34c-1.69-.55-3.47-.8-5.34-.78-1.87.03-3.81.43-5.81 1.19-1.87.72-3.44 1.63-4.73 2.75s-2.33 2.36-3.12 3.74c-.8 1.38-1.37 2.84-1.71 4.37-.34 1.54-.51 3.1-.51 4.67 0 1.58.15 3.13.44 4.66s.67 2.95 1.16 4.26c.63 1.68 1.43 3.33 2.42 4.96s2.12 3.13 3.39 4.49c1.27 1.37 2.69 2.57 4.25 3.62a19 19 0 0 0 4.99 2.4c1.76.55 3.62.8 5.56.76 1.95-.05 3.94-.46 5.99-1.25Z" class="cls-3th1"/></svg>