<svg xmlns="http://www.w3.org/2000/svg" viewBox="0 0 2000 2000" width="300" height="300" fill="none"><defs><style>.cls-5th2{fill:#af4700}.cls-5th3{fill:#d15900}.cls-5th4{fill:#dd781d}.cls-5th5{fill:#70370d}.cls-5th6{fill:#894509}.cls-5th7{fill:#d6690f}.cls-5th8{fill:#bf4d00}.cls-5th9{fill:#e0862b}</style></defs><path d="M279.38 1031.33c71.29-3.95 115.19-43.46 114.08-77.17-.75-22.8-22.28-48.56-42.9-48.54-28.43.02-57.43 49.03-71.18 125.71" class="cls-5th4"/><path d="M597.16 1484.4c-133.33-95.81-242.06-227.96-305.58-379.72-41.82-99.53-62.55-207.9-61.39-315.8 1.22-85.05 15.72-169.89 42.77-250.49l5.56-16.03c-6.41 20.71-13.06 44.35-17.93 65.4-7.51 31.34-13.12 63.79-17.26 95.76-.6 5.59-2.14 19.62-2.73 25.23l-.33 4.22-.65 8.43c-9.07 112.13 5.22 226.34 41.79 332.72 59.01 170.84 173.68 319.73 315.74 430.29Z" class="cls-5th6"/><path d="M331.32 1218.42c-65.2 29.09-122.31 14.02-136.75-16.46-9.76-20.62-2.4-53.37 15.96-62.79 25.3-12.98 73.49 17.34 120.79 79.25m-68.39-142.56c-66.88 24.98-122.95 6.4-135.46-24.93-8.46-21.19.93-53.42 19.83-61.67 26.06-11.38 72.27 21.87 115.63 86.6m-43.04-136.9c-71.33 3.17-118.94-31.78-121.2-65.43-1.53-22.77 17.33-50.53 37.86-52.57 28.3-2.81 62.03 43.07 83.34 118m-8.78-158.52c-70.19-13.07-108.65-57.89-103.23-91.18 3.67-22.52 28.33-45.3 48.78-42.63 28.2 3.68 50.66 56 54.45 133.81m15.88-154.18c-63.58-32.48-87.71-86.4-73.04-116.77 9.92-20.55 40.04-35.37 58.89-27 25.99 11.54 32.65 68.09 14.16 143.77Zm56.73-67.24c71.35 2.55 118.66-32.82 120.62-66.49 1.33-22.78-17.77-50.38-38.32-52.24-28.32-2.56-61.65 43.61-82.3 118.73m-23.93 142.62c71.03 7.27 120.57-24.89 124.76-58.35 2.83-22.64-14.4-51.45-34.77-54.66-28.09-4.43-64.4 39.43-89.99 113.01m-3.24 180.68c71.29-3.95 115.19-43.46 114.08-77.17-.75-22.8-22.28-48.56-42.9-48.54-28.43.02-57.43 49.03-71.18 125.71" class="cls-5th4"/><path d="M1737.64 1031.33c-71.29-3.95-115.19-43.46-114.08-77.17.75-22.8 22.28-48.56 42.9-48.54 28.43.02 57.43 49.03 71.18 125.71" class="cls-5th9"/><path d="M1419.86 1484.4c142.06-110.56 256.73-259.46 315.74-430.29 36.57-106.38 50.86-220.6 41.79-332.72l-.65-8.43-.33-4.22c-.6-5.7-2.12-19.55-2.73-25.23-4.14-31.96-9.74-64.42-17.26-95.76-4.87-21.02-11.52-44.77-17.93-65.4l5.56 16.03c27.05 80.61 41.55 165.44 42.77 250.49 1.16 107.9-19.57 216.27-61.39 315.8-63.53 151.77-172.24 283.91-305.58 379.72Z" class="cls-5th6"/><path d="M1685.7 1218.42c65.2 29.09 122.31 14.02 136.75-16.46 9.76-20.62 2.4-53.37-15.96-62.79-25.3-12.98-73.49 17.34-120.79 79.25m68.39-142.56c66.88 24.98 122.95 6.4 135.46-24.93 8.46-21.19-.93-53.42-19.83-61.67-26.06-11.38-72.27 21.87-115.63 86.6m43.04-136.9c71.33 3.17 118.94-31.78 121.2-65.43 1.53-22.77-17.33-50.53-37.86-52.57-28.3-2.81-62.03 43.07-83.34 118m8.78-158.52c70.19-13.07 108.65-57.89 103.23-91.18-3.67-22.52-28.33-45.3-48.78-42.63-28.2 3.68-50.66 56-54.45 133.81m-15.88-154.18c63.58-32.48 87.71-86.4 73.04-116.77-9.92-20.55-40.04-35.37-58.89-27-25.99 11.54-32.65 68.09-14.16 143.77Zm-56.73-67.24c-71.35 2.55-118.66-32.82-120.62-66.49-1.33-22.78 17.77-50.38 38.32-52.24 28.32-2.56 61.65 43.61 82.3 118.73m23.93 142.62c-71.03 7.27-120.57-24.89-124.76-58.35-2.83-22.64 14.4-51.45 34.77-54.66 28.09-4.43 64.4 39.43 89.99 113.01m3.25 180.68c-71.29-3.95-115.19-43.46-114.08-77.17.75-22.8 22.28-48.56 42.9-48.54 28.43.02 57.43 49.03 71.18 125.71" class="cls-5th9"/><path d="M981.2 600.63c1.47-101.6 44.26-187.18 113.71-215.63 50.85-20.83 131.7-17.49 152.6 19.81 6.93 12.36 8.18 30.09 2.26 44.61-8.58 21.02-31.04 32.47-49.24 35.11-40.69 5.9-58.77-32.42-88.01-31.3-24.02.92-56.13 28.48-91.71 145.27-13.2.71-26.41 1.42-39.61 2.14Z" class="cls-5th6"/><path d="M1249.77 449.41c-8.58 21.01-31.03 32.48-49.24 35.11-40.67 5.91-58.77-32.41-87.99-31.29-24.03.93-56.14 28.47-91.72 145.26l-39.61 2.13c.06-5.04.24-10.04.52-15 8.64-.5 17.26-.99 25.88-1.49 35.58-123.96 67.69-153.21 91.72-154.2 29.25-1.18 47.33 39.48 88.02 33.23 18.19-2.8 40.65-14.96 49.22-37.28 3.77-9.83 4.63-21.01 2.97-31.25 3.19 3.06 5.88 6.44 7.97 10.17 6.94 12.37 8.19 30.09 2.26 44.61" class="cls-5th5"/><path d="M1413.62 1424.5c-.67-.39-1.34-.79-2.02-1.17a125 125 0 0 0-6.38-3.43c-.61-.31-1.22-.61-1.83-.91-.83-.4-1.67-.8-2.51-1.18-.69-.32-1.39-.63-2.08-.94-.77-.33-1.55-.67-2.33-.99-.67-.28-1.33-.55-2-.81-1-.4-2-.79-3.01-1.16a127 127 0 0 0-6.4-2.19q-1.08-.345-2.16-.66-1.155-.345-2.31-.66c-1.41-.39-2.82-.76-4.24-1.1q-.96-.24-1.92-.45l-1.33-.3-1.74-.36c-.06 0-.11-.02-.17-.03-.63-.13-1.27-.25-1.91-.37-.91-.17-1.83-.33-2.74-.48-.79-.13-1.59-.25-2.38-.37-.79-.11-1.58-.22-2.38-.32q-1.005-.135-2.01-.24c-.32-.04-.63-.07-.95-.11-1.31-.13-2.63-.25-3.95-.35q-1.395-.105-2.79-.18c-.76-.04-1.52-.07-2.28-.1-.83-.03-1.66-.05-2.49-.07-.79-.01-1.58-.02-2.37-.02-.34 0-.68 0-1.02.01a511 511 0 0 1-15.65 21.67c.79.82 1.57 1.65 2.35 2.49 2.32 2.51 4.56 5.09 6.75 7.71 6.07 7.28 11.47 14.93 16.22 22.87 9.71-10.12 21.06-18.37 33.55-24.2q.765-.375 1.56-.72c9.17-4.11 18.94-6.94 29.12-8.27-1.39-.9-2.79-1.76-4.2-2.61m-49.47-57.6c-.15-.5-.34-.99-.56-1.45-.13-.27-.26-.53-.4-.78q-.225-.39-.48-.78c-.17-.24-.34-.48-.52-.71-.01-.02-.03-.04-.04-.05-.17-.22-.35-.43-.53-.63-.22-.25-.46-.49-.71-.73-6.4-6.13-19.93-7.65-31.79-5.49-3.4.61-6.67 1.53-9.59 2.73-18.28 7.49-30.1 28.81-32.19 54.81-13.5-4.69-27.24-7.4-40.79-8.21-.28-.02-.57-.03-.85-.05-27.51-1.47-54.23 4.88-76.75 18.4-15.65 11.98-29.42 26.45-39.81 43.2-.46.73-.91 1.45-1.35 2.19-.44.73-.88 1.46-1.3 2.2-.38.65-.74 1.29-1.09 1.94-.47.82-.91 1.64-1.34 2.46l-.78 1.5q-.51.975-.99 1.98c-.36.71-.7 1.42-1.03 2.13-.4.85-.79 1.7-1.17 2.56-.05.1-.1.2-.13.3q-.36.795-.69 1.59c-.21.47-.41.94-.6 1.42-.32.75-.62 1.5-.91 2.25l-.6 1.56h33.23c.02.12.03.27.02.44v.12s-.01.07-.01.1v.06c0 .09-.01.2-.03.31-.01.13-.03.28-.05.44-.04.24-.08.51-.13.8 0 .03-.01.06-.01.08-.11.54-.23 1.16-.37 1.85-.05.26-.11.53-.17.81-.31 1.41-.68 3.07-1.1 4.98-.09.4-.18.82-.27 1.25-.42 1.94-.87 4.1-1.32 6.46-.05.27-.11.53-.16.81-.05.27-.11.55-.16.83a221 221 0 0 0-1.73 10.84c-.08.55-.15 1.11-.22 1.67-.05.37-.1.75-.14 1.13-.09.76-.18 1.53-.27 2.32l-.03.3c-.29 2.65-.53 5.41-.72 8.27v.03c-.1 1.64-.19 3.31-.25 5.02-.02.43-.04.85-.05 1.28l-.03 1.29c-.02.43-.03.87-.03 1.31.42.24.84.48 1.25.72.01 0 .03.02.04.03h.02s.03.03.05.03c1.3.9 2.57 1.83 3.82 2.8.34.26.68.53 1.02.8.68.53 1.35 1.07 2.01 1.63.67.56 1.34 1.14 2 1.73.69.6 1.37 1.22 2.03 1.85l.19.19c.65.61 1.29 1.24 1.92 1.88.67.66 1.31 1.33 1.95 2.03.02 0 .03.03.04.04.62.66 1.23 1.33 1.81 2.01a83 83 0 0 1 4.85 6.08q.645.87 1.26 1.77t1.2 1.8l.66.03 1.48.06c.21-6.79.92-13.14 1.89-18.96 0-.04 0-.07.02-.11v-.02c.06-.55.13-1.1.19-1.65.09-.77.2-1.53.31-2.3.09-.61.17-1.22.27-1.84l.3-1.92c.02-.14.04-.27.07-.41.08-.54.17-1.08.27-1.61q.075-.51.18-1.02c.05-.27.1-.54.15-.8.11-.64.23-1.27.36-1.91.1-.51.21-1.02.31-1.53 0-.03.01-.06.02-.09.14-.74.3-1.48.47-2.21.2-.92.41-1.84.64-2.75.08-.34.16-.69.25-1.03q.03-.18.09-.36c.1-.44.21-.88.33-1.31.02-.11.04-.22.08-.32.15-.6.31-1.19.47-1.79.16-.63.33-1.25.51-1.87.11-.4.23-.8.34-1.2.08-.31.17-.62.27-.92.17-.54.33-1.08.49-1.62.06-.21.12-.41.19-.61.22-.76.46-1.5.71-2.25a142 142 0 0 1 1.55-4.54c0-.03 0-.06.03-.08.19-.56.38-1.11.59-1.65.4-1.11.82-2.22 1.26-3.31.31-.82.64-1.63.97-2.43.21-.53.43-1.05.66-1.57.26-.64.53-1.28.82-1.92.24-.56.48-1.11.74-1.66.26-.59.53-1.18.8-1.77.26-.59.54-1.17.83-1.75l.72-1.5s.04-.09.06-.13c.06-.15.14-.29.21-.43.23-.48.47-.96.72-1.43.21-.42.43-.84.65-1.26.06-.16.14-.31.23-.45h.42c1.62-3.36 3.43-6.82 5.43-10.31q.03-.075.09-.15c.5-.81 1.01-1.61 1.52-2.41.47-.75.96-1.49 1.46-2.22q.315-.51.66-.99c.51-.75 1.02-1.49 1.55-2.23.55-.79 1.11-1.57 1.69-2.35.71-.99 1.44-1.96 2.19-2.92.32-.43.65-.87 1-1.29.13-.19.28-.37.44-.55.35-.45.71-.9 1.07-1.34.46-.58.94-1.16 1.43-1.73.29-.35.59-.7.88-1.04.22-.27.45-.54.69-.8 2.11-2.45 4.31-4.82 6.59-7.11.26-.27.53-.54.79-.79.65-.66 1.32-1.3 1.99-1.94.14-.14.28-.28.43-.42.28-.26.56-.52.84-.77.12-.13.26-.25.4-.37.34-.33.69-.65 1.04-.96.4-.36.8-.72 1.21-1.07.4-.37.81-.72 1.22-1.07a123 123 0 0 1 5-4.1c2.54-1.99 5.16-3.89 7.86-5.69.58-.38 1.16-.76 1.75-1.14q1.155-.75 2.34-1.47c.45-.29.92-.57 1.38-.84 3.72-2.22 7.56-4.25 11.52-6.07.63-.3 1.27-.58 1.91-.86.85-.38 1.7-.74 2.56-1.1.63-.27 1.28-.53 1.93-.78.37-.14.75-.29 1.13-.43.41-.16.82-.31 1.23-.46.24-.1.49-.19.74-.27.44-.17.89-.33 1.34-.48.45-.16.89-.31 1.34-.46h.01c.34-.12.69-.23 1.03-.34s.68-.22 1.03-.33c.84-.26 1.68-.52 2.53-.77.84-.24 1.68-.48 2.53-.7 0-.01.03-.02.05-.02.8-.22 1.61-.42 2.42-.62 1.56-.39 3.13-.74 4.72-1.06l.59-.12c.4-.08.81-.16 1.22-.23 1.03-.2 2.08-.38 3.13-.55 1.23-.2 2.46-.38 3.71-.54l3.27-.45.11-.02.72-.1h.01c1.14-.85 2.3-1.7 3.47-2.53.73-.27 1.45-.53 2.18-.77 9.28-27.56 17.64-34.34 24-34.58 8.36-.32 13.54 10.64 25.18 8.95.98-.14 2-.37 3.03-.69.4-.12.81-.26 1.22-.42.4-.16.8-.33 1.2-.5.8-.37 1.6-.8 2.36-1.28a17 17 0 0 0 2.97-2.31c.27-.27.54-.55.8-.84.25-.29.5-.59.74-.9.17-.23.34-.48.51-.72.49-.74.92-1.53 1.26-2.38.04-.1.08-.2.11-.3.22-.58.41-1.17.55-1.78.23-1 .37-2.03.4-3.05.07-1.87-.19-3.73-.75-5.41Zm49.47 57.6c-.67-.39-1.34-.79-2.02-1.17a125 125 0 0 0-6.38-3.43c-.61-.31-1.22-.61-1.83-.91-.83-.4-1.67-.8-2.51-1.18-.69-.32-1.39-.63-2.08-.94-.77-.33-1.55-.67-2.33-.99-.67-.28-1.33-.55-2-.81-1-.4-2-.79-3.01-1.16a127 127 0 0 0-6.4-2.19q-1.08-.345-2.16-.66-1.155-.345-2.31-.66c-1.41-.39-2.82-.76-4.24-1.1q-.96-.24-1.92-.45l-1.33-.3-1.74-.36c-.06 0-.11-.02-.17-.03-.63-.13-1.27-.25-1.91-.37-.91-.17-1.83-.33-2.74-.48-.79-.13-1.59-.25-2.38-.37-.79-.11-1.58-.22-2.38-.32q-1.005-.135-2.01-.24c-.32-.04-.63-.07-.95-.11-1.31-.13-2.63-.25-3.95-.35q-1.395-.105-2.79-.18c-.76-.04-1.52-.07-2.28-.1-.83-.03-1.66-.05-2.49-.07-.79-.01-1.58-.02-2.37-.02-.34 0-.68 0-1.02.01a511 511 0 0 1-15.65 21.67c.41.41.8.82 1.19 1.24.39.41.78.83 1.16 1.25 2.32 2.51 4.56 5.09 6.75 7.71 6.07 7.28 11.47 14.93 16.22 22.87 9.71-10.12 21.06-18.37 33.55-24.2q.765-.375 1.56-.72c9.17-4.11 18.94-6.94 29.12-8.27-1.39-.9-2.79-1.76-4.2-2.61m-63.87-37.02c.98-.14 2-.37 3.03-.69.4-.12.81-.26 1.22-.42.4-.16.8-.33 1.2-.5.8-.37 1.6-.8 2.36-1.28a17 17 0 0 0 2.97-2.31c.27-.27.54-.55.8-.84.25-.29.5-.59.74-.9.17-.23.34-.48.51-.72.49-.74.92-1.53 1.26-2.38.04-.1.08-.2.11-.3.22-.58.41-1.17.55-1.78.23-1 .37-2.03.4-3.05.07-1.87-.19-3.73-.75-5.41-.15-.5-.34-.99-.56-1.45-.13-.27-.26-.53-.4-.78q-.225-.39-.48-.78c-.17-.24-.34-.48-.52-.71-.01-.02-.03-.04-.04-.05-.17-.22-.35-.43-.53-.63-.22-.25-.46-.49-.71-.73-6.4-6.13-19.93-7.65-31.79-5.49-3.4.61-6.67 1.53-9.59 2.73-18.28 7.49-30.1 28.81-32.19 54.81-13.5-4.69-27.24-7.4-40.79-8.21-.28-.02-.57-.03-.85-.05-27.51-1.47-54.23 4.88-76.75 18.4-15.65 11.98-29.42 26.45-39.81 43.2-.46.73-.91 1.45-1.35 2.19-.44.73-.88 1.46-1.3 2.2-.38.65-.74 1.29-1.09 1.94-.47.82-.91 1.64-1.34 2.46l-.78 1.5q-.51.975-.99 1.98c-.36.71-.7 1.42-1.03 2.13-.4.85-.79 1.7-1.17 2.56-.05.1-.1.2-.13.3q-.36.795-.69 1.59c-.21.47-.41.94-.6 1.42-.32.75-.62 1.5-.91 2.25l-.6 1.56h33.23c.03.15.03.33.02.56 0 .05 0 .1-.01.16 0 .09-.01.2-.03.31-.01.13-.03.28-.05.44-.03.16-.05.34-.08.52l-.06.36c-.1.54-.23 1.16-.37 1.85-.05.26-.11.53-.17.81-.31 1.41-.68 3.07-1.1 4.98-.09.4-.18.82-.27 1.25-.42 1.94-.87 4.1-1.32 6.46-.06.3-.12.6-.17.9l-.15.74a221 221 0 0 0-1.73 10.84c-.08.55-.15 1.11-.22 1.67-.05.37-.1.75-.14 1.13-.09.76-.18 1.53-.27 2.32l-.03.3c-.29 2.65-.53 5.41-.72 8.27v.03c-.1 1.64-.19 3.31-.25 5.02-.02.43-.04.85-.05 1.28l-.03 1.29c-.02.43-.03.87-.03 1.31.42.24.84.48 1.25.72.01 0 .03.02.04.03h.02s.03.03.05.03c1.3.9 2.57 1.83 3.82 2.8l.51.39c.17.13.34.27.51.41.68.53 1.35 1.07 2.01 1.63.67.56 1.34 1.14 2 1.73.69.6 1.37 1.22 2.03 1.85l.19.19c.65.61 1.29 1.24 1.92 1.88.67.66 1.31 1.33 1.95 2.03.02 0 .03.03.04.04.62.66 1.23 1.33 1.81 2.01a83 83 0 0 1 4.85 6.08q.645.87 1.26 1.77t1.2 1.8l.66.03 1.48.06c.21-6.79.92-13.14 1.89-18.96 0-.04 0-.07.02-.11v-.02c.06-.55.12-1.1.19-1.65.09-.77.2-1.53.31-2.3.08-.61.17-1.23.27-1.84q.135-.96.3-1.92c.02-.14.04-.27.07-.41.08-.54.17-1.08.27-1.61q.075-.51.18-1.02c.04-.27.09-.53.15-.8.11-.64.23-1.27.36-1.91.1-.51.2-1.02.31-1.53 0-.03.01-.06.02-.09.14-.74.3-1.48.47-2.21.2-.92.41-1.84.64-2.75.07-.35.16-.69.25-1.03q.03-.18.09-.36c.1-.44.21-.88.33-1.31.02-.11.04-.22.08-.32.07-.3.15-.6.23-.9.07-.3.15-.6.24-.89.16-.63.33-1.25.51-1.87.11-.4.22-.8.34-1.2.08-.31.17-.62.27-.92.16-.54.32-1.08.49-1.62.06-.21.12-.41.19-.61.22-.76.46-1.5.71-2.25q.435-1.35.9-2.7c.21-.62.43-1.23.65-1.84 0-.03 0-.06.03-.08.19-.56.38-1.11.59-1.65.4-1.11.82-2.22 1.26-3.31.31-.82.64-1.63.97-2.43.21-.53.43-1.05.66-1.57.26-.64.53-1.28.82-1.92.24-.56.48-1.11.74-1.66.26-.59.53-1.18.8-1.77.26-.59.54-1.17.83-1.75q.345-.75.72-1.5c.02-.04.04-.09.06-.13.06-.15.14-.29.21-.43.23-.48.47-.96.72-1.43.21-.42.43-.84.65-1.26.06-.16.14-.31.23-.45h.42c1.62-3.36 3.43-6.82 5.43-10.31q.03-.075.09-.15c.5-.81 1.01-1.61 1.52-2.41.47-.75.96-1.49 1.46-2.22q.315-.51.66-.99c.51-.75 1.02-1.49 1.55-2.23.55-.79 1.11-1.57 1.69-2.35.71-.99 1.44-1.96 2.19-2.92.32-.43.65-.87 1-1.29.13-.19.28-.37.44-.55.35-.45.71-.9 1.07-1.34.46-.58.94-1.16 1.43-1.73.29-.34.58-.69.88-1.04.22-.27.45-.54.69-.8 2.11-2.45 4.31-4.82 6.59-7.11.26-.27.53-.54.79-.79.65-.66 1.32-1.3 1.99-1.94.14-.14.28-.28.43-.42.28-.26.56-.52.84-.77.12-.13.26-.25.4-.37.34-.33.69-.65 1.04-.96.4-.36.8-.72 1.21-1.07.4-.37.81-.72 1.22-1.07a123 123 0 0 1 5-4.1c2.54-1.99 5.16-3.89 7.86-5.69.58-.38 1.16-.77 1.75-1.14q1.155-.75 2.34-1.47c.45-.29.92-.57 1.38-.84 3.72-2.22 7.56-4.25 11.52-6.07.63-.3 1.27-.58 1.91-.86.85-.38 1.7-.74 2.56-1.1.64-.26 1.29-.52 1.93-.78.37-.14.75-.29 1.13-.43.41-.16.82-.31 1.23-.46.24-.1.49-.19.74-.27.44-.17.89-.33 1.34-.48.45-.16.89-.31 1.34-.46h.01c.34-.12.69-.23 1.03-.34.34-.12.68-.23 1.03-.33.84-.27 1.68-.53 2.53-.77.84-.25 1.68-.48 2.53-.7 0-.01.03-.02.05-.02.8-.22 1.61-.43 2.42-.62 1.56-.39 3.13-.74 4.72-1.06a61 61 0 0 1 1.81-.35c1.03-.2 2.08-.38 3.13-.55 1.23-.2 2.46-.38 3.71-.54l3.27-.45.11-.02.72-.1h.01c1.14-.85 2.3-1.7 3.47-2.53.73-.27 1.45-.53 2.18-.77 9.28-27.56 17.64-34.34 24-34.58 8.36-.32 13.54 10.64 25.18 8.95Zm315.21-376.11c-2.94-33.34-8.85-66.47-17.78-98.85-16.27-58.99-42.55-115.48-79.16-166.15-1.12-1.55-2.25-3.09-3.38-4.62-.03-.04-.05-.07-.08-.1-.81-1.1-1.62-2.19-2.45-3.28-.21-.3-.43-.59-.66-.88l-1.23-1.62c-.66-.87-1.33-1.74-2-2.6-2.65-3.44-5.35-6.83-8.08-10.17-.95-1.16-1.9-2.32-2.86-3.47-.63-.75-1.25-1.5-1.88-2.24-1.43-1.7-2.87-3.38-4.32-5.06-.15-.17-.29-.34-.44-.51-.75-.86-1.5-1.72-2.25-2.57-.79-.91-1.59-1.81-2.4-2.71-.59-.66-1.18-1.31-1.76-1.96a486 486 0 0 0-13.01-13.84c-.84-.86-1.67-1.71-2.52-2.56-3.76-3.8-7.58-7.52-11.45-11.17-.79-.76-1.59-1.51-2.39-2.24-.53-.5-1.06-.99-1.6-1.48-4.1-3.8-8.26-7.5-12.48-11.12q-.945-.825-1.89-1.62c-1.12-.96-2.25-1.91-3.38-2.85a432 432 0 0 0-10.31-8.38c-1.92-1.52-3.85-3.02-5.8-4.5-1.02-.78-2.04-1.56-3.07-2.32q-4.8-3.63-9.69-7.11c-1.46-1.04-2.94-2.08-4.41-3.11l-.09-.06c-1.24-.86-2.48-1.72-3.72-2.56-.61-.42-1.23-.84-1.85-1.25-1.08-.74-2.16-1.46-3.25-2.18-1.61-1.07-3.23-2.13-4.85-3.18h-.01c-.3-.2-.59-.39-.89-.57-.89-.58-1.78-1.15-2.68-1.72-1.02-.65-2.04-1.29-3.07-1.92a463 463 0 0 0-25.56-14.83c-1.02-.55-2.04-1.1-3.07-1.64-3.13-1.67-6.28-3.29-9.45-4.87-2-1.01-4.01-2-6.02-2.98h-.01c-1.04-.5-2.09-1-3.13-1.49-1.19-.57-2.39-1.14-3.6-1.69-.89-.42-1.79-.83-2.69-1.24-4.2-1.93-8.43-3.78-12.69-5.57-1.06-.45-2.12-.89-3.18-1.33-1.07-.44-2.14-.88-3.2-1.31-3.11-1.25-6.23-2.47-9.35-3.66-1.18-.45-2.36-.9-3.55-1.33-1.08-.4-2.16-.8-3.25-1.19-4.33-1.58-8.68-3.08-13.06-4.52-1.03-.34-2.06-.67-3.09-1.01-.13-.04-.27-.09-.41-.13-1.02-.32-2.05-.65-3.07-.97q-1.635-.525-3.3-1.02c-1.98-.6-3.96-1.19-5.95-1.77q-1.98-.585-3.99-1.14c-2.22-.62-4.44-1.23-6.66-1.82-3.2-.85-6.4-1.67-9.62-2.45a436 436 0 0 0-13.89-3.14c-1.13-.24-2.26-.47-3.38-.7-.91-.19-1.82-.37-2.72-.55-1.48-.29-2.97-.58-4.46-.85-2.13-.4-4.27-.78-6.41-1.15a373 373 0 0 0-10.24-1.65c-1.14-.17-2.28-.34-3.42-.5q-5.13-.735-10.29-1.35c-.88-.1-1.77-.21-2.65-.31-1.51-.17-3.01-.33-4.52-.49-.91-.09-1.81-.19-2.72-.28-5.39-.52-10.8-.96-16.22-1.29-.95-.07-1.91-.13-2.87-.17q-2.85-.18-5.73-.3c-2.26-.1-4.52-.19-6.79-.25h-.11c-.97-.03-1.95-.06-2.93-.08-.82-.02-1.63-.04-2.45-.05-1.4-.03-2.79-.05-4.19-.06-1.4 0-2.81-.02-4.21-.02-51.71 0-104.05 8.58-155.09 26.38h-.01c-2.54.87-5.07 1.78-7.6 2.71-4.25 1.56-8.48 3.19-12.71 4.88q-2.88 1.155-5.76 2.34c-6.71-2.62-13.45-5.11-20.2-7.44-48.18-16.71-97.19-26.23-145.5-28.83-96.13-5.15-189.53 17.06-268.26 64.3-38.17 22.89-72.9 51.67-102.82 86.07-37.05 42.57-64.56 91.28-83.25 143.36q-.03.03-.03.09c-7.85 21.88-14.15 44.36-18.93 67.24-7.04 33.57-10.83 67.99-11.56 102.62-2.2 104.59 23.58 211.13 72.73 302.08a541 541 0 0 0 18.3 31.42c21.79 34.77 47.23 66.72 76.02 94.73 41.21 40.1 85.67 68.68 130.61 88.69.15.07.31.13.46.2 75.3 33.42 151.91 42.78 216.79 41.94 47.69-.61 89.04-6.72 118.89-12.84h.01c11.7-2.4 21.63-4.79 29.48-6.85 1.05-.28 2.06-.55 3.04-.81h.01c.59-.17 1.17-.32 1.73-.48 0 0 0-.01.01 0 3.86-1.05 7.04-1.99 9.52-2.74 2.95-.89 4.89-1.53 5.73-1.81 4.62 1.52 9.24 2.97 13.87 4.35.19.05.38.11.57.17a504 504 0 0 0 21.97 5.96c1.82.46 3.64.89 5.46 1.32 4.32 1.02 8.65 1.98 12.98 2.88.44.09.89.19 1.33.28h.01c.23.04.46.09.69.14 4.66.95 9.32 1.83 13.98 2.63h.01a66 66 0 0 0 2.08.37c.15.02.31.05.46.07 2.63.45 5.27.87 7.9 1.27h.01c.65.1 1.3.2 1.95.29h.01c.23.03.46.07.69.1 3.9.57 7.81 1.1 11.71 1.57 4.45.54 8.91 1.02 13.36 1.43 7.72.73 15.44 1.27 23.15 1.62.37.02.73.04 1.1.05l.66.03 1.48.06c.27 0 .54.02.81.03.37.02.74.03 1.11.04q8.475.3 16.92.3c1.84 0 3.67 0 5.5-.04.46 0 .92 0 1.38-.02 1.6 0 3.19-.04 4.78-.09.45 0 .9 0 1.35-.03 1.74-.04 3.47-.1 5.2-.17.2 0 .4 0 .6-.02 1.52-.06 3.04-.13 4.55-.2.53-.02 1.06-.05 1.6-.08q2.1-.105 4.2-.24c.38-.02.76-.04 1.13-.07q.885-.045 1.77-.12c1.02-.06 2.03-.13 3.05-.21.11 0 .21 0 .32-.03.11 0 .23 0 .35-.02.12-.01.24-.01.35-.03.29-.01.59-.04.89-.07.01.01.03.01.04 0 1.56-.12 3.12-.24 4.67-.38a501 501 0 0 0 13-1.32c1.39-.16 2.78-.33 4.17-.5q3.075-.375 6.15-.81c1.05-.14 2.1-.28 3.14-.44l.62-.09c3.24-.47 6.47-.97 9.69-1.51.16-.03.32-.05.48-.08.84-.14 1.68-.29 2.52-.43.45-.08.9-.17 1.35-.25.61-.1 1.22-.21 1.83-.32 1.76-.32 3.52-.64 5.27-.98.48-.09.97-.19 1.46-.29 1.53-.29 3.05-.6 4.57-.92.29-.05.58-.11.88-.18 1.48-.3 2.96-.62 4.44-.94.95-.21 1.91-.42 2.86-.64 1.12-.25 2.23-.5 3.34-.76q.885-.195 1.77-.42c3.6-.85 7.19-1.74 10.76-2.68 1.95-.5 3.89-1.03 5.82-1.56.43-.12.86-.23 1.29-.36.43-.12.86-.24 1.28-.37.54-.14 1.08-.3 1.62-.45.54-.14 1.07-.3 1.61-.46 1.93-.56 3.85-1.13 5.77-1.71 1.87-.57 3.74-1.15 5.6-1.73 2.28-.73 4.56-1.47 6.83-2.23 1.59-.53 3.17-1.07 4.75-1.62a426 426 0 0 0 10.6-3.81c.46-.17.93-.35 1.39-.53a431 431 0 0 0 9.99-3.9c.5-.2 1-.4 1.5-.61 1.54-.63 3.08-1.27 4.61-1.91.47-.2.94-.39 1.4-.6.47-.2.93-.4 1.4-.6q1.155-.48 2.31-.99c.14-.05.29-.12.43-.19a454 454 0 0 0 15.99-7.34c2.22-1.06 4.43-2.15 6.63-3.26.88-.44 1.76-.88 2.63-1.33.87-.46 1.74-.91 2.61-1.36.79-.4 1.57-.81 2.35-1.21.78-.41 1.56-.82 2.33-1.24.23-.12.45-.24.67-.36q4.77-2.55 9.48-5.22c.3-.16.59-.32.88-.5a456 456 0 0 0 10-5.85c.95-.58 1.91-1.16 2.86-1.75.16-.09.32-.18.47-.28.16-.09.31-.19.47-.29q.465-.27.93-.57c.14-.08.28-.17.43-.27 1.62-1 3.23-2.02 4.84-3.04.09-.06.19-.12.29-.19 1.57-1 3.14-2.02 4.7-3.04l.71-.47c.25-.16.49-.33.74-.49s.5-.33.74-.5l2.07-1.38c.69-.46 1.38-.93 2.07-1.4 1.38-.93 2.75-1.87 4.11-2.83 1.67-1.16 3.32-2.33 4.97-3.51 1.37-.98 2.74-1.97 4.09-2.97.28-.2.56-.4.84-.61 1.64-1.2 3.27-2.42 4.89-3.65 1.27-.96 2.54-1.93 3.81-2.92.58-.44 1.15-.89 1.72-1.34 1.55-1.2 3.1-2.43 4.63-3.66 1.31-1.05 2.62-2.11 3.92-3.18.31-.25.62-.51.93-.77 1.19-.97 2.38-1.96 3.56-2.96.33-.28.66-.56 1-.84 1.34-1.14 2.68-2.29 4.02-3.44.12-.11.24-.22.37-.33q2.22-1.935 4.44-3.9c1.53-1.36 3.05-2.74 4.57-4.13.01-.01.03-.03.05-.04 1.46-1.34 2.91-2.68 4.35-4.04a392 392 0 0 0 4.39-4.18c.13-.13.26-.25.39-.38 1.31-1.26 2.61-2.54 3.91-3.82.12-.11.23-.22.34-.34a454 454 0 0 0 8.52-8.67c.11-.12.22-.23.32-.34 1.4-1.45 2.78-2.92 4.15-4.4 1.42-1.52 2.83-3.05 4.23-4.6 34.21-37.77 61.92-80.75 82.95-126.96 4.35-9.54 8.41-19.22 12.18-29.03 30.31-78.74 42.12-165.22 34.59-250.34M675.2 1491.24c-14.65 0-28.55-3.22-41.02-8.99h-.01s-.01-.02-.02-.02a586 586 0 0 1-40-33.96c-10.63-15.67-16.84-34.56-16.84-54.91V721.68c0-54.06 43.83-97.89 97.89-97.89h671.68c14.96 0 29.14 3.36 41.82 9.36 33.14 15.68 56.06 49.43 56.06 88.53v671.68c0 16.46-4.06 31.96-11.24 45.57a2 2 0 0 1-.22-.19c-.08-.06-.15-.13-.22-.19-.04-.03-.08-.06-.11-.09-.8-.69-1.59-1.36-2.4-2.02-.64-.53-1.29-1.06-1.94-1.57-.25-.21-.51-.41-.77-.61-.07-.06-.15-.12-.22-.17-.68-.53-1.37-1.06-2.06-1.57-.84-.64-1.69-1.26-2.55-1.87h-.01c-.85-.61-1.71-1.2-2.58-1.79s-1.74-1.17-2.62-1.74c-1.39-.9-2.79-1.76-4.2-2.61-.67-.39-1.34-.79-2.02-1.17a125 125 0 0 0-6.38-3.43c-.61-.31-1.22-.61-1.83-.91-.83-.4-1.67-.8-2.51-1.18-.69-.32-1.39-.63-2.08-.94-.77-.33-1.55-.67-2.33-.99-.67-.28-1.33-.55-2-.81-1-.4-2-.79-3.01-1.16a127 127 0 0 0-6.4-2.19q-1.08-.345-2.16-.66-1.155-.345-2.31-.66c-1.41-.39-2.82-.76-4.24-1.1q-.96-.24-1.92-.45l-1.33-.3-1.74-.36c-.06 0-.11-.02-.17-.03-.63-.13-1.27-.25-1.91-.37-.91-.17-1.83-.33-2.74-.48-.79-.13-1.59-.25-2.38-.37-.79-.11-1.58-.22-2.38-.32q-1.005-.135-2.01-.24c-.32-.04-.63-.07-.95-.11-1.31-.13-2.63-.25-3.95-.35q-1.395-.105-2.79-.18c-.76-.04-1.52-.07-2.28-.1-.83-.03-1.66-.05-2.49-.07-.79-.01-1.58-.02-2.37-.02-.34 0-.68 0-1.02.01-14.46.1-29.08 2.57-43.35 7.54 9.28-27.55 17.64-34.33 24-34.57 8.36-.32 13.54 10.64 25.18 8.95.98-.14 2-.37 3.03-.69.4-.12.81-.26 1.22-.42.4-.16.8-.33 1.2-.5.8-.37 1.6-.8 2.36-1.28a17 17 0 0 0 2.97-2.31c.27-.27.54-.55.8-.84.25-.29.5-.59.74-.9.17-.23.34-.48.51-.72.49-.74.92-1.53 1.26-2.38.04-.1.08-.2.11-.3.22-.58.41-1.17.55-1.78.23-1 .37-2.03.4-3.05.07-1.87-.19-3.73-.75-5.41-.15-.5-.34-.99-.56-1.45-.13-.27-.26-.53-.4-.78q-.225-.39-.48-.78c-.17-.24-.34-.48-.52-.71-.01-.02-.03-.04-.04-.05-.17-.22-.35-.43-.53-.63-.22-.25-.46-.49-.71-.73-6.4-6.13-19.93-7.65-31.79-5.49-3.4.61-6.67 1.53-9.59 2.73-18.28 7.49-30.1 28.81-32.19 54.81-13.5-4.69-27.24-7.4-40.79-8.21-.28-.02-.57-.03-.85-.05-27.51-1.47-54.23 4.88-76.75 18.4a122 122 0 0 0-29.41 24.62c-10.99 12.63-19.05 27.14-24.39 42.66H675.2Zm688.95-124.34c-.15-.5-.34-.99-.56-1.45-.13-.27-.26-.53-.4-.78q-.225-.39-.48-.78c-.17-.24-.34-.48-.52-.71-.01-.02-.03-.04-.04-.05-.17-.22-.35-.43-.53-.63-.22-.25-.46-.49-.71-.73-6.4-6.13-19.93-7.65-31.79-5.49-3.4.61-6.67 1.53-9.59 2.73-18.28 7.49-30.1 28.81-32.19 54.81-13.5-4.69-27.24-7.4-40.79-8.21-.28-.02-.57-.03-.85-.05-27.51-1.47-54.23 4.88-76.75 18.4-15.65 11.98-29.42 26.45-39.81 43.2-.46.73-.91 1.45-1.35 2.19-.44.73-.88 1.46-1.3 2.2-.38.65-.74 1.29-1.09 1.94-.47.82-.91 1.64-1.34 2.46l-.78 1.5q-.51.975-.99 1.98c-.36.71-.7 1.42-1.03 2.13-.4.85-.79 1.7-1.17 2.56-.05.1-.1.2-.13.3q-.36.795-.69 1.59c-.21.47-.41.94-.6 1.42-.32.75-.62 1.5-.91 2.25l-.6 1.56h33.23c.02.12.03.27.02.44 0 .07 0 .14-.01.22v.06c0 .09-.01.2-.03.31-.01.13-.03.28-.05.44-.03.16-.05.34-.08.52l-.06.36c-.1.54-.23 1.16-.37 1.85-.05.26-.11.53-.17.81-.31 1.41-.68 3.07-1.1 4.98-.09.4-.18.82-.27 1.25-.42 1.94-.87 4.1-1.32 6.46-.05.27-.11.53-.16.81 0 .03-.01.06-.01.09l-.15.74a221 221 0 0 0-1.73 10.84c-.08.55-.15 1.11-.22 1.67-.05.37-.1.75-.14 1.13-.09.76-.18 1.53-.27 2.32l-.03.3c-.29 2.65-.53 5.41-.72 8.27v.03c-.1 1.64-.19 3.31-.25 5.02-.02.43-.04.85-.05 1.28l-.03 1.29c-.02.43-.03.87-.03 1.31.42.24.84.48 1.25.72.01 0 .03.02.04.03h.02s.03.03.05.03c1.3.9 2.57 1.83 3.82 2.8l.51.39c.17.13.34.27.51.41.68.53 1.35 1.07 2.01 1.63.67.56 1.34 1.14 2 1.73.69.6 1.37 1.22 2.03 1.85l.19.19c.65.61 1.29 1.24 1.92 1.88.67.66 1.31 1.33 1.95 2.03.02 0 .03.03.04.04.62.66 1.23 1.33 1.81 2.01a83 83 0 0 1 4.85 6.08q.645.87 1.26 1.77t1.2 1.8l.66.03 1.48.06c.21-6.79.92-13.14 1.89-18.96 0-.04 0-.07.02-.11v-.02c.06-.55.13-1.1.19-1.65.09-.77.2-1.53.31-2.3.09-.61.17-1.22.27-1.84l.3-1.92c.02-.14.04-.27.07-.41.08-.54.17-1.08.27-1.61q.075-.51.18-1.02c.04-.27.09-.53.15-.8.11-.64.23-1.27.36-1.91.1-.51.21-1.02.31-1.53 0-.03.01-.06.02-.09.14-.74.3-1.48.47-2.21.2-.92.41-1.84.64-2.75.08-.34.16-.69.25-1.03q.03-.18.09-.36c.1-.44.21-.88.33-1.31.02-.11.04-.22.08-.32.08-.3.15-.6.23-.9.07-.3.15-.6.24-.89.16-.63.33-1.25.51-1.87.11-.4.23-.8.34-1.2.08-.31.17-.62.27-.92.17-.54.33-1.08.49-1.62.06-.21.12-.41.19-.61.22-.76.46-1.5.71-2.25a142 142 0 0 1 1.55-4.54c0-.03 0-.06.03-.08.19-.56.38-1.11.59-1.65.4-1.11.82-2.22 1.26-3.31.31-.82.64-1.63.97-2.43.21-.53.43-1.05.66-1.57.26-.64.53-1.28.82-1.92.24-.56.48-1.11.74-1.66.26-.59.53-1.18.8-1.77.26-.59.54-1.17.83-1.75l.72-1.5s.04-.09.06-.13c.06-.15.14-.29.21-.43.23-.48.47-.96.72-1.43.21-.42.43-.84.65-1.26.06-.16.14-.31.23-.45h.42c1.62-3.36 3.43-6.82 5.43-10.31q.03-.075.09-.15c.5-.81 1.01-1.61 1.52-2.41.47-.75.96-1.49 1.46-2.22q.315-.51.66-.99c.51-.75 1.02-1.49 1.55-2.23.55-.79 1.11-1.57 1.69-2.35.71-.99 1.44-1.96 2.19-2.92.32-.43.65-.87 1-1.29.13-.19.28-.37.44-.55.35-.45.71-.9 1.07-1.34.46-.58.94-1.16 1.43-1.73.29-.35.59-.7.88-1.04.23-.27.46-.54.69-.8 2.11-2.45 4.31-4.82 6.59-7.11.26-.27.53-.54.79-.79.65-.66 1.32-1.3 1.99-1.94.42-.4.85-.79 1.27-1.19.12-.13.26-.25.4-.37.34-.33.69-.65 1.04-.96.4-.36.8-.72 1.21-1.07.4-.37.81-.72 1.22-1.07a123 123 0 0 1 5-4.1c2.54-1.99 5.16-3.89 7.86-5.69.58-.38 1.16-.76 1.75-1.14q1.155-.75 2.34-1.47c.45-.29.92-.57 1.38-.84 3.72-2.22 7.56-4.25 11.52-6.07.63-.3 1.27-.58 1.91-.86.85-.38 1.7-.74 2.56-1.1.63-.27 1.28-.53 1.93-.78.37-.14.75-.29 1.13-.43.41-.16.82-.31 1.23-.46.24-.1.49-.19.74-.27.44-.17.89-.33 1.34-.48.45-.16.89-.31 1.34-.46h.01c.34-.12.69-.23 1.03-.34s.68-.22 1.03-.33c.84-.26 1.68-.52 2.53-.77.84-.24 1.68-.48 2.53-.7 0-.01.03-.02.05-.02.8-.22 1.61-.42 2.42-.62 1.56-.39 3.13-.74 4.72-1.06a61 61 0 0 1 1.81-.35c1.03-.2 2.08-.38 3.13-.55 1.23-.2 2.46-.38 3.71-.54l3.27-.45.11-.02.72-.1h.01c1.14-.85 2.3-1.7 3.47-2.53.73-.27 1.45-.53 2.18-.77 9.28-27.56 17.64-34.34 24-34.58 8.36-.32 13.54 10.64 25.18 8.95.98-.14 2-.37 3.03-.69.4-.12.81-.26 1.22-.42.4-.16.8-.33 1.2-.5.8-.37 1.6-.8 2.36-1.28a17 17 0 0 0 2.97-2.31c.27-.27.54-.55.8-.84.25-.29.5-.59.74-.9.17-.23.34-.48.51-.72.49-.74.92-1.53 1.26-2.38.04-.1.08-.2.11-.3.22-.58.41-1.17.55-1.78.23-1 .37-2.03.4-3.05.07-1.87-.19-3.73-.75-5.41Zm49.47 57.6c-.67-.39-1.34-.79-2.02-1.17a125 125 0 0 0-6.38-3.43c-.61-.31-1.22-.61-1.83-.91-.83-.4-1.67-.8-2.51-1.18-.69-.32-1.39-.63-2.08-.94-.77-.33-1.55-.67-2.33-.99-.67-.28-1.33-.55-2-.81-1-.4-2-.79-3.01-1.16a127 127 0 0 0-6.4-2.19q-1.08-.345-2.16-.66-1.155-.345-2.31-.66c-1.41-.39-2.82-.76-4.24-1.1q-.96-.24-1.92-.45l-1.33-.3-1.74-.36c-.06 0-.11-.02-.17-.03-.63-.13-1.27-.25-1.91-.37-.91-.17-1.83-.33-2.74-.48-.79-.13-1.59-.25-2.38-.37-.79-.11-1.58-.22-2.38-.32q-1.005-.135-2.01-.24c-.32-.04-.63-.07-.95-.11-1.31-.13-2.63-.25-3.95-.35q-1.395-.105-2.79-.18c-.76-.04-1.52-.07-2.28-.1-.83-.03-1.66-.05-2.49-.07-.79-.01-1.58-.02-2.37-.02-.34 0-.68 0-1.02.01a511 511 0 0 1-15.65 21.67c.41.41.8.82 1.19 1.24.39.41.78.83 1.16 1.25 2.32 2.51 4.56 5.09 6.75 7.71 6.07 7.28 11.47 14.93 16.22 22.87 9.71-10.12 21.06-18.37 33.55-24.2q.765-.375 1.56-.72c9.17-4.11 18.94-6.94 29.12-8.27-1.39-.9-2.79-1.76-4.2-2.61" class="cls-5th9"/><path d="M577.31 1085.47v96.19c-3.77-34.63-3.06-66.89 0-96.19m1053.06 176.24c-3.77 9.81-7.83 19.49-12.18 29.03-21.03 46.21-48.74 89.19-82.95 126.96-1.4 1.55-2.81 3.08-4.23 4.6a288 288 0 0 1-4.15 4.4c-.1.11-.21.22-.32.34a454 454 0 0 1-8.52 8.67c-.11.12-.22.23-.34.34-1.3 1.28-2.6 2.56-3.91 3.82-.13.13-.26.25-.39.38-1.39 1.35-2.8 2.68-4.2 4-.07.06-.13.12-.19.18-1.44 1.36-2.89 2.7-4.35 4.04-.02 0-.04.03-.05.04-1.52 1.39-3.04 2.77-4.57 4.13a775 775 0 0 1-4.44 3.9c-.13.11-.25.22-.37.33-1.34 1.15-2.68 2.3-4.02 3.44-.34.28-.67.56-1 .84-1.18 1-2.37 1.99-3.56 2.96-.31.26-.62.52-.93.77-1.3 1.07-2.61 2.13-3.92 3.18a323 323 0 0 1-4.63 3.66c-.57.45-1.14.9-1.72 1.34-1.27.99-2.54 1.96-3.81 2.92-1.62 1.23-3.25 2.45-4.89 3.65-.28.21-.56.41-.84.61-1.35 1-2.72 1.99-4.09 2.97-1.65 1.18-3.3 2.35-4.97 3.51-1.36.96-2.73 1.9-4.11 2.83-.69.47-1.38.94-2.07 1.4l-2.07 1.38c-.24.17-.49.34-.74.5s-.49.33-.74.49l-.71.47c-1.56 1.02-3.13 2.04-4.7 3.04-.1.07-.2.13-.29.19-1.61 1.02-3.22 2.04-4.84 3.04-.15.1-.29.19-.43.27q-.465.3-.93.57c-.16.1-.31.2-.47.29-.15.1-.31.19-.47.28-.95.59-1.91 1.17-2.86 1.75a456 456 0 0 1-10 5.85c-.29.18-.58.34-.88.5q-4.71 2.67-9.48 5.22c-.22.12-.44.24-.67.36-.77.42-1.55.83-2.33 1.24-.78.4-1.56.81-2.35 1.21-.87.45-1.74.9-2.61 1.36-.87.45-1.75.89-2.63 1.33-2.2 1.11-4.41 2.2-6.63 3.26a454 454 0 0 1-15.99 7.34c-.14.07-.29.14-.43.19q-1.155.51-2.31.99c-.47.2-.93.4-1.4.6-.46.21-.93.4-1.4.6-1.53.64-3.07 1.28-4.61 1.91-.5.21-1 .41-1.5.61a431 431 0 0 1-9.99 3.9c-.46.18-.93.36-1.39.53a426 426 0 0 1-10.6 3.81c-1.58.55-3.16 1.09-4.75 1.62-2.27.76-4.55 1.5-6.83 2.23-1.86.58-3.73 1.16-5.6 1.73-1.92.58-3.84 1.15-5.77 1.71-.54.16-1.07.32-1.61.46-.54.15-1.08.31-1.62.45-.42.13-.85.25-1.28.37-.43.13-.86.24-1.29.36-1.93.53-3.87 1.06-5.82 1.56-3.57.94-7.16 1.83-10.76 2.68q-.885.225-1.77.42c-1.11.26-2.22.51-3.34.76-.95.22-1.91.43-2.86.64-1.48.32-2.96.64-4.44.94-.3.07-.59.13-.88.18-1.52.32-3.04.63-4.57.92-.49.1-.98.2-1.46.29-1.75.34-3.51.66-5.27.98-.61.11-1.22.22-1.83.32-.45.08-.9.17-1.35.25-.84.14-1.68.29-2.52.43-.16.03-.32.05-.48.08-3.22.54-6.45 1.04-9.69 1.51l-.62.09c-1.04.16-2.09.3-3.14.44q-3.075.435-6.15.81c-1.39.17-2.78.34-4.17.5a501 501 0 0 1-13 1.32c-1.55.14-3.11.26-4.67.38a.03.03 0 0 1-.04 0c-.3.03-.6.06-.89.07-.11.02-.23.02-.35.03s-.24.01-.35.02c-.11.02-.21.02-.32.02-1.02.09-2.03.16-3.05.22q-.885.075-1.77.12c-.37.03-.75.05-1.13.07q-2.1.135-4.2.24c-.54.03-1.07.06-1.6.08-1.51.07-3.03.14-4.55.2-.2 0-.4.02-.6.02-1.73.07-3.46.13-5.2.17q-.675.03-1.35.03c-1.59.05-3.18.08-4.78.09-.46.02-.92.02-1.38.02-1.83.03-3.66.04-5.5.04q-8.445 0-16.92-.3c-.37-.01-.74-.02-1.11-.04l-.81-.03-1.48-.06-.66-.03c-.37 0-.73-.03-1.1-.05-7.71-.35-15.43-.89-23.15-1.62-4.45-.41-8.91-.89-13.36-1.43-3.9-.47-7.81-1-11.71-1.57-.23-.03-.46-.07-.69-.1h-.01c-.65-.09-1.3-.19-1.95-.29h-.01c-2.63-.4-5.27-.82-7.9-1.27-.15-.02-.31-.05-.46-.07-.24-.04-.48-.08-.71-.12l-1.37-.24h-.01q-6.99-1.215-13.98-2.64c-.23-.05-.46-.1-.69-.14h-.01c-.44-.09-.89-.19-1.33-.28-4.33-.9-8.66-1.86-12.98-2.88-1.82-.43-3.64-.86-5.46-1.32a504 504 0 0 1-21.97-5.96c-.19-.06-.38-.12-.57-.17-4.63-1.38-9.25-2.83-13.87-4.35-.84.28-2.78.92-5.73 1.81-2.48.75-5.66 1.69-9.52 2.74-.01-.01-.01 0-.01 0-.56.16-1.14.31-1.73.48h-.01c-.98.26-1.99.53-3.04.81-7.85 2.06-17.78 4.45-29.48 6.85h-.01c-29.85 6.12-71.2 12.23-118.89 12.84-16.21-8.37-64.36-34.11-117.03-79.23h365.27c5.34-15.52 13.4-30.03 24.39-42.66 8.56-9.84 18.49-18.08 29.41-24.62 22.52-13.52 49.24-19.87 76.75-18.4.28.02.57.03.85.05 13.55.81 27.29 3.52 40.79 8.21 2.09-26 13.91-47.32 32.19-54.81 2.92-1.2 6.19-2.12 9.59-2.73 11.86-2.16 25.39-.64 31.79 5.48.25.25.49.49.71.74.18.2.36.41.53.63a19 19 0 0 1 .56.76q.255.39.48.78c.14.25.27.51.4.78.22.46.41.95.56 1.45.56 1.68.82 3.54.75 5.41-.03 1.02-.17 2.05-.4 3.05-.14.61-.33 1.2-.55 1.78-.03.1-.07.2-.11.3-.34.85-.77 1.64-1.26 2.38-.17.24-.34.49-.51.72-.24.31-.49.61-.74.9-.26.29-.53.57-.8.84a17 17 0 0 1-2.97 2.31c-.76.48-1.56.91-2.36 1.28-.4.17-.8.34-1.2.5-.41.16-.82.3-1.22.42-1.03.32-2.05.55-3.03.69-11.64 1.69-16.82-9.27-25.18-8.95-6.36.24-14.72 7.02-24 34.57 14.27-4.97 28.89-7.44 43.35-7.54.34-.01.68-.01 1.02-.01.79 0 1.58.01 2.37.02.83.02 1.66.04 2.49.07.76.03 1.52.06 2.28.1q1.395.075 2.79.18c1.32.1 2.64.22 3.95.35.32.04.63.07.95.11q1.005.105 2.01.24c.8.1 1.59.21 2.38.32.79.12 1.59.24 2.38.37a131 131 0 0 1 4.65.85c.06 0 .11.02.17.03l1.74.36 1.33.3q.96.21 1.92.45c1.42.34 2.83.71 4.24 1.1q1.155.315 2.31.66 1.08.315 2.16.66a127 127 0 0 1 6.4 2.19c1.01.37 2.01.76 3.01 1.16.67.26 1.33.53 2 .81.78.32 1.56.66 2.33.99.69.31 1.39.62 2.08.94a115 115 0 0 1 4.34 2.09 125 125 0 0 1 6.38 3.43c.68.38 1.35.78 2.02 1.17 1.41.85 2.81 1.71 4.2 2.61.88.57 1.75 1.15 2.62 1.74s1.73 1.18 2.58 1.79h.01c.86.61 1.71 1.23 2.55 1.87.69.51 1.38 1.04 2.06 1.57.07.05.15.11.22.17.26.2.52.4.77.61.65.51 1.3 1.04 1.94 1.57.81.66 1.6 1.33 2.4 2.02.03.03.07.06.11.09.07.06.14.13.22.19a2 2 0 0 0 .22.19c7.18-13.61 11.24-29.11 11.24-45.57V721.67c0-39.1-22.92-72.85-56.06-88.53-12.68-6-26.86-9.36-41.82-9.36H862.81c44.8-21.24 86.66-31.56 118.83-36.84h.02c5.12-.85 10-1.56 14.6-2.17.02 0 .05-.01.07-.01h.06c2.11-.28 4.17-.53 6.16-.77q2.88-1.185 5.76-2.34c4.23-1.69 8.46-3.32 12.71-4.88 2.53-.93 5.06-1.84 7.6-2.71h.01c51.04-17.8 103.38-26.38 155.09-26.38 1.4 0 2.81.01 4.21.02s2.79.03 4.19.06c.82.01 1.63.03 2.45.05.98.02 1.96.05 2.93.08h.11c2.27.06 4.53.15 6.79.25q2.88.12 5.73.3c.96.04 1.92.1 2.87.17 5.42.33 10.83.77 16.22 1.29.91.09 1.81.19 2.72.28 1.51.16 3.01.32 4.52.49.88.1 1.77.21 2.65.31q5.16.615 10.29 1.35c1.14.16 2.28.33 3.42.5a373 373 0 0 1 10.24 1.65c2.14.37 4.28.75 6.41 1.15 1.49.27 2.98.56 4.46.85.9.18 1.81.36 2.72.55 1.12.23 2.25.46 3.38.7 4.65.97 9.28 2.02 13.89 3.14 3.22.78 6.42 1.6 9.62 2.45 2.22.59 4.44 1.2 6.66 1.82q2.01.555 3.99 1.14c1.99.58 3.97 1.17 5.95 1.77q1.665.495 3.3 1.02c1.02.32 2.05.65 3.07.97.14.04.28.09.41.13 1.03.34 2.06.67 3.09 1.01 4.38 1.44 8.73 2.94 13.06 4.52 1.09.39 2.17.79 3.25 1.19 1.19.43 2.37.88 3.55 1.33 3.12 1.19 6.24 2.41 9.35 3.66a429 429 0 0 1 6.38 2.64c4.26 1.79 8.49 3.64 12.69 5.57.9.41 1.8.82 2.69 1.24 1.21.55 2.41 1.12 3.6 1.69 1.04.49 2.09.99 3.13 1.49h.01c2.01.98 4.02 1.97 6.02 2.98 3.17 1.58 6.32 3.2 9.45 4.87 1.03.54 2.05 1.09 3.07 1.64 8.65 4.66 17.18 9.6 25.56 14.83 1.03.63 2.05 1.27 3.07 1.92.9.57 1.79 1.14 2.68 1.72.3.18.59.37.89.57h.01c1.62 1.05 3.24 2.11 4.85 3.18 1.09.72 2.17 1.44 3.25 2.18.62.41 1.24.83 1.85 1.25 1.24.84 2.48 1.7 3.72 2.56l.09.06c1.47 1.03 2.95 2.07 4.41 3.11q4.89 3.48 9.69 7.11c1.03.76 2.05 1.54 3.07 2.32 1.95 1.48 3.88 2.98 5.8 4.5a432 432 0 0 1 10.31 8.38c1.13.94 2.26 1.89 3.38 2.85q.945.795 1.89 1.62a435 435 0 0 1 12.48 11.12c.54.49 1.07.98 1.6 1.48.8.73 1.6 1.48 2.39 2.24 3.87 3.65 7.69 7.37 11.45 11.17.85.85 1.68 1.7 2.52 2.56a486 486 0 0 1 13.01 13.84c.58.65 1.17 1.3 1.76 1.96.81.9 1.61 1.8 2.4 2.71.75.85 1.5 1.71 2.25 2.57.15.17.29.34.44.51 1.45 1.68 2.89 3.36 4.32 5.06.63.74 1.25 1.49 1.88 2.24.96 1.15 1.91 2.31 2.86 3.47 2.73 3.34 5.43 6.73 8.08 10.17.67.86 1.34 1.73 2 2.6l1.23 1.62c.23.29.45.58.66.88.83 1.09 1.64 2.18 2.45 3.28.03.03.05.06.08.1 1.13 1.53 2.26 3.07 3.38 4.62 36.61 50.67 62.89 107.16 79.16 166.15 8.93 32.38 14.84 65.51 17.78 98.85 7.53 85.12-4.28 171.6-34.59 250.34Z" class="cls-5th4"/><path d="M1630.37 1261.71c-3.77 9.81-7.83 19.49-12.18 29.03-21.03 46.21-48.74 89.19-82.95 126.96-1.4 1.55-2.81 3.08-4.23 4.6a288 288 0 0 1-4.15 4.4c-.1.11-.21.22-.32.34a454 454 0 0 1-8.52 8.67c-.11.12-.22.23-.34.34-1.3 1.28-2.6 2.56-3.91 3.82-.13.13-.26.25-.39.38-1.39 1.35-2.8 2.68-4.2 4-.07.06-.13.12-.19.18-1.44 1.36-2.89 2.7-4.35 4.04-.02 0-.04.03-.05.04-1.52 1.39-3.04 2.77-4.57 4.13a775 775 0 0 1-4.44 3.9c-.13.11-.25.22-.37.33-1.34 1.15-2.68 2.3-4.02 3.44-.34.28-.67.56-1 .84-1.18 1-2.37 1.99-3.56 2.96-.31.26-.62.52-.93.77-1.3 1.07-2.61 2.13-3.92 3.18a323 323 0 0 1-4.63 3.66c-.57.45-1.14.9-1.72 1.34-1.27.99-2.54 1.96-3.81 2.92-1.62 1.23-3.25 2.45-4.89 3.65-.28.21-.56.42-.84.62-1.36 1-2.72 1.99-4.09 2.96-1.65 1.18-3.3 2.35-4.97 3.51-1.36.96-2.73 1.9-4.11 2.83-.69.47-1.38.94-2.07 1.4-.68.46-1.36.92-2.05 1.38-.25.17-.51.33-.76.5-.25.16-.49.33-.74.49l-.71.47c-1.56 1.02-3.13 2.04-4.7 3.04-.1.07-.2.13-.29.19-1.61 1.02-3.22 2.04-4.84 3.04-.15.1-.29.19-.43.27q-.465.3-.93.57c-.16.1-.31.2-.47.29-.15.1-.31.2-.46.29-.96.59-1.91 1.17-2.87 1.74a456 456 0 0 1-10 5.85c-.29.18-.58.34-.88.5-3.14 1.79-6.3 3.53-9.48 5.23-.22.12-.44.24-.67.35-.77.42-1.55.83-2.33 1.24s-1.56.82-2.34 1.22c-.87.46-1.74.9-2.62 1.35-.87.45-1.75.89-2.63 1.33-2.2 1.11-4.41 2.2-6.63 3.26-3.48 1.68-6.97 3.32-10.49 4.9-1.83.83-3.66 1.64-5.5 2.44-.14.07-.29.14-.43.19-.77.34-1.54.67-2.31 1-.47.2-.93.4-1.4.59-.46.21-.93.4-1.4.6-1.53.64-3.07 1.28-4.61 1.91-.5.21-1 .41-1.5.61a431 431 0 0 1-9.99 3.9c-.46.18-.93.36-1.39.53a426 426 0 0 1-10.6 3.81c-1.58.55-3.16 1.09-4.75 1.62-2.27.76-4.55 1.5-6.83 2.23-1.86.58-3.73 1.16-5.6 1.73-1.92.58-3.84 1.15-5.77 1.71-.54.16-1.07.32-1.61.46-.54.17-1.08.32-1.62.47-.43.12-.85.24-1.28.35-.43.13-.86.24-1.29.36-1.93.53-3.87 1.06-5.82 1.56-3.57.94-7.16 1.84-10.76 2.68q-.885.225-1.77.42c-1.11.26-2.22.51-3.34.76-.95.22-1.91.43-2.86.64-1.48.32-2.96.64-4.44.94-.3.07-.59.13-.88.18-1.52.32-3.04.63-4.57.92-.49.1-.98.2-1.46.29-1.75.34-3.51.66-5.27.98-.61.12-1.21.22-1.82.33-.45.08-.9.16-1.36.24-.84.14-1.68.29-2.52.43-.16.03-.32.05-.48.08-3.22.54-6.45 1.04-9.69 1.51l-.62.09c-1.04.16-2.09.3-3.14.44q-3.075.435-6.15.81c-1.39.17-2.78.34-4.17.5a501 501 0 0 1-13 1.32c-1.55.14-3.11.26-4.67.38a.03.03 0 0 1-.04 0c-.3.03-.6.06-.89.07-.11.02-.23.02-.35.03l-.35.03c-.11.01-.21.02-.32.02-1.02.08-2.03.15-3.05.21q-.885.075-1.77.12c-.37.03-.75.05-1.13.07q-2.1.135-4.2.24c-.54.03-1.07.06-1.6.08-1.51.07-3.03.14-4.55.2-.2 0-.4.02-.6.02-1.73.07-3.46.13-5.2.17q-.675.03-1.35.03c-1.59.05-3.18.08-4.78.09-.46.02-.92.02-1.38.02-1.83.03-3.66.04-5.5.04q-8.445 0-16.92-.3c-.37-.01-.74-.02-1.11-.04l-.81-.03-1.48-.06-.66-.03c-.37 0-.73-.03-1.1-.05-7.71-.35-15.43-.89-23.15-1.62-4.45-.41-8.91-.89-13.36-1.43-3.9-.47-7.81-1-11.71-1.57-.23-.03-.46-.07-.69-.1h-.01c-.65-.09-1.3-.19-1.95-.29h-.01c-2.63-.4-5.27-.82-7.9-1.27-.15-.02-.31-.05-.46-.07-.24-.04-.48-.08-.71-.12-.46-.09-.92-.16-1.38-.25-4.66-.8-9.32-1.68-13.98-2.63-.23-.05-.46-.1-.69-.14h-.01c-.44-.09-.89-.19-1.33-.28-4.33-.9-8.66-1.86-12.98-2.88-1.82-.43-3.64-.86-5.46-1.32a504 504 0 0 1-21.97-5.96c-.19-.06-.38-.12-.57-.17-4.63-1.38-9.25-2.83-13.87-4.35-.84.28-2.78.92-5.73 1.81-1.03-.71-2.06-1.43-3.09-2.14-.15-.11-.3-.21-.45-.32-2.9-2.02-5.78-4.07-8.64-6.14h-.01a675 675 0 0 1-58.01-46.91h155.75c5.34-15.52 13.4-30.03 24.39-42.66 8.56-9.84 18.49-18.08 29.41-24.62 22.52-13.52 49.24-19.87 76.75-18.4.28.02.57.03.85.05 13.55.81 27.29 3.52 40.79 8.21 2.09-26 13.91-47.32 32.19-54.81 2.92-1.2 6.19-2.12 9.59-2.73 11.86-2.16 25.39-.64 31.79 5.48.25.25.49.49.71.74.18.2.36.41.53.63a19 19 0 0 1 .56.76q.255.39.48.78c.14.25.27.51.4.78.22.46.41.95.56 1.45.56 1.68.82 3.54.75 5.41-.03 1.02-.17 2.05-.4 3.05-.14.61-.33 1.2-.55 1.78-.03.1-.07.2-.11.3-.34.85-.77 1.64-1.26 2.38-.17.24-.34.49-.51.72-.24.31-.49.61-.74.9-.26.29-.53.57-.8.84a17 17 0 0 1-2.97 2.31c-.76.48-1.56.91-2.36 1.28-.4.17-.8.34-1.2.5-.41.16-.82.3-1.22.42-1.03.32-2.05.55-3.03.69-11.64 1.69-16.82-9.27-25.18-8.95-6.36.24-14.72 7.02-24 34.57 14.27-4.97 28.89-7.44 43.35-7.54.34-.01.68-.01 1.02-.01.79 0 1.58.01 2.37.02.83.02 1.66.04 2.49.07.76.03 1.52.06 2.28.1q1.395.075 2.79.18c1.32.1 2.64.22 3.95.35.32.04.63.07.95.11q1.005.105 2.01.24c.8.1 1.59.21 2.38.32.79.12 1.59.24 2.38.37a131 131 0 0 1 4.65.85c.06 0 .11.02.17.03l1.74.36 1.33.3q.96.21 1.92.45c1.42.34 2.83.71 4.24 1.1q1.155.315 2.31.66 1.08.315 2.16.66a127 127 0 0 1 6.4 2.19c1.01.37 2.01.76 3.01 1.16.67.26 1.33.53 2 .81.78.32 1.56.66 2.33.99.69.31 1.39.62 2.08.94a115 115 0 0 1 4.34 2.09 125 125 0 0 1 6.38 3.43c.68.38 1.35.78 2.02 1.17 1.41.85 2.81 1.71 4.2 2.61.88.57 1.75 1.15 2.62 1.74s1.73 1.18 2.58 1.79h.01c.86.61 1.71 1.23 2.55 1.87.69.51 1.38 1.04 2.06 1.57.07.05.15.11.22.17.26.2.52.4.77.61.65.51 1.3 1.04 1.94 1.57.81.66 1.6 1.33 2.4 2.02.03.03.07.06.11.09.07.06.14.13.22.19a2 2 0 0 0 .22.19c7.18-13.61 11.24-29.11 11.24-45.57V721.67c0-39.1-22.92-72.85-56.06-88.53-12.68-6-26.86-9.36-41.82-9.36H962.16c9.06-8.11 18.38-15.99 27.93-23.64h.01c1.65-1.33 3.3-2.64 4.96-3.94.16-.14.32-.26.49-.39a678 678 0 0 1 25.47-19.04c2.53-.93 5.06-1.84 7.6-2.71h.01c51.04-17.8 103.38-26.38 155.09-26.38 1.4 0 2.81.01 4.21.02s2.79.03 4.19.06c.82.01 1.63.03 2.45.05.98.02 1.96.05 2.93.08h.11c2.27.06 4.53.15 6.79.25q2.88.12 5.73.3c.96.04 1.92.1 2.87.17 5.42.33 10.83.77 16.22 1.29.91.09 1.81.19 2.72.28 1.51.16 3.01.32 4.52.49.88.1 1.77.21 2.65.31q5.16.615 10.29 1.35c1.14.16 2.28.33 3.42.5a373 373 0 0 1 10.24 1.65c2.14.37 4.28.75 6.41 1.15 1.49.27 2.98.56 4.46.85.9.18 1.81.36 2.72.55 1.12.23 2.25.46 3.38.7 4.65.97 9.28 2.02 13.89 3.14 3.22.78 6.42 1.6 9.62 2.45 2.22.59 4.44 1.2 6.66 1.82q2.01.555 3.99 1.14c1.99.58 3.97 1.17 5.95 1.77q1.665.495 3.3 1.02c1.02.32 2.05.65 3.07.97.14.04.28.09.41.13 1.03.34 2.06.67 3.09 1.01 4.38 1.44 8.73 2.94 13.06 4.52 1.09.39 2.17.79 3.25 1.19 1.19.43 2.37.88 3.55 1.33 3.13 1.18 6.25 2.4 9.35 3.66a429 429 0 0 1 6.38 2.64c4.26 1.79 8.49 3.64 12.69 5.57.9.41 1.8.82 2.69 1.24 1.21.55 2.41 1.12 3.6 1.69 1.04.49 2.09.99 3.13 1.49h.01c2.01.98 4.02 1.97 6.02 2.98 3.17 1.58 6.32 3.2 9.45 4.87 1.03.54 2.05 1.09 3.07 1.64 8.65 4.66 17.18 9.6 25.56 14.83 1.03.63 2.05 1.27 3.07 1.92.9.57 1.79 1.14 2.68 1.72.3.18.59.37.89.57h.01c1.62 1.05 3.24 2.11 4.85 3.18 1.09.72 2.17 1.44 3.25 2.18.62.41 1.24.83 1.85 1.25 1.24.84 2.48 1.7 3.72 2.56l.09.06c1.47 1.03 2.95 2.07 4.41 3.11q4.89 3.48 9.69 7.11c1.03.76 2.05 1.54 3.07 2.32 1.95 1.48 3.88 2.98 5.8 4.5a432 432 0 0 1 10.31 8.38c1.13.94 2.26 1.89 3.38 2.85q.945.795 1.89 1.62a435 435 0 0 1 12.48 11.12c.54.49 1.07.98 1.6 1.48.8.73 1.6 1.48 2.39 2.24 3.87 3.65 7.69 7.37 11.45 11.17.85.85 1.68 1.7 2.52 2.56 1.55 1.57 3.08 3.16 4.59 4.76 2.84 2.98 5.64 6.01 8.42 9.08.58.65 1.17 1.3 1.76 1.96.81.9 1.61 1.8 2.4 2.71.75.85 1.5 1.71 2.25 2.57.15.17.29.34.44.51 1.46 1.67 2.9 3.36 4.32 5.06.63.74 1.25 1.49 1.88 2.24.96 1.15 1.91 2.31 2.86 3.47 2.73 3.34 5.43 6.73 8.08 10.17.67.86 1.34 1.73 2 2.6l1.23 1.62c.23.29.45.58.66.88.83 1.09 1.64 2.18 2.45 3.28.03.03.05.06.08.1 1.13 1.53 2.26 3.07 3.38 4.62 36.61 50.67 62.89 107.16 79.16 166.15 8.93 32.38 14.84 65.51 17.78 98.85 7.53 85.12-4.28 171.6-34.59 250.34Z" class="cls-5th7"/><path d="M1630.37 1261.71c-3.77 9.81-7.83 19.49-12.18 29.03-21.03 46.21-48.74 89.19-82.95 126.96-1.4 1.55-2.81 3.08-4.23 4.6a288 288 0 0 1-4.15 4.4c-.1.11-.21.22-.32.34a454 454 0 0 1-8.52 8.67c-.11.12-.22.23-.34.34-1.3 1.28-2.6 2.56-3.91 3.82-.13.13-.26.25-.39.38-1.39 1.35-2.8 2.68-4.2 4-.07.06-.13.12-.19.18-1.44 1.36-2.89 2.7-4.35 4.04-.02 0-.04.03-.05.04-1.52 1.39-3.04 2.77-4.57 4.13a775 775 0 0 1-4.44 3.9c-.13.11-.25.22-.37.33-1.34 1.15-2.68 2.3-4.02 3.44-.34.28-.67.56-1 .84-1.18 1-2.37 1.99-3.56 2.96-.31.26-.62.52-.93.77-1.3 1.07-2.61 2.13-3.92 3.18a323 323 0 0 1-4.63 3.66c-.57.45-1.14.9-1.72 1.34-1.27.99-2.54 1.96-3.81 2.92-1.62 1.23-3.25 2.45-4.89 3.65-.28.21-.56.42-.84.62-1.36 1-2.72 1.99-4.09 2.96-1.65 1.18-3.3 2.35-4.97 3.51-1.36.96-2.73 1.9-4.11 2.83-.69.47-1.38.94-2.07 1.4-.68.46-1.36.92-2.05 1.38h-.02c-5.71-.59-11.39-1.3-17.03-2.16-.87-.13-1.75-.26-2.62-.4a360 360 0 0 1-39.11-8.43 359 359 0 0 1-29.97-9.63 341 341 0 0 1-12.2-4.75 374 374 0 0 1-37.12-17.67 381 381 0 0 1-15.55-8.96q-2.205-1.335-4.38-2.7c-2.52-1.57-5.01-3.17-7.49-4.81-1.26-.83-2.52-1.66-3.77-2.51-.2-.13-.4-.27-.6-.41-.48-.32-.96-.64-1.44-.98-2.36-1.6-4.7-3.24-7.02-4.91-.82-.58-1.63-1.17-2.43-1.75h-.01c-.25-.18-.49-.36-.73-.55-7.02-5.13-13.87-10.5-20.56-16.1 13.55.81 27.29 3.52 40.79 8.21 2.09-26 13.91-47.32 32.19-54.81 2.92-1.2 6.19-2.12 9.59-2.73 11.86-2.16 25.39-.64 31.79 5.48.25.25.49.49.71.74.18.2.36.41.53.63a19 19 0 0 1 .56.76q.255.39.48.78c.14.25.27.51.4.78.22.46.41.95.56 1.45.56 1.68.82 3.54.75 5.41-.03 1.02-.17 2.05-.4 3.05-.14.61-.33 1.2-.55 1.78-.03.1-.07.2-.11.3-.34.85-.77 1.64-1.26 2.38-.17.24-.34.49-.51.72-.24.31-.49.61-.74.9-.26.29-.53.57-.8.84a17 17 0 0 1-2.97 2.31c-.76.48-1.56.91-2.36 1.28-.4.17-.8.34-1.2.5-.41.16-.82.3-1.22.42-1.03.32-2.05.55-3.03.69-11.64 1.69-16.82-9.27-25.18-8.95-6.36.24-14.72 7.02-24 34.57 14.27-4.97 28.89-7.44 43.35-7.54.34-.01.68-.01 1.02-.01.79 0 1.58.01 2.37.02.83.02 1.66.04 2.49.07.76.03 1.52.06 2.28.1q1.395.075 2.79.18c1.32.1 2.64.22 3.95.35.32.04.63.07.95.11q1.005.105 2.01.24c.8.1 1.59.21 2.38.32.79.12 1.59.24 2.38.37a131 131 0 0 1 4.65.85c.06 0 .11.02.17.03l1.74.36 1.33.3q.96.21 1.92.45c1.42.34 2.83.71 4.24 1.1q1.155.315 2.31.66 1.08.315 2.16.66a127 127 0 0 1 6.4 2.19c1.01.37 2.01.76 3.01 1.16.67.26 1.33.53 2 .81.78.32 1.56.66 2.33.99.69.31 1.39.62 2.08.94a115 115 0 0 1 4.34 2.09 125 125 0 0 1 6.38 3.43c.68.38 1.35.78 2.02 1.17 1.41.85 2.81 1.71 4.2 2.61.88.57 1.75 1.15 2.62 1.74s1.73 1.18 2.58 1.79h.01c.86.61 1.71 1.23 2.55 1.87.69.51 1.38 1.04 2.06 1.57.07.05.15.11.22.17.26.2.52.4.77.61.65.51 1.3 1.04 1.94 1.57.81.66 1.6 1.33 2.4 2.02.03.03.07.06.11.09.07.06.14.13.22.19a2 2 0 0 0 .22.19c7.18-13.61 11.24-29.11 11.24-45.57V721.67c0-39.1-22.92-72.85-56.06-88.53a363 363 0 0 1 49.76-10.1h.01c1.62 1.05 3.24 2.11 4.85 3.18 1.09.72 2.17 1.44 3.25 2.18.62.41 1.24.83 1.85 1.25 1.24.84 2.48 1.7 3.72 2.56l.09.06c1.47 1.03 2.95 2.07 4.41 3.11q4.89 3.48 9.69 7.11c1.03.76 2.05 1.54 3.07 2.32 1.95 1.48 3.88 2.98 5.8 4.5a432 432 0 0 1 10.31 8.38c1.13.94 2.26 1.89 3.38 2.85q.945.795 1.89 1.62a435 435 0 0 1 12.48 11.12c.54.49 1.07.98 1.6 1.48.8.73 1.6 1.48 2.39 2.24 3.87 3.65 7.69 7.37 11.45 11.17.85.85 1.68 1.7 2.52 2.56 1.55 1.57 3.08 3.16 4.59 4.76 2.84 2.98 5.64 6.01 8.42 9.08.58.65 1.17 1.3 1.76 1.96.81.9 1.61 1.8 2.4 2.71.75.85 1.5 1.71 2.25 2.57.15.17.29.34.44.51 1.46 1.67 2.9 3.36 4.32 5.06.63.74 1.25 1.49 1.88 2.24.96 1.15 1.91 2.31 2.86 3.47 2.73 3.34 5.43 6.73 8.08 10.17.67.86 1.34 1.73 2 2.6l1.23 1.62c.23.29.45.58.66.88.83 1.09 1.64 2.18 2.45 3.28.03.03.05.06.08.1 1.13 1.53 2.26 3.07 3.38 4.62 36.61 50.67 62.89 107.16 79.16 166.15 8.93 32.38 14.84 65.51 17.78 98.85 7.53 85.12-4.28 171.6-34.59 250.34Z" class="cls-5th4"/><path d="m1009.54 585.56-11.72 9.63c-1.96 1.6-3.92 3.22-5.87 4.85h-.01c-9.08 7.6-17.98 15.52-26.68 23.74h-12.42q13.5-13.11 27.78-25.38c-30.77 5.22-60.98 13.67-89.9 25.38h-21.03c35.49-16.38 73.24-27.85 111.82-34.21h.02q6.48-1.08 12.99-1.95l14.31-1.96zm290.7 38.23h-6.52c-21.68-16.59-44.38-31.96-67.9-45.77-9.71-5.69-19.55-11.17-29.66-16.14 36.43 17.06 71.36 37.89 104.08 61.91m182.01 743.32c-13.14 26.14-27.81 51.62-44.41 75.76h-.01c-6.03 8.8-12.33 17.41-18.91 25.81-.45.58-.91 1.16-1.36 1.73q-2.82 3.57-5.7 7.08c1.85-2.45 3.67-4.92 5.48-7.4.43-.6.87-1.2 1.3-1.8a580 580 0 0 0 18.01-26.52c16.42-25.68 30.89-52.63 43.64-80.28 49.34-106.57 70-227.34 52.29-343.83-.65-4.88-1.69-11.8-2.67-16.55-.62-3.23-3.24-17.71-3.98-20.58-.61-2.56-2.25-9.59-2.87-12.25-.69-2.86-2.14-9.49-2.88-12.24-.74-2.67-4.82-17.22-5.65-20.19-2.03-7.42-5.34-16.6-7.69-23.95-2.37-7.45-7.5-20.13-10.22-27.51-3-7.11-6.89-16-9.94-23.1-3.49-6.96-9.17-19.58-12.92-26.36-1.94-3.61-5.94-11.18-7.88-14.81-4.16-7.29-8.41-14.53-12.7-21.74-2.75-4.45-5.55-8.87-8.42-13.25v-13.28c19.71 28.44 36.91 58.52 51.15 89.88 2.44 5.78 6.07 13.77 8.46 19.52 2.75 7.51 8.05 20.33 10.46 27.88 1.91 5.87 4.81 14.35 6.71 20.19 2.09 7.69 6.15 21.01 7.97 28.7 1.71 7.67 4.13 17.21 5.69 24.88 1.74 9.61 4.61 23.94 5.75 33.54.61 4.74 1.82 12.14 2.28 16.86 1.74 16.85 3.22 33.97 3.55 50.92 2.53 97.79-21.09 195.48-64.53 282.89m-356.36-743.32h-3.46c-.66-.75-1.33-1.5-2-2.25-11.69-12.99-23.83-25.59-36.52-37.65 13.3 11.4 26.05 23.44 38.26 36.02 1.25 1.29 2.49 2.58 3.72 3.88m-475.77 904.74c-199.88-85.33-314.79-310.8-303.69-522.88l1.12-17.36c.33-2.98 1.97-18.93 2.27-21.62.89-6.2 2.29-15.29 3.21-21.5.83-4.22 2.45-12.85 3.28-17.08 13.23-65.21 40.12-127.8 78.04-182.45 36.36-51.98 82.46-97.27 134.23-133.62-36.5 28.02-70.12 59.74-99.11 95.26-39.83 48.46-71.12 104.65-90.29 164.41-.97 2.95-3.01 9.44-3.92 12.23-.65 2.23-4.88 17.97-5.64 20.65-1.35 6.05-4.52 19.24-5.53 25.08-.76 4.24-2.33 12.62-3.09 16.84-.58 4.26-1.81 12.71-2.39 16.95-.87 5.46-2.15 19.81-2.78 25.53-6.65 84 6.43 169.24 35.88 248.08 47.51 126.02 135.5 233.19 258.4 291.47Z" class="cls-5th6"/><path d="M594.15 1448.26c-54.1-50.29-109.1-120.67-137.52-210.68-62.78-198.8 35.59-393.73 46.22-391.78 9.72 1.79-58.93 167.34-1.11 361.18 18.26 61.23 45.71 113.78 75.57 157.87v28.51c0 20.35 6.21 39.24 16.84 54.9m146.4 93.06c-3.74 4.03-50.56-15.85-106.37-59.07 12.47 5.77 26.37 8.99 41.02 8.99h12.4c33.1 30.48 55.81 47 52.95 50.08" class="cls-5th4"/><path d="M1364.9 1372.31c-2.41 4.17-4.86 8.26-7.34 12.27-.76.49-1.56.92-2.36 1.29-.4.17-.8.34-1.2.5-.41.16-.82.3-1.22.42-1.03.32-2.05.55-3.03.69-11.64 1.69-16.82-9.27-25.18-8.95-6.36.24-14.72 7.02-24 34.57 14.27-4.97 28.89-7.44 43.35-7.54a511 511 0 0 1-15.65 21.67 520 520 0 0 1-17.74 22.06c-11.55 13.6-23.03 25.7-34.03 36.31-1.99 1.94-3.97 3.81-5.93 5.64-6.2 5.79-12.2 11.07-17.94 15.87h-.01c-9 7.54-17.34 13.85-24.69 18.93-.77.54-1.52 1.05-2.26 1.56-.05.03-.09.06-.13.08-16.58 11.2-27.63 15.77-29.19 13.64-2.13-2.92 13.8-17.92 37.63-45.44.1-.11.2-.22.29-.33h.01c1.21-1.4 2.44-2.84 3.68-4.3.21-.24.41-.47.61-.71 13.29-15.61 28.66-34.82 44.54-57.71 2.79-4 5.58-8.12 8.39-12.36.55-.83 1.1-1.65 1.64-2.48.1-.15.19-.29.28-.44.23-.33.45-.67.66-1.01.12-.18.24-.36.35-.54.08-.1.15-.21.21-.32.11-.15.21-.31.31-.47a672 672 0 0 0 25.91-43.34c2.78-5.07 5.54-10.27 8.26-15.58 11.86-2.16 25.39-.64 31.79 5.48.25.25.49.49.71.74.18.2.36.41.53.63a19 19 0 0 1 .56.76q.255.39.48.78c.14.25.27.51.4.78.22.46.41.95.56 1.45.56 1.68.82 3.54.75 5.41Z" class="cls-5th7"/><path d="M634.15 1482.23c-16.22-7.49-30.05-19.31-40-33.96a586 586 0 0 0 40 33.96m799.37-43.3h-.01a97.2 97.2 0 0 1-18.35 24.53q-.735.75-1.5 1.44a97.5 97.5 0 0 1-23.84 16.43 96.3 96.3 0 0 1-22.4 7.73q-1.11.255-2.22.45a98 98 0 0 1-18.32 1.72h-231.73c5.34-15.52 13.4-30.03 24.39-42.66 8.56-9.84 18.49-18.08 29.41-24.62 22.52-13.52 49.24-19.87 76.75-18.4.28.02.57.03.85.05 13.55.81 27.29 3.52 40.79 8.21 2.09-26 13.91-47.32 32.19-54.81 2.92-1.2 6.19-2.12 9.59-2.73 11.86-2.16 25.39-.64 31.79 5.48.25.25.49.49.71.74.18.2.36.41.53.63a19 19 0 0 1 .56.76q.255.39.48.78c.14.25.27.51.4.78.22.46.41.95.56 1.45.56 1.68.82 3.54.75 5.41-.03 1.02-.17 2.05-.4 3.05-.14.61-.33 1.2-.55 1.78-.03.1-.07.2-.11.3-.34.85-.77 1.64-1.26 2.38-.17.24-.34.49-.51.72-.24.31-.49.61-.74.9-.26.29-.53.57-.8.84a17 17 0 0 1-2.97 2.31c-.76.48-1.56.91-2.36 1.28-.4.17-.8.34-1.2.5-.41.16-.82.3-1.22.42-1.03.32-2.05.55-3.03.69-11.64 1.69-16.82-9.27-25.18-8.95-6.36.24-14.72 7.02-24 34.57 14.27-4.97 28.89-7.44 43.35-7.54.34-.01.68-.01 1.02-.01.79 0 1.58.01 2.37.02.83.02 1.66.04 2.49.07.76.03 1.52.06 2.28.1q1.395.075 2.79.18c1.32.1 2.64.22 3.95.35.32.04.63.07.95.11q1.005.105 2.01.24c.8.1 1.59.21 2.38.32.79.12 1.59.24 2.38.37a131 131 0 0 1 4.65.85c.06 0 .11.02.17.03l1.74.36 1.33.3q.96.21 1.92.45c1.42.34 2.83.71 4.24 1.1q1.155.315 2.31.66 1.08.315 2.16.66a127 127 0 0 1 6.4 2.19c1.01.37 2.01.76 3.01 1.16.67.26 1.33.53 2 .81.78.32 1.56.66 2.33.99.69.31 1.39.62 2.08.94a115 115 0 0 1 4.34 2.09 125 125 0 0 1 6.38 3.43c.68.38 1.35.78 2.02 1.17 1.41.85 2.81 1.71 4.2 2.61.88.57 1.75 1.15 2.62 1.74s1.73 1.18 2.58 1.79h.01c.86.61 1.71 1.23 2.55 1.87.69.51 1.38 1.04 2.06 1.57.07.05.15.11.22.17.26.2.52.4.77.61.65.51 1.3 1.04 1.94 1.57.81.66 1.6 1.33 2.4 2.02.03.03.07.06.11.09.07.06.14.13.22.19a2 2 0 0 0 .22.19Z" style="fill:#fff"/><path d="M1364.9 1372.31c-.03 1.02-.17 2.05-.4 3.05-.14.61-.33 1.2-.55 1.78-.03.1-.07.2-.11.3-.34.85-.77 1.64-1.26 2.38-.17.24-.34.49-.51.72-.24.31-.49.61-.74.9-.26.29-.53.57-.8.84-.83.81-1.74 1.53-2.71 2.15-.08.06-.17.11-.26.15-.76.49-1.56.92-2.36 1.29-.4.17-.8.34-1.2.5-.41.16-.82.3-1.22.42-1.03.32-2.05.55-3.03.69-11.64 1.69-16.82-9.27-25.18-8.95-6.36.24-14.72 7.02-24 34.57-.75 2.2-1.49 4.52-2.24 6.98-2.28.13-4.55.25-6.83.38-.48.02-.95.05-1.43.07-.17 0-.35.02-.52.03-.85.05-1.7.09-2.55.14 0-.24.01-.47.02-.69a.17.17 0 0 1 0-.1c.01-.55.02-1.1.04-1.65.01-.25.02-.5.04-.74v-.15c.01-.2.02-.39.04-.59 0-.13 0-.25.02-.38q.06-1.29.18-2.58c2.09-26 13.91-47.32 32.19-54.81 2.92-1.2 6.19-2.12 9.59-2.73 11.86-2.16 25.39-.64 31.79 5.48.25.25.49.49.71.74.18.2.36.41.53.63a19 19 0 0 1 .56.76q.255.39.48.78c.14.25.27.51.4.78.22.46.41.95.56 1.45.56 1.68.82 3.54.75 5.41" class="cls-5th6"/><path d="M1364.9 1372.31c-.03 1.02-.17 2.05-.4 3.05-.14.61-.33 1.2-.55 1.78l-.12.3c-.35.85-.77 1.64-1.25 2.38-.17.24-.34.49-.51.72-.24.31-.49.61-.74.9-.26.29-.53.57-.8.84a17 17 0 0 1-2.97 2.31c-.76.48-1.56.91-2.36 1.28-.4.17-.8.34-1.2.5-.41.16-.82.3-1.22.42-1.03.32-2.05.55-3.03.69-11.64 1.69-16.82-9.27-25.18-8.95-6.36.24-14.72 7.02-24 34.57-.75 2.2-1.49 4.52-2.24 6.98-2.27.13-4.55.25-6.83.37-.47.03-.94.05-1.42.07-.17.02-.34.03-.52.03-.85.05-1.71.09-2.56.14 0-.23.01-.46.02-.68a.17.17 0 0 1 0-.1c.01-.55.02-1.1.04-1.65.01-.25.02-.5.04-.74v-.15l.03-.59c.01-.13.01-.25.02-.38h.01l4.15-.24c1.04-.06 2.08-.11 3.12-.17.04-.01.08-.01.12-.01l.09-.31c.04-.13.07-.26.12-.39 10.09-34.88 19.21-43.13 26.03-43.42h.07c8.33-.27 13.5 11.29 25.11 9.51 5.21-.8 11.63-4.28 14.08-10.67 1.08-2.81 1.33-6 .86-8.93.25.24.49.48.71.73.18.2.36.41.53.63a19 19 0 0 1 .56.76q.255.39.48.78a11.5 11.5 0 0 1 .96 2.23c.56 1.68.82 3.54.75 5.41" class="cls-5th5"/><path d="M1445.51 1654.46c-2.8 3.09-5.73 6.03-8.77 8.81-1.01.92-2.03 1.82-3.06 2.71-.5.43-1.01.86-1.52 1.28-.56.48-1.13.94-1.7 1.4-.5.41-1.01.81-1.52 1.21-.6.47-1.2.93-1.81 1.39-1.01.77-2.04 1.52-3.07 2.25-.37.26-.73.52-1.1.78l-1.32.9c-.31.21-.61.42-.92.62h-.01c-1.41.94-2.83 1.85-4.26 2.72-.66.4-1.32.8-1.98 1.18-.55.33-1.1.65-1.66.96-.35.2-.7.4-1.05.59-.52.29-1.04.57-1.56.85-.65.35-1.3.7-1.95 1.03a98 98 0 0 1-3.4 1.69c-.83.4-1.66.79-2.49 1.16-.63.3-1.26.58-1.89.85-.53.23-1.05.46-1.58.68-.74.31-1.47.61-2.21.91-.52.21-1.05.41-1.57.61-.91.35-1.83.69-2.74 1.02-.68.25-1.36.49-2.05.72-.85.29-1.71.58-2.57.85-1.51.48-3.02.94-4.54 1.36-1.03.29-2.06.57-3.09.83-.55.14-1.09.27-1.64.4q-1.275.315-2.55.6l-2.28.48c-.07.01-.14.03-.22.04-.76.15-1.52.3-2.28.44-.67.12-1.33.24-2 .35-.2.03-.39.07-.59.1a133 133 0 0 1-7.54 1.01c-.68.07-1.36.14-2.05.2-.82.08-1.64.14-2.46.2-1.64.12-3.28.21-4.94.27-.75.03-1.51.05-2.27.06-10.02.2-20.18-.7-30.29-2.74-1.63-.33-3.26-.68-4.88-1.08-.4-.09-.8-.18-1.2-.29-2.57-.63-5.14-1.34-7.7-2.13-.91-.28-1.83-.57-2.74-.87-.24.08-.8.26-1.64.52-5.53 1.67-23.44 6.49-46.55 6.78-18.56.24-40.48-2.43-62.02-12-.03-.01-.06-.03-.09-.04a127 127 0 0 1-28.62-17.56l-.52-.43c-.1-.08-.19-.16-.29-.24-2.19-1.81-4.36-3.72-6.5-5.75-.5-.46-.99-.93-1.48-1.41-1.6-1.56-3.17-3.16-4.69-4.8-2.97-3.18-5.79-6.51-8.48-9.98-.18-.23-.35-.46-.54-.7-.08-.12-.18-.24-.26-.36-17.58-23.14-28.86-52.08-32.53-81.85-.29-2.26-.52-4.52-.71-6.79-.05-.57-.1-1.14-.14-1.71l-.06-.78c-.46-6.53-.55-13.07-.24-19.58.65-14.5 3.21-28.81 7.82-42.36.06-.2.13-.39.2-.58 5.34-15.52 13.4-30.03 24.39-42.66 8.56-9.84 18.49-18.08 29.41-24.62 22.52-13.52 49.24-19.87 76.75-18.4.28.02.57.03.85.05 13.55.81 27.29 3.52 40.79 8.21 1.93.66 3.85 1.37 5.77 2.12q.825-.345 1.65-.66c.06-.04.13-.07.19-.08 1.14-.47 2.29-.9 3.44-1.32.73-.27 1.45-.53 2.18-.77 14.27-4.98 28.89-7.45 43.35-7.55.34-.01.68-.01 1.02-.01.79 0 1.58.01 2.37.02.83.02 1.66.04 2.49.07.76.03 1.52.06 2.28.1q1.395.075 2.79.18c1.32.1 2.64.22 3.95.35.32.04.63.07.95.11q1.005.105 2.01.24c.8.1 1.59.21 2.38.32.79.12 1.59.24 2.38.37a131 131 0 0 1 4.65.85c.06 0 .11.02.17.03l1.74.36 1.33.3q.96.21 1.92.45c1.42.34 2.83.71 4.24 1.1q1.155.315 2.31.66 1.08.315 2.16.66a127 127 0 0 1 6.4 2.19c1.01.37 2.01.76 3.01 1.16.67.26 1.33.53 2 .81.78.32 1.56.66 2.33.99.69.31 1.39.62 2.08.94a115 115 0 0 1 4.34 2.09 125 125 0 0 1 6.38 3.43c.68.38 1.35.78 2.02 1.17 1.41.85 2.81 1.71 4.2 2.61.88.57 1.75 1.15 2.62 1.74s1.73 1.18 2.58 1.79h.01c.86.61 1.71 1.23 2.55 1.87.69.51 1.38 1.04 2.06 1.57.07.05.15.11.22.17.26.2.52.4.77.61.65.51 1.3 1.04 1.94 1.57.81.66 1.6 1.33 2.4 2.02.03.03.07.06.11.09.07.06.14.13.22.19a2 2 0 0 0 .22.19c.1.09.2.18.3.28.1.08.2.18.31.27.43.36.85.74 1.27 1.13.42.38.84.76 1.25 1.15.37.33.73.67 1.1 1.03l.08.08h.01c.74.71 1.48 1.42 2.21 2.15.59.58 1.18 1.18 1.75 1.78.35.34.68.69 1.01 1.04.04.04.07.08.11.12.54.57 1.08 1.14 1.61 1.73.73.79 1.46 1.6 2.17 2.42.72.81 1.42 1.64 2.12 2.48s1.39 1.68 2.07 2.54c.21.26.41.52.62.78.13.16.26.33.39.5.13.18.27.35.4.53.17.21.34.43.5.65.04.05.08.09.11.14.67.88 1.32 1.76 1.97 2.66 4.12 5.71 7.79 11.68 11.01 17.85 29.17 55.99 21.05 128.47-20.38 174.22Z" class="cls-5th3"/><path d="M1445.51 1654.46c-2.8 3.09-5.73 6.03-8.77 8.81-1.01.92-2.03 1.82-3.06 2.71-.5.43-1.01.86-1.52 1.28-.56.48-1.13.94-1.7 1.4-.5.41-1.01.81-1.52 1.21-.6.47-1.2.93-1.81 1.39-1.01.77-2.04 1.52-3.07 2.25-.37.26-.73.52-1.1.78l-1.32.9c-.31.21-.61.42-.92.62h-.01c-1.41.94-2.83 1.85-4.26 2.72-.66.4-1.32.8-1.98 1.18-.55.33-1.1.65-1.66.96-.35.2-.7.4-1.05.59-.52.29-1.04.57-1.56.85-.65.35-1.3.7-1.95 1.03a98 98 0 0 1-3.4 1.69c-.83.4-1.66.79-2.49 1.16-.63.3-1.26.58-1.89.85-.53.23-1.05.46-1.58.68-.74.31-1.47.61-2.21.91-.52.21-1.05.41-1.57.61-.91.35-1.83.69-2.74 1.02-.68.25-1.36.49-2.05.72-.85.29-1.71.58-2.57.85-1.51.48-3.02.94-4.54 1.36-1.03.29-2.06.57-3.09.83-.55.14-1.09.27-1.64.4q-1.275.315-2.55.6l-2.28.48c-.07.01-.14.03-.22.04-.76.15-1.52.3-2.28.44-.67.12-1.33.24-2 .35-.2.03-.39.07-.59.1a133 133 0 0 1-7.54 1.01c-.68.07-1.36.14-2.05.2-.82.08-1.64.14-2.46.2-1.64.12-3.28.21-4.94.27-.75.03-1.51.05-2.27.06-10.02.2-20.18-.7-30.29-2.74-1.63-.33-3.26-.68-4.88-1.08-.4-.09-.8-.18-1.2-.29-2.57-.63-5.14-1.34-7.7-2.13-.91-.28-1.83-.57-2.74-.87-.24.08-.8.26-1.64.52-5.53 1.67-23.44 6.49-46.55 6.78-8.58-4.43-48.4-25.85-69.85-67.9-1.23-2.39-2.39-4.82-3.48-7.34v-.02c-.3-.69-.6-1.39-.87-2.09-.1-.21-.19-.42-.26-.63v-.03c-2.58-6.32-4.71-13.03-6.27-20.18-1.92-8.81-2.75-17.21-2.85-25.06-.01-.7-.01-1.39-.01-2.07 0-.29 0-.57.01-.85 0-.84.02-1.65.04-2.46.21-6.79.92-13.14 1.89-18.96 0-.04 0-.07.02-.11v-.02c1.62-9.7 3.94-17.96 5.76-24.43 1.95-6.92 5.61-19.96 12.77-34.77 1.62-3.36 3.43-6.82 5.43-10.31q.03-.075.09-.15c10.24-17.78 25.67-36.57 49.05-49.66 7.38-4.14 14.61-7.17 21.34-9.41 7.44-2.48 14.27-3.98 20.02-4.93h.01c1.46-.24 2.86-.44 4.17-.62.62-.08 1.22-.15 1.8-.22q.825-.345 1.65-.66c.06-.04.13-.07.19-.08 1.14-.47 2.29-.9 3.44-1.32.73-.27 1.45-.53 2.18-.77 14.27-4.98 28.89-7.45 43.35-7.55.34-.01.68-.01 1.02-.01.79 0 1.58.01 2.37.02.83.02 1.66.04 2.49.07.76.03 1.52.06 2.28.1q1.395.075 2.79.18c1.32.1 2.64.22 3.95.35.32.04.63.07.95.11q1.005.105 2.01.24c.8.1 1.59.21 2.38.32.79.12 1.59.24 2.38.37a131 131 0 0 1 4.65.85c.06 0 .11.02.17.03l1.74.36 1.33.3q.96.21 1.92.45c1.42.34 2.83.71 4.24 1.1q1.155.315 2.31.66 1.08.315 2.16.66a127 127 0 0 1 6.4 2.19c1.01.37 2.01.76 3.01 1.16.67.26 1.33.53 2 .81.78.32 1.56.66 2.33.99.69.31 1.39.62 2.08.94a115 115 0 0 1 4.34 2.09 125 125 0 0 1 6.38 3.43c.68.38 1.35.78 2.02 1.17 1.41.85 2.81 1.71 4.2 2.61.88.57 1.75 1.15 2.62 1.74s1.73 1.18 2.58 1.79h.01c.86.61 1.71 1.23 2.55 1.87.69.51 1.38 1.04 2.06 1.57.07.05.15.11.22.17.26.2.52.4.77.61.65.51 1.3 1.04 1.94 1.57.81.66 1.6 1.33 2.4 2.02.03.03.07.06.11.09.07.06.14.13.22.19a2 2 0 0 0 .22.19c.1.09.2.18.3.28.1.08.2.18.31.27.43.36.85.74 1.27 1.13.42.38.84.76 1.25 1.15.37.33.73.67 1.1 1.03l.08.08h.01c.74.71 1.48 1.42 2.21 2.15.59.58 1.18 1.18 1.75 1.78.35.34.68.69 1.01 1.04.04.04.07.08.11.12.54.57 1.08 1.14 1.61 1.73.73.79 1.46 1.6 2.17 2.42.72.81 1.42 1.64 2.12 2.48s1.39 1.68 2.07 2.54c.21.26.41.52.62.78.13.16.26.33.39.5.13.18.27.35.4.53.17.21.34.43.5.65.04.05.08.09.11.14.67.88 1.32 1.76 1.97 2.66 4.12 5.71 7.79 11.68 11.01 17.85 29.17 55.99 21.05 128.47-20.38 174.22Z" class="cls-5th8"/><path d="M1445.51 1654.46c-2.8 3.09-5.73 6.03-8.77 8.81-1.01.92-2.03 1.82-3.06 2.71-.5.43-1.01.86-1.52 1.28-.56.48-1.13.94-1.7 1.4-.5.41-1.01.81-1.52 1.21-.6.47-1.2.93-1.81 1.39-1.01.77-2.04 1.52-3.07 2.25-.37.26-.73.52-1.1.78l-1.32.9c-.31.21-.61.42-.92.62h-.01c-1.41.94-2.83 1.85-4.26 2.72-.66.4-1.32.8-1.98 1.18-.55.33-1.1.65-1.66.96-.35.2-.7.4-1.05.59-.52.29-1.04.57-1.56.85-.65.35-1.3.7-1.95 1.03a98 98 0 0 1-3.4 1.69c-.83.4-1.66.79-2.49 1.16-.63.3-1.26.58-1.89.85-.53.23-1.05.46-1.58.68-.74.31-1.47.61-2.21.91-.52.21-1.05.41-1.57.61-.91.35-1.83.69-2.74 1.02-.68.25-1.36.49-2.05.72-.85.29-1.71.58-2.57.85-1.51.48-3.02.94-4.54 1.36-1.03.29-2.06.57-3.09.83-.55.14-1.09.27-1.64.4q-1.275.315-2.55.6l-2.28.48c-.07.01-.14.03-.22.04-.76.15-1.52.3-2.28.44-.67.12-1.33.24-2 .35-.2.03-.39.07-.59.1a133 133 0 0 1-7.54 1.01c-.68.07-1.36.14-2.05.2-.82.08-1.64.14-2.46.2-1.64.12-3.28.21-4.94.27-.75.03-1.51.05-2.27.06a139 139 0 0 1-35.17-3.82c-.4-.09-.8-.18-1.2-.29-2.57-.63-5.14-1.34-7.7-2.13-.91-.28-1.83-.57-2.74-.87-.24.08-.8.26-1.64.52-10.3-7.1-19.8-15.08-28.34-23.82-26.44-27.03-43.78-61.26-47.8-98.95-.59-5.55-.89-11.16-.89-16.84 0-.56 0-1.13.01-1.69v-.29c.09-7.52.71-14.92 1.84-22.19.66-4.31 1.5-8.57 2.51-12.77 0-.05.01-.09.03-.13 1.54-6.41 3.47-12.69 5.77-18.82.58-1.56 1.19-3.1 1.83-4.64 1.77-4.34 3.74-8.6 5.89-12.77.05-.09.1-.19.15-.28 9.24-17.91 21.77-34.21 36.89-48.29 3.47-3.23 7.07-6.35 10.81-9.34 0-.01.01-.01.01-.01.47-.38.95-.76 1.43-1.13l.12-.09c.76-.61 1.53-1.2 2.31-1.79.5-.38.97-.75 1.48-1.12h.02c1.14-.85 2.3-1.7 3.47-2.53.73-.27 1.45-.53 2.18-.77 14.27-4.98 28.89-7.45 43.35-7.55.34-.01.68-.01 1.02-.01.79 0 1.58.01 2.37.02.83.02 1.66.04 2.49.07.76.03 1.52.06 2.28.1q1.395.075 2.79.18c1.32.1 2.64.22 3.95.35.32.04.63.07.95.11q1.005.105 2.01.24c.8.1 1.59.21 2.38.32.79.12 1.59.24 2.38.37a131 131 0 0 1 4.65.85c.06 0 .11.02.17.03l1.74.36 1.33.3q.96.21 1.92.45c1.42.34 2.83.71 4.24 1.1q1.155.315 2.31.66 1.08.315 2.16.66a127 127 0 0 1 6.4 2.19c1.01.37 2.01.76 3.01 1.16.67.26 1.33.53 2 .81.78.32 1.56.66 2.33.99.69.31 1.39.62 2.08.94a115 115 0 0 1 4.34 2.09 125 125 0 0 1 6.38 3.43c.68.38 1.35.78 2.02 1.17 1.41.85 2.81 1.71 4.2 2.61.88.57 1.75 1.15 2.62 1.74s1.73 1.18 2.58 1.79h.01c.86.61 1.71 1.23 2.55 1.87.69.51 1.38 1.04 2.06 1.57.07.05.15.11.22.17.26.2.52.4.77.61.65.51 1.3 1.04 1.94 1.57.81.66 1.6 1.33 2.4 2.02.03.03.07.06.11.09.07.06.14.13.22.19.07.07.14.13.21.2.11.09.21.18.31.27.1.08.2.18.31.27.43.36.85.74 1.27 1.13.42.38.84.76 1.25 1.15.37.34.73.68 1.1 1.03l.08.08h.01c.74.71 1.48 1.42 2.21 2.15.59.58 1.18 1.18 1.75 1.78.35.34.68.69 1.01 1.04.04.04.07.08.11.12.54.57 1.08 1.14 1.61 1.73.73.79 1.46 1.6 2.17 2.42.72.81 1.42 1.64 2.12 2.48s1.39 1.68 2.07 2.54c.21.26.41.52.62.78.13.17.25.34.38.51.14.17.28.34.41.52.17.21.34.43.5.65.04.05.08.09.11.14.67.88 1.32 1.76 1.97 2.66 4.12 5.71 7.79 11.68 11.01 17.85 29.17 55.99 21.05 128.47-20.38 174.22" class="cls-5th2"/><path d="M1445.51 1654.46c-2.8 3.09-5.73 6.03-8.77 8.81-1.01.92-2.03 1.82-3.06 2.71-.5.43-1.01.86-1.52 1.28-.56.48-1.13.94-1.7 1.4-.5.41-1.01.81-1.52 1.21-.6.47-1.2.93-1.81 1.39-1.01.77-2.04 1.52-3.07 2.25-.37.26-.73.52-1.1.78l-1.32.9c-.31.21-.61.42-.92.62h-.01c-14.07-1.44-27.39-5.72-39.49-12.32-2.68-1.45-5.29-3.02-7.84-4.71-32.93-21.66-55.06-61.23-55.36-106.53 0 0-.01 0 0-.02-.01-.31-.01-.63-.01-.94 0-21.76 5.04-42.23 13.9-60.05 4.36-8.79 9.65-16.93 15.74-24.28 1.46-1.78 2.98-3.5 4.53-5.18.47-.5.93-.99 1.41-1.48 9.71-10.12 21.06-18.37 33.55-24.2q.765-.375 1.56-.72c9.17-4.11 18.94-6.94 29.12-8.27.88.57 1.75 1.15 2.62 1.74s1.73 1.18 2.58 1.79h.01c.86.61 1.71 1.23 2.55 1.87.69.51 1.38 1.04 2.06 1.57.07.05.15.11.22.17.26.2.52.4.77.61.65.51 1.3 1.04 1.94 1.57.81.66 1.6 1.33 2.4 2.02.03.03.07.06.11.09.07.06.14.13.22.19.07.07.14.13.21.2.11.09.21.18.31.27.1.08.2.18.31.27.43.36.85.74 1.27 1.13.42.38.84.76 1.25 1.15.37.34.73.68 1.1 1.03l.08.08h.01c.74.71 1.48 1.42 2.21 2.15.59.58 1.18 1.18 1.75 1.78.35.34.68.69 1.01 1.04.04.04.07.08.11.12.54.57 1.08 1.14 1.61 1.73.73.79 1.46 1.6 2.17 2.42.72.81 1.42 1.64 2.12 2.48s1.39 1.68 2.07 2.54c.21.26.41.52.62.78.13.17.25.34.38.51.14.17.28.34.41.52.17.21.34.43.5.65.04.05.08.09.11.14.67.88 1.32 1.76 1.97 2.66 4.12 5.71 7.79 11.68 11.01 17.85 29.17 55.99 21.05 128.47-20.38 174.22Z" class="cls-5th8"/><path d="M1271.04 1514.14c-9.59 88.85 52.27 155.73 46.6 159.31-5.28 3.33-68.27-48.51-70.53-122.79-2.09-68.78 48.97-121.96 52.26-120.27 2.49 1.28-22.93 33.69-28.34 83.75Z" class="cls-5th3"/><path d="M1184.44 1630.26c-38.1-82.59 11.57-201 106.37-213.28l4.27-.59c-10.22 8.2-19.8 17.25-28.13 27.37-25.68 31.42-42.64 71.61-41.24 112.62.95 29.31 11 57.8 26.09 82.78 6.09 10.02 12.96 19.6 20.71 28.41-7.96-8.64-15.03-18.09-21.28-28.06-23.12-36.53-33.68-80.08-23.58-122.66 9.47-38.71 31.69-74.33 62.54-99.6l.94 2.16c-93.75 12.11-142.52 128.71-106.69 210.86Zm225.76 41.3c26.67-36.03 40.56-82.07 35.22-126.8-5.28-45.41-29.18-85.59-64.7-114.03-9.98-8.09-20.74-15.28-32.23-21.11 102.33 48.27 132.35 173.22 61.71 261.95Z" class="cls-5th6"/><path d="M1355.89 1635.2c27.55-54.38 27.29-118.86-2.95-172.09a201.8 201.8 0 0 0-36.56-47.2c7.62 6.53 14.57 13.81 20.99 21.53 46.75 56.11 54.48 134.03 18.53 197.76Zm-163.62 50.96c-49.43-20.98-80.66-72.48-86.23-124.75-5.97-54.84 17.65-106.05 62.9-137.45-15.66 11.99-29.43 26.45-39.82 43.21-45.99 72.87-15.03 182.11 63.14 219Z" class="cls-5th6"/><path d="M1218.15 1689.82c-2.32 2.5-62.33-27.03-81.23-86.9-17.96-56.88 10.18-112.64 13.22-112.09 2.78.51-16.86 47.87-.32 103.33 18.61 62.39 70.55 93.25 68.32 95.65Z" class="cls-5th8"/><path d="M1348.55 1689.82c1.82 2.5 48.98-27.03 63.84-86.9 14.11-56.88-8-112.64-10.39-112.09-2.19.51 13.25 47.87.25 103.33-14.62 62.39-55.44 93.25-53.69 95.65Z" class="cls-5th2"/><path d="M1075.7 1542.9c-.24-16.64-7.37-30.65-18.93-35.31-8.47-3.41-21.93-2.86-25.41 3.24-1.15 2.02-1.36 4.93-.38 7.3 1.43 3.44 5.17 5.32 8.2 5.75 6.77.97 9.79-5.31 14.65-5.12 4 .15 9.35 4.66 15.27 23.79 2.2.12 4.4.23 6.6.35" class="cls-5th6"/><path d="M1030.98 1518.14c1.43 3.44 5.17 5.32 8.2 5.75 6.77.97 9.79-5.31 14.65-5.12 4 .15 9.35 4.66 15.27 23.78 2.2.12 4.4.23 6.6.35-.01-.83-.04-1.64-.09-2.46l-4.31-.24c-5.92-20.3-11.27-25.09-15.27-25.25-4.87-.19-7.88 6.46-14.66 5.44-3.03-.46-6.77-2.45-8.2-6.11-.63-1.61-.77-3.44-.5-5.12-.53.5-.98 1.06-1.33 1.67-1.16 2.03-1.36 4.93-.38 7.3Z" class="cls-5th5"/><path d="M983.45 1676.69c20.77 22.54 53.03 30.61 83.24 20.83.14.05.46.15.95.3 3.22.96 13.64 3.72 27.09 3.89 17.27.22 39.53-3.83 57.92-21.42 31.34-29.98 38.85-87.53 8.87-121.42-15.26-17.25-38.02-25.87-61.79-24.62-9.17.48-18.5 2.44-27.59 5.94-1.02-.42-2.05-.81-3.08-1.18-33.27-12.02-70.12-.76-91.08 27.77-24.19 32.93-21.32 80.86 5.46 109.92Z" class="cls-5th3"/><path d="M983.45 1676.69c20.77 22.54 53.03 30.61 83.24 20.83.14.05.46.15.95.3 3.22.96 13.64 3.72 27.09 3.89 6.07-3.09 39.07-20.57 46.98-56.2 4.05-18.26-.25-33.31-2.83-42.33-2.71-9.46-11.11-38.85-39.2-54.31-10.82-5.96-21.08-7.93-27.55-8.69-1.02-.42-2.05-.81-3.08-1.18-33.27-12.02-70.12-.76-91.08 27.77-24.19 32.93-21.32 80.86 5.46 109.92Z" class="cls-5th8"/><path d="M983.45 1676.69c4.35 4.72 9.2 8.8 14.43 12.22 19.75 12.92 44.93 16.34 68.81 8.61.14.05.46.15.95.3 27.28-18.49 44.83-47.41 44.83-79.9s-16.94-60.4-43.4-78.92c-23.7-8.56-49.22-5.31-69.51 7.58a79.9 79.9 0 0 0-21.57 20.19c-24.19 32.93-21.32 80.86 5.46 109.92" class="cls-5th2"/><path d="M983.45 1676.69c4.35 4.72 9.2 8.8 14.43 12.22 33.53-3.37 59.78-33.99 59.78-71.27s-25.37-66.86-58.09-71.07a79.9 79.9 0 0 0-21.57 20.19c-24.19 32.93-21.32 80.86 5.46 109.92Z" class="cls-5th8"/><path d="M1084.98 1596.38c5.58 50.85-30.42 89.13-27.12 91.18 3.07 1.91 39.74-27.76 41.05-70.28 1.21-39.37-28.5-69.8-30.42-68.84-1.45.73 13.35 19.28 16.49 47.93Z" class="cls-5th3"/><path d="M1135.39 1662.84c10.42-24.06 8.6-52.27-2.92-75.58-6.34-13.07-15.81-24.84-27.79-33.1-9.31-6.41-20.17-10.59-31.39-12l.54-1.25c20.97 17.04 35.85 42.39 38.38 69.47 1.69 20.4-4.76 40.75-15.74 57.78-3.64 5.69-7.74 11.08-12.34 16.02 8.96-10.05 16.15-21.71 21.01-34.26 7.52-18.76 8.38-39.94 1.78-59.06-6.65-19.88-19.35-37.64-35.95-50.44 10.67 1.15 21.08 4.46 30.3 9.97 19.78 11.93 33.33 32.65 38.79 54.87 4.95 18.99 3.38 39.68-4.68 57.57Zm-131.4 23.64c-29.39-35.77-30.43-88.14.56-123.29 9.81-11.2 21.86-20.46 35.35-26.64-13.19 6.67-24.97 16.1-34.52 27.35-30.28 35.51-29.18 85.95-1.4 122.58Z" class="cls-5th6"/><path d="M1035.6 1665.66c-20.98-36.48-16.26-81.29 10.86-113.25 3.73-4.39 7.73-8.56 12.14-12.26-16.56 15.69-28.92 36.33-33.03 58.88-4.48 22.5-.36 46.28 10.03 66.62Zm95.23 29.17c41.55-19.22 60.81-74.09 42.05-115.5-6.21-13.79-16.4-25.52-28.47-34.57 12.49 8.61 22.98 20.31 29.46 34.11 19.54 41.59-.18 97.95-43.04 115.96" class="cls-5th6"/><path d="M1115.77 1696.93c1.35 1.43 36.27-15.47 47.28-49.73 10.45-32.55-5.93-64.47-7.7-64.15-1.62.29 9.81 27.4.19 59.14-10.83 35.71-41.06 53.37-39.77 54.74" class="cls-5th8"/><path d="M1039.87 1696.93c-1.06 1.43-28.51-15.47-37.15-49.73-8.21-32.55 4.66-64.47 6.05-64.15 1.27.29-7.71 27.4-.15 59.14 8.51 35.71 32.27 53.37 31.25 54.74" class="cls-5th2"/><circle cx="459.04" cy="632.75" r="21.41" class="cls-5th9"/><circle cx="501.78" cy="471.48" r="21.41" class="cls-5th9"/><circle cx="395.28" cy="319.7" r="21.41" class="cls-5th9"/><circle cx="212.91" cy="341.11" r="21.41" class="cls-5th9"/><circle cx="87.77" cy="476.13" r="21.41" class="cls-5th9"/><circle cx="1540.96" cy="632.75" r="21.41" class="cls-5th9"/><circle cx="1498.22" cy="471.48" r="21.41" class="cls-5th9"/><circle cx="1604.72" cy="319.7" r="21.41" class="cls-5th9"/><circle cx="1787.09" cy="341.11" r="21.41" class="cls-5th9"/><circle cx="1912.23" cy="476.13" r="21.41" class="cls-5th9"/></svg>