<svg xmlns="http://www.w3.org/2000/svg" viewBox="0 0 2000 2000" width="300" height="300" fill="none"><defs><style>.cls-6har1{fill:#50c987}.cls-6har2{fill:#e0dc48}</style></defs><path d="M1543.66 1676.47H456.34c-73.23 0-132.8-59.58-132.8-132.81V456.34c0-73.23 59.58-132.8 132.8-132.8h1087.33c73.23 0 132.81 59.58 132.81 132.8v1087.33c0 73.23-59.58 132.81-132.81 132.81ZM456.34 342.53c-62.75 0-113.8 51.05-113.8 113.8v1087.33c0 62.75 51.05 113.81 113.8 113.81h1087.33c62.75 0 113.81-51.05 113.81-113.81V456.34c0-62.75-51.05-113.8-113.81-113.8H456.34Z" style="fill:#3aa06a"/><path d="M1592.35 1215.86c-14.62 66.85-7.83 124.33 18.41 143.36 3.69 2.67 21.47 14.53 39.43 5.04 16.07-8.49 24.61-30.01 26.57-43.32 5.35-36.34-28.35-79.48-84.41-105.08" class="cls-6har2"/><path d="M1656.25 1163.75c-9.14 51.49-2.75 96.54 17.03 112.42 2.78 2.23 16.16 12.19 29.15 5.52 11.62-5.97 17.39-22.39 18.51-32.67 3.06-28.09-22.8-63.06-64.68-85.26Zm51.27-39.54c-7.26 40.91-2.18 76.71 13.53 89.33 2.21 1.77 12.84 9.68 23.16 4.38 9.23-4.74 13.81-17.79 14.7-25.96 2.43-22.32-18.11-50.1-51.39-67.75m133.38 194.65c-54.7 41.13-109.78 58.88-138.01 42.94-3.96-2.24-22.15-13.47-21-33.75 1.03-18.14 17.04-34.87 28.33-42.19 30.81-19.99 84.07-7.31 130.68 33" class="cls-6har2"/><path d="M1862.97 1239.9c-43.01 29.75-86.63 42.69-109.31 31.32-3.18-1.6-17.8-9.62-17.15-24.2.59-13.05 13.12-25.13 22-30.43 24.27-14.47 66.82-5.52 104.45 23.31Zm14.61-63.08c-34.17 23.64-68.83 33.92-86.85 24.88-2.53-1.27-14.15-7.64-13.63-19.23.47-10.37 10.42-19.97 17.48-24.18 19.28-11.5 53.1-4.39 82.99 18.52Zm-40.7-126.46c-39.24 17.35-68.25 45.13-72 70.26-.53 3.53-2.52 20.14 6.93 28.23 8.45 7.24 22.01 4.2 29.59.11 20.69-11.15 35.49-51.01 35.48-98.61Z" class="cls-6har2"/><path d="M1670.65 1533.49a6.53 6.53 0 0 1-6.11-4.24c-7.24-19.37-11.68-39.56-13.21-60.01-2.31-30.9 1.96-61.58 12.68-91.18a6.523 6.523 0 0 1 8.36-3.91 6.523 6.523 0 0 1 3.91 8.36c-10.09 27.86-14.11 56.72-11.94 85.77 1.44 19.22 5.62 38.2 12.42 56.41a6.526 6.526 0 0 1-6.11 8.81Zm11.01-78.84c27.12-13.93 45.11-29.2 56.6-40.71 12.53-12.55 17.97-21.25 31.62-29.83 18.59-11.68 38.13-14.17 51.75-14.45a532 532 0 0 0-32.39 33.07c-30.84 34.36-37.69 50.98-57.49 57.67-10.13 3.42-26.18 5.1-50.09-5.75" class="cls-6har1"/><path d="M1702.86 916.26c9.08 41.5 4.86 77.18-11.43 88.99-2.29 1.66-13.33 9.02-24.48 3.13-9.97-5.27-15.28-18.63-16.49-26.89-3.32-22.56 17.6-49.34 52.4-65.23" class="cls-6har2"/><path d="M1663.2 883.91c5.68 31.96 1.71 59.93-10.57 69.79-1.72 1.38-10.03 7.56-18.09 3.43-7.21-3.7-10.79-13.9-11.49-20.28-1.9-17.44 14.15-39.15 40.15-52.93Zm-31.83-24.55c4.51 25.4 1.36 47.62-8.4 55.45-1.37 1.1-7.97 6.01-14.38 2.72-5.73-2.94-8.58-11.04-9.13-16.12-1.51-13.85 11.24-31.1 31.9-42.06Zm-82.8 120.84c33.96 25.53 68.15 36.55 85.67 26.66 2.46-1.39 13.75-8.36 13.03-20.95-.64-11.26-10.58-21.65-17.58-26.19-19.13-12.41-52.19-4.54-81.12 20.49Z" class="cls-6har2"/><path d="M1534.87 931.19c26.7 18.47 53.78 26.5 67.85 19.44 1.98-.99 11.05-5.97 10.65-15.02-.36-8.1-8.14-15.6-13.66-18.89-15.06-8.98-41.48-3.43-64.84 14.47m-9.07-39.16c21.21 14.67 42.73 21.06 53.91 15.45 1.57-.79 8.78-4.74 8.46-11.94-.29-6.44-6.47-12.39-10.85-15.01-11.97-7.14-32.96-2.72-51.52 11.5m25.26-78.51c24.36 10.77 42.37 28.01 44.7 43.62.33 2.19 1.56 12.51-4.3 17.53-5.24 4.49-13.67 2.61-18.37.07-12.85-6.92-22.03-31.66-22.03-61.22" class="cls-6har2"/><path d="M1654.26 1113.44c-.47 0-.95-.08-1.42-.26a4.05 4.05 0 0 1-2.38-5.21c4.23-11.31 6.82-23.09 7.71-35.02 1.35-18.03-1.15-35.95-7.41-53.24-.76-2.1.33-4.43 2.43-5.19s4.43.33 5.19 2.43c6.66 18.38 9.31 37.42 7.87 56.6-.95 12.7-3.71 25.23-8.2 37.25a4.05 4.05 0 0 1-3.8 2.63Zm-6.84-48.94c-16.84-8.65-28-18.13-35.14-25.27-7.78-7.79-11.15-13.19-19.63-18.52-11.54-7.25-23.67-8.8-32.13-8.97 4.84 4.52 11.99 11.49 20.11 20.53 19.15 21.33 23.4 31.65 35.69 35.8 6.29 2.12 16.25 3.16 31.1-3.57" class="cls-6har1"/><path d="M889.67 1733.3c-48.44 10.6-90.09 5.68-103.87-13.34-1.94-2.67-10.53-15.56-3.65-28.57 6.15-11.64 21.75-17.83 31.39-19.25 26.33-3.88 57.59 20.54 76.14 61.16Z" class="cls-6har2"/><path d="M927.42 1687.01c-37.31 6.62-69.95 1.99-81.46-12.34-1.62-2.01-8.83-11.71-4-21.12 4.32-8.42 16.22-12.6 23.67-13.41 20.35-2.22 45.69 16.52 61.78 46.87Zm28.66-37.15c-29.64 5.26-55.58 1.58-64.72-9.8-1.28-1.6-7.02-9.3-3.18-16.78 3.43-6.69 12.89-10.01 18.81-10.65 16.17-1.76 36.3 13.12 49.09 37.24Zm-141.04-96.64c-29.8 39.63-42.66 79.55-31.11 100 1.62 2.87 9.76 16.05 24.46 15.21 13.15-.75 25.27-12.35 30.57-20.53 14.49-22.32 5.3-60.91-23.91-94.69Z" class="cls-6har2"/><path d="M872.25 1537.22c-21.55 31.16-30.93 62.77-22.69 79.2 1.16 2.31 6.97 12.9 17.54 12.43 9.45-.42 18.21-9.5 22.05-15.94 10.49-17.58 4-48.42-16.89-75.68Zm45.7-10.58c-17.13 24.76-24.58 49.88-18.03 62.93.92 1.83 5.54 10.25 13.93 9.87 7.51-.34 14.47-7.55 17.52-12.67 8.33-13.97 3.18-38.47-13.42-60.13m91.64 29.49c-12.57 28.43-32.7 49.45-50.91 52.17-2.56.38-14.6 1.82-20.46-5.02-5.24-6.12-3.04-15.95-.08-21.44 8.08-14.99 36.96-25.72 71.45-25.71" class="cls-6har2"/><path d="M717.87 1691.02c-3.92 0-7.85-.15-11.79-.44a158 158 0 0 1-43.48-9.57 4.714 4.714 0 0 1-2.77-6.08 4.714 4.714 0 0 1 6.08-2.77c13.2 4.93 26.95 7.96 40.88 9 21.05 1.57 41.96-1.34 62.14-8.65a4.73 4.73 0 0 1 6.06 2.84 4.73 4.73 0 0 1-2.84 6.06c-17.68 6.4-35.89 9.63-54.28 9.63Zm-1.22-22.42c10.09-19.65 21.16-32.68 29.5-41.01 9.09-9.08 15.4-13.02 21.61-22.91 8.47-13.47 10.27-27.63 10.47-37.5-5.28 5.65-13.41 14-23.96 23.47-24.89 22.35-36.94 27.31-41.79 41.66-2.48 7.34-3.69 18.97 4.17 36.3Z" class="cls-6har1"/><path d="M1141.5 1719.79c39.62 8.03 73.69 4.3 84.96-10.11 1.58-2.02 8.61-11.79 2.99-21.65-5.03-8.82-17.79-13.51-25.67-14.59-21.53-2.94-47.1 15.56-62.28 46.34Z" class="cls-6har2"/><path d="M1110.62 1684.72c30.52 5.02 57.22 1.51 66.63-9.35 1.32-1.53 7.22-8.87 3.27-16-3.54-6.38-13.27-9.54-19.37-10.16-16.65-1.68-37.37 12.51-50.53 35.51m-23.44-28.15c24.25 3.99 45.46 1.2 52.94-7.43 1.05-1.21 5.74-7.05 2.6-12.71-2.81-5.07-10.54-7.58-15.39-8.07-13.23-1.33-29.69 9.94-40.15 28.21m115.37-73.22c24.37 30.03 34.9 60.27 25.45 75.76-1.33 2.18-7.98 12.16-20 11.53-10.75-.57-20.67-9.36-25.01-15.55-11.85-16.91-4.33-46.15 19.56-71.74" class="cls-6har2"/><path d="M1155.75 1571.24c17.63 23.61 25.3 47.56 18.56 60.01-.95 1.75-5.7 9.77-14.34 9.41-7.73-.32-14.89-7.2-18.03-12.08-8.58-13.32-3.27-36.68 13.82-57.34Zm-37.38-8.03c14.01 18.76 20.1 37.79 14.75 47.68-.75 1.39-4.53 7.77-11.4 7.48-6.14-.26-11.83-5.72-14.33-9.6-6.82-10.58-2.6-29.15 10.98-45.56m-74.95 22.35c10.28 21.54 26.75 37.47 41.64 39.53 2.09.29 11.94 1.38 16.73-3.8 4.29-4.64 2.49-12.09.07-16.25-6.61-11.36-30.23-19.49-58.45-19.48Z" class="cls-6har2"/><path d="M1282.03 1687.89c-15 0-29.84-2.44-44.27-7.28-1.95-.65-3-2.76-2.34-4.71.65-1.95 2.76-3 4.71-2.34 16.56 5.56 33.72 7.77 51 6.57 11.43-.79 22.71-3.09 33.54-6.84 1.94-.67 4.06.36 4.73 2.3s-.36 4.06-2.3 4.73c-11.45 3.96-23.38 6.4-35.46 7.23-3.21.22-6.41.33-9.61.33Zm1-17.12c-8.26-14.89-17.31-24.76-24.13-31.07-7.44-6.88-12.59-9.86-17.68-17.36-6.93-10.21-8.4-20.93-8.56-28.41 4.32 4.28 10.97 10.61 19.6 17.78 20.36 16.93 30.22 20.69 34.18 31.56 2.03 5.56 3.02 14.37-3.41 27.5" class="cls-6har1"/><path d="M1574.71 1727.19c-39.87 6.78-73.62 1.17-84.12-14.85-1.48-2.25-7.98-13.08-1.88-23.42 5.46-9.25 18.4-13.69 26.31-14.48 21.6-2.15 46.13 18.95 59.69 52.75" class="cls-6har2"/><path d="M1607.25 1690.92c-30.65 3.97-57.07-1.06-65.9-13.18-1.24-1.7-6.74-9.88-2.45-17.36 3.84-6.69 13.7-9.64 19.8-10.02 16.67-1.02 36.59 15.21 48.54 40.55Zm24.77-29.17c-24.35 3.15-45.34-.84-52.36-10.47-.99-1.35-5.36-7.85-1.94-13.79 3.05-5.32 10.88-7.66 15.74-7.96 13.24-.81 29.08 12.09 38.57 32.22Zm-111.21-84.15c-25.8 31.15-37.81 63.18-29.18 80.28 1.21 2.4 7.34 13.45 19.34 13.33 10.74-.1 21.06-9.09 25.69-15.55 12.66-17.63 6.65-49.43-15.85-78.06" class="cls-6har2"/><path d="M1568.04 1566.77c-18.76 24.56-27.61 49.96-21.52 63.66.85 1.92 5.18 10.78 13.81 10.8 7.72.02 15.2-7.05 18.57-12.15 9.22-13.92 5.12-39.3-10.86-62.31m37.64-6.88c-14.9 19.52-21.94 39.69-17.1 50.58.68 1.53 4.12 8.56 10.97 8.58 6.13.01 12.08-5.6 14.76-9.65 7.32-11.06 4.07-31.22-8.63-49.51m73.53 27.54c-11.33 22.68-28.54 39.04-43.48 40.56-2.1.21-11.96.93-16.48-4.87-4.04-5.19-1.87-13.11.75-17.47 7.16-11.91 31.1-19.54 59.2-18.21Z" class="cls-6har2"/><path d="M1442.37 1686.29c-5.2 0-10.4-.32-15.61-.95a128.7 128.7 0 0 1-35.06-9.47 3.854 3.854 0 1 1 3.03-7.09c10.56 4.52 21.65 7.52 32.96 8.9 17.09 2.09 34.24.52 50.96-4.67 2.03-.63 4.19.51 4.83 2.54.63 2.03-.51 4.19-2.54 4.83-12.69 3.93-25.61 5.91-38.58 5.91Zm-6.15-18.45c8.98-15.62 18.49-25.82 25.61-32.29 7.76-7.05 13.04-10.02 18.49-17.84 7.41-10.65 9.43-22.12 9.97-30.15-4.52 4.4-11.46 10.89-20.42 18.2-21.14 17.25-31.15 20.83-35.64 32.34-2.3 5.89-3.74 15.31 2.01 29.73Z" class="cls-6har1"/><path d="M1709.99 294.94c15.74 46.08 15.58 87.26-1.43 102.83-2.39 2.19-14 12.01-27.47 6.75-12.04-4.7-19.82-19.23-22.28-28.48-6.72-25.25 13.62-58.48 51.18-81.1" class="cls-6har2"/><path d="M1660.61 263.27c10.62 35.66 9.74 68.03-2.96 80.85-1.78 1.8-10.44 9.92-20.16 6.26-8.7-3.28-14.1-14.42-15.72-21.6-4.43-19.61 11.02-46.42 38.84-65.5Zm-39.44-23.82c8.44 28.34 7.74 54.05-2.35 64.24-1.42 1.43-8.29 7.88-16.02 4.97-6.91-2.6-11.2-11.46-12.49-17.17-3.52-15.58 8.76-36.88 30.86-52.05Zm-78.56 148.39c41.99 24.65 82.37 32.76 101.03 19.21 2.62-1.9 14.57-11.31 12.12-25.56-2.19-12.74-14.87-23.27-23.43-27.54-23.4-11.64-60.02 1.62-89.72 33.89" class="cls-6har2"/><path d="M1520.63 333.8c32.81 17.55 64.69 23.18 79.8 13.31 2.12-1.39 11.81-8.24 10.17-18.5-1.47-9.18-11.3-16.7-18.01-19.73-18.32-8.27-47.69 1.49-71.96 24.92m-15.43-43.41c26.07 13.95 51.4 18.42 63.41 10.57 1.69-1.1 9.38-6.54 8.08-14.7-1.17-7.29-8.98-13.27-14.31-15.68-14.56-6.57-37.89 1.19-57.17 19.8Zm18.56-92.69c29.14 9.09 51.89 26.39 56.58 43.86.66 2.45 3.41 14.04-2.62 20.52-5.39 5.8-15.22 4.75-20.91 2.47-15.53-6.21-29.21-33.19-33.05-66.85" class="cls-6har2"/><path d="M1679.78 525.84c-.37 0-.75-.04-1.12-.14-2.49-.62-4-3.14-3.38-5.63 3.34-13.42 4.76-27.18 4.22-40.88-.81-20.71-5.98-40.79-15.37-59.67a4.634 4.634 0 0 1 2.09-6.22c2.3-1.14 5.08-.21 6.22 2.09 9.97 20.06 15.47 41.41 16.33 63.44.57 14.58-.94 29.22-4.49 43.49a4.65 4.65 0 0 1-4.5 3.52m-13.63-54.87c-20.3-7.66-34.25-17-43.3-24.21-9.87-7.86-14.42-13.57-24.76-18.53-14.09-6.76-28.1-6.94-37.75-6.03 6.1 4.52 15.15 11.53 25.57 20.76 24.58 21.8 30.76 33 45.3 36.13 7.44 1.6 18.92 1.49 34.95-8.12Z" class="cls-6har1"/><path d="M1626.7 634.57c-8.17 37.35-4.38 69.46 10.29 80.09 2.06 1.49 11.99 8.12 22.03 2.82 8.98-4.74 13.75-16.77 14.84-24.2 2.99-20.3-15.84-44.4-47.16-58.71" class="cls-6har2"/><path d="M1662.4 605.46c-5.11 28.77-1.54 53.94 9.51 62.81 1.55 1.25 9.03 6.81 16.28 3.08 6.49-3.33 9.71-12.51 10.34-18.26 1.71-15.69-12.74-35.23-36.14-47.64Zm28.65-22.09c-4.06 22.86-1.22 42.86 7.56 49.91 1.23.99 7.17 5.41 12.94 2.45 5.16-2.65 7.72-9.94 8.22-14.5 1.36-12.47-10.12-27.99-28.71-37.85Zm74.51 108.75c-30.56 22.98-61.34 32.9-77.11 23.99-2.22-1.25-12.37-7.53-11.73-18.86.58-10.14 9.52-19.48 15.83-23.57 17.21-11.17 46.97-4.08 73.01 18.44" class="cls-6har2"/><path d="M1777.9 648c-24.03 16.62-48.4 23.85-61.07 17.5-1.78-.89-9.95-5.37-9.58-13.52.33-7.29 7.33-14.04 12.29-17 13.56-8.09 37.33-3.09 58.36 13.03Zm8.16-35.24c-19.09 13.21-38.46 18.95-48.52 13.9-1.41-.71-7.9-4.27-7.61-10.74.26-5.79 5.82-11.15 9.77-13.51 10.77-6.43 29.66-2.45 46.37 10.35Zm-22.74-70.65c-21.92 9.69-38.13 25.21-40.23 39.26-.29 1.97-1.41 11.25 3.87 15.77 4.72 4.04 12.3 2.35 16.53.06 11.56-6.23 19.83-28.5 19.83-55.1Z" class="cls-6har2"/><path d="M1670.45 812.03c-1.48 0-2.87-.9-3.42-2.37-4.04-10.82-6.53-22.1-7.38-33.53-1.29-17.26 1.09-34.4 7.09-50.94a3.66 3.66 0 0 1 4.67-2.19c1.89.69 2.87 2.78 2.19 4.67-5.64 15.57-7.88 31.69-6.67 47.92.8 10.74 3.14 21.34 6.94 31.52.71 1.89-.25 3.99-2.14 4.69-.42.16-.85.23-1.28.23m6.15-44.05c15.15-7.78 25.2-16.32 31.62-22.75 7-7.01 10.04-11.87 17.67-16.67 10.39-6.53 21.31-7.92 28.91-8.07a298 298 0 0 0-18.1 18.48c-17.23 19.19-21.06 28.48-32.12 32.22-5.66 1.91-14.63 2.85-27.99-3.21Z" class="cls-6har1"/><path d="M1328.41 250.05c-37.79 5.79-66.4 20.86-71.06 38.36-.65 2.46-3.27 14.11 5.28 21.57 7.65 6.67 20.59 6.81 27.92 5.16 20.02-4.5 35.75-30.73 37.86-65.1Z" class="cls-6har2"/><path d="M1368.4 272.92c-28.68 5.56-50.89 17.93-55.2 31.43-.61 1.9-3.11 10.87 2.97 16.3 5.44 4.86 15.16 4.57 20.75 3.09 15.26-4.04 28.31-24.54 31.48-50.83Zm30.9 18.79c-22.79 4.42-40.44 14.25-43.86 24.98-.48 1.51-2.47 8.64 2.36 12.95 4.32 3.86 12.05 3.63 16.49 2.46 12.13-3.21 22.49-19.5 25.02-40.39Zm-74.74 108.61c-32.42-20.27-52.73-45.43-50.08-63.35.37-2.52 2.58-14.25 13.39-17.72 9.67-3.1 21.6 1.89 27.68 6.31 16.61 12.05 20.68 42.37 9.01 74.76" class="cls-6har2"/><path d="M1370.16 395.98c-24.14-16.46-39.64-36.61-38.26-50.71.19-1.98 1.44-11.21 9.18-13.8 6.92-2.31 15.73 1.8 20.28 5.37 12.42 9.75 16.29 33.74 8.8 59.14m35.83-5.03c-19.18-13.08-31.5-29.09-30.4-40.29.15-1.57 1.15-8.91 7.29-10.96 5.5-1.84 12.5 1.43 16.11 4.27 9.86 7.75 12.94 26.81 6.99 46.99Zm57.77-46.6c-16.92-16.98-37.22-26.53-51.08-23.45-1.95.43-11.01 2.73-13.33 9.28-2.08 5.86 2.23 12.32 5.88 15.45 9.97 8.55 33.72 8.27 58.54-1.28Z" class="cls-6har2"/><path d="M1181.9 356.94a3.6 3.6 0 0 1-2.73-1.23 3.643 3.643 0 0 1 .31-5.15c8.65-7.66 18.28-14.03 28.64-18.93 15.65-7.4 32.5-11.33 50.09-11.68 2-.04 3.68 1.56 3.72 3.57a3.65 3.65 0 0 1-3.57 3.72c-16.55.33-32.41 4.02-47.12 10.98a114.2 114.2 0 0 0-26.92 17.8c-.69.61-1.56.92-2.42.92m39.91-12.41c12.71 11.35 24.28 17.66 32.59 21.35 9.06 4.02 14.68 5.11 21.9 10.5 9.82 7.35 15.04 17.04 17.92 24.09-5.36-2.6-13.53-6.36-23.74-10.25-24.1-9.19-34.15-9.42-41.61-18.41-3.82-4.6-7.91-12.63-7.05-27.28Z" class="cls-6har1"/><path d="M575.45 285.9c-23.87 9.62-40.3 23.91-40.65 36.1-.05 1.71.03 9.75 6.79 13.32 6.04 3.19 14.54 1.29 19.09-.92 12.43-6.04 18.69-25.65 14.77-48.5" class="cls-6har2"/><path d="M605.19 294.72c-17.94 8.07-30.58 19.6-31.33 29.12-.1 1.34-.36 7.6 4.46 10.23 4.32 2.35 10.64.66 14.08-1.17 9.38-5 14.77-20.45 12.79-38.17Zm23.15 7.55c-14.25 6.41-24.3 15.58-24.89 23.13-.08 1.06-.29 6.04 3.55 8.13 3.43 1.86 8.46.52 11.18-.93 7.45-3.97 11.73-16.25 10.16-30.33m-32.23 82.7c-24.37-8.28-41.56-21.64-42.59-33.79-.14-1.71-.51-9.74 6.04-13.68 5.86-3.52 14.45-2.09 19.11-.14 12.74 5.34 20.09 24.58 17.44 47.6Z" class="cls-6har2"/><path d="M625.33 375.1c-18.36-7.06-31.62-17.88-32.9-27.33-.18-1.33-.78-7.57 3.89-10.46 4.18-2.58 10.59-1.25 14.12.39 9.64 4.47 15.88 19.6 14.89 37.4m22.7-8.83c-14.59-5.61-25.13-14.2-26.14-21.72-.14-1.06-.62-6.02 3.09-8.31 3.32-2.05 8.41-.99 11.22.31 7.66 3.55 12.62 15.57 11.83 29.72m30.67-39.45c-13.71-8.52-28.49-11.65-37.09-7.49-1.21.58-6.79 3.49-7.31 8.14-.46 4.16 3.36 7.73 6.24 9.22 7.85 4.07 23.37.22 38.16-9.87" class="cls-6har2"/><path d="M495.36 378.62a2.452 2.452 0 0 1-2-3.87 82 82 0 0 1 15.85-16.82c9.11-7.27 19.55-12.44 31.02-15.38 1.31-.34 2.65.45 2.99 1.77.34 1.31-.46 2.65-1.77 2.99-10.8 2.77-20.62 7.63-29.18 14.46a77 77 0 0 0-14.9 15.82c-.48.68-1.24 1.04-2.01 1.04Zm24.81-14.36c10.08 5.48 18.63 7.83 24.65 8.96 6.56 1.24 10.41 1.08 15.97 3.51 7.57 3.3 12.49 8.85 15.46 13.02-3.92-.88-9.85-2.08-17.14-3.06-17.21-2.3-23.83-.91-30.11-5.64-3.21-2.42-7.13-7.06-8.83-16.79" class="cls-6har1"/><path d="M922.79 192.54c50.72 19.58 85.72 49.11 86.65 74.62.13 3.58.07 20.42-14.19 28.06-12.75 6.83-30.79 3.05-40.46-1.47-26.41-12.34-39.97-53.27-32-101.21" class="cls-6har2"/><path d="M859.93 211.71c38.12 16.47 65.08 40.32 66.8 60.22.24 2.8.88 15.91-9.3 21.52-9.11 5.02-22.53 1.64-29.84-2.12-19.94-10.25-31.58-42.46-27.66-79.62m-48.94 16.37c30.29 13.09 51.71 32.03 53.07 47.85.19 2.22.7 12.64-7.39 17.1-7.24 3.99-17.9 1.3-23.71-1.68-15.84-8.14-25.09-33.74-21.98-63.26Zm69.5 172.41c51.51-17.93 87.73-46.31 89.72-71.78.28-3.58.93-20.4-13-28.5-12.46-7.24-30.64-4.03-40.49.17-26.91 11.48-42.19 51.95-36.23 100.11" class="cls-6har2"/><path d="M818.45 380.51c38.79-15.23 66.73-38.19 69.28-58.03.36-2.79 1.55-15.87-8.39-21.81-8.89-5.31-22.45-2.36-29.9 1.16-20.36 9.6-33.34 41.42-30.99 78.68m-48.21-17.93c30.82-12.1 53.02-30.35 55.05-46.11.28-2.21 1.23-12.61-6.67-17.33-7.06-4.22-17.84-1.88-23.76.92-16.17 7.63-26.49 32.91-24.62 62.51Zm-65.57-81.88c28.91-18.17 60.17-25.07 78.47-16.57 2.57 1.19 14.44 7.14 15.6 16.86 1.03 8.7-7 16.27-13.07 19.46-16.57 8.71-49.51 1.02-81-19.75" class="cls-6har2"/><path d="M1093.79 384.79c-1.6 0-3.17-.74-4.19-2.13-9.02-12.41-19.71-23.43-31.79-32.75-18.25-14.1-39.13-24.06-62.05-29.59-2.78-.67-4.48-3.46-3.81-6.24s3.46-4.48 6.24-3.81c24.34 5.88 46.53 16.47 65.94 31.46a171.5 171.5 0 0 1 33.83 34.86 5.166 5.166 0 0 1-1.14 7.22c-.92.67-1.98.99-3.04.99Zm-52.73-29.5c-21.27 11.71-39.36 16.84-52.08 19.36-13.87 2.74-22.04 2.51-33.78 7.73-15.99 7.09-26.32 18.83-32.55 27.64a429 429 0 0 1 36.27-6.81c36.43-5.24 50.47-2.47 63.69-12.54 6.76-5.15 15-14.95 18.45-35.37Z" class="cls-6har1"/><path d="M250.65 448.12c-9.1 56.08-1.31 102.76 20.61 116.29 3.08 1.9 17.89 10.22 31.99.99 12.61-8.26 18.63-26.62 19.68-37.7 2.85-30.27-26.05-63.02-72.28-79.58" class="cls-6har2"/><path d="M300.07 400.22c-5.3 43.02 1.67 79.52 18.25 90.99 2.33 1.61 13.51 8.72 23.72 2.21 9.13-5.83 13.12-19.78 13.61-28.32 1.34-23.32-20.91-49.98-55.58-64.88m39.74-36.57c-4.21 34.19 1.32 63.18 14.5 72.3 1.85 1.28 10.74 6.93 18.85 1.75 7.25-4.63 10.42-15.71 10.81-22.5 1.06-18.53-16.62-39.71-44.16-51.55M455.17 512.9c-42.44 38.15-86.14 57.13-109.54 46.28-3.29-1.52-18.4-9.3-18.28-26.05.1-14.98 12.34-30 21.14-36.92 24.03-18.88 67.48-12.71 106.68 16.68Z" class="cls-6har2"/><path d="M469.79 446.28c-33.48 27.87-68.13 41.98-86.86 34.45-2.63-1.06-14.74-6.48-14.8-18.51-.05-10.77 9.56-21.69 16.52-26.75 18.98-13.83 53.65-9.87 85.15 10.82Zm9.24-52.98c-26.6 22.14-54.13 33.35-69.02 27.37-2.09-.84-11.71-5.15-11.76-14.71-.04-8.55 7.6-17.23 13.12-21.25 15.08-10.98 42.63-7.84 67.65 8.6Zm-37.9-100.64c-30.94 17.38-53.21 42.51-55.22 63.46-.28 2.94-1.22 16.75 6.72 22.64 7.1 5.27 17.92 1.69 23.86-2.27 16.23-10.81 26.56-44.73 24.64-83.84Z" class="cls-6har2"/><path d="M326.29 702.75c-2.06 0-4.02-1.2-4.89-3.22a175.8 175.8 0 0 1-13.07-48.25c-3.1-25.17-.9-50.68 6.55-75.82.83-2.82 3.8-4.43 6.62-3.59 2.82.83 4.43 3.8 3.59 6.62-7.03 23.73-9.11 47.78-6.19 71.5 1.93 15.67 6.06 30.93 12.28 45.34a5.333 5.333 0 0 1-4.89 7.44Zm5.96-65.6c21.3-13.61 35.19-27.59 44-37.96 9.6-11.31 13.63-18.89 24.29-27.03 14.52-11.08 30.17-14.68 41.14-16a468 468 0 0 0-24.78 29.75c-23.48 30.68-28.33 44.89-44.03 51.96-8.03 3.62-20.9 6.27-40.62-.73Z" class="cls-6har1"/><path d="M405.72 863.02c5.45 36.23.79 66.38-12.35 75.13-1.85 1.23-10.72 6.6-19.17.64-7.56-5.33-11.16-17.19-11.79-24.36-1.71-19.56 15.61-40.71 43.31-51.41" class="cls-6har2"/><path d="M376.11 832.07c3.18 27.79-1 51.37-10.94 58.78-1.4 1.04-8.1 5.63-14.21 1.43-5.47-3.76-7.86-12.78-8.15-18.29-.8-15.06 12.53-32.29 33.3-41.91Zm-23.81-23.63c2.52 22.08-.79 40.82-8.69 46.7-1.11.83-6.43 4.48-11.29 1.13-4.35-2.99-6.24-10.15-6.48-14.53-.64-11.97 9.96-25.65 26.46-33.3m-69.12 96.43c25.43 24.64 51.61 36.9 65.63 29.9 1.97-.98 11.02-6.01 10.96-16.83-.06-9.68-7.39-19.38-12.67-23.85-14.4-12.2-40.43-8.21-63.92 10.78" class="cls-6har2"/><path d="M274.43 861.83c20.06 18 40.82 27.12 52.05 22.25 1.58-.68 8.83-4.19 8.87-11.96.03-6.95-5.73-14.01-9.9-17.28-11.37-8.93-32.15-6.38-51.02 6.99m-5.54-34.23c15.94 14.3 32.43 21.55 41.35 17.68 1.25-.54 7.02-3.33 7.05-9.5.02-5.53-4.55-11.13-7.86-13.73-9.04-7.1-25.54-5.07-40.54 5.55m22.7-65.01c18.54 11.23 31.88 27.46 33.09 41 .17 1.9.73 10.82-4.03 14.63-4.26 3.4-10.74 1.09-14.3-1.46-9.73-6.99-15.92-28.9-14.76-54.16Z" class="cls-6har2"/><path d="M360.4 1027.38a3.313 3.313 0 0 1-3.07-4.55c3.74-9.33 6.22-19.22 7.38-29.38 1.76-15.37.51-30.96-3.72-46.33-.48-1.76.55-3.59 2.32-4.07 1.76-.48 3.59.55 4.07 2.32 4.45 16.19 5.76 32.63 3.91 48.84-1.23 10.74-3.86 21.2-7.81 31.08a3.32 3.32 0 0 1-3.08 2.08Zm-3.57-42.25c-12.76-8.79-21.09-17.82-26.36-24.52-5.75-7.3-8.17-12.2-14.56-17.46-8.7-7.16-18.08-9.49-24.65-10.33 3.59 4.27 8.89 10.82 14.85 19.22 14.07 19.82 16.98 29 26.38 33.57 4.81 2.34 12.52 4.05 24.34-.47Z" class="cls-6har1"/><path d="M373.46 1719.87c36.49 7.66 67.9 3.75 78.35-10.55 1.47-2.01 7.98-11.7 2.83-21.4-4.61-8.68-16.35-13.22-23.61-14.23-19.84-2.76-43.47 15.69-57.56 46.19Z" class="cls-6har2"/><path d="M345.12 1685.43c28.11 4.75 52.73 1.11 61.45-9.68 1.22-1.52 6.69-8.81 3.07-15.83-3.24-6.28-12.2-9.34-17.81-9.9-15.34-1.55-34.49 12.61-46.7 35.41Zm-21.5-27.64c22.33 3.78 41.9.88 48.82-7.69.97-1.2 5.31-7 2.44-12.57-2.57-4.99-9.69-7.42-14.15-7.87-12.19-1.23-27.4 10.02-37.11 28.14Zm106.59-73.1c22.36 29.5 31.95 59.29 23.19 74.66-1.23 2.16-7.4 12.06-18.48 11.52-9.91-.49-19.02-9.1-22.99-15.19-10.86-16.63-3.83-45.55 18.28-70.99" class="cls-6har2"/><path d="M387.12 1573.04c16.17 23.2 23.15 46.8 16.9 59.14-.88 1.73-5.29 9.69-13.25 9.4-7.13-.27-13.7-7.01-16.58-11.81-7.86-13.1-2.89-36.21 12.94-56.73Zm-34.43-7.68c12.85 18.44 18.4 37.19 13.43 46.99-.7 1.38-4.2 7.7-10.53 7.47-5.66-.21-10.89-5.57-13.17-9.38-6.25-10.41-2.3-28.77 10.28-45.08Zm-69.16 22.58c9.4 21.21 24.52 36.83 38.24 38.76 1.93.27 11 1.28 15.44-3.87 3.97-4.61 2.34-11.95.12-16.05-6.05-11.18-27.8-19.04-53.8-18.85Z" class="cls-6har2"/><path d="M502.27 1687.29c-13.57 0-26.99-2.31-40.02-6.91a3.553 3.553 0 0 1 2.36-6.7c15.2 5.36 30.96 7.43 46.84 6.13 10.51-.86 20.89-3.2 30.86-6.96 1.84-.69 3.88.23 4.58 2.07.69 1.83-.23 3.88-2.07 4.58-10.59 4-21.62 6.49-32.79 7.4-3.26.27-6.51.4-9.76.4Zm1.81-16.8c-7.56-14.65-15.87-24.34-22.13-30.53-6.83-6.75-11.57-9.66-16.23-17.03-6.35-10.03-7.67-20.62-7.79-28 3.97 4.2 10.07 10.4 18 17.43 18.71 16.59 27.78 20.23 31.39 30.94 1.85 5.48 2.73 14.18-3.24 27.19" class="cls-6har1"/><path d="M239.86 1230.86c-1.26 51.49 10.87 92.63 31.26 102.38 2.86 1.37 16.55 7.21 27.56-2.66 9.86-8.83 12.88-26.03 12.48-36.13-1.09-27.57-29.71-53.83-71.3-63.59" class="cls-6har2"/><path d="M276.67 1182.25c.47 39.32 10.71 71.39 26.28 79.87 2.19 1.19 12.61 6.35 20.61-.65 7.15-6.26 8.95-19.26 8.37-27-1.58-21.14-23.78-42.66-55.26-52.21Zm29.83-37.34c.38 31.24 8.51 56.72 20.88 63.46 1.74.95 10.02 5.04 16.37-.52 5.68-4.97 7.11-15.3 6.65-21.45-1.25-16.79-18.89-33.89-43.9-41.49m116.4 121.5c-31.96 39.06-67.24 61-88.58 53.85-3-1.01-16.87-6.32-18.73-21.41-1.66-13.5 7.08-28.38 13.83-35.58 18.42-19.67 56.42-18.95 93.48 3.15Z" class="cls-6har2"/><path d="M427.66 1204.82c-25.47 28.81-53.55 45.36-70.51 40.67-2.38-.66-13.4-4.19-14.86-15.02-1.3-9.68 5.68-20.58 11.05-25.92 14.67-14.56 44.88-14.85 74.32.26Zm1.75-48.71c-20.24 22.89-42.55 36.04-56.02 32.31-1.89-.52-10.65-3.33-11.81-11.93-1.03-7.69 4.51-16.36 8.78-20.59 11.66-11.57 35.66-11.8 59.05.21m-44.26-86.36c-24.51 19.09-40.69 44.19-39.98 63.27.1 2.68.91 15.21 8.41 19.63 6.71 3.95 15.57-.47 20.21-4.7 12.67-11.54 17.57-43.22 11.36-78.2" class="cls-6har2"/><path d="M333.86 1451.56c-1.64 0-3.23-.85-4.1-2.38-7.46-13.05-13.11-27.14-16.82-41.9-5.59-22.27-6.67-45.43-3.23-68.84a4.716 4.716 0 0 1 9.33 1.37c-3.27 22.18-2.24 44.11 3.04 65.17 3.49 13.92 8.83 27.22 15.86 39.52a4.72 4.72 0 0 1-4.1 7.06Zm-1.92-59.64c16.69-14.62 26.98-28.75 33.32-39.06 6.92-11.25 9.49-18.52 17.69-27.03 11.16-11.59 24.18-16.57 33.43-18.97a416 416 0 0 0-17.79 29.54c-16.57 30.23-19.07 43.55-31.71 51.67-6.47 4.15-17.2 7.97-34.94 3.86Z" class="cls-6har1"/></svg>