<svg fill="none" xmlns="http://www.w3.org/2000/svg" width="300" height="300" viewBox="0 0 300 300"><g transform="translate(10 10)"><path fill="#BDD0FB" d="M153.609 20.009a.93.93 0 0 0-.93-.93h-27.454V96.32c0 6.425 5.208 11.633 11.633 11.633h5.118c6.425 0 11.633-5.208 11.633-11.633V20.01z"/><path fill="#BDD0FB" d="M88 77.242c0-26.213 21.249-47.462 47.462-47.462h5.118c26.213 0 47.462 21.25 47.462 47.462v186.125c0 6.425-5.208 11.633-11.633 11.633H99.633C93.208 275 88 269.792 88 263.367z"/><mask id="a" width="101" height="246" x="88" y="29" maskUnits="userSpaceOnUse" style="mask-type:alpha"><path fill="#BDD0FB" d="M88 77.242c0-26.213 21.249-47.462 47.462-47.462h5.118c26.213 0 47.462 21.25 47.462 47.462v186.125c0 6.425-5.208 11.633-11.633 11.633H99.633C93.208 275 88 269.792 88 263.367z"/></mask><g mask="url(#a)"><path fill="#727271" d="M9.044 70.802h271.47v163.521H9.044z"/></g><path fill="#727271" d="M157.332 7.805C157.827 3.653 154.583 0 150.401 0h-23.049c-4.292 0-7.567 3.836-6.894 8.075l1.109 6.98a6.98 6.98 0 0 0 6.894 5.884h21.109a6.98 6.98 0 0 0 6.93-6.154z"/><circle cx="139" cy="152" r="72.159" fill="#fff" stroke="#727271" stroke-width="5.682"/></g></svg>