<svg fill="none" xmlns="http://www.w3.org/2000/svg" width="300" height="300" viewBox="0 0 300 300"><path d="M61 87.645c0-7.207 5.843-13.05 13.05-13.05h149.9c7.207 0 13.05 5.843 13.05 13.05v145.752c0 28.829-23.37 52.199-52.199 52.199h-71.602C84.37 285.596 61 262.226 61 233.397zm78.485-59.409C143.343 18.597 152.12 11.52 158.872 10c-3.965 5.536-6.987 23.056-1.585 30.61 6.52 9.119-12.241 31.263-8.704 18.237 3.786-13.943-13.922-18.562-9.098-30.61m-31.972-.001C111.37 18.597 120.148 11.52 126.9 10c-3.966 5.536-6.988 23.056-1.586 30.61 6.52 9.119-12.24 31.263-8.704 18.237 3.786-13.943-13.921-18.562-9.098-30.61m63.944-.001c3.859-9.639 12.635-16.716 19.388-18.236-3.966 5.536-6.987 23.056-1.585 30.61 6.519 9.119-12.242 31.263-8.705 18.237 3.787-13.943-13.921-18.562-9.098-30.61" fill="#3CB8B4"/><path d="M104.83 117.197q3.018 0 3.017-2.236 0-.91-.468-1.43-.443-.52-1.664-.91l-2.132-.702q-3.822-1.248-3.822-5.018 0-2.184 1.352-3.588 1.379-1.43 4.29-1.43 1.222 0 2.418.286 1.196.26 2.548.858l-.962 2.678q-1.248-.495-2.132-.702a6.7 6.7 0 0 0-1.768-.234q-1.196 0-1.898.442-.676.415-.676 1.534 0 .831.468 1.378.495.52 1.612.884l2.132.702q1.924.65 2.886 1.898.988 1.221.988 3.25 0 2.34-1.482 3.796-1.483 1.43-4.654 1.43-1.248 0-2.6-.286-1.326-.312-2.912-1.04l.962-2.678q1.456.623 2.47.884 1.04.234 2.028.234m12.002-4.368q0 1.897.832 3.12.833 1.196 2.73 1.196.78 0 1.612-.208.858-.209 2.106-.702l.962 2.704q-1.404.623-2.6.884-1.17.26-2.262.26-2.184 0-3.666-.936-1.456-.936-2.184-2.574t-.728-3.744v-3.718q0-2.106.728-3.744.727-1.638 2.184-2.548 1.482-.936 3.666-.936 1.065 0 2.21.26 1.144.234 2.496.832l-.962 2.756q-1.196-.495-2.002-.702a6.2 6.2 0 0 0-1.56-.208q-1.897 0-2.73 1.196-.832 1.195-.832 3.094zm20.909 6.994-1.092-3.458h-6.058l-1.092 3.458h-3.094l5.902-17.68h2.756l5.928 17.68zm-5.46-8.866-.806 2.548h4.264l-.806-2.548-1.3-4.472zm11.663 8.866v-17.68h2.86a68 68 0 0 1 3.9 5.668 63 63 0 0 1 3.354 6.11l-.234-5.278v-6.5h2.99v17.68h-2.86a266 266 0 0 0-3.458-6.578 67 67 0 0 0-3.77-6.266l.208 6.084v6.76zm26.359-17.68 4.94 12.09 4.914-12.09h3.406v17.68h-2.99v-6.76l.39-6.188-4.394 10.868h-2.782l-4.29-10.894.39 6.214v6.76h-2.99v-17.68zm28.395 14.69v2.99h-10.244v-17.68h9.984v2.99h-6.864v4.238h6.084v2.99h-6.084v4.472zM78 153.05c0-7.207 5.843-13.05 13.05-13.05h115.9c7.207 0 13.05 5.843 13.05 13.05v75.801C220 250.472 202.472 268 180.851 268h-63.702C95.528 268 78 250.472 78 228.851z" fill="#fff"/></svg>