<svg xmlns="http://www.w3.org/2000/svg" width="300" height="300" viewBox="0 0 531 531"><rect width="521" height="521" x="5" y="5" stroke="#727271" stroke-width="10" rx="260.5" fill="none"/><path fill="#727271" d="M119.343 74.216h-9.395v9.42h9.395zm211.736-51.508h-9.396v9.42h9.396zm-202.34 42.088h-9.396v9.42h9.396zm0 28.259h-9.396v9.419h9.396v-9.42Zm9.396-37.679h-9.396v9.42h9.396z"/><path fill="#727271" d="M138.135 64.796h-9.396v9.42h9.396zm0 18.839h-9.396v9.42h9.396z"/><path fill="#727271" d="M138.135 93.055h-9.396v9.419h9.396v-9.42Zm9.396-28.259h-9.396v9.42h9.396z"/><path fill="#727271" d="M147.531 74.216h-9.396v9.42h9.396zm9.396-9.42h-9.396v9.42h9.396zm0 18.839h-9.396v9.42h9.396zm9.395-47.098h-9.395v9.42h9.395zm0 9.42h-9.395v9.42h9.395z"/><path fill="#727271" d="M166.322 64.796h-9.395v9.42h9.395zm0 18.839h-9.395v9.42h9.395zm9.396-47.098h-9.396v9.42h9.396zm0 18.839h-9.396v9.42h9.396zm0 18.84h-9.396v9.42h9.396zm0 18.839h-9.396v9.419h9.396v-9.42Zm9.396-65.938h-9.396v9.42h9.396zm0 37.679h-9.396v9.42h9.396z"/><path fill="#727271" d="M185.114 74.216h-9.396v9.42h9.396zm9.396-28.259h-9.396v9.42h9.396z"/><path fill="#727271" d="M194.51 64.796h-9.396v9.42h9.396z"/><path fill="#727271" d="M194.51 74.216h-9.396v9.42h9.396zm0 18.839h-9.396v9.419h9.396v-9.42Zm9.396-65.938h-9.396v9.42h9.396zm0 18.84h-9.396v9.42h9.396z"/><path fill="#727271" d="M203.906 55.376h-9.396v9.42h9.396zm0 9.42h-9.396v9.42h9.396zm0 9.42h-9.396v9.42h9.396z"/><path fill="#727271" d="M203.906 83.635h-9.396v9.42h9.396z"/><path fill="#727271" d="M203.906 93.055h-9.396v9.419h9.396v-9.42Zm9.395-28.259h-9.395v9.42h9.395z"/><path fill="#727271" d="M213.301 83.635h-9.395v9.42h9.395zm9.396-56.518h-9.395v9.42h9.395zm0 9.42h-9.395v9.42h9.395zm0 18.839h-9.395v9.42h9.395zm0 18.84h-9.395v9.42h9.395zm9.396-56.518h-9.396v9.42h9.396zm0 18.839h-9.396v9.42h9.396zm0 37.679h-9.396v9.42h9.396zm9.396-37.679h-9.396v9.42h9.396zm0 18.839h-9.396v9.42h9.396zm0 9.42h-9.396v9.42h9.396zm0 18.839h-9.396v9.42h9.396zm9.396-56.518h-9.396v9.42h9.396z"/><path fill="#727271" d="M250.885 36.537h-9.396v9.42h9.396zm0 18.839h-9.396v9.42h9.396zm0 18.84h-9.396v9.42h9.396z"/><path fill="#727271" d="M250.885 83.635h-9.396v9.42h9.396zm-23.477 9.302h-9.396v9.42h9.396zm32.873-28.141h-9.396v9.42h9.396zm0 18.839h-9.396v9.42h9.396z"/><path fill="#727271" d="M260.281 93.055h-9.396v9.419h9.396v-9.42Zm9.395-75.357h-9.396v9.42h9.396z"/><path fill="#727271" d="M269.676 27.117h-9.396v9.42h9.396zm0 28.259h-9.396v9.42h9.396zm0 9.42h-9.396v9.42h9.396zm0 18.839h-9.396v9.42h9.396z"/><path fill="#727271" d="M269.676 93.055h-9.396v9.419h9.396v-9.42Zm9.396-75.357h-9.396v9.42h9.396zm0 28.259h-9.396v9.42h9.396z"/><path fill="#727271" d="M279.072 55.376h-9.396v9.42h9.396zm0 28.259h-9.396v9.42h9.396zm9.396-65.937h-9.396v9.42h9.396z"/><path fill="#727271" d="M288.468 27.117h-9.396v9.42h9.396zm0 9.42h-9.396v9.42h9.396zm0 37.679h-9.396v9.42h9.396zm0 18.839h-9.396v9.419h9.396v-9.42Z"/><path fill="#727271" d="M297.864 27.117h-9.396v9.42h9.396zm0 28.259h-9.396v9.42h9.396zm0 9.42h-9.396v9.42h9.396zm0 28.259h-9.396v9.419h9.396v-9.42Zm9.395-56.518h-9.395v9.42h9.395zm0 9.42h-9.395v9.42h9.395zm0 28.259h-9.395v9.42h9.395zm9.396-56.518h-9.395v9.42h9.395z"/><path fill="#727271" d="M316.655 27.117h-9.395v9.42h9.395zm0 9.42h-9.395v9.42h9.395zm0 18.839h-9.395v9.42h9.395zm0 28.259h-9.395v9.42h9.395z"/><path fill="#727271" d="M316.655 93.055h-9.395v9.419h9.395v-9.42Zm9.396-28.259h-9.396v9.42h9.396z"/><path fill="#727271" d="M326.051 74.216h-9.396v9.42h9.396z"/><path fill="#727271" d="M326.051 83.635h-9.396v9.42h9.396zm9.396-28.259h-9.396v9.42h9.396zm0 9.42h-9.396v9.42h9.396zm9.396-28.259h-9.396v9.42h9.396zm0 18.839h-9.396v9.42h9.396zm0 28.259h-9.396v9.42h9.396z"/><path fill="#727271" d="M344.843 93.055h-9.396v9.419h9.396v-9.42Zm9.396-65.938h-9.396v9.42h9.396zm0 9.42h-9.396v9.42h9.396zm0 9.42h-9.396v9.42h9.396z"/><path fill="#727271" d="M354.239 55.376h-9.396v9.42h9.396zm0 9.42h-9.396v9.42h9.396zm0 9.42h-9.396v9.42h9.396zm9.395-28.259h-9.395v9.42h9.395zm0 18.839h-9.395v9.42h9.395zm0 18.839h-9.395v9.42h9.395zm9.396-37.678h-9.396v9.42h9.396z"/><path fill="#727271" d="M373.03 55.376h-9.396v9.42h9.396zm0 18.84h-9.396v9.42h9.396zm0 18.839h-9.396v9.419h9.396v-9.42Zm9.396-47.098h-9.396v9.42h9.396zm0 28.259h-9.396v9.42h9.396zm18.792-18.84h-9.396v9.42h9.396zm0 9.42h-9.396v9.42h9.396zm18.818 9.414h-9.396v9.42h9.396zm-18.818 18.845h-9.396v9.419h9.396v-9.42Zm9.395-9.42h-9.395v9.42h9.395z"/><path fill="#727271" d="M410.613 93.055h-9.395v9.419h9.395v-9.42Zm9.396 0h-9.396v9.419h9.396v-9.42Zm-309.65-9.482h-9.396v9.42h9.396zM99.657 411.309h-9.395v9.419h9.395zm18.728 33.554h-9.395v9.419h9.395zm9.396-18.84h-9.396v9.42h9.396zm0 28.259h-9.396v9.42h9.396zm-28.124-28.259h-9.395v9.42h9.395zm37.52 18.84h-9.396v9.419h9.396z"/><path fill="#727271" d="M137.177 454.282h-9.396v9.42h9.396zm0 9.42h-9.396v9.42h9.396zm9.396-9.42h-9.396v9.42h9.396zm0 9.42h-9.396v9.42h9.396zm9.396-37.679h-9.396v9.42h9.396zm0 18.84h-9.396v9.419h9.396zm0 9.419h-9.396v9.42h9.396zm9.395-28.259h-9.395v9.42h9.395zm0 18.84h-9.395v9.419h9.395zm0 28.259h-9.395v9.419h9.395zm0 9.419h-9.395v9.42h9.395zm9.396-47.098h-9.395v9.42h9.395zm0 18.839h-9.395v9.42h9.395zm0 18.84h-9.395v9.419h9.395zm9.396-37.679h-9.396v9.42h9.396zm0 37.679h-9.396v9.419h9.396zm0 18.839h-9.396v9.42h9.396zm9.396-56.518h-9.396v9.42h9.396zm0 56.518h-9.396v9.42h9.396zm9.396-65.938h-9.396v9.42h9.396zm0 37.679h-9.396v9.42h9.396zm9.395-28.259h-9.395v9.42h9.395zm0 47.098h-9.395v9.42h9.395zm0 9.42h-9.395v9.42h9.395zm9.396-47.098h-9.395v9.419h9.395zm0 18.839h-9.395v9.42h9.395zm0 9.42h-9.395v9.419h9.395zm0 18.839h-9.395v9.42h9.395zm197.628-75.97h-9.396v9.419h9.396zm-188.232 19.452h-9.396v9.42h9.396zm0 9.42h-9.396v9.419h9.396zm0 9.419h-9.396v9.42h9.396zm0 9.42h-9.396v9.42h9.396zm0 28.259h-9.396v9.42h9.396zm9.396-65.938h-9.396v9.42h9.396z"/><path fill="#727271" d="M240.531 435.443h-9.396v9.42h9.396zm0 9.42h-9.396v9.419h9.396zm0 18.839h-9.396v9.42h9.396zm0 18.839h-9.396v9.42h9.396zm9.396-37.678h-9.396v9.419h9.396zm0 47.098h-9.396v9.42h9.396z"/><path fill="#727271" d="M249.927 501.325h-9.396v9.419h9.396zm9.396-65.882h-9.396v9.42h9.396zm0 9.42h-9.396v9.419h9.396zm0 37.678h-9.396v9.42h9.396z"/><path fill="#727271" d="M268.718 435.443h-9.396v9.42h9.396zm0 18.839h-9.396v9.42h9.396z"/><path fill="#727271" d="M278.114 426.023h-9.396v9.42h9.396zm0 18.84h-9.396v9.419h9.396zm0 9.419h-9.396v9.42h9.396zm0 9.42h-9.396v9.42h9.396zm0 9.42h-9.396v9.419h9.396zm0 18.839h-9.396v9.42h9.396zm9.396-65.938h-9.396v9.42h9.396zm0 28.259h-9.396v9.42h9.396zm9.396-18.839h-9.396v9.42h9.396zm0 9.42h-9.396v9.419h9.396zm0 28.259h-9.396v9.419h9.396zm0 9.419h-9.396v9.42h9.396zm0 9.42h-9.396v9.42h9.396z"/><path fill="#727271" d="M278.178 501.325h-9.396v9.419h9.396zm28.123-56.462h-9.395v9.419h9.395zm0 9.419h-9.395v9.42h9.395zm0 37.679h-9.395v9.42h9.395zm9.396-65.938h-9.396v9.42h9.396zm0 47.099h-9.396v9.419h9.396zm9.396-37.679h-9.396v9.42h9.396zm0 9.42h-9.396v9.419h9.396zm0 9.419h-9.396v9.42h9.396zm0 9.42h-9.396v9.42h9.396zm0 9.42h-9.396v9.419h9.396zm0 18.839h-9.396v9.42h9.396z"/><path fill="#727271" d="M334.489 435.443h-9.396v9.42h9.396zm0 9.42h-9.396v9.419h9.396zm9.396-18.84h-9.396v9.42h9.396zm0 18.84h-9.396v9.419h9.396zm0 47.098h-9.396v9.42h9.396zm9.395-65.938h-9.395v9.42h9.395z"/><path fill="#727271" d="M353.28 435.443h-9.395v9.42h9.395zm0 9.42h-9.395v9.419h9.395zm0 47.098h-9.395v9.42h9.395zm9.396-65.938h-9.395v9.42h9.395zm0 18.84h-9.395v9.419h9.395zm0 18.839h-9.395v9.42h9.395zm-18.727 0h-9.396v9.42h9.396z"/><path fill="#727271" d="M343.949 473.066h-9.396v9.42h9.396zm18.727.056h-9.395v9.419h9.395zm0 9.419h-9.395v9.42h9.395zm-65.708 23.744h-9.396v9.42h9.396zm75.104-61.422h-9.396v9.419h9.396zm0 37.678h-9.396v9.42h9.396zm9.396-47.098h-9.396v9.42h9.396zm0 18.839h-9.396v9.42h9.396zm9.396-9.419h-9.396v9.419h9.396zm0 18.839h-9.396v9.42h9.396zm9.395-37.679h-9.395v9.42h9.395zm0 9.42h-9.395v9.42h9.395zm9.396-9.42h-9.395v9.42h9.395zm0 28.259h-9.395v9.42h9.395zm0 9.42h-9.395v9.42h9.395zm9.396-18.839h-9.396v9.419h9.396zm8.31-33.586v9.396h9.42v-9.396zm18.839 0v9.396h9.42v-9.396zm-18.839-9.396v9.396h9.42v-9.396zm0 33.475v9.395h9.42v-9.395zm0-9.396v9.395h9.42v-9.395zm28.259-24.079v9.396h9.42v-9.396zm52.003-122.335v9.396h9.42v-9.396zM446.2 392.485v9.396h9.42v-9.396z"/><path fill="#727271" d="M455.62 392.485v9.396h9.42v-9.396zm9.42 0v9.396h9.42v-9.396z"/><path fill="#727271" d="M455.62 383.09v9.396h9.42v-9.396zm9.42 0v9.396h9.42v-9.396zm-37.679-9.396v9.396h9.42v-9.396zm18.839 0v9.396h9.42v-9.396z"/><path fill="#727271" d="M455.62 373.694v9.396h9.42v-9.396zm-28.259-9.396v9.396h9.42v-9.396zm18.839 0v9.396h9.42v-9.396zm28.259 0v9.396h9.42v-9.396zm9.42 0v9.396h9.42v-9.396zm-47.098-9.396v9.396h9.419v-9.396zm18.839 0v9.396h9.42v-9.396zm18.839 0v9.396h9.42v-9.396zm-37.678-9.396v9.396h9.419v-9.396zm37.678 0v9.396h9.42v-9.396zm18.84 0v9.396h9.419v-9.396zm-56.518-9.395v9.395h9.419v-9.395zm56.518 0v9.395h9.419v-9.395zm-65.938-9.396v9.395h9.42v-9.395zm37.679 0v9.395h9.42v-9.395zm-28.259-9.396v9.396h9.419v-9.396zm47.098 0v9.396h9.42v-9.396zm9.42 0v9.396h9.419v-9.396zm-47.099-9.396v9.396h9.42v-9.396zm18.84 0v9.396h9.42v-9.396z"/><path fill="#727271" d="M474.459 307.923v9.396h9.42v-9.396zm18.84 0v9.396h9.419v-9.396zm-65.938-9.396v9.396h9.42v-9.396zm9.42 0v9.396h9.419v-9.396zm9.419 0v9.396h9.42v-9.396zm9.42 0v9.396h9.42v-9.396zm9.42 0v9.396h9.42v-9.396zm28.259 0v9.396h9.419v-9.396zm-65.938-9.396v9.396h9.42v-9.396zm9.42 0v9.396h9.419v-9.396zm9.419 0v9.396h9.42v-9.396zm18.84 0v9.396h9.42v-9.396zm18.839 0v9.396h9.42v-9.396zm-37.679-9.395v9.395h9.42v-9.395zm47.099 0v9.395h9.419v-9.395zm-56.518-9.396v9.396h9.419v-9.396zm9.419 0v9.396h9.42v-9.396zm37.679 0v9.396h9.42v-9.396z"/><path fill="#727271" d="M436.781 260.944v9.396h9.419v-9.396zm18.839 0v9.396h9.42v-9.396zm-28.259-9.396v9.396h9.42v-9.396zm18.839 0v9.396h9.42v-9.396zm9.42 0v9.396h9.42v-9.396zm9.42 0v9.396h9.42v-9.396z"/><path fill="#727271" d="M474.459 251.548v9.396h9.42v-9.396zm18.84 0v9.396h9.419v-9.396zm14.045 0v9.396h9.42v-9.396zm-79.983-9.395v9.395h9.42v-9.395zm28.259 0v9.395h9.42v-9.395zm-18.839-9.397v9.396h9.419v-9.396zm9.419 0v9.396h9.42v-9.396zm28.259 0v9.396h9.42v-9.396zm9.42 0v9.396h9.42v-9.396z"/><path fill="#727271" d="M493.299 232.756v9.396h9.419v-9.396zm-47.099-9.395v9.396h9.42v-9.396zm9.42 0v9.396h9.42v-9.396z"/><path fill="#727271" d="M493.299 223.361v9.396h9.419v-9.396zm-65.938-9.396v9.396h9.42v-9.396zm47.098 0v9.396h9.42v-9.396zm-37.678-9.396v9.396h9.419v-9.396zm9.419 0v9.396h9.42v-9.396zm9.42 0v9.396h9.42v-9.396zm9.42 0v9.396h9.42v-9.396z"/><path fill="#727271" d="M474.459 204.569v9.396h9.42v-9.396zm18.84 0v9.396h9.419v-9.396zm-56.518-9.396v9.396h9.419v-9.396zm9.419 0v9.396h9.42v-9.396zm-18.839-9.395v9.395h9.42v-9.395zm18.839 0v9.395h9.42v-9.395zm47.099 0v9.395h9.419v-9.395z"/><path fill="#727271" d="M427.361 176.382v9.396h9.42v-9.396zm9.42 0v9.396h9.419v-9.396zm9.419 0v9.396h9.42v-9.396zm47.099 0v9.396h9.419v-9.396zm-65.938-9.396v9.396h9.42v-9.396zm18.839 0v9.396h9.42v-9.396zm18.84 0v9.396h9.42v-9.396zm0 19.397v9.395h9.42v-9.395z"/><path fill="#727271" d="M474.459 166.986v9.396h9.42v-9.396zm9.42 0v9.396h9.42v-9.396zM446.2 157.59v9.396h9.42v-9.396zm37.679 0v9.396h9.42v-9.396zm-47.098-9.396v9.396h9.419v-9.396zm18.839 0v9.396h9.42v-9.396zm-9.42-9.395v9.396h9.42v-9.396zm18.84 0v9.396h9.42v-9.396zm-37.679-9.396v9.396h9.42v-9.396zm9.42 0v9.396h9.419v-9.396zm-9.42-9.396v9.396h9.42v-9.396zm28.259 0v9.396h9.42v-9.396zm9.42 0v9.396h9.42v-9.396zm-18.84-9.396v9.396h9.42v-9.396zm-6.019-13.377v9.396h9.42v-9.396zM105.645 411.277v9.396h-9.42v-9.396zm-18.839 0v9.396h-9.42v-9.396zm18.839-9.396v9.396h-9.42v-9.396zm0 33.475v9.395h-9.42v-9.395zm0-9.396v9.395h-9.42v-9.395zm-28.259-24.079v9.396h-9.42v-9.396zM25.384 279.546v9.396h-9.42v-9.396zm61.422 112.939v9.396h-9.42v-9.396z"/><path fill="#727271" d="M77.386 392.485v9.396h-9.42v-9.396z"/><path fill="#727271" d="M67.967 392.485v9.396h-9.42v-9.396z"/><path fill="#727271" d="M77.386 383.09v9.396h-9.42v-9.396z"/><path fill="#727271" d="M67.967 383.09v9.396h-9.42v-9.396zm37.678-9.396v9.396h-9.42v-9.396zm-18.839 0v9.396h-9.42v-9.396z"/><path fill="#727271" d="M77.386 373.694v9.396h-9.42v-9.396zm28.259-9.396v9.396h-9.42v-9.396zm-18.839 0v9.396h-9.42v-9.396zm-28.259 0v9.396h-9.42v-9.396z"/><path fill="#727271" d="M49.127 364.298v9.396h-9.42v-9.396zm47.099-9.396v9.396h-9.42v-9.396zm-18.84 0v9.396h-9.42v-9.396zm-18.839 0v9.396h-9.42v-9.396zm37.679-9.396v9.396h-9.42v-9.396zm-37.679 0v9.396h-9.42v-9.396zm-18.839 0v9.396h-9.42v-9.396zm56.518-9.395v9.395h-9.42v-9.395zm-56.518 0v9.395h-9.42v-9.395zm65.937-9.396v9.395h-9.42v-9.395zm-37.678 0v9.395h-9.42v-9.395z"/><path fill="#727271" d="M96.226 317.319v9.396h-9.42v-9.396zm-47.099 0v9.396h-9.42v-9.396z"/><path fill="#727271" d="M39.708 317.319v9.396h-9.42v-9.396zm47.098-9.396v9.396h-9.42v-9.396zm-18.839 0v9.396h-9.42v-9.396zm-9.42 0v9.396h-9.42v-9.396zm-18.839 0v9.396h-9.42v-9.396zm65.937-9.396v9.396h-9.42v-9.396z"/><path fill="#727271" d="M96.226 298.527v9.396h-9.42v-9.396zm-9.42 0v9.396h-9.42v-9.396zm-9.42 0v9.396h-9.42v-9.396z"/><path fill="#727271" d="M67.967 298.527v9.396h-9.42v-9.396zm-28.259 0v9.396h-9.42v-9.396zm65.937-9.396v9.396h-9.42v-9.396z"/><path fill="#727271" d="M96.226 289.131v9.396h-9.42v-9.396zm-9.42 0v9.396h-9.42v-9.396zm-18.839 0v9.396h-9.42v-9.396zm-18.84 0v9.396h-9.42v-9.396zm37.679-9.395v9.395h-9.42v-9.395zm-47.098 0v9.395h-9.42v-9.395zm56.518-9.396v9.396h-9.42v-9.396zm-9.42 0v9.396h-9.42v-9.396zm-37.679 0v9.396h-9.42v-9.396z"/><path fill="#727271" d="M96.226 260.944v9.396h-9.42v-9.396zm-18.84 0v9.396h-9.42v-9.396zm28.259-9.396v9.396h-9.42v-9.396zm-18.839 0v9.396h-9.42v-9.396zm-9.42 0v9.396h-9.42v-9.396z"/><path fill="#727271" d="M67.967 251.548v9.396h-9.42v-9.396zm-9.42 0v9.396h-9.42v-9.396zm-18.839 0v9.396h-9.42v-9.396zm-14.046 0v9.396h-9.42v-9.396zm79.983-9.395v9.395h-9.42v-9.395zm-28.259 0v9.395h-9.42v-9.395zm18.84-9.397v9.396h-9.42v-9.396zm-9.42 0v9.396h-9.42v-9.396zm-28.259 0v9.396h-9.42v-9.396zm-9.42 0v9.396h-9.42v-9.396z"/><path fill="#727271" d="M39.708 232.756v9.396h-9.42v-9.396zm47.098-9.395v9.396h-9.42v-9.396zm-9.42 0v9.396h-9.42v-9.396z"/><path fill="#727271" d="M39.708 223.361v9.396h-9.42v-9.396zm65.937-9.396v9.396h-9.42v-9.396zm-47.098 0v9.396h-9.42v-9.396zm37.679-9.396v9.396h-9.42v-9.396zm-9.42 0v9.396h-9.42v-9.396zm-9.42 0v9.396h-9.42v-9.396z"/><path fill="#727271" d="M67.967 204.569v9.396h-9.42v-9.396zm-9.42 0v9.396h-9.42v-9.396zm-18.839 0v9.396h-9.42v-9.396zm56.518-9.396v9.396h-9.42v-9.396zm-9.42 0v9.396h-9.42v-9.396zm18.839-9.395v9.395h-9.42v-9.395zm-18.839 0v9.395h-9.42v-9.395zm-47.098 0v9.395h-9.42v-9.395z"/><path fill="#727271" d="M105.645 176.382v9.396h-9.42v-9.396z"/><path fill="#727271" d="M96.226 176.382v9.396h-9.42v-9.396zm-9.42 0v9.396h-9.42v-9.396zm-47.098 0v9.396h-9.42v-9.396zm65.937-9.396v9.396h-9.42v-9.396zm-18.839 0v9.396h-9.42v-9.396zm-18.839 0v9.396h-9.42v-9.396zm0 19.397v9.395h-9.42v-9.395zm-9.42-19.397v9.396h-9.42v-9.396z"/><path fill="#727271" d="M49.127 166.986v9.396h-9.42v-9.396zm37.679-9.396v9.396h-9.42v-9.396zm-37.679 0v9.396h-9.42v-9.396zm47.099-9.396v9.396h-9.42v-9.396zm-18.84 0v9.396h-9.42v-9.396zm9.42-9.395v9.396h-9.42v-9.396z"/><path fill="#727271" d="M67.967 138.799v9.396h-9.42v-9.396zm37.678-9.396v9.396h-9.42v-9.396z"/><path fill="#727271" d="M96.226 129.403v9.396h-9.42v-9.396z"/><path fill="#727271" d="M105.645 120.007v9.396h-9.42v-9.396zm-28.259 0v9.396h-9.42v-9.396z"/><path fill="#727271" d="M67.967 120.007v9.396h-9.42v-9.396zm18.839-9.396v9.396h-9.42v-9.396zm349.951-17.674h-9.396v9.42h9.396z"/><path fill="#727271" d="M436.757 102.301h-9.396v9.42h9.396zm-340.444-1.338h-9.395v9.42h9.395z"/><path fill="#727271" d="M105.677 100.963h-9.396v9.42h9.396z"/><path fill="#727271" d="M96.313 91.6h-9.395v9.419h9.395v-9.42Z"/></svg>