<svg fill="#727271" xmlns="http://www.w3.org/2000/svg" width="300" height="300" viewBox="0 0 300 300"><path d="M48.74 58.12V10.71a5.1 5.1 0 0 1 5.1-5.1h48.28V.84H53.84A9.87 9.87 0 0 0 44 10.71v47.41ZM198 5.61h48.16a5.1 5.1 0 0 1 5.1 5.1v47.41H256V10.71a9.87 9.87 0 0 0-9.84-9.87H198ZM251.26 154v49a5.1 5.1 0 0 1-5.1 5.1H198v4.78h48.16A9.88 9.88 0 0 0 256 203v-49Zm-149.14 54.14H53.84a5.1 5.1 0 0 1-5.1-5.1V154H44v49a9.88 9.88 0 0 0 9.88 9.88h48.28Zm-26.31 72.73a2 2 0 0 0-2 2 2 2 0 1 0 2-2m-7.56-1.28h15.04v-19.96l-15.04-.15z"/><path d="M245.88 238.21h-71.69a2.3 2.3 0 0 1-1.66-.68l-21.07-21.07a2.4 2.4 0 0 0-3.34 0l-21.06 21.07a2.34 2.34 0 0 1-1.67.68H53.7a9.39 9.39 0 0 0-9.39 9.4v42.21a9.39 9.39 0 0 0 9.39 9.4H246a9.34 9.34 0 0 0 9.32-9.4v-42.21a9.4 9.4 0 0 0-9.44-9.4M85.64 265.76v17.38a3.12 3.12 0 0 1-3.1 3.1H69.16a3.12 3.12 0 0 1-3.1-3.1v-27.21a3.12 3.12 0 0 1 3.1-3.1h13.38a3.17 3.17 0 0 1 3.1 3.1Z"/><path d="M73.24 257.52h5.14a1.44 1.44 0 0 0 1.44-1.44 1.49 1.49 0 0 0-1.44-1.43h-5.06a1.44 1.44 0 1 0-.08 2.87"/></svg>