<svg xmlns="http://www.w3.org/2000/svg" width="300" height="300" viewBox="0 0 511 478"><path fill="#727271" d="M117.873 275.304h-5.694v6.834h5.694zm-5.694-7.972h5.694v-7.973h-5.694zm0-7.973h5.694v-7.972h-5.694zm0-23.916h5.694v-6.833h-5.694zm5.694-23.917h-5.694v6.834h5.694zm-5.694 0h5.694v-6.833h-5.694zm5.694-17.082v-5.695h-5.694v5.695zm0-15.945v-5.695h-5.694v5.695zm26.142-29.334v-5.695h-5.695v5.695zm15.45 0v-5.695h-5.695v5.695zM109.9 290.11v-5.695h-5.695v5.695zm0-22.778h-5.695v6.834h5.695zm-5.695 0h5.695v-6.833h-5.695zm5.695-25.055v-5.695h-5.695v5.695zm0-39.861v-5.695h-5.695v5.695zm0-15.945v-5.694h-5.695v5.694zm0-22.778h-5.695v6.834h5.695zm-5.695 0h5.695v-6.833h-5.695zM101.93 290.11v-5.695h-5.695v5.695zm0-15.944v-5.695h-5.695v5.695zm0-15.945v-5.695h-5.695v5.695zm0-15.944v-5.695h-5.695v5.695zm0-15.945v-5.694h-5.695v5.694zm0-15.944v-5.695h-5.695v5.695zm0-15.944v-5.695h-5.695v5.695zm0-15.945v-5.695h-5.695v5.695zm0-15.944v-5.695h-5.695v5.695zm-7.972 120.721h-5.695v6.834h5.695zm-5.695 0h5.695v-6.833h-5.695zm5.695-17.083V260.5h-5.695v5.694zm0-22.778h-5.695v6.834h5.695zm-5.695 0h5.695v-7.972h-5.695zm-.001-7.972h5.695v-6.833h-5.695zm5.695-47.833h-5.695v6.834h5.695zm-5.695 0h5.695v-7.973h-5.695zm0-7.973h5.695v-7.972h-5.695zm0-7.972h5.695v-6.833h-5.695zm-2.277 63.778H80.29v6.834h5.695zm-5.695 0h5.695v-6.833H80.29zm5.695-25.055v-5.695H80.29v5.695zm0-38.723H80.29v6.834h5.695zm-5.695 0h5.695v-6.833H80.29zm-2.278 86.556v-5.695h-5.694v5.695zm0-31.889v-5.694h-5.694v5.694zm0-23.916v-5.695h-5.694v5.695zm0-15.945v-5.694h-5.694v5.694zm-3.007-16.706v-5.695H69.31v5.695zm-10.66 89.594h5.695v-7.972h-5.695zm0-7.972h5.695v-7.972h-5.695zm0-7.972h5.695v-6.833h-5.695zm5.695-17.083v-5.694h-5.695v5.694zm0-38.722h-5.695v6.834h5.695zm-5.695 0h5.695v-6.833h-5.695zm-7.972 55.805h5.695v-7.972h-5.695zm0-7.972h5.695v-6.833h-5.695zm5.695-25.055v-5.695h-5.695v5.695zm0-30.75h-5.695v6.833h5.695zm-5.695 0h5.695v-6.834h-5.695zm-2.277 54.667v-5.695H48.4v5.695zm0-31.89v-5.694H48.4v5.695zm0-15.944v-5.694H48.4v5.694zm-13.667 41h5.695v-7.973h-5.695zm0-7.973h5.695v-6.833h-5.695zm5.695-17.082v-5.695h-5.695v5.695zm-24.68-13.081v-5.695H15.75v5.695zm13.39-6.18v-5.695H29.14v5.695zm11.29-11.49h-5.695v6.834h5.695zm-7.974 31.889h-5.693v6.834h5.694zm-5.693 0h5.694v-7.972h-5.694zm0-7.972h5.694v-6.833h-5.694zm-2.279 0h-5.694v6.834h5.695zm-5.694 0h5.695v-7.972h-5.695zm364.517 79.722h5.694v6.834h-5.694zm5.694-7.972h-5.694v-7.973h5.694zm0-7.973h-5.694v-7.972h5.694zm0-23.916h-5.694v-6.833h5.694zm-5.694-23.917h5.694v6.834h-5.694zm5.694 0h-5.694v-6.833h5.694zm-5.694-17.082v-5.695h5.694v5.695zm0-15.945v-5.695h5.694v5.695zm-26.141-29.334v-5.695h5.695v5.695zm-15.45 0v-5.695h5.695v5.695zm49.564 140.945v-5.695h5.693v5.695zm0-22.778h5.693v6.834h-5.693zm5.693 0h-5.693v-6.833h5.693zm-5.693-25.055v-5.695h5.693v5.695zm0-39.861v-5.695h5.693v5.695zm0-15.945v-5.694h5.693v5.694zm0-22.778h5.693v6.834h-5.693zm5.693 0h-5.693v-6.833h5.693zm2.279 126.417v-5.695h5.694v5.695zm0-15.944v-5.695h5.694v5.695zm0-15.945v-5.695h5.694v5.695zm0-15.944v-5.695h5.694v5.695zm0-15.945v-5.694h5.694v5.694zm0-15.944v-5.695h5.694v5.695zm0-15.944v-5.695h5.694v5.695zm0-15.945v-5.695h5.694v5.695zm0-15.944v-5.695h5.694v5.695zm7.972 120.721h5.694v6.834h-5.694zm5.694 0h-5.694v-6.833h5.694zm-5.694-17.083V260.5h5.694v5.694zm0-22.778h5.694v6.834h-5.694zm5.694 0h-5.694v-7.972h5.694zm0-7.972h-5.694v-6.833h5.694zm-5.694-47.833h5.694v6.834h-5.694zm5.694 0h-5.694v-7.973h5.694zm0-7.973h-5.694v-7.972h5.694zm0-7.972h-5.694v-6.833h5.694zm2.278 63.778h5.694v6.834h-5.694zm5.694 0h-5.694v-6.833h5.694zm-5.694-25.055v-5.695h5.694v5.695zm0-38.723h5.694v6.834h-5.694zm5.694 0h-5.694v-6.833h5.694zm2.278 86.556v-5.695h5.694v5.695zm0-31.889v-5.694h5.694v5.694zm0-23.916v-5.695h5.694v5.695zm0-15.945v-5.694h5.694v5.694zm3.008-16.706v-5.695h5.694v5.695zm10.658 89.594h-5.693v-7.972h5.693zm0-7.972h-5.693v-7.972h5.693zm0-7.972h-5.693v-6.833h5.693zm-5.693-17.083v-5.694h5.693v5.694zm0-38.722h5.693v6.834h-5.693zm5.693 0h-5.693v-6.833h5.693zm7.973 55.805h-5.694v-7.972h5.694zm0-7.972h-5.694v-6.833h5.694zm-5.694-25.055v-5.695h5.694v5.695zm0-30.75h5.694v6.833h-5.694zm5.694 0h-5.694v-6.834h5.694zm2.278 54.667v-5.695h5.694v5.695zm0-31.89v-5.694h5.694v5.695zm0-15.944v-5.694h5.694v5.694zm13.667 41h-5.695v-7.973h5.695zm0-7.973h-5.695v-6.833h5.695zm-5.695-17.082v-5.695h5.695v5.695zm24.679-13.081v-5.695h5.695v5.695zm-13.39-6.18v-5.695h5.694v5.695zm-11.289-11.49h5.695v6.834h-5.695zm7.972 31.889h5.695v6.834h-5.695zm5.695 0h-5.695v-7.972h5.695zm0-7.972h-5.695v-6.833h5.695zm2.278 0h5.694v6.834h-5.694zm5.694 0h-5.694v-7.972h5.694zm-370.211 210.8h5.694v-7.973h-5.694zm0-7.973h5.694v-7.972h-5.694zm0-23.916h5.694v-6.833h-5.694zm5.694-23.917h-5.694v6.834h5.694zm-5.694 0h5.694v-6.833h-5.694zm5.694-17.082v-5.695h-5.694v5.695zm0-15.945v-5.695h-5.694v5.695zm-7.972 111.611v-5.695h-5.695v5.695zm0-22.778h-5.695v6.834h5.695zm-5.695 0h5.695v-6.833h-5.695zm5.695-25.055v-5.695h-5.695v5.695zm0-39.861v-5.695h-5.695v5.695zm0-15.945v-5.694h-5.695v5.694zm0-22.778h-5.695v6.834h5.695zm-5.695 0h5.695v-6.833h-5.695zm-2.277-1.138v-5.695h-5.695v5.695zm292.376 104.777h-5.695v-7.973h5.695zm0-7.973h-5.695v-7.972h5.695zm0-23.916h-5.695v-6.833h5.695zm-5.695-23.917h5.695v6.834h-5.695zm5.695 0h-5.695v-6.833h5.695zm-5.695-17.082v-5.695h5.695v5.695zm0-15.945v-5.695h5.695v5.695zm7.972 111.611v-5.695h5.695v5.695zm0-22.778h5.695v6.834h-5.695zm5.695 0h-5.695v-6.833h5.695zm-5.695-25.055v-5.695h5.695v5.695zm0-39.861v-5.695h5.695v5.695zm0-15.945v-5.694h5.695v5.694zm0-22.778h5.695v6.834h-5.695zm5.695 0h-5.695v-6.833h5.695zm2.277-1.138v-5.695h5.695v5.695zm-204.92 132.87v-5.695h-5.694v5.695zm-7.6-7.746v-5.695h-5.695v5.695zm30.26-.494v-5.695H216.6v5.695zm9.27-2.06v-5.695h-5.694v5.695zM184.062 434.7v-5.694h-5.695v5.694zm-7.972 7.973v-5.695h-5.695v5.695zm-7.972-6.834h-5.695v6.834h5.695zm-5.695 0h5.695v-7.973h-5.695zm0-7.973h5.695v-7.972h-5.695zm-2.277-7.972h-5.695v6.834h5.695zm-7.973 30.75v-5.694h-5.694v5.695zm0-15.944v-5.694h-5.694v5.694zm-8.157.912h-5.695v6.834h5.695zm-5.695 0h5.695v-6.833h-5.695zm71.615-11.33h-5.695v6.834h5.695zm-5.695 0h5.695v-6.833h-5.695zm-68.012 3.584h-5.695v6.834h5.695zm-5.695 0h5.695v-6.833h-5.695zm-2.277 22.779v-5.695h-5.695v5.695zm0-15.945v-5.694h-5.695v5.694zm-7.972 15.945v-5.695h-5.695v5.695zm0-30.75h-5.695v6.833h5.695zm-7.973 31.888h-5.694v6.834h5.694zm-5.694 0h5.694v-7.972h-5.694zm0-7.972h5.694v-6.833h-5.694zm.318 14.838h-5.695v6.833h5.695zm26.235-3.358h5.695v-7.972h-5.695zm173.04-20.817v-5.695h5.694v5.695zm7.601-7.746v-5.695h5.694v5.695zm-30.261-.494v-5.695h5.695v5.695zm-10.3-2.06v-5.695h5.695v5.695zm48.534 10.526v-5.694h5.693v5.694zm7.972 7.973v-5.695h5.694v5.695zm7.972-6.834h5.694v6.834h-5.694zm5.694 0h-5.694v-7.973h5.694zm0-7.973h-5.694v-7.972h5.694zm2.278-7.972h5.694v6.834H345.7zm7.972 30.75v-5.694h5.694v5.695zm0-15.944v-5.694h5.694v5.694zm8.158.912h5.694v6.834h-5.694zm5.694 0h-5.694v-6.833h5.694zm-71.614-11.33h5.694v6.834h-5.694zm5.694 0h-5.694v-6.833h5.694zm68.013 3.584h5.694v6.834h-5.694zm5.694 0h-5.694v-6.833h5.694zm2.278 22.779v-5.695h5.694v5.695zm0-15.945v-5.694h5.694v5.694zm7.972 15.945v-5.695h5.694v5.695zm0-30.75h5.694v6.833h-5.694zm7.972 31.888h5.694v6.834h-5.694zm5.694 0h-5.694v-7.972h5.694zm0-7.972h-5.694v-6.833h5.694zm-.317 14.838h5.694v6.833h-5.694zm-26.236-3.358h-5.694v-7.972h5.694z"/><path fill="#fff" d="M120.81 151.71h265.74v265.74H120.81z"/><path fill="#fff" d="M120.81 151.71h265.74v265.74H120.81z"/><path fill="#727271" d="M169.103 131.934h5.693v-6.833h-5.693zm5.693 0h-5.693v7.972h5.693zm0 7.972h-5.693v6.833h5.693zm2.279-7.972h5.694v-6.833h-5.694zm5.694 0h-5.694v7.972h5.694zm0 7.972h-5.694v6.833h5.694zm7.972-39.86h-5.694v6.832h5.694zm-5.694 17.083v5.694h5.694v-5.694zm0 15.944v5.694h5.694v-5.694zm7.972-40.623v5.694h5.694V92.45zm0 31.512h5.694v-6.833h-5.694zm5.694 0h-5.694v7.972h5.694zm0 7.972h-5.694v6.833h5.694zm2.278-46.694v5.694h5.694V85.24zm0 15.944v5.694h5.694v-5.694zm13.666-33.028h-5.693v6.833h5.693zm-5.693 31.89h5.693v-6.834h-5.693zm5.693 0h-5.693v6.832h5.693zm-5.693 41v5.693h5.693v-5.694zm7.972-79.723v5.694h5.694v-5.694zm0 30.75h5.694V85.24h-5.694zm5.694 0h-5.694v6.833h5.694zm-5.694 39.861h5.694v-6.833h-5.694zm5.694 0h-5.694v6.833h5.694zm7.972-79.722h-5.694v7.972h5.694zm0 7.972h-5.694v6.833h5.694zm-5.694 31.889h5.694V85.24h-5.694zm5.694 0h-5.694v7.972h5.694zm0 7.972h-5.694v7.972h5.694zm0 7.972h-5.694v7.973h5.694zm0 7.973h-5.694v7.972h5.694zm0 7.972h-5.694v7.972h5.694zm0 7.972h-5.694v6.833h5.694zm7.972-95.666h-5.694v7.972h5.694zm0 7.972h-5.694v6.833h5.694zm-5.694 25.056v5.693h5.694v-5.693zm0 15.944v5.694h5.694V85.24zm0 22.777h5.694v-6.833h-5.694zm5.694 0h-5.694v6.833h5.694zm-5.694 23.917h5.694v-6.833h-5.694zm5.694 0h-5.694v7.972h5.694z"/><path fill="#727271" d="M238.574 139.906h-5.694v6.833h5.694zm7.972-111.61h-5.694v6.832h5.694zm-5.694 23.916h5.694v-6.833h-5.694zm5.694 0h-5.694v6.833h5.694zm-5.694 23.917h5.694v-6.833h-5.694zm5.694 0h-5.694v6.833h5.694zm-5.694 23.916h5.694v-6.833h-5.694zm5.694 0h-5.694v6.833h5.694zm-5.694 41v5.694h5.694v-5.694zM258.345 11.63h-5.695v6.833h5.695zm-9.52 24.638h5.693v-6.833h-5.693zm5.693 0h-5.693V43.1h5.693zm-5.693 55.805h5.693V85.24h-5.693zm5.693 0h-5.693v6.833h5.693zm-5.693 39.861h5.693v-6.833h-5.693zm5.693 0h-5.693v6.833h5.693zm4.312-103.171h5.695V21.93h-5.695zm8.785 4.497h-5.695v6.833h5.695zm-10.818 18.952h5.694v-6.833h-5.694zm5.694 0h-5.694v6.833h5.694zm-5.694 23.917h5.694v-6.833h-5.694zm5.694 0h-5.694v6.833h5.694zm-5.694 17.083v5.694h5.694v-5.694zm0 22.778h5.694v-6.833h-5.694zm5.694 0h-5.694v7.972h5.694zm0 7.972h-5.694v7.972h5.694zm0 7.972h-5.694v6.833h5.694zm2.278-39.861h5.694V85.24h-5.694zm5.694 0h-5.694v7.972h5.694zm0 7.972h-5.694v7.972h5.694zm0 7.972h-5.694v7.973h5.694zm0 7.973h-5.694v6.833h5.694zm-5.694 25.055v5.694h5.694v-5.694zm7.972-88.833h5.694v-6.833h-5.694zm5.694 0h-5.694v6.833h5.694zm-5.694 25.056v5.694h5.694v-5.694zm0 47.833v5.694h5.694V125.1zm0 15.944v5.694h5.694v-5.694zm7.972-84.872v5.694h5.694v-5.694zm0 51.844h5.694v-6.833h-5.694zm5.694 0h-5.694v6.833h5.694zm-5.694 25.056v5.694h5.694v-5.694zm13.682-66.853H288.7v6.833h5.695zM270.16 37.38v5.695h5.695V37.38zm18.526 39.888v5.694h5.693v-5.694zm0 31.889v5.693h5.693v-5.693zm0 15.944v5.694h5.693V125.1zm0 15.944v5.694h5.693v-5.694zm7.972-56.944h5.694v-6.833h-5.694zm5.694 0h-5.694v7.972h5.694zm0 7.972h-5.694v7.972h5.694zm0 7.972h-5.694v7.972h5.694zm0 7.972h-5.694v6.833h5.694zm-5.694 31.89h5.694v-6.834h-5.694zm5.694 0h-5.694v6.832h5.694zm2.278-23.917h5.694v-6.833h-5.694zm5.694 0h-5.694v6.833h5.694zm-5.694 23.916h5.694v-6.833h-5.694zm5.694 0h-5.694v6.833h5.694zm-2.872-46.694v5.694h5.694v-5.694zm5.15 22.778h5.694v-6.833h-5.694zm5.694 0h-5.694v6.833h5.694zm-5.694 17.083v5.694h5.694v-5.694zm7.972-17.083h5.694v-6.833h-5.694zm5.694 0h-5.694v7.972h5.694zm0 7.972h-5.694v7.972h5.694zm0 7.972h-5.694v7.972h5.694zm0 7.972h-5.694v6.833h5.694zm2.279 0h5.693v-6.833h-5.693zm5.693 0h-5.693v6.833h5.693zm2.279-6.833v5.694h5.694v-5.694zm6.771 10.397v5.695h5.695v-5.695zm12.36 0v5.695h5.695v-5.695z"/></svg>