<svg xmlns="http://www.w3.org/2000/svg" width="300" height="300" viewBox="0 0 562 590"><g transform="translate(12 -30)"><g fill="#727271" clip-path="url(#a)"><path d="M335.58 144.399a5.25 5.25 0 0 1-5.249-5.251 5.25 5.25 0 0 1 5.249-5.252 5.25 5.25 0 0 1 5.248 5.252 5.25 5.25 0 0 1-5.248 5.251"/><path d="M325.082 144.399a5.25 5.25 0 0 1-5.249-5.251 5.25 5.25 0 0 1 5.249-5.252 5.25 5.25 0 0 1 5.249 5.252 5.25 5.25 0 0 1-5.249 5.251m-94.476 0a5.25 5.25 0 0 1-5.249-5.251 5.25 5.25 0 0 1 5.249-5.252 5.25 5.25 0 0 1 5.248 5.252 5.25 5.25 0 0 1-5.248 5.251m-31.493-10.503a5.25 5.25 0 0 1-5.248-5.251 5.25 5.25 0 0 1 5.248-5.251 5.25 5.25 0 0 1 5.249 5.251 5.25 5.25 0 0 1-5.249 5.251m0 10.503a5.25 5.25 0 0 1-5.248-5.251 5.25 5.25 0 0 1 5.248-5.252 5.25 5.25 0 0 1 5.249 5.252 5.25 5.25 0 0 1-5.249 5.251"/><path d="M188.616 133.896a5.25 5.25 0 0 1-5.249-5.251 5.25 5.25 0 1 1 10.498 0 5.25 5.25 0 0 1-5.249 5.251m-10.498-10.502a5.25 5.25 0 0 1-5.248-5.251 5.25 5.25 0 0 1 5.248-5.251 5.25 5.25 0 0 1 5.249 5.251 5.25 5.25 0 0 1-5.249 5.251m0 21.005a5.25 5.25 0 0 1-5.248-5.251 5.25 5.25 0 0 1 5.248-5.252 5.25 5.25 0 0 1 5.249 5.252 5.25 5.25 0 0 1-5.249 5.251m-10.497-10.503a5.25 5.25 0 0 1-5.249-5.251 5.25 5.25 0 1 1 10.498 0 5.25 5.25 0 0 1-5.249 5.251m-10.497 10.503a5.25 5.25 0 0 1-5.249-5.251 5.25 5.25 0 0 1 5.249-5.252 5.25 5.25 0 0 1 5.248 5.252 5.25 5.25 0 0 1-5.248 5.251m-10.498-21.005a5.25 5.25 0 0 1-5.248-5.251 5.25 5.25 0 0 1 5.248-5.251 5.25 5.25 0 0 1 5.249 5.251 5.25 5.25 0 0 1-5.249 5.251"/><path d="M146.626 144.399a5.25 5.25 0 0 1-5.248-5.251 5.25 5.25 0 0 1 5.248-5.252 5.25 5.25 0 0 1 5.249 5.252 5.25 5.25 0 0 1-5.249 5.251m-10.497-10.503a5.25 5.25 0 0 1-5.249-5.251 5.25 5.25 0 1 1 10.497 0 5.25 5.25 0 0 1-5.248 5.251m-10.498-10.502a5.25 5.25 0 0 1-5.249-5.251 5.25 5.25 0 1 1 10.498 0 5.25 5.25 0 0 1-5.249 5.251"/><path d="M125.631 133.896a5.25 5.25 0 0 1-5.249-5.251 5.25 5.25 0 1 1 10.498 0 5.25 5.25 0 0 1-5.249 5.251"/></g><g fill="#727271" clip-path="url(#b)"><path d="M250.392 144.399a5.25 5.25 0 0 1-5.248-5.251 5.25 5.25 0 0 1 5.248-5.252 5.25 5.25 0 0 1 5.249 5.252 5.25 5.25 0 0 1-5.249 5.251"/><path d="M239.895 144.399a5.25 5.25 0 0 1-5.249-5.251 5.25 5.25 0 0 1 5.249-5.252 5.25 5.25 0 0 1 5.249 5.252 5.25 5.25 0 0 1-5.249 5.251m-94.477 0a5.25 5.25 0 0 1-5.248-5.251 5.25 5.25 0 0 1 5.248-5.252 5.25 5.25 0 0 1 5.249 5.252 5.25 5.25 0 0 1-5.249 5.251m-31.492-10.503a5.25 5.25 0 0 1-5.249-5.251 5.25 5.25 0 1 1 10.498 0 5.25 5.25 0 0 1-5.249 5.251m0 10.503a5.25 5.25 0 0 1-5.249-5.251 5.25 5.25 0 0 1 5.249-5.252 5.25 5.25 0 0 1 5.249 5.252 5.25 5.25 0 0 1-5.249 5.251"/><path d="M103.429 133.896a5.25 5.25 0 0 1-5.25-5.251 5.25 5.25 0 1 1 10.497 0 5.25 5.25 0 0 1-5.247 5.251m-10.498-10.502a5.25 5.25 0 0 1-5.248-5.251 5.25 5.25 0 1 1 10.497 0 5.25 5.25 0 0 1-5.249 5.251m0 21.005a5.25 5.25 0 0 1-5.248-5.251 5.25 5.25 0 0 1 5.248-5.252 5.25 5.25 0 0 1 5.249 5.252 5.25 5.25 0 0 1-5.249 5.251m-10.497-10.503a5.25 5.25 0 0 1-5.249-5.251 5.25 5.25 0 1 1 10.497 0 5.25 5.25 0 0 1-5.248 5.251m-10.498 10.503a5.25 5.25 0 0 1-5.248-5.251 5.25 5.25 0 0 1 5.248-5.252 5.25 5.25 0 0 1 5.25 5.252 5.25 5.25 0 0 1-5.25 5.251"/><path d="M61.439 144.399a5.25 5.25 0 0 1-5.249-5.251 5.25 5.25 0 0 1 5.249-5.252 5.25 5.25 0 0 1 5.249 5.252 5.25 5.25 0 0 1-5.249 5.251"/></g><g fill="#727271" clip-path="url(#c)"><path d="M472.407 144.399a5.25 5.25 0 0 1-5.248-5.251 5.25 5.25 0 0 1 5.248-5.252 5.25 5.25 0 0 1 5.249 5.252 5.25 5.25 0 0 1-5.249 5.251m-10.497-10.503a5.25 5.25 0 0 1-5.249-5.251 5.25 5.25 0 1 1 10.497 0 5.25 5.25 0 0 1-5.248 5.251"/><path d="M461.91 144.399a5.25 5.25 0 0 1-5.249-5.251 5.25 5.25 0 0 1 5.249-5.252 5.25 5.25 0 0 1 5.248 5.252 5.25 5.25 0 0 1-5.248 5.251m-10.498-10.503a5.25 5.25 0 0 1-5.248-5.251 5.25 5.25 0 0 1 5.248-5.251 5.25 5.25 0 0 1 5.249 5.251 5.25 5.25 0 0 1-5.249 5.251"/><path d="M451.412 144.399a5.25 5.25 0 0 1-5.248-5.251 5.25 5.25 0 0 1 5.248-5.252 5.25 5.25 0 0 1 5.249 5.252 5.25 5.25 0 0 1-5.249 5.251m-10.497-10.503a5.25 5.25 0 0 1-5.249-5.251 5.25 5.25 0 1 1 10.498 0 5.25 5.25 0 0 1-5.249 5.251m-20.995 0a5.25 5.25 0 0 1-5.248-5.251 5.25 5.25 0 1 1 10.497 0 5.25 5.25 0 0 1-5.249 5.251m0 10.503a5.25 5.25 0 0 1-5.248-5.251 5.25 5.25 0 0 1 5.248-5.252 5.25 5.25 0 0 1 5.249 5.252 5.25 5.25 0 0 1-5.249 5.251m-10.497-21.005a5.25 5.25 0 0 1-5.249-5.251 5.25 5.25 0 0 1 5.249-5.251 5.25 5.25 0 0 1 5.248 5.251 5.25 5.25 0 0 1-5.248 5.251"/><path d="M409.423 133.896a5.25 5.25 0 0 1-5.249-5.251 5.25 5.25 0 0 1 5.249-5.251 5.25 5.25 0 0 1 5.248 5.251 5.25 5.25 0 0 1-5.248 5.251m-10.498-10.502a5.25 5.25 0 0 1-5.248-5.251 5.25 5.25 0 0 1 5.248-5.251 5.25 5.25 0 0 1 5.249 5.251 5.25 5.25 0 0 1-5.249 5.251m0 21.005a5.25 5.25 0 0 1-5.248-5.251 5.25 5.25 0 0 1 5.248-5.252 5.25 5.25 0 0 1 5.249 5.252 5.25 5.25 0 0 1-5.249 5.251m-10.497-10.503a5.25 5.25 0 0 1-5.249-5.251 5.25 5.25 0 1 1 10.498 0 5.25 5.25 0 0 1-5.249 5.251m-10.498 10.503a5.25 5.25 0 0 1-5.248-5.251 5.25 5.25 0 0 1 5.248-5.252 5.25 5.25 0 0 1 5.249 5.252 5.25 5.25 0 0 1-5.249 5.251m-10.497-21.005a5.25 5.25 0 0 1-5.249-5.251 5.25 5.25 0 1 1 10.498 0 5.25 5.25 0 0 1-5.249 5.251"/><path d="M367.433 144.399a5.25 5.25 0 0 1-5.249-5.251 5.25 5.25 0 0 1 5.249-5.252 5.25 5.25 0 0 1 5.249 5.252 5.25 5.25 0 0 1-5.249 5.251m-10.497-10.503a5.25 5.25 0 0 1-5.249-5.251 5.25 5.25 0 0 1 5.249-5.251 5.25 5.25 0 0 1 5.248 5.251 5.25 5.25 0 0 1-5.248 5.251"/><path d="M346.438 133.896a5.25 5.25 0 0 1-5.248-5.251 5.25 5.25 0 0 1 5.248-5.251 5.25 5.25 0 0 1 5.249 5.251 5.25 5.25 0 0 1-5.249 5.251"/></g><g fill="#727271" clip-path="url(#d)"><path d="M335.578 508.218a5.25 5.25 0 0 0-5.249 5.251 5.25 5.25 0 1 0 10.498 0 5.25 5.25 0 0 0-5.249-5.251m0-21.005a5.25 5.25 0 0 0-5.249 5.251 5.25 5.25 0 1 0 10.498 0 5.25 5.25 0 0 0-5.249-5.251"/><path d="M335.578 476.71a5.25 5.25 0 0 0-5.249 5.252 5.25 5.25 0 1 0 10.498 0 5.25 5.25 0 0 0-5.249-5.252m0-21.005a5.25 5.25 0 0 0-5.249 5.252 5.25 5.25 0 1 0 10.498 0 5.25 5.25 0 0 0-5.249-5.252M325.08 518.72a5.25 5.25 0 0 0-5.248 5.251 5.25 5.25 0 0 0 5.248 5.251 5.25 5.25 0 0 0 5.249-5.251 5.25 5.25 0 0 0-5.249-5.251"/><path d="M325.08 476.71a5.25 5.25 0 0 0-5.248 5.252 5.25 5.25 0 0 0 5.248 5.251 5.25 5.25 0 0 0 5.249-5.251 5.25 5.25 0 0 0-5.249-5.252m0-21.005a5.25 5.25 0 0 0-5.248 5.252 5.25 5.25 0 0 0 5.248 5.251 5.25 5.25 0 0 0 5.249-5.251 5.25 5.25 0 0 0-5.249-5.252m-10.497 63.015a5.25 5.25 0 0 0-5.249 5.251 5.25 5.25 0 1 0 10.498 0 5.25 5.25 0 0 0-5.249-5.251"/><path d="M314.583 508.218a5.25 5.25 0 0 0-5.249 5.251 5.25 5.25 0 1 0 10.498 0 5.25 5.25 0 0 0-5.249-5.251m0-42.01a5.25 5.25 0 0 0-5.249 5.251 5.25 5.25 0 1 0 10.498 0 5.25 5.25 0 0 0-5.249-5.251m-10.497 63.014a5.25 5.25 0 0 0-5.249 5.252 5.25 5.25 0 1 0 10.497 0 5.25 5.25 0 0 0-5.248-5.252"/><path d="M304.086 518.72a5.25 5.25 0 0 0-5.249 5.251 5.25 5.25 0 1 0 10.497 0 5.25 5.25 0 0 0-5.248-5.251m0-21.005a5.25 5.25 0 0 0-5.249 5.252 5.25 5.25 0 1 0 10.497 0 5.25 5.25 0 0 0-5.248-5.252m0-21.005a5.25 5.25 0 0 0-5.249 5.252 5.25 5.25 0 1 0 10.497 0 5.25 5.25 0 0 0-5.248-5.252"/><path d="M304.086 466.208a5.25 5.25 0 0 0-5.249 5.251 5.25 5.25 0 1 0 10.497 0 5.25 5.25 0 0 0-5.248-5.251m-31.698 83.631a5.25 5.25 0 0 0-5.248 5.251 5.25 5.25 0 1 0 10.497 0 5.25 5.25 0 0 0-5.249-5.251m21.2-31.119a5.25 5.25 0 0 0-5.248 5.251 5.25 5.25 0 1 0 10.497 0 5.25 5.25 0 0 0-5.249-5.251"/><path d="M293.588 508.218a5.25 5.25 0 0 0-5.248 5.251 5.25 5.25 0 1 0 10.497 0 5.25 5.25 0 0 0-5.249-5.251m-10.497 31.507a5.25 5.25 0 0 0-5.249 5.251 5.25 5.25 0 1 0 10.498 0 5.25 5.25 0 0 0-5.249-5.251"/><path d="M283.091 529.222a5.25 5.25 0 0 0-5.249 5.252 5.25 5.25 0 1 0 10.498 0 5.25 5.25 0 0 0-5.249-5.252m0-21.004a5.25 5.25 0 0 0-5.249 5.251 5.25 5.25 0 1 0 10.498 0 5.25 5.25 0 0 0-5.249-5.251m0-21.005a5.25 5.25 0 0 0-5.249 5.251 5.25 5.25 0 1 0 10.498 0 5.25 5.25 0 0 0-5.249-5.251m0-21.005a5.25 5.25 0 0 0-5.249 5.251 5.25 5.25 0 1 0 10.498 0 5.25 5.25 0 0 0-5.249-5.251m-10.498 73.517a5.25 5.25 0 0 0-5.248 5.251 5.25 5.25 0 0 0 5.248 5.251 5.25 5.25 0 0 0 5.249-5.251 5.25 5.25 0 0 0-5.249-5.251m0-84.02a5.25 5.25 0 0 0-5.248 5.252 5.25 5.25 0 0 0 5.248 5.251 5.25 5.25 0 0 0 5.249-5.251 5.25 5.25 0 0 0-5.249-5.252"/><path d="M262.096 539.725a5.25 5.25 0 0 0-5.249 5.251 5.25 5.25 0 1 0 10.498 0 5.25 5.25 0 0 0-5.249-5.251"/><path d="M262.096 529.222a5.25 5.25 0 0 0-5.249 5.252 5.25 5.25 0 1 0 10.498 0 5.25 5.25 0 0 0-5.249-5.252"/><path d="M262.096 518.72a5.25 5.25 0 0 0-5.249 5.251 5.25 5.25 0 1 0 10.498 0 5.25 5.25 0 0 0-5.249-5.251"/><path d="M262.096 508.218a5.25 5.25 0 0 0-5.249 5.251 5.25 5.25 0 1 0 10.498 0 5.25 5.25 0 0 0-5.249-5.251m-10.498 21.004a5.25 5.25 0 0 0-5.248 5.252 5.25 5.25 0 0 0 5.248 5.251 5.25 5.25 0 0 0 5.249-5.251 5.25 5.25 0 0 0-5.249-5.252m0-31.507a5.25 5.25 0 0 0-5.248 5.252 5.25 5.25 0 0 0 5.248 5.251 5.25 5.25 0 0 0 5.249-5.251 5.25 5.25 0 0 0-5.249-5.252m0-31.507a5.25 5.25 0 0 0-5.248 5.251 5.25 5.25 0 0 0 5.248 5.251 5.25 5.25 0 0 0 5.249-5.251 5.25 5.25 0 0 0-5.249-5.251m0-10.503a5.25 5.25 0 0 0-5.248 5.252 5.25 5.25 0 0 0 5.248 5.251 5.25 5.25 0 0 0 5.249-5.251 5.25 5.25 0 0 0-5.249-5.252"/><path d="M241.101 529.222a5.25 5.25 0 0 0-5.249 5.252 5.25 5.25 0 1 0 10.498 0 5.25 5.25 0 0 0-5.249-5.252m0-21.004a5.25 5.25 0 0 0-5.249 5.251 5.25 5.25 0 1 0 10.498 0 5.25 5.25 0 0 0-5.249-5.251m0-21.005a5.25 5.25 0 0 0-5.249 5.251 5.25 5.25 0 1 0 10.498 0 5.25 5.25 0 0 0-5.249-5.251m0-21.005a5.25 5.25 0 0 0-5.249 5.251 5.25 5.25 0 1 0 10.498 0 5.25 5.25 0 0 0-5.249-5.251"/><path d="M241.101 455.705a5.25 5.25 0 0 0-5.249 5.252 5.25 5.25 0 1 0 10.498 0 5.25 5.25 0 0 0-5.249-5.252m-10.497 52.513a5.25 5.25 0 0 0-5.249 5.251 5.25 5.25 0 1 0 10.498 0 5.25 5.25 0 0 0-5.249-5.251"/><path d="M230.604 497.715a5.25 5.25 0 0 0-5.249 5.252 5.25 5.25 0 1 0 10.498 0 5.25 5.25 0 0 0-5.249-5.252m0-21.005a5.25 5.25 0 0 0-5.249 5.252 5.25 5.25 0 1 0 10.498 0 5.25 5.25 0 0 0-5.249-5.252"/><path d="M230.604 466.208a5.25 5.25 0 0 0-5.249 5.251 5.25 5.25 0 1 0 10.498 0 5.25 5.25 0 0 0-5.249-5.251"/><path d="M230.604 455.705a5.25 5.25 0 0 0-5.249 5.252 5.25 5.25 0 1 0 10.498 0 5.25 5.25 0 0 0-5.249-5.252m-10.498 31.508a5.25 5.25 0 0 0-5.248 5.251 5.25 5.25 0 1 0 10.497 0 5.25 5.25 0 0 0-5.249-5.251m0-21.005a5.25 5.25 0 0 0-5.248 5.251 5.25 5.25 0 1 0 10.497 0 5.25 5.25 0 0 0-5.249-5.251m-10.497 42.01a5.25 5.25 0 0 0-5.249 5.251 5.25 5.25 0 1 0 10.498 0 5.25 5.25 0 0 0-5.249-5.251"/><path d="M209.609 497.715a5.25 5.25 0 0 0-5.249 5.252 5.25 5.25 0 1 0 10.498 0 5.25 5.25 0 0 0-5.249-5.252m0-21.005a5.25 5.25 0 0 0-5.249 5.252 5.25 5.25 0 1 0 10.498 0 5.25 5.25 0 0 0-5.249-5.252"/><path d="M199.112 497.715a5.25 5.25 0 0 0-5.249 5.252 5.25 5.25 0 0 0 5.249 5.251 5.25 5.25 0 0 0 5.248-5.251 5.25 5.25 0 0 0-5.248-5.252m0-31.507a5.25 5.25 0 0 0-5.249 5.251 5.25 5.25 0 0 0 5.249 5.251 5.25 5.25 0 0 0 5.248-5.251 5.25 5.25 0 0 0-5.248-5.251m0-10.503a5.25 5.25 0 0 0-5.249 5.252 5.25 5.25 0 0 0 5.249 5.251 5.25 5.25 0 0 0 5.248-5.251 5.25 5.25 0 0 0-5.248-5.252m-10.498 31.508a5.25 5.25 0 0 0-5.249 5.251 5.25 5.25 0 1 0 10.498 0 5.25 5.25 0 0 0-5.249-5.251"/><path d="M188.614 476.71a5.25 5.25 0 0 0-5.249 5.252 5.25 5.25 0 1 0 10.498 0 5.25 5.25 0 0 0-5.249-5.252"/><path d="M188.614 466.208a5.25 5.25 0 0 0-5.249 5.251 5.25 5.25 0 1 0 10.498 0 5.25 5.25 0 0 0-5.249-5.251m-10.497 10.502a5.25 5.25 0 0 0-5.249 5.252 5.25 5.25 0 0 0 5.249 5.251 5.25 5.25 0 0 0 5.248-5.251 5.25 5.25 0 0 0-5.248-5.252m0-21.005a5.25 5.25 0 0 0-5.249 5.252 5.25 5.25 0 0 0 5.249 5.251 5.25 5.25 0 0 0 5.248-5.251 5.25 5.25 0 0 0-5.248-5.252m-10.498 10.503a5.25 5.25 0 0 0-5.248 5.251 5.25 5.25 0 1 0 10.497 0 5.25 5.25 0 0 0-5.249-5.251m-10.497-10.503a5.25 5.25 0 0 0-5.249 5.252 5.25 5.25 0 1 0 10.498 0 5.25 5.25 0 0 0-5.249-5.252"/><path d="M146.624 455.705a5.25 5.25 0 0 0-5.248 5.252 5.25 5.25 0 0 0 5.248 5.251 5.25 5.25 0 0 0 5.249-5.251 5.25 5.25 0 0 0-5.249-5.252"/></g><g fill="#727271" clip-path="url(#e)"><path d="M398.936 455.705a5.25 5.25 0 0 0-5.249 5.252 5.25 5.25 0 1 0 10.498 0 5.25 5.25 0 0 0-5.249-5.252m-10.498 10.503a5.25 5.25 0 0 0-5.248 5.251 5.25 5.25 0 0 0 5.248 5.251 5.25 5.25 0 0 0 5.249-5.251 5.25 5.25 0 0 0-5.249-5.251m-10.497-10.503a5.25 5.25 0 0 0-5.249 5.252 5.25 5.25 0 1 0 10.498 0 5.25 5.25 0 0 0-5.249-5.252m-10.497 31.508a5.25 5.25 0 0 0-5.249 5.251 5.25 5.25 0 0 0 5.249 5.251 5.25 5.25 0 0 0 5.248-5.251 5.25 5.25 0 0 0-5.248-5.251m0-10.503a5.25 5.25 0 0 0-5.249 5.252 5.25 5.25 0 0 0 5.249 5.251 5.25 5.25 0 0 0 5.248-5.251 5.25 5.25 0 0 0-5.248-5.252"/><path d="M367.444 455.705a5.25 5.25 0 0 0-5.249 5.252 5.25 5.25 0 0 0 5.249 5.251 5.25 5.25 0 0 0 5.248-5.251 5.25 5.25 0 0 0-5.248-5.252m-10.498 10.503a5.25 5.25 0 0 0-5.249 5.251 5.25 5.25 0 1 0 10.498 0 5.25 5.25 0 0 0-5.249-5.251m-10.497 31.507a5.25 5.25 0 0 0-5.249 5.251 5.25 5.25 0 0 0 5.249 5.252 5.25 5.25 0 0 0 5.248-5.252 5.25 5.25 0 0 0-5.248-5.251m0-21.005a5.25 5.25 0 0 0-5.249 5.252 5.25 5.25 0 0 0 5.249 5.251 5.25 5.25 0 0 0 5.248-5.251 5.25 5.25 0 0 0-5.248-5.252"/><path d="M346.449 466.208a5.25 5.25 0 0 0-5.249 5.251 5.25 5.25 0 0 0 5.249 5.251 5.25 5.25 0 0 0 5.248-5.251 5.25 5.25 0 0 0-5.248-5.251"/></g><g fill="#727271" clip-path="url(#f)"><path d="M477.01 364.112a5.25 5.25 0 0 1 5.248-5.251 5.25 5.25 0 0 1 5.249 5.251 5.25 5.25 0 0 1-5.249 5.251 5.25 5.25 0 0 1-5.248-5.251m-20.995 0a5.25 5.25 0 0 1 5.249-5.251 5.25 5.25 0 0 1 5.248 5.251 5.25 5.25 0 0 1-5.248 5.251 5.25 5.25 0 0 1-5.249-5.251"/><path d="M445.517 364.112a5.25 5.25 0 1 1 10.498 0 5.25 5.25 0 1 1-10.498 0m-20.994 0a5.25 5.25 0 0 1 5.248-5.251 5.25 5.25 0 0 1 5.249 5.251 5.25 5.25 0 0 1-5.249 5.251 5.25 5.25 0 0 1-5.248-5.251m62.984-10.502a5.25 5.25 0 0 1 5.249-5.252 5.25 5.25 0 0 1 5.248 5.252 5.25 5.25 0 0 1-5.248 5.251 5.25 5.25 0 0 1-5.249-5.251"/><path d="M445.517 353.61a5.25 5.25 0 1 1 10.498 0 5.25 5.25 0 1 1-10.498 0m-20.994 0a5.25 5.25 0 0 1 5.248-5.252 5.25 5.25 0 0 1 5.249 5.252 5.25 5.25 0 0 1-5.249 5.251 5.25 5.25 0 0 1-5.248-5.251m62.984-10.503a5.25 5.25 0 0 1 5.249-5.251 5.25 5.25 0 0 1 5.248 5.251 5.25 5.25 0 0 1-5.248 5.251 5.25 5.25 0 0 1-5.249-5.251"/><path d="M477.01 343.107a5.25 5.25 0 0 1 5.248-5.251 5.25 5.25 0 0 1 5.249 5.251 5.25 5.25 0 0 1-5.249 5.251 5.25 5.25 0 0 1-5.248-5.251m-41.99 0a5.25 5.25 0 0 1 5.249-5.251 5.25 5.25 0 0 1 5.248 5.251 5.25 5.25 0 0 1-5.248 5.251 5.25 5.25 0 0 1-5.249-5.251m62.985-10.502a5.25 5.25 0 1 1 10.497 0 5.25 5.25 0 1 1-10.497 0"/><path d="M487.507 332.605a5.25 5.25 0 0 1 5.249-5.251 5.25 5.25 0 0 1 5.248 5.251 5.25 5.25 0 0 1-5.248 5.251 5.25 5.25 0 0 1-5.249-5.251m-20.995 0a5.25 5.25 0 1 1 10.498 0 5.25 5.25 0 1 1-10.498 0m-20.995 0a5.25 5.25 0 1 1 10.498 0 5.25 5.25 0 1 1-10.498 0"/><path d="M435.02 332.605a5.25 5.25 0 0 1 5.249-5.251 5.25 5.25 0 0 1 5.248 5.251 5.25 5.25 0 0 1-5.248 5.251 5.25 5.25 0 0 1-5.249-5.251m73.482-10.503a5.25 5.25 0 0 1 5.249-5.251 5.25 5.25 0 0 1 5.248 5.251 5.25 5.25 0 0 1-5.248 5.252 5.25 5.25 0 0 1-5.249-5.252m-20.995 0a5.25 5.25 0 0 1 5.249-5.251 5.25 5.25 0 0 1 5.248 5.251 5.25 5.25 0 0 1-5.248 5.252 5.25 5.25 0 0 1-5.249-5.252"/><path d="M477.01 322.102a5.25 5.25 0 0 1 5.248-5.251 5.25 5.25 0 0 1 5.249 5.251 5.25 5.25 0 0 1-5.249 5.252 5.25 5.25 0 0 1-5.248-5.252m31.492-10.502a5.25 5.25 0 0 1 5.249-5.251 5.25 5.25 0 0 1 5.248 5.251 5.25 5.25 0 0 1-5.248 5.251 5.25 5.25 0 0 1-5.249-5.251"/><path d="M498.005 311.6a5.25 5.25 0 1 1 10.497 0 5.25 5.25 0 1 1-10.497 0m-20.995 0a5.25 5.25 0 0 1 5.248-5.251 5.25 5.25 0 0 1 5.249 5.251 5.25 5.25 0 0 1-5.249 5.251 5.25 5.25 0 0 1-5.248-5.251m-20.995 0a5.25 5.25 0 0 1 5.249-5.251 5.25 5.25 0 0 1 5.248 5.251 5.25 5.25 0 0 1-5.248 5.251 5.25 5.25 0 0 1-5.249-5.251m-20.995 0a5.25 5.25 0 0 1 5.249-5.251 5.25 5.25 0 0 1 5.248 5.251 5.25 5.25 0 0 1-5.248 5.251 5.25 5.25 0 0 1-5.249-5.251m73.482-10.502a5.25 5.25 0 0 1 5.249-5.252 5.25 5.25 0 0 1 5.248 5.252 5.25 5.25 0 0 1-5.248 5.251 5.25 5.25 0 0 1-5.249-5.251m-83.979 0a5.25 5.25 0 0 1 5.248-5.252 5.25 5.25 0 0 1 5.249 5.252 5.25 5.25 0 0 1-5.249 5.251 5.25 5.25 0 0 1-5.248-5.251m94.476-10.503a5.25 5.25 0 1 1 10.498 0 5.25 5.25 0 1 1-10.498 0"/><path d="M508.502 290.595a5.25 5.25 0 0 1 5.249-5.251 5.25 5.25 0 0 1 5.248 5.251 5.25 5.25 0 0 1-5.248 5.251 5.25 5.25 0 0 1-5.249-5.251"/><path d="M498.005 290.595a5.25 5.25 0 1 1 10.497 0 5.25 5.25 0 1 1-10.497 0"/><path d="M487.507 290.595a5.25 5.25 0 0 1 5.249-5.251 5.25 5.25 0 0 1 5.248 5.251 5.25 5.25 0 0 1-5.248 5.251 5.25 5.25 0 0 1-5.249-5.251"/><path d="M477.01 290.595a5.25 5.25 0 0 1 5.248-5.251 5.25 5.25 0 0 1 5.249 5.251 5.25 5.25 0 0 1-5.249 5.251 5.25 5.25 0 0 1-5.248-5.251m-20.544.711a5.25 5.25 0 1 1 10.498 0 5.25 5.25 0 1 1-10.498 0m52.036-11.213a5.25 5.25 0 0 1 5.249-5.251 5.25 5.25 0 0 1 5.248 5.251 5.25 5.25 0 0 1-5.248 5.251 5.25 5.25 0 0 1-5.249-5.251"/><path d="M498.005 280.093a5.25 5.25 0 1 1 10.497 0 5.25 5.25 0 1 1-10.497 0m-31.493 0a5.25 5.25 0 1 1 10.498 0 5.25 5.25 0 1 1-10.498 0m-31.492 0a5.25 5.25 0 0 1 5.249-5.251 5.25 5.25 0 0 1 5.248 5.251 5.25 5.25 0 0 1-5.248 5.251 5.25 5.25 0 0 1-5.249-5.251"/><path d="M424.523 280.093a5.25 5.25 0 0 1 5.248-5.251 5.25 5.25 0 0 1 5.249 5.251 5.25 5.25 0 0 1-5.249 5.251 5.25 5.25 0 0 1-5.248-5.251m73.482-10.503a5.25 5.25 0 1 1 10.497 0 5.25 5.25 0 1 1-10.497 0m-20.995 0a5.25 5.25 0 0 1 5.248-5.251 5.25 5.25 0 0 1 5.249 5.251 5.25 5.25 0 0 1-5.249 5.252 5.25 5.25 0 0 1-5.248-5.252m-20.995 0a5.25 5.25 0 0 1 5.249-5.251 5.25 5.25 0 0 1 5.248 5.251 5.25 5.25 0 0 1-5.248 5.252 5.25 5.25 0 0 1-5.249-5.252m-20.995 0a5.25 5.25 0 0 1 5.249-5.251 5.25 5.25 0 0 1 5.248 5.251 5.25 5.25 0 0 1-5.248 5.252 5.25 5.25 0 0 1-5.249-5.252"/><path d="M424.523 269.59a5.25 5.25 0 0 1 5.248-5.251 5.25 5.25 0 0 1 5.249 5.251 5.25 5.25 0 0 1-5.249 5.252 5.25 5.25 0 0 1-5.248-5.252m104.974-10.502a5.25 5.25 0 0 1 5.248-5.251 5.25 5.25 0 0 1 5.249 5.251 5.25 5.25 0 0 1-5.249 5.251 5.25 5.25 0 0 1-5.248-5.251m-31.492 0a5.25 5.25 0 1 1 10.497 0 5.25 5.25 0 1 1-10.497 0m-20.995 0a5.25 5.25 0 0 1 5.248-5.251 5.25 5.25 0 0 1 5.249 5.251 5.25 5.25 0 0 1-5.249 5.251 5.25 5.25 0 0 1-5.248-5.251"/><path d="M466.512 259.088a5.25 5.25 0 1 1 10.498 0 5.25 5.25 0 1 1-10.498 0m-20.995 0a5.25 5.25 0 1 1 10.498 0 5.25 5.25 0 1 1-10.498 0"/><path d="M435.02 259.088a5.25 5.25 0 0 1 5.249-5.251 5.25 5.25 0 0 1 5.248 5.251 5.25 5.25 0 0 1-5.248 5.251 5.25 5.25 0 0 1-5.249-5.251"/><path d="M424.523 259.088a5.25 5.25 0 0 1 5.248-5.251 5.25 5.25 0 0 1 5.249 5.251 5.25 5.25 0 0 1-5.249 5.251 5.25 5.25 0 0 1-5.248-5.251m83.979-10.503a5.25 5.25 0 0 1 5.249-5.251 5.25 5.25 0 0 1 5.248 5.251 5.25 5.25 0 0 1-5.248 5.252 5.25 5.25 0 0 1-5.249-5.252m-52.487 0a5.25 5.25 0 0 1 5.249-5.251 5.25 5.25 0 0 1 5.248 5.251 5.25 5.25 0 0 1-5.248 5.252 5.25 5.25 0 0 1-5.249-5.252m-20.995 0a5.25 5.25 0 0 1 5.249-5.251 5.25 5.25 0 0 1 5.248 5.251 5.25 5.25 0 0 1-5.248 5.252 5.25 5.25 0 0 1-5.249-5.252m94.477-10.502a5.25 5.25 0 0 1 5.248-5.251 5.25 5.25 0 0 1 5.249 5.251 5.25 5.25 0 0 1-5.249 5.251 5.25 5.25 0 0 1-5.248-5.251m-20.995 0a5.25 5.25 0 0 1 5.249-5.251 5.25 5.25 0 0 1 5.248 5.251 5.25 5.25 0 0 1-5.248 5.251 5.25 5.25 0 0 1-5.249-5.251"/><path d="M498.005 238.083a5.25 5.25 0 1 1 10.497 0 5.25 5.25 0 1 1-10.497 0"/><path d="M487.507 238.083a5.25 5.25 0 0 1 5.249-5.251 5.25 5.25 0 0 1 5.248 5.251 5.25 5.25 0 0 1-5.248 5.251 5.25 5.25 0 0 1-5.249-5.251"/><path d="M487.507 227.471a5.25 5.25 0 1 1 10.498 0 5.25 5.25 0 1 1-10.498 0m-10.497 10.612a5.25 5.25 0 0 1 5.248-5.251 5.25 5.25 0 0 1 5.249 5.251 5.25 5.25 0 0 1-5.249 5.251 5.25 5.25 0 0 1-5.248-5.251"/><path d="M466.512 238.083a5.25 5.25 0 1 1 10.498 0 5.25 5.25 0 1 1-10.498 0m-20.995 0a5.25 5.25 0 1 1 10.498 0 5.25 5.25 0 1 1-10.498 0m62.985-10.502a5.25 5.25 0 0 1 5.249-5.251 5.25 5.25 0 0 1 5.248 5.251 5.25 5.25 0 0 1-5.248 5.251 5.25 5.25 0 0 1-5.249-5.251"/><path d="M466.512 227.581a5.25 5.25 0 1 1 10.498 0 5.25 5.25 0 1 1-10.498 0m-31.492 0a5.25 5.25 0 0 1 5.249-5.251 5.25 5.25 0 0 1 5.248 5.251 5.25 5.25 0 0 1-5.248 5.251 5.25 5.25 0 0 1-5.249-5.251"/><path d="M424.523 227.581a5.25 5.25 0 0 1 5.248-5.251 5.25 5.25 0 0 1 5.249 5.251 5.25 5.25 0 0 1-5.249 5.251 5.25 5.25 0 0 1-5.248-5.251m104.974-10.503a5.25 5.25 0 0 1 5.248-5.251 5.25 5.25 0 0 1 5.249 5.251 5.25 5.25 0 0 1-5.249 5.251 5.25 5.25 0 0 1-5.248-5.251m-20.995 0a5.25 5.25 0 0 1 5.249-5.251 5.25 5.25 0 0 1 5.248 5.251 5.25 5.25 0 0 1-5.248 5.251 5.25 5.25 0 0 1-5.249-5.251m-20.995 0a5.25 5.25 0 0 1 5.249-5.251 5.25 5.25 0 0 1 5.248 5.251 5.25 5.25 0 0 1-5.248 5.251 5.25 5.25 0 0 1-5.249-5.251m-20.995 0a5.25 5.25 0 1 1 10.498 0 5.25 5.25 0 1 1-10.498 0"/><path d="M456.015 217.078a5.25 5.25 0 0 1 5.249-5.251 5.25 5.25 0 0 1 5.248 5.251 5.25 5.25 0 0 1-5.248 5.251 5.25 5.25 0 0 1-5.249-5.251"/><path d="M445.517 217.078a5.25 5.25 0 1 1 10.498 0 5.25 5.25 0 1 1-10.498 0"/><path d="M435.02 217.078a5.25 5.25 0 0 1 5.249-5.251 5.25 5.25 0 0 1 5.248 5.251 5.25 5.25 0 0 1-5.248 5.251 5.25 5.25 0 0 1-5.249-5.251m83.533 54.419a5.25 5.25 0 1 1 10.498 0 5.25 5.25 0 1 1-10.498 0m-10.051-64.921a5.25 5.25 0 0 1 5.249-5.251 5.25 5.25 0 0 1 5.248 5.251 5.25 5.25 0 0 1-5.248 5.251 5.25 5.25 0 0 1-5.249-5.251m-41.99 0a5.25 5.25 0 1 1 10.498 0 5.25 5.25 0 1 1-10.498 0m-20.995 0a5.25 5.25 0 1 1 10.498 0 5.25 5.25 0 1 1-10.498 0m-20.994 0a5.25 5.25 0 0 1 5.248-5.251 5.25 5.25 0 0 1 5.249 5.251 5.25 5.25 0 0 1-5.249 5.251 5.25 5.25 0 0 1-5.248-5.251"/><path d="M518.553 260.994a5.25 5.25 0 1 1 10.498 0 5.25 5.25 0 1 1-10.498 0m-10.051-64.92a5.25 5.25 0 0 1 5.249-5.252 5.25 5.25 0 0 1 5.248 5.252 5.25 5.25 0 0 1-5.248 5.251 5.25 5.25 0 0 1-5.249-5.251m-20.995 0a5.25 5.25 0 0 1 5.249-5.252 5.25 5.25 0 0 1 5.248 5.252 5.25 5.25 0 0 1-5.248 5.251 5.25 5.25 0 0 1-5.249-5.251"/><path d="M477.01 196.074a5.25 5.25 0 0 1 5.248-5.252 5.25 5.25 0 0 1 5.249 5.252 5.25 5.25 0 0 1-5.249 5.251 5.25 5.25 0 0 1-5.248-5.251"/><path d="M466.512 196.074a5.25 5.25 0 1 1 10.498 0 5.25 5.25 0 1 1-10.498 0"/><path d="M456.015 196.074a5.25 5.25 0 0 1 5.249-5.252 5.25 5.25 0 0 1 5.248 5.252 5.25 5.25 0 0 1-5.248 5.251 5.25 5.25 0 0 1-5.249-5.251m-20.995 0a5.25 5.25 0 0 1 5.249-5.252 5.25 5.25 0 0 1 5.248 5.252 5.25 5.25 0 0 1-5.248 5.251 5.25 5.25 0 0 1-5.249-5.251m73.482-10.503a5.25 5.25 0 0 1 5.249-5.251 5.25 5.25 0 0 1 5.248 5.251 5.25 5.25 0 0 1-5.248 5.251 5.25 5.25 0 0 1-5.249-5.251"/><path d="M498.005 185.571a5.25 5.25 0 1 1 10.497 0 5.25 5.25 0 1 1-10.497 0m-31.493 0a5.25 5.25 0 1 1 10.498 0 5.25 5.25 0 1 1-10.498 0"/><path d="M456.015 185.571a5.25 5.25 0 0 1 5.249-5.251 5.25 5.25 0 0 1 5.248 5.251 5.25 5.25 0 0 1-5.248 5.251 5.25 5.25 0 0 1-5.249-5.251m-31.492 0a5.25 5.25 0 0 1 5.248-5.251 5.25 5.25 0 0 1 5.249 5.251 5.25 5.25 0 0 1-5.249 5.251 5.25 5.25 0 0 1-5.248-5.251m41.989-10.502a5.25 5.25 0 0 1 5.249-5.252 5.25 5.25 0 0 1 5.249 5.252 5.25 5.25 0 1 1-10.498 0"/><path d="M456.015 175.069a5.25 5.25 0 0 1 5.249-5.252 5.25 5.25 0 0 1 5.248 5.252 5.25 5.25 0 0 1-5.248 5.251 5.25 5.25 0 0 1-5.249-5.251"/><path d="M445.517 175.069a5.25 5.25 0 0 1 5.249-5.252 5.25 5.25 0 0 1 5.249 5.252 5.25 5.25 0 1 1-10.498 0m-20.994 0a5.25 5.25 0 0 1 5.248-5.252 5.25 5.25 0 0 1 5.249 5.252 5.25 5.25 0 0 1-5.249 5.251 5.25 5.25 0 0 1-5.248-5.251m62.984-10.503a5.25 5.25 0 0 1 5.249-5.251 5.25 5.25 0 0 1 5.248 5.251 5.25 5.25 0 0 1-5.248 5.251 5.25 5.25 0 0 1-5.249-5.251"/><path d="M477.01 164.566a5.25 5.25 0 0 1 5.248-5.251 5.25 5.25 0 0 1 5.249 5.251 5.25 5.25 0 0 1-5.249 5.251 5.25 5.25 0 0 1-5.248-5.251m-41.99 0a5.25 5.25 0 0 1 5.249-5.251 5.25 5.25 0 0 1 5.248 5.251 5.25 5.25 0 0 1-5.248 5.251 5.25 5.25 0 0 1-5.249-5.251m31.492-10.502a5.25 5.25 0 1 1 10.498 0 5.25 5.25 0 1 1-10.498 0m-20.995 0a5.25 5.25 0 1 1 10.498 0 5.25 5.25 0 1 1-10.498 0"/><path d="M435.02 154.064a5.25 5.25 0 0 1 5.249-5.251 5.25 5.25 0 0 1 5.248 5.251 5.25 5.25 0 0 1-5.248 5.251 5.25 5.25 0 0 1-5.249-5.251"/></g><g fill="#727271" clip-path="url(#g)"><path d="M424.52 427.498a5.25 5.25 0 1 1 10.498 0 5.25 5.25 0 1 1-10.498 0m10.498-10.503a5.25 5.25 0 0 1 5.249-5.251 5.25 5.25 0 0 1 5.248 5.251 5.25 5.25 0 0 1-5.248 5.252 5.25 5.25 0 0 1-5.249-5.252m-10.498-10.502a5.25 5.25 0 1 1 10.498 0 5.25 5.25 0 1 1-10.498 0m31.493-10.502a5.25 5.25 0 0 1 5.249-5.252 5.25 5.25 0 0 1 5.248 5.252 5.25 5.25 0 0 1-5.248 5.251 5.25 5.25 0 0 1-5.249-5.251"/><path d="M445.516 395.991a5.25 5.25 0 1 1 10.497 0 5.25 5.25 0 1 1-10.497 0m-20.996 0a5.25 5.25 0 1 1 10.498 0 5.25 5.25 0 1 1-10.498 0m10.498-10.503a5.25 5.25 0 0 1 5.249-5.251 5.25 5.25 0 0 1 5.248 5.251 5.25 5.25 0 0 1-5.248 5.251 5.25 5.25 0 0 1-5.249-5.251m31.492-10.502a5.25 5.25 0 1 1 10.498 0 5.25 5.25 0 1 1-10.498 0m-20.994 0a5.25 5.25 0 1 1 10.497 0 5.25 5.25 0 1 1-10.497 0"/><path d="M435.018 374.986a5.25 5.25 0 0 1 5.249-5.251 5.25 5.25 0 0 1 5.248 5.251 5.25 5.25 0 0 1-5.248 5.251 5.25 5.25 0 0 1-5.249-5.251"/></g><g fill="#727271" clip-path="url(#h)"><path d="M66.65 364.118a5.25 5.25 0 1 0-10.498 0 5.25 5.25 0 1 0 10.498 0m20.994 0a5.25 5.25 0 1 0-10.497 0 5.25 5.25 0 1 0 10.497 0"/><path d="M98.142 364.118a5.25 5.25 0 1 0-10.498 0 5.25 5.25 0 1 0 10.498 0m20.995 0a5.25 5.25 0 1 0-10.498 0 5.25 5.25 0 1 0 10.498 0m-62.985-10.502a5.25 5.25 0 0 0-5.248-5.252 5.25 5.25 0 0 0-5.25 5.252 5.25 5.25 0 1 0 10.498 0"/><path d="M98.142 353.616a5.25 5.25 0 0 0-5.249-5.252 5.25 5.25 0 0 0-5.249 5.252 5.25 5.25 0 1 0 10.498 0m20.995 0a5.25 5.25 0 0 0-5.249-5.252 5.25 5.25 0 0 0-5.249 5.252 5.25 5.25 0 1 0 10.498 0m-62.985-10.503a5.25 5.25 0 1 0-10.497 0 5.25 5.25 0 0 0 5.248 5.252 5.25 5.25 0 0 0 5.25-5.252Z"/><path d="M66.65 343.113a5.25 5.25 0 1 0-10.498 0 5.25 5.25 0 0 0 5.249 5.252 5.25 5.25 0 0 0 5.248-5.252Zm41.989 0a5.25 5.25 0 1 0-10.497 0 5.25 5.25 0 0 0 5.249 5.252 5.25 5.25 0 0 0 5.248-5.252m-62.984-10.502a5.25 5.25 0 1 0-10.498 0 5.25 5.25 0 1 0 10.498 0"/><path d="M56.152 332.611a5.25 5.25 0 1 0-10.497 0 5.25 5.25 0 1 0 10.497 0m20.995 0a5.25 5.25 0 1 0-10.498 0 5.25 5.25 0 1 0 10.498 0m20.995 0a5.25 5.25 0 1 0-10.498 0 5.25 5.25 0 1 0 10.498 0"/><path d="M108.639 332.611a5.25 5.25 0 1 0-10.497 0 5.25 5.25 0 1 0 10.497 0m-73.482-10.503a5.25 5.25 0 1 0-10.497 0 5.25 5.25 0 0 0 5.249 5.252 5.25 5.25 0 0 0 5.248-5.252m20.995 0a5.25 5.25 0 1 0-10.497 0 5.25 5.25 0 0 0 5.248 5.252 5.25 5.25 0 0 0 5.25-5.252Z"/><path d="M66.65 322.108a5.25 5.25 0 1 0-10.498 0 5.25 5.25 0 0 0 5.249 5.252 5.25 5.25 0 0 0 5.248-5.252Zm-31.493-10.502a5.25 5.25 0 1 0-10.497 0 5.25 5.25 0 1 0 10.497 0"/><path d="M45.655 311.606a5.25 5.25 0 1 0-10.498 0 5.25 5.25 0 1 0 10.498 0m20.995 0a5.25 5.25 0 1 0-10.498 0 5.25 5.25 0 1 0 10.498 0m20.994 0a5.25 5.25 0 1 0-10.497 0 5.25 5.25 0 1 0 10.497 0m20.995 0a5.25 5.25 0 1 0-10.497 0 5.25 5.25 0 1 0 10.497 0m-73.482-10.502a5.25 5.25 0 0 0-5.248-5.252 5.25 5.25 0 0 0-5.25 5.252 5.25 5.25 0 1 0 10.498 0m83.98 0a5.25 5.25 0 1 0-10.498 0 5.25 5.25 0 1 0 10.498 0M24.66 290.601a5.25 5.25 0 1 0-10.497 0 5.25 5.25 0 1 0 10.497 0"/><path d="M35.157 290.601a5.25 5.25 0 1 0-10.497 0 5.25 5.25 0 1 0 10.497 0"/><path d="M45.655 290.601a5.25 5.25 0 1 0-10.498 0 5.25 5.25 0 1 0 10.498 0"/><path d="M56.152 290.601a5.25 5.25 0 1 0-10.497 0 5.25 5.25 0 1 0 10.497 0"/><path d="M66.65 290.601a5.25 5.25 0 1 0-10.498 0 5.25 5.25 0 1 0 10.498 0m20.543.711a5.25 5.25 0 1 0-10.498 0 5.25 5.25 0 1 0 10.498 0m-52.036-11.213a5.25 5.25 0 1 0-10.497 0 5.25 5.25 0 1 0 10.497 0"/><path d="M45.655 280.099a5.25 5.25 0 1 0-10.498 0 5.25 5.25 0 1 0 10.498 0m31.492 0a5.25 5.25 0 1 0-10.498 0 5.25 5.25 0 1 0 10.498 0m31.492 0a5.25 5.25 0 1 0-10.497 0 5.25 5.25 0 1 0 10.497 0"/><path d="M119.137 280.099a5.25 5.25 0 1 0-10.498 0 5.25 5.25 0 1 0 10.498 0m-73.482-10.503a5.25 5.25 0 1 0-10.498 0 5.25 5.25 0 0 0 5.249 5.252 5.25 5.25 0 0 0 5.249-5.252m20.995 0a5.25 5.25 0 1 0-10.498 0 5.25 5.25 0 0 0 5.249 5.252 5.25 5.25 0 0 0 5.248-5.252Zm20.994 0a5.25 5.25 0 1 0-10.497 0 5.25 5.25 0 0 0 5.249 5.252 5.25 5.25 0 0 0 5.248-5.252m20.995 0a5.25 5.25 0 1 0-10.497 0 5.25 5.25 0 0 0 5.249 5.252 5.25 5.25 0 0 0 5.248-5.252"/><path d="M119.137 269.596a5.25 5.25 0 1 0-10.498 0 5.25 5.25 0 1 0 10.498 0M14.162 259.094a5.25 5.25 0 1 0-10.497 0 5.25 5.25 0 1 0 10.497 0m31.493 0a5.25 5.25 0 1 0-10.498 0 5.25 5.25 0 1 0 10.498 0m20.995 0a5.25 5.25 0 1 0-10.498 0 5.25 5.25 0 1 0 10.498 0"/><path d="M77.147 259.094a5.25 5.25 0 1 0-10.498 0 5.25 5.25 0 1 0 10.498 0m20.995 0a5.25 5.25 0 1 0-10.498 0 5.25 5.25 0 1 0 10.498 0"/><path d="M108.639 259.094a5.25 5.25 0 1 0-10.497 0 5.25 5.25 0 1 0 10.497 0"/><path d="M119.137 259.094a5.25 5.25 0 1 0-10.498 0 5.25 5.25 0 1 0 10.498 0m-83.98-10.502a5.25 5.25 0 0 0-5.248-5.252 5.25 5.25 0 0 0-5.25 5.252 5.25 5.25 0 1 0 10.498 0m52.487 0a5.25 5.25 0 0 0-5.248-5.252 5.25 5.25 0 0 0-5.249 5.252 5.25 5.25 0 1 0 10.497 0m20.995 0a5.25 5.25 0 0 0-5.248-5.252 5.25 5.25 0 0 0-5.25 5.252 5.25 5.25 0 1 0 10.497 0Zm-94.477-10.503a5.25 5.25 0 1 0-10.497 0 5.25 5.25 0 1 0 10.497 0"/><path d="M35.157 238.089a5.25 5.25 0 1 0-10.497 0 5.25 5.25 0 1 0 10.497 0"/><path d="M45.655 238.089a5.25 5.25 0 1 0-10.498 0 5.25 5.25 0 1 0 10.498 0"/><path d="M56.152 238.089a5.25 5.25 0 1 0-10.497 0 5.25 5.25 0 1 0 10.497 0"/><path d="M56.152 227.477a5.25 5.25 0 1 0-10.497 0 5.25 5.25 0 0 0 5.248 5.252 5.25 5.25 0 0 0 5.25-5.252Zm10.498 10.612a5.25 5.25 0 1 0-10.498 0 5.25 5.25 0 1 0 10.498 0"/><path d="M77.147 238.089a5.25 5.25 0 1 0-10.498 0 5.25 5.25 0 1 0 10.498 0m20.995 0a5.25 5.25 0 1 0-10.498 0 5.25 5.25 0 1 0 10.498 0m-62.985-10.502a5.25 5.25 0 1 0-10.497 0 5.25 5.25 0 1 0 10.497 0"/><path d="M77.147 227.587a5.25 5.25 0 1 0-10.498 0 5.25 5.25 0 1 0 10.498 0m31.492 0a5.25 5.25 0 1 0-10.497 0 5.25 5.25 0 1 0 10.497 0"/><path d="M119.137 227.587a5.25 5.25 0 1 0-10.498 0 5.25 5.25 0 1 0 10.498 0m-83.98-10.503a5.25 5.25 0 1 0-10.497 0 5.25 5.25 0 0 0 5.249 5.252 5.25 5.25 0 0 0 5.248-5.252m20.995 0a5.25 5.25 0 1 0-10.497 0 5.25 5.25 0 0 0 5.248 5.252 5.25 5.25 0 0 0 5.25-5.252Zm20.995 0a5.25 5.25 0 1 0-10.498 0 5.25 5.25 0 0 0 5.25 5.252 5.25 5.25 0 0 0 5.248-5.252"/><path d="M87.644 217.084a5.25 5.25 0 1 0-10.497 0 5.25 5.25 0 0 0 5.249 5.252 5.25 5.25 0 0 0 5.248-5.252"/><path d="M98.142 217.084a5.25 5.25 0 1 0-10.498 0 5.25 5.25 0 0 0 5.25 5.252 5.25 5.25 0 0 0 5.248-5.252"/><path d="M108.639 217.084a5.25 5.25 0 1 0-10.497 0 5.25 5.25 0 0 0 5.249 5.252 5.25 5.25 0 0 0 5.248-5.252m-73.482-10.502a5.25 5.25 0 1 0-10.497 0 5.25 5.25 0 1 0 10.497 0m41.99 0a5.25 5.25 0 1 0-10.498 0 5.25 5.25 0 1 0 10.498 0m20.995 0a5.25 5.25 0 1 0-10.498 0 5.25 5.25 0 1 0 10.498 0m20.995 0a5.25 5.25 0 1 0-10.498 0 5.25 5.25 0 1 0 10.498 0"/><path d="M35.157 196.08a5.25 5.25 0 0 0-5.248-5.252 5.25 5.25 0 0 0-5.25 5.252 5.25 5.25 0 1 0 10.498 0m20.995 0a5.25 5.25 0 0 0-5.248-5.252 5.25 5.25 0 0 0-5.25 5.252 5.25 5.25 0 1 0 10.498 0"/><path d="M66.65 196.08a5.25 5.25 0 0 0-5.25-5.252 5.25 5.25 0 0 0-5.248 5.252 5.25 5.25 0 1 0 10.498 0"/><path d="M77.147 196.08a5.25 5.25 0 0 0-5.249-5.252 5.25 5.25 0 0 0-5.249 5.252 5.25 5.25 0 1 0 10.498 0"/><path d="M87.644 196.08a5.25 5.25 0 0 0-5.248-5.252 5.25 5.25 0 0 0-5.249 5.252 5.25 5.25 0 1 0 10.497 0m20.995 0a5.25 5.25 0 0 0-5.248-5.252 5.25 5.25 0 0 0-5.25 5.252 5.25 5.25 0 1 0 10.497 0Zm-73.482-10.503a5.25 5.25 0 1 0-10.497 0 5.25 5.25 0 1 0 10.497 0m-20.634 32.786a5.25 5.25 0 1 0-10.497 0 5.25 5.25 0 1 0 10.497 0"/><path d="M14.523 207.861a5.25 5.25 0 0 0-5.248-5.252 5.25 5.25 0 0 0-5.25 5.252 5.25 5.25 0 1 0 10.498 0m31.132-22.284a5.25 5.25 0 1 0-10.498 0 5.25 5.25 0 1 0 10.498 0m31.492 0a5.25 5.25 0 1 0-10.498 0 5.25 5.25 0 1 0 10.498 0"/><path d="M87.644 185.577a5.25 5.25 0 1 0-10.497 0 5.25 5.25 0 1 0 10.497 0m31.493 0a5.25 5.25 0 1 0-10.498 0 5.25 5.25 0 1 0 10.498 0m-41.99-10.502a5.25 5.25 0 1 0-10.498 0 5.25 5.25 0 1 0 10.498 0"/><path d="M87.644 175.075a5.25 5.25 0 1 0-10.497 0 5.25 5.25 0 1 0 10.497 0"/><path d="M98.142 175.075a5.25 5.25 0 1 0-10.498 0 5.25 5.25 0 1 0 10.498 0m20.995 0a5.25 5.25 0 1 0-10.498 0 5.25 5.25 0 1 0 10.498 0m-62.985-10.503a5.25 5.25 0 1 0-10.497 0 5.25 5.25 0 1 0 10.497 0"/><path d="M66.65 164.572a5.25 5.25 0 1 0-10.498 0 5.25 5.25 0 1 0 10.498 0m41.989 0a5.25 5.25 0 1 0-10.497 0 5.25 5.25 0 1 0 10.497 0M77.147 154.07a5.25 5.25 0 1 0-10.498 0 5.25 5.25 0 1 0 10.498 0m20.995 0a5.25 5.25 0 1 0-10.498 0 5.25 5.25 0 1 0 10.498 0"/><path d="M108.639 154.07a5.25 5.25 0 1 0-10.497 0 5.25 5.25 0 1 0 10.497 0m-57.55 4.903a5.25 5.25 0 0 1-5.249-5.252 5.25 5.25 0 1 1 10.498 0 5.25 5.25 0 0 1-5.25 5.252Zm-20.994 10.503a5.25 5.25 0 0 1-5.249-5.251 5.25 5.25 0 0 1 5.249-5.252 5.25 5.25 0 0 1 5.248 5.252 5.25 5.25 0 0 1-5.248 5.251"/></g><g fill="#727271" clip-path="url(#i)"><path d="M119.137 427.49a5.25 5.25 0 1 0-10.498 0 5.25 5.25 0 1 0 10.498 0m-10.498-10.502a5.25 5.25 0 1 0-10.497 0 5.25 5.25 0 1 0 10.497 0m10.498-10.502a5.25 5.25 0 1 0-10.498 0 5.25 5.25 0 1 0 10.498 0m-31.493-10.503a5.25 5.25 0 1 0-10.497 0 5.25 5.25 0 1 0 10.497 0"/><path d="M98.142 395.983a5.25 5.25 0 1 0-10.498 0 5.25 5.25 0 1 0 10.498 0m20.995 0a5.25 5.25 0 1 0-10.498 0 5.25 5.25 0 1 0 10.498 0m-10.498-10.502a5.25 5.25 0 1 0-10.497 0 5.25 5.25 0 1 0 10.497 0m-31.492-10.503a5.25 5.25 0 1 0-10.498 0 5.25 5.25 0 0 0 5.25 5.252 5.25 5.25 0 0 0 5.248-5.252m20.995 0a5.25 5.25 0 1 0-10.498 0 5.25 5.25 0 0 0 5.25 5.252 5.25 5.25 0 0 0 5.248-5.252"/><path d="M108.639 374.978a5.25 5.25 0 1 0-10.497 0 5.25 5.25 0 0 0 5.249 5.252 5.25 5.25 0 0 0 5.248-5.252"/></g><defs><clipPath id="a"><path fill="#727271" d="M119.955.507h220.812v149.529H119.955z"/></clipPath><clipPath id="b"><path fill="#727271" d="M34.768.507H255.58v149.529H34.768z"/></clipPath><clipPath id="c"><path fill="#727271" d="M341.726.507h178.385v149.529H341.726z"/></clipPath><clipPath id="d"><path fill="#727271" d="M115.132 588.664h225.633V450.068H115.132z"/></clipPath><clipPath id="e"><path fill="#727271" d="M340.773 588.664H478.66V450.068H340.773z"/></clipPath><clipPath id="f"><path fill="#727271" d="M561.998 143.386v225.955H419.183V143.386z"/></clipPath><clipPath id="g"><path fill="#727271" d="M558.674 364.282v89.636H418.886v-89.636z"/></clipPath><clipPath id="h"><path fill="#727271" d="M0 143.567v225.741h124.771V143.567z"/></clipPath><clipPath id="i"><path fill="#727271" d="M0 364.193v225.741h124.771V364.193z"/></clipPath></defs></g></svg>