<svg fill="#727271" xmlns="http://www.w3.org/2000/svg" width="300" height="300" viewBox="0 0 300 300"><path d="M71.6 252.26h5.84a1.63 1.63 0 0 0 1.63-1.63 1.69 1.69 0 0 0-1.63-1.63h-5.75a1.65 1.65 0 0 0-1.69 1.63 1.62 1.62 0 0 0 1.6 1.63m2.92 26.52a2.31 2.31 0 0 0-2.32 2.31 2.32 2.32 0 1 0 2.32-2.31m-8.58-1.46h17.07v-22.66l-17.07-.17z"/><path d="M258 1.51H42.1a11.9 11.9 0 0 0-11.84 11.75v273.89A11.78 11.78 0 0 0 42 298.91h216a11.77 11.77 0 0 0 11.75-11.76V13.26A11.77 11.77 0 0 0 258 1.51M85.67 261.61v19.74a3.54 3.54 0 0 1-3.51 3.52H67a3.53 3.53 0 0 1-3.52-3.52v-30.89a3.54 3.54 0 0 1 3.52-3.52h15.16a3.59 3.59 0 0 1 3.51 3.52Zm175.06-36a6.33 6.33 0 0 1-6.35 6.35H45.7a6.34 6.34 0 0 1-6.35-6.35V16.86a6.35 6.35 0 0 1 6.35-6.35h208.68a6.34 6.34 0 0 1 6.35 6.35Z"/></svg>