<svg fill="#727271" xmlns="http://www.w3.org/2000/svg" width="300" height="300" viewBox="0 0 300 300"><path d="M249 91.43H61.37a10.22 10.22 0 0 0-10.21 10.21v187.59a10.22 10.22 0 0 0 10.21 10.21h187.52a10.33 10.33 0 0 0 10.28-10.21V101.64A10.22 10.22 0 0 0 249 91.43m2.31 194.67a5.5 5.5 0 0 1-5.51 5.52H64.5a5.51 5.51 0 0 1-5.5-5.52V104.77a5.51 5.51 0 0 1 5.52-5.52h181.24a5.5 5.5 0 0 1 5.51 5.52ZM60.47 60.42H190l14 21.47a2.35 2.35 0 0 0 3.28 0l14-21.47h28.25a9.24 9.24 0 0 0 9.24-9.24V9.67a9.24 9.24 0 0 0-9.21-9.25H60.47a9.2 9.2 0 0 0-9.24 9.25v41.51a9.24 9.24 0 0 0 9.24 9.24"/></svg>