<svg fill="#727271" xmlns="http://www.w3.org/2000/svg" width="300" height="300" viewBox="0 0 300 300"><path d="M73.57 175.23c.12-2.06.31-4.19.49-6.25s.48-4.13.85-6.13.79-4 1.27-5.95a30 30 0 0 1 1.94-5.28c.06-.18.13-.43.19-.67a3.55 3.55 0 0 0-2.8-4.19l-.18-.06a2 2 0 0 0-.54-.06c-.19 0-.31-.06-.49-.06s-.61-.06-.91-.06c-.61 0-1.21.06-1.82.06-1.21.12-2.37.25-3.52.43a62 62 0 0 0-6.8 1.45 59 59 0 0 0-6.43 2.31c-1 .42-2.07 1-3.1 1.4s-2 1.09-3 1.57a.76.76 0 0 0 .54 1.4h.07c1.09-.24 2.12-.55 3.15-.79s2.13-.48 3.16-.61A46 46 0 0 1 62 153c1.34-.06 2.73-.06 4.07-.06a62.6 62.6 0 0 0-7.23 10.43 85.6 85.6 0 0 0-6.55 15.36 107.9 107.9 0 0 0-5 32.53 104 104 0 0 0 5 32.29 90.5 90.5 0 0 0 15.54 28.52.94.94 0 0 0 1.27.19.89.89 0 0 0 .18-1.28 87.2 87.2 0 0 1-13.89-28.28A102.85 102.85 0 0 1 58 180.87a82 82 0 0 1 6.68-14 51.6 51.6 0 0 1 5.71-7.76c0 1.21 0 2.36.06 3.58.12 2.18.24 4.31.48 6.43s.49 4.25.85 6.37a1 1 0 0 0 .91.85 1.37 1.37 0 0 0 .88-1.11"/></svg>