<svg fill="none" xmlns="http://www.w3.org/2000/svg" width="300" height="300" viewBox="0 0 300 300"><g transform="translate(13 13)"><circle cx="6.066" cy="17.194" r="6.066" fill="#3CB8B4"/><circle cx="24.264" cy="16.183" r="16.176" fill="#7A6FF7"/><circle cx="10.616" cy="27.81" r="9.605" fill="#FB6FBB"/><circle cx="54.089" cy="11.634" r="7.583" fill="#FFC444"/><circle cx="40.44" cy="7.084" r="5.055" fill="#B150D2"/><circle cx="7.077" cy="44.492" r="5.055" fill="#7A6FF7"/><circle cx="9.099" cy="47.525" r="3.033" fill="#E38DDD"/><circle cx="269.938" cy="257.813" r="6.066" transform="rotate(-180 269.938 257.813)" fill="#FFC444"/><circle cx="251.74" cy="258.824" r="16.176" transform="rotate(-180 251.74 258.824)" fill="#7A6FF7"/><circle cx="265.388" cy="247.197" r="9.605" transform="rotate(-180 265.388 247.197)" fill="#B150D2"/><circle cx="221.915" cy="263.373" r="7.583" transform="rotate(-180 221.915 263.373)" fill="#3CB8B4"/><circle cx="235.564" cy="267.923" r="5.055" transform="rotate(-180 235.564 267.923)" fill="#FB6FBB"/><circle cx="268.927" cy="230.516" r="5.055" transform="rotate(-180 268.927 230.516)" fill="#7A6FF7"/><circle cx="266.905" cy="227.483" r="3.033" transform="rotate(-180 266.905 227.483)" fill="#E38DDD"/><circle r="6.066" transform="matrix(-1 0 0 1 269.938 17.194)" fill="#3CB8B4"/><circle r="16.176" transform="matrix(-1 0 0 1 251.74 16.183)" fill="#7A6FF7"/><circle r="9.605" transform="matrix(-1 0 0 1 265.388 27.81)" fill="#FFC444"/><circle r="7.583" transform="matrix(-1 0 0 1 221.915 11.634)" fill="#FB6FBB"/><circle r="5.055" transform="matrix(-1 0 0 1 235.564 7.084)" fill="#B150D2"/><circle r="5.055" transform="matrix(-1 0 0 1 268.927 44.492)" fill="#7A6FF7"/><circle r="3.033" transform="matrix(-1 0 0 1 266.905 47.525)" fill="#3CB8B4"/><circle r="6.066" transform="matrix(1 0 0 -1 6.066 257.813)" fill="#FFC444"/><circle r="16.176" transform="matrix(1 0 0 -1 24.264 258.824)" fill="#7A6FF7"/><circle r="9.605" transform="matrix(1 0 0 -1 10.616 247.197)" fill="#3CB8B4"/><circle r="7.583" transform="matrix(1 0 0 -1 54.089 263.373)" fill="#FB6FBB"/><circle r="5.055" transform="matrix(1 0 0 -1 40.44 267.923)" fill="#B150D2"/><circle r="5.055" transform="matrix(1 0 0 -1 7.077 230.516)" fill="#7A6FF7"/><circle r="3.033" transform="matrix(1 0 0 -1 9.099 227.483)" fill="#B150D2"/></g></svg>