<svg xmlns="http://www.w3.org/2000/svg" width="300" height="300" viewBox="0 0 531 531"><rect width="521" height="521" x="5" y="5" stroke="#727271" stroke-width="10" rx="260.5" fill="none"/><path fill="#727271" d="M506 228.634h5.529V222H506zm5.529 0H506v6.635h5.529zm-78.3-107.894H427.7v7.74h5.529zm0 7.74H427.7v6.634h5.529zm-5.529 30.96h5.529v-6.634H427.7zm28.829-58.7H451v7.74h5.529zm-23.3 74.18H427.7v7.74h5.529zm0 7.74H427.7v7.74h5.529zm23.3-58.7H451v7.74h5.529zm-23.3 74.18H427.7v6.634h5.529zm7.74-85.14h-5.529v6.634h5.529zm.12-25h-5.529v7.74h5.529zm0 7.74h-5.529v7.74h5.529zM425.529 108H420v6.634h5.529zm9.911 29.326v5.528h5.529v-5.528zm0 15.48v5.528h5.529v-5.528zm0 22.114h5.529v-6.634h-5.529zm5.529 0h-5.529v6.634h5.529zm-5.529 23.22h5.529v-6.634h-5.529zm5.529 0h-5.529v7.74h5.529zm0 7.74h-5.529v6.634h5.529zm2.211-85.14h5.528v-6.634h-5.528zm5.528 0h-5.528v6.634h5.528zm-5.528 23.22h5.528v-6.634h-5.528zm5.528 0h-5.528v6.634h5.528zm0 23.22h-5.528v6.634h5.528zm-5.528 39.806v5.528h5.528v-5.528zm7.74-47.546h5.528v-6.634h-5.528zm5.528 0h-5.528v6.634h5.528zm-5.528 38.7h5.529v-6.634h-5.529zm5.528 0h-5.528v6.634h5.528zm2.212-77.4h5.528v-6.634h-5.528zm5.528 0h-5.528v6.634h5.528zm-5.528 23.22h5.528v-6.634h-5.528zm5.528 0h-5.528v6.634h5.528zm-5.528 16.586v5.528h5.528v-5.528zm0 22.114h5.528v-6.634h-5.528zm5.528 0h-5.528v7.74h5.528zm0 15.48h-5.528v6.634h5.528zm7.74-38.7H466.4v7.74h5.528zm0 15.48H466.4v7.74h5.528zm0 7.74H466.4v6.634h5.528zm-5.528 24.326v5.528h5.528v-5.528zm7.74-61.92v5.528h5.528v-5.528zm0 46.44v5.528h5.528v-5.528zm0 15.48v5.528h5.528v-5.528zm7.74-32.066h5.528v-6.634h-5.528zm5.528 0h-5.528v6.634h5.528zm-5.528 24.326v5.528h5.528v-5.528zm7.74-23.22v5.528h5.528v-5.528zM484 155v5.529h5.529V155zm-13-26v5.529h5.529V129zm18.62 62.506v5.528h5.528v-5.528zm0 15.48v5.528h5.528v-5.528zm13.268-32.066h-5.528v6.634h5.528zm-5.528 30.96h5.528v-6.634h-5.528zm5.528 0h-5.528v6.634h5.528zm2.212 0h5.528v-6.634H505.1zm5.528 0H505.1v6.634h5.528zm-77.399 12.6H427.7v6.634h5.529zm-5.529 30.96h5.529v-6.634H427.7zM456.529 183H451v7.74h5.529zm-23.3 81.92H427.7v7.74h5.529zm0 7.74H427.7v7.74h5.529zm0 15.48H427.7v6.634h5.529zm2.211-60.814v5.528h5.529v-5.528zm0 15.48v5.528h5.529v-5.528zm0 22.114h5.529v-6.634h-5.529zm5.529 0h-5.529v6.634h5.529zm-5.529 23.22h5.529v-6.634h-5.529zm5.529 0h-5.529v7.74h5.529zm2.211-54.18h5.528v-6.634h-5.528z"/><path fill="#727271" d="M448.708 233.96h-5.528v6.634h5.528zm-5.528 23.22h5.528v-6.634h-5.528zm5.528 0h-5.528v6.634h5.528zm-5.528 39.806v5.528h5.528v-5.528zm7.74-47.546h5.528v-6.634h-5.528zm5.528 0h-5.528v6.634h5.528zm-5.528 38.7h5.529v-6.634h-5.529zm5.528 0h-5.528v6.634h5.528zm2.212-77.4h5.528v-6.634h-5.528zm0 23.22h5.528v-6.634h-5.528zm5.528 0h-5.528v6.634h5.528zm-5.528 16.586v5.528h5.528v-5.528zm5.528 22.114h-5.528v7.74h5.528zm0 15.48h-5.528v6.634h5.528zm2.212-38.7h5.528v-6.634H466.4zm5.528 15.48H466.4v7.74h5.528zm-5.528 32.066v5.528h5.528v-5.528zm7.74-61.92v5.528h5.528v-5.528zm0 46.44v5.528h5.528v-5.528zm0 15.48v5.528h5.528v-5.528zm7.74-82.4v5.528h5.529v-5.528zm0 50.334h5.528v-6.634h-5.528zm5.528 0h-5.528v6.634h5.528zm-5.528 24.326v5.528h5.528v-5.528zM491.529 225H486v6.634h5.529zm-1.909 10.066v5.528h5.528v-5.528zm0 30.96v5.528h5.528v-5.528zm0 15.48v5.528h5.528v-5.528zm0 15.48v5.528h5.528v-5.528zm13.268-55.286h-5.528v7.74h5.528zm0 7.74h-5.528v7.74h5.528zm0 7.74h-5.528v7.74h5.528zm0 7.74h-5.528v6.634h5.528zm-5.528 30.96h5.528v-6.634h-5.528zm5.528 0h-5.528v6.634h5.528zm2.212-23.22h5.528v-6.634H505.1zm5.528 0H505.1v6.634h5.528zM508 252.854h5.529v-6.634H508zM453 216v5.529h5.529V216zm52.1 79.88h5.528v-6.634H505.1zm5.528 0H505.1v6.634h5.528zm2.212-6.634v5.528h5.528v-5.528zm-79.611 115.528H427.7v-7.74h5.529zm0-7.74H427.7V390.4h5.529zm-5.529-30.96h5.529v6.634H427.7zm28.829 58.7H451v-7.74h5.529zm-23.3-74.18H427.7v-7.74h5.529zm0-7.74H427.7v-7.74h5.529zm23.3 58.7H451v-7.74h5.529zm-23.3-74.18H427.7v-6.634h5.529zm7.74 85.14h-5.529v-6.634h5.529zm-5.529-24.326v-5.528h5.529v5.528zm0-15.48v-5.528h5.529v5.528zm0-22.114h5.529v6.634h-5.529zm5.529 0h-5.529v-6.634h5.529zm-5.529-23.22h5.529v6.634h-5.529zm5.529 0h-5.529v-7.74h5.529zm0-7.74h-5.529V313h5.529zm2.211 85.14h5.528v6.634h-5.528zm5.528 0h-5.528v-6.634h5.528zm-20.179 15.966H423V413h5.529zm22.3 19H445.3V432h5.529zm-14.56-11.26h-5.529v-6.634h5.529zm7.74-7.74h-5.529v-6.634h5.529zm-.829-39.186h5.528v6.634h-5.528zm5.528 0h-5.528v-6.634h5.528zm-5.528-23.22h5.528v6.634h-5.528zm5.528 0h-5.528V351.7h5.528zm-5.528-39.806V313h5.528v5.528zm13.268 47.546h-5.528v-6.634h5.528zm-5.528-38.7h5.529v6.634h-5.529zm5.528 0h-5.528v-6.634h5.528zm2.212 77.4h5.528v6.634h-5.528zm5.528 0h-5.528v-6.634h5.528zm-5.528-23.22h5.528v6.634h-5.528zm5.528 0h-5.528v-6.634h5.528zm-5.528-16.586v-5.528h5.528v5.528zm0-22.114h5.528v6.634h-5.528zm5.528-15.48h-5.528v-6.634h5.528zm2.212 38.7h5.528v6.634H466.4zm5.528 0H466.4v-7.74h5.528zm0-7.74H466.4v-7.74h5.528zm-5.528-39.806V313h5.528v5.528zm13.268 83.246h-5.528v-6.634h5.528zm-5.528-21.326v-5.528h5.528v5.528zM487 369.529V364h5.529v5.529zm-12.86-35.521v-5.528h5.528v5.528zm0-15.48V313h5.528v5.528zm13.268 32.066h-5.528v-6.634h5.528zm-5.528-24.326v-5.528h5.528v5.528zm7.74 23.22v-5.528h5.528v5.528zm0-15.48v-5.528h5.528v5.528zm0-15.48V313h5.528v5.528zm13.268 39.806h-5.528v-7.74h5.528zm-5.528-38.7h5.528v6.634h-5.528zm5.528 0h-5.528V313h5.528zm2.212 0h5.528v6.634H505.1zm5.528 0H505.1V313h5.528zM98.471 223.48H104v6.634h-5.529zM104 254.44h-5.529v-6.634H104zM75.171 188H80.7v7.74h-5.53V188Zm23.3 81.92H104v7.74h-5.529zm0 7.74H104v7.74h-5.529zm0 15.48H104v6.634h-5.529zm-2.211-60.814v5.528h-5.529v-5.528zm0 15.48v5.528h-5.529v-5.528zm0 22.114h-5.529v-6.634h5.529zm-5.529 0h5.529v6.634h-5.529zm5.529 23.22h-5.529v-6.634h5.529zm-5.529 0h5.529v7.74h-5.529zm0 7.74h5.529v6.634h-5.529zm-2.211-61.92h-5.528v-6.634h5.528zm-5.528 0h5.528v6.634h-5.528zm5.528 23.22h-5.528v-6.634h5.528zm-5.528 0h5.528v6.634h-5.528zm5.528 39.806v5.528h-5.528v-5.528zm-7.74-47.546h-5.529v-6.634h5.529zm-5.529 0h5.529v6.634h-5.529zm5.529 38.7h-5.529v-6.634h5.529zm-5.529 0h5.53v6.634h-5.53zm-2.211-77.4h-5.529v-6.634h5.529zm0 23.22h-5.529v-6.634h5.529zm-5.529 0h5.529v6.634h-5.529zm5.529 16.586v5.528h-5.529v-5.528zm0 22.114h-5.529v-6.634h5.529zm-5.529 0h5.53v7.74h-5.53zm0 7.74h5.53v7.74h-5.53zm0 7.74h5.53v6.634h-5.53zm-2.211-38.7h-5.528v-6.634H65.3zm-5.528 15.48H65.3v7.74h-5.528zm5.528 32.066v5.528h-5.528v-5.528zm-7.74-61.92v5.528h-5.529v-5.528zm0 46.44v5.528h-5.529v-5.528zm0 15.48v5.528h-5.529v-5.528zm-7.74-82.4v5.528h-5.53v-5.528zm-5.529 50.334h5.53v6.634h-5.53zm5.529 24.326v5.528h-5.529v-5.528zM40.171 230H45.7v6.634h-5.53zm1.909 10.066v5.528h-5.529v-5.528h5.53Zm0 30.96v5.528h-5.529v-5.528h5.53Zm0 15.48v5.528h-5.529v-5.528h5.53Zm0 15.48v5.528h-5.529v-5.528h5.53ZM28.811 246.7h5.53v7.74h-5.53zm0 15.48h5.53v7.74h-5.53zm5.529 38.7h-5.529v-6.634h5.53zm-5.529 0h5.53v6.634h-5.53zM26.6 277.66h-5.529v-6.634h5.53v6.634Zm-5.528 0H26.6v6.634h-5.529zm2.628-19.806h-5.529v-6.634H23.7zM78.7 221v5.529h-5.529V221zm-16.171 5v5.529H57V226zM15.96 258.96v5.529h-5.529v-5.529zM12 242h5.529v7.74H12zm-.829 31H16.7v7.74h-5.53zM26.6 300.88h-5.529v-6.634h5.53v6.634Zm-5.528 0H26.6v6.634h-5.529zm-2.212-6.634v5.528h-5.528v-5.528zM97.84 120.74h5.529v7.74H97.84zm0 7.74h5.529v6.634H97.84zm5.529 30.96H97.84v-6.634h5.529zM91 96h5.529v7.74H91zm-16.46 4.74h5.529v7.74H74.54z"/><path fill="#727271" d="M91 89h5.529v7.74H91zm13 14h5.529v7.74H104zm-6.16 71.92h5.529v7.74H97.84zm0 7.74h5.529v7.74H97.84zm-23.3-58.7h5.529v7.74H74.54zm23.3 74.18h5.529v6.634H97.84zM90.1 113h5.529v6.634H90.1zm5.529 24.326v5.528H90.1v-5.528zm0 15.48v5.528H90.1v-5.528zm0 22.114H90.1v-6.634h5.529zm-5.529 0h5.529v6.634H90.1zm5.529 23.22H90.1v-6.634h5.529zm-7.74-77.4H82.36v-6.634h5.529zm-5.529 0h5.529v6.634H82.36zm5.529 23.22H82.36v-6.634h5.529zm-5.529 0h5.529v6.634H82.36zm5.529 23.22H82.36v-6.634h5.529zm-5.529 0h5.529v6.634H82.36zm5.529 39.806v5.528H82.36v-5.528zm-7.74-47.546H74.62v-6.634h5.529zm-5.529 0h5.529v6.634H74.62zm-46.091 67.194H23V220h5.529z"/><path fill="#727271" d="M23 226.634h5.529v6.635H23zM72.409 120.74H66.88v-6.634h5.529zm-5.529 0h5.529v6.634H66.88zm5.529 23.22H66.88v-6.634h5.529zm-5.529 0h5.529v6.634H66.88zm5.529 16.586v5.528H66.88v-5.528zM66.88 182.66h5.529v7.74H66.88zm0 15.48h5.529v6.634H66.88zm-2.211-38.7H59.14v-6.634h5.529zm-5.529 0h5.529v7.74H59.14zm0 15.48h5.529v7.74H59.14zm5.529 32.066v5.528H59.14v-5.528zm-5.14-75.352H54V125h5.529zm-5.529 0h5.529v6.635H54zm2.929 13.432v5.528H51.4v-5.528zm0 46.44v5.528H51.4v-5.528zm0 15.48v5.528H51.4v-5.528zm-7.74-32.066H43.66v-6.634h5.529zm-5.529 0h5.529v6.634H43.66zm5.529 24.326v5.528H43.66v-5.528zm-7.74-23.22v5.528H35.92v-5.528zm0 15.48v5.528H35.92v-5.528zm0 15.48v5.528H35.92v-5.528zM28.18 174.92h5.529v6.634H28.18zm5.529 30.96H28.18v-6.634h5.529zm-5.529 0h5.529v6.634H28.18zm-2.211 0H20.44v-6.634h5.529zm-5.529 0h5.529v6.634H20.44zm77.031 198.894H103v-7.74h-5.529zm0-7.74H103V390.4h-5.529zm5.529-30.96h-5.529v6.634H103zm-28.829 66.44H79.7v-7.74h-5.53v7.74Zm0-7.74H79.7v-7.74h-5.53v7.74Zm23.3-74.18H103v-7.74h-5.529zm0-7.74H103v-7.74h-5.529zm-23.3 58.7H79.7v-7.74h-5.529zm23.3-74.18H103v-6.634h-5.529zm-7.74 85.14h5.529v-6.634h-5.529zm7.009 18.226h5.529V423H96.74zM89 438.48h5.529v-6.634H89zm6.26-50.292v-5.528h-5.529v5.528zm0-15.48v-5.528h-5.529v5.528zm0-22.114h-5.529v6.634h5.529zm-5.529 0h5.529v-6.634h-5.529zm5.529-23.22h-5.529v6.634h5.529zm-5.529 0h5.529v-7.74h-5.529zm0-7.74h5.529V313h-5.529zm-2.211 85.14h-5.528v6.634h5.528zm-5.528 0h5.528v-6.634h-5.528zm5.528-23.22h-5.528v6.634h5.528zm-5.528 0h5.528v-6.634h-5.528zm5.528-23.22h-5.528v6.634h5.528zm-5.528 0h5.528V351.7h-5.528zm5.528-39.806V313h-5.528v5.528zm-7.74 47.546h-5.529v6.634h5.529zm-5.529 0h5.529v-6.634h-5.529zm5.529-38.7h-5.529v6.634h5.529zm-5.529 0h5.53v-6.634h-5.53zm-2.211 77.4h-5.529v6.634h5.529zm-5.529 0h5.529v-6.634h-5.529zm5.529-23.22h-5.529v6.634h5.529zm-5.529 0h5.529v-6.634h-5.529zm5.529-16.586v-5.528h-5.529v5.528zm0-22.114h-5.529v6.634h5.529zm-5.529 0h5.53v-7.74h-5.53zm-2.211 23.22h-5.528v6.634H64.3zm-5.528-15.48H64.3v-7.74h-5.528zm0-7.74H64.3v-6.634h-5.528zm5.528-24.326V313h-5.528v5.528zM51 395.634h5.529V389H51zm5.56-15.186v-5.528h-5.529v5.528h5.53Zm-10.031-5.919V369H41v5.529zm10.031-40.521v-5.528h-5.529v5.528h5.53Zm0-15.48V313h-5.529v5.528h5.53Zm-7.74 32.066h-5.529v6.634h5.53zm-5.529 0h5.53v-6.634h-5.53zm5.529-24.326v-5.528h-5.529v5.528zm-7.74 23.22v-5.528h-5.529v5.528zm0-15.48v-5.528h-5.529v5.528zm0-15.48V313h-5.529v5.528zm-13.269 39.806h5.53v-7.74h-5.53zm5.529-38.7h-5.529v6.634h5.53zm-5.529 0h5.53V313h-5.53zm-2.211 0h-5.529v6.634h5.53zm-5.528 0H25.6V313h-5.529zM180 87.8h5.529v-6.634H180zm5.529 0H180v7.74h5.529zm0 7.74H180v6.634h5.529zm2.211-7.74h5.529v-6.634h-5.529zm5.529 0h-5.529v7.74h5.529zm0 7.74h-5.529v6.634h5.529zm7.74-38.7h-5.529v6.634h5.529zm-5.529 16.586v5.528h5.529v-5.528zm0 15.48v5.528h5.529v-5.528zm7.74-39.44v5.528h5.529v-5.528zm0 30.594h5.529v-6.634h-5.529zm5.529 0h-5.529v7.74h5.529zm0 7.74h-5.529v6.634h5.529zm2.211-45.334v5.528h5.529v-5.528zm0 15.48v5.528h5.529v-5.528zm13.269-32.066H218.7v6.634h5.529zM218.7 56.84h5.529v-6.634H218.7zm5.529 0H218.7v6.634h5.529zM218.7 96.646v5.528h5.529v-5.528zm7.74-77.4v5.528h5.529v-5.528zm5.529 29.854h-5.529v6.634h5.529zm-5.529 38.7h5.529v-6.634h-5.529zm5.529 0h-5.529v6.634h5.529zm7.739-69.66h-5.528v6.634h5.528zM234.18 49.1h5.528v-6.634h-5.528zm5.528 0h-5.528v7.74h5.528zm0 30.96h-5.528v7.74h5.528zm0 7.74h-5.528v6.634h5.528zm2.212-60.814v5.528h5.528v-5.528zm0 15.48v5.528h5.528v-5.528zm0 22.114h5.528v-6.634h-5.528zm5.528 0h-5.528v6.634h5.528zM241.92 87.8h5.529v-6.634h-5.529zm5.528 0h-5.528v7.74h5.528zm0 7.74h-5.528v6.634h5.528zm7.74-83.14h-5.528v6.634h5.528zm-5.528 44.44h5.528v-6.634h-5.528zm5.528 0h-5.528v6.634h5.528zm2.212-7.74h5.528v-6.634H257.4zm5.528 0H257.4v6.634h5.528zM257.4 87.8h5.528v-6.634H257.4zm5.528 0H257.4v6.634h5.528zm7.74-75.4h-5.528v6.634h5.528zm-5.528 21.22h5.528v-6.634h-5.528zm5.528 0h-5.528v6.634h5.528zm-5.528 16.586v5.528h5.528v-5.528zm0 22.114h5.528v-6.634h-5.528zm5.528 0h-5.528v7.74h5.528zm0 15.48h-5.528v6.634h5.528zm2.212-38.7h5.528v-6.634h-5.528zm5.528 7.74h-5.528v7.74h5.528zm.001 15.48h-5.529v6.634h5.529zm-5.529 24.326v5.528h5.528v-5.528zm7.74-61.92v5.528h5.529v-5.528zm0 46.44v5.528h5.529v-5.528zm0 15.48v5.528h5.529v-5.528zm7.74-82.4v5.528h5.529v-5.528zm5.529 50.334h-5.529v6.634h5.529zm-5.529 24.326v5.528h5.529v-5.528zM301.643 24h-5.529v6.634h5.529zM296.1 65.686v5.528h5.529v-5.528zm0 15.48v5.528h5.529v-5.528zm0 15.48v5.528h5.529v-5.528zm7.74-55.286h5.529v-6.634h-5.529zm5.529 0h-5.529v7.74h5.529zm-5.529 54.18h5.529v-6.634h-5.529zm5.529 0h-5.529v6.634h5.529zm2.211-23.22h5.529v-6.634h-5.529zm5.529 0h-5.529v6.634h5.529zm-5.529 23.22h5.529v-6.634h-5.529zm5.529 0h-5.529v6.634h5.529zm-2.789-45.334v5.528h5.529v-5.528zm5 22.114h5.529v-6.634h-5.529zm5.529 0h-5.529v6.634h5.529zm-5.529 16.586v5.528h5.529v-5.528zm7.74-16.586h5.529v-6.634h-5.529zm5.529 7.74h-5.529v7.74h5.529zm0 15.48h-5.529v6.634h5.529zm2.211 0h5.529v-6.634H334.8zm5.529 0H334.8v6.634h5.529zm2.211-6.634v5.528h5.529v-5.528zM349.114 99v5.529h5.529V99zM420 97v5.529h5.529V97zM102.44 85.943v-5.529h5.529v5.529zm13.268 8.846h-5.528v-7.74h5.528zm0-7.74h-5.528v-6.635h5.528zm7.74 15.48h-5.528v-6.635h5.528zm-5.528-24.326v-5.529h5.528v5.529zm0-15.48v-5.529h5.528v5.529zm7.74 32.066h5.528v6.634h-5.528zm5.528 0h-5.528v-6.635h5.528zm-5.528-23.22h5.528v6.634h-5.528zm5.528 0h-5.528v-6.635h5.528zm2.212-15.48h5.528v6.634H133.4zm5.528 0H133.4v-6.635h5.528zm2.212 38.7h5.528v6.634h-5.528zm5.528 0h-5.528v-6.635h5.528zm-5.528-23.22h5.528v6.634h-5.528zm5.528 0h-5.528v-6.635h5.528zm-5.528-16.586v-5.529h5.528v5.529zm15.48 39.806h5.528v6.634h-5.528zm5.528 0h-5.528v-6.635h5.528zm-5.528-24.326v-5.529h5.528v5.529zm7.74 20.48v-5.529h5.529v5.529zm0-50.334h5.528v6.634h-5.528zm5.528 0h-5.528v-6.635h5.528zm7.755 40.58h-5.529v-6.635h5.529zM172.1 70.463v-5.529h5.528v5.529zm0-30.96v-5.529h5.528v5.529zm7.74 24.326h5.528v6.634h-5.528zm5.528-7.74h-5.528v-7.74h5.528zm0-15.48h-5.528v-6.635h5.528zm2.212-7.74h5.528v6.634h-5.528zm5.528 0h-5.528v-6.635h5.528zm-2.788 22.114v-5.529h5.529v5.529zm5-22.114h5.528v6.634h-5.528zm5.529 0h-5.529v-6.635h5.529zm2.211 0h5.528v6.634h-5.528zm224.48 46.44h5.529v-6.635h-5.529zm-2.211 6.634v-5.529H419.8v5.529zm-13.269 8.846h5.529v-7.74h-5.529zm0-7.74h5.529v-6.635h-5.529zm-7.74 15.48h5.529v-6.635h-5.529zm5.529-24.326v-5.529h-5.529v5.529zm0-15.48v-5.529h-5.529v5.529zm-7.74 32.066h-5.529v6.634h5.529zm-5.529 0h5.529v-6.635h-5.529zm5.529-23.22h-5.529v6.634h5.529zm-5.529 0h5.529v-6.635h-5.529zM366.529 47H361v6.634h5.529zm27.84 9.089h-5.529v6.634h5.529zm-5.529 0h5.529v-6.635h-5.529zm-7.74 38.7h5.529v-6.635H381.1zm0-23.22h5.529v-6.635H381.1zm5.529-16.586v-5.529H381.1v5.529zm-7.74 1.106h-5.529v6.634h5.529zm-13.269 38.7h5.529v-6.635h-5.529zm5.529-24.326v-5.529h-5.529v5.529zm-7.741 20.48v-5.529h-5.528v5.529zm-5.528-50.334h5.529v-6.635h-5.529zm-7.754 40.58h5.528v-6.635h-5.528zm5.543-10.726v-5.529h-5.529v5.529zm0-30.96v-5.529h-5.529v5.529zM342.4 56.089h5.529v-7.74H342.4zm0-7.74h5.529v-7.74H342.4zm-2.211-15.48h-5.529v6.634h5.529zm-5.529 0h5.529v-6.635h-5.529zm2.788 22.114v-5.529h-5.528v5.529zM326.92 32.869h5.529v-6.635h-5.529zm-2.211 0h-5.529v6.634h5.529zm-5.529-7.74h5.529v-7.74h-5.529zM185.529 441.86H180v-7.74h5.529zm0-7.74H180v-6.634h5.529zm2.211 7.74h5.529v6.634h-5.529zm5.529-7.74h-5.529v-6.634h5.529zm7.74 38.7h-5.529v-6.634h5.529zm-5.529-16.586v-5.528h5.529v5.528zm0-15.48v-5.528h5.529v5.528zm7.74 39.44v-5.528h5.529v5.528zm5.529-30.594h-5.529v-7.74h5.529zm0-7.74h-5.529v-6.634h5.529zm2.211 45.334v-5.528h5.529v5.528zm0-15.48v-5.528h5.529v5.528zm13.269 32.066H218.7v-6.634h5.529zm-5.529-30.96h5.529v6.634H218.7zm5.529 0H218.7v-6.634h5.529zm-5.529-39.806v-5.528h5.529v5.528zm7.74 77.4v-5.528h5.529v5.528zm0-29.854h5.529v6.634h-5.529zm5.529 0h-5.529v-6.634h5.529zm-5.529-38.7h5.529v6.634h-5.529zm5.529 0h-5.529v-6.634h5.529zm7.739 69.66h-5.528v-6.634h5.528zm-5.528-30.96h5.528v6.634h-5.528zm5.528 0h-5.528v-7.74h5.528zm0-23.22h-5.528v-7.74h5.528zm0-7.74h-5.528v-7.74h5.528zm2.212 53.074v-5.528h5.528v5.528zm0-15.48v-5.528h5.528v5.528zm0-22.114h5.528v6.634h-5.528zm5.528 0h-5.528v-6.634h5.528zm-5.528-23.22h5.529v6.634h-5.529zm5.528 0h-5.528v-7.74h5.528zm0-7.74h-5.528v-6.634h5.528zm7.74 85.14h-5.528v-6.634h5.528zm-5.528-23.22h5.528v6.634h-5.528zm5.528 0h-5.528v-6.634h5.528zm-5.528-23.22h5.528v6.634h-5.528zm5.528 0h-5.528v-6.634h5.528zm-5.528-39.806v-5.528h5.528v5.528zm7.74 47.546h5.528v6.634H257.4zm5.528 0H257.4v-6.634h5.528zm-5.528-38.7h5.528v6.634H257.4zm5.528 0H257.4v-6.634h5.528zm7.74 77.4h-5.528v-6.634h5.528zm-5.528-23.22h5.528v6.634h-5.528zm5.528 0h-5.528v-6.634h5.528zm-5.528-16.586v-5.528h5.528v5.528zm5.528-29.854h-5.528v-7.74h5.528zm0-7.74h-5.528v-6.634h5.528zm2.212 38.7h5.528v6.634h-5.528zm5.528-7.74h-5.528v-7.74h5.528zm.001-15.48h-5.529v-6.634h5.529zm-5.529-24.326v-5.528h5.528v5.528zm13.268 86.246h-5.528v-6.634h5.528zm-5.528-24.326v-5.528h5.528v5.528zm0-46.44v-5.528h5.528v5.528zm0-15.48v-5.528h5.528v5.528zm7.74 82.4v-5.528h5.529v5.528zm22.64-3.885V506h5.529v5.529zm-22.64-46.449h5.529v6.634h-5.529zm5.529 0h-5.529v-6.634h5.529zm-5.529-24.326v-5.528h5.529v5.528zm13.283 64.906h-5.529v-6.634h5.529zm-5.543-10.726v-5.528h5.529v5.528zm0-30.96v-5.528h5.529v5.528zm0-15.48v-5.528h5.529v5.528zm0-15.48v-5.528h5.529v5.528zm13.269 55.286h-5.529v-7.74h5.529zm0-15.48h-5.529v-7.74h5.529zm-5.529-38.7h5.529v6.634h-5.529zm5.529 0h-5.529v-6.634h5.529zm2.211 23.22h5.529v6.634h-5.529zm5.529 0h-5.529v-6.634h5.529zm-5.529-23.22h5.529v6.634h-5.529zm5.529 0h-5.529v-6.634h5.529zm-2.789 45.334v-5.528h5.529v5.528zm5-22.114h5.529v6.634h-5.529zm5.529 0h-5.529v-6.634h5.529zm-5.529-16.586v-5.528h5.529v5.528zm7.74 16.586h5.529v6.634h-5.529zm5.529 0h-5.529v-7.74h5.529z"/><path fill="#727271" d="M332.589 449.6h-5.529v-7.74h5.529zm0-7.74h-5.529v-7.74h5.529zm0-7.74h-5.529v-6.634h5.529zm2.211 0h5.529v6.634H334.8zm5.529 0H334.8v-6.634h5.529zm2.211 6.634v-5.528h5.529v5.528zm6.574-10.094v-5.529h5.529v5.529zm70.886 2v-5.529h5.529v5.529zM100.529 447H95v6.634h5.529zm1.911-3.283v5.529h5.529v-5.529zm13.268-8.846h-5.528v7.74h5.528zm7.74-7.74h-5.528v6.635h5.528zM108.529 417H103v6.634h5.529zm9.391 34.457v5.529h5.528v-5.529zm0 15.48v5.529h5.528v-5.529zm7.74-32.066h5.528v-6.634h-5.528zm5.528 0h-5.528v6.635h5.528zm-5.528 23.22h5.528v-6.634h-5.528zm5.528 0h-5.528v6.635h5.528zm2.212 15.48h5.528v-6.634H133.4zm5.528 0H133.4v6.635h5.528zm2.212-38.7h5.528v-6.634h-5.528zm5.528 0h-5.528v6.635h5.528zm-5.528 23.22h5.528v-6.634h-5.528zm5.528 0h-5.528v6.635h5.528zm-5.528 16.586v5.529h5.528v-5.529zm13.268-1.106h-5.528v7.74h5.528zm2.212-38.7h5.528v-6.634h-5.528zm5.528 0h-5.528v6.635h5.528zm-5.528 24.326v5.529h5.528v-5.529zm7.74-20.48v5.529h5.529v-5.529zm0 50.334h5.528v-6.634h-5.528zm5.528 0h-5.528v6.635h5.528zm7.755-40.58h-5.529v6.635h5.529zm-5.543 10.726v5.529h5.528v-5.529zm0 30.96v5.529h5.528v-5.529zm7.74-24.326h5.528v-6.634h-5.528zm5.528 15.48h-5.528v7.74h5.528zm2.212 15.48h5.528v-6.634h-5.528zm5.528 0h-5.528v6.635h5.528zm-2.788-22.114v5.529h5.529v-5.529zm5 22.114h5.528v-6.634h-5.528zm13.269 0h-5.529v7.74h5.529zm218.951-46.44h5.529v6.635h-5.529zm-2.211-6.634v5.529H419.8v-5.529zm-13.269-8.846h5.529v7.74h-5.529zm0 7.74h5.529v6.635h-5.529zm-7.74-15.48h5.529v6.635h-5.529zm5.529 24.326v5.529h-5.529v-5.529zm0 15.48v5.529h-5.529v-5.529zm-7.74-32.066h-5.529v-6.634h5.529zm-5.529 0h5.529v6.635h-5.529zm5.529 23.22h-5.529v-6.634h5.529zm-5.529 0h5.529v6.635h-5.529zm5.529 23.22h-5.529v-6.634h5.529zm-24 10h-5.529v-6.634h5.529zm16.26-17.74h-5.529v-6.634h5.529zm-5.529 0h5.529v6.635h-5.529zm-2.211-38.7H381.1v-6.634h5.529zm-5.529 0h5.529v6.635H381.1zm5.529 23.22H381.1v-6.634h5.529zm-5.529 0h5.529v6.635H381.1zm5.529 16.586v5.529H381.1v-5.529zm-7.74-1.106h-5.529v-6.634h5.529zm-7.74-38.7h-5.529v-6.634h5.529zm-5.529 0h5.529v6.635h-5.529zm5.529 24.326v5.529h-5.529v-5.529zm-7.741-20.48v5.529h-5.528v-5.529zm.001 50.334h-5.529v-6.634h5.529zm-5.529 0h5.529v6.635h-5.529zm-7.754-40.58h5.528v6.635h-5.528zm5.543 10.726v5.529h-5.529v-5.529zm0 30.96v5.529h-5.529v-5.529zM342.4 465.831h5.529v7.74H342.4zm0 7.74h5.529v7.74H342.4zm0 15.48h5.529v6.635H342.4zm-2.211 7.74h-5.529v-6.634h5.529zm-5.529 0h5.529v6.635h-5.529zm2.788-22.114v5.529h-5.528v-5.529zm-4.999 22.114h-5.529v-6.634h5.529zm-5.529 0h5.529v6.635h-5.529zm-2.211 0h-5.529v-6.634h5.529z"/></svg>