<svg fill="none" xmlns="http://www.w3.org/2000/svg" width="300" height="300" viewBox="0 0 300 300"><g transform="translate(10 10)"><path d="M84.386 175.837c.518 1.035 29.834 62.644 44.427 93.319M90.66 175.837c.517 1.035 29.833 62.644 44.427 93.319m57.563-93.319c-.518 1.035-29.834 62.644-44.427 93.319m38.369-93.319c-.518 1.035-29.834 62.644-44.427 93.319" stroke="#EE7B76" stroke-width="1.295"/><path d="M238.802 101.451c0 55.567-61.697 124.817-100.5 124.817s-100.5-69.25-100.5-124.817C37.803 45.883 82.799.837 138.303.837s100.5 45.046 100.5 100.614" fill="#F36F56"/><rect x="112.854" y="237.475" width="50.897" height="38.362" rx="5.181" fill="#FFC444"/><g opacity=".4" style="mix-blend-mode:multiply" fill="#FFC444"><path d="M118.03 255.354v-.521h40.114v.521zm0-3.644v-.521h40.114v.521zm0 18.221v-.521h40.114v.521zm0-21.865v-.521h40.114v.521zm0 18.221v-.521h40.114v.521zm0-21.865v-.521h40.114v.521zm0 18.221v-.521h40.114v.521zm0-3.645v-.521h40.114v.521z"/><path d="M139.65 241.298h.521v30.715h-.521zm-18.234 0h.521v30.715h-.521zm21.88 0h.521v30.715h-.521zm-18.233 0h.521v30.715h-.521zm21.88 0h.521v30.715h-.521zm-18.233 0h.521v30.715h-.521zm21.88 0h.521v30.715h-.521zm-18.234 0h.521v30.715h-.521zm21.88 0h.521v30.715h-.521zm-18.233 0h.521v30.715h-.521z"/></g><ellipse cx="138.518" cy="107.501" rx="76.993" ry="76.94" fill="#fff"/><path d="M157.478 243.62c.195 2.737 2.349 5.846-3.805 5.846-6.734 0-4.53-3.367-4.53-6.107s2.017-5.484 3.893-5.484 4.233 2.806 4.442 5.745" fill="#F87E0D"/><path d="M155.414 237.193a2.35 2.35 0 0 1-4.703 0c0-1.298.791-.784 2.09-.784s2.613-.514 2.613.784m-12.17 6.427c.195 2.737 2.348 5.846-3.805 5.846-6.735 0-4.531-3.367-4.531-6.107s2.017-5.484 3.894-5.484c1.876 0 4.233 2.806 4.442 5.745" fill="#F87E0D"/><path d="M141.18 237.193a2.35 2.35 0 0 1-2.352 2.35 2.35 2.35 0 0 1-2.352-2.35c0-1.298.792-.784 2.091-.784s2.613-.514 2.613.784m-12.157 6.427c.194 2.737 2.348 5.846-3.805 5.846-6.735 0-4.531-3.367-4.531-6.107s2.017-5.484 3.893-5.484 4.233 2.806 4.443 5.745" fill="#F87E0D"/><path d="M126.958 237.193a2.35 2.35 0 0 1-4.703 0c0-1.298.791-.784 2.09-.784s2.613-.514 2.613.784" fill="#F87E0D"/><path d="M114.596 22.437q1.577-.446 1.247-1.615-.135-.476-.456-.678-.308-.207-1.005-.23l-1.218-.053q-2.182-.088-2.739-2.059-.323-1.141.176-2.075.51-.952 2.032-1.381.639-.18 1.306-.208a7.3 7.3 0 0 1 1.459.072l-.107 1.542a9 9 0 0 0-1.218-.052q-.483.005-.959.14-.626.176-.927.51-.292.318-.127.902.123.435.448.652.336.198.974.224l1.218.052q1.102.056 1.789.566.697.492.997 1.553.345 1.224-.214 2.204-.564.966-2.222 1.435a7 7 0 0 1-1.402.234 8.5 8.5 0 0 1-1.676-.113l.107-1.543a9.6 9.6 0 0 0 1.422.098q.579-.031 1.095-.178m5.935-3.901q.19 1.013.757 1.582.565.555 1.578.364.417-.078.84-.273a9 9 0 0 0 1.054-.586l.785 1.347q-.687.474-1.299.733-.598.256-1.182.366-1.166.22-2.051-.131a3.14 3.14 0 0 1-1.425-1.155q-.553-.801-.765-1.926l-.373-1.985q-.211-1.125.012-2.072a3.05 3.05 0 0 1 .91-1.58q.698-.648 1.863-.868.57-.107 1.206-.083.634.01 1.417.193l-.237 1.568a9 9 0 0 0-1.139-.173 3.4 3.4 0 0 0-.854.046q-1.014.19-1.338.912-.324.723-.133 1.736zm11.64 2.251-.759-1.819-3.278.295-.423 1.924-1.674.151 2.334-9.854 1.491-.134 4.068 9.278zm-3.386-4.532-.312 1.418 2.308-.208-.561-1.34-.921-2.356zm7.22 4.305.198-9.604 1.554.032a37 37 0 0 1 2.055 3.123 35 35 0 0 1 1.753 3.356l-.068-2.87.073-3.53 1.624.034-.198 9.603-1.554-.032a145 145 0 0 0-1.804-3.612 36 36 0 0 0-1.978-3.446l.045 3.307-.076 3.672zm15.918-8.536 1.447 6.946 3.817-5.975 1.82.336-1.743 9.446-1.597-.295.666-3.612.819-3.267-3.419 5.373-1.487-.274-1.218-6.243-.404 3.358-.666 3.612-1.598-.295 1.743-9.446zm13.58 11.544-.479 1.552-5.318-1.64 2.832-9.18 5.183 1.6-.479 1.553-3.563-1.1-.679 2.2 3.158.975-.479 1.552-3.158-.975-.717 2.322z" fill="#fff"/></g></svg>