<svg fill="none" xmlns="http://www.w3.org/2000/svg" width="300" height="300" viewBox="0 0 300 300"><g transform="translate(10 15)"><path d="M208.236 145.321c0 39.683-31.295 71.604-69.597 71.604s-69.597-31.921-69.597-71.604 31.296-71.603 69.597-71.603c38.302 0 69.597 31.92 69.597 71.603Z" fill="#fff" stroke="#FF5130" stroke-width="11"/><path d="M84.376 198.972c.173-2.127 2.527-3.326 4.349-2.215l28.312 17.263c1.54.939 1.84 3.05.623 4.381l-11.213 12.27a2.866 2.866 0 0 1-3.518.566l-18.65-10.457a2.87 2.87 0 0 1-1.454-2.733zm64.495 20.873a2.867 2.867 0 0 1 1.448-4.033l31.129-12.509c2.02-.812 4.172.836 3.915 2.998l-2.646 22.286a2.87 2.87 0 0 1-2.384 2.491l-21.248 3.475a2.87 2.87 0 0 1-2.979-1.455zM41.19 120.216a2.833 2.833 0 0 1 1.767-3.531l35.27-12.488c2.325-.823 4.535 1.481 3.616 3.77l-11.464 28.552c-.514 1.281-1.88 2.108-3.26 2.084-1.553-.026-4.06-.012-8.05.126-8.89.306-11.342-3.654-12.875-5.381-1.113-1.253-3.68-8.988-5.004-13.132m184.871 22.758a2.75 2.75 0 0 1-2.146-.443l-17.283-11.981a2.9 2.9 0 0 1-.926-1.064l-14.585-28.894c-1.229-2.434 1.292-5.035 3.748-3.85 10.741 5.183 30.225 14.768 39.505 20.49 13.191 8.133 8.442 13.568 7.165 18.344-1.062 3.973-11.872 6.62-15.478 7.398" fill="#FF5130"/><path d="M45.887 101.805a2.866 2.866 0 0 1 4.175.461l16.65 22.432c1.183 1.595.424 3.883-1.479 4.454l-16.096 4.83a2.866 2.866 0 0 1-3.486-1.682l-8.242-20.624a2.87 2.87 0 0 1 .789-3.234zm160.74 33.068a2.87 2.87 0 0 1 1.805-2.905l27.442-10.811c.334-.131.689-.202 1.045-.147 1.562.239 6.073 1.582 7.487 9.12 1.719 9.172-2.58 15.765-9.173 17.854-5.231 1.658-19.485.685-25.149.212a2.815 2.815 0 0 1-2.565-2.59z" fill="#FF5130"/><path d="M108.636 227.396c-.595-1.951-22.461-13.284-26.187-10.99-3.726 2.293 0 5.917 0 9.039 0 3.903-2.432 8.894-5.705 11.124s-3.17-9.173-11.482-5.545c-4.567 1.993-6.82 8.194-5.333 10.424s18.506 8.768 20.088 9.061 5.022-1.714 5.654-1.428 0 3.658 0 3.658c1.488.836 4.88 2.899 6.547 2.23s6.05-9.757 8.035-13.939c.992-3.346 2.55-7.612 5.407-8.058s3.571-3.624 2.976-5.576" fill="#000"/><rect x="82.391" y="228.255" width="7.021" height="6.879" rx="1.433" transform="rotate(33.835 82.391 228.255)" stroke="#FFC444" stroke-width="1.72"/><rect x="87.273" y="234.831" width="1.72" height="3.927" rx=".86" transform="rotate(122.123 87.273 234.831)" fill="#FFC444"/><path d="M181.609 226.785c-2.088-.609-25.497 2.251-27.642 5.428s2.693 5.444 5.012 7.615c0 0 4.853 3.666 3.705 9.216-.381 1.838-1.295 2.118-2.39 4.049-2.337 4.124-1.171 8.45.374 8.794 4.455.994 23.115.814 25.265 0 2.15-.813-.075-9.293-1.259-10.643-3.429-3.909-3.858-2.701-4.633-6.649-.609-3.102.216-9.781 2.312-11.773s1.344-5.428-.744-6.037" fill="#000"/><rect x="-.728" y=".974" width="7.021" height="6.879" rx="1.433" transform="scale(-1 1)rotate(8.22 -1755.516 -1088.073)" stroke="#FFC444" stroke-width="1.72"/><rect width="1.72" height="3.927" rx=".86" transform="scale(1 -1)rotate(-83.492 -53.379 -215.946)" fill="#FFC444"/><path d="M46.515 97.82c.328 3.905 3.748 7.026 3.212 8.947-3.32 1.388-8.801 7.815-9.315 5.765-.643-2.562-.964-5.765-3.534-5.765s-7.605-1.581-8.352-4.163c-.642-2.222-.963-7.026.643-10.87 1.609-3.85 8.673-.32 9.958.64.214-.213-.707-3.138 1.606-5.444s4.176 0 2.89 2.883c-1.284 2.882 2.57 4.183 2.892 8.006" fill="#F74C2B"/><path d="M211.156 135.576c1.777 2.646.591 3.777.937 5.369-1.972 2.369-.404 7.352-1.595 6.105-1.489-1.558-7.083-.296-9.662-.869-2.169-.482-4.584-3.153-5.444-6.592-.459-1.834-5.301-1.434-5.446-3.153-.287-3.413 9.54-2.157 10.89-2.007.078-.241-2.313-1.318-2.578-2.006-.954-2.48 2.118-2.354 5.16-1.72 3.041.634 5.999 2.282 7.738 4.873" fill="#F64C2B"/><path d="M34.475 113.019c-1.276-1.884-1.055-4.223.977-5.246 2.354-1.185 6.53-2.686 9.173-5.159a146 146 0 0 1 2.873-2.628c1.874-1.66 3.976-1.229 5.38.844l.383.566a6.86 6.86 0 0 1-1.833 9.53l-6.913 4.683a6.86 6.86 0 0 1-9.526-1.832zm176.859 38.655a4.48 4.48 0 0 1-4.326-4.629c.02-.571.149-1.129.332-1.67.596-1.75 1.768-6.15.664-11.232a85 85 0 0 1-.221-1.04c-.543-2.642 1.476-3.584 4.172-3.493l1.012.034a6.575 6.575 0 0 1 6.348 6.792l-.349 10.318a5.175 5.175 0 0 1-5.346 4.997z" fill="#E5F0FF"/><path d="M163.863 60.479c-3.138 13.735-14.664 22.198-30.25 18.637s-23.924-7.172-18.191-30.102c1.433-16.912 13.966-23.197 29.553-19.636s26.34 10.75 18.888 31.1" fill="#FFCBBD"/><path d="M111.982 73.09c0-7.452 2.139-27.091 3.518-28.59 2.263.287-.938 10.82-.621 14.063s.894 4.082 1.69 5.355c1.433 2.294 6.484 5.028 11.178 6.593 6.879 2.293 16.338-.86 22.357-2.58 3.46-.988 5.866 1.072 8.886-.86 2.234-1.428 5.717-14.642 6.879-15.571 1.433-1.147.456 9.292.432 12.992a96 96 0 0 1-.432 8.312c-.408 4.084-3.005 19.79-12.325 20.637-12.612 1.147-12.039 5.16-15.192 8.026-2.522 2.293-20.35-6.306-24.65-16.338-1.105-2.58-1.719-3.134-1.72-12.038" fill="#E5F0FF"/><path d="M134.745 77.932c-2.815-.322-5.278-3.097-5.278-3.539 0-.261 2.499.929 5.63.885 2.173-.03 5.197-1.327 5.63-1.327 1.055 0-2.111 4.424-5.982 3.981" fill="#fff"/><path d="m134.209 65.907.032.01c.859-.489 3.891-1.917 7.273-.586 3.724 1.465 3.549 3.488 6.015 5.6 2.925 2.505 9.565.525 9.453 1.172-1.146 2.051-5.729 5.86-12.604 5.86-7.446 0-9.025-5.642-9.739-5.5 0 0-1.432 2.487-3.15 3.847-1.719 1.36-4.584 1.653-6.589 1.095-5.258-1.465-8.961-6.306-8.593-6.18 1.544.524 4.01.585 5.729-.294 1.436-.734 1.649-.954 3.151-2.963 2.966-3.968 6.54-2.842 9.022-2.061" fill="#D5E6FF"/><path d="m134.035 65.332.033.01c.859-.487 3.891-1.914 7.272-.585 3.724 1.463 3.724 4.097 6.19 6.207 2.924 2.501 8.99.524 8.879 1.17-1.432 1.561-6.015 4.683-12.889 4.683-8.593 0-8.306-7.024-9.452-4.683s-3.612 4.683-8.767 4.33c-5.437-.374-8.786-5.04-8.418-4.915 1.544.524 3.747.246 4.981-.585 1.34-.904 1.648-1.566 3.15-3.573 2.966-3.963 6.54-2.84 9.021-2.059" fill="#E5F0FF"/><ellipse cx="134.626" cy="64.205" rx="3.44" ry="2.293" fill="#FFAA93"/><circle cx="146.091" cy="59.619" r="1.147" fill="#000"/><circle cx="127.174" cy="59.046" r="1.147" fill="#000"/><circle cx="175" cy="11" r="7" fill="#E5F0FF"/><path d="M115.123 36.33c-.911-7.444 1.024-15.122 6.783-19.927 4.044-3.374 9.335-6.861 15.3-8.507C148.958 4.652 161.5 6 167.847 8.379c6.348 2.378 2.472 2.021-1.186 5.74-1.787 1.817-2.223 3.567-2.2 4.882.027 1.572.827 3.015 1.418 4.472a198 198 0 0 0 1.968 4.683c.879 2.017 2.32 8.437 2.321 12.898a18.5 18.5 0 0 1-.311 3.447c-.412 2.175-2.528 3.314-4.734 3.129l-44.479-3.74a5.73 5.73 0 0 1-5.21-5.016z" fill="#FF5130"/><path d="M107.189 34.249c.372-5.485 5.019-9.44 10.442-8.547l.883.147c8.003 1.345 21.551 1.337 30.986 2.65 8.645 1.205 11.497 3.472 16.514 3.787 1.89.12 3.469.245 4.787.372 4.223.407 6.272 3.649 5.702 7.853l-.248 1.831c-.86 6.348-6.703 10.796-13.05 9.936 0 0-13.009-2.721-22-2.982-8.992-.26-25.5-3.455-25.5-3.455-4.669 1.182-9.131-2.54-8.805-7.346z" fill="#E5F0FF"/><path d="M146.378 55.606c.764-.19 2.58-.23 3.726 1.147m-22.07-2.196c-.765-.191-2.58-.23-3.726 1.146" stroke="#E5F0FF" stroke-width="1.72" stroke-linecap="round"/></g></svg>