<svg fill="none" xmlns="http://www.w3.org/2000/svg" width="300" height="300" viewBox="0 0 300 300"><g transform="translate(10)"><circle cx="139.207" cy="138" r="108" fill="#8859C2" stroke="#D8ACE8" stroke-width="4"/><circle cx="139.617" cy="138.41" r="84.142" fill="#D8ACE8" stroke="#D8ACE8" stroke-width="3.284"/><circle cx="139.5" cy="138.5" r="65" fill="#fff" stroke="#8859C2" stroke-width="3"/><path d="M260.15 219.269C260.15 207.776 255.5 93 255.5 93s-6.547-14.652-8.189-20.672.651-14.833 2.225-18.506l4.868 15.678 3.751-15.678 6.099 15.678 2.873-16.052c.411 1.094 3.648 7.325 3.99 13.134.41 6.978-4.836 21.903-6.363 26.418 0 0 9.646 117.239 10.993 126.269s-15.597 11.492-15.597 0" fill="#D8ACE8"/><mask id="a" maskUnits="userSpaceOnUse" x="246" y="53" width="30" height="174" style="mask-type:alpha"><path d="M260.15 219.269C260.15 207.776 255.5 93 255.5 93s-6.547-14.652-8.189-20.672.651-14.833 2.225-18.506l4.868 15.678 3.751-15.678 6.099 15.678 2.873-16.052c.411 1.094 3.648 7.325 3.99 13.134.41 6.978-4.836 21.903-6.363 26.418 0 0 9.646 117.239 10.993 126.269s-15.597 11.492-15.597 0" fill="#F8DED8"/></mask><g mask="url(#a)"><path d="M275.747 219.269c1.346 9.03-15.597 11.492-15.597 0 0-5.99-1.263-40.038-2.473-71.269l5.323-4.5 6.344 4.5c2.689 31.821 5.694 66.518 6.403 71.269" fill="#8859C2"/></g><path d="M1.535 220.009c-.263 6.934 14.692 10.278 15.06.571.154-4.056 1.646-33.767 3.331-66.983 2.348-46.268 5.07-99.337 5.07-99.337s-11.1-3.097-14.961 13.143c-.064.268.677.951.677.951s-.976.412-1.03.69c-.043.228.777.588.736.822-.04.234-.943.342-.982.583-.033.213.796.56.765.779-.03.203-.921.279-.949.488-.026.201.81.536.783.743-.035.27-.932.412-.967.69-.017.133.176.3.373.467l.387.485c-.033.27-.929.413-.962.69-.016.134.18.3.377.468l.388.484c-.031.27-.926.413-.958.69-2.64 22.941-5.498 66.056-5.498 66.056s6.532 3.886 6.077 11.108c-1.226 19.497-7.455 59.479-7.717 66.412" fill="#D8ACE8"/><mask id="b" maskUnits="userSpaceOnUse" x="1" y="54" width="24" height="173" style="mask-type:alpha"><path d="M16.595 220.58c.368-9.707 8.4-166.32 8.4-166.32s-11.099-3.097-14.96 13.143c-.064.268.677.951.677.951s-.976.412-1.03.69c-.043.228.777.588.736.822-.04.234-.943.342-.982.583-.033.213.796.56.765.779-.03.203-.921.279-.949.488-.026.201.81.536.783.743-.035.27-.932.412-.967.69-.017.133.176.3.373.467l.387.485c-.033.27-.929.413-.962.69-.016.134.18.3.377.468l.388.484c-.031.27-.926.413-.958.69-2.64 22.941-5.498 66.056-5.498 66.056s6.532 3.886 6.077 11.108c-1.226 19.497-7.455 59.479-7.717 66.412-.263 6.934 14.692 10.278 15.06.571" fill="#5F3A59"/></mask><g mask="url(#b)"><path d="M1.535 220.009c-.263 6.933 14.692 10.278 15.06.571.154-4.056 1.646-33.767 3.331-66.983L15 149.5l-5.748 4.097c-1.226 19.497-7.455 59.479-7.717 66.412" fill="#8859C2"/></g><circle cx="139.617" cy="43.187" r="3.694" fill="#D8ACE8"/><circle cx="149.468" cy="43.187" r="2.052" fill="#D8ACE8"/><circle cx="129.766" cy="43.187" r="2.052" fill="#D8ACE8"/><circle cx="234.841" cy="135.127" r="3.694" transform="rotate(-90 234.841 135.127)" fill="#D8ACE8"/><circle cx="234.841" cy="125.276" r="2.052" transform="rotate(-90 234.841 125.276)" fill="#D8ACE8"/><circle cx="234.841" cy="144.978" r="2.052" transform="rotate(-90 234.841 144.978)" fill="#D8ACE8"/><circle cx="44.393" cy="135.127" r="3.694" transform="rotate(-90 44.393 135.127)" fill="#D8ACE8"/><circle cx="44.393" cy="125.276" r="2.052" transform="rotate(-90 44.393 125.276)" fill="#D8ACE8"/><circle cx="44.393" cy="144.978" r="2.052" transform="rotate(-90 44.393 144.978)" fill="#D8ACE8"/><circle cx="139.617" cy="233.634" r="3.694" fill="#D8ACE8"/><circle cx="149.468" cy="233.634" r="2.052" fill="#D8ACE8"/><circle cx="129.766" cy="233.634" r="2.052" fill="#D8ACE8"/></g></svg>