<svg fill="none" xmlns="http://www.w3.org/2000/svg" width="300" height="300" viewBox="0 0 300 300"><g transform="translate(10 10)"><path fill="#C6D0E0" d="M19 31.985a8.613 8.613 0 0 1 8.613-8.614h36.073a7.77 7.77 0 0 1 7.771 7.772v1.684a7.77 7.77 0 0 1-7.771 7.771H27.613A8.613 8.613 0 0 1 19 31.985m0 83.672a8.613 8.613 0 0 1 8.613-8.613h36.073a7.77 7.77 0 0 1 7.771 7.771v1.684a7.77 7.77 0 0 1-7.771 7.771H27.613A8.613 8.613 0 0 1 19 115.657m0-41.837a8.613 8.613 0 0 1 8.613-8.612h36.073a7.77 7.77 0 0 1 7.771 7.77v1.685a7.77 7.77 0 0 1-7.771 7.771H27.613A8.613 8.613 0 0 1 19 73.821zm0 83.673a8.613 8.613 0 0 1 8.613-8.613h36.073a7.77 7.77 0 0 1 7.771 7.771v1.684a7.77 7.77 0 0 1-7.771 7.772H27.613A8.614 8.614 0 0 1 19 157.493m0 41.836a8.613 8.613 0 0 1 8.613-8.613h36.073a7.77 7.77 0 0 1 7.771 7.771v1.684a7.77 7.77 0 0 1-7.771 7.772H27.613A8.614 8.614 0 0 1 19 199.329m0 41.513a8.613 8.613 0 0 1 8.613-8.613h36.073A7.77 7.77 0 0 1 71.457 240v1.684a7.77 7.77 0 0 1-7.771 7.771H27.613A8.613 8.613 0 0 1 19 240.842"/><rect width="216.629" height="272" x="40.371" y="2" fill="#727271" rx="7.771"/><rect width="124" height="123" x="87" y="124" fill="#fff" stroke="#FFEABC" stroke-width="8" rx="61.5"/><path fill="#FFEABC" d="M103.979 101.857v-20.3h3.886l8.642 14.326h-2.059l8.497-14.326h3.857l.058 20.3h-4.408l-.029-13.543h.812l-6.786 11.397h-2.117l-6.931-11.397h.986v13.543zm32.018-12.122h9.773v3.654h-9.773zm.348 8.352h11.049v3.77h-15.718v-20.3h15.341v3.77h-10.672zm14.787 3.77v-20.3h3.886l11.977 14.616h-1.885V81.557h4.64v20.3h-3.857l-12.006-14.616h1.885v14.616zm32.44.348q-4.321 0-6.757-2.407t-2.436-6.873V81.557h4.698v11.194q0 2.9 1.189 4.176 1.188 1.276 3.335 1.276 2.145 0 3.335-1.276t1.189-4.176V81.557h4.64v11.368q0 4.467-2.436 6.873t-6.757 2.407"/><path fill="#ED583C" d="M122.943 47.657H175.4v4.563c0 9.283-7.526 16.809-16.809 16.809h-18.839c-9.283 0-16.809-7.526-16.809-16.81z"/><mask id="a" width="54" height="23" x="122" y="47" maskUnits="userSpaceOnUse" style="mask-type:alpha"><path fill="#ED583C" d="M122.943 47.657H175.4v4.563c0 9.283-7.526 16.809-16.809 16.809h-18.839c-9.283 0-16.809-7.526-16.809-16.81z"/></mask><g mask="url(#a)"><path fill="#ED583C" d="M126.829 66.777s16.118 0 31.085-10.046S189 46.686 189 46.686v8.448c0 9.283-7.526 16.809-16.809 16.809h-40.196a5.166 5.166 0 0 1-5.166-5.166" opacity=".5"/></g><path fill="#FFEABC" d="M159.843 31.329c.375-2.998 4.215-5.62 6.089-6.558-1.093 1.406-2.623 4.684 0 6.558 3.278 2.341-2.342 11.709-.937 7.962s-5.62-4.215-5.152-7.962m-14.988 0c.375-2.998 4.216-5.62 6.089-6.558-1.093 1.406-2.623 4.684 0 6.558 3.279 2.341-2.342 11.709-.937 7.962s-5.62-4.215-5.152-7.962m-14.987 0c.374-2.998 4.215-5.62 6.088-6.558-1.092 1.406-2.622 4.684 0 6.558 3.279 2.341-2.341 11.709-.936 7.962s-5.621-4.215-5.152-7.962"/></g></svg>