<svg fill="none" xmlns="http://www.w3.org/2000/svg" width="300" height="300" viewBox="0 0 300 300"><g transform="translate(13 13)"><path fill="#FFC444" d="M130.094 6.346h14.257v21.385h-14.257z"/><rect width="12.475" height="26.732" x="123.857" y="13.475" fill="#FFC444" rx="6.237" transform="rotate(-90 123.857 13.475)"/><path fill="url(#a)" d="M26 129C26 67.144 76.144 17 138 17s112 50.144 112 112v43H26z"/><path fill="#ABC4FD" d="M0 172.564A3.564 3.564 0 0 1 3.564 169h267.872a3.564 3.564 0 0 1 3.564 3.564v2.862a7.574 7.574 0 0 1-7.574 7.574H7.574A7.574 7.574 0 0 1 0 175.426z"/><rect width="102" height="102" x="87" y="52" fill="#fff" stroke="#ABC4FD" stroke-width="8" rx="9"/><path fill="#F9D6B2" d="M76.844 195.522c-9.703-9.697-7.788-13.354-.83-15.155 12.78-.182 19.584 12.247 32.595 17.289 6.64 2.572 13.168 4.732 16.825 4.894 7.141.316 13.191.553 17.285-.036 4.924-.708 11.081-2.643 10.019-4.732s-13.801-2.617-17.83-3.675c-6.364-1.671-12.003-5.252-11.017-9.683 2.246-10.097 25.4-2.918 33.854-1.927s7.094-.971 19.89-.771c8.025.125 14.367 3.873 19.145 10.25s12.13 19.848 26.017 34.093c14.947 15.331 20.082 22.947 20.082 22.947-32.943-11.254-34.925 15.632-42.415 15.3-9.362-.414-1.312-38.798-37.249-29.36-36.42 9.564-39.386.291-59.547-10.446-20.162-10.738-14.967-17.138-26.824-28.988"/><path fill="#F9D6B2" d="M163.3 232.048c-36.454 10.335-39.392.431-59.524-10.985-9.4-5.331-13.274-9.668-15.937-14.063l18.661 7.5c6.633 2.73 16.843 4.838 20.5 5 7.141.316 9.669 1.745 17.287-.091 7.619-1.836 15.713-7.967 33.713-1.909s26 26 26 26c2.233 3.557 5.022 5.883 8.075 7.318 5.562-5.699 14.312-9.981 30.857-3.984 0 0-17.833 10.104-30.857 3.984-5.503 5.639-7.886 12.666-11.61 12.501-9.362-.415-1.195-41.469-37.165-31.271" opacity=".25"/><path fill="#E5F0FF" d="m178.33 237.922 45.89-27.177 11.138 15.593-49.899 24.504z"/><path fill="#26264F" d="m181.894 249.951 54.8-26.286 19.604 26.286L193.478 270z"/><circle cx="221.546" cy="221.437" r="2.673" fill="#26264F"/><defs><linearGradient id="a" x1="137.754" x2="137.542" y1="-103.005" y2="230.649" gradientUnits="userSpaceOnUse"><stop offset=".419" stop-color="#D8E6FD"/><stop offset=".878" stop-color="#BDD0FB"/></linearGradient></defs></g></svg>