<svg xmlns="http://www.w3.org/2000/svg" viewBox="0 0 2000 2000" width="300" height="300" fill="none"><defs><style>.cls-1ne10,.cls-1ne7,.cls-1ne8,.cls-1ne9{stroke:#f04f26}.cls-1ne10,.cls-1ne6,.cls-1ne7,.cls-1ne8,.cls-1ne9{stroke-miterlimit:10}.cls-1ne2{fill:#7b1f07}.cls-1ne3{fill:#f04f26}.cls-1ne4{fill:#eafefe}.cls-1ne5{fill:#0a6355}.cls-1ne10,.cls-1ne6,.cls-1ne7,.cls-1ne8,.cls-1ne9{fill:none}.cls-1ne6{stroke:#0a6355;stroke-width:5.53px}.cls-1ne7{stroke-width:2.87px}.cls-1ne8{stroke-width:2.3px}.cls-1ne9{stroke-width:3.84px}.cls-1ne10{stroke-width:3.11px}</style></defs><g id="\u0421\u043B\u043E\u0439_4" data-name="\u0421\u043B\u043E\u0439 4"><path d="M529.43 431.99h1149.14v1149.14H529.43z" style="stroke-miterlimit:10;stroke:#f04f26;fill:#fff;stroke-width:11.14px"/><path d="m584.93 1431.72-.48-.46-.62-.62c-.08.55-.17 1.09-.26 1.62l.29.28.13.13 1.75 1.67c.14-.17.29-.33.45-.49l.45-.42c-.53-.57-1.12-1.13-1.71-1.71m0 0-.48-.46-.62-.62c-.08.55-.17 1.09-.26 1.62l.29.28.13.13 1.75 1.67c.14-.17.29-.33.45-.49l.45-.42c-.53-.57-1.12-1.13-1.71-1.71m0 0-.48-.46-.62-.62c-.08.55-.17 1.09-.26 1.62l.29.28.13.13 1.75 1.67c.14-.17.29-.33.45-.49a6 6 0 0 1 .45-.42c-.53-.57-1.12-1.13-1.71-1.71m11.37-.53v-2.68a50.7 50.7 0 0 0-1-8.23 52 52 0 0 0-1.44-5.45c-.18-.55-.37-1.11-.57-1.65-.08-.23-.16-.46-.26-.7-.16-.43-.33-.85-.5-1.27-2.41-5.81-5.77-10.28-9.51-11.35a6.4 6.4 0 0 0-1.28-.23 10.66 10.66 0 0 0-6.38 1.82 12.4 12.4 0 0 0-3.3 3.23 9.64 9.64 0 0 0-1.68 5.36c-.12 6 4.48 12.77 9.67 18.51a86 86 0 0 0 3.6 3.75l.29.28.13.13 1.75 1.67c1.48 1.37 2.87 2.6 4.08 3.61.82.7 1.55 1.3 2.17 1.8l.59.48.11.08.46.36c.48.38.8.61.89.69l.07.05.72.54.2-.85v-.11q.48-2 .78-4 .18-1.29.3-2.58l.06-.82v-.9c.03-.57.04-1.05.05-1.54m-2.26 8.43a.2.2 0 0 1 0 .08l-.8-.64c-.57-.46-1.28-1-2.07-1.7l-.3-.26c-1.22-1-2.64-2.28-4.14-3.68-.57-.54-1.16-1.1-1.75-1.68l-.48-.46-.62-.62a78 78 0 0 1-4.87-5.32c-4.16-5-7.47-10.51-7.37-15.3a8.6 8.6 0 0 1 .94-3.82 10.36 10.36 0 0 1 3.48-3.73 9.37 9.37 0 0 1 5.54-1.6 5.2 5.2 0 0 1 1.68.42h.11c3 1.34 5.93 5.39 8.09 10.73.18.44.35.89.52 1.34.16.44.31.87.46 1.32s.28.83.4 1.25a50 50 0 0 1 1.24 5 51 51 0 0 1 .91 7.34v2.43c0 1 0 2-.12 3 0 .45-.07.9-.12 1.36 0 .49-.11 1-.18 1.46q-.22 1.53-.59 3.08Zm-9.11-7.9-.48-.46-.62-.62c-.08.55-.17 1.09-.26 1.62l.29.28.13.13 1.75 1.67c.14-.17.29-.33.45-.49l.45-.42c-.53-.57-1.12-1.13-1.71-1.71m0 0-.48-.46-.62-.62c-.08.55-.17 1.09-.26 1.62l.29.28.13.13 1.75 1.67c.14-.17.29-.33.45-.49l.45-.42c-.53-.57-1.12-1.13-1.71-1.71m0 0-.48-.46-.62-.62c-.08.55-.17 1.09-.26 1.62l.29.28.13.13 1.75 1.67c.14-.17.29-.33.45-.49l.45-.42c-.53-.57-1.12-1.13-1.71-1.71"/><path d="M640.13 1401.89c-2.2-2.14-5.78-2.16-9.48-1.29-6.49 1.52-13.37 5.75-13.82 6a43 43 0 0 0-6.42 4.89 48.5 48.5 0 0 0-8.91 11.09 60 60 0 0 0-3.29 6.44c-.32.74-.63 1.48-.92 2.23-.12.27-.22.55-.33.82-.28.75-.56 1.5-.8 2.24-.49 1.4-.91 2.79-1.29 4.14-.21.77-.41 1.52-.58 2.26-.06.22-.11.43-.16.65s-.17.71-.25 1.07l-.17.8h.81c1.25 0 2.74-.08 4.42-.2 1.39-.1 2.92-.26 4.54-.48h.15c.76-.1 1.53-.22 2.33-.36 9.65-1.67 21.66-5.83 29.13-16 .33-.44.64-.89.95-1.34 2.65-4 5.29-10 5.93-15 .4-3.27.03-6.18-1.84-7.96m.49 8.41a38.4 38.4 0 0 1-5.69 13.87 31 31 0 0 1-2.63 3.42c-6.89 7.84-16.8 11.45-25.23 13.09-.37.08-.73.14-1.09.2-.83.15-1.63.28-2.41.39-2.57.36-4.92.55-6.88.64h-1.38l.16-.64a72 72 0 0 1 3-9.47c.15-.4.32-.8.48-1.2l.45-1c3.55-8.11 9.18-16.31 18.13-21.88 5.94-3.7 15.69-7.89 20.42-5.78a4.5 4.5 0 0 1 1.3.87c1.6 1.56 1.9 4.31 1.4 7.47Z"/><path d="M602.59 1415.34c.07-2.49-.3-4.53-1.28-5.72a3.22 3.22 0 0 0-1.92-1.14 6.74 6.74 0 0 0-4.34 1l-.74.42a14 14 0 0 0-1.87 1.3c-.35.29-.69.59-1 .91-2.81 2.81-4.15 6.71-4 11.51q0 .59.06 1.17a.2.2 0 0 1 0 .07 30 30 0 0 0 .52 3.45 47 47 0 0 0 .93 3.53 45 45 0 0 0 2 5.15c.06.13.12.25.17.37.6 1.31 1.09 2.23 1.3 2.59l.09.16.07.13.08.14.3.52.19-.22.26-.3.15-.17c.14-.16.29-.34.43-.52v-.06c.27-.35.55-.72.81-1.12s.66-1 1-1.56a45 45 0 0 0 2.55-5.12c.15-.36.31-.74.46-1.12.16-.38.3-.75.45-1.13a61 61 0 0 0 2.18-7 37 37 0 0 0 1.08-6.67c.06-.16.06-.37.07-.57m-8 21.19a18 18 0 0 1-1 1.58l-.37.48c-.3-.58-.72-1.45-1.19-2.54a43 43 0 0 1-1.78-4.8c-.23-.75-.45-1.52-.64-2.32a28.3 28.3 0 0 1-.76-4.89v-2.54a13 13 0 0 1 3.14-8.1 12 12 0 0 1 1-1 12 12 0 0 1 1-.81c.32-.23.65-.44 1-.65a8.6 8.6 0 0 1 3.26-1.27 2.55 2.55 0 0 1 1.35.17 1.9 1.9 0 0 1 .74.56c.94 1.15 1.18 3.45.9 6.31a31 31 0 0 1-.49 3.33 57 57 0 0 1-2.59 9 50 50 0 0 1-1.3 3.18c-.2.46-.41.9-.62 1.33a33 33 0 0 1-1.66 2.98Z"/><path d="M598.43 1481.84a88.05 88.05 0 0 0-37.55-17l9-19.65a11.64 11.64 0 0 1 14-6.36 80 80 0 0 1 8 2.88 82 82 0 0 1 11 5.62 11.65 11.65 0 0 1 4.57 14.72Z" class="cls-1ne2"/><path d="M636.34 1549a87.37 87.37 0 0 1-40.71 68.77c-1 .65-2.08 1.28-3.14 1.89a87.49 87.49 0 0 1-129.09-58.07c-.4-1.92-.73-3.87-1-5.83a87.46 87.46 0 1 1 173.94-6.76" class="cls-1ne3"/><path d="M581.28 1438.9a13.46 13.46 0 0 1 7.06-7.57 12.06 12.06 0 0 1 16.64 6.88 13.5 13.5 0 0 1-.64 11l-2.14-1.11a11 11 0 0 0 .52-9.08 9.63 9.63 0 0 0-13.38-5.54 11 11 0 0 0-5.8 6.22Z" class="cls-1ne2"/><path d="m635.69 1535.07-138.44-62.28 1.61-1.14c1-.72 2.09-1.41 3.17-2.09l132.9 59.79q.45 2.69.73 5.38Zm-40.06 82.7c-1 .65-2.08 1.28-3.14 1.89l-129.09-58.07c-.4-1.92-.73-3.87-1-5.83l132.89 59.78c.12.74.24 1.46.34 2.23" class="cls-1ne4"/><path d="M1626.72 369c-.3-.31-.61-.61-.93-.91l-.51-.47c-.35-.32-.7-.63-1.07-.93-.45-.37-.91-.75-1.38-1.11a42.6 42.6 0 0 0-8.62-5.14c-.34-.16-.67-.29-1-.43a30 30 0 0 0-3.22-1.11c-4-1.09-7.46-1.05-9.51.74a6 6 0 0 0-.56.57 8.66 8.66 0 0 0-2 4.11A8.35 8.35 0 0 0 1600 372c2.88 3 8.09 4.28 13.46 4.77 2 .18 4.06.25 6 .25h3.48c1.61-.07 3.09-.18 4.34-.29l2-.21h.06l.54-.06.6-.08.89-.12h.07l.72-.11-.37-.59v-.09c-.34-.54-.7-1.08-1.06-1.61-.26-.38-.53-.75-.8-1.11-.43-.57-.87-1.12-1.33-1.66l-.42-.49-.74-.81-.31-.33Zm2.22 4.14c.42.55.82 1.12 1.21 1.7l.24.35v.07h-.49c-.64.08-1.48.17-2.48.27h-.13c-1.1.1-2.38.19-3.77.26h-4.36a63 63 0 0 1-6.57-.34c-4.81-.53-9.33-1.77-11.82-4.34a7.28 7.28 0 0 1-1.82-6.8 7.7 7.7 0 0 1 1.67-3.51 6 6 0 0 1 .56-.57 4.2 4.2 0 0 1 1.28-.76c2.07-.81 5.2-.51 8.68.67.67.23 1.35.48 2.05.77l1 .46a41 41 0 0 1 8.51 5.25c.39.32.78.64 1.17 1l.54.47.64.59.78.76c.24.24.47.49.71.74s.55.58.81.89c.56.73 1.09 1.37 1.59 2.02Z"/><path d="M1627.46 366.1v2.53c.35.8.71 1.57 1.09 2.32.54 1.07 1.09 2.11 1.65 3.09a3 3 0 0 1 .17.29l.32-.61.26-.49c-.87-1.55-1.73-3.23-2.51-5-.11-.24-.22-.48-.32-.73s-.3-.7-.44-1.07c-.07-.18-.15-.37-.21-.56Zm0 0v2.53c.35.8.71 1.57 1.09 2.32.54 1.07 1.09 2.11 1.65 3.09a3 3 0 0 1 .17.29l.32-.61.26-.49c-.87-1.55-1.73-3.23-2.51-5-.11-.24-.22-.48-.32-.73s-.3-.7-.44-1.07c-.07-.18-.15-.37-.21-.56Zm0 0v2.53c.35.8.71 1.57 1.09 2.32.54 1.07 1.09 2.11 1.65 3.09a3 3 0 0 1 .17.29l.32-.61.26-.49c-.87-1.55-1.73-3.23-2.51-5-.11-.24-.22-.48-.32-.73s-.3-.7-.44-1.07c-.07-.18-.15-.37-.21-.56Zm10.54-37.69a5.35 5.35 0 0 0-3-1 5.17 5.17 0 0 0-2.86 1 14.05 14.05 0 0 0-4 5 39 39 0 0 0-2.47 5.95c-.72 2.18-1.1 3.84-1.15 4.05a36 36 0 0 0-.63 11.94 43 43 0 0 0 1.1 5.87c.16.61.33 1.2.5 1.78.4 1.29.84 2.54 1.32 3.76q.35.87.72 1.71v.13c.35.8.71 1.57 1.09 2.32.54 1.07 1.09 2.11 1.65 3.09a3 3 0 0 1 .17.29l.79 1.33.29.46.47.75.36.55.45-.48c.7-.72 1.51-1.6 2.39-2.63.74-.87 1.51-1.83 2.3-2.88.4-.52.79-1.06 1.19-1.63 3.54-5.09 7-11.87 7.59-19.42a27 27 0 0 0-.48-7.6 30 30 0 0 0-.93-3.44 31.8 31.8 0 0 0-2.92-6.45 14.25 14.25 0 0 0-3.94-4.45m6.13 12.11c.26.85.46 1.69.63 2.48a26.5 26.5 0 0 1 .3 8.89c-.86 6.6-4 12.57-7.13 17.15q-.57.82-1.14 1.59a61 61 0 0 1-3.54 4.31l-.75.81c-.09-.15-.19-.3-.27-.45-.41-.66-.82-1.35-1.23-2.06-.87-1.55-1.73-3.23-2.51-5-.11-.24-.22-.48-.32-.73s-.3-.7-.44-1.07c-.07-.18-.15-.37-.21-.56-.55-1.45-1-3-1.47-4.52a38.5 38.5 0 0 1-1.39-9.47 29 29 0 0 1 .09-3.23 30 30 0 0 1 .73-4.92 44 44 0 0 1 2.56-7.75 24 24 0 0 1 2.53-4.49 7.7 7.7 0 0 1 3.16-2.72 3.5 3.5 0 0 1 1.23-.25 4.4 4.4 0 0 1 2.5.83 13.7 13.7 0 0 1 3.8 4.49 33 33 0 0 1 2.82 6.67Zm-16.62 25.58v2.53c.35.8.71 1.57 1.09 2.32.54 1.07 1.09 2.11 1.65 3.09a3 3 0 0 1 .17.29l.32-.61.26-.49c-.87-1.55-1.73-3.23-2.51-5-.11-.24-.22-.48-.32-.73s-.3-.7-.44-1.07c-.07-.18-.15-.37-.21-.56Zm0 0v2.53c.35.8.71 1.57 1.09 2.32.54 1.07 1.09 2.11 1.65 3.09a3 3 0 0 1 .17.29l.32-.61.26-.49c-.87-1.55-1.73-3.23-2.51-5-.11-.24-.22-.48-.32-.73s-.3-.7-.44-1.07c-.07-.18-.15-.37-.21-.56Z"/><path d="M1617.36 354c-1.24-.11-2.9.52-3.82 4.15a13 13 0 0 0-.31 1.8 10 10 0 0 0 0 1.09 10 10 0 0 0 .38 2.74 12.2 12.2 0 0 0 2.62 4.69 20.2 20.2 0 0 0 4.34 3.68l.83.52.85.49.27.14.6.33c.45.22.89.44 1.31.63 1.08.51 2.09.92 2.93 1.23l.13.05c.91.33 1.62.55 2 .67l.2.05h.25l.61.15v-.73c0-.17 0-.36-.06-.54a.2.2 0 0 0 0-.08q0-.31-.09-.63a3.4 3.4 0 0 0-.08-.46c-.08-.46-.19-.93-.32-1.43a39 39 0 0 0-1.5-4.37c-.09-.24-.19-.48-.29-.72s-.31-.72-.48-1.08c0-.11-.1-.23-.16-.35a48 48 0 0 0-1.87-3.63c-.23-.41-.47-.82-.71-1.21-.48-.77-1-1.51-1.46-2.2-.29-.41-.59-.8-.88-1.17-1.88-2.14-3.65-3.65-5.29-3.81m5.91 6.68c.64 1 1.27 2 1.86 3.11s1 2 1.52 3c.27.59.53 1.18.77 1.77a.1.1 0 0 1 0 .08c.25.6.48 1.21.69 1.79.32.91.59 1.78.8 2.62a19 19 0 0 1 .4 2c-.49-.16-1.19-.4-2-.72s-1.56-.62-2.44-1c-.46-.22-.94-.45-1.43-.71-.25-.13-.5-.26-.74-.4l-.43-.24-.52-.31c-3.69-2.24-7.28-5.58-7.55-10.17a11 11 0 0 1 0-1.12 11 11 0 0 1 .31-2c.47-1.83 1.13-2.93 2-3.26a1.55 1.55 0 0 1 .74-.1 3.2 3.2 0 0 1 1.19.39 15.5 15.5 0 0 1 4.46 4.7c.1.19.24.39.37.57"/><path d="M1621.72 380.88a10.73 10.73 0 0 1-.34-8.32 9.7 9.7 0 0 1 13.35-5.63 10.83 10.83 0 0 1 6 6.63l-1.85.59a8.93 8.93 0 0 0-4.9-5.45 7.77 7.77 0 0 0-10.75 4.53 8.88 8.88 0 0 0 .28 6.84Z" class="cls-1ne2"/><path d="M1656 395.38a71.1 71.1 0 0 0-31 11.84l-6.18-16.22a9.37 9.37 0 0 1 4.29-11.61 65 65 0 0 1 6.16-2.92 65.6 65.6 0 0 1 9.42-3.09 9.38 9.38 0 0 1 11 5.72Z" class="cls-1ne3"/><path d="M1728.8 433.49c.64 1.67 1.22 3.34 1.73 5s.9 3.19 1.26 4.79a70.2 70.2 0 0 1 1.74 15.1c0 1.42 0 2.85-.11 4.27q-.06 1.23-.18 2.46a71 71 0 0 1-2 11.38q-.63 2.42-1.43 4.78a71 71 0 0 1-5.71 12.73 70.4 70.4 0 0 1-95.34 26.28c-1.45-.81-2.87-1.68-4.26-2.59a69.5 69.5 0 0 1-9.4-7.37c-.51-.47-1-.95-1.5-1.43-1-1-2-2-2.94-3.1a70.2 70.2 0 0 1-13.23-21.64 71 71 0 0 1-3.17-10.65c-.34-1.55-.62-3.11-.84-4.66-.09-.6-.17-1.21-.23-1.81-.19-1.54-.32-3.09-.4-4.64a69 69 0 0 1 .31-11c.11-1.08.25-2.15.42-3.22.08-.52.17-1 .26-1.56q.26-1.5.6-3a70.8 70.8 0 0 1 5-14.64c.85-1.8 1.76-3.57 2.76-5.29a70.2 70.2 0 0 1 35.67-30.55 70.8 70.8 0 0 1 15.77-4.07 70.1 70.1 0 0 1 31.18 2.77c1.89.61 3.76 1.3 5.59 2.07a70.8 70.8 0 0 1 13.53 7.51q1.79 1.26 3.49 2.64l.21.17a71 71 0 0 1 6.81 6.31 70.2 70.2 0 0 1 10 13.58c.77 1.36 1.49 2.74 2.17 4.16q1.21 2.54 2.24 5.22" class="cls-1ne2"/><circle cx="1616.39" cy="440" r="11.01" class="cls-1ne4"/><circle cx="1665.75" cy="460.41" r="8.67" class="cls-1ne4"/><circle cx="1658.98" cy="415.69" r="4.36" class="cls-1ne4"/><circle cx="1631.36" cy="491.46" r="10.48" class="cls-1ne4"/><circle cx="1713.99" cy="458.37" r="5.03" class="cls-1ne4"/><circle cx="1685.22" cy="496.6" r="14.16" class="cls-1ne4"/><circle cx="1700.7" cy="411.51" r="5.23" class="cls-1ne4"/><circle cx="1636.62" cy="405.03" r="6.06" class="cls-1ne4"/><circle cx="1687.22" cy="438.75" r="10.29" class="cls-1ne4"/><circle cx="1635.93" cy="457.48" r="5.76" class="cls-1ne4"/><circle cx="1658.34" cy="482.84" r="1.71" class="cls-1ne4"/><circle cx="1654.81" cy="508.04" r="5.62" class="cls-1ne4"/><circle cx="1708.12" cy="482.86" r="2.48" class="cls-1ne4"/><circle cx="1719.1" cy="439.31" r="4.13" class="cls-1ne4"/><circle cx="1676.62" cy="394.83" r="1.52" class="cls-1ne4"/><circle cx="1604.22" cy="473.61" r="1.84" class="cls-1ne4"/><path d="M1702 1550c107.21.67 183.92-43.75 193.78-97.83 3.64-20-.15-50.45-17.53-58.42-31.92-14.65-97.68 52.25-176.25 156.25m58.57-103.56c.84-111.91-43.6-191.52-97.85-201.27-20-3.6-50.63.67-58.65 18.89-14.75 33.48 52.28 101.44 156.5 182.38m38.96-385.09c-8.56-88-51.51-147.2-96.73-150.7-16.69-1.3-41.39 4.4-46.45 19.34-9.35 27.45 51.17 75.73 143.18 131.36m13.09 182.65c84.56-45.69 125.71-113.67 110.15-160.43-5.74-17.27-21.87-39.6-39-38.37-31.38 2.25-54.23 83.19-71.15 198.8m-67.39-438.61c50.69-46 67.55-100 48.81-129.73-6.92-11-21.88-23.65-33.49-19.89-21.34 6.91-23.34 66.79-15.32 149.62" class="cls-1ne5"/><path d="M1669.16 1592.8a640.7 640.7 0 0 0 124.45-241.25c29.73-110.91 18.15-205.79 8.24-295.94-8.62-78.34-23.8-139.17-34.58-181.74a1572 1572 0 0 0-67.76-206.45" class="cls-1ne6"/><circle cx="1705.24" cy="817.92" r="19.1" class="cls-1ne3"/><circle cx="1837.14" cy="980.8" r="19.1" class="cls-1ne3"/><circle cx="1746.56" cy="1224.9" r="19.1" class="cls-1ne3"/><circle cx="1843.97" cy="1353.01" r="19.1" class="cls-1ne3"/><path d="M1682 1577.09c-1.64.89-5.48-1.71-25-10.82-50.3-23.53-66.17-25.6-71.15-35.34s3.47-22.3 16.19-22.7c29.96-.95 87.49 64.83 79.96 68.86Z" class="cls-1ne7"/><path d="M1684.72 1576.52c-1.22.93-3.74-1.18-16.81-8.12-33.77-17.93-44.8-18.69-47.62-27.25s4-20.66 13-22c21.17-2.96 57.01 53.14 51.43 57.37Z" class="cls-1ne8"/><path d="M1685 1577.85c1.18 2.2 7.43 2.26 36.13 7 74.12 12.26 93.47 22 106.4 15.1s12.9-26.9-1.06-36.93c-32.74-23.52-146.8 4.79-141.47 14.83Z" class="cls-1ne9"/><path d="M1682.69 1577.12c.59 2 4.86 1.47 24 3.27 49.41 4.64 61.68 12.15 71.17 4.24s11.45-27.36 2.89-35.71c-20.09-19.62-100.75 18.99-98.06 28.2Z" class="cls-1ne10"/><path d="M434.31 1435.87c-107.22.67-183.92-43.75-193.78-97.83-3.65-20 .15-50.45 17.52-58.42 31.95-14.62 97.7 52.26 176.26 156.25m-58.57-103.56c-.83-111.91 43.61-191.52 97.86-201.27 20-3.6 50.62.67 58.65 18.89 14.75 33.48-52.25 101.44-156.51 182.38m-38.95-385.09c8.55-88 51.51-147.2 96.72-150.7 16.7-1.3 41.39 4.4 46.46 19.34 9.31 27.45-51.18 75.73-143.18 131.36m-13.1 182.65C239.13 1084.18 198 1016.2 213.54 969.44c5.75-17.27 21.87-39.6 39-38.37 31.38 2.25 54.23 83.19 71.15 198.8m67.39-438.61c-50.68-46-67.54-100-48.8-129.73 6.92-11 21.88-23.65 33.49-19.89 21.34 6.91 23.33 66.79 15.31 149.62" class="cls-1ne5"/><path d="M467.16 1478.67a640.45 640.45 0 0 1-124.46-241.25c-29.72-110.91-18.15-205.79-8.23-295.94 8.61-78.34 23.8-139.17 34.58-181.74a1572 1572 0 0 1 67.76-206.45" class="cls-1ne6"/><circle cx="431.08" cy="703.79" r="19.1" class="cls-1ne3"/><circle cx="299.18" cy="866.67" r="19.1" class="cls-1ne3"/><circle cx="389.75" cy="1110.77" r="19.1" class="cls-1ne3"/><circle cx="292.35" cy="1238.88" r="19.1" class="cls-1ne3"/><path d="M454.28 1463c1.65.89 5.48-1.71 25-10.82 50.29-23.53 66.16-25.6 71.15-35.34s-3.48-22.3-16.2-22.7c-29.91-.99-87.45 64.79-79.95 68.86Z" class="cls-1ne7"/><path d="M451.59 1462.39c1.23.93 3.74-1.18 16.82-8.12 33.76-17.93 44.8-18.69 47.61-27.25s-4-20.66-13-22c-21.17-2.96-57.02 53.14-51.43 57.37Z" class="cls-1ne8"/><path d="M451.28 1463.72c-1.18 2.2-7.44 2.26-36.14 7-74.12 12.26-93.47 22-106.39 15.1s-12.91-26.9 1.05-36.93c32.78-23.52 146.85 4.79 141.48 14.83Z" class="cls-1ne9"/><path d="M453.62 1463c-.59 2-4.85 1.47-24 3.27-49.41 4.64-61.67 12.15-71.17 4.24s-11.44-27.36-2.89-35.71c20.09-19.63 100.75 18.98 98.06 28.2Z" class="cls-1ne10"/><path d="m1140.15 1491.77-17.37 49.29-35 28.28 37.75 24.49 22.41 47.21 17.38-49.28 34.99-28.29-37.75-24.49zm-94.32 100.89-13.48 32.7-24.65 17.88 24.65 17.89 13.48 32.69 13.48-32.69 24.65-17.89-24.65-17.88zM1104 356.61l19.92 48.31 36.43 26.43-36.43 26.42-19.92 48.32-19.91-48.32-36.43-26.42 36.43-26.43zm98.22 100.99 13.48 32.7 24.65 17.88-24.65 17.89-13.48 32.7-13.48-32.7-24.65-17.89 24.65-17.88z" class="cls-1ne3"/></g></svg>