<svg xmlns="http://www.w3.org/2000/svg" viewBox="0 0 1500 1500" width="300" height="300" fill="none"><defs><style>.cls-1wed1{fill:#21263a}</style></defs><path d="M902.06 191.07c1.85-12.81-7.21-30.68-23.22-33.13-10.12-1.55-20.63 3.42-27.26 12.39 1.2-11.23-3.85-21.95-12.8-27.08-12.65-7.24-28.17-.48-35.16 8.32-.68.86-2.64 3.44-4.02 7.42-4.27 12.28 1.59 24.54 5.44 32.89 5.49 11.92 12.28 27.58 20.66 49.08 10.3-4.44 19.43-8.85 27.36-12.95 12.7-6.58 9.45-5.72 20.12-11.16 14.65-7.47 21.37-9.4 25.88-17.29 2.34-4.09 2.9-7.73 3.01-8.49Zm75.05-37.47c2.84-6.85.34-18.07-8.2-21.7-5.4-2.29-11.94-1.02-16.9 3.02 2.26-6.07.97-12.74-3.27-16.86-6-5.82-15.58-4.26-20.71-.36-.5.38-1.95 1.54-3.29 3.55-4.11 6.22-2.59 13.86-1.64 19.04 1.36 7.4 2.91 17.07 4.52 30.19 6.35-1.01 12.05-2.16 17.03-3.32 7.99-1.85 6.06-1.84 12.76-3.35 9.2-2.07 13.21-2.19 16.83-5.94 1.88-1.94 2.71-3.89 2.88-4.29Zm-207.79-19.74c-2.38-5.54-10.32-10.43-17.27-7.52-4.39 1.84-7.36 6.37-7.82 11.55-2.25-4.75-6.86-7.78-11.66-7.64-6.78.2-11.3 6.65-11.94 11.85-.06.51-.21 2.01.21 3.92 1.29 5.92 6.6 9.36 10.15 11.74 5.08 3.4 11.58 7.97 20.13 14.47 3.01-4.27 5.57-8.24 7.72-11.79 3.45-5.7 2.36-4.57 5.28-9.32 4-6.53 6.2-8.93 6.08-13.15-.07-2.19-.73-3.78-.87-4.11Zm227.96 352.68c-.34 2.74-.99 5.41-1.97 8H807.48c1.52-2.05 3.41-4.6 5.74-7.8.05-.07.1-.13.15-.2 2.65-3.64 5.65-7.66 10.8-8.87 1.55-.37 2.9-.38 3.8-.34 1.3-4.94 2.88-12.38 3.31-21.51.73-15.13 1.09-22.72-3.72-27.74-6.11-6.38-13.85-1.62-40.05-7.49-13.51-3.02-16.44-5.83-17.13-8.48-1.37-5.23 5.53-11.73 2.4-16.9-.69-1.14-2.06-2.57-1.74-4.41.26-1.46 1.5-2.48 2.53-3.12-1.15-2.43-.96-3.96-.53-4.92.82-1.84 2.71-2.08 4.03-4.35.78-1.33.96-2.68.99-3.64-3.58-2.61-6.58-5.65-6.02-8.42.46-2.35 3.06-3.06 7.57-6.16 4.17-2.87 9.13-6.27 11.53-11.37 2.49-5.3-.42-6.82 2.09-15.24 1.14-3.8 2.45-4.54 4.76-10.4.16-.4.31-.79.44-1.17.28-.74.53-1.43.77-2.11.73-2.16 1.26-4 1.63-5.39-1.25-3.05-2.59-7.6-2.09-12.92v-.02c.02-.28.05-.56.09-.85 1.21-9.45 7.88-16.41 14.37-21.19 4.08-3.01 8.08-5.15 10.63-6.51 22.5-12.07 54.95-12.45 79.15-1.43 10.15 4.63 18.85 11.26 24.76 19.88 3.92 5.72 10.34 15.09 10.85 27.87.44 11.19-3.96 17.18-1.15 29.07 1.37 5.85 3.56 7.32 5.88 11.7 0 0 .93 1.75 2.06 4.83 3.09 8.38-.46 29.04-.46 29.04 3.13 2.9 57.26 54.01 52.36 92.56M779.69 271.67c-1.22 9.91-4.53 17.52-6.99 22.17-1.22-5.25-2.44-10.5-3.66-15.74-.1 8.08-.88 14.67-1.65 19.44-.92 5.76-1.75 8.34-3.01 10.82-2.35 4.65-4.18 4.99-6.05 8.6-2.3 4.46-1.94 8.66-1.17 16.31 1.22 12.21 4.45 16.88 1.9 19.54-1.08 1.12-3.47 2.17-9.63.42-1.86 1.69-2.52 3.27-2.79 4.34-.74 2.92.68 4.91-.53 7.21-.67 1.28-1.8 1.99-2.53 2.36.26 1.27.42 3.08-.55 4.5-1.06 1.55-2.84 1.78-3.89 2.15-5.44 1.96-3.1 12.26-7.97 16.75-5.38 4.95-17.45.9-24.4-1.43-10.05-3.37-13.63-7.4-16.39-5.5-2.85 1.96-.28 7.12-2.7 19.52-.74 3.74-1.23 4.54-1.72 6.29 0 0-.27 1.05-.5 2.32-.33 1.88-.53 6.7-.15 13.13 2.05.54 4.95 1.65 7.41 4.1 3.35 3.35 4.04 7.37 4.96 11.34 1.34 5.85 1.98 6.43 3.1 9.22 1.23 3.07 2.04 5.67 2.93 9.52 2.41 10.47 4.51 19.6 6.24 27.49.62 2.82 1.2 5.49 1.72 8h-178.2c.51-2.62 1.15-5.3 1.9-8 8.48-30.65 30.82-65.26 41.09-77.38 4.59-5.42 14.67-17.33 27.6-16.6 3.86.22 6.98 1.5 9.06 2.59 3.35-6.02 5.88-11.08 7.55-14.54 0 0 16.87-34.93 14.91-55.03-.03-.27-.05-.47-.07-.59-.49-4.67-1.33-8.52-2.04-11.22-1.2-1.06-2.89-2.65-4.7-4.76-5.87-6.82-9.02-14.35-11.47-23.85-4.37-16.9-6.61-25.49-4.07-36.59 1.75-7.65 10.39-17.92 27.65-38.46 1.66-1.98 4.97-5.83 10.57-8.41 3.38-1.56 6.43-2.12 8.34-2.35 2.61-3.02 6.84-7.05 13.01-9.51 9.8-3.9 20.52-2.25 41.31 7.2 34.97 15.88 55.53 25.23 62.89 46.92 4.39 12.94 2.83 26.6 2.69 27.71" class="cls-1wed1"/><path d="M804.25 327.85c-3.65-2.92-9.7-8.81-10.78-17.2-1.81-13.96 10.72-30.23 31.9-36.07-18.94 8.95-29.97 25.01-27.87 39.31.45 3.06 1.83 8.27 6.76 13.96Z" class="cls-1wed1"/><path d="M814.85 328.91c-.79-.26-3.82-1.34-5.73-4.56-1.62-2.73-1.48-5.39-1.39-6.3-.2.7-.37 1.54-.41 2.5-.12 3.12 1.2 5.5 1.92 6.61-.33.02-.94.02-1.62-.27a3.55 3.55 0 0 1-1.69-1.55c.08.32.75 2.83 3.29 3.98 2.83 1.28 5.42-.29 5.62-.41Z" style="fill:#03071e"/><path d="m1008.84 488.54-1.15-2H521.93L279.05 907.22l241.73 418.68 1.15 2h485.76l241.72-418.68 1.16-2zm-5.77 831.36H526.55L288.29 907.22l238.26-412.68h476.52l238.26 412.68z" class="cls-1wed1"/><path d="m880.55 1385.77-472.3-139.04-115.74-478.55 356.56-339.51 472.3 139.04 115.74 478.55zM423.3 1232.4l452.37 133.17 341.51-325.17-110.85-458.35-452.37-133.17-341.51 325.17z" style="fill:#7989db"/><path d="M1088.44 1230.71c-4.83-4.46-39.16-36.67-38-61.38.13-2.77.46-9.74 5.04-13 6.16-4.38 16.61.36 21.47 4.15 13.17 10.26 17.5 38.51 11.49 70.22Zm30.08-87.7c-4.12-4.13-33.43-33.96-31.41-55.46.23-2.41.8-8.47 5.01-11.09 5.67-3.51 14.79 1.15 18.97 4.7 11.32 9.61 14.06 34.48 7.43 61.84Zm16.09-90.41c-4.17-4.93-33.77-40.45-29.35-63.1.5-2.54 1.74-8.93 6.7-11.18 6.66-3.02 16.34 3.11 20.63 7.42 11.63 11.68 12.16 38.54 2.02 66.86m10.17 62.64c1.31-5.06 11-41.12 30.6-42.04 2.19-.1 7.72-.36 12.27 3.82 6.11 5.63 7.07 16.18 6.29 21.22-2.1 13.65-22 20.21-49.15 17Zm-24.32 94.76c3.08-4.21 25.48-33.98 47.13-26.75 2.43.81 8.53 2.85 12.11 8.65 4.81 7.8 2.39 18.08-.11 22.48-6.77 11.92-30.6 9.85-59.13-4.38m-52.15 81.26c5.02-2.6 41.19-20.75 62.95-3.84 2.44 1.89 8.58 6.67 10.48 13.87 2.57 9.68-3.94 18.4-8.37 21.46-12 8.29-38.12-4.7-65.07-31.49Z" class="cls-1wed1"/><path d="M1008.15 1329.97c-.45.04-.95-.2-1.25-.65-.4-.59-.31-1.33.21-1.65 33.54-20.26 93.36-68.25 117.13-162.1 10.52-41.52 12.76-86.64 6.67-134.09-.09-.67.37-1.2 1.03-1.17.65.03 1.25.6 1.34 1.27 6.13 47.75 3.87 93.16-6.72 134.96-11.07 43.71-31 82.08-59.21 114.06-17.2 19.49-36.98 36.05-58.77 49.22-.13.08-.27.12-.42.14ZM311.47 777.35c4.68-1.66 38.16-13.86 45.51-31.43.82-1.97 2.9-6.93.91-10.57-2.67-4.9-11.19-4.71-15.68-3.53-12.15 3.22-24.33 21.62-30.75 45.53Zm8.8-70.15c4.11-1.65 33.45-13.68 39.17-29.28.64-1.75 2.25-6.15.31-9.23-2.62-4.14-10.23-3.62-14.19-2.39-10.71 3.32-20.71 19.84-25.29 40.9m19-67.85c4.4-2.19 35.81-18.1 40.31-35.22.5-1.92 1.77-6.75-.79-9.8-3.44-4.1-11.91-2.72-16.19-.99-11.59 4.67-20.78 23.23-23.33 46.01m-27.38 40.64c.79-3.92 6.19-31.96-6.57-38.47-1.43-.73-5.03-2.56-9.43-1-5.92 2.1-10.03 9.17-11.17 12.92-3.09 10.15 8.02 20.68 27.17 26.55m-14.95 73.35c-.67-3.86-5.81-31.31-22.62-32.75-1.88-.16-6.62-.57-10.92 2.41-5.77 4-7.54 11.89-7.32 15.71.59 10.34 17.16 16.02 40.85 14.63Zm8.04 72.26c-2.49-3.31-20.63-26.79-40.7-21.5-2.25.59-7.91 2.08-11.55 6.53-4.89 5.98-3.43 14.01-1.48 17.47 5.28 9.37 26.95 8.12 53.72-2.5Z" class="cls-1wed1"/><path d="M332.35 870.58c.29.16.7.15 1.05-.08.46-.29.64-.84.4-1.21-15.69-24.16-39.78-75.51-24.77-148.06 6.64-32.1 19.98-64.23 39.65-95.49.28-.44.14-.94-.3-1.12s-1.03.04-1.31.48c-19.79 31.46-33.22 63.8-39.9 96.12-6.99 33.79-6.33 66.51 1.96 97.24 5.06 18.74 12.79 36.2 22.99 51.9.06.09.14.17.24.22Zm829.58-187.8c-2.53-.7-20.58-5.89-24.47-14.87-.44-1.01-1.53-3.54-.44-5.53 1.47-2.68 6.08-2.89 8.5-2.43 6.56 1.25 13.06 10.48 16.41 22.83m-4.41-36.6c-2.21-.72-18.03-5.97-21.05-13.97-.34-.9-1.19-3.15-.12-4.85 1.44-2.28 5.56-2.28 7.69-1.78 5.78 1.35 11.11 9.68 13.48 20.6m-9.94-35.01c-2.37-.99-19.29-8.21-21.64-17.06-.26-.99-.93-3.49.48-5.19 1.88-2.28 6.46-1.87 8.77-1.12 6.25 2.03 11.13 11.47 12.39 23.36Zm14.61 20.38c-.41-2.04-3.19-16.59 3.75-20.49.78-.44 2.73-1.53 5.11-.87 3.19.89 5.38 4.46 5.98 6.39 1.62 5.23-4.44 11.18-14.84 14.97m7.72 38.06c.38-2.05 3.3-16.7 12.41-18.07 1.02-.15 3.59-.54 5.9.87 3.1 1.89 4.02 5.98 3.88 8-.37 5.46-9.37 9.06-22.18 9.2Zm-4.71 38.32c1.37-1.84 11.3-14.86 22.13-12.81 1.21.23 4.27.81 6.22 3.01 2.62 2.97 1.78 7.25.71 9.14-2.9 5.12-14.63 5.26-29.06.66" class="cls-1wed1"/><path d="M1150.16 732.62c-.16.1-.38.1-.57 0-.25-.14-.34-.42-.21-.62 8.62-13.29 21.91-41.21 14.15-78.84-3.43-16.65-10.49-33.07-20.97-48.8a.396.396 0 0 1 .17-.6c.24-.11.56-.02.71.21 10.55 15.83 17.65 32.36 21.11 49.12 3.61 17.53 3.09 34.77-1.55 51.25-2.83 10.05-7.11 19.52-12.71 28.16-.03.05-.08.09-.13.13Z" class="cls-1wed1"/></svg>