<svg xmlns="http://www.w3.org/2000/svg" viewBox="0 0 1500 1500" width="300" height="300" fill="none"><defs><style>.cls-3wed1{fill:#07a599}.cls-3wed2{fill:#008d87}.cls-3wed3{fill:#ff5050}</style></defs><path d="M1209.32 1207.39c-259.59.57-657.99 4.29-914.62 4.27l-4.27.02v-4.29l-.93-457.31-.3-457.31v-5.5c155.08.09 541.34.3 691.47.68l228.66.53h4.31l-.01 4.29c-.04 255.6-3.25 656.16-4.29 914.62Zm0 0c-2.21-259.24-3.12-658.4-4.29-914.62l4.29 4.29c-255.29.28-656.42 1.46-914.63 1.2l5.5-5.5-.3 457.31-.92 457.31-4.28-4.28c255.07 1.22 656.63 2.41 914.62 4.28Z" class="cls-3wed2"/><path d="M722.97 1208.18c-85.48-20.43-162.83-17.64-246.75 8.1-35.18 10.01-70.15 23.48-106.88 27.37-48.77 5.53-95.42-13.49-129.13-48.51 30.76 27.83 71.36 45.67 113.08 43.91 41.89-1.73 80.96-18.06 120.96-29.47 40.33-11.95 82.25-20.02 124.46-20.19 42.08-.37 84.11 6.34 124.25 18.8Z" class="cls-3wed2"/><path d="M686.34 1198.75c10.73 18.98 9.67 30.31 6.8 37.11-6.16 14.59-23.76 15.8-35.82 35.94-4.78 7.99-6.71 15.63-7.59 20.55-2.77-2.6-20.11-19.37-18.37-42.82 1.84-24.85 24.37-47.18 54.98-50.78" class="cls-3wed2"/><path d="M685.82 1199.24c-2.84 16.93-9.11 23.33-14.24 26.07-11 5.87-22.37-2.12-39.73 4.22-6.88 2.51-11.85 6.24-14.83 8.81-.41-2.96-2.7-21.82 10-35.3 13.45-14.29 38.3-16.77 58.8-3.8" class="cls-3wed1"/><path d="M302.19 1234.07c8.97 12.75 9 20.89 7.44 25.93-3.36 10.82-15.8 12.91-22.98 28.08-2.84 6.02-3.68 11.59-3.96 15.16-2.15-1.65-15.67-12.38-16.07-29.19-.43-17.82 14.04-35.28 35.57-39.98" class="cls-3wed2"/><path d="M301.85 1234.45c-.84 12.25-4.85 17.24-8.31 19.55-7.42 4.95-16.07.06-27.98 5.78-4.72 2.27-8 5.27-9.94 7.31-.5-2.08-3.45-15.34 4.64-25.82 8.57-11.11 26.08-14.62 41.58-6.82Zm3.64 2.87c7.24-7.3 8.33-12.53 8.02-15.93-.67-7.29-8.12-9.89-10.58-20.37-.98-4.16-.76-7.83-.47-10.15-1.55.85-11.35 6.39-13.81 17.16-2.6 11.42 4.09 24.11 16.84 29.29m112.17-5.48c2.48-15.68-.87-23.21-4.33-27.19-7.42-8.53-19.09-5.07-31.63-15.97-4.97-4.33-8.02-9.12-9.74-12.29-1.18 2.46-8.46 18.24-1.82 33.95 7.04 16.65 26.87 26.5 47.52 21.5" class="cls-3wed1"/><path d="M245.52 1199.76c7.24-7.3 8.33-12.53 8.02-15.93-.67-7.29-8.12-9.89-10.58-20.37-.98-4.16-.76-7.83-.47-10.15-1.55.85-11.35 6.39-13.81 17.16-2.6 11.42 4.09 24.11 16.84 29.29m301.27-3.17c13.68-13.27 14.57-22.85 12.92-29.1-3.52-13.41-20.47-18.32-28.8-37.61a47.4 47.4 0 0 1-3.9-18.64c-3.14 1.53-22.88 11.5-25.17 31.24-2.42 20.91 15.74 44.34 44.95 54.11m-123.07 34.93c8.13 8.88 8.05 14.66 6.52 18.27-3.28 7.75-14.85 9.49-21.73 20.42-2.73 4.33-3.58 8.31-3.9 10.85-1.97-1.13-14.35-8.47-14.48-20.41-.14-12.65 13.54-25.35 33.59-29.13m-2.42.21c6.12-6.52 6.54-11.2 5.82-14.25-1.54-6.54-9.07-8.9-12.73-18.31a25 25 0 0 1-1.69-9.1c-1.4.75-10.21 5.68-11.28 15.32-1.13 10.22 6.9 21.63 19.87 26.33Z" class="cls-3wed2"/><path d="M546.36 1196.07c.1-14.6-4.92-21.27-9.45-24.67-9.72-7.29-22.16-3.23-37.99-12.32a51.7 51.7 0 0 1-12.96-10.56c-.9 2.35-6.33 17.4 3.75 31.34 10.68 14.78 34.47 22.36 56.65 16.21m68.02-2.94c9.02-9.45 9.22-15.75 7.78-19.72-3.08-8.53-15.23-10.73-21.96-22.81a28.75 28.75 0 0 1-3.59-11.92c-2.14 1.18-15.58 8.84-16.29 21.84-.76 13.77 13.07 27.97 34.06 32.61" class="cls-3wed1"/><path d="M781.05 1208.18c40.14-12.46 82.17-19.17 124.25-18.8 42.21.16 84.13 8.24 124.46 20.19 39.99 11.41 79.07 27.74 120.96 29.48 41.72 1.76 82.32-16.08 113.08-43.91-33.68 35.01-80.39 54.05-129.13 48.51-36.73-3.89-71.7-17.36-106.88-27.37-83.96-25.75-161.26-28.53-246.75-8.1Z" class="cls-3wed2"/><path d="M817.68 1198.75c-10.73 18.98-9.67 30.31-6.8 37.11 6.16 14.59 23.76 15.8 35.82 35.94 4.78 7.99 6.71 15.63 7.59 20.55 2.77-2.6 20.11-19.37 18.37-42.82-1.84-24.85-24.37-47.18-54.98-50.78" class="cls-3wed2"/><path d="M818.2 1199.24c2.84 16.93 9.11 23.33 14.24 26.07 11 5.87 22.37-2.12 39.73 4.22 6.88 2.51 11.85 6.24 14.83 8.81.41-2.96 2.7-21.82-10-35.3-13.45-14.29-38.3-16.77-58.8-3.8" class="cls-3wed1"/><path d="M1201.83 1234.07c-8.97 12.75-9 20.89-7.44 25.93 3.36 10.82 15.8 12.91 22.98 28.08 2.84 6.02 3.68 11.59 3.96 15.16 2.15-1.65 15.67-12.38 16.07-29.19.43-17.82-14.04-35.28-35.57-39.98" class="cls-3wed2"/><path d="M1202.17 1234.45c.84 12.25 4.85 17.24 8.31 19.55 7.42 4.95 16.07.06 27.98 5.78 4.72 2.27 8 5.27 9.94 7.31.5-2.08 3.45-15.34-4.64-25.82-8.57-11.11-26.08-14.62-41.58-6.82Z" class="cls-3wed1"/><path d="M1198.53 1237.32c-7.24-7.3-8.33-12.53-8.02-15.93.67-7.29 8.12-9.89 10.58-20.37.98-4.16.76-7.83.47-10.15 1.55.85 11.35 6.39 13.81 17.16 2.6 11.42-4.09 24.11-16.84 29.29m-112.17-5.48c-2.48-15.68.87-23.21 4.33-27.19 7.42-8.53 19.09-5.07 31.63-15.97 4.97-4.33 8.02-9.12 9.74-12.29 1.18 2.46 8.46 18.24 1.82 33.95-7.04 16.65-26.87 26.5-47.52 21.5" class="cls-3wed1"/><path d="M1258.5 1199.76c-7.24-7.3-8.33-12.53-8.02-15.93.67-7.29 8.12-9.89 10.58-20.37.98-4.16.76-7.83.47-10.15 1.55.85 11.35 6.39 13.81 17.16 2.6 11.42-4.09 24.11-16.84 29.29m-301.27-3.17c-13.68-13.27-14.57-22.85-12.92-29.1 3.52-13.41 20.47-18.32 28.8-37.61 3.3-7.65 3.88-14.39 3.9-18.64 3.14 1.53 22.88 11.5 25.17 31.24 2.42 20.91-15.74 44.34-44.95 54.11m123.07 34.93c-8.13 8.88-8.05 14.66-6.52 18.27 3.28 7.75 14.85 9.49 21.73 20.42 2.73 4.33 3.58 8.31 3.9 10.85 1.97-1.13 14.35-8.47 14.48-20.41.14-12.65-13.54-25.35-33.59-29.13m2.42.21c-6.12-6.52-6.54-11.2-5.82-14.25 1.54-6.54 9.07-8.9 12.73-18.31 1.45-3.73 1.69-7.02 1.69-9.1 1.4.75 10.21 5.68 11.28 15.32 1.13 10.22-6.9 21.63-19.87 26.33Z" class="cls-3wed2"/><path d="M957.66 1196.07c-.1-14.6 4.92-21.27 9.45-24.67 9.72-7.29 22.16-3.23 37.99-12.32 6.28-3.6 10.49-7.78 12.96-10.56.9 2.35 6.33 17.4-3.75 31.34-10.68 14.78-34.47 22.36-56.65 16.21m-68.02-2.94c-9.02-9.45-9.22-15.75-7.78-19.72 3.08-8.53 15.23-10.73 21.96-22.81 2.67-4.79 3.38-9.15 3.59-11.92 2.14 1.18 15.58 8.84 16.29 21.84.76 13.77-13.07 27.97-34.06 32.61" class="cls-3wed1"/><path d="M792.61 1175.86c-2.23-10.58-14.48-22-27.75-19.32-8.38 1.69-15.2 8.61-17.83 17.56-2.29-9.16-9.33-16.12-17.83-17.56-12.01-2.05-22.24 7.72-25.2 16.64-.29.87-1.08 3.46-1.02 6.98.19 10.87 8.31 18.8 13.73 24.24 7.74 7.77 17.57 18.11 30.32 32.57 6.8-6.45 12.7-12.53 17.74-18.03 8.08-8.82 5.77-7.2 12.58-14.54 9.35-10.07 14.07-13.52 15.33-21.01.66-3.88.05-6.9-.08-7.53Z" class="cls-3wed3"/><path d="M718.95 293.7c-85.48-20.43-162.83-17.64-246.75 8.1-35.18 10.01-70.15 23.48-106.88 27.37-48.77 5.53-95.42-13.49-129.13-48.51 30.76 27.83 71.36 45.67 113.08 43.91 41.89-1.73 80.96-18.06 120.96-29.47 40.33-11.95 82.25-20.02 124.46-20.19 42.08-.37 84.11 6.34 124.25 18.8Z" class="cls-3wed2"/><path d="M682.32 284.28c10.73 18.98 9.67 30.31 6.8 37.11-6.16 14.59-23.76 15.8-35.82 35.94-4.78 7.99-6.71 15.63-7.59 20.55-2.77-2.6-20.11-19.37-18.37-42.82 1.84-24.85 24.37-47.18 54.98-50.78" class="cls-3wed2"/><path d="M681.8 284.76c-2.84 16.93-9.11 23.33-14.24 26.07-11 5.87-22.37-2.12-39.73 4.22-6.88 2.51-11.85 6.24-14.83 8.81-.41-2.96-2.7-21.82 10-35.3 13.45-14.29 38.3-16.77 58.8-3.8" class="cls-3wed1"/><path d="M298.17 319.59c8.97 12.75 9 20.89 7.44 25.93-3.36 10.82-15.8 12.91-22.98 28.08-2.84 6.02-3.68 11.59-3.96 15.16-2.15-1.65-15.67-12.38-16.07-29.19-.43-17.82 14.04-35.28 35.57-39.98" class="cls-3wed2"/><path d="M297.83 319.97c-.84 12.25-4.85 17.24-8.31 19.55-7.42 4.95-16.07.06-27.98 5.78-4.72 2.27-8 5.27-9.94 7.31-.5-2.08-3.45-15.34 4.64-25.82 8.57-11.11 26.08-14.62 41.58-6.82Z" class="cls-3wed1"/><path d="M301.47 322.84c7.24-7.3 8.33-12.53 8.02-15.93-.67-7.29-8.12-9.89-10.58-20.37-.98-4.16-.76-7.83-.47-10.15-1.55.85-11.35 6.39-13.81 17.16-2.6 11.42 4.09 24.11 16.84 29.29m112.17-5.47c2.48-15.68-.87-23.21-4.33-27.19-7.42-8.53-19.09-5.07-31.63-15.97-4.97-4.33-8.02-9.12-9.74-12.29-1.18 2.46-8.46 18.24-1.82 33.95 7.04 16.65 26.87 26.5 47.52 21.5" class="cls-3wed1"/><path d="M241.5 285.29c7.24-7.3 8.33-12.53 8.02-15.93-.67-7.29-8.12-9.89-10.58-20.37-.98-4.16-.76-7.83-.47-10.15-1.55.85-11.35 6.39-13.81 17.16-2.6 11.42 4.09 24.11 16.84 29.29m301.27-3.18c13.68-13.27 14.57-22.85 12.92-29.1-3.52-13.41-20.47-18.32-28.8-37.61a47.4 47.4 0 0 1-3.9-18.64c-3.14 1.53-22.88 11.5-25.17 31.24-2.42 20.91 15.74 44.34 44.95 54.11M419.7 317.04c8.13 8.88 8.05 14.66 6.52 18.27-3.28 7.75-14.85 9.49-21.73 20.42-2.73 4.33-3.58 8.31-3.9 10.85-1.97-1.13-14.35-8.47-14.48-20.41-.14-12.65 13.54-25.35 33.59-29.13m-2.42.21c6.12-6.52 6.54-11.2 5.82-14.25-1.54-6.54-9.07-8.9-12.73-18.31a25 25 0 0 1-1.69-9.1c-1.4.75-10.21 5.68-11.28 15.32-1.13 10.22 6.9 21.63 19.87 26.33Z" class="cls-3wed2"/><path d="M542.34 281.6c.1-14.6-4.92-21.27-9.45-24.67-9.72-7.29-22.16-3.23-37.99-12.32a51.7 51.7 0 0 1-12.96-10.56c-.9 2.35-6.33 17.4 3.75 31.34 10.68 14.78 34.47 22.36 56.65 16.21m68.02-2.95c9.02-9.45 9.22-15.75 7.78-19.72-3.08-8.53-15.23-10.73-21.96-22.81a28.75 28.75 0 0 1-3.59-11.92c-2.14 1.18-15.58 8.84-16.29 21.84-.76 13.77 13.07 27.97 34.06 32.61" class="cls-3wed1"/><path d="M777.03 293.7c40.14-12.46 82.17-19.17 124.25-18.8 42.21.16 84.13 8.24 124.46 20.19 39.99 11.41 79.07 27.74 120.96 29.48 41.72 1.76 82.32-16.08 113.08-43.91-33.68 35.01-80.39 54.05-129.13 48.51-36.73-3.89-71.7-17.36-106.88-27.37-83.96-25.75-161.26-28.53-246.75-8.1Z" class="cls-3wed2"/><path d="M813.66 284.28c-10.73 18.98-9.67 30.31-6.8 37.11 6.16 14.59 23.76 15.8 35.82 35.94 4.78 7.99 6.71 15.63 7.59 20.55 2.77-2.6 20.11-19.37 18.37-42.82-1.84-24.85-24.37-47.18-54.98-50.78" class="cls-3wed2"/><path d="M814.18 284.76c2.84 16.93 9.11 23.33 14.24 26.07 11 5.87 22.37-2.12 39.73 4.22 6.88 2.51 11.85 6.24 14.83 8.81.41-2.96 2.7-21.82-10-35.3-13.45-14.29-38.3-16.77-58.8-3.8" class="cls-3wed1"/><path d="M1197.81 319.59c-8.97 12.75-9 20.89-7.44 25.93 3.36 10.82 15.8 12.91 22.98 28.08 2.84 6.02 3.68 11.59 3.96 15.16 2.15-1.65 15.67-12.38 16.07-29.19.43-17.82-14.04-35.28-35.57-39.98" class="cls-3wed2"/><path d="M1198.15 319.97c.84 12.25 4.85 17.24 8.31 19.55 7.42 4.95 16.07.06 27.98 5.78 4.72 2.27 8 5.27 9.94 7.31.5-2.08 3.45-15.34-4.64-25.82-8.57-11.11-26.08-14.62-41.58-6.82Z" class="cls-3wed1"/><path d="M1194.51 322.84c-7.24-7.3-8.33-12.53-8.02-15.93.67-7.29 8.12-9.89 10.58-20.37.98-4.16.76-7.83.47-10.15 1.55.85 11.35 6.39 13.81 17.16 2.6 11.42-4.09 24.11-16.84 29.29m-112.17-5.47c-2.48-15.68.87-23.21 4.33-27.19 7.42-8.53 19.09-5.07 31.63-15.97 4.97-4.33 8.02-9.12 9.74-12.29 1.18 2.46 8.46 18.24 1.82 33.95-7.04 16.65-26.87 26.5-47.52 21.5" class="cls-3wed1"/><path d="M1254.48 285.29c-7.24-7.3-8.33-12.53-8.02-15.93.67-7.29 8.12-9.89 10.58-20.37.98-4.16.76-7.83.47-10.15 1.55.85 11.35 6.39 13.81 17.16 2.6 11.42-4.09 24.11-16.84 29.29m-301.27-3.18c-13.68-13.27-14.57-22.85-12.92-29.1 3.52-13.41 20.47-18.32 28.8-37.61 3.3-7.65 3.88-14.39 3.9-18.64 3.14 1.53 22.88 11.5 25.17 31.24 2.42 20.91-15.74 44.34-44.95 54.11m123.07 34.93c-8.13 8.88-8.05 14.66-6.52 18.27 3.28 7.75 14.85 9.49 21.73 20.42 2.73 4.33 3.58 8.31 3.9 10.85 1.97-1.13 14.35-8.47 14.48-20.41.14-12.65-13.54-25.35-33.59-29.13m2.42.21c-6.12-6.52-6.54-11.2-5.82-14.25 1.54-6.54 9.07-8.9 12.73-18.31 1.45-3.73 1.69-7.02 1.69-9.1 1.4.75 10.21 5.68 11.28 15.32 1.13 10.22-6.9 21.63-19.87 26.33Z" class="cls-3wed2"/><path d="M953.64 281.6c-.1-14.6 4.92-21.27 9.45-24.67 9.72-7.29 22.16-3.23 37.99-12.32 6.28-3.6 10.49-7.78 12.96-10.56.9 2.35 6.33 17.4-3.75 31.34-10.68 14.78-34.47 22.36-56.65 16.21m-68.02-2.95c-9.02-9.45-9.22-15.75-7.78-19.72 3.08-8.53 15.23-10.73 21.96-22.81 2.67-4.79 3.38-9.15 3.59-11.92 2.14 1.18 15.58 8.84 16.29 21.84.76 13.77-13.07 27.97-34.06 32.61" class="cls-3wed1"/><path d="M788.59 261.38c-2.23-10.58-14.48-22-27.75-19.32-8.38 1.69-15.2 8.61-17.83 17.56-2.29-9.16-9.33-16.12-17.83-17.56-12.01-2.05-22.24 7.72-25.2 16.64-.29.87-1.08 3.46-1.02 6.98.19 10.87 8.31 18.8 13.73 24.24 7.74 7.77 17.57 18.11 30.32 32.57 6.8-6.45 12.7-12.53 17.74-18.03 8.08-8.82 5.77-7.2 12.58-14.54 9.35-10.07 14.07-13.52 15.33-21.01.66-3.88.05-6.9-.08-7.53Z" class="cls-3wed3"/></svg>