<svg xmlns="http://www.w3.org/2000/svg" viewBox="0 0 2000 2000" width="300" height="300" fill="none"><defs><style>.cls-chr31{fill:#589363}.cls-chr32{fill:#27472e}.cls-chr33{fill:#efc859}</style></defs><path d="M381.84 713.85h33.7v1197.14h-33.7z" class="cls-chr32"/><path d="M381.84 1877.29h1197.14v33.7H381.84z" class="cls-chr32"/><rect width="952.47" height="33.7" x="13.25" y="637.35" class="cls-chr32" rx="16.85" ry="16.85" transform="rotate(-37.18 489.42 654.154)"/><rect width="33.7" height="952.47" x="1479.82" y="177.97" class="cls-chr32" rx="16.85" ry="16.85" transform="rotate(-52.82 1496.773 654.192)"/><path d="M1570.61 713.85h33.7v1197.14h-33.7z" class="cls-chr32"/><path d="m993.92 89.01 27.85 201.72 116.82 19.51-116.82 33.43-27.85 187.79L965 343.67l-115.75-33.43L965 290.73z" class="cls-chr33"/><path d="m1090.74 217.83-73.41 92.4 69 96.82-92.41-77.35-96.82 72.94 68.83-92.41-64.41-96.81 92.4 67.05z" class="cls-chr33"/><path d="M1591.99 1713.2c-5.68 2.96-10.21 3.23-13.15 3.01-14.88-1.14-19.23-17.2-43.5-33.21-4.69-3.09-6.64-3.89-6.57-5.39.26-6.06 33.15-19.77 51.73 1.55 10.36 11.89 11.35 29.03 11.49 34.05Zm3.71 31.09c4.3 5.44 8.39 7.84 11.18 9.04 14.07 6.04 23.16-6.68 50.57-9.87 5.3-.62 7.35-.42 7.76-1.84 1.67-5.71-24.31-34.03-48.17-23.24-13.3 6.02-19.62 21.34-21.34 25.9Zm8.97-60.19c4.22 5.52 8.28 8.02 11.05 9.27 13.99 6.33 23.24-6.2 50.7-8.83 5.31-.51 7.35-.27 7.79-1.68 1.75-5.68-23.85-34.52-47.84-24.23-13.38 5.74-19.91 20.94-21.69 25.46Zm19.69-56.29c4.33 5.4 8.43 7.78 11.22 8.95 14.1 5.93 23.12-6.86 50.52-10.27 5.3-.66 7.34-.48 7.75-1.9 1.64-5.73-24.49-33.84-48.29-22.86-13.27 6.12-19.51 21.5-21.21 26.07Zm26.82-55.27c4.25 5.49 8.33 7.94 11.1 9.17 14.02 6.2 23.21-6.41 50.65-9.27 5.3-.55 7.35-.33 7.78-1.74 1.72-5.69-24.05-34.31-47.98-23.8-13.35 5.86-19.79 21.11-21.54 25.65Zm30.6-66.26c4.51 5.17 8.69 7.33 11.52 8.35 14.3 5.18 22.86-8.07 50.12-12.92 5.27-.94 7.32-.86 7.68-2.3 1.44-5.81-25.65-32.52-49.04-20.3-13.05 6.82-18.75 22.5-20.28 27.16Zm15.31-65.15c5.12 4.22 9.53 5.54 12.46 6 14.79 2.32 21.53-12.44 47.81-22.54 5.08-1.95 7.12-2.28 7.28-3.77.67-6.02-29.53-27.09-51.04-10.46-12 9.28-15.6 25.88-16.51 30.78Zm-2.32-76.09c5.66 3.02 10.19 3.33 13.13 3.14 14.88-.99 19.35-17 43.72-32.77 4.71-3.05 6.67-3.82 6.61-5.33-.22-6.07-33.02-20.1-51.74 1.03-10.44 11.79-11.54 28.91-11.72 33.93m-16.55-69.33c5.98 1.86 10.49 1.27 13.37.5 14.56-3.93 16.87-20.61 38.85-40.99 4.25-3.94 6.08-5.09 5.83-6.57-1.01-5.94-35.22-13.31-50.93 11.26-8.76 13.7-7.6 30.82-7.12 35.81Zm-67.4 356.19c-5.97 1.89-10.48 1.33-13.37.57-14.57-3.85-16.94-20.52-39-40.78-4.26-3.92-6.1-5.06-5.85-6.53.99-5.95 35.17-13.5 50.97 10.97 8.81 13.65 7.72 30.78 7.25 35.77m21.27-60.15c-5.97 1.9-10.48 1.35-13.37.59-14.58-3.83-16.96-20.5-39.04-40.73-4.27-3.91-6.1-5.05-5.86-6.53.99-5.95 35.16-13.55 50.98 10.91 8.82 13.64 7.74 30.77 7.28 35.76Zm30.51-56.82c-5.94 2.05-10.46 1.61-13.36.92-14.64-3.47-17.29-20.07-39.69-39.75-4.33-3.8-6.18-4.9-5.96-6.38.89-5.97 34.93-14.41 51.15 9.64 9.04 13.42 8.25 30.57 7.87 35.57Zm19.92-55.77c-5.99 1.78-10.5 1.14-13.38.33-14.53-4.11-16.69-20.83-38.5-41.49-4.22-3.99-6.03-5.17-5.77-6.64 1.06-5.93 35.33-12.85 50.83 11.91 8.64 13.81 7.34 30.92 6.82 35.9Zm9.46-68.5c-5.96 1.96-10.47 1.45-13.37.73-14.6-3.68-17.1-20.32-39.31-40.32-4.29-3.87-6.13-4.99-5.9-6.46.95-5.96 35.07-13.91 51.05 10.38 8.92 13.55 7.95 30.69 7.53 35.68Zm-10.73-76.44c-5.88 2.29-10.41 2.04-13.33 1.47-14.72-2.85-17.84-19.34-40.77-38.08-4.43-3.62-6.31-4.64-6.13-6.13.72-6.01 34.52-15.86 51.38 7.51 9.41 13.03 9.08 30.21 8.84 35.22Z" class="cls-chr31"/><path d="M1586.91 1907.27c-11.08-101.95-1.97-208.44 41.37-302.36 15.89-35.47 36.95-68.65 49.94-105.35 15.13-43.24 18.45-90.13 13.15-135.47-3.51-27.94-10.03-55.8-19.15-82.45-3.23-9.29-7.45-20.71-11.2-29.82 26.98 59.63 41.63 126.3 34.04 191.8-2.25 19.39-6.51 38.86-12.84 57.33-11.69 33.65-30.24 64.18-45.43 96.2-5.65 11.64-11.07 24.35-15.86 36.36-33.86 86.72-41.18 181.51-34.01 273.76ZM394.16 1713.2c5.68 2.96 10.21 3.23 13.15 3.01 14.88-1.14 19.23-17.2 43.5-33.21 4.69-3.09 6.64-3.89 6.57-5.39-.26-6.06-33.15-19.77-51.73 1.55-10.36 11.89-11.35 29.03-11.49 34.05Zm-3.71 31.09c-4.3 5.44-8.39 7.84-11.18 9.04-14.07 6.04-23.16-6.68-50.57-9.87-5.3-.62-7.35-.42-7.76-1.84-1.67-5.71 24.31-34.03 48.17-23.24 13.3 6.02 19.62 21.34 21.34 25.9Zm-8.97-60.19c-4.22 5.52-8.28 8.02-11.05 9.27-13.99 6.33-23.24-6.2-50.7-8.83-5.31-.51-7.35-.27-7.79-1.68-1.75-5.68 23.85-34.52 47.84-24.23 13.38 5.74 19.91 20.94 21.69 25.46Zm-19.69-56.29c-4.33 5.4-8.43 7.78-11.22 8.95-14.1 5.93-23.12-6.86-50.52-10.27-5.3-.66-7.34-.48-7.75-1.9-1.64-5.73 24.49-33.84 48.29-22.86 13.27 6.12 19.51 21.5 21.21 26.07Zm-26.82-55.27c-4.25 5.49-8.33 7.94-11.1 9.17-14.02 6.2-23.21-6.41-50.65-9.27-5.3-.55-7.35-.33-7.78-1.74-1.72-5.69 24.05-34.31 47.98-23.8 13.35 5.86 19.79 21.11 21.54 25.65Zm-30.6-66.26c-4.51 5.17-8.69 7.33-11.52 8.35-14.3 5.18-22.86-8.07-50.12-12.92-5.27-.94-7.32-.86-7.68-2.3-1.44-5.81 25.65-32.52 49.04-20.3 13.05 6.82 18.75 22.5 20.28 27.16Zm-15.31-65.15c-5.12 4.22-9.53 5.54-12.46 6-14.79 2.32-21.53-12.44-47.81-22.54-5.08-1.95-7.12-2.28-7.28-3.77-.67-6.02 29.53-27.09 51.04-10.46 12 9.28 15.6 25.88 16.51 30.78Zm2.32-76.09c-5.66 3.02-10.19 3.33-13.13 3.14-14.88-.99-19.35-17-43.72-32.77-4.71-3.05-6.67-3.82-6.61-5.33.22-6.07 33.02-20.1 51.74 1.03 10.44 11.79 11.54 28.91 11.72 33.93m16.54-69.33c-5.98 1.86-10.49 1.27-13.37.5-14.56-3.93-16.87-20.61-38.85-40.99-4.25-3.94-6.08-5.09-5.83-6.57 1.01-5.94 35.22-13.31 50.93 11.26 8.76 13.7 7.6 30.82 7.12 35.81Zm67.41 356.19c5.97 1.89 10.48 1.33 13.37.57 14.57-3.85 16.94-20.52 39-40.78 4.26-3.92 6.1-5.06 5.85-6.53-.99-5.95-35.17-13.5-50.97 10.97-8.81 13.65-7.72 30.78-7.25 35.77m-21.27-60.15c5.97 1.9 10.48 1.35 13.37.59 14.58-3.83 16.96-20.5 39.04-40.73 4.27-3.91 6.1-5.05 5.86-6.53-.99-5.95-35.16-13.55-50.98 10.91-8.82 13.64-7.74 30.77-7.28 35.76Zm-30.51-56.82c5.94 2.05 10.46 1.61 13.36.92 14.64-3.47 17.29-20.07 39.69-39.75 4.33-3.8 6.18-4.9 5.96-6.38-.89-5.97-34.93-14.41-51.15 9.64-9.04 13.42-8.25 30.57-7.87 35.57Zm-19.92-55.77c5.99 1.78 10.5 1.14 13.38.33 14.53-4.11 16.69-20.83 38.5-41.49 4.22-3.99 6.03-5.17 5.77-6.64-1.06-5.93-35.33-12.85-50.83 11.91-8.64 13.81-7.34 30.92-6.82 35.9Zm-9.46-68.5c5.96 1.96 10.47 1.45 13.37.73 14.6-3.68 17.1-20.32 39.31-40.32 4.29-3.87 6.13-4.99 5.9-6.46-.95-5.96-35.07-13.91-51.05 10.38-8.92 13.55-7.95 30.69-7.53 35.68Zm10.73-76.44c5.88 2.29 10.41 2.04 13.33 1.47 14.72-2.85 17.84-19.34 40.77-38.08 4.43-3.62 6.31-4.64 6.13-6.13-.72-6.01-34.52-15.86-51.38 7.51-9.41 13.03-9.08 30.21-8.84 35.22Z" class="cls-chr31"/><path d="M399.24 1907.27c7.17-92.24-.15-187.04-34.01-273.76-4.79-12.01-10.21-24.72-15.86-36.36-15.2-32.02-33.75-62.55-45.43-96.2-6.34-18.46-10.6-37.95-12.84-57.33-7.6-65.5 7.05-132.17 34.03-191.8-3.74 9.22-7.98 20.42-11.2 29.82-9.12 26.66-15.65 54.5-19.15 82.45-5.3 45.34-1.98 92.23 13.15 135.47 12.99 36.71 34.05 69.88 49.94 105.35 43.34 93.92 52.45 200.41 41.37 302.36" class="cls-chr31"/><circle cx="338.86" cy="1171.62" r="14.11" class="cls-chr33"/><circle cx="279.05" cy="1111.99" r="14.11" class="cls-chr33"/><circle cx="197.85" cy="1199.84" r="14.11" class="cls-chr33"/><circle cx="137.79" cy="1453.02" r="14.11" class="cls-chr33"/><circle cx="197.85" cy="1549.89" r="14.11" class="cls-chr33"/><circle cx="197.85" cy="1344.04" r="14.11" class="cls-chr33"/><circle cx="183.74" cy="1656.44" r="14.11" class="cls-chr33"/><circle cx="1678.22" cy="1172.64" r="14.11" class="cls-chr33"/><circle cx="1738.02" cy="1113.01" r="14.11" class="cls-chr33"/><circle cx="1819.23" cy="1200.86" r="14.11" class="cls-chr33"/><circle cx="1879.29" cy="1454.04" r="14.11" class="cls-chr33"/><circle cx="1819.23" cy="1550.91" r="14.11" class="cls-chr33"/><circle cx="1819.23" cy="1345.06" r="14.11" class="cls-chr33"/><circle cx="1833.33" cy="1657.46" r="14.11" class="cls-chr33"/></svg>