<svg xmlns="http://www.w3.org/2000/svg" viewBox="0 0 2000 2000" width="300" height="300" fill="none"><defs><style>.cls-chr23{fill:#a7b7f9}.cls-chr24{fill:#c1cbff}</style></defs><path d="M1561.55 1661.47H438.45c-47.73 0-86.56-38.83-86.56-86.56V451.81c0-47.73 38.83-86.56 86.56-86.56h1123.1c47.73 0 86.56 38.83 86.56 86.56v1123.1c0 47.73-38.83 86.56-86.56 86.56M438.45 395.07c-31.29 0-56.74 25.45-56.74 56.74v1123.1c0 31.29 25.45 56.74 56.74 56.74h1123.1c31.29 0 56.74-25.45 56.74-56.74V451.81c0-31.29-25.45-56.74-56.74-56.74z" style="fill:#9babea"/><path d="M1422.83 161.17c10.25-8.8 25.56-10.1 36.7-3.93 13.92 7.71 16.3 24.29 17.04 29.49 2.86 19.97-7.82 33.86-3.93 36.7 3.99 2.91 15.52-11.51 27.77-18.92 40.92-24.75 92.37 26.69 177.31 32.77 16.45 1.18 42.1 1.12 74.46-7.31-16.22 19.83-39.91 41.75-72.96 52.16-70.53 22.21-142.62-20.95-147.47-10.78-2.52 5.29 14.74 21.71 47.58 41.05 47.5 27.96 135.02 66.38 279.05 67.19-3.62 47.75-19.35 77.1-33.29 95.2-26.05 33.81-55.39 40.66-106.72 90.05a497 497 0 0 0-38.96 42.07c-128.64-130.25-177.19-212.68-197.16-264.75-12.44-29.84-17.22-35.69-19.22-35.11-7.42 2.18 32.14 90.11-1.98 151.76-17.67 31.92-50.27 48.07-75.44 56.76 20.48-35.95 27.25-66.41 29.76-86.95 10.1-82.43-29.22-148.07 1.11-174.27 13.96-12.06 37.33-11.07 37.14-18.47-.16-6.42-17.7-6.26-31.36-22.83-3.32-4.03-10.7-13.24-10.58-26.33.04-4.65 1.09-16.93 11.14-25.56Z" class="cls-chr24"/><path d="M1579.33 312.39c-32.85-19.34-50.1-35.76-47.58-41.05 4.84-10.16 76.94 33 147.47 10.78 33.05-10.41 56.74-32.33 72.96-52.16-32.36 8.43-58.01 8.49-74.46 7.31-84.94-6.08-136.4-57.52-177.31-32.77-12.25 7.41-23.78 21.83-27.77 18.92-3.89-2.84 6.79-16.73 3.93-36.7-.75-5.2-3.12-21.78-17.04-29.49-4.63-2.56-9.98-3.82-15.39-3.8 11.21 6.67 23.32 16.74 27.46 31.6 6.32 22.66-9.73 42.62-3.53 47.44 6.82 5.3 24.52-20.2 54.51-25.23 20.99-3.52 30.21 5.97 64.1 17.16 59.17 19.53 98.75 12.93 99.42 21.2.57 7.03-27.59 17.43-55.52 21.2-69.65 9.39-117.02-25.33-127.69-11.61-7.57 9.74 8.04 37.86 29.27 61.57 78.6 87.76 187.45 62.85 210.46 113.05 10.74 23.44 4.64 67.33-82.41 157.39 6.2 6.45 12.59 13.01 19.2 19.7a495 495 0 0 1 38.96-42.07c51.33-49.39 80.67-56.24 106.72-90.05 13.94-18.1 29.67-47.45 33.29-95.2-144.03-.8-231.55-39.22-279.05-67.19" class="cls-chr23"/><path d="M577.17 161.17c-10.25-8.8-25.56-10.1-36.7-3.93-13.92 7.71-16.3 24.29-17.04 29.49-2.86 19.97 7.82 33.86 3.93 36.7-3.99 2.91-15.52-11.51-27.77-18.92-40.92-24.75-92.37 26.69-177.31 32.77-16.45 1.18-42.1 1.12-74.46-7.31 16.22 19.83 39.91 41.75 72.96 52.16 70.53 22.21 142.62-20.95 147.47-10.78 2.52 5.29-14.74 21.71-47.58 41.05-47.5 27.96-135.02 66.38-279.05 67.19 3.62 47.75 19.35 77.1 33.29 95.2 26.05 33.81 55.39 40.66 106.72 90.05a497 497 0 0 1 38.96 42.07c128.64-130.25 177.19-212.68 197.16-264.75 12.44-29.84 17.22-35.69 19.22-35.11 7.42 2.18-32.14 90.11 1.98 151.76 17.67 31.92 50.27 48.07 75.44 56.76-20.48-35.95-27.25-66.41-29.76-86.95-10.1-82.43 29.22-148.07-1.11-174.27-13.96-12.06-37.33-11.07-37.14-18.47.16-6.42 17.7-6.26 31.36-22.83 3.32-4.03 10.7-13.24 10.58-26.33-.04-4.65-1.09-16.93-11.14-25.56Z" class="cls-chr24"/><path d="M420.67 312.39c32.85-19.34 50.1-35.76 47.58-41.05-4.84-10.16-76.94 33-147.47 10.78-33.05-10.41-56.74-32.33-72.96-52.16 32.36 8.43 58.01 8.49 74.46 7.31 84.94-6.08 136.4-57.52 177.31-32.77 12.25 7.41 23.78 21.83 27.77 18.92 3.89-2.84-6.79-16.73-3.93-36.7.75-5.2 3.12-21.78 17.04-29.49 4.63-2.56 9.98-3.82 15.39-3.8-11.21 6.67-23.32 16.74-27.46 31.6-6.32 22.66 9.73 42.62 3.53 47.44-6.82 5.3-24.52-20.2-54.51-25.23-20.99-3.52-30.21 5.97-64.1 17.16-59.17 19.53-98.75 12.93-99.42 21.2-.57 7.03 27.59 17.43 55.52 21.2 69.65 9.39 117.02-25.33 127.69-11.61 7.57 9.74-8.04 37.86-29.27 61.57-78.6 87.76-187.45 62.85-210.46 113.05-10.74 23.44-4.64 67.33 82.41 157.39-6.2 6.45-12.59 13.01-19.2 19.7a495 495 0 0 0-38.96-42.07c-51.33-49.39-80.67-56.24-106.72-90.05-13.94-18.1-29.67-47.45-33.29-95.2 144.03-.8 231.55-39.22 279.05-67.19m1269.09 619.48 8.05 16.31 18 2.61-13.03 12.7 3.08 17.93-16.1-8.46-16.11 8.46 3.08-17.93-13.03-12.7 18.01-2.61zm75.68 470.03 16.25 32.93 36.34 5.28-26.3 25.63 6.21 36.19-32.5-17.08-32.51 17.08 6.21-36.19-26.3-25.63 36.34-5.28zM287.1 1085.3l16.25 32.93 36.34 5.28-26.3 25.64 6.21 36.19-32.5-17.09-32.51 17.09 6.21-36.19-26.29-25.64 36.34-5.28zm-83.63-153.67 8.13 16.47 18.17 2.64-13.15 12.82 3.11 18.09-16.26-8.54-16.25 8.54 3.11-18.09-13.15-12.82 18.17-2.64zm31.04-324.73 8.12 16.46L260.8 626l-13.15 12.82 3.11 18.09-16.25-8.54-16.26 8.54 3.11-18.09L208.21 626l18.17-2.64zm741.11-341.39 8.13 16.46 18.17 2.64-13.15 12.82 3.1 18.1-16.25-8.55-16.25 8.55 3.1-18.1-13.14-12.82 18.17-2.64zM229.77 1460.7l13.4 27.15 29.96 4.35-21.68 21.13 5.12 29.84-26.8-14.09-26.8 14.09 5.12-29.84-21.68-21.13 29.96-4.35zm183.43 269.04 10.87 22.04 24.33 3.53-17.6 17.16 4.15 24.22-21.75-11.44-21.76 11.44 4.16-24.22-17.6-17.16 24.32-3.53zm457.11-40.17 16.76 33.96 37.47 5.44-27.11 26.43 6.4 37.32-33.52-17.62-33.51 17.62 6.4-37.32-27.11-26.43 37.47-5.44zm334.28 107.12 8.38 16.98 18.74 2.72-13.56 13.21 3.2 18.66-16.76-8.81-16.75 8.81 3.2-18.66-13.56-13.21 18.73-2.72zm381.96-85.5 8.38 16.98 18.73 2.72-13.55 13.22 3.2 18.66-16.76-8.81-16.76 8.81 3.2-18.66-13.55-13.22 18.73-2.72zm222.3-418.27 8.38 16.98 18.74 2.72-13.56 13.21 3.2 18.66-16.76-8.81-16.75 8.81 3.2-18.66-13.56-13.21 18.74-2.72zm-74.45-647.86 11.23 22.76 25.12 3.65-18.18 17.71 4.29 25.01-22.46-11.81-22.46 11.81 4.29-25.01-18.17-17.71 25.11-3.65zm-412.74-388.1 13.03 26.4 29.13 4.23-21.08 20.55 4.97 29.01-26.05-13.7-26.05 13.7 4.97-29.01-21.07-20.55 29.12-4.23z" class="cls-chr23"/><path d="m666.95 285.44 9.59 19.44 21.44 3.11-15.51 15.13 3.66 21.35-19.18-10.08-19.18 10.08 3.66-21.35-15.51-15.13 21.44-3.11zm452.49 11.62 9.59 19.43 21.44 3.11-15.51 15.13 3.66 21.35-19.18-10.08-19.18 10.08 3.66-21.35-15.51-15.13 21.44-3.11zm143.3-134.74 9.59 19.43 21.44 3.11-15.52 15.13 3.67 21.35-19.18-10.08-19.18 10.08 3.66-21.35-15.51-15.13 21.44-3.11zm491.35 964.17 13.43 27.22 30.04 4.36-21.73 21.18 5.13 29.92-26.87-14.13-26.86 14.13 5.13-29.92-21.73-21.18 30.03-4.36zm-682.67 587.58 8.81 17.86 19.71 2.86-14.26 13.9 3.36 19.63-17.62-9.27-17.63 9.27 3.36-19.63-14.26-13.9 19.71-2.86zM287.1 759.55l9.59 19.43 21.44 3.12-15.52 15.12 3.67 21.36-19.18-10.09-19.18 10.09 3.66-21.36-15.52-15.12 21.45-3.12zm1521.75 38.2 15.31 31.02 34.23 4.97-24.77 24.14 5.85 34.09-30.62-16.1-30.61 16.1 5.85-34.09-24.77-24.14 34.23-4.97zM604.42 1729.74l15 30.4 33.55 4.88-24.27 23.66 5.73 33.42-30.01-15.78-30.01 15.78 5.73-33.42-24.28-23.66 33.55-4.88zm781.93-47.49 9.58 19.4 21.41 3.11-15.5 15.11 3.66 21.33-19.15-10.07-19.15 10.07 3.65-21.33-15.49-15.11 21.41-3.11zM245.91 1301.31l9.59 19.43 21.44 3.12-15.52 15.12 3.67 21.36-19.18-10.09-19.18 10.09 3.66-21.36-15.52-15.12 21.45-3.12z" style="fill:#fceda2"/><path d="m800.41 151.74 13.02 26.39 29.13 4.23-21.08 20.55 4.98 29.01-26.05-13.7-26.06 13.7 4.98-29.01-21.08-20.55 29.13-4.23z" class="cls-chr23"/></svg>