<svg xmlns="http://www.w3.org/2000/svg" viewBox="0 0 2000 2000" width="300" height="300" fill="none"><defs><style>.cls-chr41{fill:#03022a}.cls-chr42{fill:#01010f}.cls-chr43{fill:#f4e04d}.cls-chr44{fill:#e8cc28}</style></defs><path d="m1424.86 116.82-4.25 102.55 93.32-42.72-59.02 83.97 101.6 14.51-95.05 38.73 77.63 67.14-100.9-18.8 29 98.45-74.71-70.37-28.83 98.5-24.8-99.59-77.51 67.28 32.97-97.19-101.57 14.69 80.28-63.93-93.39-42.56 102.1-10.38-55.56-86.29 91.51 46.47-.09-102.63 51.86 88.56z" class="cls-chr43"/><path d="m1461.46 313.86 95.04-38.73-101.6-14.52 59.02-83.96-93.32 42.71 4.25-102.54-55.41 86.39-51.86-88.57.09 102.63-91.51-46.47 55.56 86.3-102.11 10.38 93.4 42.56-80.28 63.94 101.57-14.7-32.97 97.19 77.51-67.27 24.8 99.59 28.83-98.5 74.71 70.37-29-98.45 100.89 18.8-77.62-67.14ZM1428 402.4l-47.55-44.78-18.34 62.69-15.78-63.38-49.33 42.82 20.99-61.85-64.64 9.35 51.09-40.69-59.43-27.08 64.98-6.6-35.36-54.92 58.23 29.57-.06-65.31 33.01 56.36 35.26-54.97-2.71 65.25 59.39-27.18-37.56 53.43 64.65 9.24-60.49 24.64 49.4 42.73-64.21-11.97z" class="cls-chr44"/><ellipse cx="1003.49" cy="1870.94" class="cls-chr44" rx="684.77" ry="57.14"/><path d="M1258.2 248.93c-25.38-28.6-148.23-160.89-351.96-175.69-244.2-17.74-402.52 148-422.67 169.83 11.71-1.58 23.41-3.15 35.12-4.73-16.08 24.41-32.16 48.81-48.24 73.22 13.78-1.52 27.55-3.03 41.33-4.55-19.04 28.74-38.07 57.48-57.11 86.22l45.8-3.96c-16.66 33.3-33.33 66.61-49.99 99.91 49.19-55.12 187.62-195.38 416.5-248.54 174.25-40.47 319.09-11.46 391.22 8.29" class="cls-chr43"/><path d="M1258.2 248.94c-72.13-19.75-216.98-48.76-391.23-8.29-228.88 53.16-367.3 193.41-416.5 248.54l110.22-139.62c-23.32 9.6-46.65 19.21-69.97 28.81 17.08-30 34.17-60.01 51.25-90.01-11.19-1.69-22.37-3.37-33.56-5.06 50.79-37.24 159.02-106.04 313.68-127.36 177.45-24.47 315.87 27.37 373.67 52.92-13.73-16.45-27.46-32.91-41.19-49.36 56.16 37.38 91.33 75.57 103.63 89.42Z" class="cls-chr44"/><path d="M487.1 1870.94h-42.37c1.69-14.64 4.71-43.2 6.55-79.19 14.85-291.09-80.61-430.55-73.97-720.6.69-30.11 2.92-81.2 11.68-145.18-2.63-.47-41.12-8.08-54.5-50.15-13.59-42.72 8.32-90.71 31.14-110.86 40.03-35.35 105.05-4.7 130.42 55.43 13.61 32.24 12.97 66.23 10.55 87.65-1.05 9.26-2.95 18.3-5.5 27.01-20.29 69.26-28.81 126.01-32.86 160.58-30.05 256.56 55.77 402.42 27.81 701.26-3.14 33.56-6.88 60.15-8.95 74.04Z" class="cls-chr41"/><path d="M501.1 935.06c2.55-8.71 4.45-17.75 5.5-27.01 2.42-21.42 3.06-55.4-10.55-87.65-25.37-60.13-90.39-90.78-130.42-55.43-22.82 20.16-44.73 68.14-31.14 110.86 13.05 41.03 49.96 49.28 54.23 50.1 6.08 2.01 14.53 4.38 24.81 5.95 7.88 1.21 34.77 5.33 36.77 0 3.49-9.35-77.03-28.08-82.93-69.16-4.03-28.04 27.13-63.58 50.76-61.06 28.85 3.08 42.28 62.43 46.8 82.4 21.07 93.06-13.17 168.24-29.95 223.98-59.53 197.77 63.37 274.97 35.23 586.72-5.79 64.2-15.9 115.15-22.17 143.55-1.23 13.95-2.44 25.12-3.31 32.62h42.37c2.07-13.89 5.81-40.49 8.95-74.04 27.96-298.85-57.87-444.7-27.81-701.26 4.05-34.57 12.57-91.33 32.86-160.58Z" class="cls-chr42"/><path d="M1000.4 425.5C927 503.07 800.35 617.19 613.62 702.34 471.82 767 342.71 793.37 249.61 804.73c-22.47-54.13-44.94-108.26-67.4-162.38 118.93-9.42 275.54-33.75 450.38-94.98 152.1-53.27 274.96-119.39 367.27-177.95z" class="cls-chr41"/><path d="M999.87 369.42C907.56 427.98 784.7 494.11 632.6 547.37c-174.84 61.23-331.46 85.55-450.38 94.98 2.12 5.12 4.25 10.24 6.37 15.36 80.76-2.21 184.93-12.09 302.74-42.82 84.95-22.16 156.17-49.73 158.95-43.01 2.96 7.15-73.97 47.04-139.4 76.6-146.7 66.26-260.84 91.94-260.43 93.45.46 1.69 146.3-21.17 327.83-94.98 210.25-85.48 341.2-187.59 344.68-182.3 3.29 4.99-110.01 100.95-266.55 182.3-161.12 83.73-309.44 121.53-414.06 140.27 2.42 5.84 4.85 11.68 7.27 17.51 93.1-11.36 222.21-37.73 364.01-102.39 186.73-85.15 313.38-199.27 386.78-276.84z" class="cls-chr42"/><path d="M1512.63 1870.94H1555c-1.69-14.64-4.71-43.2-6.55-79.19-14.85-291.09 80.61-430.55 73.97-720.6-.69-30.11-2.92-81.2-11.68-145.18 2.63-.47 41.12-8.08 54.5-50.15 13.59-42.72-8.32-90.71-31.14-110.86-40.03-35.35-105.05-4.7-130.42 55.43-13.61 32.24-12.97 66.23-10.55 87.65 1.05 9.26 2.95 18.3 5.5 27.01 20.29 69.26 28.81 126.01 32.86 160.58 30.05 256.56-55.77 402.42-27.81 701.26 3.14 33.56 6.88 60.15 8.95 74.04Z" class="cls-chr41"/><path d="M1000.4 425.5c72.98 77.43 199.23 191.64 385.7 276.84 141.89 64.83 271.08 91.13 364.01 102.39 22.47-54.13 44.94-108.26 67.4-162.38-118.93-9.42-275.54-33.75-450.38-94.98-152.1-53.27-274.96-119.39-367.27-177.95z" class="cls-chr41"/><path d="M1000.13 369.42c92.31 58.56 215.17 124.69 367.27 177.95 174.84 61.23 331.46 85.55 450.38 94.98-2.13 5.12-4.25 10.24-6.37 15.36-80.76-2.21-184.93-12.09-302.74-42.82-84.95-22.16-156.17-49.73-158.95-43.01-2.96 7.15 73.97 47.04 139.4 76.6 146.7 66.26 260.84 91.94 260.43 93.45-.46 1.69-146.3-21.17-327.83-94.98-210.25-85.48-341.2-187.59-344.68-182.3-3.29 4.99 110.01 100.95 266.55 182.3 161.12 83.73 309.44 121.53 414.06 140.27-2.42 5.84-4.85 11.68-7.27 17.51-93.1-11.36-222.21-37.73-364.01-102.39-186.73-85.15-313.38-199.27-386.78-276.84z" class="cls-chr42"/><path d="M1498.63 935.06c-2.55-8.71-4.45-17.75-5.5-27.01-2.42-21.42-3.06-55.4 10.55-87.65 25.37-60.13 90.39-90.78 130.42-55.43 22.82 20.16 44.73 68.14 31.14 110.86-13.05 41.03-49.96 49.28-54.23 50.1-6.08 2.01-14.53 4.38-24.81 5.95-7.88 1.21-34.77 5.33-36.77 0-3.49-9.35 77.03-28.08 82.93-69.16 4.03-28.04-27.13-63.58-50.76-61.06-28.85 3.08-42.28 62.43-46.8 82.4-21.07 93.06 13.17 168.24 29.95 223.98 59.53 197.77-63.37 274.97-35.23 586.72 5.79 64.2 15.9 115.15 22.17 143.55 1.23 13.95 2.44 25.12 3.31 32.62h-42.37c-2.07-13.89-5.81-40.49-8.95-74.04-27.96-298.85 57.87-444.7 27.81-701.26-4.05-34.57-12.57-91.33-32.86-160.58Z" class="cls-chr42"/></svg>