<svg xmlns="http://www.w3.org/2000/svg" viewBox="0 0 2000 2000" width="300" height="300" fill="none"><defs><style>.cls-hun52{fill:#900}.cls-hun53{fill:#ff5b00}.cls-hun54{fill:#7f0404}.cls-hun55{fill:#d4d925}</style></defs><path d="M1396.48 1470.22H603.52c-102.93 0-186.67-83.74-186.67-186.67V263.22c0-102.93 83.74-186.67 186.67-186.67h792.96c102.93 0 186.67 83.74 186.67 186.67v1020.33c0 102.93-83.74 186.67-186.67 186.67M603.52 112.85c-82.91 0-150.37 67.45-150.37 150.37v1020.33c0 82.91 67.45 150.37 150.37 150.37h792.96c82.91 0 150.37-67.45 150.37-150.37V263.22c0-82.91-67.45-150.37-150.37-150.37z" class="cls-hun55"/><path d="M1768.38 1590.84c-118.12-309.28-417.6-528.94-768.39-528.94s-650.27 219.66-768.39 528.94a796 796 0 0 0-15.53 44.51l143.14 45.43 109.65 34.79 221.16 70.19a345 345 0 0 1 21.08-36.96l196.89 82.09 1.28.54c-3.82 6.57-6.96 13.59-9.29 20.97l100.02 31.75 100.02-31.75c-2.38-7.52-5.59-14.68-9.52-21.35l.98-.41 197.4-81.86c7.75 11.85 14.8 24.2 21.07 36.99l220.84-70.09 109.65-34.81 143.47-45.54a804 804 0 0 0-15.53-44.51Zm-841.19 217.77-1.76-.73-197.65-82.41a347.4 347.4 0 0 1 62.48-61.97l139.64 140.17 1.28 1.28q-2.04 1.785-3.99 3.66m27.87-19.3-1.52-1.53-140.09-140.6a343.4 343.4 0 0 1 71.39-35.03l71.85 174.15.79 1.9c-.81.35-1.61.72-2.42 1.11m30.71-11.29v2.18c-.43.05-.86.1-1.28.17l-.84-2.05-71.97-174.44c23.85-6.31 48.71-10.12 74.27-11.13zm29.23 2.28c-.42-.07-.84-.13-1.28-.17V1778l.18-185.26c25.58 1.01 50.44 4.81 74.29 11.11l-72.36 174.45-.83 2.01Zm27.07 7.71.73-1.77 72.22-174.13a343 343 0 0 1 71.42 35.01l-141.98 141.98c-.8-.39-1.6-.75-2.39-1.09m31.86 19.64-1.49.62c-1.3-1.24-2.63-2.45-3.99-3.62l1.12-1.11 140.1-140.09a347.3 347.3 0 0 1 62.51 61.98l-198.24 82.21Z" class="cls-hun52"/><path d="M1768.4 1590.78c-118.12-309.28-417.6-528.94-768.39-528.94s-650.27 219.66-768.39 528.94a796 796 0 0 0-15.53 44.51l46.6 14.79c19.93-50.95 143.28-351.65 473.52-476.38 78.98-29.83 287.07-93.9 525.85-12.23 343.59 117.52 467.68 440 484.4 485.71l37.48-11.89a804 804 0 0 0-15.53-44.51Zm-868.42 261.56 6.04 1.92-5.01-5.02c-.37 1.03-.71 2.06-1.04 3.1Zm-105.29-68.74 2.52 1.05-1.69-1.7c-.27.22-.56.43-.83.65" class="cls-hun54"/><path d="M901.02 1849.24c-.37 1.03-.71 2.06-1.04 3.1l6.04 1.92-5.01-5.02Z" style="fill:#fff"/><path d="m1005.25 1841.15-5.26 12.61h-.01l-5.5 13.19-85.22-35.53-198.17-82.62a338 338 0 0 1 16.68-23.33l199.41 83.14 13.06 5.44 33.69 14.05 11.79 4.92 6.31 2.63 4.15 1.73 3.01 1.25z" class="cls-hun55"/><path d="m1009.68 1844.12-9.68 9.65-.01.01-10.12 10.08-49.62-49.81-9.07-9.1-140.92-141.44c7.49-5.75 15.24-11.19 23.2-16.32l141.6 142.13 4.9 4.92 25.77 25.86 9 9.04 4.85 4.85 3.16 3.18 6.93 6.96Z" class="cls-hun53"/><path d="m1012.63 1848.55-12.64 5.21h-.01l-13.21 5.45-12.84-31.12-13.97-33.87-2.49-6.02-72.63-176.06c8.78-3.11 17.73-5.87 26.83-8.27l72.81 176.49 1.28 3.09 13.92 33.73 4.87 11.8 2.6 6.33 5.46 13.23Z" class="cls-hun55"/><path d="m1013.91 1592.74-.18 187.39v3.24l-.03 36.5v12.75l-.03 21.17h-13.66l-.01-.01-14.28-.02.02-20.74v-12.92l.05-36.63v-3.26l.18-187.45c4.65-.19 9.34-.29 14.04-.29s9.29.09 13.91.27Z" class="cls-hun53"/><path d="m1115.03 1612.12-72.95 175.9-2.47 5.96-13.98 33.7-13 31.34-12.62-5.23h-.01l-13.19-5.47 5.25-12.66 2.7-6.51 4.96-11.94 14.03-33.82 1.28-3.07 73.19-176.45c9.1 2.39 18.05 5.15 26.83 8.27Z" class="cls-hun55"/><path d="m1209.67 1663.46-141.22 141.19-9 9-49.8 49.79-9.66-9.66h-.01l-10.09-10.1 23.8-23.8 25.91-25.9 146.85-146.85c7.97 5.13 15.71 10.58 23.22 16.33" class="cls-hun53"/><path d="m1288.88 1748.78-198.38 82.27-85.27 35.35-5.23-12.62-.01-.01-5.46-13.19 4.68-1.94 3.55-1.47 4.42-1.84 6.51-2.7 11.94-4.95 33.84-14.03 12.99-5.38 199.73-82.83a343 343 0 0 1 16.71 23.34Z" class="cls-hun55"/><path d="m1082.45 1857.97-82.45 26.17-82.46-26.17c-9.99-3.17-14.78-14.66-9.78-23.87.49-.9.99-1.79 1.51-2.68l-1.28-.54a105 105 0 0 1 17.45-23.01c1.45-1.45 2.94-2.85 4.47-4.21 7.08-6.31 15.03-11.67 23.64-15.89a90 90 0 0 1 3.15-1.48c8.45-3.81 17.49-6.52 26.96-7.98.7-.1 1.4-.21 2.12-.3 4.58-.62 9.27-.94 14.04-.94s9.36.31 13.91.91a104.5 104.5 0 0 1 29.08 8.25c1.04.47 2.06.95 3.08 1.45 8.62 4.2 16.59 9.56 23.69 15.85 1.49 1.32 2.95 2.69 4.37 4.11 6.85 6.79 12.77 14.53 17.54 22.99l-.98.41c.58.99 1.15 1.98 1.7 2.99 5.03 9.22.27 20.76-9.74 23.93Z" class="cls-hun52"/><ellipse cx="999.81" cy="1884.15" class="cls-hun55" rx="21.99" ry="39.31"/><path d="M1494.8 1468.46c-64.27-64.27-139.13-114.74-222.49-150-86.34-36.52-178.03-55.04-272.5-55.04s-186.17 18.52-272.51 55.04c-83.36 35.26-158.22 85.72-222.49 150-61.65 61.65-110.6 133.03-145.59 212.32l109.65 34.79c93.55-199.56 296.37-338.11 530.95-338.11s437.47 138.59 530.98 338.22l109.65-34.81c-35-79.34-83.97-150.75-145.64-212.42Z" class="cls-hun53"/><path d="M551.34 1635.67c-4.82 0-9.69-.25-14.59-.77-76.09-7.99-131.5-76.39-123.51-152.48 3.87-36.86 21.86-70.01 50.66-93.33s64.96-34.04 101.82-30.17c76.09 7.99 131.5 76.39 123.51 152.48-7.47 71.19-67.83 124.27-137.89 124.27m-.3-242.17c-23.59 0-46.3 8.01-64.89 23.06-21.46 17.38-34.87 42.08-37.75 69.55-5.95 56.7 35.34 107.68 92.04 113.63 56.7 5.98 107.68-35.34 113.63-92.04s-35.34-107.68-92.04-113.63c-3.68-.39-7.34-.58-10.99-.58Zm286.19 97.28c-4.82 0-9.69-.25-14.59-.77-76.09-7.99-131.5-76.39-123.51-152.48 3.87-36.86 21.86-70.01 50.66-93.33 28.8-23.33 64.96-34.04 101.82-30.17 76.09 7.99 131.5 76.39 123.51 152.48-7.47 71.19-67.83 124.27-137.89 124.27m-.3-242.17c-23.59 0-46.3 8.01-64.89 23.06-21.46 17.38-34.87 42.08-37.75 69.55-5.95 56.7 35.34 107.68 92.04 113.63s107.68-35.34 113.63-92.04-35.34-107.68-92.04-113.63c-3.68-.39-7.34-.58-10.99-.58Zm326.39 240.8c-4.9 0-9.81-.26-14.75-.77-76.09-7.99-131.5-76.39-123.51-152.48 3.87-36.86 21.86-70.01 50.66-93.33 28.8-23.33 64.96-34.04 101.82-30.17s70.01 21.86 93.33 50.66c23.33 28.8 34.04 64.96 30.17 101.82l-17.58-1.85 17.58 1.85c-3.87 36.86-21.86 70.01-50.66 93.33-24.94 20.2-55.41 30.95-87.07 30.95Zm-.46-242.18c-23.59 0-46.3 8.01-64.89 23.06-21.46 17.38-34.87 42.08-37.75 69.55-5.95 56.7 35.34 107.68 92.04 113.63 27.47 2.89 54.42-5.1 75.88-22.49 21.46-17.38 34.87-42.09 37.75-69.55 2.88-27.47-5.1-54.42-22.49-75.88-17.38-21.46-42.09-34.87-69.55-37.75-3.68-.39-7.34-.58-10.99-.58Zm282.98 383.14c-4.89 0-9.81-.26-14.75-.77-76.09-7.99-131.5-76.39-123.51-152.48s76.39-131.49 152.48-123.51c76.09 7.99 131.5 76.39 123.51 152.48-3.87 36.86-21.86 70.01-50.66 93.33-24.94 20.2-55.41 30.95-87.07 30.95m-.34-242.18c-52.21 0-97.19 39.56-102.76 92.61-5.95 56.7 35.34 107.68 92.04 113.63 27.47 2.89 54.42-5.1 75.88-22.49 21.46-17.38 34.87-42.08 37.75-69.55 5.95-56.7-35.34-107.68-92.04-113.63-3.65-.38-7.28-.57-10.87-.57" class="cls-hun55"/><path d="M690.02 1785.76c11.7-23.84 61.85-119.08 178.04-167.17 24.14-9.99 121.68-47.15 237.8-9.58 134.96 43.67 193.43 155.4 204.09 176.76l47.01-14.61c-13.57-28.74-67.54-134.21-193.92-191.59-26.31-11.95-147.84-63.61-291.08-13.59-153.19 53.5-215.83 183.02-226.62 206.34 14.89 4.48 29.78 8.95 44.67 13.43Z" class="cls-hun54"/></svg>