<svg xmlns="http://www.w3.org/2000/svg" viewBox="0 0 2000 2000" width="300" height="300" fill="none"><defs><style>.cls-1fat3{fill:#78b2b5}.cls-1fat4{fill:#00626b}</style></defs><path d="M989.76 1770.95c-89.27 0-175.87-17.49-257.41-51.97-78.75-33.31-149.47-80.99-210.2-141.72s-108.41-131.45-141.72-210.2c-34.49-81.54-51.97-168.14-51.97-257.41s17.49-175.88 51.97-257.41c33.31-78.75 80.99-149.47 141.72-210.2s131.45-108.41 210.2-141.72c81.54-34.49 168.14-51.97 257.41-51.97s175.88 17.49 257.41 51.97c78.75 33.31 149.47 80.99 210.2 141.72s108.41 131.45 141.72 210.2c34.49 81.54 51.97 168.14 51.97 257.41s-17.49 175.88-51.97 257.41c-33.31 78.75-80.99 149.47-141.72 210.2s-131.45 108.41-210.2 141.72c-81.54 34.49-168.14 51.97-257.41 51.97m0-1296.16c-350.06 0-634.86 284.8-634.86 634.86s284.8 634.86 634.86 634.86 634.86-284.8 634.86-634.86-284.8-634.86-634.86-634.86" class="cls-1fat4"/><path d="M990.06 1819.95v-16.37c12.5 0 25.14-.35 37.57-1.02l.88 16.35c-12.72.68-25.66 1.03-38.45 1.04m-38.44-1.01c-12.76-.68-25.65-1.71-38.33-3.06l1.74-16.28a698 698 0 0 0 37.46 2.99zm115.22-3.13-1.76-16.27c12.41-1.34 24.94-3.04 37.23-5.04l2.64 16.16c-12.58 2.05-25.4 3.79-38.11 5.16Zm-191.66-5.06a699 699 0 0 1-37.78-7.19l3.49-15.99c12.18 2.66 24.6 5.02 36.91 7.02zm267.55-7.32-3.51-15.99a690 690 0 0 0 36.46-9.05l4.37 15.77c-12.3 3.41-24.86 6.53-37.33 9.27Zm-342.68-9.1c-12.3-3.4-24.67-7.19-36.78-11.26l5.22-15.52c11.83 3.98 23.91 7.68 35.93 11l-4.36 15.78Zm416.78-11.45-5.23-15.51c11.82-3.98 23.68-8.35 35.26-12.97l6.07 15.2c-11.86 4.73-24 9.2-36.1 13.28m-489.75-13.08a699 699 0 0 1-35.39-15.23l6.88-14.85a703 703 0 0 0 34.57 14.88l-6.06 15.21Zm561.1-15.39-6.88-14.85a690 690 0 0 0 33.6-16.7l7.68 14.45a705 705 0 0 1-34.39 17.09Zm-631-16.96a713 713 0 0 1-33.51-18.97l8.45-14.02c10.7 6.45 21.72 12.68 32.74 18.53l-7.67 14.46Zm698.82-19.07-8.45-14.02c10.67-6.43 21.3-13.24 31.61-20.25l9.2 13.54a707 707 0 0 1-32.36 20.72Zm-764.75-20.66a726 726 0 0 1-31.25-22.47l9.91-13.03c9.93 7.56 20.2 14.94 30.53 21.96l-9.2 13.54Zm828.31-22.51-9.91-13.02c9.92-7.55 19.77-15.47 29.27-23.55l10.6 12.47c-9.72 8.26-19.8 16.37-29.95 24.1Zm-889.54-24.08a719 719 0 0 1-28.63-25.69l11.26-11.88c9.05 8.58 18.47 17.02 27.98 25.1l-10.6 12.47Zm948.12-25.7-11.26-11.88c9.06-8.58 18-17.52 26.58-26.57l11.88 11.26a719 719 0 0 1-27.2 27.19m-1003.95-27.18a718 718 0 0 1-25.7-28.61l12.47-10.61c8.08 9.5 16.53 18.9 25.11 27.95l-11.88 11.26Zm1056.86-28.63-12.47-10.61c8.08-9.5 16.02-19.36 23.58-29.28l13.02 9.92a717 717 0 0 1-24.13 29.97M424.38 1539.7a719 719 0 0 1-22.46-31.19l13.54-9.2c7 10.3 14.38 20.55 21.94 30.48l-13.02 9.92Zm1153.28-31.29-13.54-9.2a702 702 0 0 0 20.29-31.67l14.02 8.45a706 706 0 0 1-20.77 32.41Zm-1196.48-32.25a705 705 0 0 1-18.95-33.42l14.45-7.69a709 709 0 0 0 18.51 32.65zm1236.23-33.66-14.45-7.68c5.86-11.04 11.5-22.37 16.74-33.7l14.85 6.88a709 709 0 0 1-17.14 34.49Zm-1272.3-34.14a708 708 0 0 1-15.21-35.25l15.2-6.07c4.62 11.55 9.62 23.14 14.86 34.43zm1304.68-35.74-15.2-6.06c4.63-11.6 8.99-23.49 12.98-35.34l15.51 5.22c-4.08 12.13-8.56 24.3-13.29 36.18m-1333.18-35.61a709 709 0 0 1-11.31-36.77l15.77-4.38c3.34 12.02 7.06 24.11 11.04 35.91l-15.51 5.24Zm1357.75-37.35-15.78-4.37c3.33-12.02 6.37-24.29 9.04-36.47l15.99 3.5a704 704 0 0 1-9.25 37.33Zm-1378.34-36.74a719 719 0 0 1-7.24-37.77l16.16-2.64c2.01 12.32 4.39 24.73 7.07 36.9l-15.99 3.52Zm1394.79-38.38-16.16-2.63c2-12.29 3.69-24.81 5.03-37.24l16.27 1.75c-1.37 12.71-3.1 25.54-5.14 38.11ZM283.6 1187.03a718 718 0 0 1-3.11-38.33l16.35-.89c.68 12.48 1.7 25.08 3.04 37.45l-16.27 1.76Zm1415.43-38.94-16.35-.87c.66-12.43 1-25.07 1-37.56v-1.16l16.37-.04v1.22c0 12.76-.34 25.7-1.02 38.42Zm-1403.22-37.85h-16.37v-.59c0-12.58.33-25.31.99-37.84l16.35.86c-.64 12.24-.97 24.68-.97 36.98zm1386.82-39.33c-.69-12.48-1.72-25.08-3.07-37.45l16.27-1.78c1.38 12.66 2.44 25.56 3.14 38.33zm-1382.87-35.7-16.28-1.74c1.35-12.71 3.07-25.53 5.11-38.12l16.16 2.61c-1.99 12.3-3.67 24.82-4.99 37.24Zm1374.71-38.97a688 688 0 0 0-7.1-36.89l15.98-3.53a711 711 0 0 1 7.27 37.77zM311.76 961.06l-15.99-3.49c2.72-12.48 5.82-25.04 9.22-37.34l15.78 4.36a691 691 0 0 0-9.01 36.48Zm1346.52-38.17a692 692 0 0 0-11.07-35.9l15.5-5.25c4.09 12.09 7.91 24.46 11.34 36.76l-15.77 4.4ZM331.75 888.65l-15.52-5.21c4.07-12.12 8.53-24.29 13.26-36.19l15.21 6.05a692 692 0 0 0-12.95 35.35m1302.44-36.91a689 689 0 0 0-14.89-34.42l14.84-6.9c5.37 11.55 10.5 23.41 15.24 35.24l-15.2 6.09ZM359.56 818.72l-14.86-6.87c5.36-11.59 11.12-23.2 17.11-34.51l14.46 7.67a704 704 0 0 0-16.72 33.71Zm1243-34.98a704 704 0 0 0-18.54-32.63l14.01-8.47c6.6 10.91 12.98 22.15 18.98 33.4zM394.8 752.26l-14.02-8.44a713 713 0 0 1 20.74-32.43l13.55 9.19a699 699 0 0 0-20.26 31.68Zm1168.93-32.74c-7.01-10.3-14.4-20.54-21.97-30.46l13.01-9.93a719 719 0 0 1 22.48 31.17l-13.53 9.21ZM437 690.04l-13.03-9.91a722 722 0 0 1 24.11-29.99l12.48 10.59a702 702 0 0 0-23.55 29.3Zm1081.17-30.21c-8.09-9.5-16.55-18.89-25.13-27.93l11.87-11.27c8.78 9.25 17.44 18.87 25.72 28.59l-12.46 10.62ZM485.65 632.75l-11.89-11.25c8.77-9.27 17.92-18.42 27.18-27.21l11.27 11.87a709 709 0 0 0-26.56 26.59m980.79-27.4a707 707 0 0 0-28-25.08l10.59-12.48c9.73 8.26 19.37 16.89 28.65 25.67l-11.25 11.89Zm-926.29-24.31-10.61-12.46c9.72-8.28 19.8-16.4 29.93-24.13l9.93 13.02a694 694 0 0 0-29.25 23.57m868.98-24.32a699 699 0 0 0-30.55-21.93l9.18-13.55a718 718 0 0 1 31.26 22.45l-9.9 13.03Zm-809.27-21.21-9.21-13.53a712 712 0 0 1 32.34-20.75l8.46 14.01a703 703 0 0 0-31.6 20.27Zm747.03-20.97a707 707 0 0 0-32.75-18.51l7.66-14.46a712 712 0 0 1 33.53 18.94zM664.1 496.71l-7.69-14.45a710 710 0 0 1 34.38-17.12l6.9 14.84a690 690 0 0 0-33.58 16.73Zm616.32-17.38a695 695 0 0 0-34.59-14.85l6.04-15.21c11.89 4.72 23.8 9.84 35.41 15.2l-6.87 14.86Zm-548.31-14.22-6.08-15.2c11.86-4.74 24-9.22 36.09-13.31l5.24 15.51a692 692 0 0 0-35.25 13m478.37-13.56a695 695 0 0 0-35.94-10.97l4.35-15.78c12.31 3.39 24.69 7.17 36.79 11.23zm-407.21-10.5-4.39-15.77c12.3-3.42 24.86-6.55 37.32-9.3l3.52 15.99a693 693 0 0 0-36.46 9.08Zm334.79-9.46c-12.18-2.65-24.6-5-36.92-6.99l2.61-16.16a701 701 0 0 1 37.79 7.16zm-261.43-6.71-2.65-16.15c12.58-2.06 25.4-3.81 38.11-5.19l1.77 16.27a702 702 0 0 0-37.23 5.07m187.28-5.26a698 698 0 0 0-37.46-2.96l.85-16.35c12.76.66 25.66 1.68 38.34 3.03zm-112.6-2.87-.89-16.34c12.72-.69 25.66-1.06 38.45-1.07l.02 16.37c-12.5.02-25.14.37-37.57 1.05Z"/><path d="M989.76 1724.25c-82.97 0-163.46-16.25-239.24-48.3-73.19-30.96-138.92-75.27-195.36-131.71s-100.76-122.17-131.71-195.36c-32.05-75.78-48.3-156.27-48.3-239.24s16.25-163.46 48.3-239.24c30.96-73.19 75.27-138.92 131.71-195.36s122.17-100.76 195.36-131.71c75.78-32.05 156.27-48.3 239.24-48.3s163.46 16.25 239.24 48.3c73.19 30.96 138.92 75.27 195.36 131.71s100.76 122.17 131.71 195.36c32.05 75.78 48.3 156.27 48.3 239.24s-16.25 163.46-48.3 239.24c-30.96 73.19-75.27 138.92-131.71 195.36S1302.19 1645 1229 1675.95c-75.78 32.05-156.27 48.3-239.24 48.3m0-1212.43c-329.64 0-597.82 268.18-597.82 597.82s268.18 597.82 597.82 597.82 597.82-268.18 597.82-597.82-268.18-597.82-597.82-597.82" class="cls-1fat3"/><path d="M1972.13 1588.89c-169.95 86.64-517.28 235.24-979.31 234.62-453.44-.6-795.12-144.63-964.95-230.25l113.73-45.93c-10.21-34.26-20.41-68.53-30.62-102.79 166.07 77.21 484.97 199 902.1 195.18 410.14-3.76 722.41-127.19 886.89-206.12l-45.93 113.73c39.37 13.85 78.73 27.7 118.1 41.55Z" style="fill:#004b4f"/><rect width="353.2" height="67.09" x="815.06" y="487.97" class="cls-1fat3" rx="29.72" ry="29.72"/><path d="m1078.24 365.27-82.68-146.69c-2.15-3.82-7.44-3.8-9.56.04-26.98 48.86-53.96 97.73-80.94 146.59-1.27 2.3-3.87 3.4-6.31 2.67l-112.16-33.57c-4.58-1.37-8.57 3.56-6.52 8.07 18.52 40.67 79.75 174.33 84.4 174.33h254.38c4.65 0 65.88-133.67 84.4-174.33 2.05-4.51-1.93-9.44-6.52-8.07l-112.2 33.58c-2.42.72-5.01-.35-6.29-2.63Z" class="cls-1fat3"/><path d="m1196.73 334.32-112.2 33.58c-2.42.72-5.01-.35-6.29-2.63l-82.68-146.69c-2.15-3.82-7.44-3.8-9.56.04-26.98 48.86-53.96 97.73-80.94 146.59-1.27 2.3-3.87 3.4-6.31 2.67l-94.56-28.3c14.37 7.23 34.7 17.33 59.37 29.06 33.93 16.14 36.66 16.66 40.72 15.81 11.04-2.3 23.24-12.87 70-112.13 6.75-14.33 9.97-21.49 15.1-21.56 20.14-.28 58.23 109.1 73.93 130.12 1.43 1.92 4.96 6.53 11 9.05 2.02.84 7.22 2.67 15.15 1.14 23.68-4.56 84.46-42.42 92.99-34.41 6.77 6.36-12.28 48.3-45.75 79.55-18.88 17.63-36.78 26.66-42.09 29.23-86.47 41.95-231.69 21.08-231.96 23.48-.17 1.5 55.06 22.44 138.17 18.69 65.43-2.95 135.33-19.85 150.06 2.88 1.13 1.74 5.19 8 3.2 13.42-3.48 9.48-23.05 9.66-30.2 9.76-101 1.42-120.73 21.36-252.08 2.22-12.66-1.84-32.41-4.93-56.69-9.69.11 2.16.83 12.33 8.96 20.46 5.21 5.21 12.27 8.4 20.04 8.4h295.12c16.04 0 29.04-13.62 29.04-30.42v-6.26c0-16.8-13-30.42-29.04-30.42h-4.19c20.7-41.63 55.13-116.84 68.22-145.58 2.05-4.51-1.93-9.44-6.52-8.07Z" style="fill:#5f9e9e"/><ellipse cx="763.36" cy="316.89" class="cls-1fat4" rx="12.35" ry="12.94"/><ellipse cx="1216.16" cy="316.89" class="cls-1fat4" rx="12.35" ry="12.94"/><ellipse cx="991.66" cy="189.42" class="cls-1fat4" rx="12.35" ry="12.94"/><path d="M243.4 1588.72c-10.4-4.14-20.77-8.36-31.1-12.67l-8.17 19.59c.92.38 1.37.57 2.29.95 3.53 1.47 5.79 3.13 6.78 5.01.99 1.87 1.07 3.83.24 5.85-.81 1.98-2.23 3.3-4.26 3.93s-4.83.22-8.39-1.26c-7.24-3.01-10.85-4.53-18.07-7.61-3.55-1.51-5.8-3.23-6.77-5.12s-1.01-3.85-.14-5.86c1.06-2.45 3.05-3.84 5.96-4.2 1.44-.21 4.01.51 7.7 2.13 7.49-17.58 14.98-35.15 22.46-52.73-2.41-1.28-3.98-2.82-4.72-4.59s-.72-3.58.07-5.41c.87-2.01 2.29-3.33 4.28-3.96 1.98-.63 4.67-.21 8.07 1.23 5.75 2.47 8.63 3.7 14.4 6.13 3.41 1.42 5.59 3.03 6.53 4.87q1.425 2.745.18 5.79c-.83 2.03-2.23 3.37-4.21 4.03s-4.69.27-8.12-1.15c-.89-.37-1.34-.56-2.23-.93-3.3 7.92-4.95 11.87-8.25 19.79 10.26 4.28 20.55 8.47 30.88 12.58 3.17-7.97 4.75-11.95 7.92-19.92-.9-.36-1.34-.53-2.24-.89-3.45-1.38-5.65-3-6.61-4.85s-1.02-3.79-.2-5.82 2.22-3.38 4.18-4.05c1.97-.67 4.66-.32 8.08 1.05 5.79 2.34 8.69 3.5 14.5 5.8 3.43 1.34 5.64 2.91 6.62 4.72s1.09 3.74.3 5.78q-1.08 2.805-3.72 3.93c-1.77.75-3.95.75-6.56-.01-6.93 17.81-13.85 35.61-20.78 53.42 3.8 1.48 6.12 2.75 6.97 3.85q2.745 3.435 1.29 7.23c-.77 2-2.15 3.35-4.16 4.03s-4.81.33-8.4-1.06c-7.29-2.83-10.93-4.27-18.2-7.17q-5.355-2.145-6.87-4.95c-1.01-1.87-1.1-3.82-.28-5.86.81-1.99 2.23-3.3 4.27-3.94q3.06-.96 8.31 1.14c.92.37 1.38.55 2.3.92l7.85-19.72Zm73.43 65.62c.45-1.3.68-1.94 1.13-3.24-4.4.54-9.04.47-13.91-.22s-9.16-1.71-12.87-3.05c-8.05-2.91-13.86-7.28-17.4-13.05s-4.39-11.02-2.61-15.75c2.17-5.75 7.42-9.85 15.46-12.49 9.66-3.17 19.83-.73 28.76 2.06 4.33 1.36 9.43 3.85 14.96 6.78.46-1.32.69-1.98 1.15-3.31.72-2.07.36-4.08-1.07-6.05-1.43-1.96-4.79-3.87-10.07-5.74-4.33-1.54-10.23-2.74-17.71-3.64-2.78-.36-4.88-.8-6.31-1.32-1.95-.72-3.36-1.99-4.22-3.81s-.91-3.76-.14-5.81c.43-1.16 1.04-2.08 1.83-2.75a5.9 5.9 0 0 1 2.74-1.31c1.04-.2 3.04-.16 5.99.12 3.92.37 7.86.96 11.79 1.75s7.41 1.72 10.43 2.79c9.02 3.21 15.39 7.49 19.13 12.93s4.54 11.38 2.35 17.83c-3.22 9.52-6.45 19.04-9.67 28.57 1.02.35 1.53.52 2.55.86 3.6 1.21 5.96 2.72 7.06 4.51q1.665 2.7.63 5.82c-.67 2.04-2 3.44-3.97 4.22-1.97.77-4.78.56-8.4-.67-7.06-2.38-10.58-3.59-17.63-6.03Zm8.6-24.78c-5.56-3.14-10.84-5.61-15.85-7.4-6.02-2.15-11.67-2.65-17-1.51-3.34.76-5.33 2.03-5.99 3.81-.48 1.3-.21 2.59.8 3.87 1.87 2.36 4.92 4.31 9.14 5.84 3.58 1.29 7.88 2.1 12.88 2.41 4.99.3 9.65-.06 13.97-1.08.82-2.38 1.24-3.56 2.06-5.94Zm51.99 36.31c-2.88 9.16-4.32 13.74-7.21 22.91 3.66 1.15 5.5 1.72 9.16 2.86 3.68 1.14 6.1 2.59 7.27 4.37s1.44 3.71.8 5.81c-.62 2.05-1.92 3.49-3.89 4.31s-4.82.66-8.52-.49c-9.09-2.81-18.16-5.68-27.2-8.62-3.69-1.2-6.11-2.71-7.25-4.51s-1.38-3.73-.71-5.76c.69-2.08 2.04-3.5 4.05-4.27s4.82-.56 8.43.61c1.04.34 1.56.51 2.6.84 6.78-20.99 13.56-41.99 20.34-62.98-1.01-.33-1.51-.49-2.52-.82-3.55-1.15-5.87-2.63-6.95-4.41-1.08-1.79-1.28-3.72-.59-5.8.67-2.04 1.97-3.45 3.9-4.25 1.92-.8 4.64-.62 8.17.52 6.86 2.22 10.29 3.32 17.16 5.48l-1.5 4.77c4.15-1.14 8.22-1.69 12.24-1.65s8.02.77 11.83 1.82c8.49 2.34 18.34 10.08 22.9 17.37 4.08 6.52 6.46 17.91 4.38 25.51-2.25 8.23-11.53 16.81-19.44 19.35-7.51 2.41-18.8 2.86-26.57.35-3.8-1.23-7.59-2.88-11.06-5.09-3.47-2.22-6.75-4.96-9.82-8.22Zm51.87-10.6c.57-1.97.47-4.71-.3-8.24-.76-3.52-2.55-6.8-5.36-9.84-2.8-3.04-6.49-5.24-11.06-6.62-7.37-2.23-14.01-1.41-19.98 2.46-4.07 2.67-6.63 5.66-7.67 8.98-1.17 3.73-.19 8.02 2.98 12.88 3.17 4.85 7.93 8.25 14.26 10.16 6.37 1.92 12.22 1.74 17.52-.53 5.29-2.27 8.49-5.37 9.62-9.26Zm39.06 36.94c-2.46 9.29-3.69 13.93-6.15 23.21 3.7.98 5.55 1.47 9.26 2.43 3.71.97 6.19 2.3 7.44 4.02s1.6 3.64 1.06 5.77c-.53 2.08-1.76 3.57-3.68 4.48-1.93.91-4.77.88-8.51-.09q-13.77-3.57-27.48-7.35c-3.73-1.02-6.21-2.42-7.43-4.17s-1.54-3.66-.96-5.72c.59-2.11 1.87-3.59 3.84-4.46 1.97-.86 4.77-.79 8.43.22 1.05.29 1.58.43 2.63.72 5.81-21.28 11.63-42.56 17.44-63.84-1.02-.28-1.53-.42-2.54-.7-3.59-.99-5.96-2.35-7.12-4.08s-1.44-3.66-.85-5.77c.58-2.06 1.81-3.54 3.69-4.42 1.88-.89 4.6-.83 8.16.14 6.93 1.9 10.4 2.84 17.34 4.68-.51 1.93-.77 2.9-1.28 4.84 4.08-1.33 8.11-2.07 12.12-2.22 4-.14 8.03.4 11.86 1.27 8.57 1.94 18.73 9.23 23.59 16.29 4.36 6.33 7.24 17.6 5.51 25.27-1.87 8.31-10.73 17.32-18.5 20.23-7.37 2.76-18.6 3.73-26.46 1.58-3.84-1.05-7.69-2.52-11.24-4.57-3.56-2.05-6.94-4.64-10.15-7.76Zm51.2-13c.48-1.99.25-4.73-.67-8.21s-2.85-6.67-5.78-9.58c-2.93-2.9-6.7-4.94-11.32-6.1-7.44-1.88-14.02-.76-19.79 3.39-3.93 2.86-6.35 5.96-7.24 9.32-1 3.78.17 8.02 3.54 12.72s8.27 7.87 14.66 9.49c6.43 1.63 12.25 1.18 17.43-1.34 5.17-2.51 8.22-5.75 9.16-9.69Zm49.51 44.75a2378 2378 0 0 1-15.78-54.36c-2.38-.83-4.06-2.04-5.03-3.63s-1.24-3.31-.82-5.17c.49-2.14 1.65-3.69 3.48-4.67 1.83-.97 4.54-1.06 8.13-.25 5.45 1.22 8.17 1.82 13.63 3 3.6.78 6.02 1.99 7.27 3.64q1.875 2.475 1.2 5.7c-.44 2.1-1.58 3.65-3.4 4.65s-4.41 1.15-7.73.43c3.56 12.27 7.22 24.51 10.97 36.73 8.24-9.73 16.4-19.53 24.49-29.39-3.24-.64-5.5-1.79-6.78-3.43s-1.69-3.54-1.26-5.69c.43-2.1 1.54-3.66 3.35-4.68s4.51-1.17 8.12-.46c5.65 1.11 8.47 1.66 14.12 2.73 3.56.68 5.99 1.82 7.28 3.44s1.74 3.51 1.34 5.66c-.36 1.92-1.32 3.43-2.89 4.52s-3.69 1.48-6.33 1.18a2887 2887 0 0 1-48.03 57.96c3.9.81 6.39 1.68 7.46 2.62 2.14 1.94 2.95 4.24 2.41 6.9-.42 2.1-1.57 3.66-3.44 4.66-1.88 1.01-4.7 1.13-8.48.35-11.4-2.35-22.79-4.8-34.15-7.34-3.76-.84-6.3-2.11-7.59-3.8q-1.95-2.535-1.23-5.67c.49-2.14 1.68-3.68 3.58-4.64 1.89-.96 4.7-1.02 8.44-.18 6.18 1.38 9.27 2.06 15.46 3.4 4.91-5.67 7.35-8.51 12.2-14.2Zm188.51-4.96c-1.01 8.52-1.52 12.77-2.53 21.29 6.35.76 9.53 1.12 15.89 1.83 3.73.42 6.32 1.38 7.77 2.9q2.175 2.28 1.83 5.55c-.23 2.13-1.21 3.79-2.96 4.97-1.74 1.18-4.5 1.57-8.26 1.15-11.36-1.26-22.71-2.62-34.05-4.07-3.76-.48-6.34-1.51-7.76-3.06-1.42-1.56-1.98-3.42-1.69-5.6.28-2.13 1.32-3.75 3.11-4.89 1.79-1.13 4.52-1.46 8.2-.99.97.12 1.45.19 2.42.31 2.4-18.95 4.8-37.91 7.21-56.86l-2.35-.3c-3.63-.46-6.12-1.48-7.49-3.03-1.36-1.55-1.9-3.41-1.61-5.58s1.29-3.83 3-4.97 4.36-1.48 7.96-1.02c23.47 2.96 46.96 5.56 70.5 7.82l-2.05 22.28c-.32 3.46-1.25 5.88-2.8 7.24s-3.47 1.94-5.75 1.72c-2.23-.21-3.98-1.13-5.25-2.74s-1.72-4.17-1.37-7.68c.31-3.07.46-4.61.76-7.68-12.85-1.28-25.68-2.68-38.5-4.21-1 8.43-1.51 12.65-2.51 21.08 5.35.64 8.03.95 13.38 1.55.43-3.79 1.07-6.18 1.93-7.19q2.685-3.225 6.9-2.76c2.22.24 3.95 1.18 5.2 2.82s1.69 4.21 1.33 7.72c-.7 6.71-1.05 10.06-1.76 16.77-.37 3.51-1.34 5.93-2.93 7.27s-3.54 1.89-5.85 1.64c-2.81-.31-4.87-1.71-6.16-4.2-.63-1.17-.73-3.68-.3-7.51-5.39-.61-8.09-.92-13.48-1.56Zm114.39 46.53.21-3.42c-4.04 1.71-8.47 2.9-13.28 3.55s-9.16.83-13.03.55c-8.42-.62-15.09-3.25-19.98-7.85-4.89-4.59-7.09-9.42-6.65-14.45.54-6.12 4.44-11.49 11.37-16.21 8.3-5.65 18.62-6.08 27.86-5.8 4.47.13 9.98 1.15 16.02 2.48.09-1.4.13-2.1.21-3.49.13-2.19-.74-4.03-2.62-5.53s-5.57-2.43-11.09-2.8c-4.52-.31-10.44.13-17.79 1.29-2.73.41-4.85.55-6.34.43-2.04-.16-3.71-1.01-5.01-2.52-1.3-1.52-1.86-3.37-1.67-5.55.1-1.23.44-2.28 1.01-3.14s1.32-1.53 2.26-2c.93-.47 2.85-.98 5.72-1.51 3.82-.71 7.72-1.2 11.66-1.51s7.49-.35 10.65-.14c9.42.65 16.61 3.05 21.61 7.27s7.34 9.73 6.97 16.53l-1.62 30.12c1.06.06 1.59.09 2.66.14 3.75.2 6.39 1.01 7.92 2.44s2.25 3.24 2.14 5.43c-.1 2.14-.99 3.85-2.66 5.13s-4.4 1.83-8.17 1.63c-7.35-.39-11.02-.59-18.36-1.04Zm1.6-26.18c-6.12-1.52-11.79-2.47-17.02-2.83-6.29-.44-11.79.61-16.55 3.15-2.97 1.63-4.53 3.4-4.68 5.29-.11 1.38.48 2.55 1.78 3.51 2.41 1.77 5.82 2.82 10.22 3.14q5.625.42 12.87-1.17c4.83-1.06 9.16-2.67 12.99-4.82.15-2.51.23-3.77.38-6.28Zm75.71-20.78-.72 29.37c-.08 3.14.56 5.23 1.9 6.26 2.09 1.62 5.88 2.5 11.37 2.6 7.97.14 15.36-1.36 22.12-4.51 2.59-1.22 4.62-1.83 6.09-1.82 2.02 0 3.78.73 5.27 2.16s2.24 3.17 2.24 5.22c0 1.91-.82 3.55-2.45 4.93-2.5 2.23-7.44 4.29-14.83 6.1-7.4 1.81-13.64 2.66-18.7 2.57-9.77-.18-17.04-2.34-21.8-6.41s-7.02-8.97-6.84-14.69c.35-10.74.69-21.48 1.04-32.22-2.21-.07-3.32-.11-5.53-.19-3.69-.13-6.29-.91-7.8-2.33s-2.23-3.22-2.14-5.41q.135-3.21 2.55-5.16c1.61-1.3 4.24-1.88 7.9-1.75 2.2.08 3.29.11 5.49.18.17-5.29.25-7.93.43-13.22.11-3.52.89-6.01 2.33-7.47s3.28-2.15 5.53-2.09c2.2.06 3.98.86 5.33 2.4 1.36 1.54 1.99 4.07 1.91 7.59-.13 5.29-.2 7.93-.33 13.22 9.37.24 18.75.4 28.12.5 3.66.04 6.26.74 7.82 2.11q2.325 2.055 2.31 5.34c-.01 2.14-.8 3.89-2.38 5.24s-4.21 2.01-7.9 1.97c-9.44-.09-18.89-.26-28.33-.5Zm79.21-42.06c.15 10.41.31 20.82.46 31.23 3.14-1.86 6.33-3.26 9.55-4.2s6.48-1.46 9.8-1.54c5.24-.13 9.93.6 14.09 2.18 4.16 1.59 7.66 4.17 10.5 7.76s4.38 8.19 4.6 13.81c.35 9.17.7 18.33 1.06 27.49 3.95-.15 6.55.1 7.8.76 2.5 1.37 3.81 3.41 3.93 6.13.09 2.14-.62 3.93-2.14 5.35s-4.17 2.22-7.95 2.36c-7.17.28-10.75.4-17.92.62-3.73.11-6.41-.49-8.06-1.81-1.64-1.31-2.49-3.07-2.54-5.26-.07-2.67 1.1-4.77 3.49-6.31 1.25-.8 3.82-1.22 7.73-1.3-.27-8.83-.54-17.67-.82-26.5-.12-3.76-1.12-6.37-2.94-7.85-2.4-1.95-5.89-2.9-10.47-2.79-3.39.08-6.37.78-8.96 2.09s-6.07 4.11-10.46 8.36c.13 9.15.27 18.29.4 27.44 4-.06 6.6.25 7.78.94 2.51 1.43 3.8 3.5 3.86 6.22.04 2.14-.72 3.91-2.3 5.3s-4.26 2.12-8.04 2.18c-7.14.11-10.71.15-17.85.19-3.78.03-6.48-.65-8.09-2s-2.42-3.13-2.42-5.32c0-2.67 1.24-4.74 3.72-6.23 1.21-.77 3.8-1.13 7.75-1.11l-.45-63.39c-1.03 0-1.55.01-2.58.02-3.64.02-6.23-.65-7.78-2.01-1.55-1.35-2.32-3.13-2.32-5.32 0-2.14.77-3.9 2.3-5.26 1.54-1.36 4.11-2.05 7.72-2.07 7.03-.04 10.54-.08 17.56-.18Zm148.77 60.19a2497 2497 0 0 1-63.52 4.53c1.82 3.72 4.87 6.62 9.13 8.71 4.26 2.08 9.93 2.9 16.97 2.42 5.78-.39 13.38-2.1 22.75-5.19 3.87-1.26 6.55-1.96 8.07-2.09q3.105-.255 5.4 1.62c1.53 1.25 2.39 2.93 2.57 5.01.17 1.9-.45 3.59-1.86 5.04-1.87 1.93-6.7 4.03-14.47 6.24s-15.37 3.52-22.62 4.05c-10.71.79-22.06-1.73-30.66-8.1-6.69-4.96-12.01-15.76-12.41-23.85-.42-8.39 4.37-20.06 10.68-25.69 6.46-5.76 17.79-10.9 26.69-11.31 6.04-.28 11.9.22 17.22 1.93 5.32 1.7 9.35 3.65 12.07 5.86 3.85 3.22 7.21 7.33 9.96 12.29 1.91 3.45 3.07 7.58 3.48 12.32.22 2.48.32 3.72.54 6.19Zm-18.28-13.19c-2.68-4-5.98-6.88-9.92-8.67-3.93-1.79-8.5-2.5-13.72-2.15-5.17.35-9.57 1.66-13.23 3.96s-6.57 5.6-8.74 9.92c15.21-.86 30.42-1.86 45.6-3.06Zm64.51-31.48c.41 3.64.61 5.45 1.02 9.09 5.89-5.12 10.55-8.64 14.04-10.55 3.49-1.9 6.83-3.06 10.02-3.46 4.91-.61 9.9.52 14.99 3.41 3.46 1.95 5.37 4.14 5.7 6.6q.42 3.12-1.56 5.58c-1.32 1.64-3.05 2.6-5.18 2.88-1.89.25-3.99-.39-6.3-1.93-2.31-1.53-4.28-2.2-5.91-1.99-2.13.27-5.15 1.94-9.08 5s-8.79 7.52-14.6 13.35c.98 8.78 1.47 13.17 2.46 21.95 8.84-.99 13.26-1.51 22.09-2.59 3.73-.46 6.47-.12 8.23 1.03s2.78 2.8 3.06 4.98c.27 2.13-.3 3.97-1.73 5.52s-4.02 2.56-7.78 3.02c-15.71 1.94-31.44 3.67-47.19 5.25-3.77.38-6.52-.04-8.25-1.24s-2.7-2.89-2.9-5.07q-.3-3.195 1.89-5.46c1.46-1.5 4.06-2.44 7.8-2.81 3.7-.37 5.55-.56 9.24-.94l-3.69-35.4c-2.2.23-3.31.34-5.51.57-3.67.37-6.36-.05-8.05-1.25s-2.64-2.89-2.86-5.07c-.21-2.13.41-3.95 1.83-5.45s3.95-2.43 7.6-2.8c8.25-.84 12.37-1.28 20.61-2.2Zm83.72-42.39c7.33 4.15 11.01 6.2 18.42 10.28 2.24 1.18 3.49 2.51 3.74 4.02.22 1.32-.07 2.5-.87 3.55s-1.89 1.69-3.25 1.91c-1.12.18-2.62-.22-4.48-1.22-7.45-4.09-11.15-6.15-18.52-10.31q-3.255-1.815-3.6-4.08c-.2-1.32.1-2.5.91-3.54.8-1.04 1.88-1.66 3.23-1.87 1.11-.17 2.58.25 4.42 1.26m119.81 26.55c-2.76-.92-5.57-1.45-8.41-1.6-2.85-.15-5.74.07-8.68.68-5.83 1.21-10.28 3.05-13.35 5.56-1.36 1.1-1.95 2.11-1.77 3.05.21 1.08 1.47 1.95 3.73 2.54 1.71.44 5.4.45 11.01.03 10.31-.77 17.6-.96 21.82-.51 5.54.6 10.11 2.28 13.68 5.05s5.79 6.03 6.64 9.79c1.15 5.11-.3 9.94-4.39 14.45-6.7 7.76-16.44 11.01-25.56 13.29-4.25 1.06-8.69 1.41-12.64 1.45s-7.64-.34-11.08-1.12a8.8 8.8 0 0 1-2.14 1.87c-.79.49-1.64.83-2.55 1-2.42.47-4.49.1-6.2-1.11-1.71-1.2-2.9-3.54-3.55-7-.37-1.94-.55-2.91-.92-4.85-.65-3.46-.41-6.07.73-7.81s2.85-2.83 5.14-3.28c1.84-.35 3.48-.17 4.91.54 1.43.72 2.72 2.17 3.88 4.37 2.71 1.41 5.82 2.26 9.31 2.56 3.49.29 7.39 0 11.68-.89 7.04-1.46 12.29-3.65 15.74-6.54q2.43-2.13 2.07-3.81c-.4-1.86-2.06-3.11-4.94-3.76-2.89-.65-8.55-.52-16.95.35-12.49 1.29-21.17.54-25.94-2.1-4.75-2.63-7.62-6.44-8.57-11.45-.98-5.15.51-9.86 4.38-14.16 5.26-5.84 12.82-9.79 22.74-11.84 3.45-.71 6.84-1.09 10.16-1.14s6.58.27 9.78.94c.78-.85 1.54-1.53 2.27-2.03s1.44-.83 2.12-.98c2.04-.45 3.9-.09 5.59 1.07s2.92 3.46 3.68 6.9c.31 1.4.47 2.09.78 3.49.7 3.12.78 5.32.24 6.61-1.09 2.49-3 4.03-5.7 4.62-1.82.4-3.53.21-5.14-.56q-2.415-1.155-3.57-3.69Zm139.08-.68c-5.24-18.37-10.48-36.75-15.73-55.12-3.12.84-5.61.81-7.46-.08s-3.06-2.37-3.64-4.43q-.885-3.165.81-5.76c1.13-1.73 3.45-3.09 6.97-4.09 10.19-2.92 20.37-5.89 30.53-8.91 4.73-1.43 9.61-2.01 14.65-1.73s9.35 1.27 12.92 2.98c2.7 1.29 5.73 3.28 9.08 5.95 3.35 2.68 6.15 5.5 8.38 8.49 2.23 2.98 4.14 6.9 5.72 11.74.87 2.66 1.3 4 2.16 6.66 1.91 5.89 2.55 11.46 1.88 16.71s-2.29 9.88-4.88 13.87c-2.58 4-5.22 7.16-7.89 9.5-4.25 3.68-10.31 6.73-18.17 9.1-10.18 3.05-20.37 6.04-30.58 8.99-3.67 1.05-6.47 1.13-8.4.26q-2.895-1.305-3.78-4.47c-.58-2.06-.28-3.98.9-5.75s3.35-3.07 6.51-3.92Zm15.12-4.38c6.43-1.89 9.64-2.84 16.05-4.78 5.98-1.81 10.25-4 12.79-6.53 3.31-3.31 5.46-6.92 6.43-10.77.98-3.85.65-8.35-.98-13.48-.84-2.64-1.26-3.97-2.09-6.61-1.39-4.41-3.51-7.98-6.32-10.74-4.41-4.31-8.63-6.89-12.69-7.75s-8.67-.5-13.87 1.07c-6.18 1.87-9.27 2.79-15.46 4.61 5.38 18.33 10.76 36.67 16.15 55Zm126.95-26.17c-.47-1.29-.7-1.94-1.17-3.23-3.08 3.19-6.73 6.06-10.94 8.6-4.22 2.53-8.19 4.45-11.91 5.74-8.08 2.81-15.33 3.08-21.7.82-6.37-2.25-10.33-5.8-11.93-10.59-1.94-5.83-.46-12.32 4.11-19.43 5.48-8.54 14.91-13.06 23.6-16.51 4.21-1.68 9.74-2.95 15.9-4.17-.48-1.32-.72-1.98-1.19-3.29-.75-2.06-2.3-3.4-4.64-4.02-2.35-.62-6.16.02-11.44 1.89-4.33 1.54-9.66 4.32-16.03 8.33-2.38 1.47-4.29 2.45-5.72 2.94-1.96.67-3.85.57-5.66-.3s-3.07-2.35-3.77-4.42c-.4-1.17-.5-2.27-.31-3.29s.62-1.93 1.3-2.74 2.25-2.04 4.71-3.68c3.27-2.18 6.7-4.2 10.24-6.06s6.83-3.33 9.85-4.41c9.03-3.2 16.68-3.89 23.02-2.03s10.71 5.97 13.08 12.35c3.5 9.43 6.99 18.85 10.49 28.28 1.01-.38 1.52-.56 2.53-.94 3.57-1.33 6.35-1.65 8.35-.96 2 .7 3.39 2.07 4.16 4.12.76 2.01.62 3.93-.43 5.78s-3.37 3.45-6.97 4.79c-7 2.61-10.5 3.9-17.52 6.44Zm-8.94-24.66c-6.31 1.07-11.96 2.48-16.97 4.25-6.02 2.13-10.73 5.3-14.14 9.54-2.11 2.69-2.86 4.93-2.24 6.74.45 1.31 1.46 2.14 3.05 2.51 2.94.65 6.53.25 10.76-1.22 3.6-1.25 7.44-3.33 11.51-6.25 4.07-2.91 7.46-6.13 10.17-9.65-.86-2.37-1.29-3.55-2.14-5.91Zm76.39-1.66c-14.7-11.9-29.28-23.97-43.68-36.24-2.47.65-4.56.58-6.26-.19-1.71-.77-2.9-2.05-3.58-3.83-.78-2.05-.68-3.99.32-5.82.99-1.84 3.23-3.42 6.7-4.77 5.26-2.04 7.89-3.08 13.14-5.16 3.46-1.37 6.18-1.73 8.16-1.06q2.97 1.005 4.2 4.05c.8 1.99.72 3.91-.26 5.77-.98 1.85-3.07 3.42-6.27 4.7 9.86 8.18 19.79 16.29 29.79 24.31 1.5-12.71 2.9-25.42 4.2-38.15-3.09 1.29-5.64 1.61-7.64.97s-3.41-1.98-4.24-4.01c-.82-1.98-.75-3.9.2-5.77.95-1.86 3.15-3.51 6.59-4.95 5.39-2.25 8.08-3.39 13.46-5.69 3.39-1.45 6.08-1.87 8.08-1.25s3.44 1.93 4.31 3.94c.78 1.79.81 3.59.08 5.38-.72 1.79-2.29 3.31-4.69 4.54a3006 3006 0 0 1-8.09 75.1c3.74-1.52 6.32-2.2 7.76-2.02 2.89.41 4.86 1.86 5.9 4.37.82 1.98.72 3.92-.3 5.81s-3.34 3.58-6.95 5.05a2119 2119 0 0 1-32.86 13.08c-3.64 1.41-6.47 1.78-8.51 1.1s-3.43-2.01-4.2-4.02c-.78-2.05-.64-4 .41-5.86s3.38-3.48 6.99-4.88c5.97-2.32 8.95-3.49 14.91-5.86.96-7.46 1.43-11.18 2.33-18.63Z" class="cls-1fat3"/></svg>