<svg fill="none" xmlns="http://www.w3.org/2000/svg" width="300" height="300" viewBox="0 0 300 300"><g transform="translate(10)"><rect x="103.614" y="28.943" width="68.841" height="34.42" rx="8.826" stroke="#6D2D5E" stroke-width="8.826"/><rect x="9.178" y="45.712" width="256.83" height="202.992" rx="13.239" fill="#893976"/><rect x="57.279" y="62.04" width="160.629" height="170.337" rx="16.328" fill="#fff" stroke="#893976" stroke-width="2.648"/><path d="M236.535 42.982a7.94 7.94 0 0 1 5.846-2.565h16.566c7.312 0 13.239 5.927 13.239 13.238v19.138a7.8 7.8 0 0 1-1.926 5.13c-3.077 3.521-8.541 3.559-11.667.08L247.421 65.57l-10.886-11.832a7.943 7.943 0 0 1 0-10.756M38.65 251.435A7.94 7.94 0 0 1 32.806 254H16.24C8.927 254 3 248.073 3 240.761v-19.138c0-1.886.684-3.709 1.926-5.129 3.077-3.521 8.54-3.559 11.667-.081l11.172 12.434 10.886 11.832a7.943 7.943 0 0 1 0 10.756M38.65 42.982a7.94 7.94 0 0 0-5.845-2.565H16.24C8.927 40.417 3 46.344 3 53.655v19.138c0 1.887.684 3.71 1.926 5.13 3.077 3.521 8.54 3.559 11.667.08L27.765 65.57l10.886-11.832a7.943 7.943 0 0 0 0-10.756m197.884 208.453a7.94 7.94 0 0 0 5.846 2.565h16.566c7.312 0 13.239-5.927 13.239-13.239v-19.138a7.8 7.8 0 0 0-1.926-5.129c-3.077-3.521-8.541-3.559-11.667-.081l-11.172 12.434-10.886 11.832a7.943 7.943 0 0 0 0 10.756" fill="#AA80F9"/><rect x="111.557" y="21" width="54.72" height="15.004" rx="4.413" fill="#AA80F9"/></g></svg>