<svg fill="none" xmlns="http://www.w3.org/2000/svg" width="300" height="300" viewBox="0 0 300 300"><g clip-path="url(#a)" transform="translate(5 12)"><circle cx="144.879" cy="128.19" r="111.31" stroke="#FFC444" stroke-width="31.622"/><path fill="url(#b)" d="M76 60h138v137H76z"/><path d="m19.777 176.422 11.798-1.027c8.059-.702 6.683-6.491 9.528-13.773 2.73-6.991 9.747-11.259 14.853-12.548 4.212-1.063 9.47-1.114 9.47-1.114-.278.397-2.526 1.217-5.583 2.464-13.16 5.366-9.463 27.835-9.366 28.952s11.66 4.05 11.733 4.887c.014.168-7.107-.276-10.3 1.037-.683.281-.1.926-.316 1.391-.24.517-.998.628-.258.949.84.364 2.216.635 3.904.886.462.069 1.542-1.586 2.046-1.519.533.071 1.96 2.14 2.53 2.214 4.021.517 7.68 1.047 11.444 2.164 12.405 3.682 16.194 14.266 18.675 21.59 1.984 5.858 2.144 12.715 4.612 20.037 3.472 10.298 9.652 7.345 10.088 7.654.366.259-10.334 15.386-21.983 1.567s-26.511-10.44-27.241-11.766c-.73-1.325 6.079-5.45 5.578-11.201-.4-4.597-3.437-5.26-3.468-5.613-.073-.838-2.218 5.59-7.426 7.951-4.334 1.965-9.637 4.754-13.842 4.182 1.35-1.149-1.494-6.892-1.728-9.573s.258-2.599-.034-5.95c3.992.274 6.178 1.447 10.192.502s3.498-9.348 3.614-9.815c.106-.428-.498-1.82-2.17-1.82-.18-.539 3.207-3.615 2.937-4.217-1.52-3.389-6.694-5.438-9.17-3.162-3.431 3.153-6.008 3.794-7.898 2.213s.365-2.881.58-3.744c.215-.862.79-.912.79-.912l.026-1.972s-.634-.434-1.396-.442c-1.34-.013-3.158.353-3.19-.003-.048-.559.479-1.167 1.293-1.801.815-.634 3.18-.84 3.18-.84l-.164-4.487z" fill="#000"/><path d="M52.942 235.048c.296-2.248 7.797-6.897 10.545-8.26 1.859.168 15.746 2.994 16.37 4.527.782 1.916 11.196 13.312 6.251 15.33s-33.536-8.787-33.166-11.597" fill="#000"/><path d="M3.83 204.668c.25-.577.924-.856 1.506-.622l133.951 53.813c.582.234.852.892.602 1.469s-.924.857-1.507.623L4.432 206.138a1.103 1.103 0 0 1-.602-1.47" fill="#000"/><path d="M124.185 250.692s25.121.945 27.651 2.94 1.405 20.701.63 21.876c-.344.522-5.904-4.867-12.33-9.762-8.04-6.124-17.256-12.114-17.256-12.114s-7.664.799-8.042 0 1.22-8.802 2.045-9.193 7.302 6.253 7.302 6.253" fill="#000"/><ellipse cx="33.184" cy="215.139" rx="4.693" ry="2.57" transform="rotate(-4.977 33.184 215.139)" fill="#000"/><path d="M61.449 230.556c2.082-.331 4.127.822 4.9 2.763l7.51 18.841a3.333 3.333 0 0 1-2.126 4.424 3.48 3.48 0 0 1-3.915-1.373L56.05 237.678c-1.787-2.662-.216-6.229 2.966-6.735zm14.685-1.279c2.081-.331 4.126.822 4.9 2.763l7.51 18.841a3.333 3.333 0 0 1-2.126 4.424 3.48 3.48 0 0 1-3.916-1.373l-11.767-17.533c-1.787-2.662-.216-6.229 2.966-6.735z" fill="#000"/><path d="M73.293 251.538c3.557 2.149.946 3.835-.925 6.73s-4.491 4.577-5.851 3.755c-1.36-.821-.946-3.834.925-6.73 1.871-2.895 4.49-4.576 5.851-3.755m14.685-1.278c3.557 2.148.946 3.834-.926 6.73-1.87 2.895-4.49 4.576-5.85 3.754s-.947-3.834.925-6.729c1.87-2.896 4.49-4.577 5.85-3.755m57.698-24.809 1.789-1.653-.447 2.154.375.789-3.419 4.25-.558-.23-.897.29-.257-.281c1.05-.291.127-.552.572-1.147.278-.372.43-.869.395-1.419-.079-1.21-1.505-1.562-1.996-1.281-.106.061.61-.587-.251-1.482-.571-.454-1.289-.292-1.559-.224.078-.267.589-.932.106-1.635-.483-.702-1.347-.62-1.803-.563.218-.21.668-.835.341-1.478-.422-.831-1.044-.911-1.95-.805.776-.939 1.985-2.056 4.33-.912 3.17 1.547 3.472 4.988 4.074 5.635.482.518.97.21 1.155-.008" fill="#000"/><path d="m148.58 228.475 1.556-2.076-1.882.663-1.115-.46-4.098 3.945.526.547-.283.752.191.199c.153-.194.157-.535 1.129-.489.494.023.836-.478 1.381-.47 1.199.019 1.618 1.441 1.365 1.952-.054.109.55-.647 1.477.179.477.553.353 1.287.299 1.564.26-.093.891-.643 1.609-.19s.679 1.329.647 1.793c.196-.231.791-.717 1.442-.419.841.384.952 1.009.893 1.93.888-.832 1.869-2.084.681-4.421-1.722-3.389-5.099-3.257-5.768-3.832-.535-.461-.256-.97-.05-1.167m69.316-22.58-.694-3.225 2.204 2.005 1.178.107 2.601 6.916-.653.492-.281 1.246-.504.106c.384-1.425-.557-.528-.943-1.458-.242-.58-.717-1.1-1.383-1.437-1.466-.742-2.859.677-2.869 1.444-.002.165-.265-1.117-1.902-.729-.923.353-1.229 1.303-1.335 1.665-.258-.276-.681-1.33-1.834-1.251-1.152.079-1.65 1.143-1.899 1.715-.095-.4-.514-1.355-1.489-1.417-1.26-.08-1.782.591-2.283 1.72-.56-1.552-1.03-3.732 1.921-5.678 3.989-2.63 8.21-.612 9.379-.869.936-.205.914-.986.786-1.352" fill="#000"/><path d="m223.425 204.591-1.349-3.245-.524 2.652-1.304.983 1.777 7.498 1-.237.682.849.364-.086c-.121-.312-.515-.552.208-1.654.367-.559.018-1.305.403-1.934.848-1.385 2.796-.895 3.217-.248.09.14-.375-1.086 1.226-1.598.975-.175 1.745.476 2.03.729.071-.367-.135-1.481.888-2.007 1.022-.526 2.018.123 2.537.481-.134-.388-.292-1.416.505-1.971 1.028-.716 1.833-.414 2.866.289-.358-1.608-1.142-3.616-4.687-3.842-5.139-.326-7.311 3.704-8.444 4.087-.906.307-1.307-.369-1.395-.746m-38.42 18.065 2.664-3.56-.087 4.015.934 1.291-4.729 8.762-1.077-.227-1.515.816-.554-.419c1.788-.87.045-1.033.647-2.248.376-.759.485-1.702.238-2.677-.543-2.146-3.218-2.306-4.006-1.638-.17.144.9-1.257-.943-2.578-1.175-.625-2.41-.096-2.872.116.052-.506.748-1.869-.352-2.97s-2.622-.666-3.423-.413c.322-.45.923-1.721.123-2.767-1.033-1.351-2.177-1.288-3.768-.798 1.082-1.942 2.882-4.349 7.471-3.071 6.202 1.726 7.885 7.802 9.18 8.763 1.037.77 1.811.056 2.069-.397" fill="#000"/><path d="m191.223 227.121 2.104-4.242-3.159 1.813-2.153-.456-6.048 8.44 1.126.807-.259 1.444.409.294c.21-.399.105-1.012 1.865-1.252.893-.122 1.342-1.136 2.323-1.301 2.157-.364 3.382 2.049 3.097 3.05-.061.215.772-1.342 2.709-.168 1.04.836 1.061 2.194 1.056 2.708.435-.253 1.385-1.448 2.824-.874 1.439.575 1.661 2.161 1.756 3.005.276-.48 1.182-1.55 2.45-1.231 1.637.411 2.043 1.496 2.242 3.168 1.318-1.787 2.665-4.36-.242-8.161-4.215-5.512-10.232-4.155-11.624-4.967-1.113-.649-.781-1.655-.476-2.077m-21.833 23.163-1.133-1.831 1.794.75.748-.192 3.113 3.682-.293.445.1.828-.287.175c-.076-.96-.458-.203-.899-.689a1.88 1.88 0 0 0-1.165-.581c-1.063-.135-1.609 1.042-1.447 1.516.034.102-.408-.628-1.329-.031-.49.419-.47 1.069-.456 1.315-.219-.113-.71-.668-1.401-.367s-.765 1.064-.793 1.47c-.145-.225-.612-.72-1.225-.545-.792.227-.966.753-1.026 1.557-.685-.831-1.451-2.069-.063-3.911 1.876-2.49 4.913-2.174 5.575-2.588.53-.331.346-.806.187-1.003" fill="#000"/><path d="m172.503 248.272-1.539-1.7.258 1.745-.587.89 2.735 4.22.563-.365.605.373.205-.133c-.143-.165-.438-.226-.235-1.062.103-.424-.274-.806-.175-1.277.218-1.037 1.522-1.162 1.923-.857.086.066-.468-.585.404-1.251.561-.321 1.177-.09 1.407.004-.037-.242-.407-.881.106-1.428.514-.548 1.268-.367 1.665-.26-.167-.21-.489-.807-.121-1.323.475-.665 1.036-.656 1.825-.45-.572-.91-1.494-1.972-3.722-1.335-3.231.925-3.684 3.878-4.296 4.362-.49.387-.884.059-1.021-.153M117.192 25.173q1.781-.525 1.333-2.045-.19-.645-.997-.892-.591-.192-1.565-.323-.962-.15-1.46-.254a9 9 0 0 1-1.157-.36q-1.3-.5-1.657-1.714-.358-1.214.343-2.288.712-1.095 2.325-1.57t3.743.015a14.3 14.3 0 0 1 .476 2.463q-.447.3-1.414.584l-.984-1.696a4.5 4.5 0 0 0-1.293.198q-.676.198-.959.6-.282.4-.11.983.167.568.871.862a8 8 0 0 0 1.642.417q.922.129 1.275.192t.919.23q.567.166.894.37.847.552 1.114 1.458.47 1.597-.335 2.77-.807 1.17-2.511 1.674-.906.267-2.087.281-1.17-.005-2.067-.275-.246-.946-.501-2.606a8 8 0 0 1 1.438-.558l.865 1.748a6.3 6.3 0 0 0 1.859-.264m9.822-8.482-.489.082-.832-1.793q-.942.025-1.397.116-.895.18-1.938.763-.207.678-.204 1.673.003.996.173 1.843.866 4.334 3.362 3.834 1.068-.213 1.633-.652l-.053-1.982q.989-.198 1.529-.191.593 1.661.806 2.728-.32.358-1.397.933a7.8 7.8 0 0 1-2.16.79q-4.679.936-5.834-4.841-.549-2.748.296-4.402.86-1.657 3.357-2.157 1.24-.248 2.27-.078.91.144 1.582.402.213 1.067.279 2.622a4.2 4.2 0 0 1-.983.31" fill="#000"/><path d="m136.25 12.141.032.158q.066.653-.094 1.136-.19.18-.627.32l3.457 7.6 1.533.038q.066.653-.226 1.423l-3.871.392-.232-.862.842-.423-.819-1.735-3.584.363a52 52 0 0 1-.36 1.533l1.114.032q.033.334-.048.793-.085.442-.178.63l-3.871.392-.232-.862q.687-.375 1.245-.577l1.847-8.458q-1.084-.051-1.651-.251a2.2 2.2 0 0 1 .061-.827q.324-.145 1.535-.413a19 19 0 0 1 2.342-.398q1.13-.114 1.785-.004m-1.611 4.589-.675-2.056-.159.016-.287 2.25-.547 2.067 2.66-.27z" fill="#000"/><path d="M150.709 13.22 150.57 23l-2.05-.019-5.202-8.662q-.108 4.69-.146 7.075l1.103.155q-.006.656-.381 1.389l-3.89-.037-.136-.881q.9-.36 1.349-.452l-.065-8.47-1.325-.429.137-.975 4.163.039 4.58 8.4-.175-6.966-1.325-.429.137-.975 4.163.039q-.016 0 0 .032a.4.4 0 0 1 .062.144q.048.097.094.241.093.258.12.85-.817.12-1.074.15m11.398 8.13 2.804-7.574 4.102.709q.01.7-.04.984-.804.138-1.38.184l-.29 8.35 1.064.33q-.112.647-.6 1.31l-3.834-.663.008-.892q.946-.21 1.404-.229l-.102-6.646-2.817 6.71-1.609-.278-1.159-8.145-2.546 6.741 1.064.33q-.112.647-.601 1.31l-3.833-.663.008-.892q.947-.21 1.404-.228l2.563-8.152-1.239-.637.293-.94 4.417.763.761 8.19z" fill="#000"/><path d="M172.899 17.429a124 124 0 0 1-.922 3l1.566.463.467-1.013q.783.231 1.406.833l-.909 3.07-1.027-.253q-.204-.662-.143-1.095l-1.811-.537a272 272 0 0 0-.991 3.23l2.625.778.734-1.236q.951.283 1.415.52a6.6 6.6 0 0 1-.242 1.665q-.21.706-.383 1.122l-7.614-2.255.112-.886q1.112-.088 1.421-.063.253-.911.725-2.557a844 844 0 0 0 1.543-5.604l-1.156-.777.4-.9 7.537 2.233q-.077.428-.263 1.058-.182.614-.739 1.65-.522.014-1.489-.273l.056-1.486zM39.182 142.165q-.294-1.834-1.86-1.583-.663.106-1.01.876-.267.561-.52 1.51-.27.936-.437 1.416a9 9 0 0 1-.504 1.103q-.663 1.225-1.911 1.426-1.25.2-2.226-.632-.995-.846-1.262-2.505-.267-1.66.49-3.711a14 14 0 0 1 2.505-.159q.24.48.399 1.476l-1.807.761q-.08.612.031 1.308.112.696.473 1.027.362.33.962.234.585-.093.965-.755.363-.673.623-1.575.244-.899.352-1.24.108-.342.345-.883t.481-.839q.655-.77 1.587-.92 1.645-.264 2.705.685 1.06.948 1.342 2.703.15.933.014 2.106-.155 1.16-.536 2.015-.97.123-2.649.166a8 8 0 0 1-.37-1.497l1.844-.637a6.3 6.3 0 0 0-.026-1.876m-7.164-10.821.018.496-1.884.597q-.095.938-.062 1.401.064.91.51 2.018.647.292 1.634.415a9.5 9.5 0 0 0 1.85.064q4.41-.309 4.23-2.848-.075-1.086-.44-1.703l-1.971-.199q-.07-1.006.004-1.541 1.723-.376 2.809-.453.315.363.747 1.504.432 1.126.51 2.244.333 4.758-5.544 5.17-2.794.196-4.329-.852-1.535-1.065-1.712-3.604-.09-1.262.21-2.262a8 8 0 0 1 .6-1.518q1.086-.076 2.636.056.144.44.184 1.015" fill="#000"/><path d="m28.678 121.604.16-.012q.657.018 1.115.238.155.213.24.663l7.976-2.463.232-1.515q.657.016 1.383.405l-.103 3.889-.884.12-.313-.889-1.825.592-.096 3.601q1.412.518 1.475.552l.173-1.101q.336.01.781.149.43.14.602.256l-.103 3.889-.884.121a9 9 0 0 1-.414-1.308l-8.155-2.907q-.188 1.068-.459 1.606a2.2 2.2 0 0 1-.812-.166q-.103-.339-.215-1.575a19 19 0 0 1-.097-2.373q.03-1.136.223-1.772m4.347 2.181-2.125.408-.005.161 2.195.57 1.981.805.07-2.672z" fill="#000"/><path d="m31.585 107.4 9.685 1.381-.28 2.03-9.253 4.06q4.638.703 6.999 1.044l.293-1.075q.65.09 1.33.555l-.53 3.854-.892.023q-.243-.939-.277-1.396l-8.41-1.012-.593 1.26-.95-.26.567-4.124 8.915-3.476-6.932-.712-.594 1.26-.95-.26.568-4.124q-.003.016.032.005a.4.4 0 0 1 .151-.044q.102-.034.251-.063.267-.06.858-.011.015.827.012 1.085m9.513-10.273-7.156-3.743 1.224-3.979q.696.08.972.165.033.814.007 1.393l8.245 1.348.462-1.013q.628.193 1.223.762l-1.144 3.718-.884-.122q-.088-.965-.048-1.421l-6.606-.744 6.298 3.647-.48 1.561-8.227.114 6.363 3.383.463-1.013q.627.192 1.222.761l-1.144 3.718-.884-.121q-.088-.965-.048-1.422l-7.76-3.578-.789 1.148-.895-.41 1.318-4.284 8.22.285z" fill="#000"/><path d="M38.581 85.924q1.67.736 2.858 1.296l.66-1.494-.946-.592q.33-.747 1.005-1.289l2.93 1.293-.383.986q-.681.118-1.103.003l-.763 1.728q2.038.934 3.078 1.393l1.105-2.505-1.132-.884q.4-.909.695-1.338.931.149 1.62.452.674.297 1.065.522l-3.205 7.265-.864-.223q.054-1.114.118-1.418-.87-.367-2.444-1.043a821 821 0 0 0-5.363-2.244l-.917 1.048-.842-.511 3.173-7.192q.415.13 1.015.395.587.258 1.544.944-.054.518-.46 1.441l-1.468-.244zm204.629 1.747q.757 1.695 2.205 1.049.614-.275.75-1.107.112-.612.112-1.594.02-.974.057-1.48.042-.494.202-1.196.323-1.355 1.478-1.871t2.313.035q1.18.56 1.866 2.095.686 1.534.485 3.712-1.053.47-2.378.8-.356-.404-.767-1.323l1.55-1.202a4.6 4.6 0 0 0-.369-1.256q-.287-.642-.722-.87-.435-.225-.99.022-.541.243-.737.979a8 8 0 0 0-.195 1.683q-.005.93-.02 1.289-.015.357-.105.941t-.248.936q-.433.912-1.296 1.298-1.52.68-2.79.037-1.27-.642-1.994-2.264-.386-.862-.558-2.031-.15-1.16-.003-2.086.905-.369 2.516-.844.38.532.745 1.35l-1.617 1.092q.111.915.51 1.806m9.716 8.604-.146-.475 1.666-1.063q-.151-.93-.302-1.37-.297-.862-1.014-1.818-.7-.115-1.686.021a9.6 9.6 0 0 0-1.804.417q-4.178 1.437-3.351 3.844.354 1.03.865 1.53l1.956-.316q.328.954.394 1.49-1.567.81-2.596 1.163-.398-.27-1.111-1.26a7.8 7.8 0 0 1-1.072-2.035q-1.551-4.511 4.021-6.428 2.649-.91 4.402-.294 1.757.632 2.585 3.039.411 1.196.38 2.24a8 8 0 0 1-.187 1.621q-1.03.354-2.561.627a4.2 4.2 0 0 1-.439-.933" fill="#000"/><path d="m258.667 104.821-.152.053q-.638.153-1.138.058-.204-.165-.402-.578l-7.07 4.44.167 1.524q-.638.152-1.44-.035l-.905-3.783.823-.345.532.778 1.61-1.044-.838-3.503a54 54 0 0 1-1.567-.152l.117 1.108a3 3 0 0 1-.793.058q-.45-.024-.647-.092l-.905-3.784.822-.345q.463.63.738 1.157l8.629.702q-.094-1.081.029-1.67.452-.107.827-.05.187.301.615 1.467.446 1.177.706 2.267.265 1.106.242 1.769m-4.762-.984 1.947-.943-.037-.156-2.268.016-2.121-.267.622 2.601z" fill="#000"/><path d="m259.528 119.295-9.713 1.166-.254-2.033 7.891-6.312q-4.662.519-7.032.799l-.005 1.114q-.653.082-1.428-.192l-.483-3.861.856-.252q.476.844.627 1.277l8.386-1.194.248-1.37.985.005.517 4.131-7.714 5.66 6.88-1.103.248-1.37.985.006.517 4.13q-.002-.015-.032.004a.4.4 0 0 1-.135.082 2 2 0 0 1-.226.125q-.243.127-.826.232-.23-.793-.292-1.044m-6.537 12.38 7.88 1.769-.155 4.16q-.693.102-.981.091a16 16 0 0 1-.366-1.343l-8.314.826-.185 1.099q-.656-.024-1.379-.42l.146-3.888.885-.111q.334.91.414 1.361l6.573-.987-7.026-1.897.061-1.632 7.918-2.235-7.021-1.625-.185 1.099q-.656-.025-1.378-.42l.145-3.888.886-.111q.334.91.413 1.361l8.421 1.453.466-1.313.971.165-.168 4.479-8.015 1.848z" fill="#000"/><path d="M258.316 141.848a134 134 0 0 1-3.096-.513l-.251 1.613 1.067.328a3.4 3.4 0 0 1-.639 1.505l-3.164-.492.115-1.051q.628-.292 1.065-.288l.291-1.867a268 268 0 0 0-3.333-.551l-.421 2.705 1.322.562q-.152.981-.326 1.473a6.6 6.6 0 0 1-1.682-.019 12 12 0 0 1-1.163-.229l1.22-7.847.892-.007q.236 1.09.252 1.4.936.13 2.631.377 3.807.527 5.76.782l.615-1.249.946.276-1.208 7.768q-.435-.02-1.083-.12-.633-.098-1.735-.513-.082-.515.073-1.511l1.48-.143z" fill="#000"/><defs><clipPath id="a"><path fill="#fff" d="M0 0h276v276H0z"/></clipPath><pattern id="b" patternContentUnits="objectBoundingBox" width="1" height="1"/></defs></g></svg>