<svg fill="none" xmlns="http://www.w3.org/2000/svg" width="300" height="300" viewBox="0 0 300 300"><g transform="translate(10)"><path d="M70.389 37.63c9.804-5.488 18.66 3.672 21.969 9.844.382 1.121 1.465 2.783 2.957 3.153 1.865.462 2.358-.148 2.867-4.861s9.906-2.311 13.592 3.221c2.949 4.427-.277 9.3-2.3 12.599-1.43 2.332 1.302 3.622 4.765 1.181 6.435-4.535 8.018-3.071 10.568 3.5s-1.692 10.606-7.538 12.896c-5.543 2.172-6.448 11.819 4.048 4.962 10.495-6.856 13.208 3.494 17.827 9.698s-6.118 21.138-10.32 16.798-8.169 5.453 1.89 13.665-2.239 19.681-.544 12.842c1.695-6.838-6.063-10.502-11.869-14.581s-10.156 11.496-16.028 8.148c-5.757-3.282-12.145-5.532-11.993-8.847.12-2.599 3.415-6.274 6.89-7.857 4.08-1.858-4.487-6.61-12.034-1.002s-11.765-6.655-14.263-13.433 10.088-3.438 8.27-6.748c-1.819-3.31-12.582-.699-17.03 1.278s-4.462-5.065-5.72-13.295c-1.26-8.23 5.059-7.105 14.431-5.881 9.373 1.223 2.467-9.066-5.469-16.972S58.133 44.49 70.39 37.63" fill="url(#a)"/><path d="M90.042 62.544c-3.73-8.792-10.678-12.982-14.831-16.137 2.667 4.211 8.786 8.123 12.939 15.872 2.31 3.837 5.92 11.714 7.763 15.423.284.57-2.66 1.281-13.124 1.194-4.68-.04-7.721.02-8.338.486 1.044.421 1.39-.081 8.766.4 8.722.57 14.1-.298 14.556.386 2.283 3.423 6.404 9.359 8.489 12.216.54.74-19.574 5.458-19.056 6.152.475.637 19.959-4.627 20.413-4.032 3.636 4.77 6.881 8.736 8.251 9.977 6.115 5.543 11.555 4.1 11.745 2.748s-5.143-2.65-12.377-8.074c-2.635-1.976-8.311-7.266-11.658-11.833-.362-.495 11.741-19.138 11.379-19.633-.464-.635-11.961 18.458-12.422 17.833-2.505-3.399-6.34-9.473-8.302-13.553-.103-.217 2.095-3.946 4.407-7.845 2.548-4.296 5.233-8.798 5.125-9.03-.139-.296-3.185 3.857-6.026 7.702-2.468 3.342-4.78 6.451-4.892 6.206-1.266-2.784-2.247-5.138-2.807-6.458" fill="#5F3A59" fill-opacity=".35" style="mix-blend-mode:multiply"/><path d="M218.62 41.018c-9.073-5.622-17.865 2.698-21.265 8.416-.409 1.048-1.508 2.579-2.939 2.867-1.789.36-2.232-.24-2.516-4.734s-9.303-2.611-13.035 2.484c-2.986 4.076-.13 8.838 1.651 12.054 1.259 2.273-1.388 3.382-4.572.92-5.916-4.576-7.48-3.254-10.177 2.874s1.159 10.138 6.61 12.558c5.169 2.295 5.62 11.489-4.051 4.539s-12.682 2.758-17.328 8.45c-4.646 5.694 4.915 20.32 9.086 16.378s7.522 5.52-2.371 12.889 1.295 18.772-.025 12.211 6.197-9.712 11.879-13.337c5.683-3.626 9.154 11.338 14.868 8.409 5.602-2.873 11.759-4.738 11.755-7.891-.004-2.472-2.977-6.098-6.208-7.747-3.793-1.936 4.538-6.084 11.464-.443 6.926 5.64 11.446-5.82 14.102-12.147s-9.429-3.689-7.563-6.753c1.865-3.065 11.969-.133 16.107 1.931 4.139 2.064 4.449-4.619 5.99-12.376 1.542-7.758-4.501-6.956-13.448-6.19-8.946.765-1.959-8.709 5.906-15.877s7.422-12.457-3.92-19.485" fill="url(#i2smld5u2"/><path d="M198.917 63.834c3.912-8.188 10.682-11.87 14.757-14.69-2.709 3.884-8.682 7.339-12.949 14.518-2.355 3.543-6.113 10.867-8.019 14.31-.293.529 2.471 1.327 12.405 1.686 4.444.16 7.327.345 7.893.813-1.008.356-1.316-.136-8.336.01-8.302.173-13.37-.878-13.831-.248-2.311 3.152-6.473 8.612-8.571 11.235-.544.68 18.346 6.006 17.825 6.643-.478.585-18.747-5.234-19.203-4.688-3.652 4.373-6.899 8-8.251 9.121-6.038 5.003-11.139 3.403-11.262 2.112s4.992-2.298 12.087-7.14c2.584-1.764 8.193-6.546 11.562-10.739.365-.454-10.335-18.657-9.971-19.112.468-.583 10.573 18.022 11.037 17.448 2.521-3.12 6.417-8.722 8.45-12.512.108-.2-1.821-3.833-3.851-7.63-2.237-4.186-4.595-8.571-4.482-8.787.143-.275 2.86 3.795 5.393 7.564 2.202 3.275 4.265 6.324 4.381 6.096 1.319-2.589 2.35-4.782 2.936-6.01" fill="#5F3A59" fill-opacity=".35" style="mix-blend-mode:multiply"/><path d="M28.762 64.559c10.905-6.757 21.471 3.242 25.557 10.114.492 1.26 1.813 3.1 3.533 3.446 2.15.433 2.682-.288 3.023-5.69.341-5.401 11.182-3.138 15.667 2.986 3.588 4.899.156 10.622-1.984 14.486-1.513 2.733 1.668 4.066 5.495 1.106 7.11-5.499 8.99-3.91 12.23 3.455 3.242 7.366-1.392 12.184-7.943 15.093-6.213 2.758-6.755 13.807 4.868 5.455s15.242 3.315 20.826 10.157-5.907 24.421-10.92 19.683-9.04 6.634 2.849 15.491c11.89 8.857-1.556 22.561.03 14.676 1.587-7.886-7.447-11.673-14.277-16.03s-11.001 13.627-17.868 10.106c-6.733-3.452-14.133-5.694-14.128-9.483.005-2.971 3.577-7.329 7.46-9.311 4.56-2.326-5.453-7.311-13.777-.533-8.324 6.779-13.756-6.994-16.95-14.598s11.333-4.433 9.091-8.117c-2.242-3.683-14.386-.159-19.36 2.321-4.972 2.481-5.345-5.551-7.198-14.874s5.41-8.36 16.163-7.44 2.354-10.466-7.099-19.081-8.92-14.972 4.712-23.418" fill="url(#b)"/><path d="M52.442 91.98c-4.701-9.84-12.839-14.267-17.735-17.654 3.256 4.667 10.434 8.82 15.563 17.447 2.83 4.26 7.346 13.061 9.637 17.198.353.637-2.97 1.596-14.909 2.027-5.341.193-8.806.416-9.486.977 1.212.428 1.581-.163 10.018.013 9.978.208 16.069-1.055 16.623-.299 2.778 3.789 7.78 10.351 10.302 13.504.654.817-22.05 7.218-21.424 7.983.575.703 22.532-6.29 23.08-5.634 4.389 5.256 8.291 9.615 9.916 10.962 7.256 6.012 13.388 4.09 13.536 2.539.147-1.552-6-2.762-14.527-8.582-3.106-2.12-9.847-7.867-13.897-12.906-.438-.546 12.422-22.424 11.984-22.97-.562-.701-12.707 21.659-13.265 20.969-3.03-3.749-7.712-10.482-10.156-15.037-.13-.242 2.19-4.607 4.63-9.171 2.688-5.03 5.522-10.3 5.387-10.56-.173-.33-3.438 4.56-6.483 9.09-2.646 3.937-5.126 7.601-5.265 7.328-1.586-3.112-2.824-5.747-3.53-7.224" fill="#5F3A59" fill-opacity=".35" style="mix-blend-mode:multiply"/><path d="M246.197 72.04c-10.904-6.757-21.471 3.242-25.557 10.114-.492 1.26-1.812 3.1-3.533 3.446-2.15.432-2.682-.288-3.023-5.69-.341-5.401-11.182-3.138-15.667 2.986-3.588 4.899-.155 10.622 1.985 14.486 1.513 2.733-1.668 4.065-5.495 1.106-7.111-5.499-8.99-3.91-12.231 3.455-3.242 7.365 1.392 12.184 7.943 15.093 6.213 2.758 6.756 13.807-4.868 5.455s-15.242 3.315-20.826 10.157 5.908 24.421 10.92 19.683c5.013-4.739 9.041 6.634-2.849 15.491s1.556 22.561-.03 14.675 7.448-11.672 14.277-16.029c6.829-4.358 11.001 13.627 17.868 10.106 6.733-3.452 14.134-5.694 14.128-9.484-.004-2.97-3.577-7.329-7.46-9.31-4.56-2.327 5.453-7.312 13.777-.533s13.756-6.994 16.95-14.598-11.333-4.434-9.091-8.117 14.386-.159 19.359 2.321 5.347-5.551 7.199-14.875c1.853-9.323-5.41-8.359-16.163-7.439s-2.354-10.466 7.099-19.081 8.92-14.972-4.712-23.418" fill="url(#c)"/><path d="M222.517 99.46c4.701-9.84 12.839-14.266 17.735-17.653-3.256 4.667-10.433 8.819-15.562 17.447-2.831 4.259-7.347 13.061-9.638 17.198-.352.637 2.97 1.596 14.909 2.027 5.341.193 8.807.416 9.486.977-1.212.428-1.581-.163-10.018.013-9.978.208-16.069-1.055-16.623-.299-2.778 3.789-7.779 10.351-10.302 13.504-.654.817 22.05 7.218 21.424 7.983-.575.703-22.532-6.29-23.079-5.634-4.39 5.256-8.292 9.615-9.917 10.962-7.256 6.012-13.388 4.09-13.535 2.539-.148-1.552 5.999-2.762 14.526-8.582 3.106-2.12 9.847-7.867 13.897-12.906.438-.546-12.422-22.424-11.984-22.971.562-.7 12.708 21.66 13.265 20.97 3.03-3.749 7.712-10.482 10.156-15.037.129-.242-2.19-4.607-4.629-9.171-2.688-5.03-5.523-10.301-5.387-10.56.173-.33 3.437 4.56 6.482 9.09 2.646 3.937 5.126 7.601 5.265 7.328 1.586-3.112 2.824-5.748 3.529-7.224" fill="#5F3A59" fill-opacity=".35" style="mix-blend-mode:multiply"/><path d="M262.487 128.214c-10.441-7.453-21.637 1.836-26.163 8.427-.573 1.225-2.01 2.975-3.749 3.209-2.174.291-2.658-.463-2.646-5.875s-10.954-3.861-15.829 1.958c-3.9 4.654-.847 10.589 1.036 14.585 1.332 2.825-1.929 3.948-5.555.745-6.737-5.95-8.716-4.488-12.43 2.651-3.715 7.138.595 12.248 6.943 15.578 6.02 3.158 5.841 14.218-5.214 5.126-11.054-9.093-15.426 2.314-21.444 8.778-6.017 6.463 4.303 24.754 9.614 20.352 5.311-4.401 8.589 7.21-3.853 15.273a62 62 0 0 0-4.96 3.589c-7.811 1.335-14.695 3.164-14.148 7.238.915 6.823 5.147-.058 14.148-7.238 7.473-1.277 15.794-2.103 19.265-4.011 7.099-3.904 10.09 14.315 17.172 11.249 6.943-3.005 14.474-4.761 14.716-8.542.189-2.964-3.092-7.547-6.838-9.777-4.398-2.619 5.919-6.941 13.783.366 7.865 7.307 14.183-6.083 17.865-13.462 3.682-7.38-11.019-5.163-8.542-8.692s14.365.779 19.167 3.578c4.801 2.799 5.696-5.191 8.153-14.374s-4.854-8.694-15.644-8.477-1.667-10.598 8.328-18.578 9.876-14.359-3.175-23.676" fill="url(#d)"/><path d="M237.07 154.034c5.332-9.513 13.741-13.4 18.847-16.461-3.553 4.446-10.986 8.12-16.666 16.396-3.103 4.065-8.183 12.554-10.738 16.533-.394.612 2.859 1.786 14.745 2.995 5.317.54 8.76.988 9.402 1.593-1.237.348-1.567-.266-9.998-.64-9.971-.443-15.965-2.101-16.568-1.382-3.019 3.599-8.437 9.821-11.16 12.803-.706.773 21.532 8.64 20.858 9.363-.62.664-22.074-7.745-22.663-7.127-4.723 4.959-8.901 9.055-10.61 10.293-7.633 5.526-13.627 3.209-13.673 1.651s6.167-2.365 15.055-7.617c3.238-1.913 10.339-7.208 14.709-11.973.473-.515-10.934-23.185-10.461-23.702.606-.663 11.269 22.442 11.87 21.79 3.267-3.544 8.379-9.958 11.114-14.344.145-.232-1.884-4.74-4.021-9.453-2.355-5.194-4.84-10.639-4.687-10.888.194-.319 3.133 4.774 5.876 9.493 2.383 4.101 4.619 7.919 4.776 7.655 1.785-3.002 3.192-5.551 3.993-6.978" fill="#5F3A59" fill-opacity=".35" style="mix-blend-mode:multiply"/><path d="M12.308 135.137c9.59-8.52 21.71-.472 26.91 5.601.7 1.157 2.314 2.745 4.068 2.792 2.193.059 2.594-.743 2.008-6.123-.587-5.38 10.48-5.002 15.946.266 4.372 4.214 1.968 10.439.52 14.613-1.025 2.95 2.337 3.72 5.602.15 6.067-6.632 8.19-5.388 12.642 1.316 4.451 6.703.709 12.242-5.25 16.227-5.65 3.78-4.297 14.759 5.73 4.543 10.025-10.215 15.584.664 22.254 6.451 6.67 5.788-1.65 25.071-7.398 21.259s-7.775 8.081 5.453 14.777 2.321 22.496 2.537 14.455-9.332-10.229-16.805-13.356c-7.474-3.127-8.513 15.306-15.88 13.01-7.223-2.251-14.898-3.197-15.54-6.931-.503-2.927 2.273-7.832 5.76-10.448 4.095-3.071-6.622-6.273-13.666 1.828s-14.748-4.542-19.193-11.489 10.408-6.303 7.57-9.55c-2.838-3.246-14.201 2.301-18.678 5.594s-6.216-4.556-9.634-13.427 3.903-9.16 14.655-10.09.532-10.715-10.254-17.589-11.346-13.228.643-23.879" fill="url(#e)"/><path d="M40.323 158.111c-6.312-8.893-15.086-11.864-20.49-14.366 4.006 4.043 11.787 6.908 18.315 14.533 3.516 3.713 9.469 11.614 12.433 15.299.456.567-2.654 2.08-14.344 4.544-5.23 1.102-8.606 1.914-9.18 2.583 1.268.215 1.53-.43 9.874-1.698 9.867-1.5 15.652-3.785 16.328-3.134 3.383 3.258 9.432 8.87 12.456 11.545.784.694-20.493 10.879-19.745 11.526.686.594 21.126-10.046 21.778-9.494 5.222 4.429 9.812 8.058 11.643 9.107 8.177 4.685 13.89 1.744 13.77.19s-6.383-1.697-15.779-5.975c-3.422-1.558-11.046-6.069-15.897-10.342-.525-.463 8.41-24.216 7.885-24.68-.674-.594-8.822 23.512-9.489 22.927-3.625-3.176-9.389-9.011-12.575-13.082-.168-.215 1.37-4.913 2.995-9.826 1.79-5.415 3.682-11.093 3.504-11.325-.227-.296-2.608 5.081-4.834 10.064-1.935 4.331-3.752 8.364-3.936 8.119-2.094-2.795-3.765-5.181-4.712-6.515" fill="#5F3A59" fill-opacity=".35" style="mix-blend-mode:multiply"/><circle cx="140.711" cy="158.901" r="86.03" fill="#FFF5E0"/><circle cx="140.711" cy="158.901" r="80.702" stroke="#5F3A59" stroke-width="1.929" stroke-dasharray="3.22 3.22"/><defs><linearGradient id="a" x1="109.044" y1="43.641" x2="156.655" y2="138.038" gradientUnits="userSpaceOnUse"><stop stop-color="#FFC368"/><stop offset="1" stop-color="#F36F56"/></linearGradient><linearGradient id="b" x1="73.157" y1="69.454" x2="53.432" y2="167.495" gradientUnits="userSpaceOnUse"><stop stop-color="#89E07A"/><stop offset="1" stop-color="#FFC444"/></linearGradient><linearGradient id="c" x1="239.614" y1="61.314" x2="152.807" y2="219.353" gradientUnits="userSpaceOnUse"><stop offset=".432" stop-color="#F36F56"/><stop offset="1" stop-color="#893976"/></linearGradient><linearGradient id="d" x1="217.867" y1="130.206" x2="152.039" y2="231.386" gradientUnits="userSpaceOnUse"><stop stop-color="#FFC368"/><stop offset="1" stop-color="#F36F56"/></linearGradient><linearGradient id="e" x1="16.963" y1="123.445" x2="129.488" y2="264.335" gradientUnits="userSpaceOnUse"><stop offset=".432" stop-color="#F36F56"/><stop offset="1" stop-color="#893976"/></linearGradient></defs></g></svg>